%TF.GenerationSoftware,KiCad,Pcbnew,5.99.0-unknown-b691c18bfc~117~ubuntu20.10.1*%
%TF.CreationDate,2021-03-21T19:03:18-07:00*%
%TF.ProjectId,xx1000-qt,78783130-3030-42d7-9174-2e6b69636164,rev?*%
%TF.SameCoordinates,Original*%
%TF.FileFunction,Legend,Top*%
%TF.FilePolarity,Positive*%
%FSLAX46Y46*%
G04 Gerber Fmt 4.6, Leading zero omitted, Abs format (unit mm)*
G04 Created by KiCad (PCBNEW 5.99.0-unknown-b691c18bfc~117~ubuntu20.10.1) date 2021-03-21 19:03:18*
%MOMM*%
%LPD*%
G01*
G04 APERTURE LIST*
%ADD10C,0.300000*%
%ADD11C,0.225000*%
%ADD12C,0.150000*%
%ADD13C,0.120000*%
G04 APERTURE END LIST*
D10*
X101071428Y-61978571D02*
X101071428Y-60978571D01*
X101071428Y-60478571D02*
X101000000Y-60550000D01*
X101071428Y-60621428D01*
X101142857Y-60550000D01*
X101071428Y-60478571D01*
X101071428Y-60621428D01*
X101785714Y-60978571D02*
X101785714Y-61978571D01*
X101785714Y-61121428D02*
X101857142Y-61050000D01*
X102000000Y-60978571D01*
X102214285Y-60978571D01*
X102357142Y-61050000D01*
X102428571Y-61192857D01*
X102428571Y-61978571D01*
X123785714Y-61978571D02*
X123642857Y-61907142D01*
X123571428Y-61835714D01*
X123500000Y-61692857D01*
X123500000Y-61264285D01*
X123571428Y-61121428D01*
X123642857Y-61050000D01*
X123785714Y-60978571D01*
X124000000Y-60978571D01*
X124142857Y-61050000D01*
X124214285Y-61121428D01*
X124285714Y-61264285D01*
X124285714Y-61692857D01*
X124214285Y-61835714D01*
X124142857Y-61907142D01*
X124000000Y-61978571D01*
X123785714Y-61978571D01*
X125571428Y-60978571D02*
X125571428Y-61978571D01*
X124928571Y-60978571D02*
X124928571Y-61764285D01*
X125000000Y-61907142D01*
X125142857Y-61978571D01*
X125357142Y-61978571D01*
X125500000Y-61907142D01*
X125571428Y-61835714D01*
X126071428Y-60978571D02*
X126642857Y-60978571D01*
X126285714Y-60478571D02*
X126285714Y-61764285D01*
X126357142Y-61907142D01*
X126500000Y-61978571D01*
X126642857Y-61978571D01*
X100178571Y-54882857D02*
X100178571Y-54740000D01*
X100250000Y-54597142D01*
X100321428Y-54525714D01*
X100464285Y-54454285D01*
X100750000Y-54382857D01*
X101107142Y-54382857D01*
X101392857Y-54454285D01*
X101535714Y-54525714D01*
X101607142Y-54597142D01*
X101678571Y-54740000D01*
X101678571Y-54882857D01*
X101607142Y-55025714D01*
X101535714Y-55097142D01*
X101392857Y-55168571D01*
X101107142Y-55240000D01*
X100750000Y-55240000D01*
X100464285Y-55168571D01*
X100321428Y-55097142D01*
X100250000Y-55025714D01*
X100178571Y-54882857D01*
X100678571Y-53882857D02*
X101678571Y-53525714D01*
X100678571Y-53168571D01*
D11*
X106464285Y-77907142D02*
X106935714Y-77307142D01*
X106464285Y-77307142D02*
X106935714Y-77907142D01*
X107192857Y-77907142D02*
X107664285Y-77307142D01*
X107192857Y-77307142D02*
X107664285Y-77907142D01*
X108478571Y-77907142D02*
X107964285Y-77907142D01*
X108221428Y-77907142D02*
X108221428Y-77007142D01*
X108135714Y-77135714D01*
X108050000Y-77221428D01*
X107964285Y-77264285D01*
X109035714Y-77007142D02*
X109121428Y-77007142D01*
X109207142Y-77050000D01*
X109250000Y-77092857D01*
X109292857Y-77178571D01*
X109335714Y-77350000D01*
X109335714Y-77564285D01*
X109292857Y-77735714D01*
X109250000Y-77821428D01*
X109207142Y-77864285D01*
X109121428Y-77907142D01*
X109035714Y-77907142D01*
X108950000Y-77864285D01*
X108907142Y-77821428D01*
X108864285Y-77735714D01*
X108821428Y-77564285D01*
X108821428Y-77350000D01*
X108864285Y-77178571D01*
X108907142Y-77092857D01*
X108950000Y-77050000D01*
X109035714Y-77007142D01*
X109892857Y-77007142D02*
X109978571Y-77007142D01*
X110064285Y-77050000D01*
X110107142Y-77092857D01*
X110150000Y-77178571D01*
X110192857Y-77350000D01*
X110192857Y-77564285D01*
X110150000Y-77735714D01*
X110107142Y-77821428D01*
X110064285Y-77864285D01*
X109978571Y-77907142D01*
X109892857Y-77907142D01*
X109807142Y-77864285D01*
X109764285Y-77821428D01*
X109721428Y-77735714D01*
X109678571Y-77564285D01*
X109678571Y-77350000D01*
X109721428Y-77178571D01*
X109764285Y-77092857D01*
X109807142Y-77050000D01*
X109892857Y-77007142D01*
X110750000Y-77007142D02*
X110835714Y-77007142D01*
X110921428Y-77050000D01*
X110964285Y-77092857D01*
X111007142Y-77178571D01*
X111050000Y-77350000D01*
X111050000Y-77564285D01*
X111007142Y-77735714D01*
X110964285Y-77821428D01*
X110921428Y-77864285D01*
X110835714Y-77907142D01*
X110750000Y-77907142D01*
X110664285Y-77864285D01*
X110621428Y-77821428D01*
X110578571Y-77735714D01*
X110535714Y-77564285D01*
X110535714Y-77350000D01*
X110578571Y-77178571D01*
X110621428Y-77092857D01*
X110664285Y-77050000D01*
X110750000Y-77007142D01*
X111435714Y-77564285D02*
X112121428Y-77564285D01*
X112935714Y-77307142D02*
X112935714Y-78207142D01*
X112935714Y-77864285D02*
X112850000Y-77907142D01*
X112678571Y-77907142D01*
X112592857Y-77864285D01*
X112550000Y-77821428D01*
X112507142Y-77735714D01*
X112507142Y-77478571D01*
X112550000Y-77392857D01*
X112592857Y-77350000D01*
X112678571Y-77307142D01*
X112850000Y-77307142D01*
X112935714Y-77350000D01*
X113235714Y-77307142D02*
X113578571Y-77307142D01*
X113364285Y-77007142D02*
X113364285Y-77778571D01*
X113407142Y-77864285D01*
X113492857Y-77907142D01*
X113578571Y-77907142D01*
D10*
X103678571Y-56525714D02*
X103678571Y-57240000D01*
X104392857Y-57311428D01*
X104321428Y-57240000D01*
X104250000Y-57097142D01*
X104250000Y-56740000D01*
X104321428Y-56597142D01*
X104392857Y-56525714D01*
X104535714Y-56454285D01*
X104892857Y-56454285D01*
X105035714Y-56525714D01*
X105107142Y-56597142D01*
X105178571Y-56740000D01*
X105178571Y-57097142D01*
X105107142Y-57240000D01*
X105035714Y-57311428D01*
X105035714Y-55811428D02*
X105107142Y-55740000D01*
X105178571Y-55811428D01*
X105107142Y-55882857D01*
X105035714Y-55811428D01*
X105178571Y-55811428D01*
X103678571Y-54382857D02*
X103678571Y-55097142D01*
X104392857Y-55168571D01*
X104321428Y-55097142D01*
X104250000Y-54954285D01*
X104250000Y-54597142D01*
X104321428Y-54454285D01*
X104392857Y-54382857D01*
X104535714Y-54311428D01*
X104892857Y-54311428D01*
X105035714Y-54382857D01*
X105107142Y-54454285D01*
X105178571Y-54597142D01*
X105178571Y-54954285D01*
X105107142Y-55097142D01*
X105035714Y-55168571D01*
X104178571Y-53811428D02*
X105178571Y-53454285D01*
X104178571Y-53097142D01*
D12*
X100926190Y-77127845D02*
X100964285Y-77089750D01*
X101040476Y-77051654D01*
X101230952Y-77051654D01*
X101307142Y-77089750D01*
X101345238Y-77127845D01*
X101383333Y-77204035D01*
X101383333Y-77280226D01*
X101345238Y-77394511D01*
X100888095Y-77851654D01*
X101383333Y-77851654D01*
X101878571Y-77051654D02*
X101954761Y-77051654D01*
X102030952Y-77089750D01*
X102069047Y-77127845D01*
X102107142Y-77204035D01*
X102145238Y-77356416D01*
X102145238Y-77546892D01*
X102107142Y-77699273D01*
X102069047Y-77775464D01*
X102030952Y-77813559D01*
X101954761Y-77851654D01*
X101878571Y-77851654D01*
X101802380Y-77813559D01*
X101764285Y-77775464D01*
X101726190Y-77699273D01*
X101688095Y-77546892D01*
X101688095Y-77356416D01*
X101726190Y-77204035D01*
X101764285Y-77127845D01*
X101802380Y-77089750D01*
X101878571Y-77051654D01*
X102450000Y-77127845D02*
X102488095Y-77089750D01*
X102564285Y-77051654D01*
X102754761Y-77051654D01*
X102830952Y-77089750D01*
X102869047Y-77127845D01*
X102907142Y-77204035D01*
X102907142Y-77280226D01*
X102869047Y-77394511D01*
X102411904Y-77851654D01*
X102907142Y-77851654D01*
X103669047Y-77851654D02*
X103211904Y-77851654D01*
X103440476Y-77851654D02*
X103440476Y-77051654D01*
X103364285Y-77165940D01*
X103288095Y-77242130D01*
X103211904Y-77280226D01*
X104011904Y-77775464D02*
X104050000Y-77813559D01*
X104011904Y-77851654D01*
X103973809Y-77813559D01*
X104011904Y-77775464D01*
X104011904Y-77851654D01*
X104545238Y-77051654D02*
X104621428Y-77051654D01*
X104697619Y-77089750D01*
X104735714Y-77127845D01*
X104773809Y-77204035D01*
X104811904Y-77356416D01*
X104811904Y-77546892D01*
X104773809Y-77699273D01*
X104735714Y-77775464D01*
X104697619Y-77813559D01*
X104621428Y-77851654D01*
X104545238Y-77851654D01*
X104469047Y-77813559D01*
X104430952Y-77775464D01*
X104392857Y-77699273D01*
X104354761Y-77546892D01*
X104354761Y-77356416D01*
X104392857Y-77204035D01*
X104430952Y-77127845D01*
X104469047Y-77089750D01*
X104545238Y-77051654D01*
X105078571Y-77051654D02*
X105573809Y-77051654D01*
X105307142Y-77356416D01*
X105421428Y-77356416D01*
X105497619Y-77394511D01*
X105535714Y-77432607D01*
X105573809Y-77508797D01*
X105573809Y-77699273D01*
X105535714Y-77775464D01*
X105497619Y-77813559D01*
X105421428Y-77851654D01*
X105192857Y-77851654D01*
X105116666Y-77813559D01*
X105078571Y-77775464D01*
%TO.C,J4*%
X99574286Y-76875000D02*
X100110001Y-76875000D01*
X100217143Y-76910714D01*
X100288572Y-76982142D01*
X100324286Y-77089285D01*
X100324286Y-77160714D01*
X99824286Y-76196428D02*
X100324286Y-76196428D01*
X99538572Y-76375000D02*
X100074286Y-76553571D01*
X100074286Y-76089285D01*
%TO.C,R10*%
X121717857Y-48639285D02*
X121467857Y-48282142D01*
X121289285Y-48639285D02*
X121289285Y-47889285D01*
X121575000Y-47889285D01*
X121646428Y-47925000D01*
X121682142Y-47960714D01*
X121717857Y-48032142D01*
X121717857Y-48139285D01*
X121682142Y-48210714D01*
X121646428Y-48246428D01*
X121575000Y-48282142D01*
X121289285Y-48282142D01*
X122432142Y-48639285D02*
X122003571Y-48639285D01*
X122217857Y-48639285D02*
X122217857Y-47889285D01*
X122146428Y-47996428D01*
X122075000Y-48067857D01*
X122003571Y-48103571D01*
X122896428Y-47889285D02*
X122967857Y-47889285D01*
X123039285Y-47925000D01*
X123075000Y-47960714D01*
X123110714Y-48032142D01*
X123146428Y-48175000D01*
X123146428Y-48353571D01*
X123110714Y-48496428D01*
X123075000Y-48567857D01*
X123039285Y-48603571D01*
X122967857Y-48639285D01*
X122896428Y-48639285D01*
X122825000Y-48603571D01*
X122789285Y-48567857D01*
X122753571Y-48496428D01*
X122717857Y-48353571D01*
X122717857Y-48175000D01*
X122753571Y-48032142D01*
X122789285Y-47960714D01*
X122825000Y-47925000D01*
X122896428Y-47889285D01*
%TO.C,R7*%
X118625000Y-54079285D02*
X118375000Y-53722142D01*
X118196428Y-54079285D02*
X118196428Y-53329285D01*
X118482142Y-53329285D01*
X118553571Y-53365000D01*
X118589285Y-53400714D01*
X118625000Y-53472142D01*
X118625000Y-53579285D01*
X118589285Y-53650714D01*
X118553571Y-53686428D01*
X118482142Y-53722142D01*
X118196428Y-53722142D01*
X118875000Y-53329285D02*
X119375000Y-53329285D01*
X119053571Y-54079285D01*
%TO.C,R19*%
X120017857Y-74839285D02*
X119767857Y-74482142D01*
X119589285Y-74839285D02*
X119589285Y-74089285D01*
X119875000Y-74089285D01*
X119946428Y-74125000D01*
X119982142Y-74160714D01*
X120017857Y-74232142D01*
X120017857Y-74339285D01*
X119982142Y-74410714D01*
X119946428Y-74446428D01*
X119875000Y-74482142D01*
X119589285Y-74482142D01*
X120732142Y-74839285D02*
X120303571Y-74839285D01*
X120517857Y-74839285D02*
X120517857Y-74089285D01*
X120446428Y-74196428D01*
X120375000Y-74267857D01*
X120303571Y-74303571D01*
X121089285Y-74839285D02*
X121232142Y-74839285D01*
X121303571Y-74803571D01*
X121339285Y-74767857D01*
X121410714Y-74660714D01*
X121446428Y-74517857D01*
X121446428Y-74232142D01*
X121410714Y-74160714D01*
X121375000Y-74125000D01*
X121303571Y-74089285D01*
X121160714Y-74089285D01*
X121089285Y-74125000D01*
X121053571Y-74160714D01*
X121017857Y-74232142D01*
X121017857Y-74410714D01*
X121053571Y-74482142D01*
X121089285Y-74517857D01*
X121160714Y-74553571D01*
X121303571Y-74553571D01*
X121375000Y-74517857D01*
X121410714Y-74482142D01*
X121446428Y-74410714D01*
%TO.C,R11*%
X108339285Y-72482142D02*
X107982142Y-72732142D01*
X108339285Y-72910714D02*
X107589285Y-72910714D01*
X107589285Y-72625000D01*
X107625000Y-72553571D01*
X107660714Y-72517857D01*
X107732142Y-72482142D01*
X107839285Y-72482142D01*
X107910714Y-72517857D01*
X107946428Y-72553571D01*
X107982142Y-72625000D01*
X107982142Y-72910714D01*
X108339285Y-71767857D02*
X108339285Y-72196428D01*
X108339285Y-71982142D02*
X107589285Y-71982142D01*
X107696428Y-72053571D01*
X107767857Y-72125000D01*
X107803571Y-72196428D01*
X108339285Y-71053571D02*
X108339285Y-71482142D01*
X108339285Y-71267857D02*
X107589285Y-71267857D01*
X107696428Y-71339285D01*
X107767857Y-71410714D01*
X107803571Y-71482142D01*
%TO.C,R14*%
X113089285Y-60232142D02*
X112732142Y-60482142D01*
X113089285Y-60660714D02*
X112339285Y-60660714D01*
X112339285Y-60375000D01*
X112375000Y-60303571D01*
X112410714Y-60267857D01*
X112482142Y-60232142D01*
X112589285Y-60232142D01*
X112660714Y-60267857D01*
X112696428Y-60303571D01*
X112732142Y-60375000D01*
X112732142Y-60660714D01*
X113089285Y-59517857D02*
X113089285Y-59946428D01*
X113089285Y-59732142D02*
X112339285Y-59732142D01*
X112446428Y-59803571D01*
X112517857Y-59875000D01*
X112553571Y-59946428D01*
X112589285Y-58875000D02*
X113089285Y-58875000D01*
X112303571Y-59053571D02*
X112839285Y-59232142D01*
X112839285Y-58767857D01*
%TO.C,R3*%
X117839285Y-53615000D02*
X117482142Y-53865000D01*
X117839285Y-54043571D02*
X117089285Y-54043571D01*
X117089285Y-53757857D01*
X117125000Y-53686428D01*
X117160714Y-53650714D01*
X117232142Y-53615000D01*
X117339285Y-53615000D01*
X117410714Y-53650714D01*
X117446428Y-53686428D01*
X117482142Y-53757857D01*
X117482142Y-54043571D01*
X117089285Y-53365000D02*
X117089285Y-52900714D01*
X117375000Y-53150714D01*
X117375000Y-53043571D01*
X117410714Y-52972142D01*
X117446428Y-52936428D01*
X117517857Y-52900714D01*
X117696428Y-52900714D01*
X117767857Y-52936428D01*
X117803571Y-52972142D01*
X117839285Y-53043571D01*
X117839285Y-53257857D01*
X117803571Y-53329285D01*
X117767857Y-53365000D01*
%TO.C,C14*%
X114627857Y-61482142D02*
X114663571Y-61517857D01*
X114699285Y-61625000D01*
X114699285Y-61696428D01*
X114663571Y-61803571D01*
X114592142Y-61875000D01*
X114520714Y-61910714D01*
X114377857Y-61946428D01*
X114270714Y-61946428D01*
X114127857Y-61910714D01*
X114056428Y-61875000D01*
X113985000Y-61803571D01*
X113949285Y-61696428D01*
X113949285Y-61625000D01*
X113985000Y-61517857D01*
X114020714Y-61482142D01*
X114699285Y-60767857D02*
X114699285Y-61196428D01*
X114699285Y-60982142D02*
X113949285Y-60982142D01*
X114056428Y-61053571D01*
X114127857Y-61125000D01*
X114163571Y-61196428D01*
X114199285Y-60125000D02*
X114699285Y-60125000D01*
X113913571Y-60303571D02*
X114449285Y-60482142D01*
X114449285Y-60017857D01*
%TO.C,Q2*%
X124160714Y-49321428D02*
X124125000Y-49392857D01*
X124053571Y-49464285D01*
X123946428Y-49571428D01*
X123910714Y-49642857D01*
X123910714Y-49714285D01*
X124089285Y-49678571D02*
X124053571Y-49750000D01*
X123982142Y-49821428D01*
X123839285Y-49857142D01*
X123589285Y-49857142D01*
X123446428Y-49821428D01*
X123375000Y-49750000D01*
X123339285Y-49678571D01*
X123339285Y-49535714D01*
X123375000Y-49464285D01*
X123446428Y-49392857D01*
X123589285Y-49357142D01*
X123839285Y-49357142D01*
X123982142Y-49392857D01*
X124053571Y-49464285D01*
X124089285Y-49535714D01*
X124089285Y-49678571D01*
X123410714Y-49071428D02*
X123375000Y-49035714D01*
X123339285Y-48964285D01*
X123339285Y-48785714D01*
X123375000Y-48714285D01*
X123410714Y-48678571D01*
X123482142Y-48642857D01*
X123553571Y-48642857D01*
X123660714Y-48678571D01*
X124089285Y-49107142D01*
X124089285Y-48642857D01*
%TO.C,R16*%
X112089285Y-60232142D02*
X111732142Y-60482142D01*
X112089285Y-60660714D02*
X111339285Y-60660714D01*
X111339285Y-60375000D01*
X111375000Y-60303571D01*
X111410714Y-60267857D01*
X111482142Y-60232142D01*
X111589285Y-60232142D01*
X111660714Y-60267857D01*
X111696428Y-60303571D01*
X111732142Y-60375000D01*
X111732142Y-60660714D01*
X112089285Y-59517857D02*
X112089285Y-59946428D01*
X112089285Y-59732142D02*
X111339285Y-59732142D01*
X111446428Y-59803571D01*
X111517857Y-59875000D01*
X111553571Y-59946428D01*
X111339285Y-58875000D02*
X111339285Y-59017857D01*
X111375000Y-59089285D01*
X111410714Y-59125000D01*
X111517857Y-59196428D01*
X111660714Y-59232142D01*
X111946428Y-59232142D01*
X112017857Y-59196428D01*
X112053571Y-59160714D01*
X112089285Y-59089285D01*
X112089285Y-58946428D01*
X112053571Y-58875000D01*
X112017857Y-58839285D01*
X111946428Y-58803571D01*
X111767857Y-58803571D01*
X111696428Y-58839285D01*
X111660714Y-58875000D01*
X111625000Y-58946428D01*
X111625000Y-59089285D01*
X111660714Y-59160714D01*
X111696428Y-59196428D01*
X111767857Y-59232142D01*
%TO.C,R13*%
X112089285Y-76482142D02*
X111732142Y-76732142D01*
X112089285Y-76910714D02*
X111339285Y-76910714D01*
X111339285Y-76625000D01*
X111375000Y-76553571D01*
X111410714Y-76517857D01*
X111482142Y-76482142D01*
X111589285Y-76482142D01*
X111660714Y-76517857D01*
X111696428Y-76553571D01*
X111732142Y-76625000D01*
X111732142Y-76910714D01*
X112089285Y-75767857D02*
X112089285Y-76196428D01*
X112089285Y-75982142D02*
X111339285Y-75982142D01*
X111446428Y-76053571D01*
X111517857Y-76125000D01*
X111553571Y-76196428D01*
X111339285Y-75517857D02*
X111339285Y-75053571D01*
X111625000Y-75303571D01*
X111625000Y-75196428D01*
X111660714Y-75125000D01*
X111696428Y-75089285D01*
X111767857Y-75053571D01*
X111946428Y-75053571D01*
X112017857Y-75089285D01*
X112053571Y-75125000D01*
X112089285Y-75196428D01*
X112089285Y-75410714D01*
X112053571Y-75482142D01*
X112017857Y-75517857D01*
%TO.C,C10*%
X107267857Y-72482142D02*
X107303571Y-72517857D01*
X107339285Y-72625000D01*
X107339285Y-72696428D01*
X107303571Y-72803571D01*
X107232142Y-72875000D01*
X107160714Y-72910714D01*
X107017857Y-72946428D01*
X106910714Y-72946428D01*
X106767857Y-72910714D01*
X106696428Y-72875000D01*
X106625000Y-72803571D01*
X106589285Y-72696428D01*
X106589285Y-72625000D01*
X106625000Y-72517857D01*
X106660714Y-72482142D01*
X107339285Y-71767857D02*
X107339285Y-72196428D01*
X107339285Y-71982142D02*
X106589285Y-71982142D01*
X106696428Y-72053571D01*
X106767857Y-72125000D01*
X106803571Y-72196428D01*
X106589285Y-71303571D02*
X106589285Y-71232142D01*
X106625000Y-71160714D01*
X106660714Y-71125000D01*
X106732142Y-71089285D01*
X106875000Y-71053571D01*
X107053571Y-71053571D01*
X107196428Y-71089285D01*
X107267857Y-71125000D01*
X107303571Y-71160714D01*
X107339285Y-71232142D01*
X107339285Y-71303571D01*
X107303571Y-71375000D01*
X107267857Y-71410714D01*
X107196428Y-71446428D01*
X107053571Y-71482142D01*
X106875000Y-71482142D01*
X106732142Y-71446428D01*
X106660714Y-71410714D01*
X106625000Y-71375000D01*
X106589285Y-71303571D01*
%TO.C,C13*%
X117517857Y-66267857D02*
X117482142Y-66303571D01*
X117375000Y-66339285D01*
X117303571Y-66339285D01*
X117196428Y-66303571D01*
X117125000Y-66232142D01*
X117089285Y-66160714D01*
X117053571Y-66017857D01*
X117053571Y-65910714D01*
X117089285Y-65767857D01*
X117125000Y-65696428D01*
X117196428Y-65625000D01*
X117303571Y-65589285D01*
X117375000Y-65589285D01*
X117482142Y-65625000D01*
X117517857Y-65660714D01*
X118232142Y-66339285D02*
X117803571Y-66339285D01*
X118017857Y-66339285D02*
X118017857Y-65589285D01*
X117946428Y-65696428D01*
X117875000Y-65767857D01*
X117803571Y-65803571D01*
X118482142Y-65589285D02*
X118946428Y-65589285D01*
X118696428Y-65875000D01*
X118803571Y-65875000D01*
X118875000Y-65910714D01*
X118910714Y-65946428D01*
X118946428Y-66017857D01*
X118946428Y-66196428D01*
X118910714Y-66267857D01*
X118875000Y-66303571D01*
X118803571Y-66339285D01*
X118589285Y-66339285D01*
X118517857Y-66303571D01*
X118482142Y-66267857D01*
%TO.C,C3*%
X108625000Y-52757857D02*
X108589285Y-52793571D01*
X108482142Y-52829285D01*
X108410714Y-52829285D01*
X108303571Y-52793571D01*
X108232142Y-52722142D01*
X108196428Y-52650714D01*
X108160714Y-52507857D01*
X108160714Y-52400714D01*
X108196428Y-52257857D01*
X108232142Y-52186428D01*
X108303571Y-52115000D01*
X108410714Y-52079285D01*
X108482142Y-52079285D01*
X108589285Y-52115000D01*
X108625000Y-52150714D01*
X108875000Y-52079285D02*
X109339285Y-52079285D01*
X109089285Y-52365000D01*
X109196428Y-52365000D01*
X109267857Y-52400714D01*
X109303571Y-52436428D01*
X109339285Y-52507857D01*
X109339285Y-52686428D01*
X109303571Y-52757857D01*
X109267857Y-52793571D01*
X109196428Y-52829285D01*
X108982142Y-52829285D01*
X108910714Y-52793571D01*
X108875000Y-52757857D01*
%TO.C,C11*%
X117517857Y-72767857D02*
X117482142Y-72803571D01*
X117375000Y-72839285D01*
X117303571Y-72839285D01*
X117196428Y-72803571D01*
X117125000Y-72732142D01*
X117089285Y-72660714D01*
X117053571Y-72517857D01*
X117053571Y-72410714D01*
X117089285Y-72267857D01*
X117125000Y-72196428D01*
X117196428Y-72125000D01*
X117303571Y-72089285D01*
X117375000Y-72089285D01*
X117482142Y-72125000D01*
X117517857Y-72160714D01*
X118232142Y-72839285D02*
X117803571Y-72839285D01*
X118017857Y-72839285D02*
X118017857Y-72089285D01*
X117946428Y-72196428D01*
X117875000Y-72267857D01*
X117803571Y-72303571D01*
X118946428Y-72839285D02*
X118517857Y-72839285D01*
X118732142Y-72839285D02*
X118732142Y-72089285D01*
X118660714Y-72196428D01*
X118589285Y-72267857D01*
X118517857Y-72303571D01*
%TO.C,C25*%
X105017857Y-60017857D02*
X104982142Y-60053571D01*
X104875000Y-60089285D01*
X104803571Y-60089285D01*
X104696428Y-60053571D01*
X104625000Y-59982142D01*
X104589285Y-59910714D01*
X104553571Y-59767857D01*
X104553571Y-59660714D01*
X104589285Y-59517857D01*
X104625000Y-59446428D01*
X104696428Y-59375000D01*
X104803571Y-59339285D01*
X104875000Y-59339285D01*
X104982142Y-59375000D01*
X105017857Y-59410714D01*
X105303571Y-59410714D02*
X105339285Y-59375000D01*
X105410714Y-59339285D01*
X105589285Y-59339285D01*
X105660714Y-59375000D01*
X105696428Y-59410714D01*
X105732142Y-59482142D01*
X105732142Y-59553571D01*
X105696428Y-59660714D01*
X105267857Y-60089285D01*
X105732142Y-60089285D01*
X106410714Y-59339285D02*
X106053571Y-59339285D01*
X106017857Y-59696428D01*
X106053571Y-59660714D01*
X106125000Y-59625000D01*
X106303571Y-59625000D01*
X106375000Y-59660714D01*
X106410714Y-59696428D01*
X106446428Y-59767857D01*
X106446428Y-59946428D01*
X106410714Y-60017857D01*
X106375000Y-60053571D01*
X106303571Y-60089285D01*
X106125000Y-60089285D01*
X106053571Y-60053571D01*
X106017857Y-60017857D01*
%TO.C,C19*%
X117517857Y-65267857D02*
X117482142Y-65303571D01*
X117375000Y-65339285D01*
X117303571Y-65339285D01*
X117196428Y-65303571D01*
X117125000Y-65232142D01*
X117089285Y-65160714D01*
X117053571Y-65017857D01*
X117053571Y-64910714D01*
X117089285Y-64767857D01*
X117125000Y-64696428D01*
X117196428Y-64625000D01*
X117303571Y-64589285D01*
X117375000Y-64589285D01*
X117482142Y-64625000D01*
X117517857Y-64660714D01*
X118232142Y-65339285D02*
X117803571Y-65339285D01*
X118017857Y-65339285D02*
X118017857Y-64589285D01*
X117946428Y-64696428D01*
X117875000Y-64767857D01*
X117803571Y-64803571D01*
X118589285Y-65339285D02*
X118732142Y-65339285D01*
X118803571Y-65303571D01*
X118839285Y-65267857D01*
X118910714Y-65160714D01*
X118946428Y-65017857D01*
X118946428Y-64732142D01*
X118910714Y-64660714D01*
X118875000Y-64625000D01*
X118803571Y-64589285D01*
X118660714Y-64589285D01*
X118589285Y-64625000D01*
X118553571Y-64660714D01*
X118517857Y-64732142D01*
X118517857Y-64910714D01*
X118553571Y-64982142D01*
X118589285Y-65017857D01*
X118660714Y-65053571D01*
X118803571Y-65053571D01*
X118875000Y-65017857D01*
X118910714Y-64982142D01*
X118946428Y-64910714D01*
%TO.C,C9*%
X106267857Y-72125000D02*
X106303571Y-72160714D01*
X106339285Y-72267857D01*
X106339285Y-72339285D01*
X106303571Y-72446428D01*
X106232142Y-72517857D01*
X106160714Y-72553571D01*
X106017857Y-72589285D01*
X105910714Y-72589285D01*
X105767857Y-72553571D01*
X105696428Y-72517857D01*
X105625000Y-72446428D01*
X105589285Y-72339285D01*
X105589285Y-72267857D01*
X105625000Y-72160714D01*
X105660714Y-72125000D01*
X106339285Y-71767857D02*
X106339285Y-71625000D01*
X106303571Y-71553571D01*
X106267857Y-71517857D01*
X106160714Y-71446428D01*
X106017857Y-71410714D01*
X105732142Y-71410714D01*
X105660714Y-71446428D01*
X105625000Y-71482142D01*
X105589285Y-71553571D01*
X105589285Y-71696428D01*
X105625000Y-71767857D01*
X105660714Y-71803571D01*
X105732142Y-71839285D01*
X105910714Y-71839285D01*
X105982142Y-71803571D01*
X106017857Y-71767857D01*
X106053571Y-71696428D01*
X106053571Y-71553571D01*
X106017857Y-71482142D01*
X105982142Y-71446428D01*
X105910714Y-71410714D01*
%TO.C,C2*%
X112875000Y-52757857D02*
X112839285Y-52793571D01*
X112732142Y-52829285D01*
X112660714Y-52829285D01*
X112553571Y-52793571D01*
X112482142Y-52722142D01*
X112446428Y-52650714D01*
X112410714Y-52507857D01*
X112410714Y-52400714D01*
X112446428Y-52257857D01*
X112482142Y-52186428D01*
X112553571Y-52115000D01*
X112660714Y-52079285D01*
X112732142Y-52079285D01*
X112839285Y-52115000D01*
X112875000Y-52150714D01*
X113160714Y-52150714D02*
X113196428Y-52115000D01*
X113267857Y-52079285D01*
X113446428Y-52079285D01*
X113517857Y-52115000D01*
X113553571Y-52150714D01*
X113589285Y-52222142D01*
X113589285Y-52293571D01*
X113553571Y-52400714D01*
X113125000Y-52829285D01*
X113589285Y-52829285D01*
%TO.C,C4*%
X107875000Y-57507857D02*
X107839285Y-57543571D01*
X107732142Y-57579285D01*
X107660714Y-57579285D01*
X107553571Y-57543571D01*
X107482142Y-57472142D01*
X107446428Y-57400714D01*
X107410714Y-57257857D01*
X107410714Y-57150714D01*
X107446428Y-57007857D01*
X107482142Y-56936428D01*
X107553571Y-56865000D01*
X107660714Y-56829285D01*
X107732142Y-56829285D01*
X107839285Y-56865000D01*
X107875000Y-56900714D01*
X108517857Y-57079285D02*
X108517857Y-57579285D01*
X108339285Y-56793571D02*
X108160714Y-57329285D01*
X108625000Y-57329285D01*
%TO.C,J3*%
X126230000Y-76219285D02*
X126230000Y-76755000D01*
X126194285Y-76862142D01*
X126122857Y-76933571D01*
X126015714Y-76969285D01*
X125944285Y-76969285D01*
X126515714Y-76219285D02*
X126980000Y-76219285D01*
X126730000Y-76505000D01*
X126837142Y-76505000D01*
X126908571Y-76540714D01*
X126944285Y-76576428D01*
X126980000Y-76647857D01*
X126980000Y-76826428D01*
X126944285Y-76897857D01*
X126908571Y-76933571D01*
X126837142Y-76969285D01*
X126622857Y-76969285D01*
X126551428Y-76933571D01*
X126515714Y-76897857D01*
%TO.C,C18*%
X120017857Y-66267857D02*
X119982142Y-66303571D01*
X119875000Y-66339285D01*
X119803571Y-66339285D01*
X119696428Y-66303571D01*
X119625000Y-66232142D01*
X119589285Y-66160714D01*
X119553571Y-66017857D01*
X119553571Y-65910714D01*
X119589285Y-65767857D01*
X119625000Y-65696428D01*
X119696428Y-65625000D01*
X119803571Y-65589285D01*
X119875000Y-65589285D01*
X119982142Y-65625000D01*
X120017857Y-65660714D01*
X120732142Y-66339285D02*
X120303571Y-66339285D01*
X120517857Y-66339285D02*
X120517857Y-65589285D01*
X120446428Y-65696428D01*
X120375000Y-65767857D01*
X120303571Y-65803571D01*
X121160714Y-65910714D02*
X121089285Y-65875000D01*
X121053571Y-65839285D01*
X121017857Y-65767857D01*
X121017857Y-65732142D01*
X121053571Y-65660714D01*
X121089285Y-65625000D01*
X121160714Y-65589285D01*
X121303571Y-65589285D01*
X121375000Y-65625000D01*
X121410714Y-65660714D01*
X121446428Y-65732142D01*
X121446428Y-65767857D01*
X121410714Y-65839285D01*
X121375000Y-65875000D01*
X121303571Y-65910714D01*
X121160714Y-65910714D01*
X121089285Y-65946428D01*
X121053571Y-65982142D01*
X121017857Y-66053571D01*
X121017857Y-66196428D01*
X121053571Y-66267857D01*
X121089285Y-66303571D01*
X121160714Y-66339285D01*
X121303571Y-66339285D01*
X121375000Y-66303571D01*
X121410714Y-66267857D01*
X121446428Y-66196428D01*
X121446428Y-66053571D01*
X121410714Y-65982142D01*
X121375000Y-65946428D01*
X121303571Y-65910714D01*
%TO.C,TP2*%
X106089285Y-47686428D02*
X106089285Y-47257857D01*
X106839285Y-47472142D02*
X106089285Y-47472142D01*
X106839285Y-47007857D02*
X106089285Y-47007857D01*
X106089285Y-46722142D01*
X106125000Y-46650714D01*
X106160714Y-46615000D01*
X106232142Y-46579285D01*
X106339285Y-46579285D01*
X106410714Y-46615000D01*
X106446428Y-46650714D01*
X106482142Y-46722142D01*
X106482142Y-47007857D01*
X106160714Y-46293571D02*
X106125000Y-46257857D01*
X106089285Y-46186428D01*
X106089285Y-46007857D01*
X106125000Y-45936428D01*
X106160714Y-45900714D01*
X106232142Y-45865000D01*
X106303571Y-45865000D01*
X106410714Y-45900714D01*
X106839285Y-46329285D01*
X106839285Y-45865000D01*
%TO.C,R9*%
X121039285Y-48125000D02*
X120682142Y-48375000D01*
X121039285Y-48553571D02*
X120289285Y-48553571D01*
X120289285Y-48267857D01*
X120325000Y-48196428D01*
X120360714Y-48160714D01*
X120432142Y-48125000D01*
X120539285Y-48125000D01*
X120610714Y-48160714D01*
X120646428Y-48196428D01*
X120682142Y-48267857D01*
X120682142Y-48553571D01*
X121039285Y-47767857D02*
X121039285Y-47625000D01*
X121003571Y-47553571D01*
X120967857Y-47517857D01*
X120860714Y-47446428D01*
X120717857Y-47410714D01*
X120432142Y-47410714D01*
X120360714Y-47446428D01*
X120325000Y-47482142D01*
X120289285Y-47553571D01*
X120289285Y-47696428D01*
X120325000Y-47767857D01*
X120360714Y-47803571D01*
X120432142Y-47839285D01*
X120610714Y-47839285D01*
X120682142Y-47803571D01*
X120717857Y-47767857D01*
X120753571Y-47696428D01*
X120753571Y-47553571D01*
X120717857Y-47482142D01*
X120682142Y-47446428D01*
X120610714Y-47410714D01*
%TO.C,U3*%
X114928571Y-71089285D02*
X114928571Y-71696428D01*
X114964285Y-71767857D01*
X115000000Y-71803571D01*
X115071428Y-71839285D01*
X115214285Y-71839285D01*
X115285714Y-71803571D01*
X115321428Y-71767857D01*
X115357142Y-71696428D01*
X115357142Y-71089285D01*
X115642857Y-71089285D02*
X116107142Y-71089285D01*
X115857142Y-71375000D01*
X115964285Y-71375000D01*
X116035714Y-71410714D01*
X116071428Y-71446428D01*
X116107142Y-71517857D01*
X116107142Y-71696428D01*
X116071428Y-71767857D01*
X116035714Y-71803571D01*
X115964285Y-71839285D01*
X115750000Y-71839285D01*
X115678571Y-71803571D01*
X115642857Y-71767857D01*
%TO.C,R1*%
X124039285Y-47225000D02*
X123682142Y-47475000D01*
X124039285Y-47653571D02*
X123289285Y-47653571D01*
X123289285Y-47367857D01*
X123325000Y-47296428D01*
X123360714Y-47260714D01*
X123432142Y-47225000D01*
X123539285Y-47225000D01*
X123610714Y-47260714D01*
X123646428Y-47296428D01*
X123682142Y-47367857D01*
X123682142Y-47653571D01*
X124039285Y-46510714D02*
X124039285Y-46939285D01*
X124039285Y-46725000D02*
X123289285Y-46725000D01*
X123396428Y-46796428D01*
X123467857Y-46867857D01*
X123503571Y-46939285D01*
%TO.C,C16*%
X120017857Y-73767857D02*
X119982142Y-73803571D01*
X119875000Y-73839285D01*
X119803571Y-73839285D01*
X119696428Y-73803571D01*
X119625000Y-73732142D01*
X119589285Y-73660714D01*
X119553571Y-73517857D01*
X119553571Y-73410714D01*
X119589285Y-73267857D01*
X119625000Y-73196428D01*
X119696428Y-73125000D01*
X119803571Y-73089285D01*
X119875000Y-73089285D01*
X119982142Y-73125000D01*
X120017857Y-73160714D01*
X120732142Y-73839285D02*
X120303571Y-73839285D01*
X120517857Y-73839285D02*
X120517857Y-73089285D01*
X120446428Y-73196428D01*
X120375000Y-73267857D01*
X120303571Y-73303571D01*
X121375000Y-73089285D02*
X121232142Y-73089285D01*
X121160714Y-73125000D01*
X121125000Y-73160714D01*
X121053571Y-73267857D01*
X121017857Y-73410714D01*
X121017857Y-73696428D01*
X121053571Y-73767857D01*
X121089285Y-73803571D01*
X121160714Y-73839285D01*
X121303571Y-73839285D01*
X121375000Y-73803571D01*
X121410714Y-73767857D01*
X121446428Y-73696428D01*
X121446428Y-73517857D01*
X121410714Y-73446428D01*
X121375000Y-73410714D01*
X121303571Y-73375000D01*
X121160714Y-73375000D01*
X121089285Y-73410714D01*
X121053571Y-73446428D01*
X121017857Y-73517857D01*
%TO.C,C1*%
X107337857Y-55365000D02*
X107373571Y-55400714D01*
X107409285Y-55507857D01*
X107409285Y-55579285D01*
X107373571Y-55686428D01*
X107302142Y-55757857D01*
X107230714Y-55793571D01*
X107087857Y-55829285D01*
X106980714Y-55829285D01*
X106837857Y-55793571D01*
X106766428Y-55757857D01*
X106695000Y-55686428D01*
X106659285Y-55579285D01*
X106659285Y-55507857D01*
X106695000Y-55400714D01*
X106730714Y-55365000D01*
X107409285Y-54650714D02*
X107409285Y-55079285D01*
X107409285Y-54865000D02*
X106659285Y-54865000D01*
X106766428Y-54936428D01*
X106837857Y-55007857D01*
X106873571Y-55079285D01*
%TO.C,R15*%
X107089285Y-67982142D02*
X106732142Y-68232142D01*
X107089285Y-68410714D02*
X106339285Y-68410714D01*
X106339285Y-68125000D01*
X106375000Y-68053571D01*
X106410714Y-68017857D01*
X106482142Y-67982142D01*
X106589285Y-67982142D01*
X106660714Y-68017857D01*
X106696428Y-68053571D01*
X106732142Y-68125000D01*
X106732142Y-68410714D01*
X107089285Y-67267857D02*
X107089285Y-67696428D01*
X107089285Y-67482142D02*
X106339285Y-67482142D01*
X106446428Y-67553571D01*
X106517857Y-67625000D01*
X106553571Y-67696428D01*
X106339285Y-66589285D02*
X106339285Y-66946428D01*
X106696428Y-66982142D01*
X106660714Y-66946428D01*
X106625000Y-66875000D01*
X106625000Y-66696428D01*
X106660714Y-66625000D01*
X106696428Y-66589285D01*
X106767857Y-66553571D01*
X106946428Y-66553571D01*
X107017857Y-66589285D01*
X107053571Y-66625000D01*
X107089285Y-66696428D01*
X107089285Y-66875000D01*
X107053571Y-66946428D01*
X107017857Y-66982142D01*
%TO.C,C7*%
X122167857Y-52125000D02*
X122203571Y-52160714D01*
X122239285Y-52267857D01*
X122239285Y-52339285D01*
X122203571Y-52446428D01*
X122132142Y-52517857D01*
X122060714Y-52553571D01*
X121917857Y-52589285D01*
X121810714Y-52589285D01*
X121667857Y-52553571D01*
X121596428Y-52517857D01*
X121525000Y-52446428D01*
X121489285Y-52339285D01*
X121489285Y-52267857D01*
X121525000Y-52160714D01*
X121560714Y-52125000D01*
X121489285Y-51875000D02*
X121489285Y-51375000D01*
X122239285Y-51696428D01*
%TO.C,Q1*%
X108910714Y-51061428D02*
X108875000Y-51132857D01*
X108803571Y-51204285D01*
X108696428Y-51311428D01*
X108660714Y-51382857D01*
X108660714Y-51454285D01*
X108839285Y-51418571D02*
X108803571Y-51490000D01*
X108732142Y-51561428D01*
X108589285Y-51597142D01*
X108339285Y-51597142D01*
X108196428Y-51561428D01*
X108125000Y-51490000D01*
X108089285Y-51418571D01*
X108089285Y-51275714D01*
X108125000Y-51204285D01*
X108196428Y-51132857D01*
X108339285Y-51097142D01*
X108589285Y-51097142D01*
X108732142Y-51132857D01*
X108803571Y-51204285D01*
X108839285Y-51275714D01*
X108839285Y-51418571D01*
X108839285Y-50382857D02*
X108839285Y-50811428D01*
X108839285Y-50597142D02*
X108089285Y-50597142D01*
X108196428Y-50668571D01*
X108267857Y-50740000D01*
X108303571Y-50811428D01*
%TO.C,R21*%
X108589285Y-67982142D02*
X108232142Y-68232142D01*
X108589285Y-68410714D02*
X107839285Y-68410714D01*
X107839285Y-68125000D01*
X107875000Y-68053571D01*
X107910714Y-68017857D01*
X107982142Y-67982142D01*
X108089285Y-67982142D01*
X108160714Y-68017857D01*
X108196428Y-68053571D01*
X108232142Y-68125000D01*
X108232142Y-68410714D01*
X107910714Y-67696428D02*
X107875000Y-67660714D01*
X107839285Y-67589285D01*
X107839285Y-67410714D01*
X107875000Y-67339285D01*
X107910714Y-67303571D01*
X107982142Y-67267857D01*
X108053571Y-67267857D01*
X108160714Y-67303571D01*
X108589285Y-67732142D01*
X108589285Y-67267857D01*
X108589285Y-66553571D02*
X108589285Y-66982142D01*
X108589285Y-66767857D02*
X107839285Y-66767857D01*
X107946428Y-66839285D01*
X108017857Y-66910714D01*
X108053571Y-66982142D01*
%TO.C,C6*%
X118375000Y-52767857D02*
X118339285Y-52803571D01*
X118232142Y-52839285D01*
X118160714Y-52839285D01*
X118053571Y-52803571D01*
X117982142Y-52732142D01*
X117946428Y-52660714D01*
X117910714Y-52517857D01*
X117910714Y-52410714D01*
X117946428Y-52267857D01*
X117982142Y-52196428D01*
X118053571Y-52125000D01*
X118160714Y-52089285D01*
X118232142Y-52089285D01*
X118339285Y-52125000D01*
X118375000Y-52160714D01*
X119017857Y-52089285D02*
X118875000Y-52089285D01*
X118803571Y-52125000D01*
X118767857Y-52160714D01*
X118696428Y-52267857D01*
X118660714Y-52410714D01*
X118660714Y-52696428D01*
X118696428Y-52767857D01*
X118732142Y-52803571D01*
X118803571Y-52839285D01*
X118946428Y-52839285D01*
X119017857Y-52803571D01*
X119053571Y-52767857D01*
X119089285Y-52696428D01*
X119089285Y-52517857D01*
X119053571Y-52446428D01*
X119017857Y-52410714D01*
X118946428Y-52375000D01*
X118803571Y-52375000D01*
X118732142Y-52410714D01*
X118696428Y-52446428D01*
X118660714Y-52517857D01*
%TO.C,D5*%
X114946428Y-77839285D02*
X114946428Y-77089285D01*
X115125000Y-77089285D01*
X115232142Y-77125000D01*
X115303571Y-77196428D01*
X115339285Y-77267857D01*
X115375000Y-77410714D01*
X115375000Y-77517857D01*
X115339285Y-77660714D01*
X115303571Y-77732142D01*
X115232142Y-77803571D01*
X115125000Y-77839285D01*
X114946428Y-77839285D01*
X116053571Y-77089285D02*
X115696428Y-77089285D01*
X115660714Y-77446428D01*
X115696428Y-77410714D01*
X115767857Y-77375000D01*
X115946428Y-77375000D01*
X116017857Y-77410714D01*
X116053571Y-77446428D01*
X116089285Y-77517857D01*
X116089285Y-77696428D01*
X116053571Y-77767857D01*
X116017857Y-77803571D01*
X115946428Y-77839285D01*
X115767857Y-77839285D01*
X115696428Y-77803571D01*
X115660714Y-77767857D01*
%TO.C,R18*%
X113589285Y-64982142D02*
X113232142Y-65232142D01*
X113589285Y-65410714D02*
X112839285Y-65410714D01*
X112839285Y-65125000D01*
X112875000Y-65053571D01*
X112910714Y-65017857D01*
X112982142Y-64982142D01*
X113089285Y-64982142D01*
X113160714Y-65017857D01*
X113196428Y-65053571D01*
X113232142Y-65125000D01*
X113232142Y-65410714D01*
X113589285Y-64267857D02*
X113589285Y-64696428D01*
X113589285Y-64482142D02*
X112839285Y-64482142D01*
X112946428Y-64553571D01*
X113017857Y-64625000D01*
X113053571Y-64696428D01*
X113160714Y-63839285D02*
X113125000Y-63910714D01*
X113089285Y-63946428D01*
X113017857Y-63982142D01*
X112982142Y-63982142D01*
X112910714Y-63946428D01*
X112875000Y-63910714D01*
X112839285Y-63839285D01*
X112839285Y-63696428D01*
X112875000Y-63625000D01*
X112910714Y-63589285D01*
X112982142Y-63553571D01*
X113017857Y-63553571D01*
X113089285Y-63589285D01*
X113125000Y-63625000D01*
X113160714Y-63696428D01*
X113160714Y-63839285D01*
X113196428Y-63910714D01*
X113232142Y-63946428D01*
X113303571Y-63982142D01*
X113446428Y-63982142D01*
X113517857Y-63946428D01*
X113553571Y-63910714D01*
X113589285Y-63839285D01*
X113589285Y-63696428D01*
X113553571Y-63625000D01*
X113517857Y-63589285D01*
X113446428Y-63553571D01*
X113303571Y-63553571D01*
X113232142Y-63589285D01*
X113196428Y-63625000D01*
X113160714Y-63696428D01*
%TO.C,R8*%
X123125000Y-51089285D02*
X122875000Y-50732142D01*
X122696428Y-51089285D02*
X122696428Y-50339285D01*
X122982142Y-50339285D01*
X123053571Y-50375000D01*
X123089285Y-50410714D01*
X123125000Y-50482142D01*
X123125000Y-50589285D01*
X123089285Y-50660714D01*
X123053571Y-50696428D01*
X122982142Y-50732142D01*
X122696428Y-50732142D01*
X123553571Y-50660714D02*
X123482142Y-50625000D01*
X123446428Y-50589285D01*
X123410714Y-50517857D01*
X123410714Y-50482142D01*
X123446428Y-50410714D01*
X123482142Y-50375000D01*
X123553571Y-50339285D01*
X123696428Y-50339285D01*
X123767857Y-50375000D01*
X123803571Y-50410714D01*
X123839285Y-50482142D01*
X123839285Y-50517857D01*
X123803571Y-50589285D01*
X123767857Y-50625000D01*
X123696428Y-50660714D01*
X123553571Y-50660714D01*
X123482142Y-50696428D01*
X123446428Y-50732142D01*
X123410714Y-50803571D01*
X123410714Y-50946428D01*
X123446428Y-51017857D01*
X123482142Y-51053571D01*
X123553571Y-51089285D01*
X123696428Y-51089285D01*
X123767857Y-51053571D01*
X123803571Y-51017857D01*
X123839285Y-50946428D01*
X123839285Y-50803571D01*
X123803571Y-50732142D01*
X123767857Y-50696428D01*
X123696428Y-50660714D01*
%TO.C,C5*%
X120875000Y-46767857D02*
X120839285Y-46803571D01*
X120732142Y-46839285D01*
X120660714Y-46839285D01*
X120553571Y-46803571D01*
X120482142Y-46732142D01*
X120446428Y-46660714D01*
X120410714Y-46517857D01*
X120410714Y-46410714D01*
X120446428Y-46267857D01*
X120482142Y-46196428D01*
X120553571Y-46125000D01*
X120660714Y-46089285D01*
X120732142Y-46089285D01*
X120839285Y-46125000D01*
X120875000Y-46160714D01*
X121553571Y-46089285D02*
X121196428Y-46089285D01*
X121160714Y-46446428D01*
X121196428Y-46410714D01*
X121267857Y-46375000D01*
X121446428Y-46375000D01*
X121517857Y-46410714D01*
X121553571Y-46446428D01*
X121589285Y-46517857D01*
X121589285Y-46696428D01*
X121553571Y-46767857D01*
X121517857Y-46803571D01*
X121446428Y-46839285D01*
X121267857Y-46839285D01*
X121196428Y-46803571D01*
X121160714Y-46767857D01*
%TO.C,C24*%
X102767857Y-60017857D02*
X102732142Y-60053571D01*
X102625000Y-60089285D01*
X102553571Y-60089285D01*
X102446428Y-60053571D01*
X102375000Y-59982142D01*
X102339285Y-59910714D01*
X102303571Y-59767857D01*
X102303571Y-59660714D01*
X102339285Y-59517857D01*
X102375000Y-59446428D01*
X102446428Y-59375000D01*
X102553571Y-59339285D01*
X102625000Y-59339285D01*
X102732142Y-59375000D01*
X102767857Y-59410714D01*
X103053571Y-59410714D02*
X103089285Y-59375000D01*
X103160714Y-59339285D01*
X103339285Y-59339285D01*
X103410714Y-59375000D01*
X103446428Y-59410714D01*
X103482142Y-59482142D01*
X103482142Y-59553571D01*
X103446428Y-59660714D01*
X103017857Y-60089285D01*
X103482142Y-60089285D01*
X104125000Y-59589285D02*
X104125000Y-60089285D01*
X103946428Y-59303571D02*
X103767857Y-59839285D01*
X104232142Y-59839285D01*
%TO.C,U5*%
X106589285Y-61821428D02*
X107196428Y-61821428D01*
X107267857Y-61785714D01*
X107303571Y-61750000D01*
X107339285Y-61678571D01*
X107339285Y-61535714D01*
X107303571Y-61464285D01*
X107267857Y-61428571D01*
X107196428Y-61392857D01*
X106589285Y-61392857D01*
X106589285Y-60678571D02*
X106589285Y-61035714D01*
X106946428Y-61071428D01*
X106910714Y-61035714D01*
X106875000Y-60964285D01*
X106875000Y-60785714D01*
X106910714Y-60714285D01*
X106946428Y-60678571D01*
X107017857Y-60642857D01*
X107196428Y-60642857D01*
X107267857Y-60678571D01*
X107303571Y-60714285D01*
X107339285Y-60785714D01*
X107339285Y-60964285D01*
X107303571Y-61035714D01*
X107267857Y-61071428D01*
%TO.C,R12*%
X110169285Y-74492142D02*
X109812142Y-74742142D01*
X110169285Y-74920714D02*
X109419285Y-74920714D01*
X109419285Y-74635000D01*
X109455000Y-74563571D01*
X109490714Y-74527857D01*
X109562142Y-74492142D01*
X109669285Y-74492142D01*
X109740714Y-74527857D01*
X109776428Y-74563571D01*
X109812142Y-74635000D01*
X109812142Y-74920714D01*
X110169285Y-73777857D02*
X110169285Y-74206428D01*
X110169285Y-73992142D02*
X109419285Y-73992142D01*
X109526428Y-74063571D01*
X109597857Y-74135000D01*
X109633571Y-74206428D01*
X109490714Y-73492142D02*
X109455000Y-73456428D01*
X109419285Y-73385000D01*
X109419285Y-73206428D01*
X109455000Y-73135000D01*
X109490714Y-73099285D01*
X109562142Y-73063571D01*
X109633571Y-73063571D01*
X109740714Y-73099285D01*
X110169285Y-73527857D01*
X110169285Y-73063571D01*
%TO.C,R17*%
X111039285Y-67982142D02*
X110682142Y-68232142D01*
X111039285Y-68410714D02*
X110289285Y-68410714D01*
X110289285Y-68125000D01*
X110325000Y-68053571D01*
X110360714Y-68017857D01*
X110432142Y-67982142D01*
X110539285Y-67982142D01*
X110610714Y-68017857D01*
X110646428Y-68053571D01*
X110682142Y-68125000D01*
X110682142Y-68410714D01*
X111039285Y-67267857D02*
X111039285Y-67696428D01*
X111039285Y-67482142D02*
X110289285Y-67482142D01*
X110396428Y-67553571D01*
X110467857Y-67625000D01*
X110503571Y-67696428D01*
X110289285Y-67017857D02*
X110289285Y-66517857D01*
X111039285Y-66839285D01*
%TO.C,TP1*%
X114089285Y-47436428D02*
X114089285Y-47007857D01*
X114839285Y-47222142D02*
X114089285Y-47222142D01*
X114839285Y-46757857D02*
X114089285Y-46757857D01*
X114089285Y-46472142D01*
X114125000Y-46400714D01*
X114160714Y-46365000D01*
X114232142Y-46329285D01*
X114339285Y-46329285D01*
X114410714Y-46365000D01*
X114446428Y-46400714D01*
X114482142Y-46472142D01*
X114482142Y-46757857D01*
X114839285Y-45615000D02*
X114839285Y-46043571D01*
X114839285Y-45829285D02*
X114089285Y-45829285D01*
X114196428Y-45900714D01*
X114267857Y-45972142D01*
X114303571Y-46043571D01*
%TO.C,C26*%
X105017857Y-59017857D02*
X104982142Y-59053571D01*
X104875000Y-59089285D01*
X104803571Y-59089285D01*
X104696428Y-59053571D01*
X104625000Y-58982142D01*
X104589285Y-58910714D01*
X104553571Y-58767857D01*
X104553571Y-58660714D01*
X104589285Y-58517857D01*
X104625000Y-58446428D01*
X104696428Y-58375000D01*
X104803571Y-58339285D01*
X104875000Y-58339285D01*
X104982142Y-58375000D01*
X105017857Y-58410714D01*
X105303571Y-58410714D02*
X105339285Y-58375000D01*
X105410714Y-58339285D01*
X105589285Y-58339285D01*
X105660714Y-58375000D01*
X105696428Y-58410714D01*
X105732142Y-58482142D01*
X105732142Y-58553571D01*
X105696428Y-58660714D01*
X105267857Y-59089285D01*
X105732142Y-59089285D01*
X106375000Y-58339285D02*
X106232142Y-58339285D01*
X106160714Y-58375000D01*
X106125000Y-58410714D01*
X106053571Y-58517857D01*
X106017857Y-58660714D01*
X106017857Y-58946428D01*
X106053571Y-59017857D01*
X106089285Y-59053571D01*
X106160714Y-59089285D01*
X106303571Y-59089285D01*
X106375000Y-59053571D01*
X106410714Y-59017857D01*
X106446428Y-58946428D01*
X106446428Y-58767857D01*
X106410714Y-58696428D01*
X106375000Y-58660714D01*
X106303571Y-58625000D01*
X106160714Y-58625000D01*
X106089285Y-58660714D01*
X106053571Y-58696428D01*
X106017857Y-58767857D01*
%TO.C,R22*%
X109839285Y-67982142D02*
X109482142Y-68232142D01*
X109839285Y-68410714D02*
X109089285Y-68410714D01*
X109089285Y-68125000D01*
X109125000Y-68053571D01*
X109160714Y-68017857D01*
X109232142Y-67982142D01*
X109339285Y-67982142D01*
X109410714Y-68017857D01*
X109446428Y-68053571D01*
X109482142Y-68125000D01*
X109482142Y-68410714D01*
X109160714Y-67696428D02*
X109125000Y-67660714D01*
X109089285Y-67589285D01*
X109089285Y-67410714D01*
X109125000Y-67339285D01*
X109160714Y-67303571D01*
X109232142Y-67267857D01*
X109303571Y-67267857D01*
X109410714Y-67303571D01*
X109839285Y-67732142D01*
X109839285Y-67267857D01*
X109160714Y-66982142D02*
X109125000Y-66946428D01*
X109089285Y-66875000D01*
X109089285Y-66696428D01*
X109125000Y-66625000D01*
X109160714Y-66589285D01*
X109232142Y-66553571D01*
X109303571Y-66553571D01*
X109410714Y-66589285D01*
X109839285Y-67017857D01*
X109839285Y-66553571D01*
%TO.C,C12*%
X117517857Y-73767857D02*
X117482142Y-73803571D01*
X117375000Y-73839285D01*
X117303571Y-73839285D01*
X117196428Y-73803571D01*
X117125000Y-73732142D01*
X117089285Y-73660714D01*
X117053571Y-73517857D01*
X117053571Y-73410714D01*
X117089285Y-73267857D01*
X117125000Y-73196428D01*
X117196428Y-73125000D01*
X117303571Y-73089285D01*
X117375000Y-73089285D01*
X117482142Y-73125000D01*
X117517857Y-73160714D01*
X118232142Y-73839285D02*
X117803571Y-73839285D01*
X118017857Y-73839285D02*
X118017857Y-73089285D01*
X117946428Y-73196428D01*
X117875000Y-73267857D01*
X117803571Y-73303571D01*
X118517857Y-73160714D02*
X118553571Y-73125000D01*
X118625000Y-73089285D01*
X118803571Y-73089285D01*
X118875000Y-73125000D01*
X118910714Y-73160714D01*
X118946428Y-73232142D01*
X118946428Y-73303571D01*
X118910714Y-73410714D01*
X118482142Y-73839285D01*
X118946428Y-73839285D01*
%TO.C,C22*%
X102767857Y-59017857D02*
X102732142Y-59053571D01*
X102625000Y-59089285D01*
X102553571Y-59089285D01*
X102446428Y-59053571D01*
X102375000Y-58982142D01*
X102339285Y-58910714D01*
X102303571Y-58767857D01*
X102303571Y-58660714D01*
X102339285Y-58517857D01*
X102375000Y-58446428D01*
X102446428Y-58375000D01*
X102553571Y-58339285D01*
X102625000Y-58339285D01*
X102732142Y-58375000D01*
X102767857Y-58410714D01*
X103053571Y-58410714D02*
X103089285Y-58375000D01*
X103160714Y-58339285D01*
X103339285Y-58339285D01*
X103410714Y-58375000D01*
X103446428Y-58410714D01*
X103482142Y-58482142D01*
X103482142Y-58553571D01*
X103446428Y-58660714D01*
X103017857Y-59089285D01*
X103482142Y-59089285D01*
X103767857Y-58410714D02*
X103803571Y-58375000D01*
X103875000Y-58339285D01*
X104053571Y-58339285D01*
X104125000Y-58375000D01*
X104160714Y-58410714D01*
X104196428Y-58482142D01*
X104196428Y-58553571D01*
X104160714Y-58660714D01*
X103732142Y-59089285D01*
X104196428Y-59089285D01*
%TO.C,C20*%
X115517857Y-61737857D02*
X115482142Y-61773571D01*
X115375000Y-61809285D01*
X115303571Y-61809285D01*
X115196428Y-61773571D01*
X115125000Y-61702142D01*
X115089285Y-61630714D01*
X115053571Y-61487857D01*
X115053571Y-61380714D01*
X115089285Y-61237857D01*
X115125000Y-61166428D01*
X115196428Y-61095000D01*
X115303571Y-61059285D01*
X115375000Y-61059285D01*
X115482142Y-61095000D01*
X115517857Y-61130714D01*
X115803571Y-61130714D02*
X115839285Y-61095000D01*
X115910714Y-61059285D01*
X116089285Y-61059285D01*
X116160714Y-61095000D01*
X116196428Y-61130714D01*
X116232142Y-61202142D01*
X116232142Y-61273571D01*
X116196428Y-61380714D01*
X115767857Y-61809285D01*
X116232142Y-61809285D01*
X116696428Y-61059285D02*
X116767857Y-61059285D01*
X116839285Y-61095000D01*
X116875000Y-61130714D01*
X116910714Y-61202142D01*
X116946428Y-61345000D01*
X116946428Y-61523571D01*
X116910714Y-61666428D01*
X116875000Y-61737857D01*
X116839285Y-61773571D01*
X116767857Y-61809285D01*
X116696428Y-61809285D01*
X116625000Y-61773571D01*
X116589285Y-61737857D01*
X116553571Y-61666428D01*
X116517857Y-61523571D01*
X116517857Y-61345000D01*
X116553571Y-61202142D01*
X116589285Y-61130714D01*
X116625000Y-61095000D01*
X116696428Y-61059285D01*
%TO.C,R2*%
X116839285Y-53615000D02*
X116482142Y-53865000D01*
X116839285Y-54043571D02*
X116089285Y-54043571D01*
X116089285Y-53757857D01*
X116125000Y-53686428D01*
X116160714Y-53650714D01*
X116232142Y-53615000D01*
X116339285Y-53615000D01*
X116410714Y-53650714D01*
X116446428Y-53686428D01*
X116482142Y-53757857D01*
X116482142Y-54043571D01*
X116160714Y-53329285D02*
X116125000Y-53293571D01*
X116089285Y-53222142D01*
X116089285Y-53043571D01*
X116125000Y-52972142D01*
X116160714Y-52936428D01*
X116232142Y-52900714D01*
X116303571Y-52900714D01*
X116410714Y-52936428D01*
X116839285Y-53365000D01*
X116839285Y-52900714D01*
%TO.C,D6*%
X117696428Y-77839285D02*
X117696428Y-77089285D01*
X117875000Y-77089285D01*
X117982142Y-77125000D01*
X118053571Y-77196428D01*
X118089285Y-77267857D01*
X118125000Y-77410714D01*
X118125000Y-77517857D01*
X118089285Y-77660714D01*
X118053571Y-77732142D01*
X117982142Y-77803571D01*
X117875000Y-77839285D01*
X117696428Y-77839285D01*
X118767857Y-77089285D02*
X118625000Y-77089285D01*
X118553571Y-77125000D01*
X118517857Y-77160714D01*
X118446428Y-77267857D01*
X118410714Y-77410714D01*
X118410714Y-77696428D01*
X118446428Y-77767857D01*
X118482142Y-77803571D01*
X118553571Y-77839285D01*
X118696428Y-77839285D01*
X118767857Y-77803571D01*
X118803571Y-77767857D01*
X118839285Y-77696428D01*
X118839285Y-77517857D01*
X118803571Y-77446428D01*
X118767857Y-77410714D01*
X118696428Y-77375000D01*
X118553571Y-77375000D01*
X118482142Y-77410714D01*
X118446428Y-77446428D01*
X118410714Y-77517857D01*
%TO.C,C15*%
X120017857Y-72767857D02*
X119982142Y-72803571D01*
X119875000Y-72839285D01*
X119803571Y-72839285D01*
X119696428Y-72803571D01*
X119625000Y-72732142D01*
X119589285Y-72660714D01*
X119553571Y-72517857D01*
X119553571Y-72410714D01*
X119589285Y-72267857D01*
X119625000Y-72196428D01*
X119696428Y-72125000D01*
X119803571Y-72089285D01*
X119875000Y-72089285D01*
X119982142Y-72125000D01*
X120017857Y-72160714D01*
X120732142Y-72839285D02*
X120303571Y-72839285D01*
X120517857Y-72839285D02*
X120517857Y-72089285D01*
X120446428Y-72196428D01*
X120375000Y-72267857D01*
X120303571Y-72303571D01*
X121410714Y-72089285D02*
X121053571Y-72089285D01*
X121017857Y-72446428D01*
X121053571Y-72410714D01*
X121125000Y-72375000D01*
X121303571Y-72375000D01*
X121375000Y-72410714D01*
X121410714Y-72446428D01*
X121446428Y-72517857D01*
X121446428Y-72696428D01*
X121410714Y-72767857D01*
X121375000Y-72803571D01*
X121303571Y-72839285D01*
X121125000Y-72839285D01*
X121053571Y-72803571D01*
X121017857Y-72767857D01*
%TO.C,R6*%
X115625000Y-56089285D02*
X115375000Y-55732142D01*
X115196428Y-56089285D02*
X115196428Y-55339285D01*
X115482142Y-55339285D01*
X115553571Y-55375000D01*
X115589285Y-55410714D01*
X115625000Y-55482142D01*
X115625000Y-55589285D01*
X115589285Y-55660714D01*
X115553571Y-55696428D01*
X115482142Y-55732142D01*
X115196428Y-55732142D01*
X116267857Y-55339285D02*
X116125000Y-55339285D01*
X116053571Y-55375000D01*
X116017857Y-55410714D01*
X115946428Y-55517857D01*
X115910714Y-55660714D01*
X115910714Y-55946428D01*
X115946428Y-56017857D01*
X115982142Y-56053571D01*
X116053571Y-56089285D01*
X116196428Y-56089285D01*
X116267857Y-56053571D01*
X116303571Y-56017857D01*
X116339285Y-55946428D01*
X116339285Y-55767857D01*
X116303571Y-55696428D01*
X116267857Y-55660714D01*
X116196428Y-55625000D01*
X116053571Y-55625000D01*
X115982142Y-55660714D01*
X115946428Y-55696428D01*
X115910714Y-55767857D01*
%TO.C,D1*%
X122939285Y-47653571D02*
X122189285Y-47653571D01*
X122189285Y-47475000D01*
X122225000Y-47367857D01*
X122296428Y-47296428D01*
X122367857Y-47260714D01*
X122510714Y-47225000D01*
X122617857Y-47225000D01*
X122760714Y-47260714D01*
X122832142Y-47296428D01*
X122903571Y-47367857D01*
X122939285Y-47475000D01*
X122939285Y-47653571D01*
X122939285Y-46510714D02*
X122939285Y-46939285D01*
X122939285Y-46725000D02*
X122189285Y-46725000D01*
X122296428Y-46796428D01*
X122367857Y-46867857D01*
X122403571Y-46939285D01*
%TO.C,D7*%
X120446428Y-77839285D02*
X120446428Y-77089285D01*
X120625000Y-77089285D01*
X120732142Y-77125000D01*
X120803571Y-77196428D01*
X120839285Y-77267857D01*
X120875000Y-77410714D01*
X120875000Y-77517857D01*
X120839285Y-77660714D01*
X120803571Y-77732142D01*
X120732142Y-77803571D01*
X120625000Y-77839285D01*
X120446428Y-77839285D01*
X121125000Y-77089285D02*
X121625000Y-77089285D01*
X121303571Y-77839285D01*
%TO.C,C8*%
X113267857Y-57115000D02*
X113303571Y-57150714D01*
X113339285Y-57257857D01*
X113339285Y-57329285D01*
X113303571Y-57436428D01*
X113232142Y-57507857D01*
X113160714Y-57543571D01*
X113017857Y-57579285D01*
X112910714Y-57579285D01*
X112767857Y-57543571D01*
X112696428Y-57507857D01*
X112625000Y-57436428D01*
X112589285Y-57329285D01*
X112589285Y-57257857D01*
X112625000Y-57150714D01*
X112660714Y-57115000D01*
X112910714Y-56686428D02*
X112875000Y-56757857D01*
X112839285Y-56793571D01*
X112767857Y-56829285D01*
X112732142Y-56829285D01*
X112660714Y-56793571D01*
X112625000Y-56757857D01*
X112589285Y-56686428D01*
X112589285Y-56543571D01*
X112625000Y-56472142D01*
X112660714Y-56436428D01*
X112732142Y-56400714D01*
X112767857Y-56400714D01*
X112839285Y-56436428D01*
X112875000Y-56472142D01*
X112910714Y-56543571D01*
X112910714Y-56686428D01*
X112946428Y-56757857D01*
X112982142Y-56793571D01*
X113053571Y-56829285D01*
X113196428Y-56829285D01*
X113267857Y-56793571D01*
X113303571Y-56757857D01*
X113339285Y-56686428D01*
X113339285Y-56543571D01*
X113303571Y-56472142D01*
X113267857Y-56436428D01*
X113196428Y-56400714D01*
X113053571Y-56400714D01*
X112982142Y-56436428D01*
X112946428Y-56472142D01*
X112910714Y-56543571D01*
%TO.C,R5*%
X126089285Y-55125000D02*
X125732142Y-55375000D01*
X126089285Y-55553571D02*
X125339285Y-55553571D01*
X125339285Y-55267857D01*
X125375000Y-55196428D01*
X125410714Y-55160714D01*
X125482142Y-55125000D01*
X125589285Y-55125000D01*
X125660714Y-55160714D01*
X125696428Y-55196428D01*
X125732142Y-55267857D01*
X125732142Y-55553571D01*
X125339285Y-54446428D02*
X125339285Y-54803571D01*
X125696428Y-54839285D01*
X125660714Y-54803571D01*
X125625000Y-54732142D01*
X125625000Y-54553571D01*
X125660714Y-54482142D01*
X125696428Y-54446428D01*
X125767857Y-54410714D01*
X125946428Y-54410714D01*
X126017857Y-54446428D01*
X126053571Y-54482142D01*
X126089285Y-54553571D01*
X126089285Y-54732142D01*
X126053571Y-54803571D01*
X126017857Y-54839285D01*
%TO.C,Q3*%
X121160714Y-55571428D02*
X121125000Y-55642857D01*
X121053571Y-55714285D01*
X120946428Y-55821428D01*
X120910714Y-55892857D01*
X120910714Y-55964285D01*
X121089285Y-55928571D02*
X121053571Y-56000000D01*
X120982142Y-56071428D01*
X120839285Y-56107142D01*
X120589285Y-56107142D01*
X120446428Y-56071428D01*
X120375000Y-56000000D01*
X120339285Y-55928571D01*
X120339285Y-55785714D01*
X120375000Y-55714285D01*
X120446428Y-55642857D01*
X120589285Y-55607142D01*
X120839285Y-55607142D01*
X120982142Y-55642857D01*
X121053571Y-55714285D01*
X121089285Y-55785714D01*
X121089285Y-55928571D01*
X120339285Y-55357142D02*
X120339285Y-54892857D01*
X120625000Y-55142857D01*
X120625000Y-55035714D01*
X120660714Y-54964285D01*
X120696428Y-54928571D01*
X120767857Y-54892857D01*
X120946428Y-54892857D01*
X121017857Y-54928571D01*
X121053571Y-54964285D01*
X121089285Y-55035714D01*
X121089285Y-55250000D01*
X121053571Y-55321428D01*
X121017857Y-55357142D01*
%TO.C,J1*%
X106250000Y-51079285D02*
X106250000Y-51615000D01*
X106214285Y-51722142D01*
X106142857Y-51793571D01*
X106035714Y-51829285D01*
X105964285Y-51829285D01*
X107000000Y-51829285D02*
X106571428Y-51829285D01*
X106785714Y-51829285D02*
X106785714Y-51079285D01*
X106714285Y-51186428D01*
X106642857Y-51257857D01*
X106571428Y-51293571D01*
%TO.C,U1*%
X108178571Y-53079285D02*
X108178571Y-53686428D01*
X108214285Y-53757857D01*
X108250000Y-53793571D01*
X108321428Y-53829285D01*
X108464285Y-53829285D01*
X108535714Y-53793571D01*
X108571428Y-53757857D01*
X108607142Y-53686428D01*
X108607142Y-53079285D01*
X109357142Y-53829285D02*
X108928571Y-53829285D01*
X109142857Y-53829285D02*
X109142857Y-53079285D01*
X109071428Y-53186428D01*
X109000000Y-53257857D01*
X108928571Y-53293571D01*
%TO.C,R4*%
X124759285Y-57875000D02*
X124402142Y-58125000D01*
X124759285Y-58303571D02*
X124009285Y-58303571D01*
X124009285Y-58017857D01*
X124045000Y-57946428D01*
X124080714Y-57910714D01*
X124152142Y-57875000D01*
X124259285Y-57875000D01*
X124330714Y-57910714D01*
X124366428Y-57946428D01*
X124402142Y-58017857D01*
X124402142Y-58303571D01*
X124259285Y-57232142D02*
X124759285Y-57232142D01*
X123973571Y-57410714D02*
X124509285Y-57589285D01*
X124509285Y-57125000D01*
%TO.C,U2*%
X112678571Y-47329285D02*
X112678571Y-47936428D01*
X112714285Y-48007857D01*
X112750000Y-48043571D01*
X112821428Y-48079285D01*
X112964285Y-48079285D01*
X113035714Y-48043571D01*
X113071428Y-48007857D01*
X113107142Y-47936428D01*
X113107142Y-47329285D01*
X113428571Y-47400714D02*
X113464285Y-47365000D01*
X113535714Y-47329285D01*
X113714285Y-47329285D01*
X113785714Y-47365000D01*
X113821428Y-47400714D01*
X113857142Y-47472142D01*
X113857142Y-47543571D01*
X113821428Y-47650714D01*
X113392857Y-48079285D01*
X113857142Y-48079285D01*
%TO.C,J4*%
X107435000Y-70125000D02*
X107435000Y-70625000D01*
X99435000Y-75725000D02*
X104435000Y-75725000D01*
X99435000Y-62525000D02*
X104535000Y-62525000D01*
X107435000Y-68125000D02*
X107435000Y-67625000D01*
X104435000Y-75725000D02*
X104535000Y-75725000D01*
D13*
%TO.C,R10*%
X121403641Y-48870000D02*
X121096359Y-48870000D01*
X121403641Y-49630000D02*
X121096359Y-49630000D01*
%TO.C,R7*%
X120346359Y-54120000D02*
X120653641Y-54120000D01*
X120346359Y-53360000D02*
X120653641Y-53360000D01*
%TO.C,R19*%
X115403641Y-74120000D02*
X115096359Y-74120000D01*
X115403641Y-74880000D02*
X115096359Y-74880000D01*
%TO.C,R11*%
X111380000Y-72153641D02*
X111380000Y-71846359D01*
X110620000Y-72153641D02*
X110620000Y-71846359D01*
%TO.C,R14*%
X111870000Y-61846359D02*
X111870000Y-62153641D01*
X112630000Y-61846359D02*
X112630000Y-62153641D01*
%TO.C,R3*%
X115120000Y-53336359D02*
X115120000Y-53643641D01*
X115880000Y-53336359D02*
X115880000Y-53643641D01*
%TO.C,C14*%
X114360000Y-63377836D02*
X114360000Y-63162164D01*
X113640000Y-63377836D02*
X113640000Y-63162164D01*
%TO.C,Q2*%
X124590000Y-49560000D02*
X124590000Y-50970000D01*
X126910000Y-50970000D02*
X126910000Y-48940000D01*
X126910000Y-50970000D02*
X126250000Y-50970000D01*
X125250000Y-50970000D02*
X124590000Y-50970000D01*
%TO.C,R16*%
X111630000Y-62153641D02*
X111630000Y-61846359D01*
X110870000Y-62153641D02*
X110870000Y-61846359D01*
%TO.C,R13*%
X113130000Y-75903641D02*
X113130000Y-75596359D01*
X112370000Y-75903641D02*
X112370000Y-75596359D01*
%TO.C,C10*%
X110360000Y-72087836D02*
X110360000Y-71872164D01*
X109640000Y-72087836D02*
X109640000Y-71872164D01*
%TO.C,C13*%
X113357836Y-65640000D02*
X113142164Y-65640000D01*
X113357836Y-66360000D02*
X113142164Y-66360000D01*
%TO.C,C3*%
X110392164Y-52850000D02*
X110607836Y-52850000D01*
X110392164Y-52130000D02*
X110607836Y-52130000D01*
%TO.C,C11*%
X112892164Y-72860000D02*
X113107836Y-72860000D01*
X112892164Y-72140000D02*
X113107836Y-72140000D01*
%TO.C,C25*%
X109652164Y-60360000D02*
X109867836Y-60360000D01*
X109652164Y-59640000D02*
X109867836Y-59640000D01*
%TO.C,C19*%
X115142164Y-65360000D02*
X115357836Y-65360000D01*
X115142164Y-64640000D02*
X115357836Y-64640000D01*
%TO.C,C9*%
X109360000Y-72107836D02*
X109360000Y-71892164D01*
X108640000Y-72107836D02*
X108640000Y-71892164D01*
%TO.C,C2*%
X112490000Y-49599420D02*
X112490000Y-49880580D01*
X113510000Y-49599420D02*
X113510000Y-49880580D01*
%TO.C,C4*%
X111140580Y-56730000D02*
X110859420Y-56730000D01*
X111140580Y-57750000D02*
X110859420Y-57750000D01*
D12*
%TO.C,J3*%
X119480000Y-68130000D02*
X119480000Y-67630000D01*
X127480000Y-62530000D02*
X122480000Y-62530000D01*
X127480000Y-75730000D02*
X122380000Y-75730000D01*
X119480000Y-70130000D02*
X119480000Y-70630000D01*
X122480000Y-62530000D02*
X122380000Y-62530000D01*
D13*
%TO.C,C18*%
X115142164Y-66360000D02*
X115357836Y-66360000D01*
X115142164Y-65640000D02*
X115357836Y-65640000D01*
D12*
%TO.C,TP2*%
X107100000Y-47590000D02*
X107100000Y-45390000D01*
X110900000Y-47590000D02*
X107100000Y-47590000D01*
X110900000Y-45390000D02*
X110900000Y-47590000D01*
X107100000Y-45390000D02*
X110900000Y-45390000D01*
D13*
%TO.C,R9*%
X119120000Y-49846359D02*
X119120000Y-50153641D01*
X119880000Y-49846359D02*
X119880000Y-50153641D01*
%TO.C,U3*%
X112665000Y-67260000D02*
X112190000Y-67260000D01*
X115410000Y-70480000D02*
X115410000Y-70005000D01*
X114935000Y-70480000D02*
X115410000Y-70480000D01*
X112190000Y-70480000D02*
X112190000Y-70005000D01*
X112665000Y-70480000D02*
X112190000Y-70480000D01*
X115410000Y-67260000D02*
X115410000Y-67735000D01*
X114935000Y-67260000D02*
X115410000Y-67260000D01*
%TO.C,R1*%
X126880000Y-47393641D02*
X126880000Y-47086359D01*
X126120000Y-47393641D02*
X126120000Y-47086359D01*
%TO.C,C16*%
X115142164Y-73860000D02*
X115357836Y-73860000D01*
X115142164Y-73140000D02*
X115357836Y-73140000D01*
%TO.C,C1*%
X109010000Y-55380580D02*
X109010000Y-55099420D01*
X107990000Y-55380580D02*
X107990000Y-55099420D01*
%TO.C,R15*%
X106257500Y-64262742D02*
X106257500Y-64737258D01*
X107302500Y-64262742D02*
X107302500Y-64737258D01*
%TO.C,C7*%
X120240000Y-51109420D02*
X120240000Y-51390580D01*
X121260000Y-51109420D02*
X121260000Y-51390580D01*
%TO.C,Q1*%
X110000000Y-51300000D02*
X111675000Y-51300000D01*
X110000000Y-51300000D02*
X109350000Y-51300000D01*
X110000000Y-48180000D02*
X110650000Y-48180000D01*
X110000000Y-48180000D02*
X109350000Y-48180000D01*
%TO.C,R21*%
X108660000Y-65143641D02*
X108660000Y-64836359D01*
X107900000Y-65143641D02*
X107900000Y-64836359D01*
%TO.C,C6*%
X118140000Y-50892164D02*
X118140000Y-51107836D01*
X118860000Y-50892164D02*
X118860000Y-51107836D01*
%TO.C,D5*%
X115450000Y-76850000D02*
X113600000Y-76850000D01*
X115450000Y-75650000D02*
X113600000Y-75650000D01*
X113600000Y-75650000D02*
X113600000Y-76850000D01*
%TO.C,R18*%
X111870000Y-63846359D02*
X111870000Y-64153641D01*
X112630000Y-63846359D02*
X112630000Y-64153641D01*
%TO.C,R8*%
X123403641Y-51360000D02*
X123096359Y-51360000D01*
X123403641Y-52120000D02*
X123096359Y-52120000D01*
%TO.C,C5*%
X118912164Y-48860000D02*
X119127836Y-48860000D01*
X118912164Y-48140000D02*
X119127836Y-48140000D01*
%TO.C,C24*%
X107887836Y-59640000D02*
X107672164Y-59640000D01*
X107887836Y-60360000D02*
X107672164Y-60360000D01*
%TO.C,U5*%
X110190000Y-62950000D02*
X110190000Y-61550000D01*
X107870000Y-61550000D02*
X107870000Y-63450000D01*
%TO.C,R12*%
X111380000Y-74163641D02*
X111380000Y-73856359D01*
X110620000Y-74163641D02*
X110620000Y-73856359D01*
%TO.C,R17*%
X111630000Y-64153641D02*
X111630000Y-63846359D01*
X110870000Y-64153641D02*
X110870000Y-63846359D01*
D12*
%TO.C,TP1*%
X119150000Y-45390000D02*
X119150000Y-47590000D01*
X115350000Y-45390000D02*
X119150000Y-45390000D01*
X115350000Y-47590000D02*
X115350000Y-45390000D01*
X119150000Y-47590000D02*
X115350000Y-47590000D01*
D13*
%TO.C,C26*%
X109672164Y-59360000D02*
X109887836Y-59360000D01*
X109672164Y-58640000D02*
X109887836Y-58640000D01*
%TO.C,R22*%
X110160000Y-65153641D02*
X110160000Y-64846359D01*
X109400000Y-65153641D02*
X109400000Y-64846359D01*
%TO.C,C12*%
X112892164Y-73860000D02*
X113107836Y-73860000D01*
X112892164Y-73140000D02*
X113107836Y-73140000D01*
%TO.C,C22*%
X107887836Y-58640000D02*
X107672164Y-58640000D01*
X107887836Y-59360000D02*
X107672164Y-59360000D01*
%TO.C,C20*%
X115859420Y-64030000D02*
X116140580Y-64030000D01*
X115859420Y-63010000D02*
X116140580Y-63010000D01*
%TO.C,R2*%
X114880000Y-53643641D02*
X114880000Y-53336359D01*
X114120000Y-53643641D02*
X114120000Y-53336359D01*
%TO.C,D6*%
X118200000Y-76850000D02*
X116350000Y-76850000D01*
X118200000Y-75650000D02*
X116350000Y-75650000D01*
X116350000Y-75650000D02*
X116350000Y-76850000D01*
%TO.C,C15*%
X115142164Y-72860000D02*
X115357836Y-72860000D01*
X115142164Y-72140000D02*
X115357836Y-72140000D01*
%TO.C,R6*%
X114120000Y-55336359D02*
X114120000Y-55643641D01*
X114880000Y-55336359D02*
X114880000Y-55643641D01*
%TO.C,D1*%
X125600000Y-46290000D02*
X125600000Y-48140000D01*
X124400000Y-46290000D02*
X124400000Y-48140000D01*
X124400000Y-48140000D02*
X125600000Y-48140000D01*
%TO.C,D7*%
X120950000Y-76850000D02*
X119100000Y-76850000D01*
X120950000Y-75650000D02*
X119100000Y-75650000D01*
X119100000Y-75650000D02*
X119100000Y-76850000D01*
%TO.C,C8*%
X113510000Y-54880580D02*
X113510000Y-54599420D01*
X112490000Y-54880580D02*
X112490000Y-54599420D01*
%TO.C,R5*%
X125370000Y-53076359D02*
X125370000Y-53383641D01*
X126130000Y-53076359D02*
X126130000Y-53383641D01*
%TO.C,Q3*%
X124810000Y-54740000D02*
X124810000Y-53065000D01*
X124810000Y-54740000D02*
X124810000Y-55390000D01*
X121690000Y-54740000D02*
X121690000Y-54090000D01*
X121690000Y-54740000D02*
X121690000Y-55390000D01*
%TO.C,J1*%
X99700000Y-52140000D02*
X100200000Y-52140000D01*
X99700000Y-51400000D02*
X99700000Y-52140000D01*
X105600000Y-45580000D02*
X105600000Y-51900000D01*
X99940000Y-45580000D02*
X99940000Y-51900000D01*
X104830000Y-51900000D02*
X105600000Y-51900000D01*
X102290000Y-51900000D02*
X103250000Y-51900000D01*
X99940000Y-51900000D02*
X100710000Y-51900000D01*
X99940000Y-45580000D02*
X105600000Y-45580000D01*
X99940000Y-46040000D02*
X105600000Y-46040000D01*
X104830000Y-51340000D02*
X105600000Y-51340000D01*
X102290000Y-51340000D02*
X103250000Y-51340000D01*
X99940000Y-51340000D02*
X100710000Y-51340000D01*
%TO.C,U1*%
X109880000Y-56240000D02*
X109880000Y-54240000D01*
X112120000Y-54240000D02*
X112120000Y-55240000D01*
%TO.C,R4*%
X122870000Y-57596359D02*
X122870000Y-57903641D01*
X123630000Y-57596359D02*
X123630000Y-57903641D01*
D12*
%TO.C,U2*%
X116000000Y-51365000D02*
X114500000Y-51365000D01*
X117500000Y-48115000D02*
X114500000Y-48115000D01*
%TD*%
M02*
