%TF.GenerationSoftware,KiCad,Pcbnew,5.99.0-unknown-b691c18bfc~117~ubuntu20.10.1*%
%TF.CreationDate,2021-03-21T19:03:17-07:00*%
%TF.ProjectId,xx1000-qt,78783130-3030-42d7-9174-2e6b69636164,rev?*%
%TF.SameCoordinates,Original*%
%TF.FileFunction,Copper,L3,Inr*%
%TF.FilePolarity,Positive*%
%FSLAX46Y46*%
G04 Gerber Fmt 4.6, Leading zero omitted, Abs format (unit mm)*
G04 Created by KiCad (PCBNEW 5.99.0-unknown-b691c18bfc~117~ubuntu20.10.1) date 2021-03-21 19:03:17*
%MOMM*%
%LPD*%
G01*
G04 APERTURE LIST*
%TA.AperFunction,ComponentPad*%
%ADD10C,0.500000*%
%TD*%
%TA.AperFunction,ComponentPad*%
%ADD11C,3.000000*%
%TD*%
%TA.AperFunction,ComponentPad*%
%ADD12C,2.200000*%
%TD*%
%TA.AperFunction,ComponentPad*%
%ADD13R,2.200000X2.200000*%
%TD*%
%TA.AperFunction,ViaPad*%
%ADD14C,0.480000*%
%TD*%
%TA.AperFunction,ViaPad*%
%ADD15C,0.800000*%
%TD*%
%TA.AperFunction,Conductor*%
%ADD16C,0.250000*%
%TD*%
G04 APERTURE END LIST*
D10*
%TO.N,GND*%
%TO.C,J4*%
X99835000Y-65125000D03*
X99835000Y-68125000D03*
D11*
X102225000Y-73800000D03*
D10*
X99835000Y-67125000D03*
X99835000Y-71925000D03*
X99835000Y-72925000D03*
X99835000Y-73925000D03*
D11*
X102225000Y-64450000D03*
D10*
X99835000Y-63125000D03*
X99835000Y-66125000D03*
X99835000Y-74925000D03*
X99835000Y-69925000D03*
X99835000Y-64125000D03*
X99835000Y-70925000D03*
%TD*%
%TO.N,GND*%
%TO.C,J3*%
X127080000Y-73130000D03*
X127080000Y-70130000D03*
D11*
X124690000Y-64455000D03*
D10*
X127080000Y-71130000D03*
X127080000Y-66330000D03*
X127080000Y-65330000D03*
X127080000Y-64330000D03*
D11*
X124690000Y-73805000D03*
D10*
X127080000Y-75130000D03*
X127080000Y-72130000D03*
X127080000Y-63330000D03*
X127080000Y-68330000D03*
X127080000Y-74130000D03*
X127080000Y-67330000D03*
%TD*%
D12*
%TO.N,Net-(J1-Pad2)*%
%TO.C,J1*%
X104040000Y-48740000D03*
D13*
%TO.N,GND*%
X101500000Y-48740000D03*
%TD*%
D14*
%TO.N,GND*%
X115800000Y-67100000D03*
X113800000Y-68870000D03*
X112600000Y-67600000D03*
X111900000Y-70000000D03*
X111900000Y-70700000D03*
X115800000Y-70600000D03*
X115800000Y-70000000D03*
X115800000Y-67800000D03*
X111900000Y-67600000D03*
X118500000Y-70750000D03*
X107000000Y-75250000D03*
X100750000Y-56250000D03*
X100750000Y-58500000D03*
X126000000Y-58500000D03*
X119250000Y-58500000D03*
%TO.N,/mmic_bias_a1/Vp*%
X114000000Y-64250000D03*
%TO.N,GND*%
X112750000Y-76750000D03*
X113500000Y-76250000D03*
%TO.N,-5V*%
X109000000Y-66250000D03*
%TO.N,Net-(D5-Pad2)*%
X116500000Y-74500000D03*
%TO.N,GND*%
X121750000Y-76250000D03*
X116500000Y-73500000D03*
X116500000Y-72500000D03*
X109000000Y-70750000D03*
X110000000Y-70750000D03*
X111000000Y-70750000D03*
X114000000Y-73500000D03*
X114000000Y-72500000D03*
%TO.N,-5V*%
X113000000Y-74250000D03*
%TO.N,GND*%
X112250000Y-66000000D03*
X116250000Y-66000000D03*
X114000000Y-62250000D03*
X116000000Y-64470000D03*
D15*
X111000000Y-54740000D03*
D14*
X122750000Y-72750000D03*
D15*
X115500000Y-51240000D03*
D14*
X126500000Y-46000000D03*
X114250000Y-68400000D03*
D15*
X117250000Y-46490000D03*
X122250000Y-46000000D03*
D14*
X113300000Y-69300000D03*
D15*
X116500000Y-51240000D03*
D14*
X114250000Y-69300000D03*
D15*
X115500000Y-54740000D03*
D14*
X111000000Y-59000000D03*
X104250000Y-72750000D03*
D15*
X115500000Y-48240000D03*
D14*
X106750000Y-59000000D03*
D15*
X116500000Y-48240000D03*
D14*
X104250000Y-75250000D03*
D15*
X119800000Y-47500000D03*
X112000000Y-50740000D03*
D14*
X104250000Y-63000000D03*
D15*
X109250000Y-57240000D03*
X116000000Y-50490000D03*
D14*
X111000000Y-60000000D03*
D15*
X114750000Y-52000000D03*
D14*
X116750000Y-62720000D03*
X106750000Y-60000000D03*
D15*
X109750000Y-54740000D03*
X119500000Y-52000000D03*
D14*
X113300000Y-68400000D03*
D15*
X122750000Y-49250000D03*
X116000000Y-48990000D03*
D14*
X114250000Y-59000000D03*
X104250000Y-65500000D03*
D15*
X112250000Y-54740000D03*
X117250000Y-52000000D03*
X113000000Y-51490000D03*
D14*
X122750000Y-65500000D03*
X112250000Y-65000000D03*
X122750000Y-75250000D03*
X122750000Y-63000000D03*
D15*
X119800000Y-46000000D03*
D14*
%TO.N,-5V*%
X114500000Y-56750000D03*
X123500000Y-46300000D03*
%TO.N,+5V*%
X111250000Y-65250000D03*
X115750000Y-58250000D03*
X108250000Y-58250000D03*
%TO.N,/mmic_bias_a1/Vd*%
X106750000Y-66000000D03*
X115300000Y-62520000D03*
%TO.N,/mmic_bias_a1/Vp*%
X106800000Y-62500000D03*
X123200000Y-59300000D03*
%TO.N,Net-(D5-Pad2)*%
X113000000Y-62500000D03*
%TD*%
D16*
%TO.N,Net-(D5-Pad2)*%
X117250000Y-67250000D02*
X117250000Y-68500000D01*
X117250000Y-73750000D02*
X116500000Y-74500000D01*
X113000000Y-62500000D02*
X113000000Y-64750000D01*
X116500000Y-66500000D02*
X117250000Y-67250000D01*
X113000000Y-64750000D02*
X114250000Y-66000000D01*
X114250000Y-66000000D02*
X114750000Y-66000000D01*
X114750000Y-66000000D02*
X115250000Y-66500000D01*
X117250000Y-67250000D02*
X117250000Y-73750000D01*
X115250000Y-66500000D02*
X116500000Y-66500000D01*
%TO.N,-5V*%
X112750000Y-74500000D02*
X113000000Y-74250000D01*
X109000000Y-66250000D02*
X109000000Y-68000000D01*
X109000000Y-68000000D02*
X108000000Y-69000000D01*
X108000000Y-69000000D02*
X108000000Y-73250000D01*
X108000000Y-73250000D02*
X109250000Y-74500000D01*
X109250000Y-74500000D02*
X112750000Y-74500000D01*
X114500000Y-56750000D02*
X121250000Y-56750000D01*
X123500000Y-54500000D02*
X123500000Y-46300000D01*
X121250000Y-56750000D02*
X123500000Y-54500000D01*
%TO.N,+5V*%
X108250000Y-60650000D02*
X108250000Y-58250000D01*
X111250000Y-63650000D02*
X109700000Y-62100000D01*
X109800000Y-62100000D02*
X109700000Y-62100000D01*
X115750000Y-58250000D02*
X113650000Y-58250000D01*
X111250000Y-65250000D02*
X111250000Y-63650000D01*
X113650000Y-58250000D02*
X109800000Y-62100000D01*
X109700000Y-62100000D02*
X108250000Y-60650000D01*
%TD*%
M02*
