%TF.GenerationSoftware,KiCad,Pcbnew,5.99.0-unknown-b691c18bfc~117~ubuntu20.10.1*%
%TF.CreationDate,2021-03-21T19:03:18-07:00*%
%TF.ProjectId,xx1000-qt,78783130-3030-42d7-9174-2e6b69636164,rev?*%
%TF.SameCoordinates,Original*%
%TF.FileFunction,Soldermask,Top*%
%TF.FilePolarity,Negative*%
%FSLAX46Y46*%
G04 Gerber Fmt 4.6, Leading zero omitted, Abs format (unit mm)*
G04 Created by KiCad (PCBNEW 5.99.0-unknown-b691c18bfc~117~ubuntu20.10.1) date 2021-03-21 19:03:18*
%MOMM*%
%LPD*%
G01*
G04 APERTURE LIST*
G04 Aperture macros list*
%AMRoundRect*
0 Rectangle with rounded corners*
0 $1 Rounding radius*
0 $2 $3 $4 $5 $6 $7 $8 $9 X,Y pos of 4 corners*
0 Add a 4 corners polygon primitive as box body*
4,1,4,$2,$3,$4,$5,$6,$7,$8,$9,$2,$3,0*
0 Add four circle primitives for the rounded corners*
1,1,$1+$1,$2,$3*
1,1,$1+$1,$4,$5*
1,1,$1+$1,$6,$7*
1,1,$1+$1,$8,$9*
0 Add four rect primitives between the rounded corners*
20,1,$1+$1,$2,$3,$4,$5,0*
20,1,$1+$1,$4,$5,$6,$7,0*
20,1,$1+$1,$6,$7,$8,$9,0*
20,1,$1+$1,$8,$9,$2,$3,0*%
%AMOutline4P*
0 Free polygon, 4 corners , with rotation*
0 The origin of the aperture is its center*
0 number of corners: always 4*
0 $1 to $8 corner X, Y*
0 $9 Rotation angle, in degrees counterclockwise*
0 create outline with 4 corners*
4,1,4,$1,$2,$3,$4,$5,$6,$7,$8,$1,$2,$9*%
G04 Aperture macros list end*
%ADD10C,0.100000*%
%ADD11R,0.600000X6.000000*%
%ADD12R,4.500000X3.250000*%
%ADD13C,0.500000*%
%ADD14C,3.000000*%
%ADD15Outline4P,-2.800000X-0.100000X2.800000X-0.100000X3.000000X0.100000X-3.000000X0.100000X90.000000*%
%ADD16Outline4P,-0.205000X-0.475000X0.205000X-0.475000X0.095000X0.475000X-0.095000X0.475000X90.000000*%
%ADD17RoundRect,0.135000X0.135000X0.185000X-0.135000X0.185000X-0.135000X-0.185000X0.135000X-0.185000X0*%
%ADD18RoundRect,0.135000X-0.135000X-0.185000X0.135000X-0.185000X0.135000X0.185000X-0.135000X0.185000X0*%
%ADD19RoundRect,0.135000X0.185000X-0.135000X0.185000X0.135000X-0.185000X0.135000X-0.185000X-0.135000X0*%
%ADD20RoundRect,0.135000X-0.185000X0.135000X-0.185000X-0.135000X0.185000X-0.135000X0.185000X0.135000X0*%
%ADD21RoundRect,0.140000X0.170000X-0.140000X0.170000X0.140000X-0.170000X0.140000X-0.170000X-0.140000X0*%
%ADD22R,0.450000X0.700000*%
%ADD23RoundRect,0.140000X0.140000X0.170000X-0.140000X0.170000X-0.140000X-0.170000X0.140000X-0.170000X0*%
%ADD24RoundRect,0.140000X-0.140000X-0.170000X0.140000X-0.170000X0.140000X0.170000X-0.140000X0.170000X0*%
%ADD25RoundRect,0.225000X-0.250000X0.225000X-0.250000X-0.225000X0.250000X-0.225000X0.250000X0.225000X0*%
%ADD26RoundRect,0.225000X0.225000X0.250000X-0.225000X0.250000X-0.225000X-0.250000X0.225000X-0.250000X0*%
%ADD27Outline4P,-2.800000X-0.100000X2.800000X-0.100000X3.000000X0.100000X-3.000000X0.100000X270.000000*%
%ADD28Outline4P,-0.205000X-0.475000X0.205000X-0.475000X0.095000X0.475000X-0.095000X0.475000X270.000000*%
%ADD29R,3.400000X1.800000*%
%ADD30R,1.450000X1.450000*%
%ADD31RoundRect,0.062500X-0.062500X-0.375000X0.062500X-0.375000X0.062500X0.375000X-0.062500X0.375000X0*%
%ADD32RoundRect,0.062500X-0.375000X-0.062500X0.375000X-0.062500X0.375000X0.062500X-0.375000X0.062500X0*%
%ADD33RoundRect,0.225000X0.250000X-0.225000X0.250000X0.225000X-0.250000X0.225000X-0.250000X-0.225000X0*%
%ADD34RoundRect,0.200000X-0.275000X0.200000X-0.275000X-0.200000X0.275000X-0.200000X0.275000X0.200000X0*%
%ADD35RoundRect,0.150000X0.587500X0.150000X-0.587500X0.150000X-0.587500X-0.150000X0.587500X-0.150000X0*%
%ADD36RoundRect,0.140000X-0.170000X0.140000X-0.170000X-0.140000X0.170000X-0.140000X0.170000X0.140000X0*%
%ADD37R,0.600000X0.700000*%
%ADD38R,0.400000X0.650000*%
%ADD39RoundRect,0.225000X-0.225000X-0.250000X0.225000X-0.250000X0.225000X0.250000X-0.225000X0.250000X0*%
%ADD40R,0.700000X0.600000*%
%ADD41RoundRect,0.150000X-0.150000X0.587500X-0.150000X-0.587500X0.150000X-0.587500X0.150000X0.587500X0*%
%ADD42C,1.100000*%
%ADD43C,2.200000*%
%ADD44R,2.200000X2.200000*%
%ADD45R,0.250000X0.500000*%
%ADD46R,1.600000X0.900000*%
%ADD47R,1.660000X2.380000*%
%ADD48R,0.700000X0.250000*%
G04 APERTURE END LIST*
D10*
%TO.C,J4*%
X99435000Y-75725000D02*
X99435000Y-69625000D01*
X99435000Y-69625000D02*
X104535000Y-69625000D01*
X104535000Y-69625000D02*
X104535000Y-75725000D01*
X104535000Y-75725000D02*
X99435000Y-75725000D01*
G36*
X104535000Y-75725000D02*
G01*
X99435000Y-75725000D01*
X99435000Y-69625000D01*
X104535000Y-69625000D01*
X104535000Y-75725000D01*
G37*
X104535000Y-75725000D02*
X99435000Y-75725000D01*
X99435000Y-69625000D01*
X104535000Y-69625000D01*
X104535000Y-75725000D01*
X101335000Y-69725000D02*
X101335000Y-68525000D01*
X101335000Y-68525000D02*
X104535000Y-68525000D01*
X104535000Y-68525000D02*
X104535000Y-69725000D01*
X104535000Y-69725000D02*
X101335000Y-69725000D01*
G36*
X104535000Y-69725000D02*
G01*
X101335000Y-69725000D01*
X101335000Y-68525000D01*
X104535000Y-68525000D01*
X104535000Y-69725000D01*
G37*
X104535000Y-69725000D02*
X101335000Y-69725000D01*
X101335000Y-68525000D01*
X104535000Y-68525000D01*
X104535000Y-69725000D01*
X99435000Y-69625000D02*
X99435000Y-68625000D01*
X99435000Y-68625000D02*
X100735000Y-68625000D01*
X100735000Y-68625000D02*
X100735000Y-69625000D01*
X100735000Y-69625000D02*
X99435000Y-69625000D01*
G36*
X100735000Y-69625000D02*
G01*
X99435000Y-69625000D01*
X99435000Y-68625000D01*
X100735000Y-68625000D01*
X100735000Y-69625000D01*
G37*
X100735000Y-69625000D02*
X99435000Y-69625000D01*
X99435000Y-68625000D01*
X100735000Y-68625000D01*
X100735000Y-69625000D01*
X99435000Y-68625000D02*
X99435000Y-62525000D01*
X99435000Y-62525000D02*
X104535000Y-62525000D01*
X104535000Y-62525000D02*
X104535000Y-68625000D01*
X104535000Y-68625000D02*
X99435000Y-68625000D01*
G36*
X104535000Y-68625000D02*
G01*
X99435000Y-68625000D01*
X99435000Y-62525000D01*
X104535000Y-62525000D01*
X104535000Y-68625000D01*
G37*
X104535000Y-68625000D02*
X99435000Y-68625000D01*
X99435000Y-62525000D01*
X104535000Y-62525000D01*
X104535000Y-68625000D01*
%TO.C,J3*%
X127480000Y-62530000D02*
X127480000Y-68630000D01*
X127480000Y-68630000D02*
X122380000Y-68630000D01*
X122380000Y-68630000D02*
X122380000Y-62530000D01*
X122380000Y-62530000D02*
X127480000Y-62530000D01*
G36*
X127480000Y-68630000D02*
G01*
X122380000Y-68630000D01*
X122380000Y-62530000D01*
X127480000Y-62530000D01*
X127480000Y-68630000D01*
G37*
X127480000Y-68630000D02*
X122380000Y-68630000D01*
X122380000Y-62530000D01*
X127480000Y-62530000D01*
X127480000Y-68630000D01*
X125580000Y-68530000D02*
X125580000Y-69730000D01*
X125580000Y-69730000D02*
X122380000Y-69730000D01*
X122380000Y-69730000D02*
X122380000Y-68530000D01*
X122380000Y-68530000D02*
X125580000Y-68530000D01*
G36*
X125580000Y-69730000D02*
G01*
X122380000Y-69730000D01*
X122380000Y-68530000D01*
X125580000Y-68530000D01*
X125580000Y-69730000D01*
G37*
X125580000Y-69730000D02*
X122380000Y-69730000D01*
X122380000Y-68530000D01*
X125580000Y-68530000D01*
X125580000Y-69730000D01*
X127480000Y-68630000D02*
X127480000Y-69630000D01*
X127480000Y-69630000D02*
X126180000Y-69630000D01*
X126180000Y-69630000D02*
X126180000Y-68630000D01*
X126180000Y-68630000D02*
X127480000Y-68630000D01*
G36*
X127480000Y-69630000D02*
G01*
X126180000Y-69630000D01*
X126180000Y-68630000D01*
X127480000Y-68630000D01*
X127480000Y-69630000D01*
G37*
X127480000Y-69630000D02*
X126180000Y-69630000D01*
X126180000Y-68630000D01*
X127480000Y-68630000D01*
X127480000Y-69630000D01*
X127480000Y-69630000D02*
X127480000Y-75730000D01*
X127480000Y-75730000D02*
X122380000Y-75730000D01*
X122380000Y-75730000D02*
X122380000Y-69630000D01*
X122380000Y-69630000D02*
X127480000Y-69630000D01*
G36*
X127480000Y-75730000D02*
G01*
X122380000Y-75730000D01*
X122380000Y-69630000D01*
X127480000Y-69630000D01*
X127480000Y-75730000D01*
G37*
X127480000Y-75730000D02*
X122380000Y-75730000D01*
X122380000Y-69630000D01*
X127480000Y-69630000D01*
X127480000Y-75730000D01*
%TD*%
D11*
%TO.C,J4*%
X99735000Y-65725000D03*
D12*
X102285000Y-73900000D03*
D13*
X99835000Y-65125000D03*
X99835000Y-68125000D03*
D14*
X102225000Y-73800000D03*
D15*
X100135000Y-72525000D03*
D13*
X99835000Y-67125000D03*
X99835000Y-71925000D03*
X99835000Y-72925000D03*
X99835000Y-73925000D03*
D14*
X102225000Y-64450000D03*
D11*
X99735000Y-72525000D03*
D13*
X99835000Y-63125000D03*
X99835000Y-66125000D03*
D12*
X102285000Y-64350000D03*
D13*
X99835000Y-74925000D03*
X99835000Y-69925000D03*
X99835000Y-64125000D03*
D15*
X100135000Y-65725000D03*
D13*
X99835000Y-70925000D03*
D16*
X99985000Y-69125000D03*
%TD*%
D17*
%TO.C,R10*%
X120740000Y-49250000D03*
X121760000Y-49250000D03*
%TD*%
D18*
%TO.C,R7*%
X121010000Y-53740000D03*
X119990000Y-53740000D03*
%TD*%
D17*
%TO.C,R19*%
X114740000Y-74500000D03*
X115760000Y-74500000D03*
%TD*%
D19*
%TO.C,R11*%
X111000000Y-71490000D03*
X111000000Y-72510000D03*
%TD*%
D20*
%TO.C,R14*%
X112250000Y-62510000D03*
X112250000Y-61490000D03*
%TD*%
%TO.C,R3*%
X115500000Y-54000000D03*
X115500000Y-52980000D03*
%TD*%
D21*
%TO.C,C14*%
X114000000Y-62790000D03*
X114000000Y-63750000D03*
%TD*%
D22*
%TO.C,Q2*%
X125750000Y-51240000D03*
X125100000Y-49240000D03*
X126400000Y-49240000D03*
%TD*%
D19*
%TO.C,R16*%
X111250000Y-61490000D03*
X111250000Y-62510000D03*
%TD*%
%TO.C,R13*%
X112750000Y-75240000D03*
X112750000Y-76260000D03*
%TD*%
D21*
%TO.C,C10*%
X110000000Y-71500000D03*
X110000000Y-72460000D03*
%TD*%
D23*
%TO.C,C13*%
X112770000Y-66000000D03*
X113730000Y-66000000D03*
%TD*%
D24*
%TO.C,C3*%
X110980000Y-52490000D03*
X110020000Y-52490000D03*
%TD*%
%TO.C,C11*%
X113480000Y-72500000D03*
X112520000Y-72500000D03*
%TD*%
%TO.C,C25*%
X110240000Y-60000000D03*
X109280000Y-60000000D03*
%TD*%
%TO.C,C19*%
X115730000Y-65000000D03*
X114770000Y-65000000D03*
%TD*%
D21*
%TO.C,C9*%
X109000000Y-71520000D03*
X109000000Y-72480000D03*
%TD*%
D25*
%TO.C,C2*%
X113000000Y-50515000D03*
X113000000Y-48965000D03*
%TD*%
D26*
%TO.C,C4*%
X110225000Y-57240000D03*
X111775000Y-57240000D03*
%TD*%
D11*
%TO.C,J3*%
X127180000Y-72530000D03*
D12*
X124630000Y-64355000D03*
D13*
X127080000Y-73130000D03*
X127080000Y-70130000D03*
D14*
X124690000Y-64455000D03*
D27*
X126780000Y-65730000D03*
D13*
X127080000Y-71130000D03*
X127080000Y-66330000D03*
X127080000Y-65330000D03*
X127080000Y-64330000D03*
D14*
X124690000Y-73805000D03*
D11*
X127180000Y-65730000D03*
D13*
X127080000Y-75130000D03*
X127080000Y-72130000D03*
D12*
X124630000Y-73905000D03*
D13*
X127080000Y-63330000D03*
X127080000Y-68330000D03*
X127080000Y-74130000D03*
D27*
X126780000Y-72530000D03*
D13*
X127080000Y-67330000D03*
D28*
X126930000Y-69130000D03*
%TD*%
D24*
%TO.C,C18*%
X115730000Y-66000000D03*
X114770000Y-66000000D03*
%TD*%
D29*
%TO.C,TP2*%
X109000000Y-46490000D03*
%TD*%
D20*
%TO.C,R9*%
X119500000Y-50510000D03*
X119500000Y-49490000D03*
%TD*%
D30*
%TO.C,U3*%
X113800000Y-68870000D03*
D31*
X113050000Y-67432500D03*
X113550000Y-67432500D03*
X114050000Y-67432500D03*
X114550000Y-67432500D03*
D32*
X115237500Y-68120000D03*
X115237500Y-68620000D03*
X115237500Y-69120000D03*
X115237500Y-69620000D03*
D31*
X114550000Y-70307500D03*
X114050000Y-70307500D03*
X113550000Y-70307500D03*
X113050000Y-70307500D03*
D32*
X112362500Y-69620000D03*
X112362500Y-69120000D03*
X112362500Y-68620000D03*
X112362500Y-68120000D03*
%TD*%
D19*
%TO.C,R1*%
X126500000Y-46730000D03*
X126500000Y-47750000D03*
%TD*%
D24*
%TO.C,C16*%
X115730000Y-73500000D03*
X114770000Y-73500000D03*
%TD*%
D33*
%TO.C,C1*%
X108500000Y-54465000D03*
X108500000Y-56015000D03*
%TD*%
D34*
%TO.C,R15*%
X106780000Y-65325000D03*
X106780000Y-63675000D03*
%TD*%
D25*
%TO.C,C7*%
X120750000Y-52025000D03*
X120750000Y-50475000D03*
%TD*%
D35*
%TO.C,Q1*%
X109062500Y-49740000D03*
X110937500Y-48790000D03*
X110937500Y-50690000D03*
%TD*%
D19*
%TO.C,R21*%
X108280000Y-64480000D03*
X108280000Y-65500000D03*
%TD*%
D36*
%TO.C,C6*%
X118500000Y-51480000D03*
X118500000Y-50520000D03*
%TD*%
D37*
%TO.C,D5*%
X114050000Y-76250000D03*
X115450000Y-76250000D03*
%TD*%
D20*
%TO.C,R18*%
X112250000Y-64510000D03*
X112250000Y-63490000D03*
%TD*%
D17*
%TO.C,R8*%
X122740000Y-51740000D03*
X123760000Y-51740000D03*
%TD*%
D24*
%TO.C,C5*%
X119500000Y-48500000D03*
X118540000Y-48500000D03*
%TD*%
D23*
%TO.C,C24*%
X107300000Y-60000000D03*
X108260000Y-60000000D03*
%TD*%
D38*
%TO.C,U5*%
X108380000Y-61300000D03*
X109680000Y-61300000D03*
X109030000Y-63200000D03*
X109680000Y-63200000D03*
X108380000Y-63200000D03*
%TD*%
D19*
%TO.C,R12*%
X111000000Y-73500000D03*
X111000000Y-74520000D03*
%TD*%
%TO.C,R17*%
X111250000Y-63490000D03*
X111250000Y-64510000D03*
%TD*%
D29*
%TO.C,TP1*%
X117250000Y-46490000D03*
%TD*%
D24*
%TO.C,C26*%
X110260000Y-59000000D03*
X109300000Y-59000000D03*
%TD*%
D19*
%TO.C,R22*%
X109780000Y-64490000D03*
X109780000Y-65510000D03*
%TD*%
D24*
%TO.C,C12*%
X113480000Y-73500000D03*
X112520000Y-73500000D03*
%TD*%
D23*
%TO.C,C22*%
X107300000Y-59000000D03*
X108260000Y-59000000D03*
%TD*%
D39*
%TO.C,C20*%
X116775000Y-63520000D03*
X115225000Y-63520000D03*
%TD*%
D19*
%TO.C,R2*%
X114500000Y-52980000D03*
X114500000Y-54000000D03*
%TD*%
D37*
%TO.C,D6*%
X116800000Y-76250000D03*
X118200000Y-76250000D03*
%TD*%
D24*
%TO.C,C15*%
X115730000Y-72500000D03*
X114770000Y-72500000D03*
%TD*%
D20*
%TO.C,R6*%
X114500000Y-56000000D03*
X114500000Y-54980000D03*
%TD*%
D40*
%TO.C,D1*%
X125000000Y-47690000D03*
X125000000Y-46290000D03*
%TD*%
D37*
%TO.C,D7*%
X119550000Y-76250000D03*
X120950000Y-76250000D03*
%TD*%
D33*
%TO.C,C8*%
X113000000Y-53965000D03*
X113000000Y-55515000D03*
%TD*%
D20*
%TO.C,R5*%
X125750000Y-53740000D03*
X125750000Y-52720000D03*
%TD*%
D41*
%TO.C,Q3*%
X123250000Y-55677500D03*
X122300000Y-53802500D03*
X124200000Y-53802500D03*
%TD*%
D42*
%TO.C,J1*%
X104040000Y-51280000D03*
D43*
X104040000Y-48740000D03*
D42*
X101500000Y-51280000D03*
D44*
X101500000Y-48740000D03*
%TD*%
D45*
%TO.C,U1*%
X111250000Y-53790000D03*
X111750000Y-53790000D03*
X111750000Y-55690000D03*
X110750000Y-55690000D03*
X110250000Y-55690000D03*
D46*
X111000000Y-54740000D03*
D45*
X110250000Y-53790000D03*
X110750000Y-53790000D03*
X111250000Y-55690000D03*
%TD*%
D20*
%TO.C,R4*%
X123250000Y-58260000D03*
X123250000Y-57240000D03*
%TD*%
D47*
%TO.C,U2*%
X116000000Y-49740000D03*
D48*
X114600000Y-50490000D03*
X114600000Y-49990000D03*
X114600000Y-49490000D03*
X114600000Y-48990000D03*
X117400000Y-48990000D03*
X117400000Y-49490000D03*
X117400000Y-49990000D03*
X117400000Y-50490000D03*
%TD*%
M02*
