%TF.GenerationSoftware,KiCad,Pcbnew,5.99.0-unknown-b691c18bfc~117~ubuntu20.10.1*%
%TF.CreationDate,2021-03-21T19:03:17-07:00*%
%TF.ProjectId,xx1000-qt,78783130-3030-42d7-9174-2e6b69636164,rev?*%
%TF.SameCoordinates,Original*%
%TF.FileFunction,Copper,L2,Inr*%
%TF.FilePolarity,Positive*%
%FSLAX46Y46*%
G04 Gerber Fmt 4.6, Leading zero omitted, Abs format (unit mm)*
G04 Created by KiCad (PCBNEW 5.99.0-unknown-b691c18bfc~117~ubuntu20.10.1) date 2021-03-21 19:03:17*
%MOMM*%
%LPD*%
G01*
G04 APERTURE LIST*
%TA.AperFunction,ComponentPad*%
%ADD10C,0.500000*%
%TD*%
%TA.AperFunction,ComponentPad*%
%ADD11C,3.000000*%
%TD*%
%TA.AperFunction,ComponentPad*%
%ADD12C,2.200000*%
%TD*%
%TA.AperFunction,ComponentPad*%
%ADD13R,2.200000X2.200000*%
%TD*%
%TA.AperFunction,ViaPad*%
%ADD14C,0.480000*%
%TD*%
%TA.AperFunction,ViaPad*%
%ADD15C,0.800000*%
%TD*%
G04 APERTURE END LIST*
D10*
%TO.N,GND*%
%TO.C,J4*%
X99835000Y-65125000D03*
X99835000Y-68125000D03*
D11*
X102225000Y-73800000D03*
D10*
X99835000Y-67125000D03*
X99835000Y-71925000D03*
X99835000Y-72925000D03*
X99835000Y-73925000D03*
D11*
X102225000Y-64450000D03*
D10*
X99835000Y-63125000D03*
X99835000Y-66125000D03*
X99835000Y-74925000D03*
X99835000Y-69925000D03*
X99835000Y-64125000D03*
X99835000Y-70925000D03*
%TD*%
%TO.N,GND*%
%TO.C,J3*%
X127080000Y-73130000D03*
X127080000Y-70130000D03*
D11*
X124690000Y-64455000D03*
D10*
X127080000Y-71130000D03*
X127080000Y-66330000D03*
X127080000Y-65330000D03*
X127080000Y-64330000D03*
D11*
X124690000Y-73805000D03*
D10*
X127080000Y-75130000D03*
X127080000Y-72130000D03*
X127080000Y-63330000D03*
X127080000Y-68330000D03*
X127080000Y-74130000D03*
X127080000Y-67330000D03*
%TD*%
D12*
%TO.N,Net-(J1-Pad2)*%
%TO.C,J1*%
X104040000Y-48740000D03*
D13*
%TO.N,GND*%
X101500000Y-48740000D03*
%TD*%
D14*
%TO.N,GND*%
X115800000Y-67100000D03*
X113800000Y-68870000D03*
X112600000Y-67600000D03*
X111900000Y-70000000D03*
X111900000Y-70700000D03*
X115800000Y-70600000D03*
X115800000Y-70000000D03*
X115800000Y-67800000D03*
X111900000Y-67600000D03*
X118500000Y-70750000D03*
X107000000Y-75250000D03*
X100750000Y-56250000D03*
X100750000Y-58500000D03*
X126000000Y-58500000D03*
X119250000Y-58500000D03*
%TO.N,/mmic_bias_a1/Vp*%
X114000000Y-64250000D03*
%TO.N,GND*%
X112750000Y-76750000D03*
X113500000Y-76250000D03*
%TO.N,-5V*%
X109000000Y-66250000D03*
%TO.N,Net-(D5-Pad2)*%
X116500000Y-74500000D03*
%TO.N,GND*%
X121750000Y-76250000D03*
X116500000Y-73500000D03*
X116500000Y-72500000D03*
X109000000Y-70750000D03*
X110000000Y-70750000D03*
X111000000Y-70750000D03*
X114000000Y-73500000D03*
X114000000Y-72500000D03*
%TO.N,-5V*%
X113000000Y-74250000D03*
%TO.N,GND*%
X112250000Y-66000000D03*
X116250000Y-66000000D03*
X114000000Y-62250000D03*
X116000000Y-64470000D03*
D15*
X111000000Y-54740000D03*
D14*
X122750000Y-72750000D03*
D15*
X115500000Y-51240000D03*
D14*
X126500000Y-46000000D03*
X114250000Y-68400000D03*
D15*
X117250000Y-46490000D03*
X122250000Y-46000000D03*
D14*
X113300000Y-69300000D03*
D15*
X116500000Y-51240000D03*
D14*
X114250000Y-69300000D03*
D15*
X115500000Y-54740000D03*
D14*
X111000000Y-59000000D03*
X104250000Y-72750000D03*
D15*
X115500000Y-48240000D03*
D14*
X106750000Y-59000000D03*
D15*
X116500000Y-48240000D03*
D14*
X104250000Y-75250000D03*
D15*
X119800000Y-47500000D03*
X112000000Y-50740000D03*
D14*
X104250000Y-63000000D03*
D15*
X109250000Y-57240000D03*
X116000000Y-50490000D03*
D14*
X111000000Y-60000000D03*
D15*
X114750000Y-52000000D03*
D14*
X116750000Y-62720000D03*
X106750000Y-60000000D03*
D15*
X109750000Y-54740000D03*
X119500000Y-52000000D03*
D14*
X113300000Y-68400000D03*
D15*
X122750000Y-49250000D03*
X116000000Y-48990000D03*
D14*
X114250000Y-59000000D03*
X104250000Y-65500000D03*
D15*
X112250000Y-54740000D03*
X117250000Y-52000000D03*
X113000000Y-51490000D03*
D14*
X122750000Y-65500000D03*
X112250000Y-65000000D03*
X122750000Y-75250000D03*
X122750000Y-63000000D03*
D15*
X119800000Y-46000000D03*
D14*
%TO.N,-5V*%
X114500000Y-56750000D03*
X123500000Y-46300000D03*
%TO.N,+5V*%
X111250000Y-65250000D03*
X115750000Y-58250000D03*
X108250000Y-58250000D03*
%TO.N,/mmic_bias_a1/Vd*%
X106750000Y-66000000D03*
X115300000Y-62520000D03*
%TO.N,/mmic_bias_a1/Vp*%
X106800000Y-62500000D03*
X123200000Y-59300000D03*
%TO.N,Net-(D5-Pad2)*%
X113000000Y-62500000D03*
%TD*%
%TA.AperFunction,NonConductor*%
G36*
X126457648Y-45030167D02*
G01*
X126457991Y-45030400D01*
X126462403Y-45031147D01*
X126500051Y-45032039D01*
X126556796Y-45033383D01*
X126561441Y-45033666D01*
X126594273Y-45036899D01*
X126598977Y-45037362D01*
X126605039Y-45038261D01*
X126641363Y-45045487D01*
X126732715Y-45063658D01*
X126738664Y-45065148D01*
X126760612Y-45071805D01*
X126765381Y-45073252D01*
X126765384Y-45073253D01*
X126771157Y-45075319D01*
X126891416Y-45125132D01*
X126896941Y-45127745D01*
X126921565Y-45140907D01*
X126926819Y-45144056D01*
X127035054Y-45216376D01*
X127039979Y-45220029D01*
X127061561Y-45237740D01*
X127066107Y-45241860D01*
X127158147Y-45333900D01*
X127162255Y-45338432D01*
X127179973Y-45360021D01*
X127183618Y-45364936D01*
X127255945Y-45473183D01*
X127259095Y-45478438D01*
X127272248Y-45503046D01*
X127274867Y-45508584D01*
X127324682Y-45628848D01*
X127326748Y-45634622D01*
X127334850Y-45661329D01*
X127336341Y-45667280D01*
X127361738Y-45794958D01*
X127362638Y-45801026D01*
X127366335Y-45838569D01*
X127366618Y-45843214D01*
X127368293Y-45913913D01*
X127368441Y-45920164D01*
X127370040Y-45925172D01*
X127373000Y-45944177D01*
X127373000Y-77466282D01*
X127369832Y-77482649D01*
X127369600Y-77482991D01*
X127368853Y-77487402D01*
X127368800Y-77489658D01*
X127368799Y-77489664D01*
X127366618Y-77581787D01*
X127366335Y-77586432D01*
X127362638Y-77623975D01*
X127361739Y-77630039D01*
X127336341Y-77757719D01*
X127334852Y-77763664D01*
X127326746Y-77790384D01*
X127324680Y-77796158D01*
X127274867Y-77916416D01*
X127272249Y-77921952D01*
X127259088Y-77946575D01*
X127255954Y-77951804D01*
X127183618Y-78060064D01*
X127179972Y-78064980D01*
X127167186Y-78080560D01*
X127162259Y-78086563D01*
X127158141Y-78091106D01*
X127066100Y-78183147D01*
X127061568Y-78187255D01*
X127039977Y-78204974D01*
X127035066Y-78208617D01*
X127008524Y-78226351D01*
X126926817Y-78280945D01*
X126921562Y-78284095D01*
X126896953Y-78297249D01*
X126891416Y-78299867D01*
X126771139Y-78349688D01*
X126765389Y-78351745D01*
X126738656Y-78359855D01*
X126732726Y-78361340D01*
X126656443Y-78376514D01*
X126605048Y-78386737D01*
X126598981Y-78387637D01*
X126561433Y-78391335D01*
X126556786Y-78391618D01*
X126484308Y-78393334D01*
X126484307Y-78393334D01*
X126479837Y-78393440D01*
X126475582Y-78394798D01*
X126475579Y-78394799D01*
X126474829Y-78395039D01*
X126455819Y-78398000D01*
X100483718Y-78398000D01*
X100467351Y-78394832D01*
X100467009Y-78394600D01*
X100462598Y-78393853D01*
X100460342Y-78393800D01*
X100460336Y-78393799D01*
X100368213Y-78391618D01*
X100363568Y-78391335D01*
X100331575Y-78388184D01*
X100326023Y-78387638D01*
X100319961Y-78386739D01*
X100192281Y-78361341D01*
X100186336Y-78359852D01*
X100159616Y-78351746D01*
X100153842Y-78349680D01*
X100033584Y-78299867D01*
X100028048Y-78297249D01*
X100003425Y-78284088D01*
X99998196Y-78280954D01*
X99889930Y-78208613D01*
X99885020Y-78204972D01*
X99869440Y-78192186D01*
X99863437Y-78187259D01*
X99858894Y-78183141D01*
X99766853Y-78091100D01*
X99762745Y-78086568D01*
X99745026Y-78064977D01*
X99741382Y-78060064D01*
X99669055Y-77951817D01*
X99665902Y-77946557D01*
X99665901Y-77946555D01*
X99652751Y-77921953D01*
X99650133Y-77916416D01*
X99638541Y-77888432D01*
X99600312Y-77796139D01*
X99598253Y-77790384D01*
X99590145Y-77763656D01*
X99588660Y-77757726D01*
X99569392Y-77660859D01*
X99563263Y-77630048D01*
X99562363Y-77623981D01*
X99558665Y-77586433D01*
X99558382Y-77581786D01*
X99556666Y-77509308D01*
X99556666Y-77509307D01*
X99556560Y-77504837D01*
X99555202Y-77500582D01*
X99555201Y-77500579D01*
X99554961Y-77499829D01*
X99552000Y-77480819D01*
X99552000Y-74308272D01*
X112632086Y-74308272D01*
X112633720Y-74313169D01*
X112633720Y-74313171D01*
X112655796Y-74379341D01*
X112670797Y-74424304D01*
X112673930Y-74428409D01*
X112673931Y-74428411D01*
X112683632Y-74441122D01*
X112745006Y-74521541D01*
X112846711Y-74589498D01*
X112964945Y-74620847D01*
X112993493Y-74618826D01*
X113081807Y-74612573D01*
X113081809Y-74612573D01*
X113086958Y-74612208D01*
X113091710Y-74610196D01*
X113091713Y-74610195D01*
X113194840Y-74566526D01*
X113194842Y-74566524D01*
X113199595Y-74564512D01*
X113206562Y-74558272D01*
X116132086Y-74558272D01*
X116133720Y-74563169D01*
X116133720Y-74563171D01*
X116156245Y-74630686D01*
X116170797Y-74674304D01*
X116245006Y-74771541D01*
X116346711Y-74839498D01*
X116464945Y-74870847D01*
X116493493Y-74868826D01*
X116581807Y-74862573D01*
X116581809Y-74862573D01*
X116586958Y-74862208D01*
X116591710Y-74860196D01*
X116591713Y-74860195D01*
X116694840Y-74816526D01*
X116694842Y-74816524D01*
X116699595Y-74814512D01*
X116790710Y-74732903D01*
X116850478Y-74626180D01*
X116861741Y-74564512D01*
X116871968Y-74508513D01*
X116871968Y-74508511D01*
X116872454Y-74505851D01*
X116872500Y-74500000D01*
X116869655Y-74482903D01*
X116853265Y-74384436D01*
X116852417Y-74379341D01*
X116794333Y-74271692D01*
X116704511Y-74188662D01*
X116635463Y-74158136D01*
X116597361Y-74141291D01*
X116597359Y-74141290D01*
X116592637Y-74139203D01*
X116587494Y-74138758D01*
X116587492Y-74138757D01*
X116475917Y-74129093D01*
X116475914Y-74129093D01*
X116470774Y-74128648D01*
X116465767Y-74129892D01*
X116465764Y-74129892D01*
X116357076Y-74156890D01*
X116357073Y-74156891D01*
X116352062Y-74158136D01*
X116249303Y-74224487D01*
X116173576Y-74320547D01*
X116171864Y-74325423D01*
X116135697Y-74428411D01*
X116133047Y-74435956D01*
X116133006Y-74441120D01*
X116133006Y-74441122D01*
X116132678Y-74482903D01*
X116132086Y-74558272D01*
X113206562Y-74558272D01*
X113290710Y-74482903D01*
X113350478Y-74376180D01*
X113361380Y-74316488D01*
X113371968Y-74258513D01*
X113371968Y-74258511D01*
X113372454Y-74255851D01*
X113372500Y-74250000D01*
X113367788Y-74221686D01*
X113353265Y-74134436D01*
X113352417Y-74129341D01*
X113294333Y-74021692D01*
X113204511Y-73938662D01*
X113135463Y-73908136D01*
X113097361Y-73891291D01*
X113097359Y-73891290D01*
X113092637Y-73889203D01*
X113087494Y-73888758D01*
X113087492Y-73888757D01*
X112975917Y-73879093D01*
X112975914Y-73879093D01*
X112970774Y-73878648D01*
X112965767Y-73879892D01*
X112965764Y-73879892D01*
X112857076Y-73906890D01*
X112857073Y-73906891D01*
X112852062Y-73908136D01*
X112749303Y-73974487D01*
X112673576Y-74070547D01*
X112633047Y-74185956D01*
X112632086Y-74308272D01*
X99552000Y-74308272D01*
X99552000Y-66058272D01*
X106382086Y-66058272D01*
X106383720Y-66063169D01*
X106383720Y-66063171D01*
X106405796Y-66129341D01*
X106420797Y-66174304D01*
X106423930Y-66178409D01*
X106423931Y-66178411D01*
X106433632Y-66191122D01*
X106495006Y-66271541D01*
X106596711Y-66339498D01*
X106714945Y-66370847D01*
X106743493Y-66368826D01*
X106831807Y-66362573D01*
X106831809Y-66362573D01*
X106836958Y-66362208D01*
X106841710Y-66360196D01*
X106841713Y-66360195D01*
X106944840Y-66316526D01*
X106944842Y-66316524D01*
X106949595Y-66314512D01*
X106956562Y-66308272D01*
X108632086Y-66308272D01*
X108633720Y-66313169D01*
X108633720Y-66313171D01*
X108656245Y-66380686D01*
X108670797Y-66424304D01*
X108745006Y-66521541D01*
X108846711Y-66589498D01*
X108964945Y-66620847D01*
X108993493Y-66618826D01*
X109081807Y-66612573D01*
X109081809Y-66612573D01*
X109086958Y-66612208D01*
X109091710Y-66610196D01*
X109091713Y-66610195D01*
X109194840Y-66566526D01*
X109194842Y-66566524D01*
X109199595Y-66564512D01*
X109290710Y-66482903D01*
X109350478Y-66376180D01*
X109361741Y-66314512D01*
X109371968Y-66258513D01*
X109371968Y-66258511D01*
X109372454Y-66255851D01*
X109372500Y-66250000D01*
X109369655Y-66232903D01*
X109353265Y-66134436D01*
X109352417Y-66129341D01*
X109294333Y-66021692D01*
X109204511Y-65938662D01*
X109135463Y-65908136D01*
X109097361Y-65891291D01*
X109097359Y-65891290D01*
X109092637Y-65889203D01*
X109087494Y-65888758D01*
X109087492Y-65888757D01*
X108975917Y-65879093D01*
X108975914Y-65879093D01*
X108970774Y-65878648D01*
X108965767Y-65879892D01*
X108965764Y-65879892D01*
X108857076Y-65906890D01*
X108857073Y-65906891D01*
X108852062Y-65908136D01*
X108749303Y-65974487D01*
X108673576Y-66070547D01*
X108671864Y-66075423D01*
X108635697Y-66178411D01*
X108633047Y-66185956D01*
X108633006Y-66191120D01*
X108633006Y-66191122D01*
X108632678Y-66232903D01*
X108632086Y-66308272D01*
X106956562Y-66308272D01*
X107040710Y-66232903D01*
X107100478Y-66126180D01*
X107111380Y-66066488D01*
X107121968Y-66008513D01*
X107121968Y-66008511D01*
X107122454Y-66005851D01*
X107122500Y-66000000D01*
X107117788Y-65971686D01*
X107103265Y-65884436D01*
X107102417Y-65879341D01*
X107044333Y-65771692D01*
X106954511Y-65688662D01*
X106885463Y-65658136D01*
X106847361Y-65641291D01*
X106847359Y-65641290D01*
X106842637Y-65639203D01*
X106837494Y-65638758D01*
X106837492Y-65638757D01*
X106725917Y-65629093D01*
X106725914Y-65629093D01*
X106720774Y-65628648D01*
X106715767Y-65629892D01*
X106715764Y-65629892D01*
X106607076Y-65656890D01*
X106607073Y-65656891D01*
X106602062Y-65658136D01*
X106499303Y-65724487D01*
X106423576Y-65820547D01*
X106383047Y-65935956D01*
X106382086Y-66058272D01*
X99552000Y-66058272D01*
X99552000Y-65308272D01*
X110882086Y-65308272D01*
X110883720Y-65313169D01*
X110883720Y-65313171D01*
X110906245Y-65380686D01*
X110920797Y-65424304D01*
X110995006Y-65521541D01*
X111096711Y-65589498D01*
X111214945Y-65620847D01*
X111243493Y-65618826D01*
X111331807Y-65612573D01*
X111331809Y-65612573D01*
X111336958Y-65612208D01*
X111341710Y-65610196D01*
X111341713Y-65610195D01*
X111444840Y-65566526D01*
X111444842Y-65566524D01*
X111449595Y-65564512D01*
X111540710Y-65482903D01*
X111600478Y-65376180D01*
X111601406Y-65371099D01*
X111621968Y-65258513D01*
X111621968Y-65258511D01*
X111622454Y-65255851D01*
X111622500Y-65250000D01*
X111602417Y-65129341D01*
X111544333Y-65021692D01*
X111454511Y-64938662D01*
X111385463Y-64908136D01*
X111347361Y-64891291D01*
X111347359Y-64891290D01*
X111342637Y-64889203D01*
X111337494Y-64888758D01*
X111337492Y-64888757D01*
X111225917Y-64879093D01*
X111225914Y-64879093D01*
X111220774Y-64878648D01*
X111215767Y-64879892D01*
X111215764Y-64879892D01*
X111107076Y-64906890D01*
X111107073Y-64906891D01*
X111102062Y-64908136D01*
X110999303Y-64974487D01*
X110923576Y-65070547D01*
X110883047Y-65185956D01*
X110882086Y-65308272D01*
X99552000Y-65308272D01*
X99552000Y-64308272D01*
X113632086Y-64308272D01*
X113633720Y-64313169D01*
X113633720Y-64313171D01*
X113656245Y-64380686D01*
X113670797Y-64424304D01*
X113745006Y-64521541D01*
X113846711Y-64589498D01*
X113964945Y-64620847D01*
X113993493Y-64618826D01*
X114081807Y-64612573D01*
X114081809Y-64612573D01*
X114086958Y-64612208D01*
X114091710Y-64610196D01*
X114091713Y-64610195D01*
X114194840Y-64566526D01*
X114194842Y-64566524D01*
X114199595Y-64564512D01*
X114290710Y-64482903D01*
X114350478Y-64376180D01*
X114351406Y-64371099D01*
X114371968Y-64258513D01*
X114371968Y-64258511D01*
X114372454Y-64255851D01*
X114372500Y-64250000D01*
X114352417Y-64129341D01*
X114294333Y-64021692D01*
X114204511Y-63938662D01*
X114135463Y-63908136D01*
X114097361Y-63891291D01*
X114097359Y-63891290D01*
X114092637Y-63889203D01*
X114087494Y-63888758D01*
X114087492Y-63888757D01*
X113975917Y-63879093D01*
X113975914Y-63879093D01*
X113970774Y-63878648D01*
X113965767Y-63879892D01*
X113965764Y-63879892D01*
X113857076Y-63906890D01*
X113857073Y-63906891D01*
X113852062Y-63908136D01*
X113749303Y-63974487D01*
X113673576Y-64070547D01*
X113633047Y-64185956D01*
X113632086Y-64308272D01*
X99552000Y-64308272D01*
X99552000Y-62558272D01*
X106432086Y-62558272D01*
X106433720Y-62563169D01*
X106433720Y-62563171D01*
X106456245Y-62630686D01*
X106470797Y-62674304D01*
X106473930Y-62678409D01*
X106473931Y-62678411D01*
X106489195Y-62698411D01*
X106545006Y-62771541D01*
X106609317Y-62814512D01*
X106634092Y-62831066D01*
X106646711Y-62839498D01*
X106764945Y-62870847D01*
X106793493Y-62868826D01*
X106881807Y-62862573D01*
X106881809Y-62862573D01*
X106886958Y-62862208D01*
X106891710Y-62860196D01*
X106891713Y-62860195D01*
X106994840Y-62816526D01*
X106994842Y-62816524D01*
X106999595Y-62814512D01*
X107090710Y-62732903D01*
X107150478Y-62626180D01*
X107160171Y-62573106D01*
X107162880Y-62558272D01*
X112632086Y-62558272D01*
X112633720Y-62563169D01*
X112633720Y-62563171D01*
X112656245Y-62630686D01*
X112670797Y-62674304D01*
X112673930Y-62678409D01*
X112673931Y-62678411D01*
X112689195Y-62698411D01*
X112745006Y-62771541D01*
X112809317Y-62814512D01*
X112834092Y-62831066D01*
X112846711Y-62839498D01*
X112964945Y-62870847D01*
X112993493Y-62868826D01*
X113081807Y-62862573D01*
X113081809Y-62862573D01*
X113086958Y-62862208D01*
X113091710Y-62860196D01*
X113091713Y-62860195D01*
X113194840Y-62816526D01*
X113194842Y-62816524D01*
X113199595Y-62814512D01*
X113290710Y-62732903D01*
X113350478Y-62626180D01*
X113359228Y-62578272D01*
X114932086Y-62578272D01*
X114933720Y-62583169D01*
X114933720Y-62583171D01*
X114969162Y-62689404D01*
X114970797Y-62694304D01*
X114973930Y-62698409D01*
X114973931Y-62698411D01*
X115007902Y-62742923D01*
X115045006Y-62791541D01*
X115146711Y-62859498D01*
X115264945Y-62890847D01*
X115293493Y-62888826D01*
X115381807Y-62882573D01*
X115381809Y-62882573D01*
X115386958Y-62882208D01*
X115391710Y-62880196D01*
X115391713Y-62880195D01*
X115494840Y-62836526D01*
X115494842Y-62836524D01*
X115499595Y-62834512D01*
X115590710Y-62752903D01*
X115650478Y-62646180D01*
X115655059Y-62621099D01*
X115671968Y-62528513D01*
X115671968Y-62528511D01*
X115672454Y-62525851D01*
X115672500Y-62520000D01*
X115669695Y-62503144D01*
X115653265Y-62404436D01*
X115652417Y-62399341D01*
X115594333Y-62291692D01*
X115504511Y-62208662D01*
X115435463Y-62178136D01*
X115397361Y-62161291D01*
X115397359Y-62161290D01*
X115392637Y-62159203D01*
X115387494Y-62158758D01*
X115387492Y-62158757D01*
X115275917Y-62149093D01*
X115275914Y-62149093D01*
X115270774Y-62148648D01*
X115265767Y-62149892D01*
X115265764Y-62149892D01*
X115157076Y-62176890D01*
X115157073Y-62176891D01*
X115152062Y-62178136D01*
X115049303Y-62244487D01*
X114973576Y-62340547D01*
X114958163Y-62384436D01*
X114940071Y-62435956D01*
X114933047Y-62455956D01*
X114932086Y-62578272D01*
X113359228Y-62578272D01*
X113360171Y-62573106D01*
X113371968Y-62508513D01*
X113371968Y-62508511D01*
X113372454Y-62505851D01*
X113372500Y-62500000D01*
X113352417Y-62379341D01*
X113294333Y-62271692D01*
X113204511Y-62188662D01*
X113137876Y-62159203D01*
X113097361Y-62141291D01*
X113097359Y-62141290D01*
X113092637Y-62139203D01*
X113087494Y-62138758D01*
X113087492Y-62138757D01*
X112975917Y-62129093D01*
X112975914Y-62129093D01*
X112970774Y-62128648D01*
X112965767Y-62129892D01*
X112965764Y-62129892D01*
X112857076Y-62156890D01*
X112857073Y-62156891D01*
X112852062Y-62158136D01*
X112749303Y-62224487D01*
X112673576Y-62320547D01*
X112633047Y-62435956D01*
X112632086Y-62558272D01*
X107162880Y-62558272D01*
X107171968Y-62508513D01*
X107171968Y-62508511D01*
X107172454Y-62505851D01*
X107172500Y-62500000D01*
X107152417Y-62379341D01*
X107094333Y-62271692D01*
X107004511Y-62188662D01*
X106937876Y-62159203D01*
X106897361Y-62141291D01*
X106897359Y-62141290D01*
X106892637Y-62139203D01*
X106887494Y-62138758D01*
X106887492Y-62138757D01*
X106775917Y-62129093D01*
X106775914Y-62129093D01*
X106770774Y-62128648D01*
X106765767Y-62129892D01*
X106765764Y-62129892D01*
X106657076Y-62156890D01*
X106657073Y-62156891D01*
X106652062Y-62158136D01*
X106549303Y-62224487D01*
X106473576Y-62320547D01*
X106433047Y-62435956D01*
X106432086Y-62558272D01*
X99552000Y-62558272D01*
X99552000Y-59358272D01*
X122832086Y-59358272D01*
X122833720Y-59363169D01*
X122833720Y-59363171D01*
X122856245Y-59430686D01*
X122870797Y-59474304D01*
X122945006Y-59571541D01*
X123046711Y-59639498D01*
X123164945Y-59670847D01*
X123193493Y-59668826D01*
X123281807Y-59662573D01*
X123281809Y-59662573D01*
X123286958Y-59662208D01*
X123291710Y-59660196D01*
X123291713Y-59660195D01*
X123394840Y-59616526D01*
X123394842Y-59616524D01*
X123399595Y-59614512D01*
X123490710Y-59532903D01*
X123550478Y-59426180D01*
X123551406Y-59421099D01*
X123571968Y-59308513D01*
X123571968Y-59308511D01*
X123572454Y-59305851D01*
X123572500Y-59300000D01*
X123552417Y-59179341D01*
X123494333Y-59071692D01*
X123404511Y-58988662D01*
X123335463Y-58958136D01*
X123297361Y-58941291D01*
X123297359Y-58941290D01*
X123292637Y-58939203D01*
X123287494Y-58938758D01*
X123287492Y-58938757D01*
X123175917Y-58929093D01*
X123175914Y-58929093D01*
X123170774Y-58928648D01*
X123165767Y-58929892D01*
X123165764Y-58929892D01*
X123057076Y-58956890D01*
X123057073Y-58956891D01*
X123052062Y-58958136D01*
X122949303Y-59024487D01*
X122873576Y-59120547D01*
X122833047Y-59235956D01*
X122832086Y-59358272D01*
X99552000Y-59358272D01*
X99552000Y-58308272D01*
X107882086Y-58308272D01*
X107883720Y-58313169D01*
X107883720Y-58313171D01*
X107906245Y-58380686D01*
X107920797Y-58424304D01*
X107995006Y-58521541D01*
X108096711Y-58589498D01*
X108214945Y-58620847D01*
X108243493Y-58618826D01*
X108331807Y-58612573D01*
X108331809Y-58612573D01*
X108336958Y-58612208D01*
X108341710Y-58610196D01*
X108341713Y-58610195D01*
X108444840Y-58566526D01*
X108444842Y-58566524D01*
X108449595Y-58564512D01*
X108540710Y-58482903D01*
X108600478Y-58376180D01*
X108601406Y-58371099D01*
X108612880Y-58308272D01*
X115382086Y-58308272D01*
X115383720Y-58313169D01*
X115383720Y-58313171D01*
X115406245Y-58380686D01*
X115420797Y-58424304D01*
X115495006Y-58521541D01*
X115596711Y-58589498D01*
X115714945Y-58620847D01*
X115743493Y-58618826D01*
X115831807Y-58612573D01*
X115831809Y-58612573D01*
X115836958Y-58612208D01*
X115841710Y-58610196D01*
X115841713Y-58610195D01*
X115944840Y-58566526D01*
X115944842Y-58566524D01*
X115949595Y-58564512D01*
X116040710Y-58482903D01*
X116100478Y-58376180D01*
X116101406Y-58371099D01*
X116121968Y-58258513D01*
X116121968Y-58258511D01*
X116122454Y-58255851D01*
X116122500Y-58250000D01*
X116102417Y-58129341D01*
X116044333Y-58021692D01*
X115954511Y-57938662D01*
X115885463Y-57908136D01*
X115847361Y-57891291D01*
X115847359Y-57891290D01*
X115842637Y-57889203D01*
X115837494Y-57888758D01*
X115837492Y-57888757D01*
X115725917Y-57879093D01*
X115725914Y-57879093D01*
X115720774Y-57878648D01*
X115715767Y-57879892D01*
X115715764Y-57879892D01*
X115607076Y-57906890D01*
X115607073Y-57906891D01*
X115602062Y-57908136D01*
X115499303Y-57974487D01*
X115423576Y-58070547D01*
X115383047Y-58185956D01*
X115382086Y-58308272D01*
X108612880Y-58308272D01*
X108621968Y-58258513D01*
X108621968Y-58258511D01*
X108622454Y-58255851D01*
X108622500Y-58250000D01*
X108602417Y-58129341D01*
X108544333Y-58021692D01*
X108454511Y-57938662D01*
X108385463Y-57908136D01*
X108347361Y-57891291D01*
X108347359Y-57891290D01*
X108342637Y-57889203D01*
X108337494Y-57888758D01*
X108337492Y-57888757D01*
X108225917Y-57879093D01*
X108225914Y-57879093D01*
X108220774Y-57878648D01*
X108215767Y-57879892D01*
X108215764Y-57879892D01*
X108107076Y-57906890D01*
X108107073Y-57906891D01*
X108102062Y-57908136D01*
X107999303Y-57974487D01*
X107923576Y-58070547D01*
X107883047Y-58185956D01*
X107882086Y-58308272D01*
X99552000Y-58308272D01*
X99552000Y-56808272D01*
X114132086Y-56808272D01*
X114133720Y-56813169D01*
X114133720Y-56813171D01*
X114156245Y-56880686D01*
X114170797Y-56924304D01*
X114245006Y-57021541D01*
X114346711Y-57089498D01*
X114464945Y-57120847D01*
X114493493Y-57118826D01*
X114581807Y-57112573D01*
X114581809Y-57112573D01*
X114586958Y-57112208D01*
X114591710Y-57110196D01*
X114591713Y-57110195D01*
X114694840Y-57066526D01*
X114694842Y-57066524D01*
X114699595Y-57064512D01*
X114790710Y-56982903D01*
X114850478Y-56876180D01*
X114851406Y-56871099D01*
X114871968Y-56758513D01*
X114871968Y-56758511D01*
X114872454Y-56755851D01*
X114872500Y-56750000D01*
X114852417Y-56629341D01*
X114794333Y-56521692D01*
X114704511Y-56438662D01*
X114635463Y-56408136D01*
X114597361Y-56391291D01*
X114597359Y-56391290D01*
X114592637Y-56389203D01*
X114587494Y-56388758D01*
X114587492Y-56388757D01*
X114475917Y-56379093D01*
X114475914Y-56379093D01*
X114470774Y-56378648D01*
X114465767Y-56379892D01*
X114465764Y-56379892D01*
X114357076Y-56406890D01*
X114357073Y-56406891D01*
X114352062Y-56408136D01*
X114249303Y-56474487D01*
X114173576Y-56570547D01*
X114133047Y-56685956D01*
X114132086Y-56808272D01*
X99552000Y-56808272D01*
X99552000Y-51272853D01*
X100817537Y-51272853D01*
X100835532Y-51435849D01*
X100836826Y-51439386D01*
X100836827Y-51439389D01*
X100874899Y-51543425D01*
X100891888Y-51589849D01*
X100983351Y-51725960D01*
X101104641Y-51836325D01*
X101248755Y-51914572D01*
X101252397Y-51915528D01*
X101252401Y-51915529D01*
X101403726Y-51955228D01*
X101407374Y-51956185D01*
X101494736Y-51957557D01*
X101567572Y-51958702D01*
X101567574Y-51958702D01*
X101571341Y-51958761D01*
X101731189Y-51922151D01*
X101734553Y-51920459D01*
X101734556Y-51920458D01*
X101803948Y-51885557D01*
X101877690Y-51848469D01*
X101880555Y-51846022D01*
X101880558Y-51846020D01*
X101999524Y-51744413D01*
X101999527Y-51744410D01*
X102002386Y-51741968D01*
X102004581Y-51738913D01*
X102004584Y-51738910D01*
X102095879Y-51611859D01*
X102095880Y-51611857D01*
X102098079Y-51608797D01*
X102122684Y-51547589D01*
X102157840Y-51460138D01*
X102157841Y-51460134D01*
X102159244Y-51456644D01*
X102182350Y-51294293D01*
X102182500Y-51280000D01*
X102182255Y-51277979D01*
X102182255Y-51277971D01*
X102181636Y-51272853D01*
X103357537Y-51272853D01*
X103375532Y-51435849D01*
X103376826Y-51439386D01*
X103376827Y-51439389D01*
X103414899Y-51543425D01*
X103431888Y-51589849D01*
X103523351Y-51725960D01*
X103644641Y-51836325D01*
X103788755Y-51914572D01*
X103792397Y-51915528D01*
X103792401Y-51915529D01*
X103943726Y-51955228D01*
X103947374Y-51956185D01*
X104034736Y-51957557D01*
X104107572Y-51958702D01*
X104107574Y-51958702D01*
X104111341Y-51958761D01*
X104271189Y-51922151D01*
X104274553Y-51920459D01*
X104274556Y-51920458D01*
X104343948Y-51885557D01*
X104417690Y-51848469D01*
X104420555Y-51846022D01*
X104420558Y-51846020D01*
X104539524Y-51744413D01*
X104539527Y-51744410D01*
X104542386Y-51741968D01*
X104544581Y-51738913D01*
X104544584Y-51738910D01*
X104635879Y-51611859D01*
X104635880Y-51611857D01*
X104638079Y-51608797D01*
X104662684Y-51547589D01*
X104697840Y-51460138D01*
X104697841Y-51460134D01*
X104699244Y-51456644D01*
X104722350Y-51294293D01*
X104722500Y-51280000D01*
X104722255Y-51277979D01*
X104722255Y-51277971D01*
X104703252Y-51120946D01*
X104702799Y-51117201D01*
X104698854Y-51106759D01*
X104646166Y-50967325D01*
X104644834Y-50963800D01*
X104551951Y-50828655D01*
X104429512Y-50719566D01*
X104284586Y-50642831D01*
X104125540Y-50602882D01*
X104121775Y-50602862D01*
X104121773Y-50602862D01*
X104040360Y-50602436D01*
X103961555Y-50602023D01*
X103957891Y-50602903D01*
X103957888Y-50602903D01*
X103885654Y-50620245D01*
X103802100Y-50640305D01*
X103798758Y-50642030D01*
X103798755Y-50642031D01*
X103729239Y-50677912D01*
X103656378Y-50715518D01*
X103532804Y-50823318D01*
X103438510Y-50957484D01*
X103378942Y-51110269D01*
X103357537Y-51272853D01*
X102181636Y-51272853D01*
X102163252Y-51120946D01*
X102162799Y-51117201D01*
X102158854Y-51106759D01*
X102106166Y-50967325D01*
X102104834Y-50963800D01*
X102011951Y-50828655D01*
X101889512Y-50719566D01*
X101744586Y-50642831D01*
X101585540Y-50602882D01*
X101581775Y-50602862D01*
X101581773Y-50602862D01*
X101500360Y-50602436D01*
X101421555Y-50602023D01*
X101417891Y-50602903D01*
X101417888Y-50602903D01*
X101345654Y-50620245D01*
X101262100Y-50640305D01*
X101258758Y-50642030D01*
X101258755Y-50642031D01*
X101189239Y-50677912D01*
X101116378Y-50715518D01*
X100992804Y-50823318D01*
X100898510Y-50957484D01*
X100838942Y-51110269D01*
X100817537Y-51272853D01*
X99552000Y-51272853D01*
X99552000Y-48817389D01*
X102809932Y-48817389D01*
X102810353Y-48820138D01*
X102810353Y-48820143D01*
X102841157Y-49021442D01*
X102843077Y-49033992D01*
X102843977Y-49036620D01*
X102843978Y-49036625D01*
X102913151Y-49238663D01*
X102914055Y-49241303D01*
X102971521Y-49344549D01*
X103019271Y-49430340D01*
X103019274Y-49430345D01*
X103020623Y-49432768D01*
X103159412Y-49602335D01*
X103326036Y-49744645D01*
X103515227Y-49855199D01*
X103517846Y-49856157D01*
X103517845Y-49856157D01*
X103713087Y-49927606D01*
X103721006Y-49930504D01*
X103936867Y-49968177D01*
X104040506Y-49967634D01*
X104153208Y-49967045D01*
X104153213Y-49967045D01*
X104155988Y-49967030D01*
X104371444Y-49927098D01*
X104424736Y-49906960D01*
X104573819Y-49850627D01*
X104573823Y-49850625D01*
X104576422Y-49849643D01*
X104764445Y-49737113D01*
X104929569Y-49593066D01*
X105066575Y-49422055D01*
X105171133Y-49229485D01*
X105239936Y-49021442D01*
X105270811Y-48804504D01*
X105272500Y-48740000D01*
X105253021Y-48521743D01*
X105230801Y-48440521D01*
X105195935Y-48313070D01*
X105195933Y-48313065D01*
X105195200Y-48310385D01*
X105100865Y-48112606D01*
X104972996Y-47934659D01*
X104815637Y-47782168D01*
X104633761Y-47659952D01*
X104433117Y-47571875D01*
X104430415Y-47571226D01*
X104430411Y-47571225D01*
X104222759Y-47521373D01*
X104222758Y-47521373D01*
X104220047Y-47520722D01*
X104217267Y-47520562D01*
X104217262Y-47520561D01*
X104004067Y-47508268D01*
X104004063Y-47508268D01*
X104001286Y-47508108D01*
X103783749Y-47534433D01*
X103781085Y-47535253D01*
X103781083Y-47535253D01*
X103710290Y-47557032D01*
X103574311Y-47598865D01*
X103571842Y-47600139D01*
X103571838Y-47600141D01*
X103476952Y-47649116D01*
X103379593Y-47699366D01*
X103205750Y-47832760D01*
X103058277Y-47994832D01*
X102941834Y-48180457D01*
X102940800Y-48183029D01*
X102940799Y-48183031D01*
X102889604Y-48310385D01*
X102860104Y-48383768D01*
X102815668Y-48598340D01*
X102815595Y-48601114D01*
X102815595Y-48601117D01*
X102811912Y-48741790D01*
X102809932Y-48817389D01*
X99552000Y-48817389D01*
X99552000Y-46358272D01*
X123132086Y-46358272D01*
X123133720Y-46363169D01*
X123133720Y-46363171D01*
X123156245Y-46430686D01*
X123170797Y-46474304D01*
X123245006Y-46571541D01*
X123346711Y-46639498D01*
X123464945Y-46670847D01*
X123493493Y-46668826D01*
X123581807Y-46662573D01*
X123581809Y-46662573D01*
X123586958Y-46662208D01*
X123591710Y-46660196D01*
X123591713Y-46660195D01*
X123694840Y-46616526D01*
X123694842Y-46616524D01*
X123699595Y-46614512D01*
X123790710Y-46532903D01*
X123850478Y-46426180D01*
X123851406Y-46421099D01*
X123871968Y-46308513D01*
X123871968Y-46308511D01*
X123872454Y-46305851D01*
X123872500Y-46300000D01*
X123852417Y-46179341D01*
X123794333Y-46071692D01*
X123704511Y-45988662D01*
X123635463Y-45958136D01*
X123597361Y-45941291D01*
X123597359Y-45941290D01*
X123592637Y-45939203D01*
X123587494Y-45938758D01*
X123587492Y-45938757D01*
X123475917Y-45929093D01*
X123475914Y-45929093D01*
X123470774Y-45928648D01*
X123465767Y-45929892D01*
X123465764Y-45929892D01*
X123357076Y-45956890D01*
X123357073Y-45956891D01*
X123352062Y-45958136D01*
X123249303Y-46024487D01*
X123173576Y-46120547D01*
X123133047Y-46235956D01*
X123132086Y-46358272D01*
X99552000Y-46358272D01*
X99552000Y-45958716D01*
X99555167Y-45942352D01*
X99555400Y-45942009D01*
X99556147Y-45937597D01*
X99557039Y-45899949D01*
X99558383Y-45843204D01*
X99558666Y-45838559D01*
X99562362Y-45801025D01*
X99563262Y-45794957D01*
X99588658Y-45667285D01*
X99590148Y-45661336D01*
X99598253Y-45634616D01*
X99600320Y-45628840D01*
X99616270Y-45590333D01*
X99650132Y-45508584D01*
X99652745Y-45503059D01*
X99665907Y-45478435D01*
X99669056Y-45473181D01*
X99741376Y-45364946D01*
X99745029Y-45360021D01*
X99762740Y-45338439D01*
X99766860Y-45333893D01*
X99858900Y-45241853D01*
X99863432Y-45237745D01*
X99885023Y-45220026D01*
X99889936Y-45216382D01*
X99898891Y-45210399D01*
X99983426Y-45153915D01*
X99998183Y-45144055D01*
X100003438Y-45140905D01*
X100028047Y-45127751D01*
X100033584Y-45125133D01*
X100153848Y-45075318D01*
X100159622Y-45073252D01*
X100186329Y-45065150D01*
X100192280Y-45063659D01*
X100319958Y-45038262D01*
X100326026Y-45037362D01*
X100363569Y-45033665D01*
X100368214Y-45033382D01*
X100440697Y-45031665D01*
X100440698Y-45031665D01*
X100445164Y-45031559D01*
X100450172Y-45029960D01*
X100469177Y-45027000D01*
X126441284Y-45027000D01*
X126457648Y-45030167D01*
G37*
%TD.AperFunction*%
M02*
