%TF.GenerationSoftware,KiCad,Pcbnew,5.99.0-unknown-b691c18bfc~117~ubuntu20.10.1*%
%TF.CreationDate,2021-03-21T19:03:17-07:00*%
%TF.ProjectId,xx1000-qt,78783130-3030-42d7-9174-2e6b69636164,rev?*%
%TF.SameCoordinates,Original*%
%TF.FileFunction,Copper,L1,Top*%
%TF.FilePolarity,Positive*%
%FSLAX46Y46*%
G04 Gerber Fmt 4.6, Leading zero omitted, Abs format (unit mm)*
G04 Created by KiCad (PCBNEW 5.99.0-unknown-b691c18bfc~117~ubuntu20.10.1) date 2021-03-21 19:03:17*
%MOMM*%
%LPD*%
G01*
G04 APERTURE LIST*
G04 Aperture macros list*
%AMRoundRect*
0 Rectangle with rounded corners*
0 $1 Rounding radius*
0 $2 $3 $4 $5 $6 $7 $8 $9 X,Y pos of 4 corners*
0 Add a 4 corners polygon primitive as box body*
4,1,4,$2,$3,$4,$5,$6,$7,$8,$9,$2,$3,0*
0 Add four circle primitives for the rounded corners*
1,1,$1+$1,$2,$3*
1,1,$1+$1,$4,$5*
1,1,$1+$1,$6,$7*
1,1,$1+$1,$8,$9*
0 Add four rect primitives between the rounded corners*
20,1,$1+$1,$2,$3,$4,$5,0*
20,1,$1+$1,$4,$5,$6,$7,0*
20,1,$1+$1,$6,$7,$8,$9,0*
20,1,$1+$1,$8,$9,$2,$3,0*%
%AMOutline4P*
0 Free polygon, 4 corners , with rotation*
0 The origin of the aperture is its center*
0 number of corners: always 4*
0 $1 to $8 corner X, Y*
0 $9 Rotation angle, in degrees counterclockwise*
0 create outline with 4 corners*
4,1,4,$1,$2,$3,$4,$5,$6,$7,$8,$1,$2,$9*%
G04 Aperture macros list end*
%TA.AperFunction,SMDPad,CuDef*%
%ADD10R,0.600000X6.000000*%
%TD*%
%TA.AperFunction,SMDPad,CuDef*%
%ADD11R,4.500000X3.250000*%
%TD*%
%TA.AperFunction,ComponentPad*%
%ADD12C,0.500000*%
%TD*%
%TA.AperFunction,ComponentPad*%
%ADD13C,3.000000*%
%TD*%
%TA.AperFunction,SMDPad,CuDef*%
%ADD14Outline4P,-2.800000X-0.100000X2.800000X-0.100000X3.000000X0.100000X-3.000000X0.100000X90.000000*%
%TD*%
%TA.AperFunction,SMDPad,CuDef*%
%ADD15R,4.080000X0.410000*%
%TD*%
%TA.AperFunction,SMDPad,CuDef*%
%ADD16Outline4P,-0.205000X-0.475000X0.205000X-0.475000X0.095000X0.475000X-0.095000X0.475000X90.000000*%
%TD*%
%TA.AperFunction,SMDPad,CuDef*%
%ADD17RoundRect,0.135000X0.135000X0.185000X-0.135000X0.185000X-0.135000X-0.185000X0.135000X-0.185000X0*%
%TD*%
%TA.AperFunction,SMDPad,CuDef*%
%ADD18RoundRect,0.135000X-0.135000X-0.185000X0.135000X-0.185000X0.135000X0.185000X-0.135000X0.185000X0*%
%TD*%
%TA.AperFunction,SMDPad,CuDef*%
%ADD19RoundRect,0.135000X0.185000X-0.135000X0.185000X0.135000X-0.185000X0.135000X-0.185000X-0.135000X0*%
%TD*%
%TA.AperFunction,SMDPad,CuDef*%
%ADD20RoundRect,0.135000X-0.185000X0.135000X-0.185000X-0.135000X0.185000X-0.135000X0.185000X0.135000X0*%
%TD*%
%TA.AperFunction,SMDPad,CuDef*%
%ADD21RoundRect,0.140000X0.170000X-0.140000X0.170000X0.140000X-0.170000X0.140000X-0.170000X-0.140000X0*%
%TD*%
%TA.AperFunction,SMDPad,CuDef*%
%ADD22R,0.450000X0.700000*%
%TD*%
%TA.AperFunction,SMDPad,CuDef*%
%ADD23RoundRect,0.140000X0.140000X0.170000X-0.140000X0.170000X-0.140000X-0.170000X0.140000X-0.170000X0*%
%TD*%
%TA.AperFunction,SMDPad,CuDef*%
%ADD24RoundRect,0.140000X-0.140000X-0.170000X0.140000X-0.170000X0.140000X0.170000X-0.140000X0.170000X0*%
%TD*%
%TA.AperFunction,SMDPad,CuDef*%
%ADD25RoundRect,0.225000X-0.250000X0.225000X-0.250000X-0.225000X0.250000X-0.225000X0.250000X0.225000X0*%
%TD*%
%TA.AperFunction,SMDPad,CuDef*%
%ADD26RoundRect,0.225000X0.225000X0.250000X-0.225000X0.250000X-0.225000X-0.250000X0.225000X-0.250000X0*%
%TD*%
%TA.AperFunction,SMDPad,CuDef*%
%ADD27Outline4P,-2.800000X-0.100000X2.800000X-0.100000X3.000000X0.100000X-3.000000X0.100000X270.000000*%
%TD*%
%TA.AperFunction,SMDPad,CuDef*%
%ADD28Outline4P,-0.205000X-0.475000X0.205000X-0.475000X0.095000X0.475000X-0.095000X0.475000X270.000000*%
%TD*%
%TA.AperFunction,SMDPad,CuDef*%
%ADD29R,3.400000X1.800000*%
%TD*%
%TA.AperFunction,SMDPad,CuDef*%
%ADD30R,1.450000X1.450000*%
%TD*%
%TA.AperFunction,SMDPad,CuDef*%
%ADD31RoundRect,0.062500X-0.062500X-0.375000X0.062500X-0.375000X0.062500X0.375000X-0.062500X0.375000X0*%
%TD*%
%TA.AperFunction,SMDPad,CuDef*%
%ADD32RoundRect,0.062500X-0.375000X-0.062500X0.375000X-0.062500X0.375000X0.062500X-0.375000X0.062500X0*%
%TD*%
%TA.AperFunction,SMDPad,CuDef*%
%ADD33RoundRect,0.225000X0.250000X-0.225000X0.250000X0.225000X-0.250000X0.225000X-0.250000X-0.225000X0*%
%TD*%
%TA.AperFunction,SMDPad,CuDef*%
%ADD34RoundRect,0.200000X-0.275000X0.200000X-0.275000X-0.200000X0.275000X-0.200000X0.275000X0.200000X0*%
%TD*%
%TA.AperFunction,SMDPad,CuDef*%
%ADD35RoundRect,0.150000X0.587500X0.150000X-0.587500X0.150000X-0.587500X-0.150000X0.587500X-0.150000X0*%
%TD*%
%TA.AperFunction,SMDPad,CuDef*%
%ADD36RoundRect,0.140000X-0.170000X0.140000X-0.170000X-0.140000X0.170000X-0.140000X0.170000X0.140000X0*%
%TD*%
%TA.AperFunction,SMDPad,CuDef*%
%ADD37R,0.600000X0.700000*%
%TD*%
%TA.AperFunction,SMDPad,CuDef*%
%ADD38R,0.400000X0.650000*%
%TD*%
%TA.AperFunction,SMDPad,CuDef*%
%ADD39RoundRect,0.225000X-0.225000X-0.250000X0.225000X-0.250000X0.225000X0.250000X-0.225000X0.250000X0*%
%TD*%
%TA.AperFunction,SMDPad,CuDef*%
%ADD40R,0.700000X0.600000*%
%TD*%
%TA.AperFunction,SMDPad,CuDef*%
%ADD41RoundRect,0.150000X-0.150000X0.587500X-0.150000X-0.587500X0.150000X-0.587500X0.150000X0.587500X0*%
%TD*%
%TA.AperFunction,ComponentPad*%
%ADD42C,2.200000*%
%TD*%
%TA.AperFunction,ComponentPad*%
%ADD43R,2.200000X2.200000*%
%TD*%
%TA.AperFunction,SMDPad,CuDef*%
%ADD44R,0.250000X0.500000*%
%TD*%
%TA.AperFunction,SMDPad,CuDef*%
%ADD45R,1.600000X0.900000*%
%TD*%
%TA.AperFunction,SMDPad,CuDef*%
%ADD46R,1.660000X2.380000*%
%TD*%
%TA.AperFunction,SMDPad,CuDef*%
%ADD47R,0.700000X0.250000*%
%TD*%
%TA.AperFunction,ViaPad*%
%ADD48C,0.480000*%
%TD*%
%TA.AperFunction,ViaPad*%
%ADD49C,0.800000*%
%TD*%
%TA.AperFunction,Conductor*%
%ADD50C,0.500000*%
%TD*%
%TA.AperFunction,Conductor*%
%ADD51C,0.250000*%
%TD*%
%TA.AperFunction,Conductor*%
%ADD52C,0.390000*%
%TD*%
G04 APERTURE END LIST*
D10*
%TO.P,J4,2,Ext*%
%TO.N,GND*%
X99735000Y-65725000D03*
D11*
X102285000Y-73900000D03*
D12*
X99835000Y-65125000D03*
X99835000Y-68125000D03*
D13*
X102225000Y-73800000D03*
D14*
X100135000Y-72525000D03*
D12*
X99835000Y-67125000D03*
X99835000Y-71925000D03*
X99835000Y-72925000D03*
X99835000Y-73925000D03*
D13*
X102225000Y-64450000D03*
D10*
X99735000Y-72525000D03*
D12*
X99835000Y-63125000D03*
X99835000Y-66125000D03*
D11*
X102285000Y-64350000D03*
D12*
X99835000Y-74925000D03*
X99835000Y-69925000D03*
X99835000Y-64125000D03*
D14*
X100135000Y-65725000D03*
D12*
X99835000Y-70925000D03*
D15*
%TO.P,J4,1,In*%
%TO.N,Net-(J4-Pad1)*%
X102475000Y-69125000D03*
D16*
X99985000Y-69125000D03*
%TD*%
D17*
%TO.P,R10,2*%
%TO.N,Net-(R10-Pad2)*%
X120740000Y-49250000D03*
%TO.P,R10,1*%
%TO.N,GND*%
X121760000Y-49250000D03*
%TD*%
D18*
%TO.P,R7,2*%
%TO.N,+5V*%
X121010000Y-53740000D03*
%TO.P,R7,1*%
%TO.N,Net-(C6-Pad1)*%
X119990000Y-53740000D03*
%TD*%
D17*
%TO.P,R19,2*%
%TO.N,/Vg2*%
X114740000Y-74500000D03*
%TO.P,R19,1*%
%TO.N,Net-(D5-Pad2)*%
X115760000Y-74500000D03*
%TD*%
D19*
%TO.P,R11,2*%
%TO.N,GND*%
X111000000Y-71490000D03*
%TO.P,R11,1*%
%TO.N,Net-(C10-Pad1)*%
X111000000Y-72510000D03*
%TD*%
D20*
%TO.P,R14,2*%
%TO.N,Net-(D5-Pad2)*%
X112250000Y-62510000D03*
%TO.P,R14,1*%
%TO.N,-5V*%
X112250000Y-61490000D03*
%TD*%
%TO.P,R3,2*%
%TO.N,GND*%
X115500000Y-54000000D03*
%TO.P,R3,1*%
%TO.N,Net-(R2-Pad2)*%
X115500000Y-52980000D03*
%TD*%
D21*
%TO.P,C14,2*%
%TO.N,GND*%
X114000000Y-62790000D03*
%TO.P,C14,1*%
%TO.N,/mmic_bias_a1/Vp*%
X114000000Y-63750000D03*
%TD*%
D22*
%TO.P,Q2,3,C*%
%TO.N,Net-(Q2-Pad3)*%
X125750000Y-51240000D03*
%TO.P,Q2,2,E*%
%TO.N,Net-(D1-Pad1)*%
X125100000Y-49240000D03*
%TO.P,Q2,1,B*%
%TO.N,Net-(Q2-Pad1)*%
X126400000Y-49240000D03*
%TD*%
D19*
%TO.P,R16,2*%
%TO.N,Net-(R16-Pad2)*%
X111250000Y-61490000D03*
%TO.P,R16,1*%
%TO.N,Net-(D5-Pad2)*%
X111250000Y-62510000D03*
%TD*%
%TO.P,R13,2*%
%TO.N,/Vg2*%
X112750000Y-75240000D03*
%TO.P,R13,1*%
%TO.N,GND*%
X112750000Y-76260000D03*
%TD*%
D21*
%TO.P,C10,2*%
%TO.N,GND*%
X110000000Y-71500000D03*
%TO.P,C10,1*%
%TO.N,Net-(C10-Pad1)*%
X110000000Y-72460000D03*
%TD*%
D23*
%TO.P,C13,2*%
%TO.N,GND*%
X112770000Y-66000000D03*
%TO.P,C13,1*%
%TO.N,/mmic_bias_a1/Vp*%
X113730000Y-66000000D03*
%TD*%
D24*
%TO.P,C3,2*%
%TO.N,Net-(C3-Pad2)*%
X110980000Y-52490000D03*
%TO.P,C3,1*%
%TO.N,Net-(C3-Pad1)*%
X110020000Y-52490000D03*
%TD*%
%TO.P,C11,2*%
%TO.N,GND*%
X113480000Y-72500000D03*
%TO.P,C11,1*%
%TO.N,-5V*%
X112520000Y-72500000D03*
%TD*%
%TO.P,C25,2*%
%TO.N,GND*%
X110240000Y-60000000D03*
%TO.P,C25,1*%
%TO.N,-5V*%
X109280000Y-60000000D03*
%TD*%
%TO.P,C19,2*%
%TO.N,GND*%
X115730000Y-65000000D03*
%TO.P,C19,1*%
%TO.N,/mmic_bias_a1/Vd*%
X114770000Y-65000000D03*
%TD*%
D21*
%TO.P,C9,2*%
%TO.N,GND*%
X109000000Y-71520000D03*
%TO.P,C9,1*%
%TO.N,Net-(C10-Pad1)*%
X109000000Y-72480000D03*
%TD*%
D25*
%TO.P,C2,2*%
%TO.N,GND*%
X113000000Y-50515000D03*
%TO.P,C2,1*%
%TO.N,Net-(C1-Pad1)*%
X113000000Y-48965000D03*
%TD*%
D26*
%TO.P,C4,2*%
%TO.N,GND*%
X110225000Y-57240000D03*
%TO.P,C4,1*%
%TO.N,Net-(C4-Pad1)*%
X111775000Y-57240000D03*
%TD*%
D10*
%TO.P,J3,2,Ext*%
%TO.N,GND*%
X127180000Y-72530000D03*
D11*
X124630000Y-64355000D03*
D12*
X127080000Y-73130000D03*
X127080000Y-70130000D03*
D13*
X124690000Y-64455000D03*
D27*
X126780000Y-65730000D03*
D12*
X127080000Y-71130000D03*
X127080000Y-66330000D03*
X127080000Y-65330000D03*
X127080000Y-64330000D03*
D13*
X124690000Y-73805000D03*
D10*
X127180000Y-65730000D03*
D12*
X127080000Y-75130000D03*
X127080000Y-72130000D03*
D11*
X124630000Y-73905000D03*
D12*
X127080000Y-63330000D03*
X127080000Y-68330000D03*
X127080000Y-74130000D03*
D27*
X126780000Y-72530000D03*
D12*
X127080000Y-67330000D03*
D15*
%TO.P,J3,1,In*%
%TO.N,Net-(J3-Pad1)*%
X124440000Y-69130000D03*
D28*
X126930000Y-69130000D03*
%TD*%
D24*
%TO.P,C18,2*%
%TO.N,GND*%
X115730000Y-66000000D03*
%TO.P,C18,1*%
%TO.N,/mmic_bias_a1/Vd*%
X114770000Y-66000000D03*
%TD*%
D29*
%TO.P,TP2,1,1*%
%TO.N,Net-(J1-Pad2)*%
X109000000Y-46490000D03*
%TD*%
D20*
%TO.P,R9,2*%
%TO.N,Net-(C6-Pad1)*%
X119500000Y-50510000D03*
%TO.P,R9,1*%
%TO.N,Net-(R10-Pad2)*%
X119500000Y-49490000D03*
%TD*%
D30*
%TO.P,U3,17,GND*%
%TO.N,GND*%
X113800000Y-68870000D03*
D31*
%TO.P,U3,16,NC*%
X113050000Y-67432500D03*
%TO.P,U3,15,Vd1*%
%TO.N,/mmic_bias_a1/Vp*%
X113550000Y-67432500D03*
%TO.P,U3,14,NC*%
%TO.N,GND*%
X114050000Y-67432500D03*
%TO.P,U3,13,Vd2*%
%TO.N,/mmic_bias_a1/Vd*%
X114550000Y-67432500D03*
D32*
%TO.P,U3,12,NC*%
%TO.N,GND*%
X115237500Y-68120000D03*
%TO.P,U3,11,GND*%
X115237500Y-68620000D03*
%TO.P,U3,10,RFout*%
%TO.N,Net-(J3-Pad1)*%
X115237500Y-69120000D03*
%TO.P,U3,9,GND*%
%TO.N,GND*%
X115237500Y-69620000D03*
D31*
%TO.P,U3,8,NC*%
X114550000Y-70307500D03*
%TO.P,U3,7,Vg2*%
%TO.N,/Vg2*%
X114050000Y-70307500D03*
%TO.P,U3,6,Vss*%
%TO.N,-5V*%
X113550000Y-70307500D03*
%TO.P,U3,5,Vg1*%
%TO.N,Net-(C10-Pad1)*%
X113050000Y-70307500D03*
D32*
%TO.P,U3,4,GND*%
%TO.N,GND*%
X112362500Y-69620000D03*
%TO.P,U3,3,RFin*%
%TO.N,Net-(J4-Pad1)*%
X112362500Y-69120000D03*
%TO.P,U3,2,GND*%
%TO.N,GND*%
X112362500Y-68620000D03*
%TO.P,U3,1,NC*%
X112362500Y-68120000D03*
%TD*%
D19*
%TO.P,R1,2*%
%TO.N,GND*%
X126500000Y-46730000D03*
%TO.P,R1,1*%
%TO.N,Net-(Q2-Pad1)*%
X126500000Y-47750000D03*
%TD*%
D24*
%TO.P,C16,2*%
%TO.N,GND*%
X115730000Y-73500000D03*
%TO.P,C16,1*%
%TO.N,/Vg2*%
X114770000Y-73500000D03*
%TD*%
D33*
%TO.P,C1,2*%
%TO.N,GND*%
X108500000Y-54465000D03*
%TO.P,C1,1*%
%TO.N,Net-(C1-Pad1)*%
X108500000Y-56015000D03*
%TD*%
D34*
%TO.P,R15,2*%
%TO.N,/mmic_bias_a1/Vd*%
X106780000Y-65325000D03*
%TO.P,R15,1*%
%TO.N,/mmic_bias_a1/Vp*%
X106780000Y-63675000D03*
%TD*%
D25*
%TO.P,C7,2*%
%TO.N,GND*%
X120750000Y-52025000D03*
%TO.P,C7,1*%
%TO.N,Net-(C6-Pad1)*%
X120750000Y-50475000D03*
%TD*%
D35*
%TO.P,Q1,3,D*%
%TO.N,Net-(J1-Pad2)*%
X109062500Y-49740000D03*
%TO.P,Q1,2,S*%
%TO.N,Net-(C1-Pad1)*%
X110937500Y-48790000D03*
%TO.P,Q1,1,G*%
%TO.N,GND*%
X110937500Y-50690000D03*
%TD*%
D19*
%TO.P,R21,2*%
%TO.N,Net-(R21-Pad2)*%
X108280000Y-64480000D03*
%TO.P,R21,1*%
%TO.N,/mmic_bias_a1/Vd*%
X108280000Y-65500000D03*
%TD*%
D36*
%TO.P,C6,2*%
%TO.N,GND*%
X118500000Y-51480000D03*
%TO.P,C6,1*%
%TO.N,Net-(C6-Pad1)*%
X118500000Y-50520000D03*
%TD*%
D37*
%TO.P,D5,1,K*%
%TO.N,GND*%
X114050000Y-76250000D03*
%TO.P,D5,2,A*%
%TO.N,Net-(D5-Pad2)*%
X115450000Y-76250000D03*
%TD*%
D20*
%TO.P,R18,2*%
%TO.N,GND*%
X112250000Y-64510000D03*
%TO.P,R18,1*%
%TO.N,Net-(R17-Pad2)*%
X112250000Y-63490000D03*
%TD*%
D17*
%TO.P,R8,2*%
%TO.N,+5V*%
X122740000Y-51740000D03*
%TO.P,R8,1*%
%TO.N,Net-(Q3-Pad1)*%
X123760000Y-51740000D03*
%TD*%
D24*
%TO.P,C5,2*%
%TO.N,GND*%
X119500000Y-48500000D03*
%TO.P,C5,1*%
%TO.N,Net-(C5-Pad1)*%
X118540000Y-48500000D03*
%TD*%
D23*
%TO.P,C24,2*%
%TO.N,GND*%
X107300000Y-60000000D03*
%TO.P,C24,1*%
%TO.N,+5V*%
X108260000Y-60000000D03*
%TD*%
D38*
%TO.P,U5,5,V+*%
%TO.N,+5V*%
X108380000Y-61300000D03*
%TO.P,U5,4*%
%TO.N,Net-(R16-Pad2)*%
X109680000Y-61300000D03*
%TO.P,U5,2,V-*%
%TO.N,-5V*%
X109030000Y-63200000D03*
%TO.P,U5,3,-*%
%TO.N,Net-(R22-Pad2)*%
X109680000Y-63200000D03*
%TO.P,U5,1,+*%
%TO.N,Net-(R21-Pad2)*%
X108380000Y-63200000D03*
%TD*%
D19*
%TO.P,R12,2*%
%TO.N,Net-(C10-Pad1)*%
X111000000Y-73500000D03*
%TO.P,R12,1*%
%TO.N,-5V*%
X111000000Y-74520000D03*
%TD*%
%TO.P,R17,2*%
%TO.N,Net-(R17-Pad2)*%
X111250000Y-63490000D03*
%TO.P,R17,1*%
%TO.N,+5V*%
X111250000Y-64510000D03*
%TD*%
D29*
%TO.P,TP1,1,1*%
%TO.N,GND*%
X117250000Y-46490000D03*
%TD*%
D24*
%TO.P,C26,2*%
%TO.N,GND*%
X110260000Y-59000000D03*
%TO.P,C26,1*%
%TO.N,-5V*%
X109300000Y-59000000D03*
%TD*%
D19*
%TO.P,R22,2*%
%TO.N,Net-(R22-Pad2)*%
X109780000Y-64490000D03*
%TO.P,R22,1*%
%TO.N,Net-(R17-Pad2)*%
X109780000Y-65510000D03*
%TD*%
D24*
%TO.P,C12,2*%
%TO.N,GND*%
X113480000Y-73500000D03*
%TO.P,C12,1*%
%TO.N,-5V*%
X112520000Y-73500000D03*
%TD*%
D23*
%TO.P,C22,2*%
%TO.N,GND*%
X107300000Y-59000000D03*
%TO.P,C22,1*%
%TO.N,+5V*%
X108260000Y-59000000D03*
%TD*%
D39*
%TO.P,C20,2*%
%TO.N,GND*%
X116775000Y-63520000D03*
%TO.P,C20,1*%
%TO.N,/mmic_bias_a1/Vd*%
X115225000Y-63520000D03*
%TD*%
D19*
%TO.P,R2,2*%
%TO.N,Net-(R2-Pad2)*%
X114500000Y-52980000D03*
%TO.P,R2,1*%
%TO.N,Net-(C8-Pad1)*%
X114500000Y-54000000D03*
%TD*%
D37*
%TO.P,D6,1,K*%
%TO.N,Net-(D5-Pad2)*%
X116800000Y-76250000D03*
%TO.P,D6,2,A*%
%TO.N,Net-(D6-Pad2)*%
X118200000Y-76250000D03*
%TD*%
D24*
%TO.P,C15,2*%
%TO.N,GND*%
X115730000Y-72500000D03*
%TO.P,C15,1*%
%TO.N,/Vg2*%
X114770000Y-72500000D03*
%TD*%
D20*
%TO.P,R6,2*%
%TO.N,-5V*%
X114500000Y-56000000D03*
%TO.P,R6,1*%
%TO.N,Net-(C8-Pad1)*%
X114500000Y-54980000D03*
%TD*%
D40*
%TO.P,D1,1,K*%
%TO.N,Net-(D1-Pad1)*%
X125000000Y-47690000D03*
%TO.P,D1,2,A*%
%TO.N,-5V*%
X125000000Y-46290000D03*
%TD*%
D37*
%TO.P,D7,1,K*%
%TO.N,Net-(D6-Pad2)*%
X119550000Y-76250000D03*
%TO.P,D7,2,A*%
%TO.N,GND*%
X120950000Y-76250000D03*
%TD*%
D33*
%TO.P,C8,2*%
%TO.N,GND*%
X113000000Y-53965000D03*
%TO.P,C8,1*%
%TO.N,Net-(C8-Pad1)*%
X113000000Y-55515000D03*
%TD*%
D20*
%TO.P,R5,2*%
%TO.N,Net-(Q3-Pad1)*%
X125750000Y-53740000D03*
%TO.P,R5,1*%
%TO.N,Net-(Q2-Pad3)*%
X125750000Y-52720000D03*
%TD*%
D41*
%TO.P,Q3,3,D*%
%TO.N,Net-(Q3-Pad3)*%
X123250000Y-55677500D03*
%TO.P,Q3,2,S*%
%TO.N,+5V*%
X122300000Y-53802500D03*
%TO.P,Q3,1,G*%
%TO.N,Net-(Q3-Pad1)*%
X124200000Y-53802500D03*
%TD*%
D42*
%TO.P,J1,2,Pin_2*%
%TO.N,Net-(J1-Pad2)*%
X104040000Y-48740000D03*
D43*
%TO.P,J1,1,Pin_1*%
%TO.N,GND*%
X101500000Y-48740000D03*
%TD*%
D44*
%TO.P,U1,6,EN*%
%TO.N,Net-(C1-Pad1)*%
X111250000Y-53790000D03*
%TO.P,U1,5,VFB*%
%TO.N,Net-(R2-Pad2)*%
X111750000Y-53790000D03*
%TO.P,U1,4,VOUT*%
%TO.N,Net-(C8-Pad1)*%
X111750000Y-55690000D03*
%TO.P,U1,2,GND*%
%TO.N,GND*%
X110750000Y-55690000D03*
%TO.P,U1,1,VIN*%
%TO.N,Net-(C1-Pad1)*%
X110250000Y-55690000D03*
D45*
%TO.P,U1,9,PAD*%
%TO.N,GND*%
X111000000Y-54740000D03*
D44*
%TO.P,U1,8,C+*%
%TO.N,Net-(C3-Pad1)*%
X110250000Y-53790000D03*
%TO.P,U1,7,C-*%
%TO.N,Net-(C3-Pad2)*%
X110750000Y-53790000D03*
%TO.P,U1,3,CPOUT*%
%TO.N,Net-(C4-Pad1)*%
X111250000Y-55690000D03*
%TD*%
D20*
%TO.P,R4,2*%
%TO.N,/mmic_bias_a1/Vp*%
X123250000Y-58260000D03*
%TO.P,R4,1*%
%TO.N,Net-(Q3-Pad3)*%
X123250000Y-57240000D03*
%TD*%
D46*
%TO.P,U2,9,GND*%
%TO.N,GND*%
X116000000Y-49740000D03*
D47*
%TO.P,U2,8,VIN*%
%TO.N,Net-(C1-Pad1)*%
X114600000Y-50490000D03*
%TO.P,U2,7,VIN*%
X114600000Y-49990000D03*
%TO.P,U2,6,GND*%
%TO.N,GND*%
X114600000Y-49490000D03*
%TO.P,U2,5,EN*%
%TO.N,Net-(C1-Pad1)*%
X114600000Y-48990000D03*
%TO.P,U2,4,SS*%
%TO.N,Net-(C5-Pad1)*%
X117400000Y-48990000D03*
%TO.P,U2,3,SENSE*%
%TO.N,Net-(R10-Pad2)*%
X117400000Y-49490000D03*
%TO.P,U2,2,VOUT*%
%TO.N,Net-(C6-Pad1)*%
X117400000Y-49990000D03*
%TO.P,U2,1,VOUT*%
X117400000Y-50490000D03*
%TD*%
D48*
%TO.N,GND*%
X115800000Y-67100000D03*
X113800000Y-68870000D03*
X112600000Y-67600000D03*
X111900000Y-70000000D03*
X111900000Y-70700000D03*
X115800000Y-70600000D03*
X115800000Y-70000000D03*
X115800000Y-67800000D03*
X111900000Y-67600000D03*
X118500000Y-70750000D03*
X107000000Y-75250000D03*
X100750000Y-56250000D03*
X100750000Y-58500000D03*
X126000000Y-58500000D03*
X119250000Y-58500000D03*
%TO.N,/mmic_bias_a1/Vp*%
X114000000Y-64250000D03*
%TO.N,GND*%
X112750000Y-76750000D03*
X113500000Y-76250000D03*
%TO.N,-5V*%
X109000000Y-66250000D03*
%TO.N,Net-(D5-Pad2)*%
X116500000Y-74500000D03*
%TO.N,GND*%
X121750000Y-76250000D03*
X116500000Y-73500000D03*
X116500000Y-72500000D03*
X109000000Y-70750000D03*
X110000000Y-70750000D03*
X111000000Y-70750000D03*
X114000000Y-73500000D03*
X114000000Y-72500000D03*
%TO.N,-5V*%
X113000000Y-74250000D03*
%TO.N,GND*%
X112250000Y-66000000D03*
X116250000Y-66000000D03*
X114000000Y-62250000D03*
X116000000Y-64470000D03*
D49*
X111000000Y-54740000D03*
D48*
X122750000Y-72750000D03*
D49*
X115500000Y-51240000D03*
D48*
X126500000Y-46000000D03*
X114250000Y-68400000D03*
D49*
X117250000Y-46490000D03*
X122250000Y-46000000D03*
D48*
X113300000Y-69300000D03*
D49*
X116500000Y-51240000D03*
D48*
X114250000Y-69300000D03*
D49*
X115500000Y-54740000D03*
D48*
X111000000Y-59000000D03*
X104250000Y-72750000D03*
D49*
X115500000Y-48240000D03*
D48*
X106750000Y-59000000D03*
D49*
X116500000Y-48240000D03*
D48*
X104250000Y-75250000D03*
D49*
X119800000Y-47500000D03*
X112000000Y-50740000D03*
D48*
X104250000Y-63000000D03*
D49*
X109250000Y-57240000D03*
X116000000Y-50490000D03*
D48*
X111000000Y-60000000D03*
D49*
X114750000Y-52000000D03*
D48*
X116750000Y-62720000D03*
X106750000Y-60000000D03*
D49*
X109750000Y-54740000D03*
X119500000Y-52000000D03*
D48*
X113300000Y-68400000D03*
D49*
X122750000Y-49250000D03*
X116000000Y-48990000D03*
D48*
X114250000Y-59000000D03*
X104250000Y-65500000D03*
D49*
X112250000Y-54740000D03*
X117250000Y-52000000D03*
X113000000Y-51490000D03*
D48*
X122750000Y-65500000D03*
X112250000Y-65000000D03*
X122750000Y-75250000D03*
X122750000Y-63000000D03*
D49*
X119800000Y-46000000D03*
D48*
%TO.N,-5V*%
X114500000Y-56750000D03*
X123500000Y-46300000D03*
%TO.N,+5V*%
X111250000Y-65250000D03*
X115750000Y-58250000D03*
X108250000Y-58250000D03*
%TO.N,/mmic_bias_a1/Vd*%
X106750000Y-66000000D03*
X115300000Y-62520000D03*
%TO.N,/mmic_bias_a1/Vp*%
X106800000Y-62500000D03*
X123200000Y-59300000D03*
%TO.N,Net-(D5-Pad2)*%
X113000000Y-62500000D03*
%TD*%
D50*
%TO.N,+5V*%
X121010000Y-53740000D02*
X122237500Y-53740000D01*
X122237500Y-53740000D02*
X122300000Y-53802500D01*
X121010000Y-53740000D02*
X121010000Y-54790000D01*
D51*
%TO.N,/mmic_bias_a1/Vp*%
X113730000Y-64520000D02*
X114000000Y-64250000D01*
D50*
%TO.N,GND*%
X112750000Y-76260000D02*
X112750000Y-76750000D01*
X114050000Y-76250000D02*
X113500000Y-76250000D01*
%TO.N,Net-(C10-Pad1)*%
X110000000Y-72460000D02*
X110950000Y-72460000D01*
X110950000Y-72460000D02*
X111000000Y-72510000D01*
X109000000Y-72480000D02*
X109980000Y-72480000D01*
X109980000Y-72480000D02*
X110000000Y-72460000D01*
D51*
%TO.N,-5V*%
X109030000Y-66220000D02*
X109000000Y-66250000D01*
X109030000Y-63200000D02*
X109030000Y-66220000D01*
D50*
%TO.N,Net-(D5-Pad2)*%
X115760000Y-74500000D02*
X116500000Y-74500000D01*
%TO.N,GND*%
X120950000Y-76250000D02*
X121750000Y-76250000D01*
%TO.N,Net-(D6-Pad2)*%
X118200000Y-76250000D02*
X119550000Y-76250000D01*
%TO.N,Net-(D5-Pad2)*%
X115450000Y-76250000D02*
X116800000Y-76250000D01*
X115450000Y-75550000D02*
X115450000Y-76250000D01*
X115760000Y-74500000D02*
X115760000Y-75240000D01*
X115760000Y-75240000D02*
X115450000Y-75550000D01*
%TO.N,GND*%
X115730000Y-73500000D02*
X116500000Y-73500000D01*
X115730000Y-72500000D02*
X116500000Y-72500000D01*
D51*
%TO.N,/Vg2*%
X114770000Y-71770000D02*
X114770000Y-72500000D01*
X114050000Y-70307500D02*
X114050000Y-71050000D01*
X114050000Y-71050000D02*
X114770000Y-71770000D01*
X114770000Y-73500000D02*
X114770000Y-72500000D01*
X114740000Y-74500000D02*
X114740000Y-73530000D01*
X114740000Y-73530000D02*
X114770000Y-73500000D01*
X114000000Y-74500000D02*
X114740000Y-74500000D01*
X112750000Y-75240000D02*
X113260000Y-75240000D01*
X113260000Y-75240000D02*
X114000000Y-74500000D01*
D50*
%TO.N,GND*%
X109000000Y-71520000D02*
X109000000Y-70750000D01*
X110000000Y-71500000D02*
X110000000Y-70750000D01*
X111000000Y-71490000D02*
X111000000Y-70750000D01*
X113480000Y-73500000D02*
X114000000Y-73500000D01*
X113480000Y-72500000D02*
X114000000Y-72500000D01*
D51*
%TO.N,-5V*%
X112540000Y-74250000D02*
X113000000Y-74250000D01*
X112520000Y-74230000D02*
X112540000Y-74250000D01*
X112520000Y-72500000D02*
X112520000Y-73500000D01*
X112520000Y-74230000D02*
X112520000Y-73500000D01*
X111000000Y-74520000D02*
X112230000Y-74520000D01*
X112230000Y-74520000D02*
X112520000Y-74230000D01*
%TO.N,Net-(C10-Pad1)*%
X111000000Y-72510000D02*
X111000000Y-73500000D01*
X111740000Y-72510000D02*
X111000000Y-72510000D01*
X113050000Y-70307500D02*
X113050000Y-70700000D01*
X113050000Y-70700000D02*
X111750000Y-72000000D01*
X111750000Y-72000000D02*
X111750000Y-72500000D01*
X111750000Y-72500000D02*
X111740000Y-72510000D01*
%TO.N,-5V*%
X112520000Y-72020000D02*
X112520000Y-72500000D01*
X113550000Y-70307500D02*
X113550000Y-70950000D01*
X113550000Y-70950000D02*
X112500000Y-72000000D01*
X112500000Y-72000000D02*
X112520000Y-72020000D01*
D50*
%TO.N,GND*%
X112770000Y-66000000D02*
X112250000Y-66000000D01*
X115730000Y-66000000D02*
X116250000Y-66000000D01*
D51*
X112800000Y-69620000D02*
X112960000Y-69460000D01*
X112960000Y-69460000D02*
X113210000Y-69460000D01*
X113210000Y-69460000D02*
X113800000Y-68870000D01*
X112362500Y-68620000D02*
X113550000Y-68620000D01*
X113550000Y-68620000D02*
X113800000Y-68870000D01*
X112362500Y-69620000D02*
X112800000Y-69620000D01*
X114620000Y-69620000D02*
X114550000Y-69690000D01*
X114550000Y-69690000D02*
X114550000Y-70307500D01*
X115237500Y-69620000D02*
X114620000Y-69620000D01*
X114620000Y-69620000D02*
X114250000Y-69250000D01*
X115237500Y-68620000D02*
X114370000Y-68620000D01*
X114370000Y-68620000D02*
X114250000Y-68500000D01*
X114420000Y-68250000D02*
X113800000Y-68870000D01*
X115237500Y-68120000D02*
X115107500Y-68250000D01*
X115107500Y-68250000D02*
X114420000Y-68250000D01*
X114050000Y-67432500D02*
X114050000Y-69050000D01*
X114050000Y-69050000D02*
X114250000Y-69250000D01*
X112362500Y-68120000D02*
X113050000Y-68120000D01*
X113050000Y-68120000D02*
X113800000Y-68870000D01*
X113050000Y-67432500D02*
X113050000Y-68120000D01*
D50*
X114000000Y-62790000D02*
X114000000Y-62250000D01*
D51*
%TO.N,/mmic_bias_a1/Vd*%
X114770000Y-66730000D02*
X114770000Y-66000000D01*
X114550000Y-67432500D02*
X114550000Y-66950000D01*
X114550000Y-66950000D02*
X114770000Y-66730000D01*
%TO.N,/mmic_bias_a1/Vp*%
X113730000Y-66000000D02*
X113730000Y-64520000D01*
X114000000Y-64250000D02*
X114000000Y-63750000D01*
X113550000Y-66700000D02*
X113750000Y-66500000D01*
X113550000Y-67432500D02*
X113550000Y-66700000D01*
X113750000Y-66500000D02*
X113730000Y-66480000D01*
X113730000Y-66480000D02*
X113730000Y-66000000D01*
D50*
%TO.N,Net-(C1-Pad1)*%
X111399388Y-51545000D02*
X112094388Y-52240000D01*
X107775000Y-56015000D02*
X108500000Y-56015000D01*
X108945000Y-51545000D02*
X111399388Y-51545000D01*
D51*
X112750000Y-52240000D02*
X113500000Y-52240000D01*
X114600000Y-49990000D02*
X114000000Y-49990000D01*
X113997990Y-50487990D02*
X113997990Y-49987990D01*
X110250000Y-55690000D02*
X110250000Y-55990000D01*
D50*
X109250000Y-56240000D02*
X108725000Y-56240000D01*
D51*
X111377009Y-52957379D02*
X112094388Y-52240000D01*
D50*
X112250000Y-48990000D02*
X112275000Y-48965000D01*
X107500000Y-51740000D02*
X107000000Y-52240000D01*
X114000000Y-48990000D02*
X113990000Y-48990000D01*
X108725000Y-56240000D02*
X108500000Y-56015000D01*
X108945000Y-51545000D02*
X108750000Y-51740000D01*
X107000000Y-52240000D02*
X107000000Y-54740000D01*
D51*
X113500000Y-52240000D02*
X114000000Y-51740000D01*
X111250000Y-53790000D02*
X111250000Y-53273172D01*
X111377009Y-53146163D02*
X111377009Y-52957379D01*
D50*
X111000000Y-48790000D02*
X111050000Y-48740000D01*
D51*
X113997990Y-51737990D02*
X113997990Y-50487990D01*
D50*
X107750000Y-55990000D02*
X107775000Y-56015000D01*
X113990000Y-48990000D02*
X113025000Y-48990000D01*
X107000000Y-55240000D02*
X107750000Y-55990000D01*
X113372966Y-52267011D02*
X113872989Y-51766988D01*
X111050000Y-48740000D02*
X111750000Y-48740000D01*
D51*
X112094388Y-52240000D02*
X112750000Y-52240000D01*
X114000000Y-49990000D02*
X113997990Y-49987990D01*
D50*
X112275000Y-48965000D02*
X113000000Y-48965000D01*
D51*
X110250000Y-55990000D02*
X110000000Y-56240000D01*
X114000000Y-50490000D02*
X113997990Y-50487990D01*
X113997990Y-48992010D02*
X114000000Y-48990000D01*
D50*
X112121399Y-52267011D02*
X113372966Y-52267011D01*
X113872989Y-49107011D02*
X113990000Y-48990000D01*
D51*
X111250000Y-53273172D02*
X111377009Y-53146163D01*
D50*
X112094388Y-52240000D02*
X112121399Y-52267011D01*
X113025000Y-48990000D02*
X113000000Y-48965000D01*
X108750000Y-51740000D02*
X107500000Y-51740000D01*
D51*
X114600000Y-50490000D02*
X114000000Y-50490000D01*
D50*
X111000000Y-48790000D02*
X110950000Y-48740000D01*
X112000000Y-48740000D02*
X112250000Y-48990000D01*
D51*
X113997990Y-49987990D02*
X113997990Y-48992010D01*
D50*
X111750000Y-48740000D02*
X112000000Y-48740000D01*
X110000000Y-56240000D02*
X109250000Y-56240000D01*
X107000000Y-54740000D02*
X107000000Y-55240000D01*
D51*
X114600000Y-48990000D02*
X114000000Y-48990000D01*
X114000000Y-51740000D02*
X113997990Y-51737990D01*
D50*
X113872989Y-51766988D02*
X113872989Y-49107011D01*
D51*
%TO.N,Net-(C3-Pad2)*%
X110750000Y-53240000D02*
X111000000Y-52990000D01*
X111000000Y-52510000D02*
X110980000Y-52490000D01*
X111000000Y-52990000D02*
X111000000Y-52510000D01*
X110750000Y-53790000D02*
X110750000Y-53240000D01*
%TO.N,Net-(C3-Pad1)*%
X110000000Y-52990000D02*
X110000000Y-52510000D01*
X110250000Y-53790000D02*
X110250000Y-53240000D01*
X110250000Y-53240000D02*
X110000000Y-52990000D01*
X110000000Y-52510000D02*
X110020000Y-52490000D01*
%TO.N,Net-(C4-Pad1)*%
X111250000Y-56240000D02*
X111250000Y-55690000D01*
X111775000Y-56765000D02*
X111250000Y-56240000D01*
X111775000Y-57240000D02*
X111775000Y-56765000D01*
%TO.N,Net-(C5-Pad1)*%
X117400000Y-48990000D02*
X118000000Y-48990000D01*
X118250000Y-48740000D02*
X118520000Y-48740000D01*
X118000000Y-48990000D02*
X118250000Y-48740000D01*
%TO.N,GND*%
X107300000Y-59000000D02*
X106750000Y-59000000D01*
D50*
X115500000Y-54000000D02*
X115500000Y-54740000D01*
D51*
X126500000Y-46730000D02*
X126500000Y-46000000D01*
X112250000Y-64510000D02*
X112250000Y-65000000D01*
D50*
X116775000Y-62745000D02*
X116750000Y-62720000D01*
X113000000Y-50515000D02*
X113000000Y-51240000D01*
D51*
X110225000Y-57240000D02*
X109250000Y-57240000D01*
X110750000Y-55690000D02*
X110750000Y-54990000D01*
X110225000Y-57240000D02*
X110225000Y-56765000D01*
D50*
X115730000Y-64740000D02*
X116000000Y-64470000D01*
X111000000Y-50690000D02*
X111950000Y-50690000D01*
X116775000Y-63520000D02*
X116775000Y-62745000D01*
D51*
X110225000Y-56765000D02*
X110750000Y-56240000D01*
D50*
X111950000Y-50690000D02*
X112000000Y-50740000D01*
D51*
X110750000Y-56240000D02*
X110750000Y-55690000D01*
X107300000Y-60000000D02*
X106750000Y-60000000D01*
D52*
X108500000Y-54465000D02*
X109475000Y-54465000D01*
D51*
X114600000Y-49490000D02*
X115750000Y-49490000D01*
X110750000Y-54990000D02*
X111000000Y-54740000D01*
D50*
X112250000Y-54740000D02*
X112250000Y-54715000D01*
D51*
X110240000Y-60000000D02*
X111000000Y-60000000D01*
D50*
X111000000Y-54740000D02*
X112250000Y-54740000D01*
D51*
X110260000Y-59000000D02*
X111000000Y-59000000D01*
D50*
X112250000Y-54715000D02*
X113000000Y-53965000D01*
D52*
X109475000Y-54465000D02*
X109750000Y-54740000D01*
D51*
X115750000Y-49490000D02*
X116000000Y-49740000D01*
D50*
X115730000Y-65000000D02*
X115730000Y-64740000D01*
%TO.N,Net-(C8-Pad1)*%
X112000000Y-56240000D02*
X112750000Y-56240000D01*
D51*
X111750000Y-55690000D02*
X111750000Y-55990000D01*
D50*
X114010000Y-54980000D02*
X114500000Y-54980000D01*
X113750000Y-55240000D02*
X114010000Y-54980000D01*
X114500000Y-54980000D02*
X114500000Y-54000000D01*
D51*
X111750000Y-55990000D02*
X112000000Y-56240000D01*
D50*
X113000000Y-55515000D02*
X113475000Y-55515000D01*
X112750000Y-56240000D02*
X113000000Y-55990000D01*
X113000000Y-55990000D02*
X113000000Y-55515000D01*
X113475000Y-55515000D02*
X113750000Y-55240000D01*
D51*
%TO.N,-5V*%
X109280000Y-59020000D02*
X109300000Y-59000000D01*
X112250000Y-61000000D02*
X112000000Y-60750000D01*
D50*
X114500000Y-56000000D02*
X114500000Y-56750000D01*
D51*
X109030000Y-60720000D02*
X109280000Y-60470000D01*
D50*
X113190000Y-61490000D02*
X112250000Y-61490000D01*
D51*
X110125598Y-60750000D02*
X109845598Y-60470000D01*
D50*
X113190000Y-61490000D02*
X113190000Y-59010000D01*
D51*
X112250000Y-61490000D02*
X112250000Y-61000000D01*
X109030000Y-63200000D02*
X109030000Y-60720000D01*
X109845598Y-60470000D02*
X109280000Y-60470000D01*
D50*
X113190000Y-59010000D02*
X114500000Y-57700000D01*
D51*
X125000000Y-46290000D02*
X123510000Y-46290000D01*
X123510000Y-46290000D02*
X123500000Y-46300000D01*
X112000000Y-60750000D02*
X110125598Y-60750000D01*
X109280000Y-60000000D02*
X109280000Y-59020000D01*
X109280000Y-60470000D02*
X109280000Y-60000000D01*
D50*
X114500000Y-57700000D02*
X114500000Y-56750000D01*
D51*
%TO.N,Net-(D1-Pad1)*%
X125100000Y-49240000D02*
X125100000Y-47790000D01*
X125100000Y-47790000D02*
X125000000Y-47690000D01*
D50*
%TO.N,Net-(J1-Pad2)*%
X109000000Y-49740000D02*
X106500000Y-49740000D01*
X109000000Y-46490000D02*
X109000000Y-49740000D01*
X104040000Y-48740000D02*
X105500000Y-48740000D01*
X106500000Y-49740000D02*
X106000000Y-49240000D01*
X105500000Y-48740000D02*
X106000000Y-49240000D01*
D51*
%TO.N,Net-(J3-Pad1)*%
X115237500Y-69120000D02*
X115870000Y-69120000D01*
X115870000Y-69120000D02*
X115880000Y-69130000D01*
D52*
X124440000Y-69130000D02*
X115880000Y-69130000D01*
%TO.N,Net-(J4-Pad1)*%
X102490000Y-69125000D02*
X111925000Y-69125000D01*
D51*
X111930000Y-69120000D02*
X111925000Y-69125000D01*
X112362500Y-69120000D02*
X111930000Y-69120000D01*
%TO.N,+5V*%
X108250000Y-60500000D02*
X108380000Y-60630000D01*
X108260000Y-59000000D02*
X108260000Y-60000000D01*
X122300000Y-53802500D02*
X122300000Y-52950000D01*
X108260000Y-58260000D02*
X108250000Y-58250000D01*
X108260000Y-60000000D02*
X108260000Y-60490000D01*
D50*
X116400000Y-57100000D02*
X118700000Y-57100000D01*
X115800000Y-57700000D02*
X116400000Y-57100000D01*
D51*
X111250000Y-64510000D02*
X111250000Y-65250000D01*
X115810000Y-58310000D02*
X115750000Y-58250000D01*
X122740000Y-52490000D02*
X122740000Y-51740000D01*
X122750000Y-52500000D02*
X122740000Y-52490000D01*
D50*
X115750000Y-58250000D02*
X115800000Y-58200000D01*
D51*
X108380000Y-60630000D02*
X108380000Y-61300000D01*
X108260000Y-60490000D02*
X108250000Y-60500000D01*
D50*
X115800000Y-58200000D02*
X115800000Y-57700000D01*
X118700000Y-57100000D02*
X121010000Y-54790000D01*
D51*
X108260000Y-59000000D02*
X108260000Y-58260000D01*
X122300000Y-52950000D02*
X122750000Y-52500000D01*
%TO.N,Net-(Q2-Pad3)*%
X125750000Y-52720000D02*
X125750000Y-51240000D01*
%TO.N,Net-(Q2-Pad1)*%
X126500000Y-48500000D02*
X126400000Y-48600000D01*
X126500000Y-47750000D02*
X126500000Y-48500000D01*
X126400000Y-48600000D02*
X126400000Y-49240000D01*
D50*
%TO.N,Net-(Q3-Pad3)*%
X123250000Y-55677500D02*
X123250000Y-57240000D01*
%TO.N,/mmic_bias_a1/Vd*%
X115225000Y-64245000D02*
X115225000Y-63520000D01*
X114770000Y-65000000D02*
X114770000Y-64700000D01*
X106780000Y-65970000D02*
X106750000Y-66000000D01*
D51*
X106780000Y-65325000D02*
X107325000Y-65325000D01*
D50*
X115225000Y-62595000D02*
X115300000Y-62520000D01*
X114770000Y-64700000D02*
X115225000Y-64245000D01*
X114770000Y-66000000D02*
X114770000Y-65000000D01*
D51*
X107500000Y-65500000D02*
X108280000Y-65500000D01*
X107325000Y-65325000D02*
X107500000Y-65500000D01*
D50*
X106780000Y-65325000D02*
X106780000Y-65970000D01*
X115225000Y-63520000D02*
X115225000Y-62595000D01*
D51*
%TO.N,Net-(Q3-Pad1)*%
X124200000Y-52700000D02*
X124200000Y-53802500D01*
X123760000Y-51740000D02*
X123760000Y-52260000D01*
X125687500Y-53802500D02*
X125750000Y-53740000D01*
X124200000Y-53802500D02*
X125687500Y-53802500D01*
X123760000Y-52260000D02*
X124200000Y-52700000D01*
%TO.N,Net-(R2-Pad2)*%
X114500000Y-52980000D02*
X115500000Y-52980000D01*
X111750000Y-53790000D02*
X111750000Y-53240000D01*
X112000000Y-52990000D02*
X112010000Y-52980000D01*
X111750000Y-53240000D02*
X112000000Y-52990000D01*
X112010000Y-52980000D02*
X114500000Y-52980000D01*
%TO.N,Net-(C6-Pad1)*%
X117400000Y-49990000D02*
X117740000Y-49990000D01*
X117400000Y-50490000D02*
X118470000Y-50490000D01*
X117740000Y-49990000D02*
X118000000Y-50250000D01*
X118010000Y-50510000D02*
X118750000Y-50510000D01*
X118000000Y-50250000D02*
X118000000Y-50500000D01*
D50*
X119990000Y-53260000D02*
X119990000Y-53740000D01*
X121475000Y-50475000D02*
X121750000Y-50750000D01*
X119975000Y-53725000D02*
X119990000Y-53740000D01*
X120750000Y-50475000D02*
X121475000Y-50475000D01*
X121250000Y-53000000D02*
X120250000Y-53000000D01*
X119490000Y-50520000D02*
X119500000Y-50510000D01*
X120250000Y-53000000D02*
X119990000Y-53260000D01*
X121750000Y-52500000D02*
X121250000Y-53000000D01*
X121750000Y-50750000D02*
X121750000Y-52500000D01*
X118500000Y-50520000D02*
X119490000Y-50520000D01*
D51*
X118000000Y-50500000D02*
X118010000Y-50510000D01*
D50*
X119520000Y-50490000D02*
X119500000Y-50510000D01*
D51*
X118470000Y-50490000D02*
X118500000Y-50520000D01*
D50*
X120975000Y-50490000D02*
X119520000Y-50490000D01*
%TO.N,/mmic_bias_a1/Vp*%
X106780000Y-62520000D02*
X106800000Y-62500000D01*
X123250000Y-59250000D02*
X123200000Y-59300000D01*
X106780000Y-63675000D02*
X106780000Y-62520000D01*
X123250000Y-58260000D02*
X123250000Y-59250000D01*
D51*
%TO.N,Net-(R16-Pad2)*%
X110500000Y-61500000D02*
X110510000Y-61490000D01*
X110300000Y-61300000D02*
X110500000Y-61500000D01*
X110510000Y-61490000D02*
X111410000Y-61490000D01*
X109680000Y-61300000D02*
X110300000Y-61300000D01*
%TO.N,Net-(R17-Pad2)*%
X112250000Y-63490000D02*
X111250000Y-63490000D01*
X110760000Y-63490000D02*
X110500000Y-63750000D01*
X110500000Y-65250000D02*
X110240000Y-65510000D01*
X110240000Y-65510000D02*
X109780000Y-65510000D01*
X111250000Y-63490000D02*
X110760000Y-63490000D01*
X110500000Y-63750000D02*
X110500000Y-65250000D01*
%TO.N,Net-(R10-Pad2)*%
X117510000Y-49490000D02*
X119500000Y-49490000D01*
D50*
X119500000Y-49490000D02*
X120010000Y-49490000D01*
X120010000Y-49490000D02*
X120250000Y-49250000D01*
D51*
X118750000Y-49490000D02*
X119500000Y-49490000D01*
X117400000Y-49490000D02*
X117490000Y-49490000D01*
X117500000Y-49500000D02*
X117510000Y-49490000D01*
X117490000Y-49490000D02*
X117500000Y-49500000D01*
D50*
X120250000Y-49250000D02*
X120740000Y-49250000D01*
D51*
%TO.N,Net-(R21-Pad2)*%
X108380000Y-63870000D02*
X108250000Y-64000000D01*
X108280000Y-64030000D02*
X108280000Y-64480000D01*
X108250000Y-64000000D02*
X108280000Y-64030000D01*
X108380000Y-63200000D02*
X108380000Y-63870000D01*
%TO.N,Net-(R22-Pad2)*%
X109680000Y-63200000D02*
X109680000Y-63680000D01*
X109680000Y-63680000D02*
X109780000Y-63780000D01*
X109780000Y-63780000D02*
X109780000Y-64490000D01*
%TO.N,Net-(D5-Pad2)*%
X112250000Y-62510000D02*
X112990000Y-62510000D01*
X111250000Y-62510000D02*
X112250000Y-62510000D01*
X112990000Y-62510000D02*
X113000000Y-62500000D01*
%TD*%
%TA.AperFunction,Conductor*%
%TO.N,GND*%
G36*
X116959191Y-48258907D02*
G01*
X116995155Y-48308407D01*
X117000000Y-48339000D01*
X117000000Y-48540739D01*
X116981093Y-48598930D01*
X116949662Y-48623709D01*
X116950694Y-48625253D01*
X116866506Y-48681506D01*
X116810253Y-48765694D01*
X116808351Y-48775257D01*
X116808350Y-48775259D01*
X116800990Y-48812263D01*
X116790500Y-48865000D01*
X116790500Y-49115000D01*
X116791448Y-49119764D01*
X116810253Y-49214306D01*
X116808252Y-49214704D01*
X116812055Y-49262997D01*
X116810253Y-49265694D01*
X116790500Y-49365000D01*
X116790500Y-49615000D01*
X116802651Y-49676087D01*
X116810253Y-49714306D01*
X116808252Y-49714704D01*
X116812055Y-49762997D01*
X116810253Y-49765694D01*
X116790500Y-49865000D01*
X116790500Y-50115000D01*
X116791448Y-50119764D01*
X116810253Y-50214306D01*
X116808252Y-50214704D01*
X116812055Y-50262997D01*
X116810253Y-50265694D01*
X116790500Y-50365000D01*
X116790500Y-50615000D01*
X116798202Y-50653719D01*
X116807902Y-50702486D01*
X116810253Y-50714306D01*
X116866506Y-50798494D01*
X116874616Y-50803913D01*
X116950694Y-50854747D01*
X116949361Y-50856742D01*
X116985414Y-50887538D01*
X117000000Y-50939261D01*
X117000000Y-51240000D01*
X120750000Y-51240000D01*
X120750000Y-51231756D01*
X120758317Y-51220309D01*
X120807817Y-51184345D01*
X120838410Y-51179500D01*
X121034914Y-51179500D01*
X121038402Y-51179001D01*
X121038409Y-51179000D01*
X121132466Y-51165530D01*
X121192749Y-51175997D01*
X121235367Y-51219899D01*
X121245500Y-51263530D01*
X121245500Y-52250022D01*
X121226593Y-52308213D01*
X121216504Y-52320026D01*
X121075526Y-52461004D01*
X121021009Y-52488781D01*
X121005522Y-52490000D01*
X115870304Y-52490000D01*
X115825358Y-52479209D01*
X115813850Y-52473345D01*
X115813846Y-52473344D01*
X115806907Y-52469808D01*
X115799213Y-52468589D01*
X115799212Y-52468589D01*
X115720415Y-52456109D01*
X115720413Y-52456109D01*
X115716569Y-52455500D01*
X115283431Y-52455500D01*
X115279587Y-52456109D01*
X115279585Y-52456109D01*
X115200788Y-52468589D01*
X115200787Y-52468589D01*
X115193093Y-52469808D01*
X115186154Y-52473344D01*
X115186150Y-52473345D01*
X115174642Y-52479209D01*
X115129696Y-52490000D01*
X114870304Y-52490000D01*
X114825358Y-52479209D01*
X114813850Y-52473345D01*
X114813846Y-52473344D01*
X114806907Y-52469808D01*
X114799213Y-52468589D01*
X114799212Y-52468589D01*
X114720415Y-52456109D01*
X114720413Y-52456109D01*
X114716569Y-52455500D01*
X114283431Y-52455500D01*
X114279587Y-52456109D01*
X114279585Y-52456109D01*
X114200788Y-52468589D01*
X114200787Y-52468589D01*
X114193093Y-52469808D01*
X114186154Y-52473344D01*
X114186150Y-52473345D01*
X114174642Y-52479209D01*
X114129696Y-52490000D01*
X114102456Y-52490000D01*
X114044265Y-52471093D01*
X114008301Y-52421593D01*
X114008301Y-52360407D01*
X114032452Y-52320996D01*
X114182516Y-52170932D01*
X114191938Y-52163405D01*
X114191871Y-52163326D01*
X114197241Y-52158755D01*
X114203206Y-52154992D01*
X114234419Y-52119650D01*
X114237080Y-52116637D01*
X114241280Y-52112168D01*
X114254412Y-52099036D01*
X114256524Y-52096218D01*
X114256530Y-52096211D01*
X114262042Y-52088856D01*
X114267059Y-52082692D01*
X114294166Y-52051999D01*
X114298833Y-52046715D01*
X114303258Y-52037290D01*
X114313649Y-52019996D01*
X114319895Y-52011662D01*
X114336744Y-51966714D01*
X114339830Y-51959392D01*
X114360226Y-51915951D01*
X114361827Y-51905669D01*
X114366951Y-51886135D01*
X114368127Y-51882999D01*
X114370603Y-51876395D01*
X114374160Y-51828527D01*
X114375063Y-51820657D01*
X114377489Y-51805081D01*
X114377489Y-51805078D01*
X114377952Y-51805150D01*
X114378138Y-51804154D01*
X114378099Y-51804149D01*
X114379125Y-51796029D01*
X114381469Y-51788191D01*
X114381148Y-51780019D01*
X114382021Y-51773107D01*
X114382351Y-51766111D01*
X114384073Y-51758113D01*
X114381198Y-51733824D01*
X114381307Y-51733811D01*
X114381223Y-51733483D01*
X114381309Y-51732334D01*
X114380665Y-51729316D01*
X114379988Y-51723593D01*
X114378863Y-51714088D01*
X114378252Y-51706335D01*
X114377566Y-51688872D01*
X114377490Y-51684986D01*
X114377490Y-51589000D01*
X114396397Y-51530809D01*
X114445897Y-51494845D01*
X114476490Y-51490000D01*
X115000000Y-51490000D01*
X115000000Y-50939261D01*
X115018907Y-50881070D01*
X115050338Y-50856291D01*
X115049306Y-50854747D01*
X115125384Y-50803913D01*
X115133494Y-50798494D01*
X115189747Y-50714306D01*
X115192099Y-50702486D01*
X115201798Y-50653719D01*
X115209500Y-50615000D01*
X115209500Y-50365000D01*
X115189747Y-50265694D01*
X115191748Y-50265296D01*
X115187945Y-50217003D01*
X115189747Y-50214306D01*
X115209500Y-50115000D01*
X115209500Y-49865000D01*
X115189747Y-49765694D01*
X115133494Y-49681506D01*
X115049306Y-49625253D01*
X115050639Y-49623258D01*
X115014586Y-49592462D01*
X115000000Y-49540739D01*
X115000000Y-49439261D01*
X115018907Y-49381070D01*
X115050338Y-49356291D01*
X115049306Y-49354747D01*
X115125384Y-49303913D01*
X115133494Y-49298494D01*
X115189747Y-49214306D01*
X115209500Y-49115000D01*
X115209500Y-48865000D01*
X115199010Y-48812263D01*
X115191650Y-48775259D01*
X115191649Y-48775257D01*
X115189747Y-48765694D01*
X115133494Y-48681506D01*
X115049306Y-48625253D01*
X115050639Y-48623258D01*
X115014586Y-48592462D01*
X115000000Y-48540739D01*
X115000000Y-48339000D01*
X115018907Y-48280809D01*
X115068407Y-48244845D01*
X115099000Y-48240000D01*
X116901000Y-48240000D01*
X116959191Y-48258907D01*
G37*
%TD.AperFunction*%
%TA.AperFunction,Conductor*%
G36*
X113327680Y-50008907D02*
G01*
X113363644Y-50058407D01*
X113368489Y-50089000D01*
X113368489Y-51517010D01*
X113349582Y-51575201D01*
X113339493Y-51587013D01*
X113192993Y-51733514D01*
X113138476Y-51761292D01*
X113122989Y-51762511D01*
X112371378Y-51762511D01*
X112313187Y-51743604D01*
X112301374Y-51733515D01*
X111803335Y-51235477D01*
X111795805Y-51226053D01*
X111795727Y-51226119D01*
X111791155Y-51220747D01*
X111787392Y-51214783D01*
X111749028Y-51180901D01*
X111744559Y-51176701D01*
X111731435Y-51163577D01*
X111721239Y-51155935D01*
X111715096Y-51150933D01*
X111684401Y-51123824D01*
X111684399Y-51123823D01*
X111679115Y-51119156D01*
X111672732Y-51116159D01*
X111672730Y-51116158D01*
X111669691Y-51114731D01*
X111652390Y-51104335D01*
X111649710Y-51102326D01*
X111649704Y-51102323D01*
X111644062Y-51098094D01*
X111637460Y-51095619D01*
X111637458Y-51095618D01*
X111599117Y-51081246D01*
X111591792Y-51078159D01*
X111548351Y-51057763D01*
X111541381Y-51056678D01*
X111541378Y-51056677D01*
X111538069Y-51056162D01*
X111518539Y-51051039D01*
X111508795Y-51047386D01*
X111472694Y-51044703D01*
X111460924Y-51043828D01*
X111453031Y-51042921D01*
X111441268Y-51041089D01*
X111441259Y-51041088D01*
X111437481Y-51040500D01*
X111419823Y-51040500D01*
X111412485Y-51040228D01*
X111408704Y-51039947D01*
X111364734Y-51036679D01*
X111357839Y-51038151D01*
X111357836Y-51038151D01*
X111357051Y-51038319D01*
X111336384Y-51040500D01*
X110599000Y-51040500D01*
X110540809Y-51021593D01*
X110504845Y-50972093D01*
X110500000Y-50941500D01*
X110500000Y-50089000D01*
X110518907Y-50030809D01*
X110568407Y-49994845D01*
X110599000Y-49990000D01*
X113269489Y-49990000D01*
X113327680Y-50008907D01*
G37*
%TD.AperFunction*%
%TA.AperFunction,Conductor*%
G36*
X123209191Y-45172907D02*
G01*
X123245155Y-45222407D01*
X123250000Y-45253000D01*
X123250000Y-45818493D01*
X123231093Y-45876684D01*
X123203829Y-45902219D01*
X123182230Y-45915847D01*
X123182227Y-45915850D01*
X123176264Y-45919612D01*
X123082514Y-46025763D01*
X123022326Y-46153960D01*
X123000537Y-46293898D01*
X123018900Y-46434325D01*
X123075939Y-46563955D01*
X123167067Y-46672365D01*
X123172938Y-46676273D01*
X123172939Y-46676274D01*
X123205858Y-46698187D01*
X123243821Y-46746171D01*
X123250000Y-46780598D01*
X123250000Y-51147212D01*
X123231093Y-51205403D01*
X123181593Y-51241367D01*
X123120407Y-51241367D01*
X123106055Y-51235422D01*
X123003847Y-51183344D01*
X123003846Y-51183344D01*
X122996907Y-51179808D01*
X122989213Y-51178589D01*
X122989212Y-51178589D01*
X122910415Y-51166109D01*
X122910413Y-51166109D01*
X122906569Y-51165500D01*
X122573431Y-51165500D01*
X122569587Y-51166109D01*
X122569585Y-51166109D01*
X122490788Y-51178589D01*
X122490787Y-51178589D01*
X122483093Y-51179808D01*
X122476154Y-51183344D01*
X122476150Y-51183345D01*
X122398446Y-51222938D01*
X122338014Y-51232510D01*
X122283497Y-51204733D01*
X122255719Y-51150217D01*
X122254500Y-51134729D01*
X122254500Y-50816769D01*
X122255839Y-50804781D01*
X122255737Y-50804773D01*
X122256303Y-50797739D01*
X122257859Y-50790862D01*
X122254690Y-50739781D01*
X122254500Y-50733652D01*
X122254500Y-50715086D01*
X122254001Y-50711600D01*
X122254000Y-50711589D01*
X122252696Y-50702486D01*
X122251886Y-50694583D01*
X122249351Y-50653719D01*
X122249351Y-50653717D01*
X122248914Y-50646680D01*
X122246520Y-50640048D01*
X122246519Y-50640044D01*
X122245378Y-50636884D01*
X122240497Y-50617308D01*
X122240021Y-50613981D01*
X122240020Y-50613979D01*
X122239021Y-50607000D01*
X122219155Y-50563306D01*
X122216161Y-50555952D01*
X122202257Y-50517439D01*
X122199862Y-50510804D01*
X122193717Y-50502393D01*
X122183537Y-50484971D01*
X122182150Y-50481921D01*
X122179229Y-50475496D01*
X122147893Y-50439128D01*
X122142955Y-50432909D01*
X122133671Y-50420201D01*
X122121179Y-50407709D01*
X122116184Y-50402328D01*
X122089538Y-50371403D01*
X122089537Y-50371402D01*
X122084933Y-50366059D01*
X122079016Y-50362224D01*
X122079014Y-50362222D01*
X122078342Y-50361787D01*
X122062187Y-50348717D01*
X121878946Y-50165476D01*
X121871416Y-50156052D01*
X121871338Y-50156118D01*
X121866768Y-50150748D01*
X121863004Y-50144783D01*
X121824640Y-50110901D01*
X121820171Y-50106701D01*
X121807047Y-50093577D01*
X121796851Y-50085935D01*
X121790708Y-50080933D01*
X121760013Y-50053824D01*
X121760011Y-50053823D01*
X121754727Y-50049156D01*
X121748344Y-50046159D01*
X121748342Y-50046158D01*
X121745303Y-50044731D01*
X121728002Y-50034335D01*
X121725322Y-50032326D01*
X121725316Y-50032323D01*
X121719674Y-50028094D01*
X121713072Y-50025619D01*
X121713070Y-50025618D01*
X121674729Y-50011246D01*
X121667404Y-50008159D01*
X121650026Y-50000000D01*
X121623963Y-49987763D01*
X121616993Y-49986678D01*
X121616990Y-49986677D01*
X121613681Y-49986162D01*
X121594151Y-49981039D01*
X121584407Y-49977386D01*
X121548306Y-49974703D01*
X121536536Y-49973828D01*
X121528643Y-49972921D01*
X121516880Y-49971089D01*
X121516871Y-49971088D01*
X121513093Y-49970500D01*
X121495435Y-49970500D01*
X121488097Y-49970228D01*
X121440346Y-49966679D01*
X121439352Y-49966891D01*
X121382696Y-49952660D01*
X121360308Y-49933422D01*
X121318498Y-49884899D01*
X121212874Y-49816436D01*
X121174327Y-49768919D01*
X121171072Y-49707821D01*
X121186628Y-49675170D01*
X121188647Y-49672391D01*
X121194157Y-49666881D01*
X121225433Y-49605500D01*
X121246656Y-49563847D01*
X121246656Y-49563846D01*
X121250192Y-49556907D01*
X121259916Y-49495515D01*
X121263891Y-49470415D01*
X121263891Y-49470413D01*
X121264500Y-49466569D01*
X121264500Y-49033431D01*
X121263891Y-49029585D01*
X121251411Y-48950788D01*
X121251411Y-48950787D01*
X121250192Y-48943093D01*
X121212877Y-48869858D01*
X121197693Y-48840058D01*
X121197692Y-48840056D01*
X121194157Y-48833119D01*
X121106881Y-48745843D01*
X121099944Y-48742308D01*
X121099942Y-48742307D01*
X121003847Y-48693344D01*
X121003846Y-48693344D01*
X120996907Y-48689808D01*
X120989213Y-48688589D01*
X120989212Y-48688589D01*
X120910415Y-48676109D01*
X120910413Y-48676109D01*
X120906569Y-48675500D01*
X120573431Y-48675500D01*
X120569587Y-48676109D01*
X120569585Y-48676109D01*
X120490788Y-48688589D01*
X120490787Y-48688589D01*
X120483093Y-48689808D01*
X120476154Y-48693344D01*
X120476153Y-48693344D01*
X120394968Y-48734710D01*
X120350023Y-48745500D01*
X120316767Y-48745500D01*
X120304779Y-48744161D01*
X120304771Y-48744263D01*
X120297739Y-48743697D01*
X120290861Y-48742141D01*
X120239781Y-48745310D01*
X120233651Y-48745500D01*
X120215086Y-48745500D01*
X120211601Y-48745999D01*
X120211589Y-48746000D01*
X120202485Y-48747304D01*
X120194582Y-48748114D01*
X120153718Y-48750649D01*
X120153716Y-48750649D01*
X120146679Y-48751086D01*
X120136887Y-48754621D01*
X120117306Y-48759503D01*
X120107000Y-48760979D01*
X120063295Y-48780851D01*
X120055954Y-48783840D01*
X120010804Y-48800139D01*
X120005114Y-48804296D01*
X120005106Y-48804300D01*
X120002393Y-48806282D01*
X119984978Y-48816459D01*
X119981915Y-48817852D01*
X119981913Y-48817853D01*
X119975496Y-48820771D01*
X119970156Y-48825372D01*
X119939136Y-48852100D01*
X119932917Y-48857039D01*
X119920200Y-48866329D01*
X119907702Y-48878827D01*
X119902321Y-48883822D01*
X119866059Y-48915067D01*
X119862224Y-48920984D01*
X119862222Y-48920986D01*
X119861787Y-48921658D01*
X119848722Y-48937807D01*
X119842420Y-48944110D01*
X119787907Y-48971891D01*
X119756926Y-48971892D01*
X119716569Y-48965500D01*
X119349000Y-48965500D01*
X119290809Y-48946593D01*
X119254845Y-48897093D01*
X119250000Y-48866500D01*
X119250000Y-47990000D01*
X118905621Y-47990000D01*
X118860676Y-47979210D01*
X118810392Y-47953589D01*
X118810391Y-47953589D01*
X118803452Y-47950053D01*
X118795758Y-47948834D01*
X118795757Y-47948834D01*
X118715415Y-47936109D01*
X118715413Y-47936109D01*
X118711569Y-47935500D01*
X118368431Y-47935500D01*
X118364587Y-47936109D01*
X118364585Y-47936109D01*
X118284243Y-47948834D01*
X118284242Y-47948834D01*
X118276548Y-47950053D01*
X118269609Y-47953589D01*
X118269608Y-47953589D01*
X118219324Y-47979210D01*
X118174379Y-47990000D01*
X114849000Y-47990000D01*
X114790809Y-47971093D01*
X114754845Y-47921593D01*
X114750000Y-47891000D01*
X114750000Y-45253000D01*
X114768907Y-45194809D01*
X114818407Y-45158845D01*
X114849000Y-45154000D01*
X123151000Y-45154000D01*
X123209191Y-45172907D01*
G37*
%TD.AperFunction*%
%TD*%
%TA.AperFunction,Conductor*%
%TO.N,GND*%
G36*
X113692121Y-53379502D02*
G01*
X113738614Y-53433158D01*
X113750000Y-53485500D01*
X113750000Y-54480519D01*
X113729998Y-54548640D01*
X113706245Y-54575975D01*
X113699959Y-54581391D01*
X113692045Y-54587675D01*
X113684134Y-54593454D01*
X113684128Y-54593459D01*
X113680201Y-54596328D01*
X113668425Y-54608104D01*
X113661577Y-54614463D01*
X113632857Y-54639209D01*
X113632855Y-54639211D01*
X113626059Y-54645067D01*
X113621179Y-54652596D01*
X113615275Y-54659364D01*
X113615212Y-54659309D01*
X113606699Y-54669830D01*
X113485699Y-54790830D01*
X113423387Y-54824856D01*
X113360503Y-54822452D01*
X113321614Y-54810822D01*
X113317281Y-54810500D01*
X112715086Y-54810500D01*
X112675518Y-54816167D01*
X112622910Y-54823700D01*
X112622907Y-54823701D01*
X112614017Y-54824974D01*
X112605841Y-54828691D01*
X112605839Y-54828692D01*
X112497138Y-54878116D01*
X112497136Y-54878117D01*
X112488966Y-54881832D01*
X112482167Y-54887690D01*
X112482166Y-54887691D01*
X112430793Y-54931957D01*
X112384899Y-54971502D01*
X112310182Y-55086775D01*
X112307611Y-55095372D01*
X112307610Y-55095374D01*
X112291243Y-55150102D01*
X112252561Y-55209636D01*
X112187834Y-55238806D01*
X112170526Y-55240000D01*
X112072013Y-55240000D01*
X112002011Y-55218765D01*
X111984625Y-55207148D01*
X111974306Y-55200253D01*
X111875000Y-55180500D01*
X111625000Y-55180500D01*
X111525694Y-55200253D01*
X111524859Y-55196056D01*
X111477626Y-55201133D01*
X111474324Y-55200163D01*
X111474306Y-55200253D01*
X111381068Y-55181707D01*
X111375000Y-55180500D01*
X111125000Y-55180500D01*
X111025694Y-55200253D01*
X111015375Y-55207148D01*
X110997989Y-55218765D01*
X110927987Y-55240000D01*
X110572013Y-55240000D01*
X110502011Y-55218765D01*
X110484625Y-55207148D01*
X110474306Y-55200253D01*
X110375000Y-55180500D01*
X110125000Y-55180500D01*
X110025694Y-55200253D01*
X110015375Y-55207148D01*
X109997989Y-55218765D01*
X109927987Y-55240000D01*
X107876000Y-55240000D01*
X107807879Y-55219998D01*
X107761386Y-55166342D01*
X107750000Y-55114000D01*
X107750000Y-53866000D01*
X107770002Y-53797879D01*
X107823658Y-53751386D01*
X107876000Y-53740000D01*
X109124000Y-53740000D01*
X109192121Y-53760002D01*
X109238614Y-53813658D01*
X109250000Y-53866000D01*
X109250000Y-54240000D01*
X109927987Y-54240000D01*
X109997989Y-54261235D01*
X110025694Y-54279747D01*
X110125000Y-54299500D01*
X110375000Y-54299500D01*
X110474306Y-54279747D01*
X110475141Y-54283944D01*
X110522374Y-54278867D01*
X110525676Y-54279837D01*
X110525694Y-54279747D01*
X110625000Y-54299500D01*
X110875000Y-54299500D01*
X110974306Y-54279747D01*
X110975141Y-54283944D01*
X111022374Y-54278867D01*
X111025676Y-54279837D01*
X111025694Y-54279747D01*
X111125000Y-54299500D01*
X111375000Y-54299500D01*
X111474306Y-54279747D01*
X111475141Y-54283944D01*
X111522374Y-54278867D01*
X111525676Y-54279837D01*
X111525694Y-54279747D01*
X111625000Y-54299500D01*
X111875000Y-54299500D01*
X111974306Y-54279747D01*
X112002011Y-54261235D01*
X112072013Y-54240000D01*
X112250000Y-54240000D01*
X112250000Y-53485500D01*
X112270002Y-53417379D01*
X112323658Y-53370886D01*
X112376000Y-53359500D01*
X113624000Y-53359500D01*
X113692121Y-53379502D01*
G37*
%TD.AperFunction*%
%TD*%
%TA.AperFunction,Conductor*%
%TO.N,GND*%
G36*
X112743287Y-69515502D02*
G01*
X112789780Y-69569158D01*
X112799884Y-69639432D01*
X112771687Y-69702491D01*
X112719191Y-69765053D01*
X112719189Y-69765057D01*
X112712104Y-69773500D01*
X112674500Y-69876816D01*
X112674500Y-70492273D01*
X112654498Y-70560394D01*
X112637595Y-70581368D01*
X112255868Y-70963095D01*
X112193556Y-70997121D01*
X112166773Y-71000000D01*
X111826000Y-71000000D01*
X111757879Y-70979998D01*
X111711386Y-70926342D01*
X111700000Y-70874000D01*
X111700000Y-69696500D01*
X111720002Y-69628379D01*
X111773658Y-69581886D01*
X111826000Y-69570500D01*
X111958258Y-69570500D01*
X111962905Y-69569801D01*
X111962910Y-69569801D01*
X112048154Y-69556985D01*
X112048155Y-69556985D01*
X112057465Y-69555585D01*
X112125384Y-69522971D01*
X112156734Y-69507917D01*
X112211276Y-69495500D01*
X112675166Y-69495500D01*
X112743287Y-69515502D01*
G37*
%TD.AperFunction*%
%TA.AperFunction,Conductor*%
G36*
X113116621Y-66820002D02*
G01*
X113163114Y-66873658D01*
X113174500Y-66926000D01*
X113174500Y-67835856D01*
X113188678Y-67916262D01*
X113243898Y-68011906D01*
X113252339Y-68018989D01*
X113252340Y-68018990D01*
X113290610Y-68051102D01*
X113328500Y-68082896D01*
X113431816Y-68120500D01*
X113640856Y-68120500D01*
X113721262Y-68106322D01*
X113816906Y-68051102D01*
X113823990Y-68042660D01*
X113880811Y-67974944D01*
X113880812Y-67974942D01*
X113887896Y-67966500D01*
X113925500Y-67863184D01*
X113925500Y-67852158D01*
X113927351Y-67841660D01*
X113958878Y-67778047D01*
X114019792Y-67741578D01*
X114090753Y-67743830D01*
X114149231Y-67784089D01*
X114175523Y-67841659D01*
X114188678Y-67916262D01*
X114243898Y-68011906D01*
X114252339Y-68018989D01*
X114252340Y-68018990D01*
X114290610Y-68051102D01*
X114328500Y-68082896D01*
X114431816Y-68120500D01*
X114640856Y-68120500D01*
X114721262Y-68106322D01*
X114816906Y-68051102D01*
X114823990Y-68042660D01*
X114880811Y-67974944D01*
X114880812Y-67974942D01*
X114887896Y-67966500D01*
X114925500Y-67863184D01*
X114925500Y-67157727D01*
X114945502Y-67089606D01*
X114962405Y-67068632D01*
X114998325Y-67032712D01*
X115014579Y-67019584D01*
X115017332Y-67017079D01*
X115026081Y-67011430D01*
X115045597Y-66986674D01*
X115049780Y-66981967D01*
X115049723Y-66981918D01*
X115053075Y-66977962D01*
X115056759Y-66974278D01*
X115068516Y-66957826D01*
X115072059Y-66953107D01*
X115103435Y-66913307D01*
X115106436Y-66904761D01*
X115111699Y-66897396D01*
X115114683Y-66887419D01*
X115119265Y-66878066D01*
X115121058Y-66878944D01*
X115152627Y-66830361D01*
X115217356Y-66801194D01*
X115234659Y-66800000D01*
X115774000Y-66800000D01*
X115842121Y-66820002D01*
X115888614Y-66873658D01*
X115900000Y-66926000D01*
X115900000Y-68568020D01*
X115879998Y-68636141D01*
X115826342Y-68682634D01*
X115792732Y-68692620D01*
X115756845Y-68698015D01*
X115756843Y-68698016D01*
X115747535Y-68699415D01*
X115739048Y-68703490D01*
X115739046Y-68703491D01*
X115679500Y-68732084D01*
X115624959Y-68744500D01*
X114834144Y-68744500D01*
X114753738Y-68758678D01*
X114658094Y-68813898D01*
X114651011Y-68822339D01*
X114651010Y-68822340D01*
X114631149Y-68846010D01*
X114587104Y-68898500D01*
X114583334Y-68908858D01*
X114565026Y-68959160D01*
X114549500Y-69001816D01*
X114549500Y-69210856D01*
X114563678Y-69291262D01*
X114618898Y-69386906D01*
X114627339Y-69393989D01*
X114627340Y-69393990D01*
X114665610Y-69426102D01*
X114703500Y-69457896D01*
X114806816Y-69495500D01*
X115585987Y-69495500D01*
X115657624Y-69517847D01*
X115681807Y-69534561D01*
X115795443Y-69570500D01*
X115809526Y-69574954D01*
X115808748Y-69577413D01*
X115861140Y-69604561D01*
X115896510Y-69666119D01*
X115900000Y-69695570D01*
X115900000Y-70874000D01*
X115879998Y-70942121D01*
X115826342Y-70988614D01*
X115774000Y-71000000D01*
X114583227Y-71000000D01*
X114515106Y-70979998D01*
X114494132Y-70963095D01*
X114462405Y-70931368D01*
X114428379Y-70869056D01*
X114425500Y-70842273D01*
X114425500Y-69904144D01*
X114411322Y-69823738D01*
X114356102Y-69728094D01*
X114317342Y-69695570D01*
X114279944Y-69664189D01*
X114279942Y-69664188D01*
X114271500Y-69657104D01*
X114168184Y-69619500D01*
X113959144Y-69619500D01*
X113878738Y-69633678D01*
X113863267Y-69642610D01*
X113794272Y-69659346D01*
X113757176Y-69651890D01*
X113678547Y-69623271D01*
X113678543Y-69623270D01*
X113668184Y-69619500D01*
X113459144Y-69619500D01*
X113378738Y-69633678D01*
X113363267Y-69642610D01*
X113294272Y-69659346D01*
X113257176Y-69651890D01*
X113178547Y-69623271D01*
X113178543Y-69623270D01*
X113168184Y-69619500D01*
X113049834Y-69619500D01*
X112981713Y-69599498D01*
X112935220Y-69545842D01*
X112925116Y-69475568D01*
X112953313Y-69412509D01*
X113005809Y-69349947D01*
X113005811Y-69349943D01*
X113012896Y-69341500D01*
X113050500Y-69238184D01*
X113050500Y-69029144D01*
X113036322Y-68948738D01*
X112981102Y-68853094D01*
X112972660Y-68846010D01*
X112904944Y-68789189D01*
X112904942Y-68789188D01*
X112896500Y-68782104D01*
X112793184Y-68744500D01*
X112197310Y-68744500D01*
X112140888Y-68726897D01*
X112139398Y-68729938D01*
X112130946Y-68725797D01*
X112123193Y-68720439D01*
X111995474Y-68680046D01*
X111988536Y-68679500D01*
X111826000Y-68679500D01*
X111757879Y-68659498D01*
X111711386Y-68605842D01*
X111700000Y-68553500D01*
X111700000Y-66926000D01*
X111720002Y-66857879D01*
X111773658Y-66811386D01*
X111826000Y-66800000D01*
X113048500Y-66800000D01*
X113116621Y-66820002D01*
G37*
%TD.AperFunction*%
%TD*%
M02*
