M48
; DRILL file {KiCad 5.99.0-unknown-b691c18bfc~117~ubuntu20.10.1} date Sun Mar 21 19:03:15 2021
; FORMAT={-:-/ absolute / inch / decimal}
; #@! TF.CreationDate,2021-03-21T19:03:15-07:00
; #@! TF.GenerationSoftware,Kicad,Pcbnew,5.99.0-unknown-b691c18bfc~117~ubuntu20.10.1
; #@! TF.FileFunction,Plated,1,4,PTH
FMAT,2
INCH
T1C0.0100
T2C0.0157
T3C0.0433
T4C0.0780
%
G90
G05
T1
X3.9305Y-2.4852
X3.9305Y-2.5246
X3.9305Y-2.564
X3.9305Y-2.6033
X3.9305Y-2.6427
X3.9305Y-2.6821
X3.9305Y-2.753
X3.9305Y-2.7923
X3.9305Y-2.8317
X3.9305Y-2.8711
X3.9305Y-2.9104
X3.9305Y-2.9498
X3.9665Y-2.2146
X3.9665Y-2.3031
X4.1043Y-2.4803
X4.1043Y-2.5787
X4.1043Y-2.8642
X4.1043Y-2.9626
X4.2028Y-2.3228
X4.2028Y-2.3622
X4.2028Y-2.5984
X4.2047Y-2.4606
X4.2126Y-2.9626
X4.2618Y-2.2933
X4.2913Y-2.6083
X4.2913Y-2.7854
X4.3307Y-2.7854
X4.3701Y-2.3228
X4.3701Y-2.3622
X4.3701Y-2.7854
X4.3799Y-2.5689
X4.4055Y-2.6614
X4.4055Y-2.7559
X4.4055Y-2.7835
X4.4193Y-2.5591
X4.4193Y-2.5984
X4.4331Y-2.6614
X4.439Y-3.0217
X4.4488Y-2.4606
X4.4488Y-2.9232
X4.4606Y-2.6929
X4.4606Y-2.7283
X4.4685Y-3.002
X4.4803Y-2.7114
X4.4882Y-2.4508
X4.4882Y-2.5295
X4.4882Y-2.8543
X4.4882Y-2.8937
X4.498Y-2.3228
X4.498Y-2.6929
X4.498Y-2.7283
X4.5079Y-2.2343
X4.5394Y-2.4614
X4.5571Y-2.2933
X4.5591Y-2.6417
X4.5591Y-2.6693
X4.5591Y-2.7559
X4.5591Y-2.7795
X4.5669Y-2.5382
X4.5768Y-2.5984
X4.5866Y-2.8543
X4.5866Y-2.8937
X4.5866Y-2.9331
X4.5965Y-2.4693
X4.6654Y-2.7854
X4.6949Y-2.3031
X4.7933Y-3.002
X4.8327Y-2.4803
X4.8327Y-2.5787
X4.8327Y-2.8642
X4.8327Y-2.9626
X4.8504Y-2.3346
X4.8622Y-1.8228
X4.9606Y-2.3031
X4.9803Y-1.811
X5.0031Y-2.4933
X5.0031Y-2.5327
X5.0031Y-2.572
X5.0031Y-2.6114
X5.0031Y-2.6508
X5.0031Y-2.6902
X5.0031Y-2.761
X5.0031Y-2.8004
X5.0031Y-2.8398
X5.0031Y-2.8791
X5.0031Y-2.9185
X5.0031Y-2.9579
T2
X4.3012Y-2.2535
X4.3209Y-2.1551
X4.3701Y-2.1551
X4.4094Y-1.9976
X4.4193Y-2.1551
X4.4488Y-2.0272
X4.5177Y-2.0472
X4.5472Y-1.8992
X4.5472Y-2.0173
X4.5472Y-2.1551
X4.5669Y-1.9287
X4.5669Y-1.9878
X4.5866Y-1.8992
X4.5866Y-2.0173
X4.6161Y-1.8303
X4.6161Y-2.0472
X4.7047Y-2.0472
X4.7165Y-1.811
X4.7165Y-1.8701
X4.813Y-1.811
X4.8327Y-1.939
T3
X3.9961Y-1.9189
X4.0961Y-1.9189
T4
X4.0246Y-2.5374
X4.0246Y-2.9055
X4.9091Y-2.5376
X4.9091Y-2.9057
T0
M30
