G04 #@! TF.FileFunction,Copper,L1,Top,Signal*
%FSLAX46Y46*%
G04 Gerber Fmt 4.6, Leading zero omitted, Abs format (unit mm)*
G04 Created by KiCad (PCBNEW 4.0.2-stable) date Tue May 10 00:23:55 2016*
%MOMM*%
G01*
G04 APERTURE LIST*
%ADD10C,0.100000*%
%ADD11R,0.400000X0.600000*%
%ADD12R,6.350000X1.910000*%
%ADD13R,6.000000X0.380000*%
%ADD14C,0.600000*%
%ADD15C,0.350000*%
G04 APERTURE END LIST*
D10*
D11*
X147400000Y-105000000D03*
X146500000Y-105000000D03*
D12*
X135250000Y-85480000D03*
X135250000Y-94520000D03*
D13*
X141425000Y-90000000D03*
D12*
X135250000Y-70480000D03*
X135250000Y-79520000D03*
D13*
X141425000Y-75000000D03*
D12*
X135250000Y-100480000D03*
X135250000Y-109520000D03*
D13*
X141425000Y-105000000D03*
D12*
X159750000Y-79520000D03*
X159750000Y-70480000D03*
D13*
X153575000Y-75000000D03*
D14*
X135250000Y-109520000D03*
X135250000Y-100480000D03*
X135250000Y-94520000D03*
X135250000Y-85480000D03*
X135250000Y-79520000D03*
X135250000Y-70480000D03*
X159750000Y-70480000D03*
X159750000Y-79520000D03*
X156620000Y-79520000D03*
X156600000Y-70500000D03*
X138380000Y-70480000D03*
X138380000Y-79520000D03*
X138400000Y-85500000D03*
X138400000Y-94500000D03*
X138400000Y-100500000D03*
X138400000Y-109500000D03*
X147800000Y-105000000D03*
X147400000Y-105300000D03*
X147400000Y-104700000D03*
D15*
X141425000Y-90000000D02*
X147500000Y-90000000D01*
X159750000Y-79520000D02*
X156620000Y-79520000D01*
X159750000Y-70480000D02*
X156620000Y-70480000D01*
X156620000Y-70480000D02*
X156600000Y-70500000D01*
X135250000Y-70480000D02*
X138380000Y-70480000D01*
X135250000Y-79520000D02*
X138380000Y-79520000D01*
X135250000Y-85480000D02*
X138380000Y-85480000D01*
X138380000Y-85480000D02*
X138400000Y-85500000D01*
X135250000Y-94520000D02*
X138380000Y-94520000D01*
X138380000Y-94520000D02*
X138400000Y-94500000D01*
X135250000Y-100480000D02*
X138380000Y-100480000D01*
X138380000Y-100480000D02*
X138400000Y-100500000D01*
X135250000Y-109520000D02*
X138380000Y-109520000D01*
X138380000Y-109520000D02*
X138400000Y-109500000D01*
X147400000Y-105000000D02*
X147800000Y-105000000D01*
X147400000Y-105000000D02*
X147400000Y-105300000D01*
X147400000Y-105000000D02*
X147400000Y-104700000D01*
X146500000Y-105000000D02*
X141425000Y-105000000D01*
X141425000Y-75000000D02*
X144775000Y-75000000D01*
X144775000Y-75000000D02*
X153575000Y-75000000D01*
M02*
