G04 #@! TF.FileFunction,Legend,Top*
%FSLAX46Y46*%
G04 Gerber Fmt 4.6, Leading zero omitted, Abs format (unit mm)*
G04 Created by KiCad (PCBNEW 4.0.2-stable) date Tue May 10 00:23:55 2016*
%MOMM*%
G01*
G04 APERTURE LIST*
%ADD10C,0.100000*%
%ADD11C,0.300000*%
%ADD12C,0.150000*%
%ADD13C,0.000250*%
G04 APERTURE END LIST*
D10*
D11*
X154444286Y-109314286D02*
X154444286Y-109714286D01*
X155072857Y-109714286D02*
X153872857Y-109714286D01*
X153872857Y-109142857D01*
X155072857Y-108000000D02*
X154501429Y-108400000D01*
X155072857Y-108685715D02*
X153872857Y-108685715D01*
X153872857Y-108228572D01*
X153930000Y-108114286D01*
X153987143Y-108057143D01*
X154101429Y-108000000D01*
X154272857Y-108000000D01*
X154387143Y-108057143D01*
X154444286Y-108114286D01*
X154501429Y-108228572D01*
X154501429Y-108685715D01*
X154272857Y-106971429D02*
X155072857Y-106971429D01*
X153815714Y-107257143D02*
X154672857Y-107542858D01*
X154672857Y-106800000D01*
X153872857Y-106114286D02*
X153872857Y-106000001D01*
X153930000Y-105885715D01*
X153987143Y-105828572D01*
X154101429Y-105771429D01*
X154330000Y-105714286D01*
X154615714Y-105714286D01*
X154844286Y-105771429D01*
X154958571Y-105828572D01*
X155015714Y-105885715D01*
X155072857Y-106000001D01*
X155072857Y-106114286D01*
X155015714Y-106228572D01*
X154958571Y-106285715D01*
X154844286Y-106342858D01*
X154615714Y-106400001D01*
X154330000Y-106400001D01*
X154101429Y-106342858D01*
X153987143Y-106285715D01*
X153930000Y-106228572D01*
X153872857Y-106114286D01*
X154387143Y-105028572D02*
X154330000Y-105142858D01*
X154272857Y-105200001D01*
X154158571Y-105257144D01*
X154101429Y-105257144D01*
X153987143Y-105200001D01*
X153930000Y-105142858D01*
X153872857Y-105028572D01*
X153872857Y-104800001D01*
X153930000Y-104685715D01*
X153987143Y-104628572D01*
X154101429Y-104571429D01*
X154158571Y-104571429D01*
X154272857Y-104628572D01*
X154330000Y-104685715D01*
X154387143Y-104800001D01*
X154387143Y-105028572D01*
X154444286Y-105142858D01*
X154501429Y-105200001D01*
X154615714Y-105257144D01*
X154844286Y-105257144D01*
X154958571Y-105200001D01*
X155015714Y-105142858D01*
X155072857Y-105028572D01*
X155072857Y-104800001D01*
X155015714Y-104685715D01*
X154958571Y-104628572D01*
X154844286Y-104571429D01*
X154615714Y-104571429D01*
X154501429Y-104628572D01*
X154444286Y-104685715D01*
X154387143Y-104800001D01*
X155015714Y-102628572D02*
X155072857Y-102742858D01*
X155072857Y-102971429D01*
X155015714Y-103085715D01*
X154958571Y-103142858D01*
X154844286Y-103200001D01*
X154501429Y-103200001D01*
X154387143Y-103142858D01*
X154330000Y-103085715D01*
X154272857Y-102971429D01*
X154272857Y-102742858D01*
X154330000Y-102628572D01*
X155072857Y-101600001D02*
X154444286Y-101600001D01*
X154330000Y-101657144D01*
X154272857Y-101771430D01*
X154272857Y-102000001D01*
X154330000Y-102114287D01*
X155015714Y-101600001D02*
X155072857Y-101714287D01*
X155072857Y-102000001D01*
X155015714Y-102114287D01*
X154901429Y-102171430D01*
X154787143Y-102171430D01*
X154672857Y-102114287D01*
X154615714Y-102000001D01*
X154615714Y-101714287D01*
X154558571Y-101600001D01*
X155072857Y-100857144D02*
X155015714Y-100971430D01*
X154901429Y-101028573D01*
X153872857Y-101028573D01*
X155072857Y-99485716D02*
X154272857Y-99485716D01*
X154501429Y-99485716D02*
X154387143Y-99428573D01*
X154330000Y-99371430D01*
X154272857Y-99257144D01*
X154272857Y-99142859D01*
X155072857Y-98114287D02*
X155072857Y-98800002D01*
X155072857Y-98457144D02*
X153872857Y-98457144D01*
X154044286Y-98571430D01*
X154158571Y-98685716D01*
X154215714Y-98800002D01*
X155852857Y-109200000D02*
X155852857Y-109428571D01*
X155910000Y-109542857D01*
X155967143Y-109600000D01*
X156138571Y-109714286D01*
X156367143Y-109771429D01*
X156824286Y-109771429D01*
X156938571Y-109714286D01*
X156995714Y-109657143D01*
X157052857Y-109542857D01*
X157052857Y-109314286D01*
X156995714Y-109200000D01*
X156938571Y-109142857D01*
X156824286Y-109085714D01*
X156538571Y-109085714D01*
X156424286Y-109142857D01*
X156367143Y-109200000D01*
X156310000Y-109314286D01*
X156310000Y-109542857D01*
X156367143Y-109657143D01*
X156424286Y-109714286D01*
X156538571Y-109771429D01*
X156938571Y-108571429D02*
X156995714Y-108514286D01*
X157052857Y-108571429D01*
X156995714Y-108628572D01*
X156938571Y-108571429D01*
X157052857Y-108571429D01*
X155852857Y-108114285D02*
X155852857Y-107314285D01*
X157052857Y-107828571D01*
X157052857Y-105942857D02*
X156252857Y-105942857D01*
X156367143Y-105942857D02*
X156310000Y-105885714D01*
X156252857Y-105771428D01*
X156252857Y-105600000D01*
X156310000Y-105485714D01*
X156424286Y-105428571D01*
X157052857Y-105428571D01*
X156424286Y-105428571D02*
X156310000Y-105371428D01*
X156252857Y-105257142D01*
X156252857Y-105085714D01*
X156310000Y-104971428D01*
X156424286Y-104914285D01*
X157052857Y-104914285D01*
X157052857Y-104342857D02*
X156252857Y-104342857D01*
X155852857Y-104342857D02*
X155910000Y-104400000D01*
X155967143Y-104342857D01*
X155910000Y-104285714D01*
X155852857Y-104342857D01*
X155967143Y-104342857D01*
X157052857Y-103599999D02*
X156995714Y-103714285D01*
X156881429Y-103771428D01*
X155852857Y-103771428D01*
X156252857Y-102228571D02*
X157452857Y-102228571D01*
X156310000Y-102228571D02*
X156252857Y-102114285D01*
X156252857Y-101885714D01*
X156310000Y-101771428D01*
X156367143Y-101714285D01*
X156481429Y-101657142D01*
X156824286Y-101657142D01*
X156938571Y-101714285D01*
X156995714Y-101771428D01*
X157052857Y-101885714D01*
X157052857Y-102114285D01*
X156995714Y-102228571D01*
X157052857Y-101142857D02*
X156252857Y-101142857D01*
X156481429Y-101142857D02*
X156367143Y-101085714D01*
X156310000Y-101028571D01*
X156252857Y-100914285D01*
X156252857Y-100800000D01*
X156995714Y-99942857D02*
X157052857Y-100057143D01*
X157052857Y-100285714D01*
X156995714Y-100400000D01*
X156881429Y-100457143D01*
X156424286Y-100457143D01*
X156310000Y-100400000D01*
X156252857Y-100285714D01*
X156252857Y-100057143D01*
X156310000Y-99942857D01*
X156424286Y-99885714D01*
X156538571Y-99885714D01*
X156652857Y-100457143D01*
X156252857Y-99371429D02*
X157452857Y-99371429D01*
X156310000Y-99371429D02*
X156252857Y-99257143D01*
X156252857Y-99028572D01*
X156310000Y-98914286D01*
X156367143Y-98857143D01*
X156481429Y-98800000D01*
X156824286Y-98800000D01*
X156938571Y-98857143D01*
X156995714Y-98914286D01*
X157052857Y-99028572D01*
X157052857Y-99257143D01*
X156995714Y-99371429D01*
X157052857Y-98285715D02*
X156252857Y-98285715D01*
X156481429Y-98285715D02*
X156367143Y-98228572D01*
X156310000Y-98171429D01*
X156252857Y-98057143D01*
X156252857Y-97942858D01*
X156995714Y-97085715D02*
X157052857Y-97200001D01*
X157052857Y-97428572D01*
X156995714Y-97542858D01*
X156881429Y-97600001D01*
X156424286Y-97600001D01*
X156310000Y-97542858D01*
X156252857Y-97428572D01*
X156252857Y-97200001D01*
X156310000Y-97085715D01*
X156424286Y-97028572D01*
X156538571Y-97028572D01*
X156652857Y-97600001D01*
X156252857Y-96000001D02*
X157224286Y-96000001D01*
X157338571Y-96057144D01*
X157395714Y-96114287D01*
X157452857Y-96228572D01*
X157452857Y-96400001D01*
X157395714Y-96514287D01*
X156995714Y-96000001D02*
X157052857Y-96114287D01*
X157052857Y-96342858D01*
X156995714Y-96457144D01*
X156938571Y-96514287D01*
X156824286Y-96571430D01*
X156481429Y-96571430D01*
X156367143Y-96514287D01*
X156310000Y-96457144D01*
X156252857Y-96342858D01*
X156252857Y-96114287D01*
X156310000Y-96000001D01*
X156995714Y-95371430D02*
X157052857Y-95371430D01*
X157167143Y-95428573D01*
X157224286Y-95485716D01*
X156995714Y-93485715D02*
X157052857Y-93600001D01*
X157052857Y-93828572D01*
X156995714Y-93942858D01*
X156881429Y-94000001D01*
X156424286Y-94000001D01*
X156310000Y-93942858D01*
X156252857Y-93828572D01*
X156252857Y-93600001D01*
X156310000Y-93485715D01*
X156424286Y-93428572D01*
X156538571Y-93428572D01*
X156652857Y-94000001D01*
X157052857Y-92914287D02*
X156252857Y-92914287D01*
X156481429Y-92914287D02*
X156367143Y-92857144D01*
X156310000Y-92800001D01*
X156252857Y-92685715D01*
X156252857Y-92571430D01*
X156424286Y-91257144D02*
X156424286Y-90342858D01*
X156767143Y-90342858D02*
X156767143Y-91257144D01*
X155852857Y-88971429D02*
X155852857Y-88228572D01*
X156310000Y-88628572D01*
X156310000Y-88457144D01*
X156367143Y-88342858D01*
X156424286Y-88285715D01*
X156538571Y-88228572D01*
X156824286Y-88228572D01*
X156938571Y-88285715D01*
X156995714Y-88342858D01*
X157052857Y-88457144D01*
X157052857Y-88800001D01*
X156995714Y-88914287D01*
X156938571Y-88971429D01*
X156938571Y-87714287D02*
X156995714Y-87657144D01*
X157052857Y-87714287D01*
X156995714Y-87771430D01*
X156938571Y-87714287D01*
X157052857Y-87714287D01*
X155852857Y-86628572D02*
X155852857Y-86857143D01*
X155910000Y-86971429D01*
X155967143Y-87028572D01*
X156138571Y-87142858D01*
X156367143Y-87200001D01*
X156824286Y-87200001D01*
X156938571Y-87142858D01*
X156995714Y-87085715D01*
X157052857Y-86971429D01*
X157052857Y-86742858D01*
X156995714Y-86628572D01*
X156938571Y-86571429D01*
X156824286Y-86514286D01*
X156538571Y-86514286D01*
X156424286Y-86571429D01*
X156367143Y-86628572D01*
X156310000Y-86742858D01*
X156310000Y-86971429D01*
X156367143Y-87085715D01*
X156424286Y-87142858D01*
X156538571Y-87200001D01*
X155852857Y-85485715D02*
X155852857Y-85714286D01*
X155910000Y-85828572D01*
X155967143Y-85885715D01*
X156138571Y-86000001D01*
X156367143Y-86057144D01*
X156824286Y-86057144D01*
X156938571Y-86000001D01*
X156995714Y-85942858D01*
X157052857Y-85828572D01*
X157052857Y-85600001D01*
X156995714Y-85485715D01*
X156938571Y-85428572D01*
X156824286Y-85371429D01*
X156538571Y-85371429D01*
X156424286Y-85428572D01*
X156367143Y-85485715D01*
X156310000Y-85600001D01*
X156310000Y-85828572D01*
X156367143Y-85942858D01*
X156424286Y-86000001D01*
X156538571Y-86057144D01*
X157832857Y-109828571D02*
X157832857Y-109085714D01*
X158290000Y-109485714D01*
X158290000Y-109314286D01*
X158347143Y-109200000D01*
X158404286Y-109142857D01*
X158518571Y-109085714D01*
X158804286Y-109085714D01*
X158918571Y-109142857D01*
X158975714Y-109200000D01*
X159032857Y-109314286D01*
X159032857Y-109657143D01*
X158975714Y-109771429D01*
X158918571Y-109828571D01*
X158918571Y-108571429D02*
X158975714Y-108514286D01*
X159032857Y-108571429D01*
X158975714Y-108628572D01*
X158918571Y-108571429D01*
X159032857Y-108571429D01*
X159032857Y-107371428D02*
X159032857Y-108057143D01*
X159032857Y-107714285D02*
X157832857Y-107714285D01*
X158004286Y-107828571D01*
X158118571Y-107942857D01*
X158175714Y-108057143D01*
X159032857Y-105942857D02*
X158232857Y-105942857D01*
X158347143Y-105942857D02*
X158290000Y-105885714D01*
X158232857Y-105771428D01*
X158232857Y-105600000D01*
X158290000Y-105485714D01*
X158404286Y-105428571D01*
X159032857Y-105428571D01*
X158404286Y-105428571D02*
X158290000Y-105371428D01*
X158232857Y-105257142D01*
X158232857Y-105085714D01*
X158290000Y-104971428D01*
X158404286Y-104914285D01*
X159032857Y-104914285D01*
X159032857Y-104342857D02*
X158232857Y-104342857D01*
X158347143Y-104342857D02*
X158290000Y-104285714D01*
X158232857Y-104171428D01*
X158232857Y-104000000D01*
X158290000Y-103885714D01*
X158404286Y-103828571D01*
X159032857Y-103828571D01*
X158404286Y-103828571D02*
X158290000Y-103771428D01*
X158232857Y-103657142D01*
X158232857Y-103485714D01*
X158290000Y-103371428D01*
X158404286Y-103314285D01*
X159032857Y-103314285D01*
X158975714Y-101885714D02*
X159032857Y-101771428D01*
X159032857Y-101542856D01*
X158975714Y-101428571D01*
X158861429Y-101371428D01*
X158804286Y-101371428D01*
X158690000Y-101428571D01*
X158632857Y-101542856D01*
X158632857Y-101714285D01*
X158575714Y-101828571D01*
X158461429Y-101885714D01*
X158404286Y-101885714D01*
X158290000Y-101828571D01*
X158232857Y-101714285D01*
X158232857Y-101542856D01*
X158290000Y-101428571D01*
X159032857Y-100857142D02*
X157832857Y-100857142D01*
X159032857Y-100342856D02*
X158404286Y-100342856D01*
X158290000Y-100399999D01*
X158232857Y-100514285D01*
X158232857Y-100685713D01*
X158290000Y-100799999D01*
X158347143Y-100857142D01*
X159032857Y-99599999D02*
X158975714Y-99714285D01*
X158918571Y-99771428D01*
X158804286Y-99828571D01*
X158461429Y-99828571D01*
X158347143Y-99771428D01*
X158290000Y-99714285D01*
X158232857Y-99599999D01*
X158232857Y-99428571D01*
X158290000Y-99314285D01*
X158347143Y-99257142D01*
X158461429Y-99199999D01*
X158804286Y-99199999D01*
X158918571Y-99257142D01*
X158975714Y-99314285D01*
X159032857Y-99428571D01*
X159032857Y-99599999D01*
X159032857Y-98685714D02*
X158232857Y-98685714D01*
X158461429Y-98685714D02*
X158347143Y-98628571D01*
X158290000Y-98571428D01*
X158232857Y-98457142D01*
X158232857Y-98342857D01*
X158232857Y-98114285D02*
X158232857Y-97657142D01*
X157832857Y-97942857D02*
X158861429Y-97942857D01*
X158975714Y-97885714D01*
X159032857Y-97771428D01*
X159032857Y-97657142D01*
X158975714Y-97200000D02*
X159032857Y-97200000D01*
X159147143Y-97257143D01*
X159204286Y-97314286D01*
X159032857Y-95599999D02*
X158975714Y-95714285D01*
X158861429Y-95771428D01*
X157832857Y-95771428D01*
X159032857Y-94971428D02*
X158975714Y-95085714D01*
X158918571Y-95142857D01*
X158804286Y-95200000D01*
X158461429Y-95200000D01*
X158347143Y-95142857D01*
X158290000Y-95085714D01*
X158232857Y-94971428D01*
X158232857Y-94800000D01*
X158290000Y-94685714D01*
X158347143Y-94628571D01*
X158461429Y-94571428D01*
X158804286Y-94571428D01*
X158918571Y-94628571D01*
X158975714Y-94685714D01*
X159032857Y-94800000D01*
X159032857Y-94971428D01*
X159032857Y-93542857D02*
X158404286Y-93542857D01*
X158290000Y-93600000D01*
X158232857Y-93714286D01*
X158232857Y-93942857D01*
X158290000Y-94057143D01*
X158975714Y-93542857D02*
X159032857Y-93657143D01*
X159032857Y-93942857D01*
X158975714Y-94057143D01*
X158861429Y-94114286D01*
X158747143Y-94114286D01*
X158632857Y-94057143D01*
X158575714Y-93942857D01*
X158575714Y-93657143D01*
X158518571Y-93542857D01*
X159032857Y-92457143D02*
X157832857Y-92457143D01*
X158975714Y-92457143D02*
X159032857Y-92571429D01*
X159032857Y-92800000D01*
X158975714Y-92914286D01*
X158918571Y-92971429D01*
X158804286Y-93028572D01*
X158461429Y-93028572D01*
X158347143Y-92971429D01*
X158290000Y-92914286D01*
X158232857Y-92800000D01*
X158232857Y-92571429D01*
X158290000Y-92457143D01*
X158975714Y-91828572D02*
X159032857Y-91828572D01*
X159147143Y-91885715D01*
X159204286Y-91942858D01*
X159032857Y-90228571D02*
X158975714Y-90342857D01*
X158918571Y-90400000D01*
X158804286Y-90457143D01*
X158461429Y-90457143D01*
X158347143Y-90400000D01*
X158290000Y-90342857D01*
X158232857Y-90228571D01*
X158232857Y-90057143D01*
X158290000Y-89942857D01*
X158347143Y-89885714D01*
X158461429Y-89828571D01*
X158804286Y-89828571D01*
X158918571Y-89885714D01*
X158975714Y-89942857D01*
X159032857Y-90057143D01*
X159032857Y-90228571D01*
X158232857Y-89314286D02*
X159432857Y-89314286D01*
X158290000Y-89314286D02*
X158232857Y-89200000D01*
X158232857Y-88971429D01*
X158290000Y-88857143D01*
X158347143Y-88800000D01*
X158461429Y-88742857D01*
X158804286Y-88742857D01*
X158918571Y-88800000D01*
X158975714Y-88857143D01*
X159032857Y-88971429D01*
X159032857Y-89200000D01*
X158975714Y-89314286D01*
X158975714Y-87771429D02*
X159032857Y-87885715D01*
X159032857Y-88114286D01*
X158975714Y-88228572D01*
X158861429Y-88285715D01*
X158404286Y-88285715D01*
X158290000Y-88228572D01*
X158232857Y-88114286D01*
X158232857Y-87885715D01*
X158290000Y-87771429D01*
X158404286Y-87714286D01*
X158518571Y-87714286D01*
X158632857Y-88285715D01*
X158232857Y-87200001D02*
X159032857Y-87200001D01*
X158347143Y-87200001D02*
X158290000Y-87142858D01*
X158232857Y-87028572D01*
X158232857Y-86857144D01*
X158290000Y-86742858D01*
X158404286Y-86685715D01*
X159032857Y-86685715D01*
X159812857Y-109200000D02*
X159812857Y-109428571D01*
X159870000Y-109542857D01*
X159927143Y-109600000D01*
X160098571Y-109714286D01*
X160327143Y-109771429D01*
X160784286Y-109771429D01*
X160898571Y-109714286D01*
X160955714Y-109657143D01*
X161012857Y-109542857D01*
X161012857Y-109314286D01*
X160955714Y-109200000D01*
X160898571Y-109142857D01*
X160784286Y-109085714D01*
X160498571Y-109085714D01*
X160384286Y-109142857D01*
X160327143Y-109200000D01*
X160270000Y-109314286D01*
X160270000Y-109542857D01*
X160327143Y-109657143D01*
X160384286Y-109714286D01*
X160498571Y-109771429D01*
X160898571Y-108571429D02*
X160955714Y-108514286D01*
X161012857Y-108571429D01*
X160955714Y-108628572D01*
X160898571Y-108571429D01*
X161012857Y-108571429D01*
X159927143Y-108057143D02*
X159870000Y-108000000D01*
X159812857Y-107885714D01*
X159812857Y-107600000D01*
X159870000Y-107485714D01*
X159927143Y-107428571D01*
X160041429Y-107371428D01*
X160155714Y-107371428D01*
X160327143Y-107428571D01*
X161012857Y-108114285D01*
X161012857Y-107371428D01*
X161012857Y-105942857D02*
X160212857Y-105942857D01*
X160327143Y-105942857D02*
X160270000Y-105885714D01*
X160212857Y-105771428D01*
X160212857Y-105600000D01*
X160270000Y-105485714D01*
X160384286Y-105428571D01*
X161012857Y-105428571D01*
X160384286Y-105428571D02*
X160270000Y-105371428D01*
X160212857Y-105257142D01*
X160212857Y-105085714D01*
X160270000Y-104971428D01*
X160384286Y-104914285D01*
X161012857Y-104914285D01*
X161012857Y-104342857D02*
X160212857Y-104342857D01*
X160327143Y-104342857D02*
X160270000Y-104285714D01*
X160212857Y-104171428D01*
X160212857Y-104000000D01*
X160270000Y-103885714D01*
X160384286Y-103828571D01*
X161012857Y-103828571D01*
X160384286Y-103828571D02*
X160270000Y-103771428D01*
X160212857Y-103657142D01*
X160212857Y-103485714D01*
X160270000Y-103371428D01*
X160384286Y-103314285D01*
X161012857Y-103314285D01*
X160212857Y-101999999D02*
X160212857Y-101542856D01*
X159812857Y-101828571D02*
X160841429Y-101828571D01*
X160955714Y-101771428D01*
X161012857Y-101657142D01*
X161012857Y-101542856D01*
X161012857Y-101142857D02*
X159812857Y-101142857D01*
X161012857Y-100628571D02*
X160384286Y-100628571D01*
X160270000Y-100685714D01*
X160212857Y-100800000D01*
X160212857Y-100971428D01*
X160270000Y-101085714D01*
X160327143Y-101142857D01*
X161012857Y-100057143D02*
X160212857Y-100057143D01*
X160441429Y-100057143D02*
X160327143Y-100000000D01*
X160270000Y-99942857D01*
X160212857Y-99828571D01*
X160212857Y-99714286D01*
X160212857Y-98800000D02*
X161012857Y-98800000D01*
X160212857Y-99314286D02*
X160841429Y-99314286D01*
X160955714Y-99257143D01*
X161012857Y-99142857D01*
X161012857Y-98971429D01*
X160955714Y-98857143D01*
X160898571Y-98800000D01*
D12*
X146700000Y-105525000D02*
X147200000Y-105525000D01*
X147200000Y-104475000D02*
X146700000Y-104475000D01*
X138650000Y-89500000D02*
X138650000Y-84400000D01*
X138650000Y-95600000D02*
X138650000Y-90500000D01*
X138650000Y-74500000D02*
X138650000Y-69400000D01*
X138650000Y-80600000D02*
X138650000Y-75500000D01*
X138650000Y-104500000D02*
X138650000Y-99400000D01*
X138650000Y-110600000D02*
X138650000Y-105500000D01*
X156350000Y-75500000D02*
X156350000Y-80600000D01*
X156350000Y-69400000D02*
X156350000Y-74500000D01*
D13*
X146933333Y-107045238D02*
X146900000Y-106997619D01*
X146876191Y-107045238D02*
X146876191Y-106945238D01*
X146914286Y-106945238D01*
X146923810Y-106950000D01*
X146928571Y-106954762D01*
X146933333Y-106964286D01*
X146933333Y-106978571D01*
X146928571Y-106988095D01*
X146923810Y-106992857D01*
X146914286Y-106997619D01*
X146876191Y-106997619D01*
X146971429Y-106954762D02*
X146976191Y-106950000D01*
X146985714Y-106945238D01*
X147009524Y-106945238D01*
X147019048Y-106950000D01*
X147023810Y-106954762D01*
X147028571Y-106964286D01*
X147028571Y-106973810D01*
X147023810Y-106988095D01*
X146966667Y-107045238D01*
X147028571Y-107045238D01*
X135923810Y-89945238D02*
X135923810Y-90026190D01*
X135928571Y-90035714D01*
X135933333Y-90040476D01*
X135942857Y-90045238D01*
X135961905Y-90045238D01*
X135971429Y-90040476D01*
X135976190Y-90035714D01*
X135980952Y-90026190D01*
X135980952Y-89945238D01*
X136080952Y-90045238D02*
X136023810Y-90045238D01*
X136052381Y-90045238D02*
X136052381Y-89945238D01*
X136042857Y-89959524D01*
X136033333Y-89969048D01*
X136023810Y-89973810D01*
X134923810Y-74945238D02*
X134923810Y-75026190D01*
X134928571Y-75035714D01*
X134933333Y-75040476D01*
X134942857Y-75045238D01*
X134961905Y-75045238D01*
X134971429Y-75040476D01*
X134976190Y-75035714D01*
X134980952Y-75026190D01*
X134980952Y-74945238D01*
X135023810Y-74954762D02*
X135028572Y-74950000D01*
X135038095Y-74945238D01*
X135061905Y-74945238D01*
X135071429Y-74950000D01*
X135076191Y-74954762D01*
X135080952Y-74964286D01*
X135080952Y-74973810D01*
X135076191Y-74988095D01*
X135019048Y-75045238D01*
X135080952Y-75045238D01*
X134923810Y-104945238D02*
X134923810Y-105026190D01*
X134928571Y-105035714D01*
X134933333Y-105040476D01*
X134942857Y-105045238D01*
X134961905Y-105045238D01*
X134971429Y-105040476D01*
X134976190Y-105035714D01*
X134980952Y-105026190D01*
X134980952Y-104945238D01*
X135071429Y-104978571D02*
X135071429Y-105045238D01*
X135047619Y-104940476D02*
X135023810Y-105011905D01*
X135085714Y-105011905D01*
X158923810Y-74945238D02*
X158923810Y-75026190D01*
X158928571Y-75035714D01*
X158933333Y-75040476D01*
X158942857Y-75045238D01*
X158961905Y-75045238D01*
X158971429Y-75040476D01*
X158976190Y-75035714D01*
X158980952Y-75026190D01*
X158980952Y-74945238D01*
X159076191Y-74945238D02*
X159028572Y-74945238D01*
X159023810Y-74992857D01*
X159028572Y-74988095D01*
X159038095Y-74983333D01*
X159061905Y-74983333D01*
X159071429Y-74988095D01*
X159076191Y-74992857D01*
X159080952Y-75002381D01*
X159080952Y-75026190D01*
X159076191Y-75035714D01*
X159071429Y-75040476D01*
X159061905Y-75045238D01*
X159038095Y-75045238D01*
X159028572Y-75040476D01*
X159023810Y-75035714D01*
M02*
