G04 #@! TF.FileFunction,Copper,L2,Inr,Signal*
%FSLAX46Y46*%
G04 Gerber Fmt 4.6, Leading zero omitted, Abs format (unit mm)*
G04 Created by KiCad (PCBNEW 4.0.2-stable) date Tue May 10 00:23:55 2016*
%MOMM*%
G01*
G04 APERTURE LIST*
%ADD10C,0.100000*%
%ADD11C,0.600000*%
G04 APERTURE END LIST*
D10*
D11*
X135250000Y-109520000D03*
X135250000Y-100480000D03*
X135250000Y-94520000D03*
X135250000Y-85480000D03*
X135250000Y-79520000D03*
X135250000Y-70480000D03*
X159750000Y-70480000D03*
X159750000Y-79520000D03*
X156620000Y-79520000D03*
X156600000Y-70500000D03*
X138380000Y-70480000D03*
X138380000Y-79520000D03*
X138400000Y-85500000D03*
X138400000Y-94500000D03*
X138400000Y-100500000D03*
X138400000Y-109500000D03*
X147800000Y-105000000D03*
X147400000Y-105300000D03*
X147400000Y-104700000D03*
D10*
G36*
X162775000Y-71175000D02*
X156600000Y-71175000D01*
X156513896Y-71192127D01*
X156440901Y-71240901D01*
X156392127Y-71313896D01*
X156375000Y-71400000D01*
X156375000Y-78600000D01*
X156392127Y-78686104D01*
X156440901Y-78759099D01*
X156513896Y-78807873D01*
X156600000Y-78825000D01*
X162775000Y-78825000D01*
X162775000Y-111775000D01*
X132225000Y-111775000D01*
X132225000Y-108825000D01*
X138400000Y-108825000D01*
X138486104Y-108807873D01*
X138559099Y-108759099D01*
X138607873Y-108686104D01*
X138625000Y-108600000D01*
X138625000Y-101400000D01*
X138607873Y-101313896D01*
X138559099Y-101240901D01*
X138486104Y-101192127D01*
X138400000Y-101175000D01*
X132225000Y-101175000D01*
X132225000Y-93825000D01*
X138400000Y-93825000D01*
X138486104Y-93807873D01*
X138559099Y-93759099D01*
X138607873Y-93686104D01*
X138625000Y-93600000D01*
X138625000Y-86400000D01*
X138607873Y-86313896D01*
X138559099Y-86240901D01*
X138486104Y-86192127D01*
X138400000Y-86175000D01*
X132225000Y-86175000D01*
X132225000Y-78825000D01*
X138400000Y-78825000D01*
X138486104Y-78807873D01*
X138559099Y-78759099D01*
X138607873Y-78686104D01*
X138625000Y-78600000D01*
X138625000Y-71400000D01*
X138607873Y-71313896D01*
X138559099Y-71240901D01*
X138486104Y-71192127D01*
X138400000Y-71175000D01*
X132225000Y-71175000D01*
X132225000Y-68225000D01*
X162775000Y-68225000D01*
X162775000Y-71175000D01*
X162775000Y-71175000D01*
G37*
X162775000Y-71175000D02*
X156600000Y-71175000D01*
X156513896Y-71192127D01*
X156440901Y-71240901D01*
X156392127Y-71313896D01*
X156375000Y-71400000D01*
X156375000Y-78600000D01*
X156392127Y-78686104D01*
X156440901Y-78759099D01*
X156513896Y-78807873D01*
X156600000Y-78825000D01*
X162775000Y-78825000D01*
X162775000Y-111775000D01*
X132225000Y-111775000D01*
X132225000Y-108825000D01*
X138400000Y-108825000D01*
X138486104Y-108807873D01*
X138559099Y-108759099D01*
X138607873Y-108686104D01*
X138625000Y-108600000D01*
X138625000Y-101400000D01*
X138607873Y-101313896D01*
X138559099Y-101240901D01*
X138486104Y-101192127D01*
X138400000Y-101175000D01*
X132225000Y-101175000D01*
X132225000Y-93825000D01*
X138400000Y-93825000D01*
X138486104Y-93807873D01*
X138559099Y-93759099D01*
X138607873Y-93686104D01*
X138625000Y-93600000D01*
X138625000Y-86400000D01*
X138607873Y-86313896D01*
X138559099Y-86240901D01*
X138486104Y-86192127D01*
X138400000Y-86175000D01*
X132225000Y-86175000D01*
X132225000Y-78825000D01*
X138400000Y-78825000D01*
X138486104Y-78807873D01*
X138559099Y-78759099D01*
X138607873Y-78686104D01*
X138625000Y-78600000D01*
X138625000Y-71400000D01*
X138607873Y-71313896D01*
X138559099Y-71240901D01*
X138486104Y-71192127D01*
X138400000Y-71175000D01*
X132225000Y-71175000D01*
X132225000Y-68225000D01*
X162775000Y-68225000D01*
X162775000Y-71175000D01*
M02*
