<?xml version="1.0" standalone="no"?>
 <!DOCTYPE svg PUBLIC "-//W3C//DTD SVG 1.1//EN" 
 "http://www.w3.org/Graphics/SVG/1.1/DTD/svg11.dtd"> 
<svg xmlns="http://www.w3.org/2000/svg" version="1.1" 
    width="8.6614cm" height="6.1087cm" viewBox="0 0 34100 24050 ">
<title>SVG Picture created as vna_r1_demod-Eco1.User.svg date 2018/05/20 15:43:41 </title>
  <desc>Picture generated by PCBNEW </desc>
<g style="fill:#000000; fill-opacity:1;stroke:#000000; stroke-opacity:1;
stroke-linecap:round; stroke-linejoin:round; "
 transform="translate(0 0) scale(1 1)">
</g>
<g style="fill:#008400; fill-opacity:0.0; 
stroke:#008400; stroke-width:-0.000393701; stroke-opacity:1; 
stroke-linecap:round; stroke-linejoin:round;">
</g>
<g style="fill:#008400; fill-opacity:0.0; 
stroke:#008400; stroke-width:78.7402; stroke-opacity:1; 
stroke-linecap:round; stroke-linejoin:round;">
<circle cx="2831.93" cy="17779.5" r="492.52" /> 
<circle cx="31375.2" cy="17878" r="492.126" /> 
<circle cx="23009.1" cy="7937.01" r="492.126" /> 
<circle cx="12182.3" cy="7937.01" r="492.52" /> 
<circle cx="2733.5" cy="7937.01" r="492.52" /> 
<circle cx="2635.08" cy="1913.39" r="492.52" /> 
<circle cx="17005.2" cy="1933.07" r="492.52" /> 
<circle cx="31276.8" cy="1933.07" r="493.698" /> 
<circle cx="31276.8" cy="8015.75" r="493.698" /> 
<path d="M29308 6854
L28619 6854
" />
<path d="M30587 5574
L29308 6854
" />
<path d="M32457 5574
L30587 5574
" />
<path d="M32457 18960
L32457 5574
" />
<path d="M30194 18960
L32457 18960
" />
<path d="M29406 18173
L30194 18960
" />
<path d="M28619 18173
L29406 18173
" />
<path d="M28619 16795
L28619 18173
" />
<path d="M30194 16795
L28619 16795
" />
<path d="M30194 9019
L30194 16795
" />
<path d="M28619 9019
L30194 9019
" />
<path d="M28619 6854
L28619 9019
" />
<path d="M1552 3409
L1552 1145
" />
<path d="M1847.68 850.394 A295.276 295.276 0.0 0 0 1552.4 1145.67 " />
<path d="M32162 850
L1847 850
" />
<path d="M32457.9 1145.67 A295.276 295.276 0.0 0 0 32162.6 850.394 " />
<path d="M32457 3409
L32457 1145
" />
<path d="M30587 3409
L32457 3409
" />
<path d="M30587 2917
L30587 3409
" />
<path d="M17497 2917
L30587 2917
" />
<path d="M17497 4098
L17497 2917
" />
<path d="M16709 4098
L17497 4098
" />
<path d="M16709 2917
L16709 4098
" />
<path d="M3422 2917
L16709 2917
" />
<path d="M3422 3409
L3422 2917
" />
<path d="M1552 3409
L3422 3409
" />
<path d="M5194 8232
L5686 8232
" />
<path d="M3422 6460
L5194 8232
" />
<path d="M3422 5673
L3422 6460
" />
<path d="M1552 5673
L3422 5673
" />
<path d="M1552 18862
L1552 5673
" />
<path d="M4406 18862
L1552 18862
" />
<path d="M5095 18173
L4406 18862
" />
<path d="M5686 18173
L5095 18173
" />
<path d="M5686 16795
L5686 18173
" />
<path d="M3816 16795
L5686 16795
" />
<path d="M3816 9019
L3816 16795
" />
<path d="M5686 9019
L3816 9019
" />
<path d="M5686 8232
L5686 9019
" />
<path d="M21926 16795
L13264 16795
" />
<path d="M21926 9019
L21926 16795
" />
<path d="M13264 9019
L21926 9019
" />
<path d="M13264 16795
L13264 9019
" />
<path d="M27831 18173
L6276 18173
" />
<path d="M27831 16795
L27831 18173
" />
<path d="M24091 16795
L27831 16795
" />
<path d="M24091 9019
L24091 16795
" />
<path d="M27831 9019
L24091 9019
" />
<path d="M27831 6854
L27831 9019
" />
<path d="M17497 6854
L27831 6854
" />
<path d="M17497 4885
L17497 6854
" />
<path d="M16709 4885
L17497 4885
" />
<path d="M16709 6854
L16709 4885
" />
<path d="M7851 6854
L16709 6854
" />
<path d="M6473 8232
L7851 6854
" />
<path d="M6276 8232
L6473 8232
" />
<path d="M6276 9019
L6276 8232
" />
<path d="M11099 9019
L6276 9019
" />
<path d="M11099 16795
L11099 9019
" />
<path d="M6276 16795
L11099 16795
" />
<path d="M6276 18173
L6276 16795
" />
</g>
<g style="fill:#C2C200; fill-opacity:0.0; 
stroke:#C2C200; stroke-width:78.7402; stroke-opacity:1; 
stroke-linecap:round; stroke-linejoin:round;">
</g>
<g style="fill:#C2C200; fill-opacity:0.0; 
stroke:#C2C200; stroke-width:59.0551; stroke-opacity:1; 
stroke-linecap:round; stroke-linejoin:round;">
<path d="M19505 4059
L18324 4059
" />
<path d="M19505 3212
L19505 4059
" />
<path d="M26572 3212
L19505 3212
" />
<path d="M26572 4059
L26572 3212
" />
<path d="M27753 4059
L26572 4059
" />
<path d="M27753 4925
L27753 4059
" />
<path d="M26591 4925
L27753 4925
" />
<path d="M26591 5771
L26591 4925
" />
<path d="M26572 5771
L26591 5771
" />
<path d="M19505 5771
L26572 5771
" />
<path d="M19505 4925
L19505 5771
" />
<path d="M18324 4925
L19505 4925
" />
<path d="M18324 4905
L18324 4925
" />
<path d="M18324 4059
L18324 4905
" />
<path d="M7635 4059
L7635 3212
" />
<path d="M6453 4059
L7635 4059
" />
<path d="M6453 4078
L6453 4059
" />
<path d="M6453 4925
L6453 4078
" />
<path d="M7635 4925
L6453 4925
" />
<path d="M7635 5771
L7635 4925
" />
<path d="M14702 5771
L7635 5771
" />
<path d="M14702 4925
L14702 5771
" />
<path d="M15883 4925
L14702 4925
" />
<path d="M15883 4059
L15883 4925
" />
<path d="M14702 4059
L15883 4059
" />
<path d="M14702 3212
L14702 4059
" />
<path d="M7635 3212
L14702 3212
" />
<path d="M32162 850
L1847 850
" />
<path d="M32457 22405
L32457 1145
" />
<path d="M1847 22700
L32162 22700
" />
<path d="M1552 1145
L1552 22405
" />
<path d="M32457.9 1145.67 A295.276 295.276 0.0 0 0 32162.6 850.394 " />
<path d="M32162.6 22700.8 A295.276 295.276 0.0 0 0 32457.9 22405.5 " />
<path d="M1552.4 22405.5 A295.276 295.276 0.0 0 0 1847.68 22700.8 " />
<path d="M1847.68 850.394 A295.276 295.276 0.0 0 0 1552.4 1145.67 " />
</g> 
</svg>
