G04 #@! TF.FileFunction,Legend,Top*
%FSLAX46Y46*%
G04 Gerber Fmt 4.6, Leading zero omitted, Abs format (unit mm)*
G04 Created by KiCad (PCBNEW 4.0.7) date Sun May 20 15:45:54 2018*
%MOMM*%
%LPD*%
G01*
G04 APERTURE LIST*
%ADD10C,0.100000*%
%ADD11C,0.250000*%
%ADD12C,0.150000*%
G04 APERTURE END LIST*
D10*
D11*
X132697619Y-62785714D02*
X132935714Y-63452381D01*
X133173810Y-62785714D01*
X133554762Y-62785714D02*
X133554762Y-63452381D01*
X133554762Y-62880952D02*
X133602381Y-62833333D01*
X133697619Y-62785714D01*
X133840477Y-62785714D01*
X133935715Y-62833333D01*
X133983334Y-62928571D01*
X133983334Y-63452381D01*
X134888096Y-63452381D02*
X134888096Y-62928571D01*
X134840477Y-62833333D01*
X134745239Y-62785714D01*
X134554762Y-62785714D01*
X134459524Y-62833333D01*
X134888096Y-63404762D02*
X134792858Y-63452381D01*
X134554762Y-63452381D01*
X134459524Y-63404762D01*
X134411905Y-63309524D01*
X134411905Y-63214286D01*
X134459524Y-63119048D01*
X134554762Y-63071429D01*
X134792858Y-63071429D01*
X134888096Y-63023810D01*
X136554763Y-63452381D02*
X136554763Y-62452381D01*
X136554763Y-63404762D02*
X136459525Y-63452381D01*
X136269048Y-63452381D01*
X136173810Y-63404762D01*
X136126191Y-63357143D01*
X136078572Y-63261905D01*
X136078572Y-62976190D01*
X136126191Y-62880952D01*
X136173810Y-62833333D01*
X136269048Y-62785714D01*
X136459525Y-62785714D01*
X136554763Y-62833333D01*
X137411906Y-63404762D02*
X137316668Y-63452381D01*
X137126191Y-63452381D01*
X137030953Y-63404762D01*
X136983334Y-63309524D01*
X136983334Y-62928571D01*
X137030953Y-62833333D01*
X137126191Y-62785714D01*
X137316668Y-62785714D01*
X137411906Y-62833333D01*
X137459525Y-62928571D01*
X137459525Y-63023810D01*
X136983334Y-63119048D01*
X137888096Y-63452381D02*
X137888096Y-62785714D01*
X137888096Y-62880952D02*
X137935715Y-62833333D01*
X138030953Y-62785714D01*
X138173811Y-62785714D01*
X138269049Y-62833333D01*
X138316668Y-62928571D01*
X138316668Y-63452381D01*
X138316668Y-62928571D02*
X138364287Y-62833333D01*
X138459525Y-62785714D01*
X138602382Y-62785714D01*
X138697620Y-62833333D01*
X138745239Y-62928571D01*
X138745239Y-63452381D01*
X139364286Y-63452381D02*
X139269048Y-63404762D01*
X139221429Y-63357143D01*
X139173810Y-63261905D01*
X139173810Y-62976190D01*
X139221429Y-62880952D01*
X139269048Y-62833333D01*
X139364286Y-62785714D01*
X139507144Y-62785714D01*
X139602382Y-62833333D01*
X139650001Y-62880952D01*
X139697620Y-62976190D01*
X139697620Y-63261905D01*
X139650001Y-63357143D01*
X139602382Y-63404762D01*
X139507144Y-63452381D01*
X139364286Y-63452381D01*
X140554763Y-63452381D02*
X140554763Y-62452381D01*
X140554763Y-63404762D02*
X140459525Y-63452381D01*
X140269048Y-63452381D01*
X140173810Y-63404762D01*
X140126191Y-63357143D01*
X140078572Y-63261905D01*
X140078572Y-62976190D01*
X140126191Y-62880952D01*
X140173810Y-62833333D01*
X140269048Y-62785714D01*
X140459525Y-62785714D01*
X140554763Y-62833333D01*
X141745239Y-62547619D02*
X141792858Y-62500000D01*
X141888096Y-62452381D01*
X142126192Y-62452381D01*
X142221430Y-62500000D01*
X142269049Y-62547619D01*
X142316668Y-62642857D01*
X142316668Y-62738095D01*
X142269049Y-62880952D01*
X141697620Y-63452381D01*
X142316668Y-63452381D01*
X142935715Y-62452381D02*
X143030954Y-62452381D01*
X143126192Y-62500000D01*
X143173811Y-62547619D01*
X143221430Y-62642857D01*
X143269049Y-62833333D01*
X143269049Y-63071429D01*
X143221430Y-63261905D01*
X143173811Y-63357143D01*
X143126192Y-63404762D01*
X143030954Y-63452381D01*
X142935715Y-63452381D01*
X142840477Y-63404762D01*
X142792858Y-63357143D01*
X142745239Y-63261905D01*
X142697620Y-63071429D01*
X142697620Y-62833333D01*
X142745239Y-62642857D01*
X142792858Y-62547619D01*
X142840477Y-62500000D01*
X142935715Y-62452381D01*
X144221430Y-63452381D02*
X143650001Y-63452381D01*
X143935715Y-63452381D02*
X143935715Y-62452381D01*
X143840477Y-62595238D01*
X143745239Y-62690476D01*
X143650001Y-62738095D01*
X144792858Y-62880952D02*
X144697620Y-62833333D01*
X144650001Y-62785714D01*
X144602382Y-62690476D01*
X144602382Y-62642857D01*
X144650001Y-62547619D01*
X144697620Y-62500000D01*
X144792858Y-62452381D01*
X144983335Y-62452381D01*
X145078573Y-62500000D01*
X145126192Y-62547619D01*
X145173811Y-62642857D01*
X145173811Y-62690476D01*
X145126192Y-62785714D01*
X145078573Y-62833333D01*
X144983335Y-62880952D01*
X144792858Y-62880952D01*
X144697620Y-62928571D01*
X144650001Y-62976190D01*
X144602382Y-63071429D01*
X144602382Y-63261905D01*
X144650001Y-63357143D01*
X144697620Y-63404762D01*
X144792858Y-63452381D01*
X144983335Y-63452381D01*
X145078573Y-63404762D01*
X145126192Y-63357143D01*
X145173811Y-63261905D01*
X145173811Y-63071429D01*
X145126192Y-62976190D01*
X145078573Y-62928571D01*
X144983335Y-62880952D01*
X145602382Y-63357143D02*
X145650001Y-63404762D01*
X145602382Y-63452381D01*
X145554763Y-63404762D01*
X145602382Y-63357143D01*
X145602382Y-63452381D01*
X146269048Y-62452381D02*
X146364287Y-62452381D01*
X146459525Y-62500000D01*
X146507144Y-62547619D01*
X146554763Y-62642857D01*
X146602382Y-62833333D01*
X146602382Y-63071429D01*
X146554763Y-63261905D01*
X146507144Y-63357143D01*
X146459525Y-63404762D01*
X146364287Y-63452381D01*
X146269048Y-63452381D01*
X146173810Y-63404762D01*
X146126191Y-63357143D01*
X146078572Y-63261905D01*
X146030953Y-63071429D01*
X146030953Y-62833333D01*
X146078572Y-62642857D01*
X146126191Y-62547619D01*
X146173810Y-62500000D01*
X146269048Y-62452381D01*
X147507144Y-62452381D02*
X147030953Y-62452381D01*
X146983334Y-62928571D01*
X147030953Y-62880952D01*
X147126191Y-62833333D01*
X147364287Y-62833333D01*
X147459525Y-62880952D01*
X147507144Y-62928571D01*
X147554763Y-63023810D01*
X147554763Y-63261905D01*
X147507144Y-63357143D01*
X147459525Y-63404762D01*
X147364287Y-63452381D01*
X147126191Y-63452381D01*
X147030953Y-63404762D01*
X146983334Y-63357143D01*
X143252381Y-68757142D02*
X143252381Y-69233333D01*
X142252381Y-69233333D01*
X142252381Y-68233333D02*
X142252381Y-68042856D01*
X142300000Y-67947618D01*
X142395238Y-67852380D01*
X142585714Y-67804761D01*
X142919048Y-67804761D01*
X143109524Y-67852380D01*
X143204762Y-67947618D01*
X143252381Y-68042856D01*
X143252381Y-68233333D01*
X143204762Y-68328571D01*
X143109524Y-68423809D01*
X142919048Y-68471428D01*
X142585714Y-68471428D01*
X142395238Y-68423809D01*
X142300000Y-68328571D01*
X142252381Y-68233333D01*
X143252381Y-66614285D02*
X142252381Y-66614285D01*
X143252381Y-66138095D02*
X142252381Y-66138095D01*
X143252381Y-65566666D01*
X142252381Y-65566666D01*
X122738096Y-26652381D02*
X122404762Y-26176190D01*
X122166667Y-26652381D02*
X122166667Y-25652381D01*
X122547620Y-25652381D01*
X122642858Y-25700000D01*
X122690477Y-25747619D01*
X122738096Y-25842857D01*
X122738096Y-25985714D01*
X122690477Y-26080952D01*
X122642858Y-26128571D01*
X122547620Y-26176190D01*
X122166667Y-26176190D01*
X123500001Y-26128571D02*
X123166667Y-26128571D01*
X123166667Y-26652381D02*
X123166667Y-25652381D01*
X123642858Y-25652381D01*
X124785715Y-26652381D02*
X124785715Y-25652381D01*
X125261905Y-26652381D02*
X125261905Y-25652381D01*
X125833334Y-26652381D01*
X125833334Y-25652381D01*
X185471429Y-26252381D02*
X185138095Y-25776190D01*
X184900000Y-26252381D02*
X184900000Y-25252381D01*
X185280953Y-25252381D01*
X185376191Y-25300000D01*
X185423810Y-25347619D01*
X185471429Y-25442857D01*
X185471429Y-25585714D01*
X185423810Y-25680952D01*
X185376191Y-25728571D01*
X185280953Y-25776190D01*
X184900000Y-25776190D01*
X186233334Y-25728571D02*
X185900000Y-25728571D01*
X185900000Y-26252381D02*
X185900000Y-25252381D01*
X186376191Y-25252381D01*
X187709524Y-25252381D02*
X187900001Y-25252381D01*
X187995239Y-25300000D01*
X188090477Y-25395238D01*
X188138096Y-25585714D01*
X188138096Y-25919048D01*
X188090477Y-26109524D01*
X187995239Y-26204762D01*
X187900001Y-26252381D01*
X187709524Y-26252381D01*
X187614286Y-26204762D01*
X187519048Y-26109524D01*
X187471429Y-25919048D01*
X187471429Y-25585714D01*
X187519048Y-25395238D01*
X187614286Y-25300000D01*
X187709524Y-25252381D01*
X188566667Y-25252381D02*
X188566667Y-26061905D01*
X188614286Y-26157143D01*
X188661905Y-26204762D01*
X188757143Y-26252381D01*
X188947620Y-26252381D01*
X189042858Y-26204762D01*
X189090477Y-26157143D01*
X189138096Y-26061905D01*
X189138096Y-25252381D01*
X189471429Y-25252381D02*
X190042858Y-25252381D01*
X189757143Y-26252381D02*
X189757143Y-25252381D01*
X184242857Y-66557143D02*
X184195238Y-66604762D01*
X184052381Y-66652381D01*
X183957143Y-66652381D01*
X183814285Y-66604762D01*
X183719047Y-66509524D01*
X183671428Y-66414286D01*
X183623809Y-66223810D01*
X183623809Y-66080952D01*
X183671428Y-65890476D01*
X183719047Y-65795238D01*
X183814285Y-65700000D01*
X183957143Y-65652381D01*
X184052381Y-65652381D01*
X184195238Y-65700000D01*
X184242857Y-65747619D01*
X184671428Y-66652381D02*
X184671428Y-65652381D01*
X185052381Y-65652381D01*
X185147619Y-65700000D01*
X185195238Y-65747619D01*
X185242857Y-65842857D01*
X185242857Y-65985714D01*
X185195238Y-66080952D01*
X185147619Y-66128571D01*
X185052381Y-66176190D01*
X184671428Y-66176190D01*
X186147619Y-66652381D02*
X185671428Y-66652381D01*
X185671428Y-65652381D01*
X187814286Y-66652381D02*
X187480952Y-66176190D01*
X187242857Y-66652381D02*
X187242857Y-65652381D01*
X187623810Y-65652381D01*
X187719048Y-65700000D01*
X187766667Y-65747619D01*
X187814286Y-65842857D01*
X187814286Y-65985714D01*
X187766667Y-66080952D01*
X187719048Y-66128571D01*
X187623810Y-66176190D01*
X187242857Y-66176190D01*
X188242857Y-66128571D02*
X188576191Y-66128571D01*
X188719048Y-66652381D02*
X188242857Y-66652381D01*
X188242857Y-65652381D01*
X188719048Y-65652381D01*
X189004762Y-65652381D02*
X189338095Y-66652381D01*
X189671429Y-65652381D01*
X122323810Y-66557143D02*
X122276191Y-66604762D01*
X122133334Y-66652381D01*
X122038096Y-66652381D01*
X121895238Y-66604762D01*
X121800000Y-66509524D01*
X121752381Y-66414286D01*
X121704762Y-66223810D01*
X121704762Y-66080952D01*
X121752381Y-65890476D01*
X121800000Y-65795238D01*
X121895238Y-65700000D01*
X122038096Y-65652381D01*
X122133334Y-65652381D01*
X122276191Y-65700000D01*
X122323810Y-65747619D01*
X122752381Y-66652381D02*
X122752381Y-65652381D01*
X123133334Y-65652381D01*
X123228572Y-65700000D01*
X123276191Y-65747619D01*
X123323810Y-65842857D01*
X123323810Y-65985714D01*
X123276191Y-66080952D01*
X123228572Y-66128571D01*
X123133334Y-66176190D01*
X122752381Y-66176190D01*
X124228572Y-66652381D02*
X123752381Y-66652381D01*
X123752381Y-65652381D01*
X125657144Y-66128571D02*
X125323810Y-66128571D01*
X125323810Y-66652381D02*
X125323810Y-65652381D01*
X125800001Y-65652381D01*
X126085715Y-65652381D02*
X126323810Y-66652381D01*
X126514287Y-65938095D01*
X126704763Y-66652381D01*
X126942858Y-65652381D01*
X127323810Y-66652381D02*
X127323810Y-65652381D01*
X127561905Y-65652381D01*
X127704763Y-65700000D01*
X127800001Y-65795238D01*
X127847620Y-65890476D01*
X127895239Y-66080952D01*
X127895239Y-66223810D01*
X127847620Y-66414286D01*
X127800001Y-66509524D01*
X127704763Y-66604762D01*
X127561905Y-66652381D01*
X127323810Y-66652381D01*
D12*
X126599000Y-55401060D02*
X126299280Y-55152140D01*
X126299280Y-55152140D02*
X126149420Y-55050540D01*
X126149420Y-55050540D02*
X126997780Y-55050540D01*
X125097860Y-55751580D02*
X126898720Y-55751580D01*
X125097860Y-55751580D02*
X125097860Y-55101340D01*
X125097860Y-51250700D02*
X126898720Y-51250700D01*
X125097860Y-51250700D02*
X125097860Y-51900940D01*
X131565000Y-45250000D02*
G75*
G03X131565000Y-45250000I-100000J0D01*
G01*
X135465000Y-43250000D02*
X135465000Y-42250000D01*
X131465000Y-44750000D02*
X135465000Y-44750000D01*
X131465000Y-40750000D02*
X135465000Y-40750000D01*
X181385000Y-44000000D02*
G75*
G03X181385000Y-44000000I-100000J0D01*
G01*
X177285000Y-46000000D02*
X177285000Y-47000000D01*
X181285000Y-44500000D02*
X177285000Y-44500000D01*
X181285000Y-48500000D02*
X177285000Y-48500000D01*
X130550000Y-44400000D02*
G75*
G03X130550000Y-44400000I-100000J0D01*
G01*
X129950000Y-41900000D02*
X129950000Y-42100000D01*
X129150000Y-41900000D02*
X129950000Y-41900000D01*
X126550000Y-41900000D02*
X127350000Y-41900000D01*
X126550000Y-42100000D02*
X126550000Y-41900000D01*
X126550000Y-44200000D02*
X126550000Y-43900000D01*
X127350000Y-44200000D02*
X126550000Y-44200000D01*
X129950000Y-44200000D02*
X129150000Y-44200000D01*
X129950000Y-43900000D02*
X129950000Y-44200000D01*
X130870000Y-73250000D02*
X130870000Y-67000000D01*
X118870000Y-73250000D02*
X118870000Y-67000000D01*
X183099000Y-55401060D02*
X182799280Y-55152140D01*
X182799280Y-55152140D02*
X182649420Y-55050540D01*
X182649420Y-55050540D02*
X183497780Y-55050540D01*
X181597860Y-55751580D02*
X183398720Y-55751580D01*
X181597860Y-55751580D02*
X181597860Y-55101340D01*
X181597860Y-51250700D02*
X183398720Y-51250700D01*
X181597860Y-51250700D02*
X181597860Y-51900940D01*
X187050000Y-44400000D02*
G75*
G03X187050000Y-44400000I-100000J0D01*
G01*
X186450000Y-41900000D02*
X186450000Y-42100000D01*
X185650000Y-41900000D02*
X186450000Y-41900000D01*
X183050000Y-41900000D02*
X183850000Y-41900000D01*
X183050000Y-42100000D02*
X183050000Y-41900000D01*
X183050000Y-44200000D02*
X183050000Y-43900000D01*
X183850000Y-44200000D02*
X183050000Y-44200000D01*
X186450000Y-44200000D02*
X185650000Y-44200000D01*
X186450000Y-43900000D02*
X186450000Y-44200000D01*
X192500000Y-73500000D02*
X192500000Y-67250000D01*
X180500000Y-73500000D02*
X180500000Y-67250000D01*
X129425000Y-28350000D02*
X129425000Y-26150000D01*
X132425000Y-26150000D02*
X132425000Y-24000000D01*
X129425000Y-26150000D02*
X132425000Y-26150000D01*
X129425000Y-28350000D02*
X132425000Y-28350000D01*
X132425000Y-28350000D02*
X132425000Y-30500000D01*
X150425000Y-24000000D02*
X141425000Y-24000000D01*
X150425000Y-26150000D02*
X150425000Y-24000000D01*
X153425000Y-28350000D02*
X153425000Y-26150000D01*
X150425000Y-30500000D02*
X141425000Y-30500000D01*
X150425000Y-28350000D02*
X150425000Y-30500000D01*
X150425000Y-26150000D02*
X153425000Y-26150000D01*
X153425000Y-28350000D02*
X150425000Y-28350000D01*
X132425000Y-30500000D02*
X141425000Y-30500000D01*
X141425000Y-24000000D02*
X132425000Y-24000000D01*
X145700000Y-67400000D02*
X145200000Y-67400000D01*
X145350000Y-66600000D02*
X145200000Y-66600000D01*
X146100000Y-66600000D02*
X145950000Y-66600000D01*
X146800000Y-66600000D02*
X146700000Y-66600000D01*
X146300000Y-67400000D02*
X146800000Y-67400000D01*
X127850000Y-56625000D02*
X127850000Y-56375000D01*
X128650000Y-56375000D02*
X128650000Y-56625000D01*
X127850000Y-48900000D02*
X127850000Y-48650000D01*
X128650000Y-48650000D02*
X128650000Y-48900000D01*
X136200000Y-50975000D02*
X136700000Y-50975000D01*
X136700000Y-50025000D02*
X136200000Y-50025000D01*
X128650000Y-45875000D02*
X128650000Y-46125000D01*
X127850000Y-46125000D02*
X127850000Y-45875000D01*
X124725000Y-45300000D02*
X124725000Y-44800000D01*
X123775000Y-44800000D02*
X123775000Y-45300000D01*
X125000000Y-42275000D02*
X124500000Y-42275000D01*
X124500000Y-43225000D02*
X125000000Y-43225000D01*
X125000000Y-40775000D02*
X124500000Y-40775000D01*
X124500000Y-41725000D02*
X125000000Y-41725000D01*
X125975000Y-45300000D02*
X125975000Y-44800000D01*
X125025000Y-44800000D02*
X125025000Y-45300000D01*
X184350000Y-56625000D02*
X184350000Y-56375000D01*
X185150000Y-56375000D02*
X185150000Y-56625000D01*
X184350000Y-48900000D02*
X184350000Y-48650000D01*
X185150000Y-48650000D02*
X185150000Y-48900000D01*
X178200000Y-53775000D02*
X177700000Y-53775000D01*
X177700000Y-54725000D02*
X178200000Y-54725000D01*
X185150000Y-46150000D02*
X185150000Y-46400000D01*
X184350000Y-46400000D02*
X184350000Y-46150000D01*
X181000000Y-41775000D02*
X180500000Y-41775000D01*
X180500000Y-42725000D02*
X181000000Y-42725000D01*
X181000000Y-40525000D02*
X180500000Y-40525000D01*
X180500000Y-41475000D02*
X181000000Y-41475000D01*
X180500000Y-43975000D02*
X181000000Y-43975000D01*
X181000000Y-43025000D02*
X180500000Y-43025000D01*
X156225000Y-45050000D02*
X156225000Y-44550000D01*
X155275000Y-44550000D02*
X155275000Y-45050000D01*
X154025000Y-41950000D02*
X154025000Y-42450000D01*
X154975000Y-42450000D02*
X154975000Y-41950000D01*
X176000000Y-65525000D02*
X175500000Y-65525000D01*
X175500000Y-66475000D02*
X176000000Y-66475000D01*
X153750000Y-53025000D02*
X154250000Y-53025000D01*
X154250000Y-52075000D02*
X153750000Y-52075000D01*
X149750000Y-40525000D02*
X149250000Y-40525000D01*
X149250000Y-41475000D02*
X149750000Y-41475000D01*
X147775000Y-42700000D02*
X147775000Y-43200000D01*
X148725000Y-43200000D02*
X148725000Y-42700000D01*
X154975000Y-45050000D02*
X154975000Y-44550000D01*
X154025000Y-44550000D02*
X154025000Y-45050000D01*
X187375000Y-27650000D02*
X187125000Y-27650000D01*
X187125000Y-26850000D02*
X187375000Y-26850000D01*
X156650000Y-27650000D02*
X156400000Y-27650000D01*
X156400000Y-26850000D02*
X156650000Y-26850000D01*
X185150000Y-29900000D02*
X185150000Y-30150000D01*
X184350000Y-30150000D02*
X184350000Y-29900000D01*
X123375000Y-27650000D02*
X123125000Y-27650000D01*
X123125000Y-26850000D02*
X123375000Y-26850000D01*
X128650000Y-35125000D02*
X128650000Y-35375000D01*
X127850000Y-35375000D02*
X127850000Y-35125000D01*
X145600000Y-68650000D02*
X145600000Y-68400000D01*
X146400000Y-68400000D02*
X146400000Y-68650000D01*
X174200000Y-70025000D02*
X176200000Y-70025000D01*
X176200000Y-72975000D02*
X174200000Y-72975000D01*
X151800000Y-65180000D02*
X172120000Y-65180000D01*
X152340000Y-65730000D02*
X171560000Y-65730000D01*
X151800000Y-74280000D02*
X172120000Y-74280000D01*
X152340000Y-73730000D02*
X159710000Y-73730000D01*
X164210000Y-73730000D02*
X171560000Y-73730000D01*
X159710000Y-73730000D02*
X159710000Y-74280000D01*
X164210000Y-73730000D02*
X164210000Y-74280000D01*
X151800000Y-65180000D02*
X151800000Y-74280000D01*
X152340000Y-65730000D02*
X152340000Y-73730000D01*
X172120000Y-65180000D02*
X172120000Y-74280000D01*
X171560000Y-65730000D02*
X171560000Y-73730000D01*
X151800000Y-65180000D02*
X152340000Y-65730000D01*
X172120000Y-65180000D02*
X171560000Y-65730000D01*
X151800000Y-74280000D02*
X152340000Y-73730000D01*
X172120000Y-74280000D02*
X171560000Y-73730000D01*
X128950000Y-49975000D02*
X128450000Y-49975000D01*
X128450000Y-51025000D02*
X128950000Y-51025000D01*
X124525000Y-48000000D02*
X124525000Y-47500000D01*
X123475000Y-47500000D02*
X123475000Y-48000000D01*
X184050000Y-50775000D02*
X184550000Y-50775000D01*
X184550000Y-49725000D02*
X184050000Y-49725000D01*
X174250000Y-66925000D02*
X176250000Y-66925000D01*
X176250000Y-69075000D02*
X174250000Y-69075000D01*
X138000000Y-40975000D02*
X137500000Y-40975000D01*
X137500000Y-42025000D02*
X138000000Y-42025000D01*
X137775000Y-43450000D02*
X137775000Y-42950000D01*
X136725000Y-42950000D02*
X136725000Y-43450000D01*
X137950000Y-44475000D02*
X137450000Y-44475000D01*
X137450000Y-45525000D02*
X137950000Y-45525000D01*
X137775000Y-47000000D02*
X137775000Y-46500000D01*
X136725000Y-46500000D02*
X136725000Y-47000000D01*
X175500000Y-48275000D02*
X176000000Y-48275000D01*
X176000000Y-47225000D02*
X175500000Y-47225000D01*
X176775000Y-49700000D02*
X176775000Y-49200000D01*
X175725000Y-49200000D02*
X175725000Y-49700000D01*
X176775000Y-51750000D02*
X176775000Y-51250000D01*
X175725000Y-51250000D02*
X175725000Y-51750000D01*
X175775000Y-50700000D02*
X175775000Y-50200000D01*
X174725000Y-50200000D02*
X174725000Y-50700000D01*
X159450000Y-47225000D02*
X158950000Y-47225000D01*
X158950000Y-48275000D02*
X159450000Y-48275000D01*
X165775000Y-46950000D02*
X165775000Y-46450000D01*
X164725000Y-46450000D02*
X164725000Y-46950000D01*
X127150000Y-31825000D02*
X127150000Y-33275000D01*
X129350000Y-31100000D02*
X129350000Y-33275000D01*
X152475000Y-41970000D02*
X150025000Y-41970000D01*
X153200000Y-45270000D02*
X150025000Y-45270000D01*
X167125000Y-54475000D02*
X167125000Y-50025000D01*
X160375000Y-56000000D02*
X160375000Y-50025000D01*
X183575000Y-26150000D02*
X183575000Y-28350000D01*
X180575000Y-28350000D02*
X180575000Y-30500000D01*
X183575000Y-28350000D02*
X180575000Y-28350000D01*
X183575000Y-26150000D02*
X180575000Y-26150000D01*
X180575000Y-26150000D02*
X180575000Y-24000000D01*
X162575000Y-30500000D02*
X171575000Y-30500000D01*
X162575000Y-28350000D02*
X162575000Y-30500000D01*
X159575000Y-26150000D02*
X159575000Y-28350000D01*
X162575000Y-24000000D02*
X171575000Y-24000000D01*
X162575000Y-26150000D02*
X162575000Y-24000000D01*
X162575000Y-28350000D02*
X159575000Y-28350000D01*
X159575000Y-26150000D02*
X162575000Y-26150000D01*
X180575000Y-24000000D02*
X171575000Y-24000000D01*
X171575000Y-30500000D02*
X180575000Y-30500000D01*
X128650000Y-45400000D02*
X128400000Y-45400000D01*
X128400000Y-44600000D02*
X128650000Y-44600000D01*
X136250000Y-52725000D02*
X136750000Y-52725000D01*
X136750000Y-51775000D02*
X136250000Y-51775000D01*
X185150000Y-45400000D02*
X184900000Y-45400000D01*
X184900000Y-44600000D02*
X185150000Y-44600000D01*
X178200000Y-52525000D02*
X177700000Y-52525000D01*
X177700000Y-53475000D02*
X178200000Y-53475000D01*
X134329000Y-68988000D02*
X134329000Y-70512000D01*
X134456000Y-70893000D02*
X134456000Y-68607000D01*
X134583000Y-68353000D02*
X134583000Y-71147000D01*
X134710000Y-71401000D02*
X134710000Y-68099000D01*
X134837000Y-67972000D02*
X134837000Y-71528000D01*
X133948000Y-66448000D02*
X133948000Y-73052000D01*
X133948000Y-73052000D02*
X139790000Y-73052000D01*
X139790000Y-73052000D02*
X140552000Y-72290000D01*
X140552000Y-72290000D02*
X140552000Y-67210000D01*
X140552000Y-67210000D02*
X139790000Y-66448000D01*
X139790000Y-66448000D02*
X133948000Y-66448000D01*
X139409000Y-69750000D02*
X138647000Y-69750000D01*
X139028000Y-69369000D02*
X139028000Y-70131000D01*
X140298000Y-69750000D02*
G75*
G03X140298000Y-69750000I-3048000J0D01*
G01*
X128100000Y-41150000D02*
X127850000Y-41150000D01*
X127850000Y-40350000D02*
X128100000Y-40350000D01*
X184600000Y-41150000D02*
X184350000Y-41150000D01*
X184350000Y-40350000D02*
X184600000Y-40350000D01*
X134250000Y-51175000D02*
X133250000Y-51175000D01*
X133250000Y-49825000D02*
X134250000Y-49825000D01*
X178075000Y-51250000D02*
X178075000Y-50250000D01*
X179425000Y-50250000D02*
X179425000Y-51250000D01*
X131300000Y-51375000D02*
X130100000Y-51375000D01*
X130100000Y-49625000D02*
X131300000Y-49625000D01*
X181100000Y-49125000D02*
X182300000Y-49125000D01*
X182300000Y-50875000D02*
X181100000Y-50875000D01*
X154025000Y-49500000D02*
X154025000Y-50000000D01*
X154975000Y-50000000D02*
X154975000Y-49500000D01*
X153750000Y-54475000D02*
X154250000Y-54475000D01*
X154250000Y-53525000D02*
X153750000Y-53525000D01*
X152250000Y-57575000D02*
X150250000Y-57575000D01*
X150250000Y-55425000D02*
X152250000Y-55425000D01*
X151525000Y-51000000D02*
X151525000Y-50500000D01*
X150475000Y-50500000D02*
X150475000Y-51000000D01*
X151525000Y-53200000D02*
X151525000Y-52700000D01*
X150475000Y-52700000D02*
X150475000Y-53200000D01*
X157600000Y-56250000D02*
X157600000Y-55250000D01*
X155900000Y-55250000D02*
X155900000Y-56250000D01*
X151900000Y-48750000D02*
X151900000Y-49750000D01*
X153600000Y-49750000D02*
X153600000Y-48750000D01*
X158275000Y-49600000D02*
X156225000Y-49600000D01*
X158980000Y-52900000D02*
X156225000Y-52900000D01*
X178200000Y-69649300D02*
X178200000Y-71549300D01*
X179300000Y-69649300D02*
X179300000Y-71549300D01*
X178750000Y-70549300D02*
X178750000Y-70999300D01*
X179000000Y-70499300D02*
X178500000Y-70499300D01*
X178750000Y-70499300D02*
X179000000Y-70749300D01*
X179000000Y-70749300D02*
X178500000Y-70749300D01*
X178500000Y-70749300D02*
X178750000Y-70499300D01*
X179275000Y-68450000D02*
X179275000Y-67950000D01*
X178225000Y-67950000D02*
X178225000Y-68450000D01*
X151000000Y-45400000D02*
X150000000Y-45400000D01*
X150000000Y-47100000D02*
X151000000Y-47100000D01*
X156650000Y-42750000D02*
X156650000Y-43750000D01*
X158350000Y-43750000D02*
X158350000Y-42750000D01*
X126650000Y-28250000D02*
X126650000Y-28750000D01*
X126650000Y-25750000D02*
X126650000Y-26250000D01*
X185868000Y-26250000D02*
X185868000Y-25750000D01*
X185868000Y-28750000D02*
X185868000Y-28250000D01*
X147000000Y-63850000D02*
X147500000Y-63850000D01*
X144500000Y-63850000D02*
X145000000Y-63850000D01*
X187175000Y-27450000D02*
X187175000Y-27950000D01*
X188225000Y-27950000D02*
X188225000Y-27450000D01*
X184950000Y-30975000D02*
X185450000Y-30975000D01*
X185450000Y-29925000D02*
X184950000Y-29925000D01*
X128050000Y-35175000D02*
X127550000Y-35175000D01*
X127550000Y-36225000D02*
X128050000Y-36225000D01*
X122275000Y-27450000D02*
X122275000Y-27950000D01*
X123325000Y-27950000D02*
X123325000Y-27450000D01*
X123044048Y-54714486D02*
X123570238Y-54714486D01*
X123632143Y-54683534D01*
X123663095Y-54652581D01*
X123694048Y-54590677D01*
X123694048Y-54466867D01*
X123663095Y-54404962D01*
X123632143Y-54374010D01*
X123570238Y-54343058D01*
X123044048Y-54343058D01*
X123105952Y-54064486D02*
X123075000Y-54033534D01*
X123044048Y-53971629D01*
X123044048Y-53816867D01*
X123075000Y-53754963D01*
X123105952Y-53724010D01*
X123167857Y-53693058D01*
X123229762Y-53693058D01*
X123322619Y-53724010D01*
X123694048Y-54095439D01*
X123694048Y-53693058D01*
X123044048Y-53290677D02*
X123044048Y-53228772D01*
X123075000Y-53166867D01*
X123105952Y-53135915D01*
X123167857Y-53104962D01*
X123291667Y-53074010D01*
X123446429Y-53074010D01*
X123570238Y-53104962D01*
X123632143Y-53135915D01*
X123663095Y-53166867D01*
X123694048Y-53228772D01*
X123694048Y-53290677D01*
X123663095Y-53352581D01*
X123632143Y-53383534D01*
X123570238Y-53414486D01*
X123446429Y-53445438D01*
X123291667Y-53445438D01*
X123167857Y-53414486D01*
X123105952Y-53383534D01*
X123075000Y-53352581D01*
X123044048Y-53290677D01*
X123694048Y-52454962D02*
X123694048Y-52826390D01*
X123694048Y-52640676D02*
X123044048Y-52640676D01*
X123136905Y-52702581D01*
X123198810Y-52764486D01*
X123229762Y-52826390D01*
X133685714Y-39644048D02*
X134057142Y-39644048D01*
X133871428Y-40294048D02*
X133871428Y-39644048D01*
X134242857Y-39705952D02*
X134273809Y-39675000D01*
X134335714Y-39644048D01*
X134490476Y-39644048D01*
X134552380Y-39675000D01*
X134583333Y-39705952D01*
X134614285Y-39767857D01*
X134614285Y-39829762D01*
X134583333Y-39922619D01*
X134211904Y-40294048D01*
X134614285Y-40294048D01*
X135016666Y-39644048D02*
X135078571Y-39644048D01*
X135140476Y-39675000D01*
X135171428Y-39705952D01*
X135202381Y-39767857D01*
X135233333Y-39891667D01*
X135233333Y-40046429D01*
X135202381Y-40170238D01*
X135171428Y-40232143D01*
X135140476Y-40263095D01*
X135078571Y-40294048D01*
X135016666Y-40294048D01*
X134954762Y-40263095D01*
X134923809Y-40232143D01*
X134892857Y-40170238D01*
X134861905Y-40046429D01*
X134861905Y-39891667D01*
X134892857Y-39767857D01*
X134923809Y-39705952D01*
X134954762Y-39675000D01*
X135016666Y-39644048D01*
X135852381Y-40294048D02*
X135480953Y-40294048D01*
X135666667Y-40294048D02*
X135666667Y-39644048D01*
X135604762Y-39736905D01*
X135542857Y-39798810D01*
X135480953Y-39829762D01*
X175444048Y-46514286D02*
X175444048Y-46142858D01*
X176094048Y-46328572D02*
X175444048Y-46328572D01*
X175444048Y-45988096D02*
X175444048Y-45585715D01*
X175691667Y-45802382D01*
X175691667Y-45709524D01*
X175722619Y-45647620D01*
X175753571Y-45616667D01*
X175815476Y-45585715D01*
X175970238Y-45585715D01*
X176032143Y-45616667D01*
X176063095Y-45647620D01*
X176094048Y-45709524D01*
X176094048Y-45895239D01*
X176063095Y-45957143D01*
X176032143Y-45988096D01*
X175444048Y-45183334D02*
X175444048Y-45121429D01*
X175475000Y-45059524D01*
X175505952Y-45028572D01*
X175567857Y-44997619D01*
X175691667Y-44966667D01*
X175846429Y-44966667D01*
X175970238Y-44997619D01*
X176032143Y-45028572D01*
X176063095Y-45059524D01*
X176094048Y-45121429D01*
X176094048Y-45183334D01*
X176063095Y-45245238D01*
X176032143Y-45276191D01*
X175970238Y-45307143D01*
X175846429Y-45338095D01*
X175691667Y-45338095D01*
X175567857Y-45307143D01*
X175505952Y-45276191D01*
X175475000Y-45245238D01*
X175444048Y-45183334D01*
X176094048Y-44347619D02*
X176094048Y-44719047D01*
X176094048Y-44533333D02*
X175444048Y-44533333D01*
X175536905Y-44595238D01*
X175598810Y-44657143D01*
X175629762Y-44719047D01*
X124160714Y-56044048D02*
X124532142Y-56044048D01*
X124346428Y-56694048D02*
X124346428Y-56044048D01*
X124748809Y-56694048D02*
X124748809Y-56044048D01*
X124996428Y-56044048D01*
X125058333Y-56075000D01*
X125089285Y-56105952D01*
X125120237Y-56167857D01*
X125120237Y-56260714D01*
X125089285Y-56322619D01*
X125058333Y-56353571D01*
X124996428Y-56384524D01*
X124748809Y-56384524D01*
X125367857Y-56105952D02*
X125398809Y-56075000D01*
X125460714Y-56044048D01*
X125615476Y-56044048D01*
X125677380Y-56075000D01*
X125708333Y-56105952D01*
X125739285Y-56167857D01*
X125739285Y-56229762D01*
X125708333Y-56322619D01*
X125336904Y-56694048D01*
X125739285Y-56694048D01*
X126141666Y-56044048D02*
X126203571Y-56044048D01*
X126265476Y-56075000D01*
X126296428Y-56105952D01*
X126327381Y-56167857D01*
X126358333Y-56291667D01*
X126358333Y-56446429D01*
X126327381Y-56570238D01*
X126296428Y-56632143D01*
X126265476Y-56663095D01*
X126203571Y-56694048D01*
X126141666Y-56694048D01*
X126079762Y-56663095D01*
X126048809Y-56632143D01*
X126017857Y-56570238D01*
X125986905Y-56446429D01*
X125986905Y-56291667D01*
X126017857Y-56167857D01*
X126048809Y-56105952D01*
X126079762Y-56075000D01*
X126141666Y-56044048D01*
X126977381Y-56694048D02*
X126605953Y-56694048D01*
X126791667Y-56694048D02*
X126791667Y-56044048D01*
X126729762Y-56136905D01*
X126667857Y-56198810D01*
X126605953Y-56229762D01*
X132360714Y-47444048D02*
X132732142Y-47444048D01*
X132546428Y-48094048D02*
X132546428Y-47444048D01*
X132948809Y-48094048D02*
X132948809Y-47444048D01*
X133196428Y-47444048D01*
X133258333Y-47475000D01*
X133289285Y-47505952D01*
X133320237Y-47567857D01*
X133320237Y-47660714D01*
X133289285Y-47722619D01*
X133258333Y-47753571D01*
X133196428Y-47784524D01*
X132948809Y-47784524D01*
X133567857Y-47505952D02*
X133598809Y-47475000D01*
X133660714Y-47444048D01*
X133815476Y-47444048D01*
X133877380Y-47475000D01*
X133908333Y-47505952D01*
X133939285Y-47567857D01*
X133939285Y-47629762D01*
X133908333Y-47722619D01*
X133536904Y-48094048D01*
X133939285Y-48094048D01*
X134341666Y-47444048D02*
X134403571Y-47444048D01*
X134465476Y-47475000D01*
X134496428Y-47505952D01*
X134527381Y-47567857D01*
X134558333Y-47691667D01*
X134558333Y-47846429D01*
X134527381Y-47970238D01*
X134496428Y-48032143D01*
X134465476Y-48063095D01*
X134403571Y-48094048D01*
X134341666Y-48094048D01*
X134279762Y-48063095D01*
X134248809Y-48032143D01*
X134217857Y-47970238D01*
X134186905Y-47846429D01*
X134186905Y-47691667D01*
X134217857Y-47567857D01*
X134248809Y-47505952D01*
X134279762Y-47475000D01*
X134341666Y-47444048D01*
X134805953Y-47505952D02*
X134836905Y-47475000D01*
X134898810Y-47444048D01*
X135053572Y-47444048D01*
X135115476Y-47475000D01*
X135146429Y-47505952D01*
X135177381Y-47567857D01*
X135177381Y-47629762D01*
X135146429Y-47722619D01*
X134775000Y-48094048D01*
X135177381Y-48094048D01*
X138160714Y-49044048D02*
X138532142Y-49044048D01*
X138346428Y-49694048D02*
X138346428Y-49044048D01*
X138748809Y-49694048D02*
X138748809Y-49044048D01*
X138996428Y-49044048D01*
X139058333Y-49075000D01*
X139089285Y-49105952D01*
X139120237Y-49167857D01*
X139120237Y-49260714D01*
X139089285Y-49322619D01*
X139058333Y-49353571D01*
X138996428Y-49384524D01*
X138748809Y-49384524D01*
X139367857Y-49105952D02*
X139398809Y-49075000D01*
X139460714Y-49044048D01*
X139615476Y-49044048D01*
X139677380Y-49075000D01*
X139708333Y-49105952D01*
X139739285Y-49167857D01*
X139739285Y-49229762D01*
X139708333Y-49322619D01*
X139336904Y-49694048D01*
X139739285Y-49694048D01*
X140141666Y-49044048D02*
X140203571Y-49044048D01*
X140265476Y-49075000D01*
X140296428Y-49105952D01*
X140327381Y-49167857D01*
X140358333Y-49291667D01*
X140358333Y-49446429D01*
X140327381Y-49570238D01*
X140296428Y-49632143D01*
X140265476Y-49663095D01*
X140203571Y-49694048D01*
X140141666Y-49694048D01*
X140079762Y-49663095D01*
X140048809Y-49632143D01*
X140017857Y-49570238D01*
X139986905Y-49446429D01*
X139986905Y-49291667D01*
X140017857Y-49167857D01*
X140048809Y-49105952D01*
X140079762Y-49075000D01*
X140141666Y-49044048D01*
X140575000Y-49044048D02*
X140977381Y-49044048D01*
X140760714Y-49291667D01*
X140853572Y-49291667D01*
X140915476Y-49322619D01*
X140946429Y-49353571D01*
X140977381Y-49415476D01*
X140977381Y-49570238D01*
X140946429Y-49632143D01*
X140915476Y-49663095D01*
X140853572Y-49694048D01*
X140667857Y-49694048D01*
X140605953Y-49663095D01*
X140575000Y-49632143D01*
X186050714Y-57394048D02*
X186422142Y-57394048D01*
X186236428Y-58044048D02*
X186236428Y-57394048D01*
X186638809Y-58044048D02*
X186638809Y-57394048D01*
X186886428Y-57394048D01*
X186948333Y-57425000D01*
X186979285Y-57455952D01*
X187010237Y-57517857D01*
X187010237Y-57610714D01*
X186979285Y-57672619D01*
X186948333Y-57703571D01*
X186886428Y-57734524D01*
X186638809Y-57734524D01*
X187226904Y-57394048D02*
X187629285Y-57394048D01*
X187412618Y-57641667D01*
X187505476Y-57641667D01*
X187567380Y-57672619D01*
X187598333Y-57703571D01*
X187629285Y-57765476D01*
X187629285Y-57920238D01*
X187598333Y-57982143D01*
X187567380Y-58013095D01*
X187505476Y-58044048D01*
X187319761Y-58044048D01*
X187257857Y-58013095D01*
X187226904Y-57982143D01*
X188031666Y-57394048D02*
X188093571Y-57394048D01*
X188155476Y-57425000D01*
X188186428Y-57455952D01*
X188217381Y-57517857D01*
X188248333Y-57641667D01*
X188248333Y-57796429D01*
X188217381Y-57920238D01*
X188186428Y-57982143D01*
X188155476Y-58013095D01*
X188093571Y-58044048D01*
X188031666Y-58044048D01*
X187969762Y-58013095D01*
X187938809Y-57982143D01*
X187907857Y-57920238D01*
X187876905Y-57796429D01*
X187876905Y-57641667D01*
X187907857Y-57517857D01*
X187938809Y-57455952D01*
X187969762Y-57425000D01*
X188031666Y-57394048D01*
X188867381Y-58044048D02*
X188495953Y-58044048D01*
X188681667Y-58044048D02*
X188681667Y-57394048D01*
X188619762Y-57486905D01*
X188557857Y-57548810D01*
X188495953Y-57579762D01*
X186560714Y-45644048D02*
X186932142Y-45644048D01*
X186746428Y-46294048D02*
X186746428Y-45644048D01*
X187148809Y-46294048D02*
X187148809Y-45644048D01*
X187396428Y-45644048D01*
X187458333Y-45675000D01*
X187489285Y-45705952D01*
X187520237Y-45767857D01*
X187520237Y-45860714D01*
X187489285Y-45922619D01*
X187458333Y-45953571D01*
X187396428Y-45984524D01*
X187148809Y-45984524D01*
X187736904Y-45644048D02*
X188139285Y-45644048D01*
X187922618Y-45891667D01*
X188015476Y-45891667D01*
X188077380Y-45922619D01*
X188108333Y-45953571D01*
X188139285Y-46015476D01*
X188139285Y-46170238D01*
X188108333Y-46232143D01*
X188077380Y-46263095D01*
X188015476Y-46294048D01*
X187829761Y-46294048D01*
X187767857Y-46263095D01*
X187736904Y-46232143D01*
X188541666Y-45644048D02*
X188603571Y-45644048D01*
X188665476Y-45675000D01*
X188696428Y-45705952D01*
X188727381Y-45767857D01*
X188758333Y-45891667D01*
X188758333Y-46046429D01*
X188727381Y-46170238D01*
X188696428Y-46232143D01*
X188665476Y-46263095D01*
X188603571Y-46294048D01*
X188541666Y-46294048D01*
X188479762Y-46263095D01*
X188448809Y-46232143D01*
X188417857Y-46170238D01*
X188386905Y-46046429D01*
X188386905Y-45891667D01*
X188417857Y-45767857D01*
X188448809Y-45705952D01*
X188479762Y-45675000D01*
X188541666Y-45644048D01*
X189005953Y-45705952D02*
X189036905Y-45675000D01*
X189098810Y-45644048D01*
X189253572Y-45644048D01*
X189315476Y-45675000D01*
X189346429Y-45705952D01*
X189377381Y-45767857D01*
X189377381Y-45829762D01*
X189346429Y-45922619D01*
X188975000Y-46294048D01*
X189377381Y-46294048D01*
X125244048Y-31689286D02*
X125244048Y-31317858D01*
X125894048Y-31503572D02*
X125244048Y-31503572D01*
X125894048Y-31101191D02*
X125244048Y-31101191D01*
X125244048Y-30853572D01*
X125275000Y-30791667D01*
X125305952Y-30760715D01*
X125367857Y-30729763D01*
X125460714Y-30729763D01*
X125522619Y-30760715D01*
X125553571Y-30791667D01*
X125584524Y-30853572D01*
X125584524Y-31101191D01*
X125244048Y-30141667D02*
X125244048Y-30451191D01*
X125553571Y-30482143D01*
X125522619Y-30451191D01*
X125491667Y-30389286D01*
X125491667Y-30234524D01*
X125522619Y-30172620D01*
X125553571Y-30141667D01*
X125615476Y-30110715D01*
X125770238Y-30110715D01*
X125832143Y-30141667D01*
X125863095Y-30172620D01*
X125894048Y-30234524D01*
X125894048Y-30389286D01*
X125863095Y-30451191D01*
X125832143Y-30482143D01*
X125244048Y-29708334D02*
X125244048Y-29646429D01*
X125275000Y-29584524D01*
X125305952Y-29553572D01*
X125367857Y-29522619D01*
X125491667Y-29491667D01*
X125646429Y-29491667D01*
X125770238Y-29522619D01*
X125832143Y-29553572D01*
X125863095Y-29584524D01*
X125894048Y-29646429D01*
X125894048Y-29708334D01*
X125863095Y-29770238D01*
X125832143Y-29801191D01*
X125770238Y-29832143D01*
X125646429Y-29863095D01*
X125491667Y-29863095D01*
X125367857Y-29832143D01*
X125305952Y-29801191D01*
X125275000Y-29770238D01*
X125244048Y-29708334D01*
X125894048Y-28872619D02*
X125894048Y-29244047D01*
X125894048Y-29058333D02*
X125244048Y-29058333D01*
X125336905Y-29120238D01*
X125398810Y-29182143D01*
X125429762Y-29244047D01*
X129085714Y-40044048D02*
X129085714Y-40570238D01*
X129116666Y-40632143D01*
X129147619Y-40663095D01*
X129209523Y-40694048D01*
X129333333Y-40694048D01*
X129395238Y-40663095D01*
X129426190Y-40632143D01*
X129457142Y-40570238D01*
X129457142Y-40044048D01*
X129735714Y-40105952D02*
X129766666Y-40075000D01*
X129828571Y-40044048D01*
X129983333Y-40044048D01*
X130045237Y-40075000D01*
X130076190Y-40105952D01*
X130107142Y-40167857D01*
X130107142Y-40229762D01*
X130076190Y-40322619D01*
X129704761Y-40694048D01*
X130107142Y-40694048D01*
X130509523Y-40044048D02*
X130571428Y-40044048D01*
X130633333Y-40075000D01*
X130664285Y-40105952D01*
X130695238Y-40167857D01*
X130726190Y-40291667D01*
X130726190Y-40446429D01*
X130695238Y-40570238D01*
X130664285Y-40632143D01*
X130633333Y-40663095D01*
X130571428Y-40694048D01*
X130509523Y-40694048D01*
X130447619Y-40663095D01*
X130416666Y-40632143D01*
X130385714Y-40570238D01*
X130354762Y-40446429D01*
X130354762Y-40291667D01*
X130385714Y-40167857D01*
X130416666Y-40105952D01*
X130447619Y-40075000D01*
X130509523Y-40044048D01*
X130942857Y-40044048D02*
X131345238Y-40044048D01*
X131128571Y-40291667D01*
X131221429Y-40291667D01*
X131283333Y-40322619D01*
X131314286Y-40353571D01*
X131345238Y-40415476D01*
X131345238Y-40570238D01*
X131314286Y-40632143D01*
X131283333Y-40663095D01*
X131221429Y-40694048D01*
X131035714Y-40694048D01*
X130973810Y-40663095D01*
X130942857Y-40632143D01*
X117894048Y-72114286D02*
X118420238Y-72114286D01*
X118482143Y-72083334D01*
X118513095Y-72052381D01*
X118544048Y-71990477D01*
X118544048Y-71866667D01*
X118513095Y-71804762D01*
X118482143Y-71773810D01*
X118420238Y-71742858D01*
X117894048Y-71742858D01*
X117955952Y-71464286D02*
X117925000Y-71433334D01*
X117894048Y-71371429D01*
X117894048Y-71216667D01*
X117925000Y-71154763D01*
X117955952Y-71123810D01*
X118017857Y-71092858D01*
X118079762Y-71092858D01*
X118172619Y-71123810D01*
X118544048Y-71495239D01*
X118544048Y-71092858D01*
X117894048Y-70690477D02*
X117894048Y-70628572D01*
X117925000Y-70566667D01*
X117955952Y-70535715D01*
X118017857Y-70504762D01*
X118141667Y-70473810D01*
X118296429Y-70473810D01*
X118420238Y-70504762D01*
X118482143Y-70535715D01*
X118513095Y-70566667D01*
X118544048Y-70628572D01*
X118544048Y-70690477D01*
X118513095Y-70752381D01*
X118482143Y-70783334D01*
X118420238Y-70814286D01*
X118296429Y-70845238D01*
X118141667Y-70845238D01*
X118017857Y-70814286D01*
X117955952Y-70783334D01*
X117925000Y-70752381D01*
X117894048Y-70690477D01*
X118110714Y-69916667D02*
X118544048Y-69916667D01*
X117863095Y-70071429D02*
X118327381Y-70226190D01*
X118327381Y-69823810D01*
X179285714Y-55844048D02*
X179285714Y-56370238D01*
X179316666Y-56432143D01*
X179347619Y-56463095D01*
X179409523Y-56494048D01*
X179533333Y-56494048D01*
X179595238Y-56463095D01*
X179626190Y-56432143D01*
X179657142Y-56370238D01*
X179657142Y-55844048D01*
X179904761Y-55844048D02*
X180307142Y-55844048D01*
X180090475Y-56091667D01*
X180183333Y-56091667D01*
X180245237Y-56122619D01*
X180276190Y-56153571D01*
X180307142Y-56215476D01*
X180307142Y-56370238D01*
X180276190Y-56432143D01*
X180245237Y-56463095D01*
X180183333Y-56494048D01*
X179997618Y-56494048D01*
X179935714Y-56463095D01*
X179904761Y-56432143D01*
X180709523Y-55844048D02*
X180771428Y-55844048D01*
X180833333Y-55875000D01*
X180864285Y-55905952D01*
X180895238Y-55967857D01*
X180926190Y-56091667D01*
X180926190Y-56246429D01*
X180895238Y-56370238D01*
X180864285Y-56432143D01*
X180833333Y-56463095D01*
X180771428Y-56494048D01*
X180709523Y-56494048D01*
X180647619Y-56463095D01*
X180616666Y-56432143D01*
X180585714Y-56370238D01*
X180554762Y-56246429D01*
X180554762Y-56091667D01*
X180585714Y-55967857D01*
X180616666Y-55905952D01*
X180647619Y-55875000D01*
X180709523Y-55844048D01*
X181545238Y-56494048D02*
X181173810Y-56494048D01*
X181359524Y-56494048D02*
X181359524Y-55844048D01*
X181297619Y-55936905D01*
X181235714Y-55998810D01*
X181173810Y-56029762D01*
X188044048Y-43514286D02*
X188570238Y-43514286D01*
X188632143Y-43483334D01*
X188663095Y-43452381D01*
X188694048Y-43390477D01*
X188694048Y-43266667D01*
X188663095Y-43204762D01*
X188632143Y-43173810D01*
X188570238Y-43142858D01*
X188044048Y-43142858D01*
X188044048Y-42895239D02*
X188044048Y-42492858D01*
X188291667Y-42709525D01*
X188291667Y-42616667D01*
X188322619Y-42554763D01*
X188353571Y-42523810D01*
X188415476Y-42492858D01*
X188570238Y-42492858D01*
X188632143Y-42523810D01*
X188663095Y-42554763D01*
X188694048Y-42616667D01*
X188694048Y-42802382D01*
X188663095Y-42864286D01*
X188632143Y-42895239D01*
X188044048Y-42090477D02*
X188044048Y-42028572D01*
X188075000Y-41966667D01*
X188105952Y-41935715D01*
X188167857Y-41904762D01*
X188291667Y-41873810D01*
X188446429Y-41873810D01*
X188570238Y-41904762D01*
X188632143Y-41935715D01*
X188663095Y-41966667D01*
X188694048Y-42028572D01*
X188694048Y-42090477D01*
X188663095Y-42152381D01*
X188632143Y-42183334D01*
X188570238Y-42214286D01*
X188446429Y-42245238D01*
X188291667Y-42245238D01*
X188167857Y-42214286D01*
X188105952Y-42183334D01*
X188075000Y-42152381D01*
X188044048Y-42090477D01*
X188044048Y-41657143D02*
X188044048Y-41254762D01*
X188291667Y-41471429D01*
X188291667Y-41378571D01*
X188322619Y-41316667D01*
X188353571Y-41285714D01*
X188415476Y-41254762D01*
X188570238Y-41254762D01*
X188632143Y-41285714D01*
X188663095Y-41316667D01*
X188694048Y-41378571D01*
X188694048Y-41564286D01*
X188663095Y-41626190D01*
X188632143Y-41657143D01*
X192894048Y-72114286D02*
X193420238Y-72114286D01*
X193482143Y-72083334D01*
X193513095Y-72052381D01*
X193544048Y-71990477D01*
X193544048Y-71866667D01*
X193513095Y-71804762D01*
X193482143Y-71773810D01*
X193420238Y-71742858D01*
X192894048Y-71742858D01*
X192894048Y-71495239D02*
X192894048Y-71092858D01*
X193141667Y-71309525D01*
X193141667Y-71216667D01*
X193172619Y-71154763D01*
X193203571Y-71123810D01*
X193265476Y-71092858D01*
X193420238Y-71092858D01*
X193482143Y-71123810D01*
X193513095Y-71154763D01*
X193544048Y-71216667D01*
X193544048Y-71402382D01*
X193513095Y-71464286D01*
X193482143Y-71495239D01*
X192894048Y-70690477D02*
X192894048Y-70628572D01*
X192925000Y-70566667D01*
X192955952Y-70535715D01*
X193017857Y-70504762D01*
X193141667Y-70473810D01*
X193296429Y-70473810D01*
X193420238Y-70504762D01*
X193482143Y-70535715D01*
X193513095Y-70566667D01*
X193544048Y-70628572D01*
X193544048Y-70690477D01*
X193513095Y-70752381D01*
X193482143Y-70783334D01*
X193420238Y-70814286D01*
X193296429Y-70845238D01*
X193141667Y-70845238D01*
X193017857Y-70814286D01*
X192955952Y-70783334D01*
X192925000Y-70752381D01*
X192894048Y-70690477D01*
X193110714Y-69916667D02*
X193544048Y-69916667D01*
X192863095Y-70071429D02*
X193327381Y-70226190D01*
X193327381Y-69823810D01*
X140135714Y-31144048D02*
X140135714Y-31670238D01*
X140166666Y-31732143D01*
X140197619Y-31763095D01*
X140259523Y-31794048D01*
X140383333Y-31794048D01*
X140445238Y-31763095D01*
X140476190Y-31732143D01*
X140507142Y-31670238D01*
X140507142Y-31144048D01*
X141126190Y-31144048D02*
X140816666Y-31144048D01*
X140785714Y-31453571D01*
X140816666Y-31422619D01*
X140878571Y-31391667D01*
X141033333Y-31391667D01*
X141095237Y-31422619D01*
X141126190Y-31453571D01*
X141157142Y-31515476D01*
X141157142Y-31670238D01*
X141126190Y-31732143D01*
X141095237Y-31763095D01*
X141033333Y-31794048D01*
X140878571Y-31794048D01*
X140816666Y-31763095D01*
X140785714Y-31732143D01*
X141559523Y-31144048D02*
X141621428Y-31144048D01*
X141683333Y-31175000D01*
X141714285Y-31205952D01*
X141745238Y-31267857D01*
X141776190Y-31391667D01*
X141776190Y-31546429D01*
X141745238Y-31670238D01*
X141714285Y-31732143D01*
X141683333Y-31763095D01*
X141621428Y-31794048D01*
X141559523Y-31794048D01*
X141497619Y-31763095D01*
X141466666Y-31732143D01*
X141435714Y-31670238D01*
X141404762Y-31546429D01*
X141404762Y-31391667D01*
X141435714Y-31267857D01*
X141466666Y-31205952D01*
X141497619Y-31175000D01*
X141559523Y-31144048D01*
X141992857Y-31144048D02*
X142395238Y-31144048D01*
X142178571Y-31391667D01*
X142271429Y-31391667D01*
X142333333Y-31422619D01*
X142364286Y-31453571D01*
X142395238Y-31515476D01*
X142395238Y-31670238D01*
X142364286Y-31732143D01*
X142333333Y-31763095D01*
X142271429Y-31794048D01*
X142085714Y-31794048D01*
X142023810Y-31763095D01*
X141992857Y-31732143D01*
X148885714Y-66644048D02*
X148885714Y-67170238D01*
X148916666Y-67232143D01*
X148947619Y-67263095D01*
X149009523Y-67294048D01*
X149133333Y-67294048D01*
X149195238Y-67263095D01*
X149226190Y-67232143D01*
X149257142Y-67170238D01*
X149257142Y-66644048D01*
X149845237Y-66644048D02*
X149721428Y-66644048D01*
X149659523Y-66675000D01*
X149628571Y-66705952D01*
X149566666Y-66798810D01*
X149535714Y-66922619D01*
X149535714Y-67170238D01*
X149566666Y-67232143D01*
X149597618Y-67263095D01*
X149659523Y-67294048D01*
X149783333Y-67294048D01*
X149845237Y-67263095D01*
X149876190Y-67232143D01*
X149907142Y-67170238D01*
X149907142Y-67015476D01*
X149876190Y-66953571D01*
X149845237Y-66922619D01*
X149783333Y-66891667D01*
X149659523Y-66891667D01*
X149597618Y-66922619D01*
X149566666Y-66953571D01*
X149535714Y-67015476D01*
X150309523Y-66644048D02*
X150371428Y-66644048D01*
X150433333Y-66675000D01*
X150464285Y-66705952D01*
X150495238Y-66767857D01*
X150526190Y-66891667D01*
X150526190Y-67046429D01*
X150495238Y-67170238D01*
X150464285Y-67232143D01*
X150433333Y-67263095D01*
X150371428Y-67294048D01*
X150309523Y-67294048D01*
X150247619Y-67263095D01*
X150216666Y-67232143D01*
X150185714Y-67170238D01*
X150154762Y-67046429D01*
X150154762Y-66891667D01*
X150185714Y-66767857D01*
X150216666Y-66705952D01*
X150247619Y-66675000D01*
X150309523Y-66644048D01*
X150773810Y-66705952D02*
X150804762Y-66675000D01*
X150866667Y-66644048D01*
X151021429Y-66644048D01*
X151083333Y-66675000D01*
X151114286Y-66705952D01*
X151145238Y-66767857D01*
X151145238Y-66829762D01*
X151114286Y-66922619D01*
X150742857Y-67294048D01*
X151145238Y-67294048D01*
X130182143Y-57227382D02*
X130213095Y-57258334D01*
X130244048Y-57351191D01*
X130244048Y-57413096D01*
X130213095Y-57505953D01*
X130151190Y-57567858D01*
X130089286Y-57598810D01*
X129965476Y-57629762D01*
X129872619Y-57629762D01*
X129748810Y-57598810D01*
X129686905Y-57567858D01*
X129625000Y-57505953D01*
X129594048Y-57413096D01*
X129594048Y-57351191D01*
X129625000Y-57258334D01*
X129655952Y-57227382D01*
X129655952Y-56979762D02*
X129625000Y-56948810D01*
X129594048Y-56886905D01*
X129594048Y-56732143D01*
X129625000Y-56670239D01*
X129655952Y-56639286D01*
X129717857Y-56608334D01*
X129779762Y-56608334D01*
X129872619Y-56639286D01*
X130244048Y-57010715D01*
X130244048Y-56608334D01*
X129594048Y-56205953D02*
X129594048Y-56144048D01*
X129625000Y-56082143D01*
X129655952Y-56051191D01*
X129717857Y-56020238D01*
X129841667Y-55989286D01*
X129996429Y-55989286D01*
X130120238Y-56020238D01*
X130182143Y-56051191D01*
X130213095Y-56082143D01*
X130244048Y-56144048D01*
X130244048Y-56205953D01*
X130213095Y-56267857D01*
X130182143Y-56298810D01*
X130120238Y-56329762D01*
X129996429Y-56360714D01*
X129841667Y-56360714D01*
X129717857Y-56329762D01*
X129655952Y-56298810D01*
X129625000Y-56267857D01*
X129594048Y-56205953D01*
X130244048Y-55370238D02*
X130244048Y-55741666D01*
X130244048Y-55555952D02*
X129594048Y-55555952D01*
X129686905Y-55617857D01*
X129748810Y-55679762D01*
X129779762Y-55741666D01*
X130272618Y-49007143D02*
X130241666Y-49038095D01*
X130148809Y-49069048D01*
X130086904Y-49069048D01*
X129994047Y-49038095D01*
X129932142Y-48976190D01*
X129901190Y-48914286D01*
X129870238Y-48790476D01*
X129870238Y-48697619D01*
X129901190Y-48573810D01*
X129932142Y-48511905D01*
X129994047Y-48450000D01*
X130086904Y-48419048D01*
X130148809Y-48419048D01*
X130241666Y-48450000D01*
X130272618Y-48480952D01*
X130520238Y-48480952D02*
X130551190Y-48450000D01*
X130613095Y-48419048D01*
X130767857Y-48419048D01*
X130829761Y-48450000D01*
X130860714Y-48480952D01*
X130891666Y-48542857D01*
X130891666Y-48604762D01*
X130860714Y-48697619D01*
X130489285Y-49069048D01*
X130891666Y-49069048D01*
X131294047Y-48419048D02*
X131355952Y-48419048D01*
X131417857Y-48450000D01*
X131448809Y-48480952D01*
X131479762Y-48542857D01*
X131510714Y-48666667D01*
X131510714Y-48821429D01*
X131479762Y-48945238D01*
X131448809Y-49007143D01*
X131417857Y-49038095D01*
X131355952Y-49069048D01*
X131294047Y-49069048D01*
X131232143Y-49038095D01*
X131201190Y-49007143D01*
X131170238Y-48945238D01*
X131139286Y-48821429D01*
X131139286Y-48666667D01*
X131170238Y-48542857D01*
X131201190Y-48480952D01*
X131232143Y-48450000D01*
X131294047Y-48419048D01*
X131758334Y-48480952D02*
X131789286Y-48450000D01*
X131851191Y-48419048D01*
X132005953Y-48419048D01*
X132067857Y-48450000D01*
X132098810Y-48480952D01*
X132129762Y-48542857D01*
X132129762Y-48604762D01*
X132098810Y-48697619D01*
X131727381Y-49069048D01*
X132129762Y-49069048D01*
X138672618Y-50732143D02*
X138641666Y-50763095D01*
X138548809Y-50794048D01*
X138486904Y-50794048D01*
X138394047Y-50763095D01*
X138332142Y-50701190D01*
X138301190Y-50639286D01*
X138270238Y-50515476D01*
X138270238Y-50422619D01*
X138301190Y-50298810D01*
X138332142Y-50236905D01*
X138394047Y-50175000D01*
X138486904Y-50144048D01*
X138548809Y-50144048D01*
X138641666Y-50175000D01*
X138672618Y-50205952D01*
X138920238Y-50205952D02*
X138951190Y-50175000D01*
X139013095Y-50144048D01*
X139167857Y-50144048D01*
X139229761Y-50175000D01*
X139260714Y-50205952D01*
X139291666Y-50267857D01*
X139291666Y-50329762D01*
X139260714Y-50422619D01*
X138889285Y-50794048D01*
X139291666Y-50794048D01*
X139694047Y-50144048D02*
X139755952Y-50144048D01*
X139817857Y-50175000D01*
X139848809Y-50205952D01*
X139879762Y-50267857D01*
X139910714Y-50391667D01*
X139910714Y-50546429D01*
X139879762Y-50670238D01*
X139848809Y-50732143D01*
X139817857Y-50763095D01*
X139755952Y-50794048D01*
X139694047Y-50794048D01*
X139632143Y-50763095D01*
X139601190Y-50732143D01*
X139570238Y-50670238D01*
X139539286Y-50546429D01*
X139539286Y-50391667D01*
X139570238Y-50267857D01*
X139601190Y-50205952D01*
X139632143Y-50175000D01*
X139694047Y-50144048D01*
X140127381Y-50144048D02*
X140529762Y-50144048D01*
X140313095Y-50391667D01*
X140405953Y-50391667D01*
X140467857Y-50422619D01*
X140498810Y-50453571D01*
X140529762Y-50515476D01*
X140529762Y-50670238D01*
X140498810Y-50732143D01*
X140467857Y-50763095D01*
X140405953Y-50794048D01*
X140220238Y-50794048D01*
X140158334Y-50763095D01*
X140127381Y-50732143D01*
X129872618Y-45832143D02*
X129841666Y-45863095D01*
X129748809Y-45894048D01*
X129686904Y-45894048D01*
X129594047Y-45863095D01*
X129532142Y-45801190D01*
X129501190Y-45739286D01*
X129470238Y-45615476D01*
X129470238Y-45522619D01*
X129501190Y-45398810D01*
X129532142Y-45336905D01*
X129594047Y-45275000D01*
X129686904Y-45244048D01*
X129748809Y-45244048D01*
X129841666Y-45275000D01*
X129872618Y-45305952D01*
X130120238Y-45305952D02*
X130151190Y-45275000D01*
X130213095Y-45244048D01*
X130367857Y-45244048D01*
X130429761Y-45275000D01*
X130460714Y-45305952D01*
X130491666Y-45367857D01*
X130491666Y-45429762D01*
X130460714Y-45522619D01*
X130089285Y-45894048D01*
X130491666Y-45894048D01*
X130894047Y-45244048D02*
X130955952Y-45244048D01*
X131017857Y-45275000D01*
X131048809Y-45305952D01*
X131079762Y-45367857D01*
X131110714Y-45491667D01*
X131110714Y-45646429D01*
X131079762Y-45770238D01*
X131048809Y-45832143D01*
X131017857Y-45863095D01*
X130955952Y-45894048D01*
X130894047Y-45894048D01*
X130832143Y-45863095D01*
X130801190Y-45832143D01*
X130770238Y-45770238D01*
X130739286Y-45646429D01*
X130739286Y-45491667D01*
X130770238Y-45367857D01*
X130801190Y-45305952D01*
X130832143Y-45275000D01*
X130894047Y-45244048D01*
X131667857Y-45460714D02*
X131667857Y-45894048D01*
X131513095Y-45213095D02*
X131358334Y-45677381D01*
X131760714Y-45677381D01*
X123632143Y-45927382D02*
X123663095Y-45958334D01*
X123694048Y-46051191D01*
X123694048Y-46113096D01*
X123663095Y-46205953D01*
X123601190Y-46267858D01*
X123539286Y-46298810D01*
X123415476Y-46329762D01*
X123322619Y-46329762D01*
X123198810Y-46298810D01*
X123136905Y-46267858D01*
X123075000Y-46205953D01*
X123044048Y-46113096D01*
X123044048Y-46051191D01*
X123075000Y-45958334D01*
X123105952Y-45927382D01*
X123105952Y-45679762D02*
X123075000Y-45648810D01*
X123044048Y-45586905D01*
X123044048Y-45432143D01*
X123075000Y-45370239D01*
X123105952Y-45339286D01*
X123167857Y-45308334D01*
X123229762Y-45308334D01*
X123322619Y-45339286D01*
X123694048Y-45710715D01*
X123694048Y-45308334D01*
X123044048Y-44905953D02*
X123044048Y-44844048D01*
X123075000Y-44782143D01*
X123105952Y-44751191D01*
X123167857Y-44720238D01*
X123291667Y-44689286D01*
X123446429Y-44689286D01*
X123570238Y-44720238D01*
X123632143Y-44751191D01*
X123663095Y-44782143D01*
X123694048Y-44844048D01*
X123694048Y-44905953D01*
X123663095Y-44967857D01*
X123632143Y-44998810D01*
X123570238Y-45029762D01*
X123446429Y-45060714D01*
X123291667Y-45060714D01*
X123167857Y-45029762D01*
X123105952Y-44998810D01*
X123075000Y-44967857D01*
X123044048Y-44905953D01*
X123044048Y-44132143D02*
X123044048Y-44255952D01*
X123075000Y-44317857D01*
X123105952Y-44348809D01*
X123198810Y-44410714D01*
X123322619Y-44441666D01*
X123570238Y-44441666D01*
X123632143Y-44410714D01*
X123663095Y-44379762D01*
X123694048Y-44317857D01*
X123694048Y-44194047D01*
X123663095Y-44132143D01*
X123632143Y-44101190D01*
X123570238Y-44070238D01*
X123415476Y-44070238D01*
X123353571Y-44101190D01*
X123322619Y-44132143D01*
X123291667Y-44194047D01*
X123291667Y-44317857D01*
X123322619Y-44379762D01*
X123353571Y-44410714D01*
X123415476Y-44441666D01*
X123632143Y-42527382D02*
X123663095Y-42558334D01*
X123694048Y-42651191D01*
X123694048Y-42713096D01*
X123663095Y-42805953D01*
X123601190Y-42867858D01*
X123539286Y-42898810D01*
X123415476Y-42929762D01*
X123322619Y-42929762D01*
X123198810Y-42898810D01*
X123136905Y-42867858D01*
X123075000Y-42805953D01*
X123044048Y-42713096D01*
X123044048Y-42651191D01*
X123075000Y-42558334D01*
X123105952Y-42527382D01*
X123105952Y-42279762D02*
X123075000Y-42248810D01*
X123044048Y-42186905D01*
X123044048Y-42032143D01*
X123075000Y-41970239D01*
X123105952Y-41939286D01*
X123167857Y-41908334D01*
X123229762Y-41908334D01*
X123322619Y-41939286D01*
X123694048Y-42310715D01*
X123694048Y-41908334D01*
X123044048Y-41505953D02*
X123044048Y-41444048D01*
X123075000Y-41382143D01*
X123105952Y-41351191D01*
X123167857Y-41320238D01*
X123291667Y-41289286D01*
X123446429Y-41289286D01*
X123570238Y-41320238D01*
X123632143Y-41351191D01*
X123663095Y-41382143D01*
X123694048Y-41444048D01*
X123694048Y-41505953D01*
X123663095Y-41567857D01*
X123632143Y-41598810D01*
X123570238Y-41629762D01*
X123446429Y-41660714D01*
X123291667Y-41660714D01*
X123167857Y-41629762D01*
X123105952Y-41598810D01*
X123075000Y-41567857D01*
X123044048Y-41505953D01*
X123044048Y-41072619D02*
X123044048Y-40639286D01*
X123694048Y-40917857D01*
X124022618Y-39782143D02*
X123991666Y-39813095D01*
X123898809Y-39844048D01*
X123836904Y-39844048D01*
X123744047Y-39813095D01*
X123682142Y-39751190D01*
X123651190Y-39689286D01*
X123620238Y-39565476D01*
X123620238Y-39472619D01*
X123651190Y-39348810D01*
X123682142Y-39286905D01*
X123744047Y-39225000D01*
X123836904Y-39194048D01*
X123898809Y-39194048D01*
X123991666Y-39225000D01*
X124022618Y-39255952D01*
X124270238Y-39255952D02*
X124301190Y-39225000D01*
X124363095Y-39194048D01*
X124517857Y-39194048D01*
X124579761Y-39225000D01*
X124610714Y-39255952D01*
X124641666Y-39317857D01*
X124641666Y-39379762D01*
X124610714Y-39472619D01*
X124239285Y-39844048D01*
X124641666Y-39844048D01*
X125044047Y-39194048D02*
X125105952Y-39194048D01*
X125167857Y-39225000D01*
X125198809Y-39255952D01*
X125229762Y-39317857D01*
X125260714Y-39441667D01*
X125260714Y-39596429D01*
X125229762Y-39720238D01*
X125198809Y-39782143D01*
X125167857Y-39813095D01*
X125105952Y-39844048D01*
X125044047Y-39844048D01*
X124982143Y-39813095D01*
X124951190Y-39782143D01*
X124920238Y-39720238D01*
X124889286Y-39596429D01*
X124889286Y-39441667D01*
X124920238Y-39317857D01*
X124951190Y-39255952D01*
X124982143Y-39225000D01*
X125044047Y-39194048D01*
X125632143Y-39472619D02*
X125570238Y-39441667D01*
X125539286Y-39410714D01*
X125508334Y-39348810D01*
X125508334Y-39317857D01*
X125539286Y-39255952D01*
X125570238Y-39225000D01*
X125632143Y-39194048D01*
X125755953Y-39194048D01*
X125817857Y-39225000D01*
X125848810Y-39255952D01*
X125879762Y-39317857D01*
X125879762Y-39348810D01*
X125848810Y-39410714D01*
X125817857Y-39441667D01*
X125755953Y-39472619D01*
X125632143Y-39472619D01*
X125570238Y-39503571D01*
X125539286Y-39534524D01*
X125508334Y-39596429D01*
X125508334Y-39720238D01*
X125539286Y-39782143D01*
X125570238Y-39813095D01*
X125632143Y-39844048D01*
X125755953Y-39844048D01*
X125817857Y-39813095D01*
X125848810Y-39782143D01*
X125879762Y-39720238D01*
X125879762Y-39596429D01*
X125848810Y-39534524D01*
X125817857Y-39503571D01*
X125755953Y-39472619D01*
X126432143Y-49327382D02*
X126463095Y-49358334D01*
X126494048Y-49451191D01*
X126494048Y-49513096D01*
X126463095Y-49605953D01*
X126401190Y-49667858D01*
X126339286Y-49698810D01*
X126215476Y-49729762D01*
X126122619Y-49729762D01*
X125998810Y-49698810D01*
X125936905Y-49667858D01*
X125875000Y-49605953D01*
X125844048Y-49513096D01*
X125844048Y-49451191D01*
X125875000Y-49358334D01*
X125905952Y-49327382D01*
X125905952Y-49079762D02*
X125875000Y-49048810D01*
X125844048Y-48986905D01*
X125844048Y-48832143D01*
X125875000Y-48770239D01*
X125905952Y-48739286D01*
X125967857Y-48708334D01*
X126029762Y-48708334D01*
X126122619Y-48739286D01*
X126494048Y-49110715D01*
X126494048Y-48708334D01*
X125844048Y-48305953D02*
X125844048Y-48244048D01*
X125875000Y-48182143D01*
X125905952Y-48151191D01*
X125967857Y-48120238D01*
X126091667Y-48089286D01*
X126246429Y-48089286D01*
X126370238Y-48120238D01*
X126432143Y-48151191D01*
X126463095Y-48182143D01*
X126494048Y-48244048D01*
X126494048Y-48305953D01*
X126463095Y-48367857D01*
X126432143Y-48398810D01*
X126370238Y-48429762D01*
X126246429Y-48460714D01*
X126091667Y-48460714D01*
X125967857Y-48429762D01*
X125905952Y-48398810D01*
X125875000Y-48367857D01*
X125844048Y-48305953D01*
X126494048Y-47779762D02*
X126494048Y-47655952D01*
X126463095Y-47594047D01*
X126432143Y-47563095D01*
X126339286Y-47501190D01*
X126215476Y-47470238D01*
X125967857Y-47470238D01*
X125905952Y-47501190D01*
X125875000Y-47532143D01*
X125844048Y-47594047D01*
X125844048Y-47717857D01*
X125875000Y-47779762D01*
X125905952Y-47810714D01*
X125967857Y-47841666D01*
X126122619Y-47841666D01*
X126184524Y-47810714D01*
X126215476Y-47779762D01*
X126246429Y-47717857D01*
X126246429Y-47594047D01*
X126215476Y-47532143D01*
X126184524Y-47501190D01*
X126122619Y-47470238D01*
X186522618Y-56732143D02*
X186491666Y-56763095D01*
X186398809Y-56794048D01*
X186336904Y-56794048D01*
X186244047Y-56763095D01*
X186182142Y-56701190D01*
X186151190Y-56639286D01*
X186120238Y-56515476D01*
X186120238Y-56422619D01*
X186151190Y-56298810D01*
X186182142Y-56236905D01*
X186244047Y-56175000D01*
X186336904Y-56144048D01*
X186398809Y-56144048D01*
X186491666Y-56175000D01*
X186522618Y-56205952D01*
X186739285Y-56144048D02*
X187141666Y-56144048D01*
X186924999Y-56391667D01*
X187017857Y-56391667D01*
X187079761Y-56422619D01*
X187110714Y-56453571D01*
X187141666Y-56515476D01*
X187141666Y-56670238D01*
X187110714Y-56732143D01*
X187079761Y-56763095D01*
X187017857Y-56794048D01*
X186832142Y-56794048D01*
X186770238Y-56763095D01*
X186739285Y-56732143D01*
X187544047Y-56144048D02*
X187605952Y-56144048D01*
X187667857Y-56175000D01*
X187698809Y-56205952D01*
X187729762Y-56267857D01*
X187760714Y-56391667D01*
X187760714Y-56546429D01*
X187729762Y-56670238D01*
X187698809Y-56732143D01*
X187667857Y-56763095D01*
X187605952Y-56794048D01*
X187544047Y-56794048D01*
X187482143Y-56763095D01*
X187451190Y-56732143D01*
X187420238Y-56670238D01*
X187389286Y-56546429D01*
X187389286Y-56391667D01*
X187420238Y-56267857D01*
X187451190Y-56205952D01*
X187482143Y-56175000D01*
X187544047Y-56144048D01*
X188379762Y-56794048D02*
X188008334Y-56794048D01*
X188194048Y-56794048D02*
X188194048Y-56144048D01*
X188132143Y-56236905D01*
X188070238Y-56298810D01*
X188008334Y-56329762D01*
X186872618Y-49432143D02*
X186841666Y-49463095D01*
X186748809Y-49494048D01*
X186686904Y-49494048D01*
X186594047Y-49463095D01*
X186532142Y-49401190D01*
X186501190Y-49339286D01*
X186470238Y-49215476D01*
X186470238Y-49122619D01*
X186501190Y-48998810D01*
X186532142Y-48936905D01*
X186594047Y-48875000D01*
X186686904Y-48844048D01*
X186748809Y-48844048D01*
X186841666Y-48875000D01*
X186872618Y-48905952D01*
X187089285Y-48844048D02*
X187491666Y-48844048D01*
X187274999Y-49091667D01*
X187367857Y-49091667D01*
X187429761Y-49122619D01*
X187460714Y-49153571D01*
X187491666Y-49215476D01*
X187491666Y-49370238D01*
X187460714Y-49432143D01*
X187429761Y-49463095D01*
X187367857Y-49494048D01*
X187182142Y-49494048D01*
X187120238Y-49463095D01*
X187089285Y-49432143D01*
X187894047Y-48844048D02*
X187955952Y-48844048D01*
X188017857Y-48875000D01*
X188048809Y-48905952D01*
X188079762Y-48967857D01*
X188110714Y-49091667D01*
X188110714Y-49246429D01*
X188079762Y-49370238D01*
X188048809Y-49432143D01*
X188017857Y-49463095D01*
X187955952Y-49494048D01*
X187894047Y-49494048D01*
X187832143Y-49463095D01*
X187801190Y-49432143D01*
X187770238Y-49370238D01*
X187739286Y-49246429D01*
X187739286Y-49091667D01*
X187770238Y-48967857D01*
X187801190Y-48905952D01*
X187832143Y-48875000D01*
X187894047Y-48844048D01*
X188358334Y-48905952D02*
X188389286Y-48875000D01*
X188451191Y-48844048D01*
X188605953Y-48844048D01*
X188667857Y-48875000D01*
X188698810Y-48905952D01*
X188729762Y-48967857D01*
X188729762Y-49029762D01*
X188698810Y-49122619D01*
X188327381Y-49494048D01*
X188729762Y-49494048D01*
X177632143Y-56927382D02*
X177663095Y-56958334D01*
X177694048Y-57051191D01*
X177694048Y-57113096D01*
X177663095Y-57205953D01*
X177601190Y-57267858D01*
X177539286Y-57298810D01*
X177415476Y-57329762D01*
X177322619Y-57329762D01*
X177198810Y-57298810D01*
X177136905Y-57267858D01*
X177075000Y-57205953D01*
X177044048Y-57113096D01*
X177044048Y-57051191D01*
X177075000Y-56958334D01*
X177105952Y-56927382D01*
X177044048Y-56710715D02*
X177044048Y-56308334D01*
X177291667Y-56525001D01*
X177291667Y-56432143D01*
X177322619Y-56370239D01*
X177353571Y-56339286D01*
X177415476Y-56308334D01*
X177570238Y-56308334D01*
X177632143Y-56339286D01*
X177663095Y-56370239D01*
X177694048Y-56432143D01*
X177694048Y-56617858D01*
X177663095Y-56679762D01*
X177632143Y-56710715D01*
X177044048Y-55905953D02*
X177044048Y-55844048D01*
X177075000Y-55782143D01*
X177105952Y-55751191D01*
X177167857Y-55720238D01*
X177291667Y-55689286D01*
X177446429Y-55689286D01*
X177570238Y-55720238D01*
X177632143Y-55751191D01*
X177663095Y-55782143D01*
X177694048Y-55844048D01*
X177694048Y-55905953D01*
X177663095Y-55967857D01*
X177632143Y-55998810D01*
X177570238Y-56029762D01*
X177446429Y-56060714D01*
X177291667Y-56060714D01*
X177167857Y-56029762D01*
X177105952Y-55998810D01*
X177075000Y-55967857D01*
X177044048Y-55905953D01*
X177044048Y-55472619D02*
X177044048Y-55070238D01*
X177291667Y-55286905D01*
X177291667Y-55194047D01*
X177322619Y-55132143D01*
X177353571Y-55101190D01*
X177415476Y-55070238D01*
X177570238Y-55070238D01*
X177632143Y-55101190D01*
X177663095Y-55132143D01*
X177694048Y-55194047D01*
X177694048Y-55379762D01*
X177663095Y-55441666D01*
X177632143Y-55472619D01*
X186032143Y-47727382D02*
X186063095Y-47758334D01*
X186094048Y-47851191D01*
X186094048Y-47913096D01*
X186063095Y-48005953D01*
X186001190Y-48067858D01*
X185939286Y-48098810D01*
X185815476Y-48129762D01*
X185722619Y-48129762D01*
X185598810Y-48098810D01*
X185536905Y-48067858D01*
X185475000Y-48005953D01*
X185444048Y-47913096D01*
X185444048Y-47851191D01*
X185475000Y-47758334D01*
X185505952Y-47727382D01*
X185444048Y-47510715D02*
X185444048Y-47108334D01*
X185691667Y-47325001D01*
X185691667Y-47232143D01*
X185722619Y-47170239D01*
X185753571Y-47139286D01*
X185815476Y-47108334D01*
X185970238Y-47108334D01*
X186032143Y-47139286D01*
X186063095Y-47170239D01*
X186094048Y-47232143D01*
X186094048Y-47417858D01*
X186063095Y-47479762D01*
X186032143Y-47510715D01*
X185444048Y-46705953D02*
X185444048Y-46644048D01*
X185475000Y-46582143D01*
X185505952Y-46551191D01*
X185567857Y-46520238D01*
X185691667Y-46489286D01*
X185846429Y-46489286D01*
X185970238Y-46520238D01*
X186032143Y-46551191D01*
X186063095Y-46582143D01*
X186094048Y-46644048D01*
X186094048Y-46705953D01*
X186063095Y-46767857D01*
X186032143Y-46798810D01*
X185970238Y-46829762D01*
X185846429Y-46860714D01*
X185691667Y-46860714D01*
X185567857Y-46829762D01*
X185505952Y-46798810D01*
X185475000Y-46767857D01*
X185444048Y-46705953D01*
X185660714Y-45932143D02*
X186094048Y-45932143D01*
X185413095Y-46086905D02*
X185877381Y-46241666D01*
X185877381Y-45839286D01*
X176872618Y-42032143D02*
X176841666Y-42063095D01*
X176748809Y-42094048D01*
X176686904Y-42094048D01*
X176594047Y-42063095D01*
X176532142Y-42001190D01*
X176501190Y-41939286D01*
X176470238Y-41815476D01*
X176470238Y-41722619D01*
X176501190Y-41598810D01*
X176532142Y-41536905D01*
X176594047Y-41475000D01*
X176686904Y-41444048D01*
X176748809Y-41444048D01*
X176841666Y-41475000D01*
X176872618Y-41505952D01*
X177089285Y-41444048D02*
X177491666Y-41444048D01*
X177274999Y-41691667D01*
X177367857Y-41691667D01*
X177429761Y-41722619D01*
X177460714Y-41753571D01*
X177491666Y-41815476D01*
X177491666Y-41970238D01*
X177460714Y-42032143D01*
X177429761Y-42063095D01*
X177367857Y-42094048D01*
X177182142Y-42094048D01*
X177120238Y-42063095D01*
X177089285Y-42032143D01*
X177894047Y-41444048D02*
X177955952Y-41444048D01*
X178017857Y-41475000D01*
X178048809Y-41505952D01*
X178079762Y-41567857D01*
X178110714Y-41691667D01*
X178110714Y-41846429D01*
X178079762Y-41970238D01*
X178048809Y-42032143D01*
X178017857Y-42063095D01*
X177955952Y-42094048D01*
X177894047Y-42094048D01*
X177832143Y-42063095D01*
X177801190Y-42032143D01*
X177770238Y-41970238D01*
X177739286Y-41846429D01*
X177739286Y-41691667D01*
X177770238Y-41567857D01*
X177801190Y-41505952D01*
X177832143Y-41475000D01*
X177894047Y-41444048D01*
X178327381Y-41444048D02*
X178760714Y-41444048D01*
X178482143Y-42094048D01*
X176872618Y-40632143D02*
X176841666Y-40663095D01*
X176748809Y-40694048D01*
X176686904Y-40694048D01*
X176594047Y-40663095D01*
X176532142Y-40601190D01*
X176501190Y-40539286D01*
X176470238Y-40415476D01*
X176470238Y-40322619D01*
X176501190Y-40198810D01*
X176532142Y-40136905D01*
X176594047Y-40075000D01*
X176686904Y-40044048D01*
X176748809Y-40044048D01*
X176841666Y-40075000D01*
X176872618Y-40105952D01*
X177089285Y-40044048D02*
X177491666Y-40044048D01*
X177274999Y-40291667D01*
X177367857Y-40291667D01*
X177429761Y-40322619D01*
X177460714Y-40353571D01*
X177491666Y-40415476D01*
X177491666Y-40570238D01*
X177460714Y-40632143D01*
X177429761Y-40663095D01*
X177367857Y-40694048D01*
X177182142Y-40694048D01*
X177120238Y-40663095D01*
X177089285Y-40632143D01*
X177894047Y-40044048D02*
X177955952Y-40044048D01*
X178017857Y-40075000D01*
X178048809Y-40105952D01*
X178079762Y-40167857D01*
X178110714Y-40291667D01*
X178110714Y-40446429D01*
X178079762Y-40570238D01*
X178048809Y-40632143D01*
X178017857Y-40663095D01*
X177955952Y-40694048D01*
X177894047Y-40694048D01*
X177832143Y-40663095D01*
X177801190Y-40632143D01*
X177770238Y-40570238D01*
X177739286Y-40446429D01*
X177739286Y-40291667D01*
X177770238Y-40167857D01*
X177801190Y-40105952D01*
X177832143Y-40075000D01*
X177894047Y-40044048D01*
X178482143Y-40322619D02*
X178420238Y-40291667D01*
X178389286Y-40260714D01*
X178358334Y-40198810D01*
X178358334Y-40167857D01*
X178389286Y-40105952D01*
X178420238Y-40075000D01*
X178482143Y-40044048D01*
X178605953Y-40044048D01*
X178667857Y-40075000D01*
X178698810Y-40105952D01*
X178729762Y-40167857D01*
X178729762Y-40198810D01*
X178698810Y-40260714D01*
X178667857Y-40291667D01*
X178605953Y-40322619D01*
X178482143Y-40322619D01*
X178420238Y-40353571D01*
X178389286Y-40384524D01*
X178358334Y-40446429D01*
X178358334Y-40570238D01*
X178389286Y-40632143D01*
X178420238Y-40663095D01*
X178482143Y-40694048D01*
X178605953Y-40694048D01*
X178667857Y-40663095D01*
X178698810Y-40632143D01*
X178729762Y-40570238D01*
X178729762Y-40446429D01*
X178698810Y-40384524D01*
X178667857Y-40353571D01*
X178605953Y-40322619D01*
X176872618Y-43632143D02*
X176841666Y-43663095D01*
X176748809Y-43694048D01*
X176686904Y-43694048D01*
X176594047Y-43663095D01*
X176532142Y-43601190D01*
X176501190Y-43539286D01*
X176470238Y-43415476D01*
X176470238Y-43322619D01*
X176501190Y-43198810D01*
X176532142Y-43136905D01*
X176594047Y-43075000D01*
X176686904Y-43044048D01*
X176748809Y-43044048D01*
X176841666Y-43075000D01*
X176872618Y-43105952D01*
X177089285Y-43044048D02*
X177491666Y-43044048D01*
X177274999Y-43291667D01*
X177367857Y-43291667D01*
X177429761Y-43322619D01*
X177460714Y-43353571D01*
X177491666Y-43415476D01*
X177491666Y-43570238D01*
X177460714Y-43632143D01*
X177429761Y-43663095D01*
X177367857Y-43694048D01*
X177182142Y-43694048D01*
X177120238Y-43663095D01*
X177089285Y-43632143D01*
X177894047Y-43044048D02*
X177955952Y-43044048D01*
X178017857Y-43075000D01*
X178048809Y-43105952D01*
X178079762Y-43167857D01*
X178110714Y-43291667D01*
X178110714Y-43446429D01*
X178079762Y-43570238D01*
X178048809Y-43632143D01*
X178017857Y-43663095D01*
X177955952Y-43694048D01*
X177894047Y-43694048D01*
X177832143Y-43663095D01*
X177801190Y-43632143D01*
X177770238Y-43570238D01*
X177739286Y-43446429D01*
X177739286Y-43291667D01*
X177770238Y-43167857D01*
X177801190Y-43105952D01*
X177832143Y-43075000D01*
X177894047Y-43044048D01*
X178420238Y-43694048D02*
X178544048Y-43694048D01*
X178605953Y-43663095D01*
X178636905Y-43632143D01*
X178698810Y-43539286D01*
X178729762Y-43415476D01*
X178729762Y-43167857D01*
X178698810Y-43105952D01*
X178667857Y-43075000D01*
X178605953Y-43044048D01*
X178482143Y-43044048D01*
X178420238Y-43075000D01*
X178389286Y-43105952D01*
X178358334Y-43167857D01*
X178358334Y-43322619D01*
X178389286Y-43384524D01*
X178420238Y-43415476D01*
X178482143Y-43446429D01*
X178605953Y-43446429D01*
X178667857Y-43415476D01*
X178698810Y-43384524D01*
X178729762Y-43322619D01*
X157232143Y-47227382D02*
X157263095Y-47258334D01*
X157294048Y-47351191D01*
X157294048Y-47413096D01*
X157263095Y-47505953D01*
X157201190Y-47567858D01*
X157139286Y-47598810D01*
X157015476Y-47629762D01*
X156922619Y-47629762D01*
X156798810Y-47598810D01*
X156736905Y-47567858D01*
X156675000Y-47505953D01*
X156644048Y-47413096D01*
X156644048Y-47351191D01*
X156675000Y-47258334D01*
X156705952Y-47227382D01*
X156860714Y-46670239D02*
X157294048Y-46670239D01*
X156613095Y-46825001D02*
X157077381Y-46979762D01*
X157077381Y-46577382D01*
X156644048Y-46205953D02*
X156644048Y-46144048D01*
X156675000Y-46082143D01*
X156705952Y-46051191D01*
X156767857Y-46020238D01*
X156891667Y-45989286D01*
X157046429Y-45989286D01*
X157170238Y-46020238D01*
X157232143Y-46051191D01*
X157263095Y-46082143D01*
X157294048Y-46144048D01*
X157294048Y-46205953D01*
X157263095Y-46267857D01*
X157232143Y-46298810D01*
X157170238Y-46329762D01*
X157046429Y-46360714D01*
X156891667Y-46360714D01*
X156767857Y-46329762D01*
X156705952Y-46298810D01*
X156675000Y-46267857D01*
X156644048Y-46205953D01*
X156705952Y-45741666D02*
X156675000Y-45710714D01*
X156644048Y-45648809D01*
X156644048Y-45494047D01*
X156675000Y-45432143D01*
X156705952Y-45401190D01*
X156767857Y-45370238D01*
X156829762Y-45370238D01*
X156922619Y-45401190D01*
X157294048Y-45772619D01*
X157294048Y-45370238D01*
X155982143Y-42727382D02*
X156013095Y-42758334D01*
X156044048Y-42851191D01*
X156044048Y-42913096D01*
X156013095Y-43005953D01*
X155951190Y-43067858D01*
X155889286Y-43098810D01*
X155765476Y-43129762D01*
X155672619Y-43129762D01*
X155548810Y-43098810D01*
X155486905Y-43067858D01*
X155425000Y-43005953D01*
X155394048Y-42913096D01*
X155394048Y-42851191D01*
X155425000Y-42758334D01*
X155455952Y-42727382D01*
X155610714Y-42170239D02*
X156044048Y-42170239D01*
X155363095Y-42325001D02*
X155827381Y-42479762D01*
X155827381Y-42077382D01*
X155394048Y-41705953D02*
X155394048Y-41644048D01*
X155425000Y-41582143D01*
X155455952Y-41551191D01*
X155517857Y-41520238D01*
X155641667Y-41489286D01*
X155796429Y-41489286D01*
X155920238Y-41520238D01*
X155982143Y-41551191D01*
X156013095Y-41582143D01*
X156044048Y-41644048D01*
X156044048Y-41705953D01*
X156013095Y-41767857D01*
X155982143Y-41798810D01*
X155920238Y-41829762D01*
X155796429Y-41860714D01*
X155641667Y-41860714D01*
X155517857Y-41829762D01*
X155455952Y-41798810D01*
X155425000Y-41767857D01*
X155394048Y-41705953D01*
X155394048Y-41272619D02*
X155394048Y-40870238D01*
X155641667Y-41086905D01*
X155641667Y-40994047D01*
X155672619Y-40932143D01*
X155703571Y-40901190D01*
X155765476Y-40870238D01*
X155920238Y-40870238D01*
X155982143Y-40901190D01*
X156013095Y-40932143D01*
X156044048Y-40994047D01*
X156044048Y-41179762D01*
X156013095Y-41241666D01*
X155982143Y-41272619D01*
X175022618Y-64982143D02*
X174991666Y-65013095D01*
X174898809Y-65044048D01*
X174836904Y-65044048D01*
X174744047Y-65013095D01*
X174682142Y-64951190D01*
X174651190Y-64889286D01*
X174620238Y-64765476D01*
X174620238Y-64672619D01*
X174651190Y-64548810D01*
X174682142Y-64486905D01*
X174744047Y-64425000D01*
X174836904Y-64394048D01*
X174898809Y-64394048D01*
X174991666Y-64425000D01*
X175022618Y-64455952D01*
X175579761Y-64610714D02*
X175579761Y-65044048D01*
X175424999Y-64363095D02*
X175270238Y-64827381D01*
X175672618Y-64827381D01*
X176044047Y-64394048D02*
X176105952Y-64394048D01*
X176167857Y-64425000D01*
X176198809Y-64455952D01*
X176229762Y-64517857D01*
X176260714Y-64641667D01*
X176260714Y-64796429D01*
X176229762Y-64920238D01*
X176198809Y-64982143D01*
X176167857Y-65013095D01*
X176105952Y-65044048D01*
X176044047Y-65044048D01*
X175982143Y-65013095D01*
X175951190Y-64982143D01*
X175920238Y-64920238D01*
X175889286Y-64796429D01*
X175889286Y-64641667D01*
X175920238Y-64517857D01*
X175951190Y-64455952D01*
X175982143Y-64425000D01*
X176044047Y-64394048D01*
X176817857Y-64610714D02*
X176817857Y-65044048D01*
X176663095Y-64363095D02*
X176508334Y-64827381D01*
X176910714Y-64827381D01*
X153022618Y-51732143D02*
X152991666Y-51763095D01*
X152898809Y-51794048D01*
X152836904Y-51794048D01*
X152744047Y-51763095D01*
X152682142Y-51701190D01*
X152651190Y-51639286D01*
X152620238Y-51515476D01*
X152620238Y-51422619D01*
X152651190Y-51298810D01*
X152682142Y-51236905D01*
X152744047Y-51175000D01*
X152836904Y-51144048D01*
X152898809Y-51144048D01*
X152991666Y-51175000D01*
X153022618Y-51205952D01*
X153579761Y-51360714D02*
X153579761Y-51794048D01*
X153424999Y-51113095D02*
X153270238Y-51577381D01*
X153672618Y-51577381D01*
X154044047Y-51144048D02*
X154105952Y-51144048D01*
X154167857Y-51175000D01*
X154198809Y-51205952D01*
X154229762Y-51267857D01*
X154260714Y-51391667D01*
X154260714Y-51546429D01*
X154229762Y-51670238D01*
X154198809Y-51732143D01*
X154167857Y-51763095D01*
X154105952Y-51794048D01*
X154044047Y-51794048D01*
X153982143Y-51763095D01*
X153951190Y-51732143D01*
X153920238Y-51670238D01*
X153889286Y-51546429D01*
X153889286Y-51391667D01*
X153920238Y-51267857D01*
X153951190Y-51205952D01*
X153982143Y-51175000D01*
X154044047Y-51144048D01*
X154848810Y-51144048D02*
X154539286Y-51144048D01*
X154508334Y-51453571D01*
X154539286Y-51422619D01*
X154601191Y-51391667D01*
X154755953Y-51391667D01*
X154817857Y-51422619D01*
X154848810Y-51453571D01*
X154879762Y-51515476D01*
X154879762Y-51670238D01*
X154848810Y-51732143D01*
X154817857Y-51763095D01*
X154755953Y-51794048D01*
X154601191Y-51794048D01*
X154539286Y-51763095D01*
X154508334Y-51732143D01*
X148772618Y-39982143D02*
X148741666Y-40013095D01*
X148648809Y-40044048D01*
X148586904Y-40044048D01*
X148494047Y-40013095D01*
X148432142Y-39951190D01*
X148401190Y-39889286D01*
X148370238Y-39765476D01*
X148370238Y-39672619D01*
X148401190Y-39548810D01*
X148432142Y-39486905D01*
X148494047Y-39425000D01*
X148586904Y-39394048D01*
X148648809Y-39394048D01*
X148741666Y-39425000D01*
X148772618Y-39455952D01*
X149329761Y-39610714D02*
X149329761Y-40044048D01*
X149174999Y-39363095D02*
X149020238Y-39827381D01*
X149422618Y-39827381D01*
X149794047Y-39394048D02*
X149855952Y-39394048D01*
X149917857Y-39425000D01*
X149948809Y-39455952D01*
X149979762Y-39517857D01*
X150010714Y-39641667D01*
X150010714Y-39796429D01*
X149979762Y-39920238D01*
X149948809Y-39982143D01*
X149917857Y-40013095D01*
X149855952Y-40044048D01*
X149794047Y-40044048D01*
X149732143Y-40013095D01*
X149701190Y-39982143D01*
X149670238Y-39920238D01*
X149639286Y-39796429D01*
X149639286Y-39641667D01*
X149670238Y-39517857D01*
X149701190Y-39455952D01*
X149732143Y-39425000D01*
X149794047Y-39394048D01*
X150567857Y-39394048D02*
X150444048Y-39394048D01*
X150382143Y-39425000D01*
X150351191Y-39455952D01*
X150289286Y-39548810D01*
X150258334Y-39672619D01*
X150258334Y-39920238D01*
X150289286Y-39982143D01*
X150320238Y-40013095D01*
X150382143Y-40044048D01*
X150505953Y-40044048D01*
X150567857Y-40013095D01*
X150598810Y-39982143D01*
X150629762Y-39920238D01*
X150629762Y-39765476D01*
X150598810Y-39703571D01*
X150567857Y-39672619D01*
X150505953Y-39641667D01*
X150382143Y-39641667D01*
X150320238Y-39672619D01*
X150289286Y-39703571D01*
X150258334Y-39765476D01*
X148232143Y-46227382D02*
X148263095Y-46258334D01*
X148294048Y-46351191D01*
X148294048Y-46413096D01*
X148263095Y-46505953D01*
X148201190Y-46567858D01*
X148139286Y-46598810D01*
X148015476Y-46629762D01*
X147922619Y-46629762D01*
X147798810Y-46598810D01*
X147736905Y-46567858D01*
X147675000Y-46505953D01*
X147644048Y-46413096D01*
X147644048Y-46351191D01*
X147675000Y-46258334D01*
X147705952Y-46227382D01*
X147860714Y-45670239D02*
X148294048Y-45670239D01*
X147613095Y-45825001D02*
X148077381Y-45979762D01*
X148077381Y-45577382D01*
X147644048Y-45205953D02*
X147644048Y-45144048D01*
X147675000Y-45082143D01*
X147705952Y-45051191D01*
X147767857Y-45020238D01*
X147891667Y-44989286D01*
X148046429Y-44989286D01*
X148170238Y-45020238D01*
X148232143Y-45051191D01*
X148263095Y-45082143D01*
X148294048Y-45144048D01*
X148294048Y-45205953D01*
X148263095Y-45267857D01*
X148232143Y-45298810D01*
X148170238Y-45329762D01*
X148046429Y-45360714D01*
X147891667Y-45360714D01*
X147767857Y-45329762D01*
X147705952Y-45298810D01*
X147675000Y-45267857D01*
X147644048Y-45205953D01*
X147644048Y-44772619D02*
X147644048Y-44339286D01*
X148294048Y-44617857D01*
X153022618Y-47232143D02*
X152991666Y-47263095D01*
X152898809Y-47294048D01*
X152836904Y-47294048D01*
X152744047Y-47263095D01*
X152682142Y-47201190D01*
X152651190Y-47139286D01*
X152620238Y-47015476D01*
X152620238Y-46922619D01*
X152651190Y-46798810D01*
X152682142Y-46736905D01*
X152744047Y-46675000D01*
X152836904Y-46644048D01*
X152898809Y-46644048D01*
X152991666Y-46675000D01*
X153022618Y-46705952D01*
X153579761Y-46860714D02*
X153579761Y-47294048D01*
X153424999Y-46613095D02*
X153270238Y-47077381D01*
X153672618Y-47077381D01*
X154044047Y-46644048D02*
X154105952Y-46644048D01*
X154167857Y-46675000D01*
X154198809Y-46705952D01*
X154229762Y-46767857D01*
X154260714Y-46891667D01*
X154260714Y-47046429D01*
X154229762Y-47170238D01*
X154198809Y-47232143D01*
X154167857Y-47263095D01*
X154105952Y-47294048D01*
X154044047Y-47294048D01*
X153982143Y-47263095D01*
X153951190Y-47232143D01*
X153920238Y-47170238D01*
X153889286Y-47046429D01*
X153889286Y-46891667D01*
X153920238Y-46767857D01*
X153951190Y-46705952D01*
X153982143Y-46675000D01*
X154044047Y-46644048D01*
X154570238Y-47294048D02*
X154694048Y-47294048D01*
X154755953Y-47263095D01*
X154786905Y-47232143D01*
X154848810Y-47139286D01*
X154879762Y-47015476D01*
X154879762Y-46767857D01*
X154848810Y-46705952D01*
X154817857Y-46675000D01*
X154755953Y-46644048D01*
X154632143Y-46644048D01*
X154570238Y-46675000D01*
X154539286Y-46705952D01*
X154508334Y-46767857D01*
X154508334Y-46922619D01*
X154539286Y-46984524D01*
X154570238Y-47015476D01*
X154632143Y-47046429D01*
X154755953Y-47046429D01*
X154817857Y-47015476D01*
X154848810Y-46984524D01*
X154879762Y-46922619D01*
X185472618Y-24482143D02*
X185441666Y-24513095D01*
X185348809Y-24544048D01*
X185286904Y-24544048D01*
X185194047Y-24513095D01*
X185132142Y-24451190D01*
X185101190Y-24389286D01*
X185070238Y-24265476D01*
X185070238Y-24172619D01*
X185101190Y-24048810D01*
X185132142Y-23986905D01*
X185194047Y-23925000D01*
X185286904Y-23894048D01*
X185348809Y-23894048D01*
X185441666Y-23925000D01*
X185472618Y-23955952D01*
X186060714Y-23894048D02*
X185751190Y-23894048D01*
X185720238Y-24203571D01*
X185751190Y-24172619D01*
X185813095Y-24141667D01*
X185967857Y-24141667D01*
X186029761Y-24172619D01*
X186060714Y-24203571D01*
X186091666Y-24265476D01*
X186091666Y-24420238D01*
X186060714Y-24482143D01*
X186029761Y-24513095D01*
X185967857Y-24544048D01*
X185813095Y-24544048D01*
X185751190Y-24513095D01*
X185720238Y-24482143D01*
X186494047Y-23894048D02*
X186555952Y-23894048D01*
X186617857Y-23925000D01*
X186648809Y-23955952D01*
X186679762Y-24017857D01*
X186710714Y-24141667D01*
X186710714Y-24296429D01*
X186679762Y-24420238D01*
X186648809Y-24482143D01*
X186617857Y-24513095D01*
X186555952Y-24544048D01*
X186494047Y-24544048D01*
X186432143Y-24513095D01*
X186401190Y-24482143D01*
X186370238Y-24420238D01*
X186339286Y-24296429D01*
X186339286Y-24141667D01*
X186370238Y-24017857D01*
X186401190Y-23955952D01*
X186432143Y-23925000D01*
X186494047Y-23894048D01*
X187329762Y-24544048D02*
X186958334Y-24544048D01*
X187144048Y-24544048D02*
X187144048Y-23894048D01*
X187082143Y-23986905D01*
X187020238Y-24048810D01*
X186958334Y-24079762D01*
X154732143Y-30227382D02*
X154763095Y-30258334D01*
X154794048Y-30351191D01*
X154794048Y-30413096D01*
X154763095Y-30505953D01*
X154701190Y-30567858D01*
X154639286Y-30598810D01*
X154515476Y-30629762D01*
X154422619Y-30629762D01*
X154298810Y-30598810D01*
X154236905Y-30567858D01*
X154175000Y-30505953D01*
X154144048Y-30413096D01*
X154144048Y-30351191D01*
X154175000Y-30258334D01*
X154205952Y-30227382D01*
X154144048Y-29639286D02*
X154144048Y-29948810D01*
X154453571Y-29979762D01*
X154422619Y-29948810D01*
X154391667Y-29886905D01*
X154391667Y-29732143D01*
X154422619Y-29670239D01*
X154453571Y-29639286D01*
X154515476Y-29608334D01*
X154670238Y-29608334D01*
X154732143Y-29639286D01*
X154763095Y-29670239D01*
X154794048Y-29732143D01*
X154794048Y-29886905D01*
X154763095Y-29948810D01*
X154732143Y-29979762D01*
X154144048Y-29205953D02*
X154144048Y-29144048D01*
X154175000Y-29082143D01*
X154205952Y-29051191D01*
X154267857Y-29020238D01*
X154391667Y-28989286D01*
X154546429Y-28989286D01*
X154670238Y-29020238D01*
X154732143Y-29051191D01*
X154763095Y-29082143D01*
X154794048Y-29144048D01*
X154794048Y-29205953D01*
X154763095Y-29267857D01*
X154732143Y-29298810D01*
X154670238Y-29329762D01*
X154546429Y-29360714D01*
X154391667Y-29360714D01*
X154267857Y-29329762D01*
X154205952Y-29298810D01*
X154175000Y-29267857D01*
X154144048Y-29205953D01*
X154205952Y-28741666D02*
X154175000Y-28710714D01*
X154144048Y-28648809D01*
X154144048Y-28494047D01*
X154175000Y-28432143D01*
X154205952Y-28401190D01*
X154267857Y-28370238D01*
X154329762Y-28370238D01*
X154422619Y-28401190D01*
X154794048Y-28772619D01*
X154794048Y-28370238D01*
X185872618Y-31982143D02*
X185841666Y-32013095D01*
X185748809Y-32044048D01*
X185686904Y-32044048D01*
X185594047Y-32013095D01*
X185532142Y-31951190D01*
X185501190Y-31889286D01*
X185470238Y-31765476D01*
X185470238Y-31672619D01*
X185501190Y-31548810D01*
X185532142Y-31486905D01*
X185594047Y-31425000D01*
X185686904Y-31394048D01*
X185748809Y-31394048D01*
X185841666Y-31425000D01*
X185872618Y-31455952D01*
X186460714Y-31394048D02*
X186151190Y-31394048D01*
X186120238Y-31703571D01*
X186151190Y-31672619D01*
X186213095Y-31641667D01*
X186367857Y-31641667D01*
X186429761Y-31672619D01*
X186460714Y-31703571D01*
X186491666Y-31765476D01*
X186491666Y-31920238D01*
X186460714Y-31982143D01*
X186429761Y-32013095D01*
X186367857Y-32044048D01*
X186213095Y-32044048D01*
X186151190Y-32013095D01*
X186120238Y-31982143D01*
X186894047Y-31394048D02*
X186955952Y-31394048D01*
X187017857Y-31425000D01*
X187048809Y-31455952D01*
X187079762Y-31517857D01*
X187110714Y-31641667D01*
X187110714Y-31796429D01*
X187079762Y-31920238D01*
X187048809Y-31982143D01*
X187017857Y-32013095D01*
X186955952Y-32044048D01*
X186894047Y-32044048D01*
X186832143Y-32013095D01*
X186801190Y-31982143D01*
X186770238Y-31920238D01*
X186739286Y-31796429D01*
X186739286Y-31641667D01*
X186770238Y-31517857D01*
X186801190Y-31455952D01*
X186832143Y-31425000D01*
X186894047Y-31394048D01*
X187698810Y-31394048D02*
X187389286Y-31394048D01*
X187358334Y-31703571D01*
X187389286Y-31672619D01*
X187451191Y-31641667D01*
X187605953Y-31641667D01*
X187667857Y-31672619D01*
X187698810Y-31703571D01*
X187729762Y-31765476D01*
X187729762Y-31920238D01*
X187698810Y-31982143D01*
X187667857Y-32013095D01*
X187605953Y-32044048D01*
X187451191Y-32044048D01*
X187389286Y-32013095D01*
X187358334Y-31982143D01*
X122472618Y-25232143D02*
X122441666Y-25263095D01*
X122348809Y-25294048D01*
X122286904Y-25294048D01*
X122194047Y-25263095D01*
X122132142Y-25201190D01*
X122101190Y-25139286D01*
X122070238Y-25015476D01*
X122070238Y-24922619D01*
X122101190Y-24798810D01*
X122132142Y-24736905D01*
X122194047Y-24675000D01*
X122286904Y-24644048D01*
X122348809Y-24644048D01*
X122441666Y-24675000D01*
X122472618Y-24705952D01*
X123060714Y-24644048D02*
X122751190Y-24644048D01*
X122720238Y-24953571D01*
X122751190Y-24922619D01*
X122813095Y-24891667D01*
X122967857Y-24891667D01*
X123029761Y-24922619D01*
X123060714Y-24953571D01*
X123091666Y-25015476D01*
X123091666Y-25170238D01*
X123060714Y-25232143D01*
X123029761Y-25263095D01*
X122967857Y-25294048D01*
X122813095Y-25294048D01*
X122751190Y-25263095D01*
X122720238Y-25232143D01*
X123494047Y-24644048D02*
X123555952Y-24644048D01*
X123617857Y-24675000D01*
X123648809Y-24705952D01*
X123679762Y-24767857D01*
X123710714Y-24891667D01*
X123710714Y-25046429D01*
X123679762Y-25170238D01*
X123648809Y-25232143D01*
X123617857Y-25263095D01*
X123555952Y-25294048D01*
X123494047Y-25294048D01*
X123432143Y-25263095D01*
X123401190Y-25232143D01*
X123370238Y-25170238D01*
X123339286Y-25046429D01*
X123339286Y-24891667D01*
X123370238Y-24767857D01*
X123401190Y-24705952D01*
X123432143Y-24675000D01*
X123494047Y-24644048D01*
X124267857Y-24644048D02*
X124144048Y-24644048D01*
X124082143Y-24675000D01*
X124051191Y-24705952D01*
X123989286Y-24798810D01*
X123958334Y-24922619D01*
X123958334Y-25170238D01*
X123989286Y-25232143D01*
X124020238Y-25263095D01*
X124082143Y-25294048D01*
X124205953Y-25294048D01*
X124267857Y-25263095D01*
X124298810Y-25232143D01*
X124329762Y-25170238D01*
X124329762Y-25015476D01*
X124298810Y-24953571D01*
X124267857Y-24922619D01*
X124205953Y-24891667D01*
X124082143Y-24891667D01*
X124020238Y-24922619D01*
X123989286Y-24953571D01*
X123958334Y-25015476D01*
X130472618Y-33632143D02*
X130441666Y-33663095D01*
X130348809Y-33694048D01*
X130286904Y-33694048D01*
X130194047Y-33663095D01*
X130132142Y-33601190D01*
X130101190Y-33539286D01*
X130070238Y-33415476D01*
X130070238Y-33322619D01*
X130101190Y-33198810D01*
X130132142Y-33136905D01*
X130194047Y-33075000D01*
X130286904Y-33044048D01*
X130348809Y-33044048D01*
X130441666Y-33075000D01*
X130472618Y-33105952D01*
X131060714Y-33044048D02*
X130751190Y-33044048D01*
X130720238Y-33353571D01*
X130751190Y-33322619D01*
X130813095Y-33291667D01*
X130967857Y-33291667D01*
X131029761Y-33322619D01*
X131060714Y-33353571D01*
X131091666Y-33415476D01*
X131091666Y-33570238D01*
X131060714Y-33632143D01*
X131029761Y-33663095D01*
X130967857Y-33694048D01*
X130813095Y-33694048D01*
X130751190Y-33663095D01*
X130720238Y-33632143D01*
X131494047Y-33044048D02*
X131555952Y-33044048D01*
X131617857Y-33075000D01*
X131648809Y-33105952D01*
X131679762Y-33167857D01*
X131710714Y-33291667D01*
X131710714Y-33446429D01*
X131679762Y-33570238D01*
X131648809Y-33632143D01*
X131617857Y-33663095D01*
X131555952Y-33694048D01*
X131494047Y-33694048D01*
X131432143Y-33663095D01*
X131401190Y-33632143D01*
X131370238Y-33570238D01*
X131339286Y-33446429D01*
X131339286Y-33291667D01*
X131370238Y-33167857D01*
X131401190Y-33105952D01*
X131432143Y-33075000D01*
X131494047Y-33044048D01*
X131927381Y-33044048D02*
X132360714Y-33044048D01*
X132082143Y-33694048D01*
X149272618Y-68732143D02*
X149241666Y-68763095D01*
X149148809Y-68794048D01*
X149086904Y-68794048D01*
X148994047Y-68763095D01*
X148932142Y-68701190D01*
X148901190Y-68639286D01*
X148870238Y-68515476D01*
X148870238Y-68422619D01*
X148901190Y-68298810D01*
X148932142Y-68236905D01*
X148994047Y-68175000D01*
X149086904Y-68144048D01*
X149148809Y-68144048D01*
X149241666Y-68175000D01*
X149272618Y-68205952D01*
X149829761Y-68144048D02*
X149705952Y-68144048D01*
X149644047Y-68175000D01*
X149613095Y-68205952D01*
X149551190Y-68298810D01*
X149520238Y-68422619D01*
X149520238Y-68670238D01*
X149551190Y-68732143D01*
X149582142Y-68763095D01*
X149644047Y-68794048D01*
X149767857Y-68794048D01*
X149829761Y-68763095D01*
X149860714Y-68732143D01*
X149891666Y-68670238D01*
X149891666Y-68515476D01*
X149860714Y-68453571D01*
X149829761Y-68422619D01*
X149767857Y-68391667D01*
X149644047Y-68391667D01*
X149582142Y-68422619D01*
X149551190Y-68453571D01*
X149520238Y-68515476D01*
X150294047Y-68144048D02*
X150355952Y-68144048D01*
X150417857Y-68175000D01*
X150448809Y-68205952D01*
X150479762Y-68267857D01*
X150510714Y-68391667D01*
X150510714Y-68546429D01*
X150479762Y-68670238D01*
X150448809Y-68732143D01*
X150417857Y-68763095D01*
X150355952Y-68794048D01*
X150294047Y-68794048D01*
X150232143Y-68763095D01*
X150201190Y-68732143D01*
X150170238Y-68670238D01*
X150139286Y-68546429D01*
X150139286Y-68391667D01*
X150170238Y-68267857D01*
X150201190Y-68205952D01*
X150232143Y-68175000D01*
X150294047Y-68144048D01*
X151129762Y-68794048D02*
X150758334Y-68794048D01*
X150944048Y-68794048D02*
X150944048Y-68144048D01*
X150882143Y-68236905D01*
X150820238Y-68298810D01*
X150758334Y-68329762D01*
X175153571Y-72335714D02*
X175153571Y-72552381D01*
X175494048Y-72552381D02*
X174844048Y-72552381D01*
X174844048Y-72242857D01*
X175060714Y-71716667D02*
X175494048Y-71716667D01*
X174813095Y-71871429D02*
X175277381Y-72026190D01*
X175277381Y-71623810D01*
X174844048Y-71252381D02*
X174844048Y-71190476D01*
X174875000Y-71128571D01*
X174905952Y-71097619D01*
X174967857Y-71066666D01*
X175091667Y-71035714D01*
X175246429Y-71035714D01*
X175370238Y-71066666D01*
X175432143Y-71097619D01*
X175463095Y-71128571D01*
X175494048Y-71190476D01*
X175494048Y-71252381D01*
X175463095Y-71314285D01*
X175432143Y-71345238D01*
X175370238Y-71376190D01*
X175246429Y-71407142D01*
X175091667Y-71407142D01*
X174967857Y-71376190D01*
X174905952Y-71345238D01*
X174875000Y-71314285D01*
X174844048Y-71252381D01*
X175494048Y-70416666D02*
X175494048Y-70788094D01*
X175494048Y-70602380D02*
X174844048Y-70602380D01*
X174936905Y-70664285D01*
X174998810Y-70726190D01*
X175029762Y-70788094D01*
X149164285Y-70644048D02*
X149164285Y-71108333D01*
X149133333Y-71201190D01*
X149071428Y-71263095D01*
X148978571Y-71294048D01*
X148916666Y-71294048D01*
X149752380Y-70860714D02*
X149752380Y-71294048D01*
X149597618Y-70613095D02*
X149442857Y-71077381D01*
X149845237Y-71077381D01*
X150216666Y-70644048D02*
X150278571Y-70644048D01*
X150340476Y-70675000D01*
X150371428Y-70705952D01*
X150402381Y-70767857D01*
X150433333Y-70891667D01*
X150433333Y-71046429D01*
X150402381Y-71170238D01*
X150371428Y-71232143D01*
X150340476Y-71263095D01*
X150278571Y-71294048D01*
X150216666Y-71294048D01*
X150154762Y-71263095D01*
X150123809Y-71232143D01*
X150092857Y-71170238D01*
X150061905Y-71046429D01*
X150061905Y-70891667D01*
X150092857Y-70767857D01*
X150123809Y-70705952D01*
X150154762Y-70675000D01*
X150216666Y-70644048D01*
X151052381Y-71294048D02*
X150680953Y-71294048D01*
X150866667Y-71294048D02*
X150866667Y-70644048D01*
X150804762Y-70736905D01*
X150742857Y-70798810D01*
X150680953Y-70829762D01*
X124672619Y-51094048D02*
X124363095Y-51094048D01*
X124363095Y-50444048D01*
X124858333Y-50505952D02*
X124889285Y-50475000D01*
X124951190Y-50444048D01*
X125105952Y-50444048D01*
X125167856Y-50475000D01*
X125198809Y-50505952D01*
X125229761Y-50567857D01*
X125229761Y-50629762D01*
X125198809Y-50722619D01*
X124827380Y-51094048D01*
X125229761Y-51094048D01*
X125632142Y-50444048D02*
X125694047Y-50444048D01*
X125755952Y-50475000D01*
X125786904Y-50505952D01*
X125817857Y-50567857D01*
X125848809Y-50691667D01*
X125848809Y-50846429D01*
X125817857Y-50970238D01*
X125786904Y-51032143D01*
X125755952Y-51063095D01*
X125694047Y-51094048D01*
X125632142Y-51094048D01*
X125570238Y-51063095D01*
X125539285Y-51032143D01*
X125508333Y-50970238D01*
X125477381Y-50846429D01*
X125477381Y-50691667D01*
X125508333Y-50567857D01*
X125539285Y-50505952D01*
X125570238Y-50475000D01*
X125632142Y-50444048D01*
X126096429Y-50505952D02*
X126127381Y-50475000D01*
X126189286Y-50444048D01*
X126344048Y-50444048D01*
X126405952Y-50475000D01*
X126436905Y-50505952D01*
X126467857Y-50567857D01*
X126467857Y-50629762D01*
X126436905Y-50722619D01*
X126065476Y-51094048D01*
X126467857Y-51094048D01*
X125494048Y-49327381D02*
X125494048Y-49636905D01*
X124844048Y-49636905D01*
X124905952Y-49141667D02*
X124875000Y-49110715D01*
X124844048Y-49048810D01*
X124844048Y-48894048D01*
X124875000Y-48832144D01*
X124905952Y-48801191D01*
X124967857Y-48770239D01*
X125029762Y-48770239D01*
X125122619Y-48801191D01*
X125494048Y-49172620D01*
X125494048Y-48770239D01*
X124844048Y-48367858D02*
X124844048Y-48305953D01*
X124875000Y-48244048D01*
X124905952Y-48213096D01*
X124967857Y-48182143D01*
X125091667Y-48151191D01*
X125246429Y-48151191D01*
X125370238Y-48182143D01*
X125432143Y-48213096D01*
X125463095Y-48244048D01*
X125494048Y-48305953D01*
X125494048Y-48367858D01*
X125463095Y-48429762D01*
X125432143Y-48460715D01*
X125370238Y-48491667D01*
X125246429Y-48522619D01*
X125091667Y-48522619D01*
X124967857Y-48491667D01*
X124905952Y-48460715D01*
X124875000Y-48429762D01*
X124844048Y-48367858D01*
X124844048Y-47934524D02*
X124844048Y-47532143D01*
X125091667Y-47748810D01*
X125091667Y-47655952D01*
X125122619Y-47594048D01*
X125153571Y-47563095D01*
X125215476Y-47532143D01*
X125370238Y-47532143D01*
X125432143Y-47563095D01*
X125463095Y-47594048D01*
X125494048Y-47655952D01*
X125494048Y-47841667D01*
X125463095Y-47903571D01*
X125432143Y-47934524D01*
X186872619Y-50494048D02*
X186563095Y-50494048D01*
X186563095Y-49844048D01*
X187027380Y-49844048D02*
X187429761Y-49844048D01*
X187213094Y-50091667D01*
X187305952Y-50091667D01*
X187367856Y-50122619D01*
X187398809Y-50153571D01*
X187429761Y-50215476D01*
X187429761Y-50370238D01*
X187398809Y-50432143D01*
X187367856Y-50463095D01*
X187305952Y-50494048D01*
X187120237Y-50494048D01*
X187058333Y-50463095D01*
X187027380Y-50432143D01*
X187832142Y-49844048D02*
X187894047Y-49844048D01*
X187955952Y-49875000D01*
X187986904Y-49905952D01*
X188017857Y-49967857D01*
X188048809Y-50091667D01*
X188048809Y-50246429D01*
X188017857Y-50370238D01*
X187986904Y-50432143D01*
X187955952Y-50463095D01*
X187894047Y-50494048D01*
X187832142Y-50494048D01*
X187770238Y-50463095D01*
X187739285Y-50432143D01*
X187708333Y-50370238D01*
X187677381Y-50246429D01*
X187677381Y-50091667D01*
X187708333Y-49967857D01*
X187739285Y-49905952D01*
X187770238Y-49875000D01*
X187832142Y-49844048D01*
X188296429Y-49905952D02*
X188327381Y-49875000D01*
X188389286Y-49844048D01*
X188544048Y-49844048D01*
X188605952Y-49875000D01*
X188636905Y-49905952D01*
X188667857Y-49967857D01*
X188667857Y-50029762D01*
X188636905Y-50122619D01*
X188265476Y-50494048D01*
X188667857Y-50494048D01*
X175544048Y-68727381D02*
X175544048Y-69036905D01*
X174894048Y-69036905D01*
X175110714Y-68232144D02*
X175544048Y-68232144D01*
X174863095Y-68386906D02*
X175327381Y-68541667D01*
X175327381Y-68139287D01*
X174894048Y-67767858D02*
X174894048Y-67705953D01*
X174925000Y-67644048D01*
X174955952Y-67613096D01*
X175017857Y-67582143D01*
X175141667Y-67551191D01*
X175296429Y-67551191D01*
X175420238Y-67582143D01*
X175482143Y-67613096D01*
X175513095Y-67644048D01*
X175544048Y-67705953D01*
X175544048Y-67767858D01*
X175513095Y-67829762D01*
X175482143Y-67860715D01*
X175420238Y-67891667D01*
X175296429Y-67922619D01*
X175141667Y-67922619D01*
X175017857Y-67891667D01*
X174955952Y-67860715D01*
X174925000Y-67829762D01*
X174894048Y-67767858D01*
X175544048Y-66932143D02*
X175544048Y-67303571D01*
X175544048Y-67117857D02*
X174894048Y-67117857D01*
X174986905Y-67179762D01*
X175048810Y-67241667D01*
X175079762Y-67303571D01*
X140044048Y-42477382D02*
X139734524Y-42694048D01*
X140044048Y-42848810D02*
X139394048Y-42848810D01*
X139394048Y-42601191D01*
X139425000Y-42539286D01*
X139455952Y-42508334D01*
X139517857Y-42477382D01*
X139610714Y-42477382D01*
X139672619Y-42508334D01*
X139703571Y-42539286D01*
X139734524Y-42601191D01*
X139734524Y-42848810D01*
X139455952Y-42229762D02*
X139425000Y-42198810D01*
X139394048Y-42136905D01*
X139394048Y-41982143D01*
X139425000Y-41920239D01*
X139455952Y-41889286D01*
X139517857Y-41858334D01*
X139579762Y-41858334D01*
X139672619Y-41889286D01*
X140044048Y-42260715D01*
X140044048Y-41858334D01*
X139394048Y-41455953D02*
X139394048Y-41394048D01*
X139425000Y-41332143D01*
X139455952Y-41301191D01*
X139517857Y-41270238D01*
X139641667Y-41239286D01*
X139796429Y-41239286D01*
X139920238Y-41270238D01*
X139982143Y-41301191D01*
X140013095Y-41332143D01*
X140044048Y-41394048D01*
X140044048Y-41455953D01*
X140013095Y-41517857D01*
X139982143Y-41548810D01*
X139920238Y-41579762D01*
X139796429Y-41610714D01*
X139641667Y-41610714D01*
X139517857Y-41579762D01*
X139455952Y-41548810D01*
X139425000Y-41517857D01*
X139394048Y-41455953D01*
X139610714Y-40682143D02*
X140044048Y-40682143D01*
X139363095Y-40836905D02*
X139827381Y-40991666D01*
X139827381Y-40589286D01*
X138772618Y-44044048D02*
X138555952Y-43734524D01*
X138401190Y-44044048D02*
X138401190Y-43394048D01*
X138648809Y-43394048D01*
X138710714Y-43425000D01*
X138741666Y-43455952D01*
X138772618Y-43517857D01*
X138772618Y-43610714D01*
X138741666Y-43672619D01*
X138710714Y-43703571D01*
X138648809Y-43734524D01*
X138401190Y-43734524D01*
X139020238Y-43455952D02*
X139051190Y-43425000D01*
X139113095Y-43394048D01*
X139267857Y-43394048D01*
X139329761Y-43425000D01*
X139360714Y-43455952D01*
X139391666Y-43517857D01*
X139391666Y-43579762D01*
X139360714Y-43672619D01*
X138989285Y-44044048D01*
X139391666Y-44044048D01*
X139794047Y-43394048D02*
X139855952Y-43394048D01*
X139917857Y-43425000D01*
X139948809Y-43455952D01*
X139979762Y-43517857D01*
X140010714Y-43641667D01*
X140010714Y-43796429D01*
X139979762Y-43920238D01*
X139948809Y-43982143D01*
X139917857Y-44013095D01*
X139855952Y-44044048D01*
X139794047Y-44044048D01*
X139732143Y-44013095D01*
X139701190Y-43982143D01*
X139670238Y-43920238D01*
X139639286Y-43796429D01*
X139639286Y-43641667D01*
X139670238Y-43517857D01*
X139701190Y-43455952D01*
X139732143Y-43425000D01*
X139794047Y-43394048D01*
X140598810Y-43394048D02*
X140289286Y-43394048D01*
X140258334Y-43703571D01*
X140289286Y-43672619D01*
X140351191Y-43641667D01*
X140505953Y-43641667D01*
X140567857Y-43672619D01*
X140598810Y-43703571D01*
X140629762Y-43765476D01*
X140629762Y-43920238D01*
X140598810Y-43982143D01*
X140567857Y-44013095D01*
X140505953Y-44044048D01*
X140351191Y-44044048D01*
X140289286Y-44013095D01*
X140258334Y-43982143D01*
X134022618Y-45794048D02*
X133805952Y-45484524D01*
X133651190Y-45794048D02*
X133651190Y-45144048D01*
X133898809Y-45144048D01*
X133960714Y-45175000D01*
X133991666Y-45205952D01*
X134022618Y-45267857D01*
X134022618Y-45360714D01*
X133991666Y-45422619D01*
X133960714Y-45453571D01*
X133898809Y-45484524D01*
X133651190Y-45484524D01*
X134270238Y-45205952D02*
X134301190Y-45175000D01*
X134363095Y-45144048D01*
X134517857Y-45144048D01*
X134579761Y-45175000D01*
X134610714Y-45205952D01*
X134641666Y-45267857D01*
X134641666Y-45329762D01*
X134610714Y-45422619D01*
X134239285Y-45794048D01*
X134641666Y-45794048D01*
X135044047Y-45144048D02*
X135105952Y-45144048D01*
X135167857Y-45175000D01*
X135198809Y-45205952D01*
X135229762Y-45267857D01*
X135260714Y-45391667D01*
X135260714Y-45546429D01*
X135229762Y-45670238D01*
X135198809Y-45732143D01*
X135167857Y-45763095D01*
X135105952Y-45794048D01*
X135044047Y-45794048D01*
X134982143Y-45763095D01*
X134951190Y-45732143D01*
X134920238Y-45670238D01*
X134889286Y-45546429D01*
X134889286Y-45391667D01*
X134920238Y-45267857D01*
X134951190Y-45205952D01*
X134982143Y-45175000D01*
X135044047Y-45144048D01*
X135817857Y-45144048D02*
X135694048Y-45144048D01*
X135632143Y-45175000D01*
X135601191Y-45205952D01*
X135539286Y-45298810D01*
X135508334Y-45422619D01*
X135508334Y-45670238D01*
X135539286Y-45732143D01*
X135570238Y-45763095D01*
X135632143Y-45794048D01*
X135755953Y-45794048D01*
X135817857Y-45763095D01*
X135848810Y-45732143D01*
X135879762Y-45670238D01*
X135879762Y-45515476D01*
X135848810Y-45453571D01*
X135817857Y-45422619D01*
X135755953Y-45391667D01*
X135632143Y-45391667D01*
X135570238Y-45422619D01*
X135539286Y-45453571D01*
X135508334Y-45515476D01*
X139044048Y-47977382D02*
X138734524Y-48194048D01*
X139044048Y-48348810D02*
X138394048Y-48348810D01*
X138394048Y-48101191D01*
X138425000Y-48039286D01*
X138455952Y-48008334D01*
X138517857Y-47977382D01*
X138610714Y-47977382D01*
X138672619Y-48008334D01*
X138703571Y-48039286D01*
X138734524Y-48101191D01*
X138734524Y-48348810D01*
X138455952Y-47729762D02*
X138425000Y-47698810D01*
X138394048Y-47636905D01*
X138394048Y-47482143D01*
X138425000Y-47420239D01*
X138455952Y-47389286D01*
X138517857Y-47358334D01*
X138579762Y-47358334D01*
X138672619Y-47389286D01*
X139044048Y-47760715D01*
X139044048Y-47358334D01*
X138394048Y-46955953D02*
X138394048Y-46894048D01*
X138425000Y-46832143D01*
X138455952Y-46801191D01*
X138517857Y-46770238D01*
X138641667Y-46739286D01*
X138796429Y-46739286D01*
X138920238Y-46770238D01*
X138982143Y-46801191D01*
X139013095Y-46832143D01*
X139044048Y-46894048D01*
X139044048Y-46955953D01*
X139013095Y-47017857D01*
X138982143Y-47048810D01*
X138920238Y-47079762D01*
X138796429Y-47110714D01*
X138641667Y-47110714D01*
X138517857Y-47079762D01*
X138455952Y-47048810D01*
X138425000Y-47017857D01*
X138394048Y-46955953D01*
X138394048Y-46522619D02*
X138394048Y-46089286D01*
X139044048Y-46367857D01*
X175094048Y-46127382D02*
X174784524Y-46344048D01*
X175094048Y-46498810D02*
X174444048Y-46498810D01*
X174444048Y-46251191D01*
X174475000Y-46189286D01*
X174505952Y-46158334D01*
X174567857Y-46127382D01*
X174660714Y-46127382D01*
X174722619Y-46158334D01*
X174753571Y-46189286D01*
X174784524Y-46251191D01*
X174784524Y-46498810D01*
X174444048Y-45910715D02*
X174444048Y-45508334D01*
X174691667Y-45725001D01*
X174691667Y-45632143D01*
X174722619Y-45570239D01*
X174753571Y-45539286D01*
X174815476Y-45508334D01*
X174970238Y-45508334D01*
X175032143Y-45539286D01*
X175063095Y-45570239D01*
X175094048Y-45632143D01*
X175094048Y-45817858D01*
X175063095Y-45879762D01*
X175032143Y-45910715D01*
X174444048Y-45105953D02*
X174444048Y-45044048D01*
X174475000Y-44982143D01*
X174505952Y-44951191D01*
X174567857Y-44920238D01*
X174691667Y-44889286D01*
X174846429Y-44889286D01*
X174970238Y-44920238D01*
X175032143Y-44951191D01*
X175063095Y-44982143D01*
X175094048Y-45044048D01*
X175094048Y-45105953D01*
X175063095Y-45167857D01*
X175032143Y-45198810D01*
X174970238Y-45229762D01*
X174846429Y-45260714D01*
X174691667Y-45260714D01*
X174567857Y-45229762D01*
X174505952Y-45198810D01*
X174475000Y-45167857D01*
X174444048Y-45105953D01*
X174660714Y-44332143D02*
X175094048Y-44332143D01*
X174413095Y-44486905D02*
X174877381Y-44641666D01*
X174877381Y-44239286D01*
X177694048Y-50527382D02*
X177384524Y-50744048D01*
X177694048Y-50898810D02*
X177044048Y-50898810D01*
X177044048Y-50651191D01*
X177075000Y-50589286D01*
X177105952Y-50558334D01*
X177167857Y-50527382D01*
X177260714Y-50527382D01*
X177322619Y-50558334D01*
X177353571Y-50589286D01*
X177384524Y-50651191D01*
X177384524Y-50898810D01*
X177044048Y-50310715D02*
X177044048Y-49908334D01*
X177291667Y-50125001D01*
X177291667Y-50032143D01*
X177322619Y-49970239D01*
X177353571Y-49939286D01*
X177415476Y-49908334D01*
X177570238Y-49908334D01*
X177632143Y-49939286D01*
X177663095Y-49970239D01*
X177694048Y-50032143D01*
X177694048Y-50217858D01*
X177663095Y-50279762D01*
X177632143Y-50310715D01*
X177044048Y-49505953D02*
X177044048Y-49444048D01*
X177075000Y-49382143D01*
X177105952Y-49351191D01*
X177167857Y-49320238D01*
X177291667Y-49289286D01*
X177446429Y-49289286D01*
X177570238Y-49320238D01*
X177632143Y-49351191D01*
X177663095Y-49382143D01*
X177694048Y-49444048D01*
X177694048Y-49505953D01*
X177663095Y-49567857D01*
X177632143Y-49598810D01*
X177570238Y-49629762D01*
X177446429Y-49660714D01*
X177291667Y-49660714D01*
X177167857Y-49629762D01*
X177105952Y-49598810D01*
X177075000Y-49567857D01*
X177044048Y-49505953D01*
X177044048Y-48701190D02*
X177044048Y-49010714D01*
X177353571Y-49041666D01*
X177322619Y-49010714D01*
X177291667Y-48948809D01*
X177291667Y-48794047D01*
X177322619Y-48732143D01*
X177353571Y-48701190D01*
X177415476Y-48670238D01*
X177570238Y-48670238D01*
X177632143Y-48701190D01*
X177663095Y-48732143D01*
X177694048Y-48794047D01*
X177694048Y-48948809D01*
X177663095Y-49010714D01*
X177632143Y-49041666D01*
X176294048Y-54727382D02*
X175984524Y-54944048D01*
X176294048Y-55098810D02*
X175644048Y-55098810D01*
X175644048Y-54851191D01*
X175675000Y-54789286D01*
X175705952Y-54758334D01*
X175767857Y-54727382D01*
X175860714Y-54727382D01*
X175922619Y-54758334D01*
X175953571Y-54789286D01*
X175984524Y-54851191D01*
X175984524Y-55098810D01*
X175644048Y-54510715D02*
X175644048Y-54108334D01*
X175891667Y-54325001D01*
X175891667Y-54232143D01*
X175922619Y-54170239D01*
X175953571Y-54139286D01*
X176015476Y-54108334D01*
X176170238Y-54108334D01*
X176232143Y-54139286D01*
X176263095Y-54170239D01*
X176294048Y-54232143D01*
X176294048Y-54417858D01*
X176263095Y-54479762D01*
X176232143Y-54510715D01*
X175644048Y-53705953D02*
X175644048Y-53644048D01*
X175675000Y-53582143D01*
X175705952Y-53551191D01*
X175767857Y-53520238D01*
X175891667Y-53489286D01*
X176046429Y-53489286D01*
X176170238Y-53520238D01*
X176232143Y-53551191D01*
X176263095Y-53582143D01*
X176294048Y-53644048D01*
X176294048Y-53705953D01*
X176263095Y-53767857D01*
X176232143Y-53798810D01*
X176170238Y-53829762D01*
X176046429Y-53860714D01*
X175891667Y-53860714D01*
X175767857Y-53829762D01*
X175705952Y-53798810D01*
X175675000Y-53767857D01*
X175644048Y-53705953D01*
X175644048Y-52932143D02*
X175644048Y-53055952D01*
X175675000Y-53117857D01*
X175705952Y-53148809D01*
X175798810Y-53210714D01*
X175922619Y-53241666D01*
X176170238Y-53241666D01*
X176232143Y-53210714D01*
X176263095Y-53179762D01*
X176294048Y-53117857D01*
X176294048Y-52994047D01*
X176263095Y-52932143D01*
X176232143Y-52901190D01*
X176170238Y-52870238D01*
X176015476Y-52870238D01*
X175953571Y-52901190D01*
X175922619Y-52932143D01*
X175891667Y-52994047D01*
X175891667Y-53117857D01*
X175922619Y-53179762D01*
X175953571Y-53210714D01*
X176015476Y-53241666D01*
X175294048Y-54727382D02*
X174984524Y-54944048D01*
X175294048Y-55098810D02*
X174644048Y-55098810D01*
X174644048Y-54851191D01*
X174675000Y-54789286D01*
X174705952Y-54758334D01*
X174767857Y-54727382D01*
X174860714Y-54727382D01*
X174922619Y-54758334D01*
X174953571Y-54789286D01*
X174984524Y-54851191D01*
X174984524Y-55098810D01*
X174644048Y-54510715D02*
X174644048Y-54108334D01*
X174891667Y-54325001D01*
X174891667Y-54232143D01*
X174922619Y-54170239D01*
X174953571Y-54139286D01*
X175015476Y-54108334D01*
X175170238Y-54108334D01*
X175232143Y-54139286D01*
X175263095Y-54170239D01*
X175294048Y-54232143D01*
X175294048Y-54417858D01*
X175263095Y-54479762D01*
X175232143Y-54510715D01*
X174644048Y-53705953D02*
X174644048Y-53644048D01*
X174675000Y-53582143D01*
X174705952Y-53551191D01*
X174767857Y-53520238D01*
X174891667Y-53489286D01*
X175046429Y-53489286D01*
X175170238Y-53520238D01*
X175232143Y-53551191D01*
X175263095Y-53582143D01*
X175294048Y-53644048D01*
X175294048Y-53705953D01*
X175263095Y-53767857D01*
X175232143Y-53798810D01*
X175170238Y-53829762D01*
X175046429Y-53860714D01*
X174891667Y-53860714D01*
X174767857Y-53829762D01*
X174705952Y-53798810D01*
X174675000Y-53767857D01*
X174644048Y-53705953D01*
X174644048Y-53272619D02*
X174644048Y-52839286D01*
X175294048Y-53117857D01*
X158472618Y-46794048D02*
X158255952Y-46484524D01*
X158101190Y-46794048D02*
X158101190Y-46144048D01*
X158348809Y-46144048D01*
X158410714Y-46175000D01*
X158441666Y-46205952D01*
X158472618Y-46267857D01*
X158472618Y-46360714D01*
X158441666Y-46422619D01*
X158410714Y-46453571D01*
X158348809Y-46484524D01*
X158101190Y-46484524D01*
X159029761Y-46360714D02*
X159029761Y-46794048D01*
X158874999Y-46113095D02*
X158720238Y-46577381D01*
X159122618Y-46577381D01*
X159494047Y-46144048D02*
X159555952Y-46144048D01*
X159617857Y-46175000D01*
X159648809Y-46205952D01*
X159679762Y-46267857D01*
X159710714Y-46391667D01*
X159710714Y-46546429D01*
X159679762Y-46670238D01*
X159648809Y-46732143D01*
X159617857Y-46763095D01*
X159555952Y-46794048D01*
X159494047Y-46794048D01*
X159432143Y-46763095D01*
X159401190Y-46732143D01*
X159370238Y-46670238D01*
X159339286Y-46546429D01*
X159339286Y-46391667D01*
X159370238Y-46267857D01*
X159401190Y-46205952D01*
X159432143Y-46175000D01*
X159494047Y-46144048D01*
X160329762Y-46794048D02*
X159958334Y-46794048D01*
X160144048Y-46794048D02*
X160144048Y-46144048D01*
X160082143Y-46236905D01*
X160020238Y-46298810D01*
X159958334Y-46329762D01*
X167044048Y-47427382D02*
X166734524Y-47644048D01*
X167044048Y-47798810D02*
X166394048Y-47798810D01*
X166394048Y-47551191D01*
X166425000Y-47489286D01*
X166455952Y-47458334D01*
X166517857Y-47427382D01*
X166610714Y-47427382D01*
X166672619Y-47458334D01*
X166703571Y-47489286D01*
X166734524Y-47551191D01*
X166734524Y-47798810D01*
X166610714Y-46870239D02*
X167044048Y-46870239D01*
X166363095Y-47025001D02*
X166827381Y-47179762D01*
X166827381Y-46777382D01*
X166394048Y-46405953D02*
X166394048Y-46344048D01*
X166425000Y-46282143D01*
X166455952Y-46251191D01*
X166517857Y-46220238D01*
X166641667Y-46189286D01*
X166796429Y-46189286D01*
X166920238Y-46220238D01*
X166982143Y-46251191D01*
X167013095Y-46282143D01*
X167044048Y-46344048D01*
X167044048Y-46405953D01*
X167013095Y-46467857D01*
X166982143Y-46498810D01*
X166920238Y-46529762D01*
X166796429Y-46560714D01*
X166641667Y-46560714D01*
X166517857Y-46529762D01*
X166455952Y-46498810D01*
X166425000Y-46467857D01*
X166394048Y-46405953D01*
X166394048Y-45972619D02*
X166394048Y-45570238D01*
X166641667Y-45786905D01*
X166641667Y-45694047D01*
X166672619Y-45632143D01*
X166703571Y-45601190D01*
X166765476Y-45570238D01*
X166920238Y-45570238D01*
X166982143Y-45601190D01*
X167013095Y-45632143D01*
X167044048Y-45694047D01*
X167044048Y-45879762D01*
X167013095Y-45941666D01*
X166982143Y-45972619D01*
X130171429Y-32358333D02*
X130480952Y-32358333D01*
X130109524Y-32544048D02*
X130326190Y-31894048D01*
X130542857Y-32544048D01*
X130666667Y-31894048D02*
X131038095Y-31894048D01*
X130852381Y-32544048D02*
X130852381Y-31894048D01*
X131161905Y-31894048D02*
X131533333Y-31894048D01*
X131347619Y-32544048D02*
X131347619Y-31894048D01*
X132059524Y-31894048D02*
X131750000Y-31894048D01*
X131719048Y-32203571D01*
X131750000Y-32172619D01*
X131811905Y-32141667D01*
X131966667Y-32141667D01*
X132028571Y-32172619D01*
X132059524Y-32203571D01*
X132090476Y-32265476D01*
X132090476Y-32420238D01*
X132059524Y-32482143D01*
X132028571Y-32513095D01*
X131966667Y-32544048D01*
X131811905Y-32544048D01*
X131750000Y-32513095D01*
X131719048Y-32482143D01*
X132492857Y-31894048D02*
X132554762Y-31894048D01*
X132616667Y-31925000D01*
X132647619Y-31955952D01*
X132678572Y-32017857D01*
X132709524Y-32141667D01*
X132709524Y-32296429D01*
X132678572Y-32420238D01*
X132647619Y-32482143D01*
X132616667Y-32513095D01*
X132554762Y-32544048D01*
X132492857Y-32544048D01*
X132430953Y-32513095D01*
X132400000Y-32482143D01*
X132369048Y-32420238D01*
X132338096Y-32296429D01*
X132338096Y-32141667D01*
X132369048Y-32017857D01*
X132400000Y-31955952D01*
X132430953Y-31925000D01*
X132492857Y-31894048D01*
X133328572Y-32544048D02*
X132957144Y-32544048D01*
X133142858Y-32544048D02*
X133142858Y-31894048D01*
X133080953Y-31986905D01*
X133019048Y-32048810D01*
X132957144Y-32079762D01*
X129885714Y-47444048D02*
X129885714Y-47970238D01*
X129916666Y-48032143D01*
X129947619Y-48063095D01*
X130009523Y-48094048D01*
X130133333Y-48094048D01*
X130195238Y-48063095D01*
X130226190Y-48032143D01*
X130257142Y-47970238D01*
X130257142Y-47444048D01*
X130535714Y-47505952D02*
X130566666Y-47475000D01*
X130628571Y-47444048D01*
X130783333Y-47444048D01*
X130845237Y-47475000D01*
X130876190Y-47505952D01*
X130907142Y-47567857D01*
X130907142Y-47629762D01*
X130876190Y-47722619D01*
X130504761Y-48094048D01*
X130907142Y-48094048D01*
X131309523Y-47444048D02*
X131371428Y-47444048D01*
X131433333Y-47475000D01*
X131464285Y-47505952D01*
X131495238Y-47567857D01*
X131526190Y-47691667D01*
X131526190Y-47846429D01*
X131495238Y-47970238D01*
X131464285Y-48032143D01*
X131433333Y-48063095D01*
X131371428Y-48094048D01*
X131309523Y-48094048D01*
X131247619Y-48063095D01*
X131216666Y-48032143D01*
X131185714Y-47970238D01*
X131154762Y-47846429D01*
X131154762Y-47691667D01*
X131185714Y-47567857D01*
X131216666Y-47505952D01*
X131247619Y-47475000D01*
X131309523Y-47444048D01*
X131773810Y-47505952D02*
X131804762Y-47475000D01*
X131866667Y-47444048D01*
X132021429Y-47444048D01*
X132083333Y-47475000D01*
X132114286Y-47505952D01*
X132145238Y-47567857D01*
X132145238Y-47629762D01*
X132114286Y-47722619D01*
X131742857Y-48094048D01*
X132145238Y-48094048D01*
X186485714Y-47844048D02*
X186485714Y-48370238D01*
X186516666Y-48432143D01*
X186547619Y-48463095D01*
X186609523Y-48494048D01*
X186733333Y-48494048D01*
X186795238Y-48463095D01*
X186826190Y-48432143D01*
X186857142Y-48370238D01*
X186857142Y-47844048D01*
X187104761Y-47844048D02*
X187507142Y-47844048D01*
X187290475Y-48091667D01*
X187383333Y-48091667D01*
X187445237Y-48122619D01*
X187476190Y-48153571D01*
X187507142Y-48215476D01*
X187507142Y-48370238D01*
X187476190Y-48432143D01*
X187445237Y-48463095D01*
X187383333Y-48494048D01*
X187197618Y-48494048D01*
X187135714Y-48463095D01*
X187104761Y-48432143D01*
X187909523Y-47844048D02*
X187971428Y-47844048D01*
X188033333Y-47875000D01*
X188064285Y-47905952D01*
X188095238Y-47967857D01*
X188126190Y-48091667D01*
X188126190Y-48246429D01*
X188095238Y-48370238D01*
X188064285Y-48432143D01*
X188033333Y-48463095D01*
X187971428Y-48494048D01*
X187909523Y-48494048D01*
X187847619Y-48463095D01*
X187816666Y-48432143D01*
X187785714Y-48370238D01*
X187754762Y-48246429D01*
X187754762Y-48091667D01*
X187785714Y-47967857D01*
X187816666Y-47905952D01*
X187847619Y-47875000D01*
X187909523Y-47844048D01*
X188373810Y-47905952D02*
X188404762Y-47875000D01*
X188466667Y-47844048D01*
X188621429Y-47844048D01*
X188683333Y-47875000D01*
X188714286Y-47905952D01*
X188745238Y-47967857D01*
X188745238Y-48029762D01*
X188714286Y-48122619D01*
X188342857Y-48494048D01*
X188745238Y-48494048D01*
X151135714Y-39394048D02*
X151135714Y-39920238D01*
X151166666Y-39982143D01*
X151197619Y-40013095D01*
X151259523Y-40044048D01*
X151383333Y-40044048D01*
X151445238Y-40013095D01*
X151476190Y-39982143D01*
X151507142Y-39920238D01*
X151507142Y-39394048D01*
X152095237Y-39610714D02*
X152095237Y-40044048D01*
X151940475Y-39363095D02*
X151785714Y-39827381D01*
X152188094Y-39827381D01*
X152559523Y-39394048D02*
X152621428Y-39394048D01*
X152683333Y-39425000D01*
X152714285Y-39455952D01*
X152745238Y-39517857D01*
X152776190Y-39641667D01*
X152776190Y-39796429D01*
X152745238Y-39920238D01*
X152714285Y-39982143D01*
X152683333Y-40013095D01*
X152621428Y-40044048D01*
X152559523Y-40044048D01*
X152497619Y-40013095D01*
X152466666Y-39982143D01*
X152435714Y-39920238D01*
X152404762Y-39796429D01*
X152404762Y-39641667D01*
X152435714Y-39517857D01*
X152466666Y-39455952D01*
X152497619Y-39425000D01*
X152559523Y-39394048D01*
X153395238Y-40044048D02*
X153023810Y-40044048D01*
X153209524Y-40044048D02*
X153209524Y-39394048D01*
X153147619Y-39486905D01*
X153085714Y-39548810D01*
X153023810Y-39579762D01*
X161885714Y-47394048D02*
X161885714Y-47920238D01*
X161916666Y-47982143D01*
X161947619Y-48013095D01*
X162009523Y-48044048D01*
X162133333Y-48044048D01*
X162195238Y-48013095D01*
X162226190Y-47982143D01*
X162257142Y-47920238D01*
X162257142Y-47394048D01*
X162845237Y-47610714D02*
X162845237Y-48044048D01*
X162690475Y-47363095D02*
X162535714Y-47827381D01*
X162938094Y-47827381D01*
X163309523Y-47394048D02*
X163371428Y-47394048D01*
X163433333Y-47425000D01*
X163464285Y-47455952D01*
X163495238Y-47517857D01*
X163526190Y-47641667D01*
X163526190Y-47796429D01*
X163495238Y-47920238D01*
X163464285Y-47982143D01*
X163433333Y-48013095D01*
X163371428Y-48044048D01*
X163309523Y-48044048D01*
X163247619Y-48013095D01*
X163216666Y-47982143D01*
X163185714Y-47920238D01*
X163154762Y-47796429D01*
X163154762Y-47641667D01*
X163185714Y-47517857D01*
X163216666Y-47455952D01*
X163247619Y-47425000D01*
X163309523Y-47394048D01*
X163773810Y-47455952D02*
X163804762Y-47425000D01*
X163866667Y-47394048D01*
X164021429Y-47394048D01*
X164083333Y-47425000D01*
X164114286Y-47455952D01*
X164145238Y-47517857D01*
X164145238Y-47579762D01*
X164114286Y-47672619D01*
X163742857Y-48044048D01*
X164145238Y-48044048D01*
X170385714Y-31144048D02*
X170385714Y-31670238D01*
X170416666Y-31732143D01*
X170447619Y-31763095D01*
X170509523Y-31794048D01*
X170633333Y-31794048D01*
X170695238Y-31763095D01*
X170726190Y-31732143D01*
X170757142Y-31670238D01*
X170757142Y-31144048D01*
X171376190Y-31144048D02*
X171066666Y-31144048D01*
X171035714Y-31453571D01*
X171066666Y-31422619D01*
X171128571Y-31391667D01*
X171283333Y-31391667D01*
X171345237Y-31422619D01*
X171376190Y-31453571D01*
X171407142Y-31515476D01*
X171407142Y-31670238D01*
X171376190Y-31732143D01*
X171345237Y-31763095D01*
X171283333Y-31794048D01*
X171128571Y-31794048D01*
X171066666Y-31763095D01*
X171035714Y-31732143D01*
X171809523Y-31144048D02*
X171871428Y-31144048D01*
X171933333Y-31175000D01*
X171964285Y-31205952D01*
X171995238Y-31267857D01*
X172026190Y-31391667D01*
X172026190Y-31546429D01*
X171995238Y-31670238D01*
X171964285Y-31732143D01*
X171933333Y-31763095D01*
X171871428Y-31794048D01*
X171809523Y-31794048D01*
X171747619Y-31763095D01*
X171716666Y-31732143D01*
X171685714Y-31670238D01*
X171654762Y-31546429D01*
X171654762Y-31391667D01*
X171685714Y-31267857D01*
X171716666Y-31205952D01*
X171747619Y-31175000D01*
X171809523Y-31144048D01*
X172273810Y-31205952D02*
X172304762Y-31175000D01*
X172366667Y-31144048D01*
X172521429Y-31144048D01*
X172583333Y-31175000D01*
X172614286Y-31205952D01*
X172645238Y-31267857D01*
X172645238Y-31329762D01*
X172614286Y-31422619D01*
X172242857Y-31794048D01*
X172645238Y-31794048D01*
X126832143Y-46727382D02*
X126863095Y-46758334D01*
X126894048Y-46851191D01*
X126894048Y-46913096D01*
X126863095Y-47005953D01*
X126801190Y-47067858D01*
X126739286Y-47098810D01*
X126615476Y-47129762D01*
X126522619Y-47129762D01*
X126398810Y-47098810D01*
X126336905Y-47067858D01*
X126275000Y-47005953D01*
X126244048Y-46913096D01*
X126244048Y-46851191D01*
X126275000Y-46758334D01*
X126305952Y-46727382D01*
X126305952Y-46479762D02*
X126275000Y-46448810D01*
X126244048Y-46386905D01*
X126244048Y-46232143D01*
X126275000Y-46170239D01*
X126305952Y-46139286D01*
X126367857Y-46108334D01*
X126429762Y-46108334D01*
X126522619Y-46139286D01*
X126894048Y-46510715D01*
X126894048Y-46108334D01*
X126244048Y-45705953D02*
X126244048Y-45644048D01*
X126275000Y-45582143D01*
X126305952Y-45551191D01*
X126367857Y-45520238D01*
X126491667Y-45489286D01*
X126646429Y-45489286D01*
X126770238Y-45520238D01*
X126832143Y-45551191D01*
X126863095Y-45582143D01*
X126894048Y-45644048D01*
X126894048Y-45705953D01*
X126863095Y-45767857D01*
X126832143Y-45798810D01*
X126770238Y-45829762D01*
X126646429Y-45860714D01*
X126491667Y-45860714D01*
X126367857Y-45829762D01*
X126305952Y-45798810D01*
X126275000Y-45767857D01*
X126244048Y-45705953D01*
X126244048Y-44901190D02*
X126244048Y-45210714D01*
X126553571Y-45241666D01*
X126522619Y-45210714D01*
X126491667Y-45148809D01*
X126491667Y-44994047D01*
X126522619Y-44932143D01*
X126553571Y-44901190D01*
X126615476Y-44870238D01*
X126770238Y-44870238D01*
X126832143Y-44901190D01*
X126863095Y-44932143D01*
X126894048Y-44994047D01*
X126894048Y-45148809D01*
X126863095Y-45210714D01*
X126832143Y-45241666D01*
X138672618Y-52232143D02*
X138641666Y-52263095D01*
X138548809Y-52294048D01*
X138486904Y-52294048D01*
X138394047Y-52263095D01*
X138332142Y-52201190D01*
X138301190Y-52139286D01*
X138270238Y-52015476D01*
X138270238Y-51922619D01*
X138301190Y-51798810D01*
X138332142Y-51736905D01*
X138394047Y-51675000D01*
X138486904Y-51644048D01*
X138548809Y-51644048D01*
X138641666Y-51675000D01*
X138672618Y-51705952D01*
X138920238Y-51705952D02*
X138951190Y-51675000D01*
X139013095Y-51644048D01*
X139167857Y-51644048D01*
X139229761Y-51675000D01*
X139260714Y-51705952D01*
X139291666Y-51767857D01*
X139291666Y-51829762D01*
X139260714Y-51922619D01*
X138889285Y-52294048D01*
X139291666Y-52294048D01*
X139910714Y-52294048D02*
X139539286Y-52294048D01*
X139725000Y-52294048D02*
X139725000Y-51644048D01*
X139663095Y-51736905D01*
X139601190Y-51798810D01*
X139539286Y-51829762D01*
X140529762Y-52294048D02*
X140158334Y-52294048D01*
X140344048Y-52294048D02*
X140344048Y-51644048D01*
X140282143Y-51736905D01*
X140220238Y-51798810D01*
X140158334Y-51829762D01*
X186972618Y-45332143D02*
X186941666Y-45363095D01*
X186848809Y-45394048D01*
X186786904Y-45394048D01*
X186694047Y-45363095D01*
X186632142Y-45301190D01*
X186601190Y-45239286D01*
X186570238Y-45115476D01*
X186570238Y-45022619D01*
X186601190Y-44898810D01*
X186632142Y-44836905D01*
X186694047Y-44775000D01*
X186786904Y-44744048D01*
X186848809Y-44744048D01*
X186941666Y-44775000D01*
X186972618Y-44805952D01*
X187189285Y-44744048D02*
X187591666Y-44744048D01*
X187374999Y-44991667D01*
X187467857Y-44991667D01*
X187529761Y-45022619D01*
X187560714Y-45053571D01*
X187591666Y-45115476D01*
X187591666Y-45270238D01*
X187560714Y-45332143D01*
X187529761Y-45363095D01*
X187467857Y-45394048D01*
X187282142Y-45394048D01*
X187220238Y-45363095D01*
X187189285Y-45332143D01*
X187994047Y-44744048D02*
X188055952Y-44744048D01*
X188117857Y-44775000D01*
X188148809Y-44805952D01*
X188179762Y-44867857D01*
X188210714Y-44991667D01*
X188210714Y-45146429D01*
X188179762Y-45270238D01*
X188148809Y-45332143D01*
X188117857Y-45363095D01*
X188055952Y-45394048D01*
X187994047Y-45394048D01*
X187932143Y-45363095D01*
X187901190Y-45332143D01*
X187870238Y-45270238D01*
X187839286Y-45146429D01*
X187839286Y-44991667D01*
X187870238Y-44867857D01*
X187901190Y-44805952D01*
X187932143Y-44775000D01*
X187994047Y-44744048D01*
X188798810Y-44744048D02*
X188489286Y-44744048D01*
X188458334Y-45053571D01*
X188489286Y-45022619D01*
X188551191Y-44991667D01*
X188705953Y-44991667D01*
X188767857Y-45022619D01*
X188798810Y-45053571D01*
X188829762Y-45115476D01*
X188829762Y-45270238D01*
X188798810Y-45332143D01*
X188767857Y-45363095D01*
X188705953Y-45394048D01*
X188551191Y-45394048D01*
X188489286Y-45363095D01*
X188458334Y-45332143D01*
X178472618Y-57632143D02*
X178441666Y-57663095D01*
X178348809Y-57694048D01*
X178286904Y-57694048D01*
X178194047Y-57663095D01*
X178132142Y-57601190D01*
X178101190Y-57539286D01*
X178070238Y-57415476D01*
X178070238Y-57322619D01*
X178101190Y-57198810D01*
X178132142Y-57136905D01*
X178194047Y-57075000D01*
X178286904Y-57044048D01*
X178348809Y-57044048D01*
X178441666Y-57075000D01*
X178472618Y-57105952D01*
X178689285Y-57044048D02*
X179091666Y-57044048D01*
X178874999Y-57291667D01*
X178967857Y-57291667D01*
X179029761Y-57322619D01*
X179060714Y-57353571D01*
X179091666Y-57415476D01*
X179091666Y-57570238D01*
X179060714Y-57632143D01*
X179029761Y-57663095D01*
X178967857Y-57694048D01*
X178782142Y-57694048D01*
X178720238Y-57663095D01*
X178689285Y-57632143D01*
X179710714Y-57694048D02*
X179339286Y-57694048D01*
X179525000Y-57694048D02*
X179525000Y-57044048D01*
X179463095Y-57136905D01*
X179401190Y-57198810D01*
X179339286Y-57229762D01*
X180329762Y-57694048D02*
X179958334Y-57694048D01*
X180144048Y-57694048D02*
X180144048Y-57044048D01*
X180082143Y-57136905D01*
X180020238Y-57198810D01*
X179958334Y-57229762D01*
X136522618Y-65537143D02*
X136491666Y-65568095D01*
X136398809Y-65599048D01*
X136336904Y-65599048D01*
X136244047Y-65568095D01*
X136182142Y-65506190D01*
X136151190Y-65444286D01*
X136120238Y-65320476D01*
X136120238Y-65227619D01*
X136151190Y-65103810D01*
X136182142Y-65041905D01*
X136244047Y-64980000D01*
X136336904Y-64949048D01*
X136398809Y-64949048D01*
X136491666Y-64980000D01*
X136522618Y-65010952D01*
X137079761Y-65165714D02*
X137079761Y-65599048D01*
X136924999Y-64918095D02*
X136770238Y-65382381D01*
X137172618Y-65382381D01*
X137760714Y-65599048D02*
X137389286Y-65599048D01*
X137575000Y-65599048D02*
X137575000Y-64949048D01*
X137513095Y-65041905D01*
X137451190Y-65103810D01*
X137389286Y-65134762D01*
X138163095Y-64949048D02*
X138225000Y-64949048D01*
X138286905Y-64980000D01*
X138317857Y-65010952D01*
X138348810Y-65072857D01*
X138379762Y-65196667D01*
X138379762Y-65351429D01*
X138348810Y-65475238D01*
X138317857Y-65537143D01*
X138286905Y-65568095D01*
X138225000Y-65599048D01*
X138163095Y-65599048D01*
X138101191Y-65568095D01*
X138070238Y-65537143D01*
X138039286Y-65475238D01*
X138008334Y-65351429D01*
X138008334Y-65196667D01*
X138039286Y-65072857D01*
X138070238Y-65010952D01*
X138101191Y-64980000D01*
X138163095Y-64949048D01*
X129472618Y-39632143D02*
X129441666Y-39663095D01*
X129348809Y-39694048D01*
X129286904Y-39694048D01*
X129194047Y-39663095D01*
X129132142Y-39601190D01*
X129101190Y-39539286D01*
X129070238Y-39415476D01*
X129070238Y-39322619D01*
X129101190Y-39198810D01*
X129132142Y-39136905D01*
X129194047Y-39075000D01*
X129286904Y-39044048D01*
X129348809Y-39044048D01*
X129441666Y-39075000D01*
X129472618Y-39105952D01*
X129720238Y-39105952D02*
X129751190Y-39075000D01*
X129813095Y-39044048D01*
X129967857Y-39044048D01*
X130029761Y-39075000D01*
X130060714Y-39105952D01*
X130091666Y-39167857D01*
X130091666Y-39229762D01*
X130060714Y-39322619D01*
X129689285Y-39694048D01*
X130091666Y-39694048D01*
X130710714Y-39694048D02*
X130339286Y-39694048D01*
X130525000Y-39694048D02*
X130525000Y-39044048D01*
X130463095Y-39136905D01*
X130401190Y-39198810D01*
X130339286Y-39229762D01*
X131113095Y-39044048D02*
X131175000Y-39044048D01*
X131236905Y-39075000D01*
X131267857Y-39105952D01*
X131298810Y-39167857D01*
X131329762Y-39291667D01*
X131329762Y-39446429D01*
X131298810Y-39570238D01*
X131267857Y-39632143D01*
X131236905Y-39663095D01*
X131175000Y-39694048D01*
X131113095Y-39694048D01*
X131051191Y-39663095D01*
X131020238Y-39632143D01*
X130989286Y-39570238D01*
X130958334Y-39446429D01*
X130958334Y-39291667D01*
X130989286Y-39167857D01*
X131020238Y-39105952D01*
X131051191Y-39075000D01*
X131113095Y-39044048D01*
X186272618Y-40432143D02*
X186241666Y-40463095D01*
X186148809Y-40494048D01*
X186086904Y-40494048D01*
X185994047Y-40463095D01*
X185932142Y-40401190D01*
X185901190Y-40339286D01*
X185870238Y-40215476D01*
X185870238Y-40122619D01*
X185901190Y-39998810D01*
X185932142Y-39936905D01*
X185994047Y-39875000D01*
X186086904Y-39844048D01*
X186148809Y-39844048D01*
X186241666Y-39875000D01*
X186272618Y-39905952D01*
X186489285Y-39844048D02*
X186891666Y-39844048D01*
X186674999Y-40091667D01*
X186767857Y-40091667D01*
X186829761Y-40122619D01*
X186860714Y-40153571D01*
X186891666Y-40215476D01*
X186891666Y-40370238D01*
X186860714Y-40432143D01*
X186829761Y-40463095D01*
X186767857Y-40494048D01*
X186582142Y-40494048D01*
X186520238Y-40463095D01*
X186489285Y-40432143D01*
X187510714Y-40494048D02*
X187139286Y-40494048D01*
X187325000Y-40494048D02*
X187325000Y-39844048D01*
X187263095Y-39936905D01*
X187201190Y-39998810D01*
X187139286Y-40029762D01*
X187913095Y-39844048D02*
X187975000Y-39844048D01*
X188036905Y-39875000D01*
X188067857Y-39905952D01*
X188098810Y-39967857D01*
X188129762Y-40091667D01*
X188129762Y-40246429D01*
X188098810Y-40370238D01*
X188067857Y-40432143D01*
X188036905Y-40463095D01*
X187975000Y-40494048D01*
X187913095Y-40494048D01*
X187851191Y-40463095D01*
X187820238Y-40432143D01*
X187789286Y-40370238D01*
X187758334Y-40246429D01*
X187758334Y-40091667D01*
X187789286Y-39967857D01*
X187820238Y-39905952D01*
X187851191Y-39875000D01*
X187913095Y-39844048D01*
X134894048Y-53927381D02*
X134894048Y-54236905D01*
X134244048Y-54236905D01*
X134305952Y-53741667D02*
X134275000Y-53710715D01*
X134244048Y-53648810D01*
X134244048Y-53494048D01*
X134275000Y-53432144D01*
X134305952Y-53401191D01*
X134367857Y-53370239D01*
X134429762Y-53370239D01*
X134522619Y-53401191D01*
X134894048Y-53772620D01*
X134894048Y-53370239D01*
X134244048Y-52967858D02*
X134244048Y-52905953D01*
X134275000Y-52844048D01*
X134305952Y-52813096D01*
X134367857Y-52782143D01*
X134491667Y-52751191D01*
X134646429Y-52751191D01*
X134770238Y-52782143D01*
X134832143Y-52813096D01*
X134863095Y-52844048D01*
X134894048Y-52905953D01*
X134894048Y-52967858D01*
X134863095Y-53029762D01*
X134832143Y-53060715D01*
X134770238Y-53091667D01*
X134646429Y-53122619D01*
X134491667Y-53122619D01*
X134367857Y-53091667D01*
X134305952Y-53060715D01*
X134275000Y-53029762D01*
X134244048Y-52967858D01*
X134894048Y-52132143D02*
X134894048Y-52503571D01*
X134894048Y-52317857D02*
X134244048Y-52317857D01*
X134336905Y-52379762D01*
X134398810Y-52441667D01*
X134429762Y-52503571D01*
X178372619Y-49294048D02*
X178063095Y-49294048D01*
X178063095Y-48644048D01*
X178527380Y-48644048D02*
X178929761Y-48644048D01*
X178713094Y-48891667D01*
X178805952Y-48891667D01*
X178867856Y-48922619D01*
X178898809Y-48953571D01*
X178929761Y-49015476D01*
X178929761Y-49170238D01*
X178898809Y-49232143D01*
X178867856Y-49263095D01*
X178805952Y-49294048D01*
X178620237Y-49294048D01*
X178558333Y-49263095D01*
X178527380Y-49232143D01*
X179332142Y-48644048D02*
X179394047Y-48644048D01*
X179455952Y-48675000D01*
X179486904Y-48705952D01*
X179517857Y-48767857D01*
X179548809Y-48891667D01*
X179548809Y-49046429D01*
X179517857Y-49170238D01*
X179486904Y-49232143D01*
X179455952Y-49263095D01*
X179394047Y-49294048D01*
X179332142Y-49294048D01*
X179270238Y-49263095D01*
X179239285Y-49232143D01*
X179208333Y-49170238D01*
X179177381Y-49046429D01*
X179177381Y-48891667D01*
X179208333Y-48767857D01*
X179239285Y-48705952D01*
X179270238Y-48675000D01*
X179332142Y-48644048D01*
X180167857Y-49294048D02*
X179796429Y-49294048D01*
X179982143Y-49294048D02*
X179982143Y-48644048D01*
X179920238Y-48736905D01*
X179858333Y-48798810D01*
X179796429Y-48829762D01*
X133044048Y-53977382D02*
X132734524Y-54194048D01*
X133044048Y-54348810D02*
X132394048Y-54348810D01*
X132394048Y-54101191D01*
X132425000Y-54039286D01*
X132455952Y-54008334D01*
X132517857Y-53977382D01*
X132610714Y-53977382D01*
X132672619Y-54008334D01*
X132703571Y-54039286D01*
X132734524Y-54101191D01*
X132734524Y-54348810D01*
X132455952Y-53729762D02*
X132425000Y-53698810D01*
X132394048Y-53636905D01*
X132394048Y-53482143D01*
X132425000Y-53420239D01*
X132455952Y-53389286D01*
X132517857Y-53358334D01*
X132579762Y-53358334D01*
X132672619Y-53389286D01*
X133044048Y-53760715D01*
X133044048Y-53358334D01*
X132394048Y-52955953D02*
X132394048Y-52894048D01*
X132425000Y-52832143D01*
X132455952Y-52801191D01*
X132517857Y-52770238D01*
X132641667Y-52739286D01*
X132796429Y-52739286D01*
X132920238Y-52770238D01*
X132982143Y-52801191D01*
X133013095Y-52832143D01*
X133044048Y-52894048D01*
X133044048Y-52955953D01*
X133013095Y-53017857D01*
X132982143Y-53048810D01*
X132920238Y-53079762D01*
X132796429Y-53110714D01*
X132641667Y-53110714D01*
X132517857Y-53079762D01*
X132455952Y-53048810D01*
X132425000Y-53017857D01*
X132394048Y-52955953D01*
X133044048Y-52120238D02*
X133044048Y-52491666D01*
X133044048Y-52305952D02*
X132394048Y-52305952D01*
X132486905Y-52367857D01*
X132548810Y-52429762D01*
X132579762Y-52491666D01*
X181872618Y-49094048D02*
X181655952Y-48784524D01*
X181501190Y-49094048D02*
X181501190Y-48444048D01*
X181748809Y-48444048D01*
X181810714Y-48475000D01*
X181841666Y-48505952D01*
X181872618Y-48567857D01*
X181872618Y-48660714D01*
X181841666Y-48722619D01*
X181810714Y-48753571D01*
X181748809Y-48784524D01*
X181501190Y-48784524D01*
X182089285Y-48444048D02*
X182491666Y-48444048D01*
X182274999Y-48691667D01*
X182367857Y-48691667D01*
X182429761Y-48722619D01*
X182460714Y-48753571D01*
X182491666Y-48815476D01*
X182491666Y-48970238D01*
X182460714Y-49032143D01*
X182429761Y-49063095D01*
X182367857Y-49094048D01*
X182182142Y-49094048D01*
X182120238Y-49063095D01*
X182089285Y-49032143D01*
X182894047Y-48444048D02*
X182955952Y-48444048D01*
X183017857Y-48475000D01*
X183048809Y-48505952D01*
X183079762Y-48567857D01*
X183110714Y-48691667D01*
X183110714Y-48846429D01*
X183079762Y-48970238D01*
X183048809Y-49032143D01*
X183017857Y-49063095D01*
X182955952Y-49094048D01*
X182894047Y-49094048D01*
X182832143Y-49063095D01*
X182801190Y-49032143D01*
X182770238Y-48970238D01*
X182739286Y-48846429D01*
X182739286Y-48691667D01*
X182770238Y-48567857D01*
X182801190Y-48505952D01*
X182832143Y-48475000D01*
X182894047Y-48444048D01*
X183729762Y-49094048D02*
X183358334Y-49094048D01*
X183544048Y-49094048D02*
X183544048Y-48444048D01*
X183482143Y-48536905D01*
X183420238Y-48598810D01*
X183358334Y-48629762D01*
X155372618Y-48532143D02*
X155341666Y-48563095D01*
X155248809Y-48594048D01*
X155186904Y-48594048D01*
X155094047Y-48563095D01*
X155032142Y-48501190D01*
X155001190Y-48439286D01*
X154970238Y-48315476D01*
X154970238Y-48222619D01*
X155001190Y-48098810D01*
X155032142Y-48036905D01*
X155094047Y-47975000D01*
X155186904Y-47944048D01*
X155248809Y-47944048D01*
X155341666Y-47975000D01*
X155372618Y-48005952D01*
X155929761Y-48160714D02*
X155929761Y-48594048D01*
X155774999Y-47913095D02*
X155620238Y-48377381D01*
X156022618Y-48377381D01*
X156610714Y-48594048D02*
X156239286Y-48594048D01*
X156425000Y-48594048D02*
X156425000Y-47944048D01*
X156363095Y-48036905D01*
X156301190Y-48098810D01*
X156239286Y-48129762D01*
X156858334Y-48005952D02*
X156889286Y-47975000D01*
X156951191Y-47944048D01*
X157105953Y-47944048D01*
X157167857Y-47975000D01*
X157198810Y-48005952D01*
X157229762Y-48067857D01*
X157229762Y-48129762D01*
X157198810Y-48222619D01*
X156827381Y-48594048D01*
X157229762Y-48594048D01*
X150672618Y-55032143D02*
X150641666Y-55063095D01*
X150548809Y-55094048D01*
X150486904Y-55094048D01*
X150394047Y-55063095D01*
X150332142Y-55001190D01*
X150301190Y-54939286D01*
X150270238Y-54815476D01*
X150270238Y-54722619D01*
X150301190Y-54598810D01*
X150332142Y-54536905D01*
X150394047Y-54475000D01*
X150486904Y-54444048D01*
X150548809Y-54444048D01*
X150641666Y-54475000D01*
X150672618Y-54505952D01*
X151229761Y-54660714D02*
X151229761Y-55094048D01*
X151074999Y-54413095D02*
X150920238Y-54877381D01*
X151322618Y-54877381D01*
X151910714Y-55094048D02*
X151539286Y-55094048D01*
X151725000Y-55094048D02*
X151725000Y-54444048D01*
X151663095Y-54536905D01*
X151601190Y-54598810D01*
X151539286Y-54629762D01*
X152127381Y-54444048D02*
X152529762Y-54444048D01*
X152313095Y-54691667D01*
X152405953Y-54691667D01*
X152467857Y-54722619D01*
X152498810Y-54753571D01*
X152529762Y-54815476D01*
X152529762Y-54970238D01*
X152498810Y-55032143D01*
X152467857Y-55063095D01*
X152405953Y-55094048D01*
X152220238Y-55094048D01*
X152158334Y-55063095D01*
X152127381Y-55032143D01*
X153872619Y-58094048D02*
X153563095Y-58094048D01*
X153563095Y-57444048D01*
X154367856Y-57660714D02*
X154367856Y-58094048D01*
X154213094Y-57413095D02*
X154058333Y-57877381D01*
X154460713Y-57877381D01*
X154832142Y-57444048D02*
X154894047Y-57444048D01*
X154955952Y-57475000D01*
X154986904Y-57505952D01*
X155017857Y-57567857D01*
X155048809Y-57691667D01*
X155048809Y-57846429D01*
X155017857Y-57970238D01*
X154986904Y-58032143D01*
X154955952Y-58063095D01*
X154894047Y-58094048D01*
X154832142Y-58094048D01*
X154770238Y-58063095D01*
X154739285Y-58032143D01*
X154708333Y-57970238D01*
X154677381Y-57846429D01*
X154677381Y-57691667D01*
X154708333Y-57567857D01*
X154739285Y-57505952D01*
X154770238Y-57475000D01*
X154832142Y-57444048D01*
X155296429Y-57505952D02*
X155327381Y-57475000D01*
X155389286Y-57444048D01*
X155544048Y-57444048D01*
X155605952Y-57475000D01*
X155636905Y-57505952D01*
X155667857Y-57567857D01*
X155667857Y-57629762D01*
X155636905Y-57722619D01*
X155265476Y-58094048D01*
X155667857Y-58094048D01*
X148072618Y-51494048D02*
X147855952Y-51184524D01*
X147701190Y-51494048D02*
X147701190Y-50844048D01*
X147948809Y-50844048D01*
X148010714Y-50875000D01*
X148041666Y-50905952D01*
X148072618Y-50967857D01*
X148072618Y-51060714D01*
X148041666Y-51122619D01*
X148010714Y-51153571D01*
X147948809Y-51184524D01*
X147701190Y-51184524D01*
X148629761Y-51060714D02*
X148629761Y-51494048D01*
X148474999Y-50813095D02*
X148320238Y-51277381D01*
X148722618Y-51277381D01*
X149094047Y-50844048D02*
X149155952Y-50844048D01*
X149217857Y-50875000D01*
X149248809Y-50905952D01*
X149279762Y-50967857D01*
X149310714Y-51091667D01*
X149310714Y-51246429D01*
X149279762Y-51370238D01*
X149248809Y-51432143D01*
X149217857Y-51463095D01*
X149155952Y-51494048D01*
X149094047Y-51494048D01*
X149032143Y-51463095D01*
X149001190Y-51432143D01*
X148970238Y-51370238D01*
X148939286Y-51246429D01*
X148939286Y-51091667D01*
X148970238Y-50967857D01*
X149001190Y-50905952D01*
X149032143Y-50875000D01*
X149094047Y-50844048D01*
X149527381Y-50844048D02*
X149960714Y-50844048D01*
X149682143Y-51494048D01*
X148072618Y-53694048D02*
X147855952Y-53384524D01*
X147701190Y-53694048D02*
X147701190Y-53044048D01*
X147948809Y-53044048D01*
X148010714Y-53075000D01*
X148041666Y-53105952D01*
X148072618Y-53167857D01*
X148072618Y-53260714D01*
X148041666Y-53322619D01*
X148010714Y-53353571D01*
X147948809Y-53384524D01*
X147701190Y-53384524D01*
X148629761Y-53260714D02*
X148629761Y-53694048D01*
X148474999Y-53013095D02*
X148320238Y-53477381D01*
X148722618Y-53477381D01*
X149094047Y-53044048D02*
X149155952Y-53044048D01*
X149217857Y-53075000D01*
X149248809Y-53105952D01*
X149279762Y-53167857D01*
X149310714Y-53291667D01*
X149310714Y-53446429D01*
X149279762Y-53570238D01*
X149248809Y-53632143D01*
X149217857Y-53663095D01*
X149155952Y-53694048D01*
X149094047Y-53694048D01*
X149032143Y-53663095D01*
X149001190Y-53632143D01*
X148970238Y-53570238D01*
X148939286Y-53446429D01*
X148939286Y-53291667D01*
X148970238Y-53167857D01*
X149001190Y-53105952D01*
X149032143Y-53075000D01*
X149094047Y-53044048D01*
X149682143Y-53322619D02*
X149620238Y-53291667D01*
X149589286Y-53260714D01*
X149558334Y-53198810D01*
X149558334Y-53167857D01*
X149589286Y-53105952D01*
X149620238Y-53075000D01*
X149682143Y-53044048D01*
X149805953Y-53044048D01*
X149867857Y-53075000D01*
X149898810Y-53105952D01*
X149929762Y-53167857D01*
X149929762Y-53198810D01*
X149898810Y-53260714D01*
X149867857Y-53291667D01*
X149805953Y-53322619D01*
X149682143Y-53322619D01*
X149620238Y-53353571D01*
X149589286Y-53384524D01*
X149558334Y-53446429D01*
X149558334Y-53570238D01*
X149589286Y-53632143D01*
X149620238Y-53663095D01*
X149682143Y-53694048D01*
X149805953Y-53694048D01*
X149867857Y-53663095D01*
X149898810Y-53632143D01*
X149929762Y-53570238D01*
X149929762Y-53446429D01*
X149898810Y-53384524D01*
X149867857Y-53353571D01*
X149805953Y-53322619D01*
X158982143Y-56477382D02*
X159013095Y-56508334D01*
X159044048Y-56601191D01*
X159044048Y-56663096D01*
X159013095Y-56755953D01*
X158951190Y-56817858D01*
X158889286Y-56848810D01*
X158765476Y-56879762D01*
X158672619Y-56879762D01*
X158548810Y-56848810D01*
X158486905Y-56817858D01*
X158425000Y-56755953D01*
X158394048Y-56663096D01*
X158394048Y-56601191D01*
X158425000Y-56508334D01*
X158455952Y-56477382D01*
X158610714Y-55920239D02*
X159044048Y-55920239D01*
X158363095Y-56075001D02*
X158827381Y-56229762D01*
X158827381Y-55827382D01*
X159044048Y-55239286D02*
X159044048Y-55610714D01*
X159044048Y-55425000D02*
X158394048Y-55425000D01*
X158486905Y-55486905D01*
X158548810Y-55548810D01*
X158579762Y-55610714D01*
X159044048Y-54620238D02*
X159044048Y-54991666D01*
X159044048Y-54805952D02*
X158394048Y-54805952D01*
X158486905Y-54867857D01*
X158548810Y-54929762D01*
X158579762Y-54991666D01*
X148072618Y-48982143D02*
X148041666Y-49013095D01*
X147948809Y-49044048D01*
X147886904Y-49044048D01*
X147794047Y-49013095D01*
X147732142Y-48951190D01*
X147701190Y-48889286D01*
X147670238Y-48765476D01*
X147670238Y-48672619D01*
X147701190Y-48548810D01*
X147732142Y-48486905D01*
X147794047Y-48425000D01*
X147886904Y-48394048D01*
X147948809Y-48394048D01*
X148041666Y-48425000D01*
X148072618Y-48455952D01*
X148629761Y-48610714D02*
X148629761Y-49044048D01*
X148474999Y-48363095D02*
X148320238Y-48827381D01*
X148722618Y-48827381D01*
X149310714Y-49044048D02*
X148939286Y-49044048D01*
X149125000Y-49044048D02*
X149125000Y-48394048D01*
X149063095Y-48486905D01*
X149001190Y-48548810D01*
X148939286Y-48579762D01*
X149867857Y-48610714D02*
X149867857Y-49044048D01*
X149713095Y-48363095D02*
X149558334Y-48827381D01*
X149960714Y-48827381D01*
X156135714Y-53144048D02*
X156135714Y-53670238D01*
X156166666Y-53732143D01*
X156197619Y-53763095D01*
X156259523Y-53794048D01*
X156383333Y-53794048D01*
X156445238Y-53763095D01*
X156476190Y-53732143D01*
X156507142Y-53670238D01*
X156507142Y-53144048D01*
X157095237Y-53360714D02*
X157095237Y-53794048D01*
X156940475Y-53113095D02*
X156785714Y-53577381D01*
X157188094Y-53577381D01*
X157559523Y-53144048D02*
X157621428Y-53144048D01*
X157683333Y-53175000D01*
X157714285Y-53205952D01*
X157745238Y-53267857D01*
X157776190Y-53391667D01*
X157776190Y-53546429D01*
X157745238Y-53670238D01*
X157714285Y-53732143D01*
X157683333Y-53763095D01*
X157621428Y-53794048D01*
X157559523Y-53794048D01*
X157497619Y-53763095D01*
X157466666Y-53732143D01*
X157435714Y-53670238D01*
X157404762Y-53546429D01*
X157404762Y-53391667D01*
X157435714Y-53267857D01*
X157466666Y-53205952D01*
X157497619Y-53175000D01*
X157559523Y-53144048D01*
X157992857Y-53144048D02*
X158395238Y-53144048D01*
X158178571Y-53391667D01*
X158271429Y-53391667D01*
X158333333Y-53422619D01*
X158364286Y-53453571D01*
X158395238Y-53515476D01*
X158395238Y-53670238D01*
X158364286Y-53732143D01*
X158333333Y-53763095D01*
X158271429Y-53794048D01*
X158085714Y-53794048D01*
X158023810Y-53763095D01*
X157992857Y-53732143D01*
X191385714Y-36544048D02*
X191385714Y-35894048D01*
X191385714Y-36203571D02*
X191757142Y-36203571D01*
X191757142Y-36544048D02*
X191757142Y-35894048D01*
X192345237Y-36110714D02*
X192345237Y-36544048D01*
X192190475Y-35863095D02*
X192035714Y-36327381D01*
X192438094Y-36327381D01*
X192809523Y-35894048D02*
X192871428Y-35894048D01*
X192933333Y-35925000D01*
X192964285Y-35955952D01*
X192995238Y-36017857D01*
X193026190Y-36141667D01*
X193026190Y-36296429D01*
X192995238Y-36420238D01*
X192964285Y-36482143D01*
X192933333Y-36513095D01*
X192871428Y-36544048D01*
X192809523Y-36544048D01*
X192747619Y-36513095D01*
X192716666Y-36482143D01*
X192685714Y-36420238D01*
X192654762Y-36296429D01*
X192654762Y-36141667D01*
X192685714Y-36017857D01*
X192716666Y-35955952D01*
X192747619Y-35925000D01*
X192809523Y-35894048D01*
X193645238Y-36544048D02*
X193273810Y-36544048D01*
X193459524Y-36544048D02*
X193459524Y-35894048D01*
X193397619Y-35986905D01*
X193335714Y-36048810D01*
X193273810Y-36079762D01*
X119135714Y-61294048D02*
X119135714Y-60644048D01*
X119135714Y-60953571D02*
X119507142Y-60953571D01*
X119507142Y-61294048D02*
X119507142Y-60644048D01*
X120095237Y-60860714D02*
X120095237Y-61294048D01*
X119940475Y-60613095D02*
X119785714Y-61077381D01*
X120188094Y-61077381D01*
X120559523Y-60644048D02*
X120621428Y-60644048D01*
X120683333Y-60675000D01*
X120714285Y-60705952D01*
X120745238Y-60767857D01*
X120776190Y-60891667D01*
X120776190Y-61046429D01*
X120745238Y-61170238D01*
X120714285Y-61232143D01*
X120683333Y-61263095D01*
X120621428Y-61294048D01*
X120559523Y-61294048D01*
X120497619Y-61263095D01*
X120466666Y-61232143D01*
X120435714Y-61170238D01*
X120404762Y-61046429D01*
X120404762Y-60891667D01*
X120435714Y-60767857D01*
X120466666Y-60705952D01*
X120497619Y-60675000D01*
X120559523Y-60644048D01*
X121023810Y-60705952D02*
X121054762Y-60675000D01*
X121116667Y-60644048D01*
X121271429Y-60644048D01*
X121333333Y-60675000D01*
X121364286Y-60705952D01*
X121395238Y-60767857D01*
X121395238Y-60829762D01*
X121364286Y-60922619D01*
X120992857Y-61294048D01*
X121395238Y-61294048D01*
X191635714Y-61544048D02*
X191635714Y-60894048D01*
X191635714Y-61203571D02*
X192007142Y-61203571D01*
X192007142Y-61544048D02*
X192007142Y-60894048D01*
X192595237Y-61110714D02*
X192595237Y-61544048D01*
X192440475Y-60863095D02*
X192285714Y-61327381D01*
X192688094Y-61327381D01*
X193059523Y-60894048D02*
X193121428Y-60894048D01*
X193183333Y-60925000D01*
X193214285Y-60955952D01*
X193245238Y-61017857D01*
X193276190Y-61141667D01*
X193276190Y-61296429D01*
X193245238Y-61420238D01*
X193214285Y-61482143D01*
X193183333Y-61513095D01*
X193121428Y-61544048D01*
X193059523Y-61544048D01*
X192997619Y-61513095D01*
X192966666Y-61482143D01*
X192935714Y-61420238D01*
X192904762Y-61296429D01*
X192904762Y-61141667D01*
X192935714Y-61017857D01*
X192966666Y-60955952D01*
X192997619Y-60925000D01*
X193059523Y-60894048D01*
X193492857Y-60894048D02*
X193895238Y-60894048D01*
X193678571Y-61141667D01*
X193771429Y-61141667D01*
X193833333Y-61172619D01*
X193864286Y-61203571D01*
X193895238Y-61265476D01*
X193895238Y-61420238D01*
X193864286Y-61482143D01*
X193833333Y-61513095D01*
X193771429Y-61544048D01*
X193585714Y-61544048D01*
X193523810Y-61513095D01*
X193492857Y-61482143D01*
X118885714Y-36044048D02*
X118885714Y-35394048D01*
X118885714Y-35703571D02*
X119257142Y-35703571D01*
X119257142Y-36044048D02*
X119257142Y-35394048D01*
X119845237Y-35610714D02*
X119845237Y-36044048D01*
X119690475Y-35363095D02*
X119535714Y-35827381D01*
X119938094Y-35827381D01*
X120309523Y-35394048D02*
X120371428Y-35394048D01*
X120433333Y-35425000D01*
X120464285Y-35455952D01*
X120495238Y-35517857D01*
X120526190Y-35641667D01*
X120526190Y-35796429D01*
X120495238Y-35920238D01*
X120464285Y-35982143D01*
X120433333Y-36013095D01*
X120371428Y-36044048D01*
X120309523Y-36044048D01*
X120247619Y-36013095D01*
X120216666Y-35982143D01*
X120185714Y-35920238D01*
X120154762Y-35796429D01*
X120154762Y-35641667D01*
X120185714Y-35517857D01*
X120216666Y-35455952D01*
X120247619Y-35425000D01*
X120309523Y-35394048D01*
X121083333Y-35610714D02*
X121083333Y-36044048D01*
X120928571Y-35363095D02*
X120773810Y-35827381D01*
X121176190Y-35827381D01*
X142885714Y-36294048D02*
X142885714Y-35644048D01*
X142885714Y-35953571D02*
X143257142Y-35953571D01*
X143257142Y-36294048D02*
X143257142Y-35644048D01*
X143845237Y-35860714D02*
X143845237Y-36294048D01*
X143690475Y-35613095D02*
X143535714Y-36077381D01*
X143938094Y-36077381D01*
X144309523Y-35644048D02*
X144371428Y-35644048D01*
X144433333Y-35675000D01*
X144464285Y-35705952D01*
X144495238Y-35767857D01*
X144526190Y-35891667D01*
X144526190Y-36046429D01*
X144495238Y-36170238D01*
X144464285Y-36232143D01*
X144433333Y-36263095D01*
X144371428Y-36294048D01*
X144309523Y-36294048D01*
X144247619Y-36263095D01*
X144216666Y-36232143D01*
X144185714Y-36170238D01*
X144154762Y-36046429D01*
X144154762Y-35891667D01*
X144185714Y-35767857D01*
X144216666Y-35705952D01*
X144247619Y-35675000D01*
X144309523Y-35644048D01*
X145114286Y-35644048D02*
X144804762Y-35644048D01*
X144773810Y-35953571D01*
X144804762Y-35922619D01*
X144866667Y-35891667D01*
X145021429Y-35891667D01*
X145083333Y-35922619D01*
X145114286Y-35953571D01*
X145145238Y-36015476D01*
X145145238Y-36170238D01*
X145114286Y-36232143D01*
X145083333Y-36263095D01*
X145021429Y-36294048D01*
X144866667Y-36294048D01*
X144804762Y-36263095D01*
X144773810Y-36232143D01*
X170385714Y-36294048D02*
X170385714Y-35644048D01*
X170385714Y-35953571D02*
X170757142Y-35953571D01*
X170757142Y-36294048D02*
X170757142Y-35644048D01*
X171345237Y-35860714D02*
X171345237Y-36294048D01*
X171190475Y-35613095D02*
X171035714Y-36077381D01*
X171438094Y-36077381D01*
X171809523Y-35644048D02*
X171871428Y-35644048D01*
X171933333Y-35675000D01*
X171964285Y-35705952D01*
X171995238Y-35767857D01*
X172026190Y-35891667D01*
X172026190Y-36046429D01*
X171995238Y-36170238D01*
X171964285Y-36232143D01*
X171933333Y-36263095D01*
X171871428Y-36294048D01*
X171809523Y-36294048D01*
X171747619Y-36263095D01*
X171716666Y-36232143D01*
X171685714Y-36170238D01*
X171654762Y-36046429D01*
X171654762Y-35891667D01*
X171685714Y-35767857D01*
X171716666Y-35705952D01*
X171747619Y-35675000D01*
X171809523Y-35644048D01*
X172583333Y-35644048D02*
X172459524Y-35644048D01*
X172397619Y-35675000D01*
X172366667Y-35705952D01*
X172304762Y-35798810D01*
X172273810Y-35922619D01*
X172273810Y-36170238D01*
X172304762Y-36232143D01*
X172335714Y-36263095D01*
X172397619Y-36294048D01*
X172521429Y-36294048D01*
X172583333Y-36263095D01*
X172614286Y-36232143D01*
X172645238Y-36170238D01*
X172645238Y-36015476D01*
X172614286Y-35953571D01*
X172583333Y-35922619D01*
X172521429Y-35891667D01*
X172397619Y-35891667D01*
X172335714Y-35922619D01*
X172304762Y-35953571D01*
X172273810Y-36015476D01*
X118635714Y-21044048D02*
X118635714Y-20394048D01*
X118635714Y-20703571D02*
X119007142Y-20703571D01*
X119007142Y-21044048D02*
X119007142Y-20394048D01*
X119595237Y-20610714D02*
X119595237Y-21044048D01*
X119440475Y-20363095D02*
X119285714Y-20827381D01*
X119688094Y-20827381D01*
X120059523Y-20394048D02*
X120121428Y-20394048D01*
X120183333Y-20425000D01*
X120214285Y-20455952D01*
X120245238Y-20517857D01*
X120276190Y-20641667D01*
X120276190Y-20796429D01*
X120245238Y-20920238D01*
X120214285Y-20982143D01*
X120183333Y-21013095D01*
X120121428Y-21044048D01*
X120059523Y-21044048D01*
X119997619Y-21013095D01*
X119966666Y-20982143D01*
X119935714Y-20920238D01*
X119904762Y-20796429D01*
X119904762Y-20641667D01*
X119935714Y-20517857D01*
X119966666Y-20455952D01*
X119997619Y-20425000D01*
X120059523Y-20394048D01*
X120492857Y-20394048D02*
X120926190Y-20394048D01*
X120647619Y-21044048D01*
X191385714Y-21044048D02*
X191385714Y-20394048D01*
X191385714Y-20703571D02*
X191757142Y-20703571D01*
X191757142Y-21044048D02*
X191757142Y-20394048D01*
X192345237Y-20610714D02*
X192345237Y-21044048D01*
X192190475Y-20363095D02*
X192035714Y-20827381D01*
X192438094Y-20827381D01*
X192809523Y-20394048D02*
X192871428Y-20394048D01*
X192933333Y-20425000D01*
X192964285Y-20455952D01*
X192995238Y-20517857D01*
X193026190Y-20641667D01*
X193026190Y-20796429D01*
X192995238Y-20920238D01*
X192964285Y-20982143D01*
X192933333Y-21013095D01*
X192871428Y-21044048D01*
X192809523Y-21044048D01*
X192747619Y-21013095D01*
X192716666Y-20982143D01*
X192685714Y-20920238D01*
X192654762Y-20796429D01*
X192654762Y-20641667D01*
X192685714Y-20517857D01*
X192716666Y-20455952D01*
X192747619Y-20425000D01*
X192809523Y-20394048D01*
X193397619Y-20672619D02*
X193335714Y-20641667D01*
X193304762Y-20610714D01*
X193273810Y-20548810D01*
X193273810Y-20517857D01*
X193304762Y-20455952D01*
X193335714Y-20425000D01*
X193397619Y-20394048D01*
X193521429Y-20394048D01*
X193583333Y-20425000D01*
X193614286Y-20455952D01*
X193645238Y-20517857D01*
X193645238Y-20548810D01*
X193614286Y-20610714D01*
X193583333Y-20641667D01*
X193521429Y-20672619D01*
X193397619Y-20672619D01*
X193335714Y-20703571D01*
X193304762Y-20734524D01*
X193273810Y-20796429D01*
X193273810Y-20920238D01*
X193304762Y-20982143D01*
X193335714Y-21013095D01*
X193397619Y-21044048D01*
X193521429Y-21044048D01*
X193583333Y-21013095D01*
X193614286Y-20982143D01*
X193645238Y-20920238D01*
X193645238Y-20796429D01*
X193614286Y-20734524D01*
X193583333Y-20703571D01*
X193521429Y-20672619D01*
X155135714Y-21044048D02*
X155135714Y-20394048D01*
X155135714Y-20703571D02*
X155507142Y-20703571D01*
X155507142Y-21044048D02*
X155507142Y-20394048D01*
X156095237Y-20610714D02*
X156095237Y-21044048D01*
X155940475Y-20363095D02*
X155785714Y-20827381D01*
X156188094Y-20827381D01*
X156559523Y-20394048D02*
X156621428Y-20394048D01*
X156683333Y-20425000D01*
X156714285Y-20455952D01*
X156745238Y-20517857D01*
X156776190Y-20641667D01*
X156776190Y-20796429D01*
X156745238Y-20920238D01*
X156714285Y-20982143D01*
X156683333Y-21013095D01*
X156621428Y-21044048D01*
X156559523Y-21044048D01*
X156497619Y-21013095D01*
X156466666Y-20982143D01*
X156435714Y-20920238D01*
X156404762Y-20796429D01*
X156404762Y-20641667D01*
X156435714Y-20517857D01*
X156466666Y-20455952D01*
X156497619Y-20425000D01*
X156559523Y-20394048D01*
X157085714Y-21044048D02*
X157209524Y-21044048D01*
X157271429Y-21013095D01*
X157302381Y-20982143D01*
X157364286Y-20889286D01*
X157395238Y-20765476D01*
X157395238Y-20517857D01*
X157364286Y-20455952D01*
X157333333Y-20425000D01*
X157271429Y-20394048D01*
X157147619Y-20394048D01*
X157085714Y-20425000D01*
X157054762Y-20455952D01*
X157023810Y-20517857D01*
X157023810Y-20672619D01*
X157054762Y-20734524D01*
X157085714Y-20765476D01*
X157147619Y-20796429D01*
X157271429Y-20796429D01*
X157333333Y-20765476D01*
X157364286Y-20734524D01*
X157395238Y-20672619D01*
X174760714Y-57644048D02*
X175132142Y-57644048D01*
X174946428Y-58294048D02*
X174946428Y-57644048D01*
X175348809Y-58294048D02*
X175348809Y-57644048D01*
X175596428Y-57644048D01*
X175658333Y-57675000D01*
X175689285Y-57705952D01*
X175720237Y-57767857D01*
X175720237Y-57860714D01*
X175689285Y-57922619D01*
X175658333Y-57953571D01*
X175596428Y-57984524D01*
X175348809Y-57984524D01*
X175936904Y-57644048D02*
X176339285Y-57644048D01*
X176122618Y-57891667D01*
X176215476Y-57891667D01*
X176277380Y-57922619D01*
X176308333Y-57953571D01*
X176339285Y-58015476D01*
X176339285Y-58170238D01*
X176308333Y-58232143D01*
X176277380Y-58263095D01*
X176215476Y-58294048D01*
X176029761Y-58294048D01*
X175967857Y-58263095D01*
X175936904Y-58232143D01*
X176741666Y-57644048D02*
X176803571Y-57644048D01*
X176865476Y-57675000D01*
X176896428Y-57705952D01*
X176927381Y-57767857D01*
X176958333Y-57891667D01*
X176958333Y-58046429D01*
X176927381Y-58170238D01*
X176896428Y-58232143D01*
X176865476Y-58263095D01*
X176803571Y-58294048D01*
X176741666Y-58294048D01*
X176679762Y-58263095D01*
X176648809Y-58232143D01*
X176617857Y-58170238D01*
X176586905Y-58046429D01*
X176586905Y-57891667D01*
X176617857Y-57767857D01*
X176648809Y-57705952D01*
X176679762Y-57675000D01*
X176741666Y-57644048D01*
X177175000Y-57644048D02*
X177577381Y-57644048D01*
X177360714Y-57891667D01*
X177453572Y-57891667D01*
X177515476Y-57922619D01*
X177546429Y-57953571D01*
X177577381Y-58015476D01*
X177577381Y-58170238D01*
X177546429Y-58232143D01*
X177515476Y-58263095D01*
X177453572Y-58294048D01*
X177267857Y-58294048D01*
X177205953Y-58263095D01*
X177175000Y-58232143D01*
X180294048Y-71848110D02*
X179644048Y-71848110D01*
X179644048Y-71693348D01*
X179675000Y-71600491D01*
X179736905Y-71538586D01*
X179798810Y-71507634D01*
X179922619Y-71476682D01*
X180015476Y-71476682D01*
X180139286Y-71507634D01*
X180201190Y-71538586D01*
X180263095Y-71600491D01*
X180294048Y-71693348D01*
X180294048Y-71848110D01*
X179860714Y-70919539D02*
X180294048Y-70919539D01*
X179613095Y-71074301D02*
X180077381Y-71229062D01*
X180077381Y-70826682D01*
X179644048Y-70455253D02*
X179644048Y-70393348D01*
X179675000Y-70331443D01*
X179705952Y-70300491D01*
X179767857Y-70269538D01*
X179891667Y-70238586D01*
X180046429Y-70238586D01*
X180170238Y-70269538D01*
X180232143Y-70300491D01*
X180263095Y-70331443D01*
X180294048Y-70393348D01*
X180294048Y-70455253D01*
X180263095Y-70517157D01*
X180232143Y-70548110D01*
X180170238Y-70579062D01*
X180046429Y-70610014D01*
X179891667Y-70610014D01*
X179767857Y-70579062D01*
X179705952Y-70548110D01*
X179675000Y-70517157D01*
X179644048Y-70455253D01*
X180294048Y-69619538D02*
X180294048Y-69990966D01*
X180294048Y-69805252D02*
X179644048Y-69805252D01*
X179736905Y-69867157D01*
X179798810Y-69929062D01*
X179829762Y-69990966D01*
X180294048Y-68477382D02*
X179984524Y-68694048D01*
X180294048Y-68848810D02*
X179644048Y-68848810D01*
X179644048Y-68601191D01*
X179675000Y-68539286D01*
X179705952Y-68508334D01*
X179767857Y-68477382D01*
X179860714Y-68477382D01*
X179922619Y-68508334D01*
X179953571Y-68539286D01*
X179984524Y-68601191D01*
X179984524Y-68848810D01*
X179860714Y-67920239D02*
X180294048Y-67920239D01*
X179613095Y-68075001D02*
X180077381Y-68229762D01*
X180077381Y-67827382D01*
X179644048Y-67455953D02*
X179644048Y-67394048D01*
X179675000Y-67332143D01*
X179705952Y-67301191D01*
X179767857Y-67270238D01*
X179891667Y-67239286D01*
X180046429Y-67239286D01*
X180170238Y-67270238D01*
X180232143Y-67301191D01*
X180263095Y-67332143D01*
X180294048Y-67394048D01*
X180294048Y-67455953D01*
X180263095Y-67517857D01*
X180232143Y-67548810D01*
X180170238Y-67579762D01*
X180046429Y-67610714D01*
X179891667Y-67610714D01*
X179767857Y-67579762D01*
X179705952Y-67548810D01*
X179675000Y-67517857D01*
X179644048Y-67455953D01*
X180294048Y-66929762D02*
X180294048Y-66805952D01*
X180263095Y-66744047D01*
X180232143Y-66713095D01*
X180139286Y-66651190D01*
X180015476Y-66620238D01*
X179767857Y-66620238D01*
X179705952Y-66651190D01*
X179675000Y-66682143D01*
X179644048Y-66744047D01*
X179644048Y-66867857D01*
X179675000Y-66929762D01*
X179705952Y-66960714D01*
X179767857Y-66991666D01*
X179922619Y-66991666D01*
X179984524Y-66960714D01*
X180015476Y-66929762D01*
X180046429Y-66867857D01*
X180046429Y-66744047D01*
X180015476Y-66682143D01*
X179984524Y-66651190D01*
X179922619Y-66620238D01*
X148022618Y-47982143D02*
X147991666Y-48013095D01*
X147898809Y-48044048D01*
X147836904Y-48044048D01*
X147744047Y-48013095D01*
X147682142Y-47951190D01*
X147651190Y-47889286D01*
X147620238Y-47765476D01*
X147620238Y-47672619D01*
X147651190Y-47548810D01*
X147682142Y-47486905D01*
X147744047Y-47425000D01*
X147836904Y-47394048D01*
X147898809Y-47394048D01*
X147991666Y-47425000D01*
X148022618Y-47455952D01*
X148579761Y-47610714D02*
X148579761Y-48044048D01*
X148424999Y-47363095D02*
X148270238Y-47827381D01*
X148672618Y-47827381D01*
X149044047Y-47394048D02*
X149105952Y-47394048D01*
X149167857Y-47425000D01*
X149198809Y-47455952D01*
X149229762Y-47517857D01*
X149260714Y-47641667D01*
X149260714Y-47796429D01*
X149229762Y-47920238D01*
X149198809Y-47982143D01*
X149167857Y-48013095D01*
X149105952Y-48044048D01*
X149044047Y-48044048D01*
X148982143Y-48013095D01*
X148951190Y-47982143D01*
X148920238Y-47920238D01*
X148889286Y-47796429D01*
X148889286Y-47641667D01*
X148920238Y-47517857D01*
X148951190Y-47455952D01*
X148982143Y-47425000D01*
X149044047Y-47394048D01*
X149632143Y-47672619D02*
X149570238Y-47641667D01*
X149539286Y-47610714D01*
X149508334Y-47548810D01*
X149508334Y-47517857D01*
X149539286Y-47455952D01*
X149570238Y-47425000D01*
X149632143Y-47394048D01*
X149755953Y-47394048D01*
X149817857Y-47425000D01*
X149848810Y-47455952D01*
X149879762Y-47517857D01*
X149879762Y-47548810D01*
X149848810Y-47610714D01*
X149817857Y-47641667D01*
X149755953Y-47672619D01*
X149632143Y-47672619D01*
X149570238Y-47703571D01*
X149539286Y-47734524D01*
X149508334Y-47796429D01*
X149508334Y-47920238D01*
X149539286Y-47982143D01*
X149570238Y-48013095D01*
X149632143Y-48044048D01*
X149755953Y-48044048D01*
X149817857Y-48013095D01*
X149848810Y-47982143D01*
X149879762Y-47920238D01*
X149879762Y-47796429D01*
X149848810Y-47734524D01*
X149817857Y-47703571D01*
X149755953Y-47672619D01*
X159232143Y-43227382D02*
X159263095Y-43258334D01*
X159294048Y-43351191D01*
X159294048Y-43413096D01*
X159263095Y-43505953D01*
X159201190Y-43567858D01*
X159139286Y-43598810D01*
X159015476Y-43629762D01*
X158922619Y-43629762D01*
X158798810Y-43598810D01*
X158736905Y-43567858D01*
X158675000Y-43505953D01*
X158644048Y-43413096D01*
X158644048Y-43351191D01*
X158675000Y-43258334D01*
X158705952Y-43227382D01*
X158860714Y-42670239D02*
X159294048Y-42670239D01*
X158613095Y-42825001D02*
X159077381Y-42979762D01*
X159077381Y-42577382D01*
X158644048Y-42205953D02*
X158644048Y-42144048D01*
X158675000Y-42082143D01*
X158705952Y-42051191D01*
X158767857Y-42020238D01*
X158891667Y-41989286D01*
X159046429Y-41989286D01*
X159170238Y-42020238D01*
X159232143Y-42051191D01*
X159263095Y-42082143D01*
X159294048Y-42144048D01*
X159294048Y-42205953D01*
X159263095Y-42267857D01*
X159232143Y-42298810D01*
X159170238Y-42329762D01*
X159046429Y-42360714D01*
X158891667Y-42360714D01*
X158767857Y-42329762D01*
X158705952Y-42298810D01*
X158675000Y-42267857D01*
X158644048Y-42205953D01*
X159294048Y-41370238D02*
X159294048Y-41741666D01*
X159294048Y-41555952D02*
X158644048Y-41555952D01*
X158736905Y-41617857D01*
X158798810Y-41679762D01*
X158829762Y-41741666D01*
X122085714Y-23644048D02*
X122085714Y-24170238D01*
X122116666Y-24232143D01*
X122147619Y-24263095D01*
X122209523Y-24294048D01*
X122333333Y-24294048D01*
X122395238Y-24263095D01*
X122426190Y-24232143D01*
X122457142Y-24170238D01*
X122457142Y-23644048D01*
X123076190Y-23644048D02*
X122766666Y-23644048D01*
X122735714Y-23953571D01*
X122766666Y-23922619D01*
X122828571Y-23891667D01*
X122983333Y-23891667D01*
X123045237Y-23922619D01*
X123076190Y-23953571D01*
X123107142Y-24015476D01*
X123107142Y-24170238D01*
X123076190Y-24232143D01*
X123045237Y-24263095D01*
X122983333Y-24294048D01*
X122828571Y-24294048D01*
X122766666Y-24263095D01*
X122735714Y-24232143D01*
X123509523Y-23644048D02*
X123571428Y-23644048D01*
X123633333Y-23675000D01*
X123664285Y-23705952D01*
X123695238Y-23767857D01*
X123726190Y-23891667D01*
X123726190Y-24046429D01*
X123695238Y-24170238D01*
X123664285Y-24232143D01*
X123633333Y-24263095D01*
X123571428Y-24294048D01*
X123509523Y-24294048D01*
X123447619Y-24263095D01*
X123416666Y-24232143D01*
X123385714Y-24170238D01*
X123354762Y-24046429D01*
X123354762Y-23891667D01*
X123385714Y-23767857D01*
X123416666Y-23705952D01*
X123447619Y-23675000D01*
X123509523Y-23644048D01*
X124345238Y-24294048D02*
X123973810Y-24294048D01*
X124159524Y-24294048D02*
X124159524Y-23644048D01*
X124097619Y-23736905D01*
X124035714Y-23798810D01*
X123973810Y-23829762D01*
X188085714Y-23894048D02*
X188085714Y-24420238D01*
X188116666Y-24482143D01*
X188147619Y-24513095D01*
X188209523Y-24544048D01*
X188333333Y-24544048D01*
X188395238Y-24513095D01*
X188426190Y-24482143D01*
X188457142Y-24420238D01*
X188457142Y-23894048D01*
X189076190Y-23894048D02*
X188766666Y-23894048D01*
X188735714Y-24203571D01*
X188766666Y-24172619D01*
X188828571Y-24141667D01*
X188983333Y-24141667D01*
X189045237Y-24172619D01*
X189076190Y-24203571D01*
X189107142Y-24265476D01*
X189107142Y-24420238D01*
X189076190Y-24482143D01*
X189045237Y-24513095D01*
X188983333Y-24544048D01*
X188828571Y-24544048D01*
X188766666Y-24513095D01*
X188735714Y-24482143D01*
X189509523Y-23894048D02*
X189571428Y-23894048D01*
X189633333Y-23925000D01*
X189664285Y-23955952D01*
X189695238Y-24017857D01*
X189726190Y-24141667D01*
X189726190Y-24296429D01*
X189695238Y-24420238D01*
X189664285Y-24482143D01*
X189633333Y-24513095D01*
X189571428Y-24544048D01*
X189509523Y-24544048D01*
X189447619Y-24513095D01*
X189416666Y-24482143D01*
X189385714Y-24420238D01*
X189354762Y-24296429D01*
X189354762Y-24141667D01*
X189385714Y-24017857D01*
X189416666Y-23955952D01*
X189447619Y-23925000D01*
X189509523Y-23894048D01*
X190283333Y-24110714D02*
X190283333Y-24544048D01*
X190128571Y-23863095D02*
X189973810Y-24327381D01*
X190376190Y-24327381D01*
X142644048Y-72364286D02*
X143170238Y-72364286D01*
X143232143Y-72333334D01*
X143263095Y-72302381D01*
X143294048Y-72240477D01*
X143294048Y-72116667D01*
X143263095Y-72054762D01*
X143232143Y-72023810D01*
X143170238Y-71992858D01*
X142644048Y-71992858D01*
X142644048Y-71404763D02*
X142644048Y-71528572D01*
X142675000Y-71590477D01*
X142705952Y-71621429D01*
X142798810Y-71683334D01*
X142922619Y-71714286D01*
X143170238Y-71714286D01*
X143232143Y-71683334D01*
X143263095Y-71652382D01*
X143294048Y-71590477D01*
X143294048Y-71466667D01*
X143263095Y-71404763D01*
X143232143Y-71373810D01*
X143170238Y-71342858D01*
X143015476Y-71342858D01*
X142953571Y-71373810D01*
X142922619Y-71404763D01*
X142891667Y-71466667D01*
X142891667Y-71590477D01*
X142922619Y-71652382D01*
X142953571Y-71683334D01*
X143015476Y-71714286D01*
X142644048Y-70940477D02*
X142644048Y-70878572D01*
X142675000Y-70816667D01*
X142705952Y-70785715D01*
X142767857Y-70754762D01*
X142891667Y-70723810D01*
X143046429Y-70723810D01*
X143170238Y-70754762D01*
X143232143Y-70785715D01*
X143263095Y-70816667D01*
X143294048Y-70878572D01*
X143294048Y-70940477D01*
X143263095Y-71002381D01*
X143232143Y-71033334D01*
X143170238Y-71064286D01*
X143046429Y-71095238D01*
X142891667Y-71095238D01*
X142767857Y-71064286D01*
X142705952Y-71033334D01*
X142675000Y-71002381D01*
X142644048Y-70940477D01*
X143294048Y-70104762D02*
X143294048Y-70476190D01*
X143294048Y-70290476D02*
X142644048Y-70290476D01*
X142736905Y-70352381D01*
X142798810Y-70414286D01*
X142829762Y-70476190D01*
X188272618Y-29982143D02*
X188241666Y-30013095D01*
X188148809Y-30044048D01*
X188086904Y-30044048D01*
X187994047Y-30013095D01*
X187932142Y-29951190D01*
X187901190Y-29889286D01*
X187870238Y-29765476D01*
X187870238Y-29672619D01*
X187901190Y-29548810D01*
X187932142Y-29486905D01*
X187994047Y-29425000D01*
X188086904Y-29394048D01*
X188148809Y-29394048D01*
X188241666Y-29425000D01*
X188272618Y-29455952D01*
X188860714Y-29394048D02*
X188551190Y-29394048D01*
X188520238Y-29703571D01*
X188551190Y-29672619D01*
X188613095Y-29641667D01*
X188767857Y-29641667D01*
X188829761Y-29672619D01*
X188860714Y-29703571D01*
X188891666Y-29765476D01*
X188891666Y-29920238D01*
X188860714Y-29982143D01*
X188829761Y-30013095D01*
X188767857Y-30044048D01*
X188613095Y-30044048D01*
X188551190Y-30013095D01*
X188520238Y-29982143D01*
X189294047Y-29394048D02*
X189355952Y-29394048D01*
X189417857Y-29425000D01*
X189448809Y-29455952D01*
X189479762Y-29517857D01*
X189510714Y-29641667D01*
X189510714Y-29796429D01*
X189479762Y-29920238D01*
X189448809Y-29982143D01*
X189417857Y-30013095D01*
X189355952Y-30044048D01*
X189294047Y-30044048D01*
X189232143Y-30013095D01*
X189201190Y-29982143D01*
X189170238Y-29920238D01*
X189139286Y-29796429D01*
X189139286Y-29641667D01*
X189170238Y-29517857D01*
X189201190Y-29455952D01*
X189232143Y-29425000D01*
X189294047Y-29394048D01*
X189727381Y-29394048D02*
X190129762Y-29394048D01*
X189913095Y-29641667D01*
X190005953Y-29641667D01*
X190067857Y-29672619D01*
X190098810Y-29703571D01*
X190129762Y-29765476D01*
X190129762Y-29920238D01*
X190098810Y-29982143D01*
X190067857Y-30013095D01*
X190005953Y-30044048D01*
X189820238Y-30044048D01*
X189758334Y-30013095D01*
X189727381Y-29982143D01*
X187272618Y-30982143D02*
X187241666Y-31013095D01*
X187148809Y-31044048D01*
X187086904Y-31044048D01*
X186994047Y-31013095D01*
X186932142Y-30951190D01*
X186901190Y-30889286D01*
X186870238Y-30765476D01*
X186870238Y-30672619D01*
X186901190Y-30548810D01*
X186932142Y-30486905D01*
X186994047Y-30425000D01*
X187086904Y-30394048D01*
X187148809Y-30394048D01*
X187241666Y-30425000D01*
X187272618Y-30455952D01*
X187860714Y-30394048D02*
X187551190Y-30394048D01*
X187520238Y-30703571D01*
X187551190Y-30672619D01*
X187613095Y-30641667D01*
X187767857Y-30641667D01*
X187829761Y-30672619D01*
X187860714Y-30703571D01*
X187891666Y-30765476D01*
X187891666Y-30920238D01*
X187860714Y-30982143D01*
X187829761Y-31013095D01*
X187767857Y-31044048D01*
X187613095Y-31044048D01*
X187551190Y-31013095D01*
X187520238Y-30982143D01*
X188294047Y-30394048D02*
X188355952Y-30394048D01*
X188417857Y-30425000D01*
X188448809Y-30455952D01*
X188479762Y-30517857D01*
X188510714Y-30641667D01*
X188510714Y-30796429D01*
X188479762Y-30920238D01*
X188448809Y-30982143D01*
X188417857Y-31013095D01*
X188355952Y-31044048D01*
X188294047Y-31044048D01*
X188232143Y-31013095D01*
X188201190Y-30982143D01*
X188170238Y-30920238D01*
X188139286Y-30796429D01*
X188139286Y-30641667D01*
X188170238Y-30517857D01*
X188201190Y-30455952D01*
X188232143Y-30425000D01*
X188294047Y-30394048D01*
X189067857Y-30610714D02*
X189067857Y-31044048D01*
X188913095Y-30363095D02*
X188758334Y-30827381D01*
X189160714Y-30827381D01*
X126732143Y-33477382D02*
X126763095Y-33508334D01*
X126794048Y-33601191D01*
X126794048Y-33663096D01*
X126763095Y-33755953D01*
X126701190Y-33817858D01*
X126639286Y-33848810D01*
X126515476Y-33879762D01*
X126422619Y-33879762D01*
X126298810Y-33848810D01*
X126236905Y-33817858D01*
X126175000Y-33755953D01*
X126144048Y-33663096D01*
X126144048Y-33601191D01*
X126175000Y-33508334D01*
X126205952Y-33477382D01*
X126144048Y-32889286D02*
X126144048Y-33198810D01*
X126453571Y-33229762D01*
X126422619Y-33198810D01*
X126391667Y-33136905D01*
X126391667Y-32982143D01*
X126422619Y-32920239D01*
X126453571Y-32889286D01*
X126515476Y-32858334D01*
X126670238Y-32858334D01*
X126732143Y-32889286D01*
X126763095Y-32920239D01*
X126794048Y-32982143D01*
X126794048Y-33136905D01*
X126763095Y-33198810D01*
X126732143Y-33229762D01*
X126144048Y-32455953D02*
X126144048Y-32394048D01*
X126175000Y-32332143D01*
X126205952Y-32301191D01*
X126267857Y-32270238D01*
X126391667Y-32239286D01*
X126546429Y-32239286D01*
X126670238Y-32270238D01*
X126732143Y-32301191D01*
X126763095Y-32332143D01*
X126794048Y-32394048D01*
X126794048Y-32455953D01*
X126763095Y-32517857D01*
X126732143Y-32548810D01*
X126670238Y-32579762D01*
X126546429Y-32610714D01*
X126391667Y-32610714D01*
X126267857Y-32579762D01*
X126205952Y-32548810D01*
X126175000Y-32517857D01*
X126144048Y-32455953D01*
X126422619Y-31867857D02*
X126391667Y-31929762D01*
X126360714Y-31960714D01*
X126298810Y-31991666D01*
X126267857Y-31991666D01*
X126205952Y-31960714D01*
X126175000Y-31929762D01*
X126144048Y-31867857D01*
X126144048Y-31744047D01*
X126175000Y-31682143D01*
X126205952Y-31651190D01*
X126267857Y-31620238D01*
X126298810Y-31620238D01*
X126360714Y-31651190D01*
X126391667Y-31682143D01*
X126422619Y-31744047D01*
X126422619Y-31867857D01*
X126453571Y-31929762D01*
X126484524Y-31960714D01*
X126546429Y-31991666D01*
X126670238Y-31991666D01*
X126732143Y-31960714D01*
X126763095Y-31929762D01*
X126794048Y-31867857D01*
X126794048Y-31744047D01*
X126763095Y-31682143D01*
X126732143Y-31651190D01*
X126670238Y-31620238D01*
X126546429Y-31620238D01*
X126484524Y-31651190D01*
X126453571Y-31682143D01*
X126422619Y-31744047D01*
X124482143Y-30727382D02*
X124513095Y-30758334D01*
X124544048Y-30851191D01*
X124544048Y-30913096D01*
X124513095Y-31005953D01*
X124451190Y-31067858D01*
X124389286Y-31098810D01*
X124265476Y-31129762D01*
X124172619Y-31129762D01*
X124048810Y-31098810D01*
X123986905Y-31067858D01*
X123925000Y-31005953D01*
X123894048Y-30913096D01*
X123894048Y-30851191D01*
X123925000Y-30758334D01*
X123955952Y-30727382D01*
X123894048Y-30139286D02*
X123894048Y-30448810D01*
X124203571Y-30479762D01*
X124172619Y-30448810D01*
X124141667Y-30386905D01*
X124141667Y-30232143D01*
X124172619Y-30170239D01*
X124203571Y-30139286D01*
X124265476Y-30108334D01*
X124420238Y-30108334D01*
X124482143Y-30139286D01*
X124513095Y-30170239D01*
X124544048Y-30232143D01*
X124544048Y-30386905D01*
X124513095Y-30448810D01*
X124482143Y-30479762D01*
X123894048Y-29705953D02*
X123894048Y-29644048D01*
X123925000Y-29582143D01*
X123955952Y-29551191D01*
X124017857Y-29520238D01*
X124141667Y-29489286D01*
X124296429Y-29489286D01*
X124420238Y-29520238D01*
X124482143Y-29551191D01*
X124513095Y-29582143D01*
X124544048Y-29644048D01*
X124544048Y-29705953D01*
X124513095Y-29767857D01*
X124482143Y-29798810D01*
X124420238Y-29829762D01*
X124296429Y-29860714D01*
X124141667Y-29860714D01*
X124017857Y-29829762D01*
X123955952Y-29798810D01*
X123925000Y-29767857D01*
X123894048Y-29705953D01*
X124544048Y-29179762D02*
X124544048Y-29055952D01*
X124513095Y-28994047D01*
X124482143Y-28963095D01*
X124389286Y-28901190D01*
X124265476Y-28870238D01*
X124017857Y-28870238D01*
X123955952Y-28901190D01*
X123925000Y-28932143D01*
X123894048Y-28994047D01*
X123894048Y-29117857D01*
X123925000Y-29179762D01*
X123955952Y-29210714D01*
X124017857Y-29241666D01*
X124172619Y-29241666D01*
X124234524Y-29210714D01*
X124265476Y-29179762D01*
X124296429Y-29117857D01*
X124296429Y-28994047D01*
X124265476Y-28932143D01*
X124234524Y-28901190D01*
X124172619Y-28870238D01*
M02*
