G04 #@! TF.FileFunction,Copper,L1,Top,Signal*
%FSLAX46Y46*%
G04 Gerber Fmt 4.6, Leading zero omitted, Abs format (unit mm)*
G04 Created by KiCad (PCBNEW 4.0.7) date Sun May 20 15:45:54 2018*
%MOMM*%
%LPD*%
G01*
G04 APERTURE LIST*
%ADD10C,0.100000*%
%ADD11C,0.550000*%
%ADD12R,1.501140X1.000760*%
%ADD13R,2.999740X1.998980*%
%ADD14R,1.400000X0.760000*%
%ADD15R,0.320000X0.320000*%
%ADD16C,1.100000*%
%ADD17R,0.850000X0.250000*%
%ADD18R,0.650000X0.250000*%
%ADD19R,0.250000X0.650000*%
%ADD20R,0.770000X0.250000*%
%ADD21R,1.290000X5.080000*%
%ADD22R,2.290000X5.080000*%
%ADD23R,2.000000X0.350000*%
%ADD24R,3.000000X1.000000*%
%ADD25R,2.600000X1.000000*%
%ADD26R,3.000000X0.800000*%
%ADD27R,0.400000X1.400000*%
%ADD28R,0.350000X1.000000*%
%ADD29C,0.360000*%
%ADD30R,0.400000X1.200000*%
%ADD31R,0.400000X0.300000*%
%ADD32R,0.300000X0.450000*%
%ADD33R,0.350000X0.300000*%
%ADD34R,0.600000X0.500000*%
%ADD35R,0.500000X0.600000*%
%ADD36R,0.300000X0.350000*%
%ADD37R,0.900000X2.500000*%
%ADD38R,1.727200X1.727200*%
%ADD39O,1.727200X1.727200*%
%ADD40R,0.400000X0.600000*%
%ADD41R,0.600000X0.400000*%
%ADD42R,0.900000X1.700000*%
%ADD43R,0.350000X0.650000*%
%ADD44R,0.800000X1.000000*%
%ADD45R,0.300000X0.270000*%
%ADD46R,0.650000X0.300000*%
%ADD47R,0.775000X1.240000*%
%ADD48R,0.450000X1.450000*%
%ADD49R,3.599180X1.600200*%
%ADD50R,0.500000X0.900000*%
%ADD51R,0.900000X0.500000*%
%ADD52R,0.700000X1.300000*%
%ADD53R,1.250000X1.000000*%
%ADD54R,0.630000X0.450000*%
%ADD55R,0.850000X1.300000*%
%ADD56C,2.500000*%
%ADD57R,0.797560X0.797560*%
%ADD58R,1.000000X1.250000*%
%ADD59C,1.440000*%
%ADD60R,0.950000X0.350000*%
%ADD61R,4.650000X1.800000*%
%ADD62C,0.254000*%
%ADD63R,0.350000X0.950000*%
%ADD64R,1.800000X4.650000*%
%ADD65C,0.600000*%
%ADD66C,0.510000*%
%ADD67C,1.000000*%
%ADD68C,0.340000*%
%ADD69C,0.250000*%
%ADD70C,0.200000*%
%ADD71C,0.254000*%
G04 APERTURE END LIST*
D10*
D11*
X188750000Y-28250000D03*
X128000000Y-26000000D03*
X130000000Y-31250000D03*
X124250000Y-28500000D03*
X125500000Y-28500000D03*
X127000000Y-28500000D03*
X127000000Y-29750000D03*
X125500000Y-32500000D03*
X124250000Y-31500000D03*
X185750000Y-29250000D03*
X185750000Y-32500000D03*
X183750000Y-32500000D03*
X183750000Y-31500000D03*
X186250000Y-28500000D03*
X190000000Y-28250000D03*
X133500000Y-52250000D03*
X133250000Y-55000000D03*
X135000000Y-55000000D03*
X133000000Y-57000000D03*
X135000000Y-57000000D03*
X129000000Y-69000000D03*
X121000000Y-69000000D03*
X125000000Y-65000000D03*
X129000000Y-66000000D03*
X127000000Y-63000000D03*
X131000000Y-63000000D03*
X139750000Y-51250000D03*
X137750000Y-52250000D03*
X179250000Y-65500000D03*
X190250000Y-69250000D03*
X182750000Y-69250000D03*
X179000000Y-62500000D03*
X182000000Y-65500000D03*
X186000000Y-64000000D03*
X133500000Y-59000000D03*
X133500000Y-61000000D03*
X181500000Y-61000000D03*
X179750000Y-59000000D03*
X130750000Y-36750000D03*
X130750000Y-38000000D03*
X129500000Y-37250000D03*
X156500000Y-25750000D03*
X156500000Y-29000000D03*
X119500000Y-31000000D03*
X189000000Y-32500000D03*
X191000000Y-32500000D03*
X191000000Y-31000000D03*
X194000000Y-31000000D03*
X156000000Y-49100000D03*
X157300000Y-49100000D03*
X158600000Y-49100000D03*
X186200000Y-44400000D03*
X184100000Y-44500000D03*
X183300000Y-44400000D03*
X183300000Y-41500000D03*
X186200000Y-41500000D03*
X126800000Y-44400000D03*
X129300000Y-44000000D03*
X129700000Y-44500000D03*
X129700000Y-41500000D03*
X126800000Y-41500000D03*
X173000000Y-48500000D03*
X170000000Y-48500000D03*
X170000000Y-41750000D03*
X173000000Y-41750000D03*
X166000000Y-61000000D03*
X162000000Y-61000000D03*
X147000000Y-59000000D03*
X147000000Y-61000000D03*
X143000000Y-61000000D03*
X143000000Y-59000000D03*
X141000000Y-61000000D03*
X141000000Y-59000000D03*
X139000000Y-59000000D03*
X139000000Y-61000000D03*
X137000000Y-61000000D03*
X137000000Y-59000000D03*
X145000000Y-61000000D03*
X145000000Y-59000000D03*
X144000000Y-52000000D03*
X146000000Y-52000000D03*
X146000000Y-40000000D03*
X144000000Y-40000000D03*
X142000000Y-40000000D03*
X142000000Y-42000000D03*
X144000000Y-42000000D03*
X146000000Y-42000000D03*
X146000000Y-44000000D03*
X144000000Y-44000000D03*
X142000000Y-44000000D03*
X142000000Y-46000000D03*
X144000000Y-46000000D03*
X146000000Y-46000000D03*
X146000000Y-48000000D03*
X144000000Y-48000000D03*
X142000000Y-48000000D03*
X144000000Y-50000000D03*
X142000000Y-50000000D03*
X146000000Y-50000000D03*
X146000000Y-54000000D03*
X142000000Y-54000000D03*
X144000000Y-58000000D03*
X144000000Y-56000000D03*
X146000000Y-56000000D03*
X142000000Y-56000000D03*
X142000000Y-58000000D03*
X146000000Y-58000000D03*
X149000000Y-61000000D03*
X151000000Y-59000000D03*
X151000000Y-61000000D03*
X153000000Y-61000000D03*
X153000000Y-59000000D03*
X156000000Y-59000000D03*
X156000000Y-61000000D03*
X158000000Y-61000000D03*
X158000000Y-59000000D03*
X161000000Y-59000000D03*
X165000000Y-59000000D03*
X135000000Y-61000000D03*
X135000000Y-59000000D03*
X132000000Y-61000000D03*
X132000000Y-59000000D03*
X130000000Y-59000000D03*
X130000000Y-61000000D03*
X127000000Y-61000000D03*
X127000000Y-59000000D03*
X126000000Y-59000000D03*
X126000000Y-61000000D03*
X124000000Y-59000000D03*
X124000000Y-63000000D03*
X119000000Y-63000000D03*
X122000000Y-63000000D03*
X122000000Y-58000000D03*
X119000000Y-58000000D03*
X119000000Y-56000000D03*
X122000000Y-56000000D03*
X122000000Y-54000000D03*
X119000000Y-54000000D03*
X119000000Y-52000000D03*
X122000000Y-52000000D03*
X122000000Y-50000000D03*
X119000000Y-50000000D03*
X119000000Y-48000000D03*
X122000000Y-48000000D03*
X122000000Y-46000000D03*
X119000000Y-46000000D03*
X119000000Y-44000000D03*
X122000000Y-44000000D03*
X122000000Y-42000000D03*
X119000000Y-42000000D03*
X119000000Y-40000000D03*
X122000000Y-40000000D03*
X118000000Y-38500000D03*
X121000000Y-38500000D03*
X122500000Y-38500000D03*
X125500000Y-38500000D03*
X127000000Y-38500000D03*
X127000000Y-37250000D03*
X125500000Y-37000000D03*
X124000000Y-36000000D03*
X122500000Y-34500000D03*
X121000000Y-33000000D03*
X118000000Y-33000000D03*
X118000000Y-22000000D03*
X118000000Y-23750000D03*
X156500000Y-33000000D03*
X156500000Y-31500000D03*
X156500000Y-23500000D03*
X157500000Y-23000000D03*
X155000000Y-23000000D03*
X153000000Y-23000000D03*
X153000000Y-21000000D03*
X153000000Y-19000000D03*
X189500000Y-23000000D03*
X189500000Y-21000000D03*
X189500000Y-19000000D03*
X179500000Y-23000000D03*
X179500000Y-21000000D03*
X179500000Y-19000000D03*
X181500000Y-23000000D03*
X181500000Y-21000000D03*
X183500000Y-19000000D03*
X183500000Y-23000000D03*
X183500000Y-21000000D03*
X181500000Y-19000000D03*
X185500000Y-23000000D03*
X187500000Y-21000000D03*
X187500000Y-23000000D03*
X187500000Y-19000000D03*
X185500000Y-19000000D03*
X185500000Y-21000000D03*
X169500000Y-23000000D03*
X169500000Y-21000000D03*
X169500000Y-19000000D03*
X171500000Y-23000000D03*
X171500000Y-21000000D03*
X173500000Y-19000000D03*
X173500000Y-23000000D03*
X173500000Y-21000000D03*
X171500000Y-19000000D03*
X175500000Y-23000000D03*
X177500000Y-21000000D03*
X177500000Y-23000000D03*
X177500000Y-19000000D03*
X175500000Y-19000000D03*
X175500000Y-21000000D03*
X159500000Y-23000000D03*
X159500000Y-21000000D03*
X159500000Y-19000000D03*
X161500000Y-23000000D03*
X161500000Y-21000000D03*
X163500000Y-19000000D03*
X163500000Y-23000000D03*
X163500000Y-21000000D03*
X161500000Y-19000000D03*
X165500000Y-23000000D03*
X167500000Y-21000000D03*
X167500000Y-23000000D03*
X167500000Y-19000000D03*
X165500000Y-19000000D03*
X165500000Y-21000000D03*
X143000000Y-23000000D03*
X143000000Y-21000000D03*
X143000000Y-19000000D03*
X145000000Y-23000000D03*
X145000000Y-21000000D03*
X147000000Y-19000000D03*
X147000000Y-23000000D03*
X147000000Y-21000000D03*
X145000000Y-19000000D03*
X149000000Y-23000000D03*
X151000000Y-21000000D03*
X151000000Y-23000000D03*
X151000000Y-19000000D03*
X149000000Y-19000000D03*
X149000000Y-21000000D03*
X133000000Y-23000000D03*
X133000000Y-21000000D03*
X133000000Y-19000000D03*
X135000000Y-23000000D03*
X135000000Y-21000000D03*
X137000000Y-19000000D03*
X137000000Y-23000000D03*
X137000000Y-21000000D03*
X135000000Y-19000000D03*
X139000000Y-23000000D03*
X141000000Y-21000000D03*
X141000000Y-23000000D03*
X141000000Y-19000000D03*
X139000000Y-19000000D03*
X139000000Y-21000000D03*
X131000000Y-23000000D03*
X129000000Y-23000000D03*
X129000000Y-21000000D03*
X131000000Y-21000000D03*
X131000000Y-19000000D03*
X129000000Y-19000000D03*
X127000000Y-23000000D03*
X125000000Y-23000000D03*
X125000000Y-21000000D03*
X127000000Y-21000000D03*
X127000000Y-19000000D03*
X125000000Y-19000000D03*
X123000000Y-19000000D03*
X123000000Y-21000000D03*
X123000000Y-23000000D03*
X169000000Y-61000000D03*
X171000000Y-59000000D03*
X173000000Y-61000000D03*
X173000000Y-59000000D03*
X194000000Y-39000000D03*
X191000000Y-39000000D03*
X191000000Y-41000000D03*
X194000000Y-41000000D03*
X194000000Y-43000000D03*
X191000000Y-43000000D03*
X191000000Y-45000000D03*
X194000000Y-45000000D03*
X194000000Y-47000000D03*
X191000000Y-47000000D03*
X191000000Y-49000000D03*
X194000000Y-49000000D03*
X194000000Y-51000000D03*
X191000000Y-51000000D03*
X194000000Y-63000000D03*
X191000000Y-53000000D03*
X194000000Y-53000000D03*
X194000000Y-55000000D03*
X191000000Y-55000000D03*
X191000000Y-57000000D03*
X194000000Y-57000000D03*
X194000000Y-59000000D03*
X192000000Y-59000000D03*
X190000000Y-59000000D03*
X190000000Y-61000000D03*
X190000000Y-63000000D03*
X188000000Y-59000000D03*
X188000000Y-61000000D03*
X186000000Y-61000000D03*
X186000000Y-59000000D03*
X179000000Y-61000000D03*
X177000000Y-61000000D03*
X175000000Y-61000000D03*
X183000000Y-61000000D03*
X183000000Y-59000000D03*
X181000000Y-59000000D03*
X177000000Y-59000000D03*
X175000000Y-59000000D03*
X173000000Y-57000000D03*
X170000000Y-57000000D03*
X173000000Y-55000000D03*
X170000000Y-55000000D03*
X170000000Y-53000000D03*
X173000000Y-53000000D03*
X173000000Y-51000000D03*
X170000000Y-51000000D03*
X170000000Y-47000000D03*
X173000000Y-47000000D03*
X173000000Y-45000000D03*
X170000000Y-45000000D03*
X166000000Y-38000000D03*
X164000000Y-38000000D03*
X162000000Y-38000000D03*
X160000000Y-38000000D03*
X158000000Y-38000000D03*
X156000000Y-38000000D03*
X154000000Y-38000000D03*
X152000000Y-38000000D03*
X152000000Y-36000000D03*
X154000000Y-36000000D03*
X156000000Y-36000000D03*
X158000000Y-36000000D03*
X160000000Y-36000000D03*
X162000000Y-36000000D03*
X164000000Y-36000000D03*
X166000000Y-36000000D03*
X168000000Y-36000000D03*
X168000000Y-38000000D03*
X170000000Y-40000000D03*
X170000000Y-38000000D03*
X173000000Y-40000000D03*
X173000000Y-38000000D03*
X175000000Y-38000000D03*
X175000000Y-36000000D03*
X177000000Y-36000000D03*
X177000000Y-38000000D03*
X179000000Y-38000000D03*
X179000000Y-36000000D03*
X181000000Y-36000000D03*
X181000000Y-38000000D03*
X183000000Y-38000000D03*
X183000000Y-36000000D03*
X187000000Y-36000000D03*
X187000000Y-38000000D03*
X189000000Y-38000000D03*
X189000000Y-36000000D03*
X194000000Y-34000000D03*
X191000000Y-34000000D03*
X189000000Y-34000000D03*
X187000000Y-34000000D03*
X183000000Y-34000000D03*
X181000000Y-34000000D03*
X179000000Y-34000000D03*
X177000000Y-34000000D03*
X175000000Y-34000000D03*
X173000000Y-34000000D03*
X170000000Y-34000000D03*
X168000000Y-34000000D03*
X166000000Y-34000000D03*
X164000000Y-34000000D03*
X162000000Y-34000000D03*
X160000000Y-34000000D03*
X158000000Y-34000000D03*
X156000000Y-34000000D03*
X154000000Y-34000000D03*
X152000000Y-34000000D03*
X150000000Y-34000000D03*
X150000000Y-36000000D03*
X150000000Y-38000000D03*
X148000000Y-38000000D03*
X148000000Y-36000000D03*
X148000000Y-34000000D03*
X146000000Y-34000000D03*
X146000000Y-38000000D03*
X142000000Y-38000000D03*
X142000000Y-34000000D03*
X140000000Y-34000000D03*
X140000000Y-36000000D03*
X140000000Y-38000000D03*
X138000000Y-38000000D03*
X138000000Y-36000000D03*
X138000000Y-34000000D03*
X136000000Y-34000000D03*
X136000000Y-36000000D03*
X136000000Y-38000000D03*
X134000000Y-38000000D03*
X134000000Y-36000000D03*
X134000000Y-34000000D03*
X132000000Y-36000000D03*
X132000000Y-38000000D03*
X129500000Y-38500000D03*
X152750000Y-41000000D03*
X151750000Y-41000000D03*
X151750000Y-44500000D03*
X150750000Y-44500000D03*
X150750000Y-46500000D03*
X160250000Y-53500000D03*
X158750000Y-53500000D03*
X155750000Y-53500000D03*
X156500000Y-24750000D03*
X156500000Y-30250000D03*
X121000000Y-31000000D03*
X194000000Y-32500000D03*
X194750000Y-23750000D03*
X121250000Y-23750000D03*
X118000000Y-31000000D03*
X124000000Y-38500000D03*
X124000000Y-61000000D03*
X118000000Y-56000000D03*
X130000000Y-53500000D03*
X131000000Y-53500000D03*
X132000000Y-53500000D03*
X130000000Y-55000000D03*
X131000000Y-55000000D03*
X132000000Y-55000000D03*
X132000000Y-52000000D03*
X131000000Y-52000000D03*
X130000000Y-52000000D03*
X129000000Y-53500000D03*
X128000000Y-53500000D03*
X127000000Y-53500000D03*
D12*
X128250000Y-55002280D03*
X128250000Y-53501140D03*
X128250000Y-52000000D03*
D13*
X125298520Y-53501140D03*
D10*
G36*
X126772990Y-52500380D02*
X127522290Y-53000760D01*
X127522290Y-54001520D01*
X126772990Y-54501900D01*
X126772990Y-52500380D01*
X126772990Y-52500380D01*
G37*
D11*
X124250000Y-53000000D03*
X124250000Y-54000000D03*
X125250000Y-54000000D03*
X125250000Y-53000000D03*
X126250000Y-53000000D03*
X126250000Y-54000000D03*
X126500000Y-55000000D03*
X125250000Y-55000000D03*
X124000000Y-55000000D03*
X124000000Y-52000000D03*
X125250000Y-52000000D03*
X185500000Y-53500000D03*
X184500000Y-53500000D03*
X183500000Y-53500000D03*
X180500000Y-54000000D03*
X180500000Y-53000000D03*
X181500000Y-54000000D03*
X181500000Y-53000000D03*
X182500000Y-53000000D03*
X182500000Y-54000000D03*
X183000000Y-55000000D03*
X181500000Y-55000000D03*
X180000000Y-55000000D03*
X180000000Y-52000000D03*
X181500000Y-52000000D03*
X183000000Y-52000000D03*
X188500000Y-52000000D03*
X187500000Y-52000000D03*
X186500000Y-52000000D03*
X186500000Y-53500000D03*
X187500000Y-53500000D03*
X188500000Y-53500000D03*
X188500000Y-55000000D03*
X187500000Y-55000000D03*
D14*
X131750000Y-44020000D03*
X131750000Y-44020000D03*
X131750000Y-42750000D03*
X131750000Y-41480000D03*
X135180000Y-41480000D03*
X135180000Y-44020000D03*
X181000000Y-45230000D03*
X181000000Y-45230000D03*
X181000000Y-46500000D03*
X181000000Y-47770000D03*
X177570000Y-47770000D03*
X177570000Y-45230000D03*
D15*
X128250000Y-57500000D03*
D16*
X125510000Y-57500000D03*
D15*
X128250000Y-46750000D03*
D16*
X130990000Y-46750000D03*
D15*
X137250000Y-48000000D03*
D16*
X139990000Y-48000000D03*
D15*
X184740000Y-57500000D03*
D16*
X182000000Y-57500000D03*
D15*
X184750000Y-47000000D03*
D16*
X187490000Y-47000000D03*
D15*
X125500000Y-27250000D03*
D16*
X125500000Y-24510000D03*
D17*
X129600000Y-43500000D03*
D18*
X129700000Y-43000000D03*
X129700000Y-42500000D03*
D19*
X128750000Y-42100000D03*
X128250000Y-42100000D03*
X127750000Y-42100000D03*
D18*
X126800000Y-42500000D03*
X126800000Y-43000000D03*
X126800000Y-43500000D03*
D19*
X127750000Y-43900000D03*
X128250000Y-43900000D03*
X128750000Y-43900000D03*
D20*
X128250000Y-43150000D03*
D21*
X124870000Y-70750000D03*
D22*
X129250000Y-70750000D03*
X120490000Y-70750000D03*
D12*
X184750000Y-55002280D03*
X184750000Y-53501140D03*
X184750000Y-52000000D03*
D13*
X181798520Y-53501140D03*
D10*
G36*
X183272990Y-52500380D02*
X184022290Y-53000760D01*
X184022290Y-54001520D01*
X183272990Y-54501900D01*
X183272990Y-52500380D01*
X183272990Y-52500380D01*
G37*
D17*
X186100000Y-43500000D03*
D18*
X186200000Y-43000000D03*
X186200000Y-42500000D03*
D19*
X185250000Y-42100000D03*
X184750000Y-42100000D03*
X184250000Y-42100000D03*
D18*
X183300000Y-42500000D03*
X183300000Y-43000000D03*
X183300000Y-43500000D03*
D19*
X184250000Y-43900000D03*
X184750000Y-43900000D03*
X185250000Y-43900000D03*
D20*
X184750000Y-43150000D03*
D21*
X186500000Y-71000000D03*
D22*
X190880000Y-71000000D03*
X182120000Y-71000000D03*
D23*
X154425000Y-27250000D03*
D24*
X151925000Y-28850000D03*
X151925000Y-25650000D03*
D25*
X131025000Y-30150000D03*
D26*
X130825000Y-25750000D03*
X130825000Y-28750000D03*
D27*
X129125000Y-27250000D03*
D23*
X127325000Y-27250000D03*
D24*
X130825000Y-24350000D03*
D10*
G36*
X128325000Y-27420000D02*
X128325000Y-27080000D01*
X128725000Y-27240000D01*
X128725000Y-27260000D01*
X128325000Y-27420000D01*
X128325000Y-27420000D01*
G37*
D28*
X128250000Y-28550000D03*
D29*
X150825000Y-28650000D03*
X150825000Y-25850000D03*
X131625000Y-24500000D03*
X131625000Y-30000000D03*
X130825000Y-24500000D03*
X130425000Y-24500000D03*
X130025000Y-24500000D03*
X130025000Y-24100000D03*
X130425000Y-24100000D03*
X130825000Y-24100000D03*
X131225000Y-24100000D03*
X131225000Y-30000000D03*
X130825000Y-30000000D03*
X130425000Y-30000000D03*
X130025000Y-30000000D03*
X131625000Y-30400000D03*
X131225000Y-30400000D03*
X130825000Y-30400000D03*
X130425000Y-30400000D03*
X130025000Y-30400000D03*
X129625000Y-24500000D03*
X129625000Y-24100000D03*
X151225000Y-28650000D03*
X151625000Y-28650000D03*
X152025000Y-28650000D03*
X152425000Y-28650000D03*
X152825000Y-28650000D03*
X153225000Y-28650000D03*
X153225000Y-29050000D03*
X152825000Y-29050000D03*
X152425000Y-29050000D03*
X152025000Y-29050000D03*
X151625000Y-29050000D03*
X151225000Y-29050000D03*
X150825000Y-29050000D03*
X151225000Y-25850000D03*
X151625000Y-25850000D03*
X152025000Y-25850000D03*
X152425000Y-25850000D03*
X152825000Y-25850000D03*
X153225000Y-25850000D03*
X153225000Y-25450000D03*
X152825000Y-25450000D03*
X152425000Y-25450000D03*
X152025000Y-25450000D03*
X151625000Y-25450000D03*
X151225000Y-25450000D03*
X150825000Y-25450000D03*
X131225000Y-24500000D03*
X132025000Y-24500000D03*
X132025000Y-24100000D03*
X131625000Y-24100000D03*
X132025000Y-30400000D03*
X132025000Y-30000000D03*
D30*
X129125000Y-28550000D03*
X129125000Y-25950000D03*
D10*
G36*
X128141165Y-26987516D02*
X128241317Y-27374775D01*
X127708835Y-27512484D01*
X127608683Y-27125225D01*
X128141165Y-26987516D01*
X128141165Y-26987516D01*
G37*
G36*
X128341165Y-27837516D02*
X128441317Y-28224775D01*
X127908835Y-28362484D01*
X127808683Y-27975225D01*
X128341165Y-27837516D01*
X128341165Y-27837516D01*
G37*
D31*
X146000000Y-67500000D03*
X146400000Y-66550000D03*
X145650000Y-66550000D03*
D32*
X145100000Y-67000000D03*
X146900000Y-67000000D03*
D33*
X128250000Y-56225000D03*
X128250000Y-56775000D03*
X128250000Y-48500000D03*
X128250000Y-49050000D03*
D34*
X137000000Y-50500000D03*
X135900000Y-50500000D03*
D33*
X128250000Y-46275000D03*
X128250000Y-45725000D03*
D35*
X124250000Y-44500000D03*
X124250000Y-45600000D03*
D34*
X124200000Y-42750000D03*
X125300000Y-42750000D03*
X124200000Y-41250000D03*
X125300000Y-41250000D03*
D35*
X125500000Y-44500000D03*
X125500000Y-45600000D03*
D33*
X184750000Y-56225000D03*
X184750000Y-56775000D03*
X184750000Y-48500000D03*
X184750000Y-49050000D03*
D34*
X177400000Y-54250000D03*
X178500000Y-54250000D03*
D33*
X184750000Y-46550000D03*
X184750000Y-46000000D03*
D34*
X180200000Y-42250000D03*
X181300000Y-42250000D03*
X180200000Y-41000000D03*
X181300000Y-41000000D03*
X181300000Y-43500000D03*
X180200000Y-43500000D03*
D35*
X155750000Y-44250000D03*
X155750000Y-45350000D03*
X154500000Y-42750000D03*
X154500000Y-41650000D03*
D34*
X175200000Y-66000000D03*
X176300000Y-66000000D03*
X154550000Y-52550000D03*
X153450000Y-52550000D03*
X148950000Y-41000000D03*
X150050000Y-41000000D03*
D35*
X148250000Y-43500000D03*
X148250000Y-42400000D03*
X154500000Y-44250000D03*
X154500000Y-45350000D03*
D36*
X186975000Y-27250000D03*
X187525000Y-27250000D03*
X156250000Y-27250000D03*
X156800000Y-27250000D03*
D33*
X184750000Y-30300000D03*
X184750000Y-29750000D03*
D36*
X122975000Y-27250000D03*
X123525000Y-27250000D03*
D33*
X128250000Y-35525000D03*
X128250000Y-34975000D03*
X146000000Y-68250000D03*
X146000000Y-68800000D03*
D37*
X176650000Y-71500000D03*
X173750000Y-71500000D03*
D38*
X156880000Y-71000000D03*
D39*
X156880000Y-68460000D03*
X159420000Y-71000000D03*
X159420000Y-68460000D03*
X161960000Y-71000000D03*
X161960000Y-68460000D03*
X164500000Y-71000000D03*
X164500000Y-68460000D03*
X167040000Y-71000000D03*
X167040000Y-68460000D03*
D40*
X128250000Y-50500000D03*
X129150000Y-50500000D03*
D41*
X124000000Y-47300000D03*
X124000000Y-48200000D03*
D40*
X184750000Y-50250000D03*
X183850000Y-50250000D03*
D42*
X176700000Y-68000000D03*
X173800000Y-68000000D03*
D40*
X137300000Y-41500000D03*
X138200000Y-41500000D03*
D41*
X137250000Y-42750000D03*
X137250000Y-43650000D03*
D40*
X137250000Y-45000000D03*
X138150000Y-45000000D03*
D41*
X137250000Y-46300000D03*
X137250000Y-47200000D03*
D40*
X176200000Y-47750000D03*
X175300000Y-47750000D03*
D41*
X176250000Y-49000000D03*
X176250000Y-49900000D03*
X176250000Y-51050000D03*
X176250000Y-51950000D03*
X175250000Y-50000000D03*
X175250000Y-50900000D03*
D40*
X158750000Y-47750000D03*
X159650000Y-47750000D03*
D41*
X165250000Y-46250000D03*
X165250000Y-47150000D03*
D43*
X128900000Y-31500000D03*
X128250000Y-31500000D03*
X127600000Y-31500000D03*
X127600000Y-33600000D03*
X128250000Y-33600000D03*
X128900000Y-33600000D03*
D44*
X127850000Y-32550000D03*
X128650000Y-32550000D03*
D45*
X128250000Y-47210000D03*
X128250000Y-47750000D03*
X127550000Y-47210000D03*
X127550000Y-47750000D03*
X127550000Y-47480000D03*
X184750000Y-47460000D03*
X184750000Y-48000000D03*
X184050000Y-47460000D03*
X184050000Y-48000000D03*
X184050000Y-47730000D03*
D46*
X152800000Y-44620000D03*
X152800000Y-44120000D03*
X152800000Y-43620000D03*
X152800000Y-43120000D03*
X152800000Y-42620000D03*
X149700000Y-42620000D03*
X149700000Y-43120000D03*
X149700000Y-43620000D03*
X149700000Y-44120000D03*
X149700000Y-44620000D03*
D47*
X150862500Y-43000000D03*
X150862500Y-44240000D03*
X151637500Y-43000000D03*
X151637500Y-44240000D03*
D48*
X160825000Y-55200000D03*
X161475000Y-55200000D03*
X162125000Y-55200000D03*
X162775000Y-55200000D03*
X163425000Y-55200000D03*
X164075000Y-55200000D03*
X164725000Y-55200000D03*
X165375000Y-55200000D03*
X166025000Y-55200000D03*
X166675000Y-55200000D03*
X166675000Y-49300000D03*
X166025000Y-49300000D03*
X165375000Y-49300000D03*
X164725000Y-49300000D03*
X164075000Y-49300000D03*
X163425000Y-49300000D03*
X162775000Y-49300000D03*
X162125000Y-49300000D03*
X161475000Y-49300000D03*
X160825000Y-49300000D03*
D23*
X158575000Y-27250000D03*
D24*
X161075000Y-25650000D03*
X161075000Y-28850000D03*
D25*
X181975000Y-24350000D03*
D26*
X182175000Y-28750000D03*
X182175000Y-25750000D03*
D27*
X183875000Y-27250000D03*
D23*
X185675000Y-27250000D03*
D24*
X182175000Y-30150000D03*
D10*
G36*
X184675000Y-27080000D02*
X184675000Y-27420000D01*
X184275000Y-27260000D01*
X184275000Y-27240000D01*
X184675000Y-27080000D01*
X184675000Y-27080000D01*
G37*
D28*
X184750000Y-28550000D03*
D29*
X162175000Y-25850000D03*
X162175000Y-28650000D03*
X181375000Y-30000000D03*
X181375000Y-24500000D03*
X182175000Y-30000000D03*
X182575000Y-30000000D03*
X182975000Y-30000000D03*
X182975000Y-30400000D03*
X182575000Y-30400000D03*
X182175000Y-30400000D03*
X181775000Y-30400000D03*
X181775000Y-24500000D03*
X182175000Y-24500000D03*
X182575000Y-24500000D03*
X182975000Y-24500000D03*
X181375000Y-24100000D03*
X181775000Y-24100000D03*
X182175000Y-24100000D03*
X182575000Y-24100000D03*
X182975000Y-24100000D03*
X183375000Y-30000000D03*
X183375000Y-30400000D03*
X161775000Y-25850000D03*
X161375000Y-25850000D03*
X160975000Y-25850000D03*
X160575000Y-25850000D03*
X160175000Y-25850000D03*
X159775000Y-25850000D03*
X159775000Y-25450000D03*
X160175000Y-25450000D03*
X160575000Y-25450000D03*
X160975000Y-25450000D03*
X161375000Y-25450000D03*
X161775000Y-25450000D03*
X162175000Y-25450000D03*
X161775000Y-28650000D03*
X161375000Y-28650000D03*
X160975000Y-28650000D03*
X160575000Y-28650000D03*
X160175000Y-28650000D03*
X159775000Y-28650000D03*
X159775000Y-29050000D03*
X160175000Y-29050000D03*
X160575000Y-29050000D03*
X160975000Y-29050000D03*
X161375000Y-29050000D03*
X161775000Y-29050000D03*
X162175000Y-29050000D03*
X181775000Y-30000000D03*
X180975000Y-30000000D03*
X180975000Y-30400000D03*
X181375000Y-30400000D03*
X180975000Y-24100000D03*
X180975000Y-24500000D03*
D30*
X183875000Y-25950000D03*
X183875000Y-28550000D03*
D10*
G36*
X184758683Y-27374775D02*
X184858835Y-26987516D01*
X185391317Y-27125225D01*
X185291165Y-27512484D01*
X184758683Y-27374775D01*
X184758683Y-27374775D01*
G37*
G36*
X184558683Y-28224775D02*
X184658835Y-27837516D01*
X185191317Y-27975225D01*
X185091165Y-28362484D01*
X184558683Y-28224775D01*
X184558683Y-28224775D01*
G37*
D36*
X128250000Y-45000000D03*
X128800000Y-45000000D03*
D34*
X137050000Y-52250000D03*
X135950000Y-52250000D03*
D36*
X184750000Y-45000000D03*
X185300000Y-45000000D03*
D34*
X177400000Y-53000000D03*
X178500000Y-53000000D03*
D49*
X140000820Y-69750000D03*
X134499180Y-69750000D03*
D36*
X127700000Y-40750000D03*
X128250000Y-40750000D03*
X184200000Y-40750000D03*
X184750000Y-40750000D03*
D50*
X133000000Y-50500000D03*
X134500000Y-50500000D03*
D51*
X178750000Y-50000000D03*
X178750000Y-51500000D03*
D52*
X129750000Y-50500000D03*
X131650000Y-50500000D03*
X182650000Y-50000000D03*
X180750000Y-50000000D03*
D35*
X154500000Y-50300000D03*
X154500000Y-49200000D03*
D34*
X154550000Y-54000000D03*
X153450000Y-54000000D03*
D42*
X149800000Y-56500000D03*
X152700000Y-56500000D03*
D41*
X151000000Y-50300000D03*
X151000000Y-51200000D03*
X151000000Y-52500000D03*
X151000000Y-53400000D03*
D53*
X156750000Y-54750000D03*
X156750000Y-56750000D03*
X152750000Y-50250000D03*
X152750000Y-48250000D03*
D54*
X158590000Y-52200000D03*
X158590000Y-51250000D03*
X158590000Y-50300000D03*
X155910000Y-50300000D03*
X155910000Y-51250000D03*
X155910000Y-52200000D03*
D55*
X156825000Y-50600000D03*
X156825000Y-51900000D03*
X157675000Y-50600000D03*
X157675000Y-51900000D03*
D56*
X192500000Y-36250000D03*
X120250000Y-61000000D03*
X192750000Y-61250000D03*
X120000000Y-36000000D03*
X144000000Y-36000000D03*
X171500000Y-36000000D03*
X119750000Y-20750000D03*
X192500000Y-20750000D03*
X156250000Y-20750000D03*
D15*
X175750000Y-56250000D03*
D16*
X178490000Y-56250000D03*
D57*
X178750000Y-71498600D03*
X178750000Y-70000000D03*
D41*
X178750000Y-67750000D03*
X178750000Y-68650000D03*
D58*
X149500000Y-46250000D03*
X151500000Y-46250000D03*
D53*
X157500000Y-44250000D03*
X157500000Y-42250000D03*
D11*
X186500000Y-55000000D03*
X126500000Y-52000000D03*
D59*
X120985000Y-28685000D03*
X118775000Y-28685000D03*
X118775000Y-25815000D03*
X120985000Y-25815000D03*
D60*
X117500000Y-27250000D03*
D61*
X119350000Y-28650000D03*
X119350000Y-25850000D03*
D62*
X119046000Y-27885000D03*
X120951000Y-27885000D03*
X121535200Y-27885000D03*
X120316000Y-27885000D03*
X119681000Y-27885000D03*
X118411000Y-27885000D03*
X117776000Y-27885000D03*
X117141000Y-27885000D03*
X117141000Y-26615000D03*
X117776000Y-26615000D03*
X118411000Y-26615000D03*
X119046000Y-26615000D03*
X119681000Y-26615000D03*
X120316000Y-26615000D03*
X120951000Y-26615000D03*
X121535200Y-26615000D03*
X119681000Y-27885000D03*
X119808000Y-28774000D03*
X117776000Y-28774000D03*
X117776000Y-25726000D03*
X119808000Y-25726000D03*
X117268000Y-25218000D03*
X117268000Y-29282000D03*
X117268000Y-29282000D03*
D59*
X191533000Y-25815000D03*
X193743000Y-25815000D03*
X193743000Y-28685000D03*
X191533000Y-28685000D03*
D60*
X195018000Y-27250000D03*
D61*
X193168000Y-25850000D03*
X193168000Y-28650000D03*
D62*
X193472000Y-26615000D03*
X191567000Y-26615000D03*
X190982800Y-26615000D03*
X192202000Y-26615000D03*
X192837000Y-26615000D03*
X194107000Y-26615000D03*
X194742000Y-26615000D03*
X195377000Y-26615000D03*
X195377000Y-27885000D03*
X194742000Y-27885000D03*
X194107000Y-27885000D03*
X193472000Y-27885000D03*
X192837000Y-27885000D03*
X192202000Y-27885000D03*
X191567000Y-27885000D03*
X190982800Y-27885000D03*
X192837000Y-26615000D03*
X192710000Y-25726000D03*
X194742000Y-25726000D03*
X194742000Y-28774000D03*
X192710000Y-28774000D03*
X195250000Y-29282000D03*
X195250000Y-25218000D03*
X195250000Y-25218000D03*
D59*
X147435000Y-69515000D03*
X147435000Y-71725000D03*
X144565000Y-71725000D03*
X144565000Y-69515000D03*
D63*
X146000000Y-73000000D03*
D64*
X147400000Y-71150000D03*
X144600000Y-71150000D03*
D62*
X146635000Y-71454000D03*
X146635000Y-69549000D03*
X146635000Y-68964800D03*
X146635000Y-70184000D03*
X146635000Y-70819000D03*
X146635000Y-72089000D03*
X146635000Y-72724000D03*
X146635000Y-73359000D03*
X145365000Y-73359000D03*
X145365000Y-72724000D03*
X145365000Y-72089000D03*
X145365000Y-71454000D03*
X145365000Y-70819000D03*
X145365000Y-70184000D03*
X145365000Y-69549000D03*
X145365000Y-68964800D03*
X146635000Y-70819000D03*
X147524000Y-70692000D03*
X147524000Y-72724000D03*
X144476000Y-72724000D03*
X144476000Y-70692000D03*
X143968000Y-73232000D03*
X148032000Y-73232000D03*
X148032000Y-73232000D03*
D41*
X187700000Y-28150000D03*
X187700000Y-27250000D03*
D40*
X185650000Y-30450000D03*
X184750000Y-30450000D03*
X127350000Y-35700000D03*
X128250000Y-35700000D03*
D41*
X122800000Y-28150000D03*
X122800000Y-27250000D03*
D65*
X167450001Y-57450001D03*
X173750000Y-66500000D03*
D66*
X144750000Y-67000000D03*
X147250000Y-67000000D03*
D65*
X124100000Y-42100000D03*
X124299272Y-43549272D03*
X124900000Y-45600000D03*
X125399990Y-46282603D03*
X137750000Y-50500000D03*
X161000000Y-65200000D03*
D66*
X151637500Y-43500000D03*
X150862500Y-43500000D03*
X151637500Y-42600000D03*
X150862500Y-42600000D03*
X150750000Y-45250000D03*
X151750000Y-42000000D03*
X150750000Y-42000000D03*
X150750000Y-41000000D03*
D65*
X151500000Y-45250000D03*
X147500000Y-42500000D03*
X148250000Y-41750000D03*
X154500000Y-41000000D03*
X157500000Y-41500000D03*
X155750000Y-46000000D03*
X154500000Y-46000000D03*
X179500000Y-46000000D03*
X124500000Y-46250000D03*
X124250000Y-40500000D03*
X137000000Y-53000000D03*
X179532950Y-42375010D03*
X180250000Y-42750000D03*
X179547215Y-41023607D03*
X175250000Y-47000000D03*
X178750000Y-67000000D03*
X153750000Y-48250000D03*
X151750000Y-48250000D03*
X156825000Y-51900000D03*
X157675000Y-51900000D03*
X157675000Y-50600000D03*
X156825000Y-50600000D03*
X156750000Y-57500000D03*
X157750000Y-56750000D03*
X159250000Y-51250000D03*
X161500000Y-50500000D03*
X152750000Y-54000000D03*
X152750000Y-52500000D03*
X151750000Y-53250000D03*
X154500000Y-48500000D03*
X152750000Y-47250000D03*
X177000000Y-66000000D03*
X160746454Y-56449991D03*
X166746454Y-56449991D03*
X162746454Y-56449991D03*
X163500000Y-67250000D03*
X165250000Y-45500000D03*
X170500000Y-71000000D03*
X170500000Y-68500000D03*
X134500000Y-71000000D03*
X134500000Y-68500000D03*
X132250000Y-69750000D03*
X182000000Y-68000000D03*
X191000000Y-68000000D03*
X129250000Y-67750000D03*
X120500000Y-67750000D03*
X179500000Y-43500000D03*
X176500000Y-45250000D03*
X182000000Y-46500000D03*
D66*
X184010494Y-47080010D03*
X185500000Y-45419990D03*
X145000000Y-67500000D03*
X144994998Y-66500000D03*
X147000000Y-67500000D03*
X147055002Y-66500000D03*
X128250000Y-32750000D03*
X128250000Y-32250000D03*
X128750000Y-32750000D03*
X127750000Y-32750000D03*
X127500000Y-31000000D03*
X129000000Y-31000000D03*
X127500000Y-34250000D03*
X129000000Y-34250000D03*
X127750000Y-32250000D03*
X128750000Y-32250000D03*
X131000000Y-42750000D03*
X127500000Y-44500000D03*
X127250000Y-40750000D03*
X127500000Y-40250000D03*
X185750000Y-45000000D03*
X185500000Y-44500000D03*
X183500000Y-47500000D03*
X183500000Y-48000000D03*
X184000000Y-48500000D03*
X129250000Y-45000000D03*
X129000000Y-45500000D03*
X129000000Y-44500000D03*
X127000000Y-47250000D03*
X127000000Y-47750000D03*
X127500000Y-48250000D03*
X127500000Y-46750000D03*
X136250000Y-44250000D03*
X185750000Y-44000000D03*
X183768884Y-44056653D03*
X185731116Y-41943347D03*
X183768884Y-41943347D03*
X184000000Y-41250000D03*
X184000000Y-40250000D03*
X183750000Y-40750000D03*
X176250000Y-52500000D03*
X177250000Y-54750000D03*
X177250000Y-52500000D03*
X176750000Y-54250000D03*
X176750000Y-53000000D03*
X185250000Y-43250000D03*
X184250000Y-43250000D03*
X184250000Y-42750000D03*
X185250000Y-42750000D03*
X127750000Y-43250000D03*
X128750000Y-43250000D03*
X128750000Y-42750000D03*
X127750000Y-42750000D03*
X127500000Y-41500000D03*
X129000000Y-41500000D03*
X138750000Y-45000000D03*
X138750000Y-41500000D03*
D65*
X182565694Y-45934306D03*
X187124990Y-43250000D03*
X182565694Y-47065694D03*
X187250000Y-42250000D03*
D66*
X138750000Y-51250000D03*
D65*
X125000000Y-67750000D03*
X175750000Y-55750000D03*
X186500000Y-67750000D03*
X137000000Y-54000000D03*
X151000000Y-49500000D03*
D66*
X178500000Y-55000000D03*
X134500000Y-51500000D03*
D65*
X125250000Y-43250000D03*
X125250000Y-41750000D03*
X181500000Y-44250000D03*
X181250000Y-41750000D03*
X181250000Y-40250000D03*
X158500000Y-44250000D03*
X123500000Y-49000000D03*
X160250000Y-51250000D03*
X161746454Y-56449991D03*
X163500000Y-51000000D03*
X164513883Y-56449991D03*
X126699342Y-50097148D03*
X162101231Y-53851231D03*
X123900000Y-50100000D03*
X164750000Y-48000000D03*
X167800000Y-42500000D03*
X167900000Y-41000000D03*
X157750000Y-47750000D03*
X153500000Y-42000000D03*
X148500000Y-56500000D03*
X140000000Y-71000000D03*
X154250000Y-56500000D03*
D67*
X156750000Y-54750000D02*
X158375000Y-54750000D01*
X158375000Y-54750000D02*
X159250000Y-55625000D01*
X159250000Y-55625000D02*
X159250000Y-57000000D01*
D68*
X154710000Y-54750000D02*
X156750000Y-54750000D01*
X154550000Y-54000000D02*
X154550000Y-54590000D01*
X154550000Y-54590000D02*
X154710000Y-54750000D01*
X154550000Y-54000000D02*
X154550000Y-52550000D01*
X155200000Y-52550000D02*
X155255000Y-52495000D01*
X155255000Y-52495000D02*
X155255000Y-52200000D01*
X154550000Y-52550000D02*
X155200000Y-52550000D01*
X155910000Y-52200000D02*
X155255000Y-52200000D01*
X175200000Y-66000000D02*
X174250000Y-66000000D01*
X174250000Y-66000000D02*
X173750000Y-66500000D01*
D67*
X167450001Y-57450001D02*
X159700001Y-57450001D01*
X159700001Y-57450001D02*
X159250000Y-57000000D01*
X173800000Y-68000000D02*
X173800000Y-66550000D01*
X173800000Y-66550000D02*
X173750000Y-66500000D01*
D69*
X130500000Y-43750000D02*
X130500000Y-43225000D01*
X130770000Y-44020000D02*
X130500000Y-43750000D01*
X130770000Y-44020000D02*
X131750000Y-44020000D01*
X129700000Y-43000000D02*
X130275000Y-43000000D01*
X130275000Y-43000000D02*
X130500000Y-43225000D01*
X146900000Y-67000000D02*
X146900000Y-66655002D01*
X146900000Y-66655002D02*
X147055002Y-66500000D01*
X145100000Y-67000000D02*
X144750000Y-67000000D01*
X146900000Y-67000000D02*
X147250000Y-67000000D01*
D68*
X124200000Y-42200000D02*
X124100000Y-42100000D01*
X124200000Y-42750000D02*
X124200000Y-42200000D01*
D69*
X124200000Y-43450000D02*
X124299272Y-43549272D01*
X124200000Y-42750000D02*
X124200000Y-43450000D01*
D68*
X125500000Y-45600000D02*
X124900000Y-45600000D01*
D69*
X125500000Y-45600000D02*
X125500000Y-46182593D01*
X125500000Y-46182593D02*
X125399990Y-46282603D01*
D68*
X137000000Y-50500000D02*
X137750000Y-50500000D01*
X190880000Y-71000000D02*
X190880000Y-68120000D01*
X190880000Y-68120000D02*
X191000000Y-68000000D01*
X120490000Y-70750000D02*
X120490000Y-67760000D01*
X120490000Y-67760000D02*
X120500000Y-67750000D01*
D69*
X127550000Y-47480000D02*
X127550000Y-47750000D01*
X127550000Y-47480000D02*
X127550000Y-47210000D01*
X127550000Y-47210000D02*
X127550000Y-47750000D01*
D68*
X150862500Y-44240000D02*
X150862500Y-43500000D01*
X151637500Y-44240000D02*
X150862500Y-44240000D01*
X151637500Y-44240000D02*
X151637500Y-43500000D01*
X183647640Y-53501140D02*
X181798520Y-53501140D01*
X183647640Y-53501140D02*
X184750000Y-53501140D01*
X127147640Y-53501140D02*
X125298520Y-53501140D01*
X127147640Y-53501140D02*
X128250000Y-53501140D01*
X150862500Y-44240000D02*
X150862500Y-45137500D01*
X150862500Y-45137500D02*
X150750000Y-45250000D01*
X151637500Y-43000000D02*
X151637500Y-42112500D01*
X151637500Y-42112500D02*
X151750000Y-42000000D01*
X150862500Y-43000000D02*
X150862500Y-42112500D01*
X150862500Y-42112500D02*
X150750000Y-42000000D01*
X150050000Y-41000000D02*
X150750000Y-41000000D01*
X151500000Y-46250000D02*
X151500000Y-45250000D01*
D69*
X148250000Y-42400000D02*
X147600000Y-42400000D01*
X147600000Y-42400000D02*
X147500000Y-42500000D01*
X148250000Y-42400000D02*
X148250000Y-41750000D01*
D68*
X154500000Y-41650000D02*
X154500000Y-41000000D01*
X157500000Y-42250000D02*
X157500000Y-41500000D01*
X155750000Y-45350000D02*
X155750000Y-46000000D01*
X154500000Y-45350000D02*
X154500000Y-46000000D01*
D69*
X124250000Y-45600000D02*
X124250000Y-46000000D01*
X124250000Y-46000000D02*
X124500000Y-46250000D01*
X124200000Y-41250000D02*
X124200000Y-40550000D01*
X124200000Y-40550000D02*
X124250000Y-40500000D01*
X137050000Y-52250000D02*
X137050000Y-52950000D01*
X137050000Y-52950000D02*
X137000000Y-53000000D01*
X179532950Y-42367050D02*
X179532950Y-42375010D01*
X179650000Y-42250000D02*
X179532950Y-42367050D01*
X180200000Y-42250000D02*
X179650000Y-42250000D01*
X180200000Y-42250000D02*
X180200000Y-42700000D01*
X180200000Y-42700000D02*
X180250000Y-42750000D01*
X180200000Y-41000000D02*
X179570822Y-41000000D01*
X179570822Y-41000000D02*
X179547215Y-41023607D01*
X175300000Y-47750000D02*
X175300000Y-47050000D01*
X175300000Y-47050000D02*
X175250000Y-47000000D01*
D68*
X178750000Y-67750000D02*
X178750000Y-67000000D01*
D67*
X152750000Y-48250000D02*
X153750000Y-48250000D01*
X152750000Y-48250000D02*
X151750000Y-48250000D01*
D68*
X158590000Y-51250000D02*
X157475000Y-51250000D01*
X157475000Y-51250000D02*
X156825000Y-50600000D01*
D67*
X156750000Y-56750000D02*
X156750000Y-57500000D01*
X156750000Y-56750000D02*
X157750000Y-56750000D01*
D69*
X158590000Y-51250000D02*
X159250000Y-51250000D01*
X161475000Y-49300000D02*
X161475000Y-50475000D01*
X161475000Y-50475000D02*
X161500000Y-50500000D01*
D68*
X153450000Y-54000000D02*
X152750000Y-54000000D01*
X153450000Y-52550000D02*
X152800000Y-52550000D01*
X152800000Y-52550000D02*
X152750000Y-52500000D01*
X151000000Y-53400000D02*
X151600000Y-53400000D01*
X151600000Y-53400000D02*
X151750000Y-53250000D01*
X154500000Y-49200000D02*
X154500000Y-48500000D01*
D67*
X152750000Y-48250000D02*
X152750000Y-47250000D01*
D68*
X176300000Y-66000000D02*
X177000000Y-66000000D01*
D69*
X160825000Y-56371445D02*
X160746454Y-56449991D01*
X162775000Y-55200000D02*
X162775000Y-56421445D01*
X162775000Y-56421445D02*
X162746454Y-56449991D01*
X166675000Y-56378537D02*
X166746454Y-56449991D01*
X166675000Y-55200000D02*
X166675000Y-56378537D01*
X160825000Y-55200000D02*
X160825000Y-56371445D01*
X165250000Y-46250000D02*
X165250000Y-45500000D01*
D68*
X134499180Y-69750000D02*
X134499180Y-70999180D01*
X134499180Y-70999180D02*
X134500000Y-71000000D01*
X134499180Y-69750000D02*
X134499180Y-68500820D01*
X134499180Y-68500820D02*
X134500000Y-68500000D01*
X134499180Y-69750000D02*
X132250000Y-69750000D01*
X182120000Y-71000000D02*
X182120000Y-68120000D01*
X182120000Y-68120000D02*
X182000000Y-68000000D01*
X129250000Y-70750000D02*
X129250000Y-67750000D01*
D69*
X128750000Y-42750000D02*
X128750000Y-43250000D01*
X127750000Y-42750000D02*
X127750000Y-43250000D01*
X180200000Y-43500000D02*
X179500000Y-43500000D01*
X177570000Y-45230000D02*
X176520000Y-45230000D01*
X176520000Y-45230000D02*
X176500000Y-45250000D01*
X181000000Y-46500000D02*
X182000000Y-46500000D01*
D68*
X184010494Y-47440634D02*
X184010494Y-47080010D01*
X184029860Y-47460000D02*
X184010494Y-47440634D01*
X184050000Y-47460000D02*
X184029860Y-47460000D01*
X185500000Y-45059366D02*
X185500000Y-45419990D01*
X185440634Y-45000000D02*
X185500000Y-45059366D01*
X185300000Y-45000000D02*
X185440634Y-45000000D01*
D69*
X184050000Y-47730000D02*
X184050000Y-47460000D01*
X184050000Y-47460000D02*
X184050000Y-48000000D01*
X145100000Y-67000000D02*
X145100000Y-67400000D01*
X145100000Y-67400000D02*
X145000000Y-67500000D01*
X145100000Y-67000000D02*
X145100000Y-66605002D01*
X145100000Y-66605002D02*
X144994998Y-66500000D01*
X146900000Y-67000000D02*
X146900000Y-67400000D01*
X146900000Y-67400000D02*
X147000000Y-67500000D01*
X127600000Y-31500000D02*
X127600000Y-32100000D01*
X127600000Y-32100000D02*
X127750000Y-32250000D01*
X128900000Y-31500000D02*
X128900000Y-32100000D01*
X128900000Y-32100000D02*
X128750000Y-32250000D01*
X127600000Y-31500000D02*
X127600000Y-31100000D01*
X127600000Y-31100000D02*
X127500000Y-31000000D01*
X128900000Y-31100000D02*
X129000000Y-31000000D01*
X128900000Y-31500000D02*
X128900000Y-31100000D01*
X127600000Y-33600000D02*
X127600000Y-34150000D01*
X127600000Y-34150000D02*
X127500000Y-34250000D01*
X128900000Y-33600000D02*
X128900000Y-34150000D01*
X128900000Y-34150000D02*
X129000000Y-34250000D01*
X127600000Y-33600000D02*
X127600000Y-32800000D01*
X127600000Y-32800000D02*
X127850000Y-32550000D01*
X128900000Y-33600000D02*
X128900000Y-32800000D01*
X128900000Y-32800000D02*
X128650000Y-32550000D01*
X131750000Y-42750000D02*
X131000000Y-42750000D01*
X129600000Y-43500000D02*
X129000000Y-43500000D01*
X129000000Y-43500000D02*
X128750000Y-43250000D01*
X128750000Y-43900000D02*
X128750000Y-44250000D01*
X128750000Y-44250000D02*
X129000000Y-44500000D01*
X127750000Y-43900000D02*
X127750000Y-44250000D01*
X127750000Y-44250000D02*
X127500000Y-44500000D01*
X128750000Y-43900000D02*
X128750000Y-43250000D01*
X127750000Y-43900000D02*
X127750000Y-43250000D01*
D68*
X127700000Y-40750000D02*
X127700000Y-40450000D01*
X127700000Y-40450000D02*
X127500000Y-40250000D01*
X185300000Y-45000000D02*
X185750000Y-45000000D01*
X185300000Y-45000000D02*
X185300000Y-44700000D01*
X185300000Y-44700000D02*
X185500000Y-44500000D01*
X184050000Y-47460000D02*
X183540000Y-47460000D01*
X183540000Y-47460000D02*
X183500000Y-47500000D01*
X184050000Y-48000000D02*
X183500000Y-48000000D01*
X184050000Y-48000000D02*
X184050000Y-48450000D01*
X184050000Y-48450000D02*
X184000000Y-48500000D01*
X128800000Y-45000000D02*
X129250000Y-45000000D01*
X128800000Y-45000000D02*
X128800000Y-45300000D01*
X128800000Y-45300000D02*
X129000000Y-45500000D01*
X128800000Y-45000000D02*
X128800000Y-44700000D01*
X128800000Y-44700000D02*
X129000000Y-44500000D01*
X127550000Y-47210000D02*
X127040000Y-47210000D01*
X127040000Y-47210000D02*
X127000000Y-47250000D01*
X127550000Y-47750000D02*
X127000000Y-47750000D01*
X127550000Y-47750000D02*
X127550000Y-48200000D01*
X127550000Y-48200000D02*
X127500000Y-48250000D01*
X127550000Y-47210000D02*
X127550000Y-46800000D01*
X127550000Y-46800000D02*
X127500000Y-46750000D01*
X185250000Y-43900000D02*
X185650000Y-43900000D01*
X185650000Y-43900000D02*
X185750000Y-44000000D01*
X184250000Y-43900000D02*
X183925537Y-43900000D01*
X183925537Y-43900000D02*
X183768884Y-44056653D01*
X185250000Y-42100000D02*
X185574463Y-42100000D01*
X185574463Y-42100000D02*
X185731116Y-41943347D01*
X184250000Y-42100000D02*
X183925537Y-42100000D01*
X183925537Y-42100000D02*
X183768884Y-41943347D01*
X184200000Y-40750000D02*
X184200000Y-41050000D01*
X184200000Y-41050000D02*
X184000000Y-41250000D01*
X184200000Y-40750000D02*
X184200000Y-40450000D01*
X184200000Y-40450000D02*
X184000000Y-40250000D01*
X184200000Y-40750000D02*
X183750000Y-40750000D01*
X176250000Y-51950000D02*
X176250000Y-52500000D01*
X177400000Y-54250000D02*
X177400000Y-54600000D01*
X177400000Y-54600000D02*
X177250000Y-54750000D01*
X177400000Y-53000000D02*
X177400000Y-52650000D01*
X177400000Y-52650000D02*
X177250000Y-52500000D01*
X177400000Y-54250000D02*
X176750000Y-54250000D01*
X177400000Y-53000000D02*
X176750000Y-53000000D01*
D69*
X184250000Y-43250000D02*
X184250000Y-43900000D01*
X186100000Y-43500000D02*
X185500000Y-43500000D01*
X185500000Y-43500000D02*
X185250000Y-43250000D01*
X185250000Y-43900000D02*
X185250000Y-43250000D01*
X184750000Y-43150000D02*
X185150000Y-43150000D01*
X185150000Y-43150000D02*
X185250000Y-43250000D01*
X184750000Y-43150000D02*
X184350000Y-43150000D01*
X184350000Y-43150000D02*
X184250000Y-43250000D01*
X184250000Y-42100000D02*
X184250000Y-42750000D01*
X185250000Y-42100000D02*
X185250000Y-42750000D01*
X128250000Y-43150000D02*
X127850000Y-43150000D01*
X127850000Y-43150000D02*
X127750000Y-43250000D01*
X128250000Y-43150000D02*
X128650000Y-43150000D01*
X128650000Y-43150000D02*
X128750000Y-43250000D01*
X128750000Y-42100000D02*
X128750000Y-42750000D01*
X127750000Y-42100000D02*
X127750000Y-42750000D01*
X127700000Y-40750000D02*
X127250000Y-40750000D01*
X127750000Y-42100000D02*
X127750000Y-41750000D01*
X127750000Y-41750000D02*
X127500000Y-41500000D01*
X128750000Y-42100000D02*
X128750000Y-41750000D01*
X128750000Y-41750000D02*
X129000000Y-41500000D01*
X138150000Y-45000000D02*
X138750000Y-45000000D01*
X138200000Y-41500000D02*
X138750000Y-41500000D01*
X135180000Y-44020000D02*
X136020000Y-44020000D01*
X136020000Y-44020000D02*
X136250000Y-44250000D01*
X130500000Y-41750000D02*
X130770000Y-41480000D01*
X130770000Y-41480000D02*
X131750000Y-41480000D01*
X130500000Y-42275000D02*
X130500000Y-41750000D01*
X129700000Y-42500000D02*
X130275000Y-42500000D01*
X130275000Y-42500000D02*
X130500000Y-42275000D01*
X181000000Y-45230000D02*
X181950000Y-45230000D01*
X181950000Y-45230000D02*
X182565694Y-45845694D01*
X182565694Y-45845694D02*
X182565694Y-45934306D01*
X186874990Y-43000000D02*
X187124990Y-43250000D01*
X186200000Y-43000000D02*
X186874990Y-43000000D01*
X182565694Y-47154306D02*
X182565694Y-47065694D01*
X181950000Y-47770000D02*
X182565694Y-47154306D01*
X181000000Y-47770000D02*
X181950000Y-47770000D01*
X186200000Y-42500000D02*
X187000000Y-42500000D01*
X187000000Y-42500000D02*
X187250000Y-42250000D01*
D68*
X128250000Y-57500000D02*
X128250000Y-63250000D01*
X128250000Y-63250000D02*
X129500000Y-64500000D01*
X129500000Y-64500000D02*
X144500000Y-64500000D01*
X128250000Y-57500000D02*
X128250000Y-56775000D01*
X144500000Y-64500000D02*
X145650000Y-65650000D01*
X145650000Y-65650000D02*
X145650000Y-66550000D01*
D69*
X145650000Y-66550000D02*
X145600000Y-66550000D01*
D68*
X138750000Y-50000000D02*
X138750000Y-51250000D01*
X137250000Y-48500000D02*
X138750000Y-50000000D01*
X137250000Y-48410000D02*
X137250000Y-48500000D01*
D69*
X137250000Y-48000000D02*
X137250000Y-48410000D01*
X137264215Y-48424215D02*
X137295525Y-48424215D01*
X137250000Y-48410000D02*
X137264215Y-48424215D01*
D68*
X124870000Y-70750000D02*
X124870000Y-67880000D01*
X124870000Y-67880000D02*
X125000000Y-67750000D01*
D69*
X137250000Y-47200000D02*
X137250000Y-48000000D01*
X184750000Y-56775000D02*
X184750000Y-57000000D01*
X184750000Y-57000000D02*
X184750000Y-57250000D01*
D68*
X184740000Y-57500000D02*
X184740000Y-57010000D01*
X184740000Y-57010000D02*
X184750000Y-57000000D01*
X146400000Y-66550000D02*
X146400000Y-66060000D01*
X146400000Y-66060000D02*
X147960000Y-64500000D01*
X184750000Y-62500000D02*
X184750000Y-56775000D01*
X147960000Y-64500000D02*
X148000000Y-64500000D01*
X148000000Y-64500000D02*
X149000000Y-63500000D01*
X149000000Y-63500000D02*
X183750000Y-63500000D01*
X183750000Y-63500000D02*
X184750000Y-62500000D01*
X186500000Y-71000000D02*
X186500000Y-68250000D01*
X186500000Y-68250000D02*
X186500000Y-68000000D01*
X186500000Y-67750000D02*
X186500000Y-68250000D01*
X175750000Y-56250000D02*
X175750000Y-55750000D01*
X175750000Y-54250000D02*
X175750000Y-56250000D01*
X175250000Y-50900000D02*
X175250000Y-53750000D01*
X175250000Y-53750000D02*
X175750000Y-54250000D01*
X183875000Y-25950000D02*
X182375000Y-25950000D01*
X182375000Y-25950000D02*
X182175000Y-25750000D01*
X183875000Y-27250000D02*
X183875000Y-25950000D01*
X183875000Y-28550000D02*
X183875000Y-27250000D01*
X182175000Y-28750000D02*
X183675000Y-28750000D01*
X183675000Y-28750000D02*
X183875000Y-28550000D01*
X130825000Y-25750000D02*
X129325000Y-25750000D01*
X129325000Y-25750000D02*
X129125000Y-25950000D01*
X130825000Y-28750000D02*
X129325000Y-28750000D01*
X129325000Y-28750000D02*
X129125000Y-28550000D01*
X129125000Y-27250000D02*
X129125000Y-28550000D01*
D69*
X129125000Y-27250000D02*
X129125000Y-25950000D01*
D68*
X128250000Y-55002280D02*
X128250000Y-56225000D01*
X128250000Y-52000000D02*
X128250000Y-50500000D01*
X128250000Y-49050000D02*
X128250000Y-50500000D01*
D67*
X135600000Y-54000000D02*
X134500000Y-52900000D01*
X134500000Y-52900000D02*
X134500000Y-51500000D01*
X137000000Y-54000000D02*
X135600000Y-54000000D01*
D68*
X135900000Y-50500000D02*
X135900000Y-52200000D01*
X135900000Y-52200000D02*
X135950000Y-52250000D01*
X151000000Y-50300000D02*
X151000000Y-49500000D01*
X152750000Y-50250000D02*
X151050000Y-50250000D01*
X151050000Y-50250000D02*
X151000000Y-50300000D01*
X154500000Y-50300000D02*
X152800000Y-50300000D01*
X152800000Y-50300000D02*
X152750000Y-50250000D01*
X155910000Y-50300000D02*
X154500000Y-50300000D01*
X178500000Y-54250000D02*
X178500000Y-55000000D01*
X178500000Y-53000000D02*
X178500000Y-54250000D01*
X178750000Y-51500000D02*
X178750000Y-52090000D01*
X178750000Y-52090000D02*
X178500000Y-52340000D01*
X178500000Y-52340000D02*
X178500000Y-53000000D01*
X134500000Y-50500000D02*
X134500000Y-51500000D01*
X134500000Y-50500000D02*
X135900000Y-50500000D01*
X128250000Y-46750000D02*
X128250000Y-47210000D01*
X128250000Y-46275000D02*
X128250000Y-46750000D01*
X128250000Y-45000000D02*
X128250000Y-45725000D01*
X128250000Y-44250000D02*
X128250000Y-45000000D01*
D69*
X128250000Y-43900000D02*
X128250000Y-44250000D01*
D68*
X124000000Y-47300000D02*
X124000000Y-46760000D01*
X124000000Y-46760000D02*
X123500000Y-46260000D01*
X123500000Y-46260000D02*
X123500000Y-44660000D01*
X123500000Y-44660000D02*
X123660000Y-44500000D01*
X123660000Y-44500000D02*
X124250000Y-44500000D01*
X125500000Y-44500000D02*
X124250000Y-44500000D01*
D69*
X126800000Y-43500000D02*
X126225000Y-43500000D01*
X126225000Y-43500000D02*
X125975000Y-43750000D01*
X125975000Y-43750000D02*
X125700000Y-43750000D01*
X125700000Y-43750000D02*
X125500000Y-43950000D01*
X125500000Y-43950000D02*
X125500000Y-44500000D01*
X125300000Y-42750000D02*
X125300000Y-43200000D01*
X125300000Y-43200000D02*
X125250000Y-43250000D01*
X126800000Y-43000000D02*
X126000000Y-43000000D01*
X126000000Y-43000000D02*
X125750000Y-42750000D01*
X125750000Y-42750000D02*
X125300000Y-42750000D01*
X125300000Y-41250000D02*
X125300000Y-41700000D01*
X125300000Y-41700000D02*
X125250000Y-41750000D01*
X125750000Y-41250000D02*
X125300000Y-41250000D01*
X126000000Y-41500000D02*
X125750000Y-41250000D01*
X126000000Y-42275000D02*
X126000000Y-41500000D01*
X126800000Y-42500000D02*
X126225000Y-42500000D01*
X126225000Y-42500000D02*
X126000000Y-42275000D01*
D68*
X128250000Y-40750000D02*
X128250000Y-42100000D01*
X128250000Y-40750000D02*
X128250000Y-35525000D01*
X184750000Y-56225000D02*
X184750000Y-55002280D01*
X184750000Y-50250000D02*
X184750000Y-52000000D01*
X184750000Y-49050000D02*
X184750000Y-50250000D01*
X184750000Y-47460000D02*
X184750000Y-47000000D01*
X184750000Y-46550000D02*
X184750000Y-47000000D01*
X184750000Y-45000000D02*
X184750000Y-46000000D01*
X184750000Y-44500000D02*
X184750000Y-45000000D01*
D69*
X184750000Y-43900000D02*
X184750000Y-44500000D01*
X181300000Y-43500000D02*
X181300000Y-44050000D01*
X181300000Y-44050000D02*
X181500000Y-44250000D01*
X181300000Y-43500000D02*
X183300000Y-43500000D01*
X181750000Y-42250000D02*
X182500000Y-43000000D01*
X181300000Y-42250000D02*
X181300000Y-41800000D01*
X181300000Y-41800000D02*
X181250000Y-41750000D01*
X183300000Y-43000000D02*
X182500000Y-43000000D01*
X181300000Y-42250000D02*
X181750000Y-42250000D01*
X181300000Y-41000000D02*
X181300000Y-40300000D01*
X181300000Y-40300000D02*
X181250000Y-40250000D01*
X182250000Y-41250000D02*
X182000000Y-41000000D01*
X182000000Y-41000000D02*
X181300000Y-41000000D01*
X182250000Y-42025000D02*
X182250000Y-41250000D01*
X183300000Y-42500000D02*
X182725000Y-42500000D01*
X182725000Y-42500000D02*
X182250000Y-42025000D01*
X183300000Y-42500000D02*
X183100000Y-42500000D01*
X184750000Y-42100000D02*
X184750000Y-41750000D01*
D68*
X184750000Y-40750000D02*
X184750000Y-41750000D01*
X184750000Y-30300000D02*
X184750000Y-40750000D01*
X159750000Y-44250000D02*
X160825000Y-45325000D01*
X160825000Y-45325000D02*
X160825000Y-49300000D01*
X158500000Y-44250000D02*
X159750000Y-44250000D01*
D67*
X157500000Y-44250000D02*
X158500000Y-44250000D01*
D68*
X154000000Y-44000000D02*
X153740000Y-44000000D01*
X153740000Y-44000000D02*
X153620000Y-44120000D01*
D67*
X155250000Y-44000000D02*
X154000000Y-44000000D01*
X156000000Y-44000000D02*
X155250000Y-44000000D01*
D68*
X155250000Y-44000000D02*
X155500000Y-44000000D01*
X155500000Y-44000000D02*
X155750000Y-44250000D01*
X154500000Y-44250000D02*
X154250000Y-44250000D01*
X154250000Y-44250000D02*
X154000000Y-44000000D01*
D67*
X156250000Y-44250000D02*
X156000000Y-44000000D01*
X157500000Y-44250000D02*
X156250000Y-44250000D01*
D69*
X152800000Y-43620000D02*
X153375000Y-43620000D01*
X153375000Y-43620000D02*
X153620000Y-43865000D01*
X153620000Y-43865000D02*
X153620000Y-44120000D01*
X152800000Y-44620000D02*
X153375000Y-44620000D01*
X153375000Y-44620000D02*
X153620000Y-44375000D01*
X153620000Y-44375000D02*
X153620000Y-44120000D01*
X152800000Y-44120000D02*
X153620000Y-44120000D01*
D68*
X124000000Y-48200000D02*
X124000000Y-48500000D01*
X124000000Y-48500000D02*
X123500000Y-49000000D01*
D70*
X184475000Y-27250000D02*
X185075000Y-27250000D01*
D69*
X185675000Y-27250000D02*
X186975000Y-27250000D01*
X185075000Y-27250000D02*
X185675000Y-27250000D01*
D68*
X185600000Y-27250000D02*
X186975000Y-27250000D01*
X187525000Y-27250000D02*
X195018000Y-27250000D01*
X154425000Y-27250000D02*
X156250000Y-27250000D01*
X156800000Y-27250000D02*
X158500000Y-27250000D01*
X185650000Y-30450000D02*
X186190000Y-30450000D01*
X187700000Y-28690000D02*
X187700000Y-28150000D01*
X186190000Y-30450000D02*
X187700000Y-28940000D01*
X187700000Y-28940000D02*
X187700000Y-28690000D01*
X184750000Y-29750000D02*
X184750000Y-28550000D01*
X117500000Y-27250000D02*
X122975000Y-27250000D01*
X122975000Y-27250000D02*
X123000000Y-27225000D01*
D70*
X128525000Y-27250000D02*
X127925000Y-27250000D01*
D68*
X127925000Y-27250000D02*
X127325000Y-27250000D01*
X125500000Y-27250000D02*
X127325000Y-27250000D01*
X125500000Y-27250000D02*
X123545001Y-27250000D01*
X127350000Y-35700000D02*
X126810000Y-35700000D01*
X122800000Y-31690000D02*
X122800000Y-28690000D01*
X126810000Y-35700000D02*
X122800000Y-31690000D01*
X122800000Y-28690000D02*
X122800000Y-28150000D01*
X146000000Y-68250000D02*
X146000000Y-67500000D01*
X146000000Y-72891000D02*
X146000000Y-68800000D01*
D67*
X173750000Y-70700000D02*
X173750000Y-71500000D01*
X172250000Y-69200000D02*
X173750000Y-70700000D01*
X171499999Y-66249999D02*
X172250000Y-67000000D01*
X159090001Y-66249999D02*
X171499999Y-66249999D01*
X156880000Y-68460000D02*
X159090001Y-66249999D01*
X172250000Y-67000000D02*
X172250000Y-69200000D01*
D68*
X159650000Y-47750000D02*
X159650000Y-47900000D01*
X159650000Y-47900000D02*
X159750000Y-48000000D01*
X159750000Y-50750000D02*
X159750000Y-48000000D01*
X160250000Y-51250000D02*
X159750000Y-50750000D01*
X131650000Y-50500000D02*
X133000000Y-50500000D01*
X129150000Y-50500000D02*
X129750000Y-50500000D01*
X180750000Y-50000000D02*
X178750000Y-50000000D01*
X183250000Y-50190000D02*
X182840000Y-50190000D01*
X182840000Y-50190000D02*
X182650000Y-50000000D01*
X183850000Y-50250000D02*
X183310000Y-50250000D01*
X183310000Y-50250000D02*
X183250000Y-50190000D01*
D69*
X137300000Y-41500000D02*
X137300000Y-42700000D01*
X137300000Y-42700000D02*
X137250000Y-42750000D01*
X135180000Y-41480000D02*
X137280000Y-41480000D01*
X137280000Y-41480000D02*
X137300000Y-41500000D01*
X137250000Y-45000000D02*
X137250000Y-46300000D01*
X137250000Y-43650000D02*
X137250000Y-45000000D01*
D68*
X176200000Y-47750000D02*
X176200000Y-48950000D01*
X176200000Y-48950000D02*
X176250000Y-49000000D01*
X176200000Y-47750000D02*
X177550000Y-47750000D01*
X177550000Y-47750000D02*
X177570000Y-47770000D01*
X176250000Y-49900000D02*
X175350000Y-49900000D01*
X175350000Y-49900000D02*
X175250000Y-50000000D01*
X176250000Y-51050000D02*
X176250000Y-49900000D01*
X128250000Y-28550000D02*
X128250000Y-28225000D01*
X128250000Y-28225000D02*
X128125000Y-28100000D01*
X128250000Y-28550000D02*
X128250000Y-31500000D01*
X128250000Y-33600000D02*
X128250000Y-34975000D01*
X128250000Y-47750000D02*
X128250000Y-48500000D01*
X184750000Y-48500000D02*
X184750000Y-48000000D01*
D69*
X152800000Y-43120000D02*
X153630000Y-43120000D01*
X153630000Y-43120000D02*
X154000000Y-42750000D01*
X154000000Y-42750000D02*
X154500000Y-42750000D01*
D68*
X149000000Y-41250000D02*
X149000000Y-41500000D01*
X149000000Y-41500000D02*
X149000000Y-42995000D01*
X148950000Y-41000000D02*
X148950000Y-41450000D01*
X148950000Y-41450000D02*
X149000000Y-41500000D01*
D69*
X149700000Y-42620000D02*
X149125000Y-42620000D01*
X149125000Y-42620000D02*
X149005000Y-42500000D01*
X149005000Y-42500000D02*
X149000000Y-42500000D01*
X149000000Y-42995000D02*
X149000000Y-42500000D01*
X149700000Y-43120000D02*
X149125000Y-43120000D01*
X149125000Y-43120000D02*
X149000000Y-42995000D01*
X148870000Y-43620000D02*
X148750000Y-43500000D01*
X148750000Y-43500000D02*
X148250000Y-43500000D01*
X149700000Y-43620000D02*
X148870000Y-43620000D01*
X161475000Y-55200000D02*
X161475000Y-56178537D01*
X161475000Y-56178537D02*
X161746454Y-56449991D01*
X163049999Y-50700001D02*
X162775000Y-50425002D01*
X162775000Y-50425002D02*
X162775000Y-49300000D01*
X163500000Y-51000000D02*
X163200001Y-50700001D01*
X163200001Y-50700001D02*
X163049999Y-50700001D01*
X163500000Y-51000000D02*
X164075000Y-50425000D01*
X164075000Y-50425000D02*
X164075000Y-49300000D01*
X164563892Y-56500000D02*
X164513883Y-56449991D01*
X164750000Y-56500000D02*
X164563892Y-56500000D01*
X164750000Y-56500000D02*
X164250000Y-56500000D01*
X165050000Y-56500000D02*
X164750000Y-56500000D01*
X164250000Y-56500000D02*
X164075000Y-56325000D01*
X164075000Y-56325000D02*
X164075000Y-55200000D01*
X165375000Y-55200000D02*
X165375000Y-56175000D01*
X165375000Y-56175000D02*
X165050000Y-56500000D01*
X162125000Y-53875000D02*
X162101231Y-53851231D01*
X162125000Y-55200000D02*
X162125000Y-53875000D01*
X164725000Y-49300000D02*
X164725000Y-48025000D01*
X164725000Y-48025000D02*
X164750000Y-48000000D01*
X167800000Y-50200000D02*
X167800000Y-42500000D01*
X163425000Y-55200000D02*
X163425000Y-54225000D01*
X163425000Y-54225000D02*
X163900000Y-53750000D01*
X163900000Y-53750000D02*
X164250000Y-53750000D01*
X164250000Y-53750000D02*
X167800000Y-50200000D01*
X166500000Y-42100000D02*
X167600000Y-41000000D01*
X167600000Y-41000000D02*
X167900000Y-41000000D01*
X166500000Y-47850000D02*
X166500000Y-42100000D01*
X166025000Y-49300000D02*
X166025000Y-48325000D01*
X166025000Y-48325000D02*
X166500000Y-47850000D01*
X157750000Y-47750000D02*
X158750000Y-47750000D01*
X153495000Y-42500000D02*
X153495000Y-42005000D01*
X153495000Y-42005000D02*
X153500000Y-42000000D01*
X152800000Y-42620000D02*
X153375000Y-42620000D01*
X153375000Y-42620000D02*
X153495000Y-42500000D01*
X166450000Y-50500000D02*
X165600000Y-50500000D01*
X165375000Y-49300000D02*
X165375000Y-50275000D01*
X165375000Y-50275000D02*
X165600000Y-50500000D01*
X166675000Y-49300000D02*
X166675000Y-50275000D01*
X166675000Y-50275000D02*
X166450000Y-50500000D01*
X165375000Y-47275000D02*
X165375000Y-49300000D01*
X165250000Y-47150000D02*
X165375000Y-47275000D01*
D68*
X149125000Y-44120000D02*
X148750000Y-44495000D01*
X148750000Y-44495000D02*
X148750000Y-44500000D01*
X148750000Y-44500000D02*
X148500000Y-44750000D01*
D67*
X148500000Y-46250000D02*
X148500000Y-56500000D01*
X148500000Y-44750000D02*
X148500000Y-46250000D01*
X148500000Y-46250000D02*
X149500000Y-46250000D01*
D69*
X149700000Y-44620000D02*
X148875000Y-44620000D01*
X148875000Y-44620000D02*
X148750000Y-44495000D01*
X149700000Y-44120000D02*
X149125000Y-44120000D01*
D67*
X149800000Y-56500000D02*
X148500000Y-56500000D01*
D68*
X140000820Y-69750000D02*
X140000820Y-70999180D01*
X140000820Y-70999180D02*
X140000000Y-71000000D01*
D67*
X152700000Y-56500000D02*
X154250000Y-56500000D01*
D68*
X151000000Y-51200000D02*
X151000000Y-52500000D01*
X151000000Y-51200000D02*
X155860000Y-51200000D01*
X155860000Y-51200000D02*
X155910000Y-51250000D01*
D69*
X161050000Y-52200000D02*
X162125000Y-51125000D01*
X162125000Y-51125000D02*
X162125000Y-49300000D01*
X158590000Y-52200000D02*
X161050000Y-52200000D01*
D68*
X178750000Y-71498600D02*
X176651400Y-71498600D01*
X176651400Y-71498600D02*
X176650000Y-71500000D01*
D67*
X176700000Y-68000000D02*
X176700000Y-71450000D01*
X176700000Y-71450000D02*
X176650000Y-71500000D01*
D68*
X178750000Y-68650000D02*
X178750000Y-70000000D01*
D71*
G36*
X183173000Y-53000000D02*
X183183006Y-53049410D01*
X183211447Y-53091035D01*
X183253841Y-53118315D01*
X183300000Y-53127000D01*
X183896618Y-53127000D01*
X183999430Y-53147820D01*
X185500570Y-53147820D01*
X185611219Y-53127000D01*
X186000000Y-53127000D01*
X186049410Y-53116994D01*
X186091035Y-53088553D01*
X186118315Y-53046159D01*
X186127000Y-53000000D01*
X186127000Y-52604130D01*
X186148010Y-52500380D01*
X186148010Y-51627000D01*
X188773000Y-51627000D01*
X188773000Y-55373000D01*
X186148010Y-55373000D01*
X186148010Y-54501900D01*
X186127000Y-54390242D01*
X186127000Y-54000000D01*
X186116994Y-53950590D01*
X186088553Y-53908965D01*
X186046159Y-53881685D01*
X186000000Y-53873000D01*
X185592123Y-53873000D01*
X185500570Y-53854460D01*
X183999430Y-53854460D01*
X183900899Y-53873000D01*
X183300000Y-53873000D01*
X183250590Y-53883006D01*
X183208965Y-53911447D01*
X183181685Y-53953841D01*
X183173000Y-54000000D01*
X183173000Y-55473000D01*
X179627000Y-55473000D01*
X179627000Y-52229817D01*
X179651441Y-52214090D01*
X179796431Y-52001890D01*
X179847440Y-51750000D01*
X179847440Y-51627000D01*
X183173000Y-51627000D01*
X183173000Y-53000000D01*
X183173000Y-53000000D01*
G37*
X183173000Y-53000000D02*
X183183006Y-53049410D01*
X183211447Y-53091035D01*
X183253841Y-53118315D01*
X183300000Y-53127000D01*
X183896618Y-53127000D01*
X183999430Y-53147820D01*
X185500570Y-53147820D01*
X185611219Y-53127000D01*
X186000000Y-53127000D01*
X186049410Y-53116994D01*
X186091035Y-53088553D01*
X186118315Y-53046159D01*
X186127000Y-53000000D01*
X186127000Y-52604130D01*
X186148010Y-52500380D01*
X186148010Y-51627000D01*
X188773000Y-51627000D01*
X188773000Y-55373000D01*
X186148010Y-55373000D01*
X186148010Y-54501900D01*
X186127000Y-54390242D01*
X186127000Y-54000000D01*
X186116994Y-53950590D01*
X186088553Y-53908965D01*
X186046159Y-53881685D01*
X186000000Y-53873000D01*
X185592123Y-53873000D01*
X185500570Y-53854460D01*
X183999430Y-53854460D01*
X183900899Y-53873000D01*
X183300000Y-53873000D01*
X183250590Y-53883006D01*
X183208965Y-53911447D01*
X183181685Y-53953841D01*
X183173000Y-54000000D01*
X183173000Y-55473000D01*
X179627000Y-55473000D01*
X179627000Y-52229817D01*
X179651441Y-52214090D01*
X179796431Y-52001890D01*
X179847440Y-51750000D01*
X179847440Y-51627000D01*
X183173000Y-51627000D01*
X183173000Y-53000000D01*
G36*
X126673000Y-53000000D02*
X126683006Y-53049410D01*
X126711447Y-53091035D01*
X126753841Y-53118315D01*
X126800000Y-53127000D01*
X127396618Y-53127000D01*
X127499430Y-53147820D01*
X129000570Y-53147820D01*
X129111219Y-53127000D01*
X129500000Y-53127000D01*
X129549410Y-53116994D01*
X129591035Y-53088553D01*
X129618315Y-53046159D01*
X129627000Y-53000000D01*
X129627000Y-52604130D01*
X129648010Y-52500380D01*
X129648010Y-51797440D01*
X130100000Y-51797440D01*
X130335317Y-51753162D01*
X130531378Y-51627000D01*
X130873317Y-51627000D01*
X131048110Y-51746431D01*
X131300000Y-51797440D01*
X132000000Y-51797440D01*
X132235317Y-51753162D01*
X132273000Y-51728914D01*
X132273000Y-55373000D01*
X129648010Y-55373000D01*
X129648010Y-54501900D01*
X129627000Y-54390242D01*
X129627000Y-54000000D01*
X129616994Y-53950590D01*
X129588553Y-53908965D01*
X129546159Y-53881685D01*
X129500000Y-53873000D01*
X129092123Y-53873000D01*
X129000570Y-53854460D01*
X127499430Y-53854460D01*
X127400899Y-53873000D01*
X126800000Y-53873000D01*
X126750590Y-53883006D01*
X126708965Y-53911447D01*
X126681685Y-53953841D01*
X126673000Y-54000000D01*
X126673000Y-55473000D01*
X123527000Y-55473000D01*
X123527000Y-51627000D01*
X126673000Y-51627000D01*
X126673000Y-53000000D01*
X126673000Y-53000000D01*
G37*
X126673000Y-53000000D02*
X126683006Y-53049410D01*
X126711447Y-53091035D01*
X126753841Y-53118315D01*
X126800000Y-53127000D01*
X127396618Y-53127000D01*
X127499430Y-53147820D01*
X129000570Y-53147820D01*
X129111219Y-53127000D01*
X129500000Y-53127000D01*
X129549410Y-53116994D01*
X129591035Y-53088553D01*
X129618315Y-53046159D01*
X129627000Y-53000000D01*
X129627000Y-52604130D01*
X129648010Y-52500380D01*
X129648010Y-51797440D01*
X130100000Y-51797440D01*
X130335317Y-51753162D01*
X130531378Y-51627000D01*
X130873317Y-51627000D01*
X131048110Y-51746431D01*
X131300000Y-51797440D01*
X132000000Y-51797440D01*
X132235317Y-51753162D01*
X132273000Y-51728914D01*
X132273000Y-55373000D01*
X129648010Y-55373000D01*
X129648010Y-54501900D01*
X129627000Y-54390242D01*
X129627000Y-54000000D01*
X129616994Y-53950590D01*
X129588553Y-53908965D01*
X129546159Y-53881685D01*
X129500000Y-53873000D01*
X129092123Y-53873000D01*
X129000570Y-53854460D01*
X127499430Y-53854460D01*
X127400899Y-53873000D01*
X126800000Y-53873000D01*
X126750590Y-53883006D01*
X126708965Y-53911447D01*
X126681685Y-53953841D01*
X126673000Y-54000000D01*
X126673000Y-55473000D01*
X123527000Y-55473000D01*
X123527000Y-51627000D01*
X126673000Y-51627000D01*
X126673000Y-53000000D01*
G36*
X194998000Y-63873000D02*
X189802606Y-63873000D01*
X187839803Y-61910197D01*
X187797789Y-61882334D01*
X187750000Y-61873000D01*
X185347000Y-61873000D01*
X185347000Y-61582112D01*
X191072710Y-61582112D01*
X191327480Y-62198703D01*
X191798816Y-62670862D01*
X192414961Y-62926708D01*
X193082112Y-62927290D01*
X193698703Y-62672520D01*
X194170862Y-62201184D01*
X194426708Y-61585039D01*
X194427290Y-60917888D01*
X194172520Y-60301297D01*
X193701184Y-59829138D01*
X193085039Y-59573292D01*
X192417888Y-59572710D01*
X191801297Y-59827480D01*
X191329138Y-60298816D01*
X191073292Y-60914961D01*
X191072710Y-61582112D01*
X185347000Y-61582112D01*
X185347000Y-58627000D01*
X189750000Y-58627000D01*
X189799410Y-58616994D01*
X189841035Y-58588553D01*
X189868315Y-58546159D01*
X189877000Y-58500000D01*
X189877000Y-38750000D01*
X189866994Y-38700590D01*
X189838553Y-38658965D01*
X189796159Y-38631685D01*
X189750000Y-38623000D01*
X185347000Y-38623000D01*
X185347000Y-36582112D01*
X190822710Y-36582112D01*
X191077480Y-37198703D01*
X191548816Y-37670862D01*
X192164961Y-37926708D01*
X192832112Y-37927290D01*
X193448703Y-37672520D01*
X193920862Y-37201184D01*
X194176708Y-36585039D01*
X194177290Y-35917888D01*
X193922520Y-35301297D01*
X193451184Y-34829138D01*
X192835039Y-34573292D01*
X192167888Y-34572710D01*
X191551297Y-34827480D01*
X191079138Y-35298816D01*
X190823292Y-35914961D01*
X190822710Y-36582112D01*
X185347000Y-36582112D01*
X185347000Y-33377000D01*
X187500000Y-33377000D01*
X187549410Y-33366994D01*
X187589803Y-33339803D01*
X190802606Y-30127000D01*
X194998000Y-30127000D01*
X194998000Y-63873000D01*
X194998000Y-63873000D01*
G37*
X194998000Y-63873000D02*
X189802606Y-63873000D01*
X187839803Y-61910197D01*
X187797789Y-61882334D01*
X187750000Y-61873000D01*
X185347000Y-61873000D01*
X185347000Y-61582112D01*
X191072710Y-61582112D01*
X191327480Y-62198703D01*
X191798816Y-62670862D01*
X192414961Y-62926708D01*
X193082112Y-62927290D01*
X193698703Y-62672520D01*
X194170862Y-62201184D01*
X194426708Y-61585039D01*
X194427290Y-60917888D01*
X194172520Y-60301297D01*
X193701184Y-59829138D01*
X193085039Y-59573292D01*
X192417888Y-59572710D01*
X191801297Y-59827480D01*
X191329138Y-60298816D01*
X191073292Y-60914961D01*
X191072710Y-61582112D01*
X185347000Y-61582112D01*
X185347000Y-58627000D01*
X189750000Y-58627000D01*
X189799410Y-58616994D01*
X189841035Y-58588553D01*
X189868315Y-58546159D01*
X189877000Y-58500000D01*
X189877000Y-38750000D01*
X189866994Y-38700590D01*
X189838553Y-38658965D01*
X189796159Y-38631685D01*
X189750000Y-38623000D01*
X185347000Y-38623000D01*
X185347000Y-36582112D01*
X190822710Y-36582112D01*
X191077480Y-37198703D01*
X191548816Y-37670862D01*
X192164961Y-37926708D01*
X192832112Y-37927290D01*
X193448703Y-37672520D01*
X193920862Y-37201184D01*
X194176708Y-36585039D01*
X194177290Y-35917888D01*
X193922520Y-35301297D01*
X193451184Y-34829138D01*
X192835039Y-34573292D01*
X192167888Y-34572710D01*
X191551297Y-34827480D01*
X191079138Y-35298816D01*
X190823292Y-35914961D01*
X190822710Y-36582112D01*
X185347000Y-36582112D01*
X185347000Y-33377000D01*
X187500000Y-33377000D01*
X187549410Y-33366994D01*
X187589803Y-33339803D01*
X190802606Y-30127000D01*
X194998000Y-30127000D01*
X194998000Y-63873000D01*
G36*
X121623000Y-32250000D02*
X121633006Y-32299410D01*
X121660197Y-32339803D01*
X126160197Y-36839803D01*
X126202211Y-36867666D01*
X126250000Y-36877000D01*
X127653000Y-36877000D01*
X127653000Y-38623000D01*
X122750000Y-38623000D01*
X122700590Y-38633006D01*
X122658965Y-38661447D01*
X122631685Y-38703841D01*
X122623000Y-38750000D01*
X122623000Y-58500000D01*
X122633006Y-58549410D01*
X122661447Y-58591035D01*
X122703841Y-58618315D01*
X122750000Y-58627000D01*
X127653000Y-58627000D01*
X127653000Y-61873000D01*
X126000000Y-61873000D01*
X125950590Y-61883006D01*
X125910197Y-61910197D01*
X124197394Y-63623000D01*
X117502000Y-63623000D01*
X117502000Y-61332112D01*
X118572710Y-61332112D01*
X118827480Y-61948703D01*
X119298816Y-62420862D01*
X119914961Y-62676708D01*
X120582112Y-62677290D01*
X121198703Y-62422520D01*
X121670862Y-61951184D01*
X121926708Y-61335039D01*
X121927290Y-60667888D01*
X121672520Y-60051297D01*
X121201184Y-59579138D01*
X120585039Y-59323292D01*
X119917888Y-59322710D01*
X119301297Y-59577480D01*
X118829138Y-60048816D01*
X118573292Y-60664961D01*
X118572710Y-61332112D01*
X117502000Y-61332112D01*
X117502000Y-36332112D01*
X118322710Y-36332112D01*
X118577480Y-36948703D01*
X119048816Y-37420862D01*
X119664961Y-37676708D01*
X120332112Y-37677290D01*
X120948703Y-37422520D01*
X121420862Y-36951184D01*
X121676708Y-36335039D01*
X121677290Y-35667888D01*
X121422520Y-35051297D01*
X120951184Y-34579138D01*
X120335039Y-34323292D01*
X119667888Y-34322710D01*
X119051297Y-34577480D01*
X118579138Y-35048816D01*
X118323292Y-35664961D01*
X118322710Y-36332112D01*
X117502000Y-36332112D01*
X117502000Y-30377000D01*
X121623000Y-30377000D01*
X121623000Y-32250000D01*
X121623000Y-32250000D01*
G37*
X121623000Y-32250000D02*
X121633006Y-32299410D01*
X121660197Y-32339803D01*
X126160197Y-36839803D01*
X126202211Y-36867666D01*
X126250000Y-36877000D01*
X127653000Y-36877000D01*
X127653000Y-38623000D01*
X122750000Y-38623000D01*
X122700590Y-38633006D01*
X122658965Y-38661447D01*
X122631685Y-38703841D01*
X122623000Y-38750000D01*
X122623000Y-58500000D01*
X122633006Y-58549410D01*
X122661447Y-58591035D01*
X122703841Y-58618315D01*
X122750000Y-58627000D01*
X127653000Y-58627000D01*
X127653000Y-61873000D01*
X126000000Y-61873000D01*
X125950590Y-61883006D01*
X125910197Y-61910197D01*
X124197394Y-63623000D01*
X117502000Y-63623000D01*
X117502000Y-61332112D01*
X118572710Y-61332112D01*
X118827480Y-61948703D01*
X119298816Y-62420862D01*
X119914961Y-62676708D01*
X120582112Y-62677290D01*
X121198703Y-62422520D01*
X121670862Y-61951184D01*
X121926708Y-61335039D01*
X121927290Y-60667888D01*
X121672520Y-60051297D01*
X121201184Y-59579138D01*
X120585039Y-59323292D01*
X119917888Y-59322710D01*
X119301297Y-59577480D01*
X118829138Y-60048816D01*
X118573292Y-60664961D01*
X118572710Y-61332112D01*
X117502000Y-61332112D01*
X117502000Y-36332112D01*
X118322710Y-36332112D01*
X118577480Y-36948703D01*
X119048816Y-37420862D01*
X119664961Y-37676708D01*
X120332112Y-37677290D01*
X120948703Y-37422520D01*
X121420862Y-36951184D01*
X121676708Y-36335039D01*
X121677290Y-35667888D01*
X121422520Y-35051297D01*
X120951184Y-34579138D01*
X120335039Y-34323292D01*
X119667888Y-34322710D01*
X119051297Y-34577480D01*
X118579138Y-35048816D01*
X118323292Y-35664961D01*
X118322710Y-36332112D01*
X117502000Y-36332112D01*
X117502000Y-30377000D01*
X121623000Y-30377000D01*
X121623000Y-32250000D01*
G36*
X157373000Y-33250000D02*
X157383006Y-33299410D01*
X157411447Y-33341035D01*
X157453841Y-33368315D01*
X157500000Y-33377000D01*
X184153000Y-33377000D01*
X184153000Y-38623000D01*
X174250000Y-38623000D01*
X174200590Y-38633006D01*
X174158965Y-38661447D01*
X174131685Y-38703841D01*
X174123000Y-38750000D01*
X174123000Y-58500000D01*
X174133006Y-58549410D01*
X174161447Y-58591035D01*
X174203841Y-58618315D01*
X174250000Y-58627000D01*
X184153000Y-58627000D01*
X184153000Y-61873000D01*
X128847000Y-61873000D01*
X128847000Y-58627000D01*
X141250000Y-58627000D01*
X141299410Y-58616994D01*
X141341035Y-58588553D01*
X141368315Y-58546159D01*
X141377000Y-58500000D01*
X141377000Y-38750000D01*
X146623000Y-38750000D01*
X146623000Y-58500000D01*
X146633006Y-58549410D01*
X146661447Y-58591035D01*
X146703841Y-58618315D01*
X146750000Y-58627000D01*
X168750000Y-58627000D01*
X168799410Y-58616994D01*
X168841035Y-58588553D01*
X168868315Y-58546159D01*
X168877000Y-58500000D01*
X168877000Y-38750000D01*
X168866994Y-38700590D01*
X168838553Y-38658965D01*
X168796159Y-38631685D01*
X168750000Y-38623000D01*
X146750000Y-38623000D01*
X146700590Y-38633006D01*
X146658965Y-38661447D01*
X146631685Y-38703841D01*
X146623000Y-38750000D01*
X141377000Y-38750000D01*
X141366994Y-38700590D01*
X141338553Y-38658965D01*
X141296159Y-38631685D01*
X141250000Y-38623000D01*
X128847000Y-38623000D01*
X128847000Y-36877000D01*
X129500000Y-36877000D01*
X129549410Y-36866994D01*
X129589803Y-36839803D01*
X130097494Y-36332112D01*
X142322710Y-36332112D01*
X142577480Y-36948703D01*
X143048816Y-37420862D01*
X143664961Y-37676708D01*
X144332112Y-37677290D01*
X144948703Y-37422520D01*
X145420862Y-36951184D01*
X145676708Y-36335039D01*
X145676710Y-36332112D01*
X169822710Y-36332112D01*
X170077480Y-36948703D01*
X170548816Y-37420862D01*
X171164961Y-37676708D01*
X171832112Y-37677290D01*
X172448703Y-37422520D01*
X172920862Y-36951184D01*
X173176708Y-36335039D01*
X173177290Y-35667888D01*
X172922520Y-35051297D01*
X172451184Y-34579138D01*
X171835039Y-34323292D01*
X171167888Y-34322710D01*
X170551297Y-34577480D01*
X170079138Y-35048816D01*
X169823292Y-35664961D01*
X169822710Y-36332112D01*
X145676710Y-36332112D01*
X145677290Y-35667888D01*
X145422520Y-35051297D01*
X144951184Y-34579138D01*
X144335039Y-34323292D01*
X143667888Y-34322710D01*
X143051297Y-34577480D01*
X142579138Y-35048816D01*
X142323292Y-35664961D01*
X142322710Y-36332112D01*
X130097494Y-36332112D01*
X133052606Y-33377000D01*
X155500000Y-33377000D01*
X155549410Y-33366994D01*
X155591035Y-33338553D01*
X155618315Y-33296159D01*
X155627000Y-33250000D01*
X155627000Y-28377000D01*
X157373000Y-28377000D01*
X157373000Y-33250000D01*
X157373000Y-33250000D01*
G37*
X157373000Y-33250000D02*
X157383006Y-33299410D01*
X157411447Y-33341035D01*
X157453841Y-33368315D01*
X157500000Y-33377000D01*
X184153000Y-33377000D01*
X184153000Y-38623000D01*
X174250000Y-38623000D01*
X174200590Y-38633006D01*
X174158965Y-38661447D01*
X174131685Y-38703841D01*
X174123000Y-38750000D01*
X174123000Y-58500000D01*
X174133006Y-58549410D01*
X174161447Y-58591035D01*
X174203841Y-58618315D01*
X174250000Y-58627000D01*
X184153000Y-58627000D01*
X184153000Y-61873000D01*
X128847000Y-61873000D01*
X128847000Y-58627000D01*
X141250000Y-58627000D01*
X141299410Y-58616994D01*
X141341035Y-58588553D01*
X141368315Y-58546159D01*
X141377000Y-58500000D01*
X141377000Y-38750000D01*
X146623000Y-38750000D01*
X146623000Y-58500000D01*
X146633006Y-58549410D01*
X146661447Y-58591035D01*
X146703841Y-58618315D01*
X146750000Y-58627000D01*
X168750000Y-58627000D01*
X168799410Y-58616994D01*
X168841035Y-58588553D01*
X168868315Y-58546159D01*
X168877000Y-58500000D01*
X168877000Y-38750000D01*
X168866994Y-38700590D01*
X168838553Y-38658965D01*
X168796159Y-38631685D01*
X168750000Y-38623000D01*
X146750000Y-38623000D01*
X146700590Y-38633006D01*
X146658965Y-38661447D01*
X146631685Y-38703841D01*
X146623000Y-38750000D01*
X141377000Y-38750000D01*
X141366994Y-38700590D01*
X141338553Y-38658965D01*
X141296159Y-38631685D01*
X141250000Y-38623000D01*
X128847000Y-38623000D01*
X128847000Y-36877000D01*
X129500000Y-36877000D01*
X129549410Y-36866994D01*
X129589803Y-36839803D01*
X130097494Y-36332112D01*
X142322710Y-36332112D01*
X142577480Y-36948703D01*
X143048816Y-37420862D01*
X143664961Y-37676708D01*
X144332112Y-37677290D01*
X144948703Y-37422520D01*
X145420862Y-36951184D01*
X145676708Y-36335039D01*
X145676710Y-36332112D01*
X169822710Y-36332112D01*
X170077480Y-36948703D01*
X170548816Y-37420862D01*
X171164961Y-37676708D01*
X171832112Y-37677290D01*
X172448703Y-37422520D01*
X172920862Y-36951184D01*
X173176708Y-36335039D01*
X173177290Y-35667888D01*
X172922520Y-35051297D01*
X172451184Y-34579138D01*
X171835039Y-34323292D01*
X171167888Y-34322710D01*
X170551297Y-34577480D01*
X170079138Y-35048816D01*
X169823292Y-35664961D01*
X169822710Y-36332112D01*
X145676710Y-36332112D01*
X145677290Y-35667888D01*
X145422520Y-35051297D01*
X144951184Y-34579138D01*
X144335039Y-34323292D01*
X143667888Y-34322710D01*
X143051297Y-34577480D01*
X142579138Y-35048816D01*
X142323292Y-35664961D01*
X142322710Y-36332112D01*
X130097494Y-36332112D01*
X133052606Y-33377000D01*
X155500000Y-33377000D01*
X155549410Y-33366994D01*
X155591035Y-33338553D01*
X155618315Y-33296159D01*
X155627000Y-33250000D01*
X155627000Y-28377000D01*
X157373000Y-28377000D01*
X157373000Y-33250000D01*
G36*
X194841142Y-18529963D02*
X194918408Y-18581592D01*
X194970037Y-18658858D01*
X194998000Y-18799441D01*
X194998000Y-23123000D01*
X117502000Y-23123000D01*
X117502000Y-21082112D01*
X118072710Y-21082112D01*
X118327480Y-21698703D01*
X118798816Y-22170862D01*
X119414961Y-22426708D01*
X120082112Y-22427290D01*
X120698703Y-22172520D01*
X121170862Y-21701184D01*
X121426708Y-21085039D01*
X121426710Y-21082112D01*
X154572710Y-21082112D01*
X154827480Y-21698703D01*
X155298816Y-22170862D01*
X155914961Y-22426708D01*
X156582112Y-22427290D01*
X157198703Y-22172520D01*
X157670862Y-21701184D01*
X157926708Y-21085039D01*
X157926710Y-21082112D01*
X190822710Y-21082112D01*
X191077480Y-21698703D01*
X191548816Y-22170862D01*
X192164961Y-22426708D01*
X192832112Y-22427290D01*
X193448703Y-22172520D01*
X193920862Y-21701184D01*
X194176708Y-21085039D01*
X194177290Y-20417888D01*
X193922520Y-19801297D01*
X193451184Y-19329138D01*
X192835039Y-19073292D01*
X192167888Y-19072710D01*
X191551297Y-19327480D01*
X191079138Y-19798816D01*
X190823292Y-20414961D01*
X190822710Y-21082112D01*
X157926710Y-21082112D01*
X157927290Y-20417888D01*
X157672520Y-19801297D01*
X157201184Y-19329138D01*
X156585039Y-19073292D01*
X155917888Y-19072710D01*
X155301297Y-19327480D01*
X154829138Y-19798816D01*
X154573292Y-20414961D01*
X154572710Y-21082112D01*
X121426710Y-21082112D01*
X121427290Y-20417888D01*
X121172520Y-19801297D01*
X120701184Y-19329138D01*
X120085039Y-19073292D01*
X119417888Y-19072710D01*
X118801297Y-19327480D01*
X118329138Y-19798816D01*
X118073292Y-20414961D01*
X118072710Y-21082112D01*
X117502000Y-21082112D01*
X117502000Y-18799441D01*
X117529963Y-18658858D01*
X117581592Y-18581592D01*
X117658858Y-18529963D01*
X117799441Y-18502000D01*
X194700559Y-18502000D01*
X194841142Y-18529963D01*
X194841142Y-18529963D01*
G37*
X194841142Y-18529963D02*
X194918408Y-18581592D01*
X194970037Y-18658858D01*
X194998000Y-18799441D01*
X194998000Y-23123000D01*
X117502000Y-23123000D01*
X117502000Y-21082112D01*
X118072710Y-21082112D01*
X118327480Y-21698703D01*
X118798816Y-22170862D01*
X119414961Y-22426708D01*
X120082112Y-22427290D01*
X120698703Y-22172520D01*
X121170862Y-21701184D01*
X121426708Y-21085039D01*
X121426710Y-21082112D01*
X154572710Y-21082112D01*
X154827480Y-21698703D01*
X155298816Y-22170862D01*
X155914961Y-22426708D01*
X156582112Y-22427290D01*
X157198703Y-22172520D01*
X157670862Y-21701184D01*
X157926708Y-21085039D01*
X157926710Y-21082112D01*
X190822710Y-21082112D01*
X191077480Y-21698703D01*
X191548816Y-22170862D01*
X192164961Y-22426708D01*
X192832112Y-22427290D01*
X193448703Y-22172520D01*
X193920862Y-21701184D01*
X194176708Y-21085039D01*
X194177290Y-20417888D01*
X193922520Y-19801297D01*
X193451184Y-19329138D01*
X192835039Y-19073292D01*
X192167888Y-19072710D01*
X191551297Y-19327480D01*
X191079138Y-19798816D01*
X190823292Y-20414961D01*
X190822710Y-21082112D01*
X157926710Y-21082112D01*
X157927290Y-20417888D01*
X157672520Y-19801297D01*
X157201184Y-19329138D01*
X156585039Y-19073292D01*
X155917888Y-19072710D01*
X155301297Y-19327480D01*
X154829138Y-19798816D01*
X154573292Y-20414961D01*
X154572710Y-21082112D01*
X121426710Y-21082112D01*
X121427290Y-20417888D01*
X121172520Y-19801297D01*
X120701184Y-19329138D01*
X120085039Y-19073292D01*
X119417888Y-19072710D01*
X118801297Y-19327480D01*
X118329138Y-19798816D01*
X118073292Y-20414961D01*
X118072710Y-21082112D01*
X117502000Y-21082112D01*
X117502000Y-18799441D01*
X117529963Y-18658858D01*
X117581592Y-18581592D01*
X117658858Y-18529963D01*
X117799441Y-18502000D01*
X194700559Y-18502000D01*
X194841142Y-18529963D01*
G36*
X121623000Y-24373000D02*
X117502000Y-24373000D01*
X117502000Y-22877000D01*
X121623000Y-22877000D01*
X121623000Y-24373000D01*
X121623000Y-24373000D01*
G37*
X121623000Y-24373000D02*
X117502000Y-24373000D01*
X117502000Y-22877000D01*
X121623000Y-22877000D01*
X121623000Y-24373000D01*
G36*
X194998000Y-24373000D02*
X190877000Y-24373000D01*
X190877000Y-23127000D01*
X194998000Y-23127000D01*
X194998000Y-24373000D01*
X194998000Y-24373000D01*
G37*
X194998000Y-24373000D02*
X190877000Y-24373000D01*
X190877000Y-23127000D01*
X194998000Y-23127000D01*
X194998000Y-24373000D01*
G36*
X157373000Y-26123000D02*
X155627000Y-26123000D01*
X155627000Y-23127000D01*
X157373000Y-23127000D01*
X157373000Y-26123000D01*
X157373000Y-26123000D01*
G37*
X157373000Y-26123000D02*
X155627000Y-26123000D01*
X155627000Y-23127000D01*
X157373000Y-23127000D01*
X157373000Y-26123000D01*
G36*
X155373000Y-41623000D02*
X154130842Y-41623000D01*
X154116680Y-41588725D01*
X153912350Y-41384039D01*
X153645244Y-41273126D01*
X153356025Y-41272874D01*
X153088725Y-41383320D01*
X152884039Y-41587650D01*
X152869360Y-41623000D01*
X152250000Y-41623000D01*
X152200590Y-41633006D01*
X152158965Y-41661447D01*
X152131685Y-41703841D01*
X152123000Y-41750000D01*
X152123000Y-42228811D01*
X152073936Y-42300619D01*
X152039635Y-42470000D01*
X152039635Y-42770000D01*
X152059142Y-42873672D01*
X152039635Y-42970000D01*
X152039635Y-43270000D01*
X152059142Y-43373672D01*
X152039635Y-43470000D01*
X152039635Y-43770000D01*
X152059142Y-43873672D01*
X152039635Y-43970000D01*
X152039635Y-44270000D01*
X152059142Y-44373672D01*
X152039635Y-44470000D01*
X152039635Y-44770000D01*
X152069409Y-44928237D01*
X152123000Y-45011519D01*
X152123000Y-46697394D01*
X151947394Y-46873000D01*
X150627000Y-46873000D01*
X150627000Y-42000000D01*
X150616994Y-41950590D01*
X150588553Y-41908965D01*
X150546159Y-41881685D01*
X150500000Y-41873000D01*
X149627000Y-41873000D01*
X149627000Y-41454600D01*
X149651064Y-41419381D01*
X149685365Y-41250000D01*
X149685365Y-40750000D01*
X149655591Y-40591763D01*
X149627000Y-40547332D01*
X149627000Y-40377000D01*
X155373000Y-40377000D01*
X155373000Y-41623000D01*
X155373000Y-41623000D01*
G37*
X155373000Y-41623000D02*
X154130842Y-41623000D01*
X154116680Y-41588725D01*
X153912350Y-41384039D01*
X153645244Y-41273126D01*
X153356025Y-41272874D01*
X153088725Y-41383320D01*
X152884039Y-41587650D01*
X152869360Y-41623000D01*
X152250000Y-41623000D01*
X152200590Y-41633006D01*
X152158965Y-41661447D01*
X152131685Y-41703841D01*
X152123000Y-41750000D01*
X152123000Y-42228811D01*
X152073936Y-42300619D01*
X152039635Y-42470000D01*
X152039635Y-42770000D01*
X152059142Y-42873672D01*
X152039635Y-42970000D01*
X152039635Y-43270000D01*
X152059142Y-43373672D01*
X152039635Y-43470000D01*
X152039635Y-43770000D01*
X152059142Y-43873672D01*
X152039635Y-43970000D01*
X152039635Y-44270000D01*
X152059142Y-44373672D01*
X152039635Y-44470000D01*
X152039635Y-44770000D01*
X152069409Y-44928237D01*
X152123000Y-45011519D01*
X152123000Y-46697394D01*
X151947394Y-46873000D01*
X150627000Y-46873000D01*
X150627000Y-42000000D01*
X150616994Y-41950590D01*
X150588553Y-41908965D01*
X150546159Y-41881685D01*
X150500000Y-41873000D01*
X149627000Y-41873000D01*
X149627000Y-41454600D01*
X149651064Y-41419381D01*
X149685365Y-41250000D01*
X149685365Y-40750000D01*
X149655591Y-40591763D01*
X149627000Y-40547332D01*
X149627000Y-40377000D01*
X155373000Y-40377000D01*
X155373000Y-41623000D01*
G36*
X157167492Y-48620140D02*
X157544821Y-48776821D01*
X157953387Y-48777178D01*
X158185897Y-48681107D01*
X158261615Y-48732843D01*
X158550000Y-48791242D01*
X158853000Y-48791242D01*
X158853000Y-49333758D01*
X158275000Y-49333758D01*
X158005590Y-49384451D01*
X157758154Y-49543672D01*
X157592157Y-49786615D01*
X157533758Y-50075000D01*
X157533758Y-50525000D01*
X157584451Y-50794410D01*
X157743672Y-51041846D01*
X157873000Y-51130213D01*
X157873000Y-51369770D01*
X157758154Y-51443672D01*
X157592157Y-51686615D01*
X157533758Y-51975000D01*
X157533758Y-52425000D01*
X157584451Y-52694410D01*
X157743672Y-52941846D01*
X157986615Y-53107843D01*
X158275000Y-53166242D01*
X158905000Y-53166242D01*
X159174410Y-53115549D01*
X159273168Y-53052000D01*
X160873000Y-53052000D01*
X160873000Y-53623000D01*
X158854431Y-53623000D01*
X158844553Y-53616400D01*
X158375000Y-53523000D01*
X157445330Y-53523000D01*
X157375000Y-53508758D01*
X156125000Y-53508758D01*
X155855590Y-53559451D01*
X155756832Y-53623000D01*
X155567345Y-53623000D01*
X155540549Y-53480590D01*
X155482744Y-53390759D01*
X155543267Y-53378720D01*
X155834275Y-53184275D01*
X155852308Y-53166242D01*
X156225000Y-53166242D01*
X156433553Y-53127000D01*
X156500000Y-53127000D01*
X156549410Y-53116994D01*
X156591035Y-53088553D01*
X156618315Y-53046159D01*
X156620529Y-53034394D01*
X156741846Y-52956328D01*
X156907843Y-52713385D01*
X156966242Y-52425000D01*
X156966242Y-51975000D01*
X156917474Y-51715823D01*
X156966242Y-51475000D01*
X156966242Y-51025000D01*
X156917474Y-50765823D01*
X156966242Y-50525000D01*
X156966242Y-50075000D01*
X156915549Y-49805590D01*
X156756328Y-49558154D01*
X156619899Y-49464935D01*
X156616994Y-49450590D01*
X156588553Y-49408965D01*
X156546159Y-49381685D01*
X156500000Y-49373000D01*
X156418784Y-49373000D01*
X156225000Y-49333758D01*
X155595000Y-49333758D01*
X155386447Y-49373000D01*
X155120114Y-49373000D01*
X155038385Y-49317157D01*
X154750000Y-49258758D01*
X154250000Y-49258758D01*
X153980590Y-49309451D01*
X153962793Y-49320903D01*
X153906328Y-49233154D01*
X153663385Y-49067157D01*
X153527000Y-49039539D01*
X153527000Y-48527000D01*
X157074514Y-48527000D01*
X157167492Y-48620140D01*
X157167492Y-48620140D01*
G37*
X157167492Y-48620140D02*
X157544821Y-48776821D01*
X157953387Y-48777178D01*
X158185897Y-48681107D01*
X158261615Y-48732843D01*
X158550000Y-48791242D01*
X158853000Y-48791242D01*
X158853000Y-49333758D01*
X158275000Y-49333758D01*
X158005590Y-49384451D01*
X157758154Y-49543672D01*
X157592157Y-49786615D01*
X157533758Y-50075000D01*
X157533758Y-50525000D01*
X157584451Y-50794410D01*
X157743672Y-51041846D01*
X157873000Y-51130213D01*
X157873000Y-51369770D01*
X157758154Y-51443672D01*
X157592157Y-51686615D01*
X157533758Y-51975000D01*
X157533758Y-52425000D01*
X157584451Y-52694410D01*
X157743672Y-52941846D01*
X157986615Y-53107843D01*
X158275000Y-53166242D01*
X158905000Y-53166242D01*
X159174410Y-53115549D01*
X159273168Y-53052000D01*
X160873000Y-53052000D01*
X160873000Y-53623000D01*
X158854431Y-53623000D01*
X158844553Y-53616400D01*
X158375000Y-53523000D01*
X157445330Y-53523000D01*
X157375000Y-53508758D01*
X156125000Y-53508758D01*
X155855590Y-53559451D01*
X155756832Y-53623000D01*
X155567345Y-53623000D01*
X155540549Y-53480590D01*
X155482744Y-53390759D01*
X155543267Y-53378720D01*
X155834275Y-53184275D01*
X155852308Y-53166242D01*
X156225000Y-53166242D01*
X156433553Y-53127000D01*
X156500000Y-53127000D01*
X156549410Y-53116994D01*
X156591035Y-53088553D01*
X156618315Y-53046159D01*
X156620529Y-53034394D01*
X156741846Y-52956328D01*
X156907843Y-52713385D01*
X156966242Y-52425000D01*
X156966242Y-51975000D01*
X156917474Y-51715823D01*
X156966242Y-51475000D01*
X156966242Y-51025000D01*
X156917474Y-50765823D01*
X156966242Y-50525000D01*
X156966242Y-50075000D01*
X156915549Y-49805590D01*
X156756328Y-49558154D01*
X156619899Y-49464935D01*
X156616994Y-49450590D01*
X156588553Y-49408965D01*
X156546159Y-49381685D01*
X156500000Y-49373000D01*
X156418784Y-49373000D01*
X156225000Y-49333758D01*
X155595000Y-49333758D01*
X155386447Y-49373000D01*
X155120114Y-49373000D01*
X155038385Y-49317157D01*
X154750000Y-49258758D01*
X154250000Y-49258758D01*
X153980590Y-49309451D01*
X153962793Y-49320903D01*
X153906328Y-49233154D01*
X153663385Y-49067157D01*
X153527000Y-49039539D01*
X153527000Y-48527000D01*
X157074514Y-48527000D01*
X157167492Y-48620140D01*
G36*
X127703000Y-42100000D02*
X127740615Y-42289103D01*
X127740615Y-42425000D01*
X127766903Y-42564708D01*
X127849470Y-42693020D01*
X127975453Y-42779101D01*
X128125000Y-42809385D01*
X128375000Y-42809385D01*
X128514708Y-42783097D01*
X128643020Y-42700530D01*
X128729101Y-42574547D01*
X128759385Y-42425000D01*
X128759385Y-42289103D01*
X128797000Y-42100000D01*
X128797000Y-41377000D01*
X129873000Y-41377000D01*
X129873000Y-41990615D01*
X129375000Y-41990615D01*
X129235292Y-42016903D01*
X129106980Y-42099470D01*
X129020899Y-42225453D01*
X128990615Y-42375000D01*
X128990615Y-42625000D01*
X129014999Y-42754589D01*
X128990615Y-42875000D01*
X128990615Y-43125000D01*
X129016903Y-43264708D01*
X129099470Y-43393020D01*
X129225453Y-43479101D01*
X129375000Y-43509385D01*
X129873000Y-43509385D01*
X129873000Y-44623000D01*
X128797000Y-44623000D01*
X128797000Y-44250000D01*
X128759385Y-44060897D01*
X128759385Y-43575000D01*
X128733097Y-43435292D01*
X128650530Y-43306980D01*
X128524547Y-43220899D01*
X128375000Y-43190615D01*
X128125000Y-43190615D01*
X127985292Y-43216903D01*
X127856980Y-43299470D01*
X127770899Y-43425453D01*
X127740615Y-43575000D01*
X127740615Y-44060897D01*
X127703000Y-44250000D01*
X127703000Y-44623000D01*
X126627000Y-44623000D01*
X126627000Y-44009385D01*
X127125000Y-44009385D01*
X127264708Y-43983097D01*
X127393020Y-43900530D01*
X127479101Y-43774547D01*
X127509385Y-43625000D01*
X127509385Y-43375000D01*
X127485001Y-43245411D01*
X127509385Y-43125000D01*
X127509385Y-42875000D01*
X127485001Y-42745411D01*
X127509385Y-42625000D01*
X127509385Y-42375000D01*
X127483097Y-42235292D01*
X127400530Y-42106980D01*
X127274547Y-42020899D01*
X127125000Y-41990615D01*
X126627000Y-41990615D01*
X126627000Y-41377000D01*
X127703000Y-41377000D01*
X127703000Y-42100000D01*
X127703000Y-42100000D01*
G37*
X127703000Y-42100000D02*
X127740615Y-42289103D01*
X127740615Y-42425000D01*
X127766903Y-42564708D01*
X127849470Y-42693020D01*
X127975453Y-42779101D01*
X128125000Y-42809385D01*
X128375000Y-42809385D01*
X128514708Y-42783097D01*
X128643020Y-42700530D01*
X128729101Y-42574547D01*
X128759385Y-42425000D01*
X128759385Y-42289103D01*
X128797000Y-42100000D01*
X128797000Y-41377000D01*
X129873000Y-41377000D01*
X129873000Y-41990615D01*
X129375000Y-41990615D01*
X129235292Y-42016903D01*
X129106980Y-42099470D01*
X129020899Y-42225453D01*
X128990615Y-42375000D01*
X128990615Y-42625000D01*
X129014999Y-42754589D01*
X128990615Y-42875000D01*
X128990615Y-43125000D01*
X129016903Y-43264708D01*
X129099470Y-43393020D01*
X129225453Y-43479101D01*
X129375000Y-43509385D01*
X129873000Y-43509385D01*
X129873000Y-44623000D01*
X128797000Y-44623000D01*
X128797000Y-44250000D01*
X128759385Y-44060897D01*
X128759385Y-43575000D01*
X128733097Y-43435292D01*
X128650530Y-43306980D01*
X128524547Y-43220899D01*
X128375000Y-43190615D01*
X128125000Y-43190615D01*
X127985292Y-43216903D01*
X127856980Y-43299470D01*
X127770899Y-43425453D01*
X127740615Y-43575000D01*
X127740615Y-44060897D01*
X127703000Y-44250000D01*
X127703000Y-44623000D01*
X126627000Y-44623000D01*
X126627000Y-44009385D01*
X127125000Y-44009385D01*
X127264708Y-43983097D01*
X127393020Y-43900530D01*
X127479101Y-43774547D01*
X127509385Y-43625000D01*
X127509385Y-43375000D01*
X127485001Y-43245411D01*
X127509385Y-43125000D01*
X127509385Y-42875000D01*
X127485001Y-42745411D01*
X127509385Y-42625000D01*
X127509385Y-42375000D01*
X127483097Y-42235292D01*
X127400530Y-42106980D01*
X127274547Y-42020899D01*
X127125000Y-41990615D01*
X126627000Y-41990615D01*
X126627000Y-41377000D01*
X127703000Y-41377000D01*
X127703000Y-42100000D01*
G36*
X184203000Y-41750000D02*
X184240615Y-41939103D01*
X184240615Y-42425000D01*
X184266903Y-42564708D01*
X184349470Y-42693020D01*
X184475453Y-42779101D01*
X184625000Y-42809385D01*
X184875000Y-42809385D01*
X185014708Y-42783097D01*
X185143020Y-42700530D01*
X185229101Y-42574547D01*
X185259385Y-42425000D01*
X185259385Y-41939103D01*
X185297000Y-41750000D01*
X185297000Y-41377000D01*
X186373000Y-41377000D01*
X186373000Y-41990615D01*
X185875000Y-41990615D01*
X185735292Y-42016903D01*
X185606980Y-42099470D01*
X185520899Y-42225453D01*
X185490615Y-42375000D01*
X185490615Y-42625000D01*
X185514999Y-42754589D01*
X185490615Y-42875000D01*
X185490615Y-43125000D01*
X185516903Y-43264708D01*
X185599470Y-43393020D01*
X185725453Y-43479101D01*
X185875000Y-43509385D01*
X186373000Y-43509385D01*
X186373000Y-44623000D01*
X185297000Y-44623000D01*
X185297000Y-44500000D01*
X185255362Y-44290672D01*
X185252000Y-44285640D01*
X185252000Y-44261468D01*
X185259385Y-44225000D01*
X185259385Y-43575000D01*
X185233097Y-43435292D01*
X185150530Y-43306980D01*
X185024547Y-43220899D01*
X184875000Y-43190615D01*
X184625000Y-43190615D01*
X184485292Y-43216903D01*
X184356980Y-43299470D01*
X184270899Y-43425453D01*
X184240615Y-43575000D01*
X184240615Y-44225000D01*
X184248000Y-44264248D01*
X184248000Y-44285640D01*
X184244638Y-44290672D01*
X184203000Y-44500000D01*
X184203000Y-44623000D01*
X183127000Y-44623000D01*
X183127000Y-44009385D01*
X183625000Y-44009385D01*
X183764708Y-43983097D01*
X183893020Y-43900530D01*
X183979101Y-43774547D01*
X184009385Y-43625000D01*
X184009385Y-43375000D01*
X183985001Y-43245411D01*
X184009385Y-43125000D01*
X184009385Y-42875000D01*
X183985001Y-42745411D01*
X184009385Y-42625000D01*
X184009385Y-42375000D01*
X183983097Y-42235292D01*
X183900530Y-42106980D01*
X183774547Y-42020899D01*
X183625000Y-41990615D01*
X183127000Y-41990615D01*
X183127000Y-41377000D01*
X184203000Y-41377000D01*
X184203000Y-41750000D01*
X184203000Y-41750000D01*
G37*
X184203000Y-41750000D02*
X184240615Y-41939103D01*
X184240615Y-42425000D01*
X184266903Y-42564708D01*
X184349470Y-42693020D01*
X184475453Y-42779101D01*
X184625000Y-42809385D01*
X184875000Y-42809385D01*
X185014708Y-42783097D01*
X185143020Y-42700530D01*
X185229101Y-42574547D01*
X185259385Y-42425000D01*
X185259385Y-41939103D01*
X185297000Y-41750000D01*
X185297000Y-41377000D01*
X186373000Y-41377000D01*
X186373000Y-41990615D01*
X185875000Y-41990615D01*
X185735292Y-42016903D01*
X185606980Y-42099470D01*
X185520899Y-42225453D01*
X185490615Y-42375000D01*
X185490615Y-42625000D01*
X185514999Y-42754589D01*
X185490615Y-42875000D01*
X185490615Y-43125000D01*
X185516903Y-43264708D01*
X185599470Y-43393020D01*
X185725453Y-43479101D01*
X185875000Y-43509385D01*
X186373000Y-43509385D01*
X186373000Y-44623000D01*
X185297000Y-44623000D01*
X185297000Y-44500000D01*
X185255362Y-44290672D01*
X185252000Y-44285640D01*
X185252000Y-44261468D01*
X185259385Y-44225000D01*
X185259385Y-43575000D01*
X185233097Y-43435292D01*
X185150530Y-43306980D01*
X185024547Y-43220899D01*
X184875000Y-43190615D01*
X184625000Y-43190615D01*
X184485292Y-43216903D01*
X184356980Y-43299470D01*
X184270899Y-43425453D01*
X184240615Y-43575000D01*
X184240615Y-44225000D01*
X184248000Y-44264248D01*
X184248000Y-44285640D01*
X184244638Y-44290672D01*
X184203000Y-44500000D01*
X184203000Y-44623000D01*
X183127000Y-44623000D01*
X183127000Y-44009385D01*
X183625000Y-44009385D01*
X183764708Y-43983097D01*
X183893020Y-43900530D01*
X183979101Y-43774547D01*
X184009385Y-43625000D01*
X184009385Y-43375000D01*
X183985001Y-43245411D01*
X184009385Y-43125000D01*
X184009385Y-42875000D01*
X183985001Y-42745411D01*
X184009385Y-42625000D01*
X184009385Y-42375000D01*
X183983097Y-42235292D01*
X183900530Y-42106980D01*
X183774547Y-42020899D01*
X183625000Y-41990615D01*
X183127000Y-41990615D01*
X183127000Y-41377000D01*
X184203000Y-41377000D01*
X184203000Y-41750000D01*
M02*
