<?xml version="1.0" standalone="no"?>
 <!DOCTYPE svg PUBLIC "-//W3C//DTD SVG 1.1//EN" 
 "http://www.w3.org/Graphics/SVG/1.1/DTD/svg11.dtd"> 
<svg xmlns="http://www.w3.org/2000/svg" version="1.1" 
    width="8.6614cm" height="6.1087cm" viewBox="0 0 34100 24050 ">
<title>SVG Picture created as vna_r1_demod-B.Fab.svg date 2018/05/20 15:43:41 </title>
  <desc>Picture generated by PCBNEW </desc>
<g style="fill:#000000; fill-opacity:1;stroke:#000000; stroke-opacity:1;
stroke-linecap:round; stroke-linejoin:round; "
 transform="translate(0 0) scale(1 1)">
</g>
<g style="fill:#840000; fill-opacity:0.0; 
stroke:#840000; stroke-width:-0.000393701; stroke-opacity:1; 
stroke-linecap:round; stroke-linejoin:round;">
</g>
<g style="fill:#840000; fill-opacity:0.0; 
stroke:#840000; stroke-width:78.7402; stroke-opacity:1; 
stroke-linecap:round; stroke-linejoin:round;">
<circle cx="12182.3" cy="7937.01" r="492.126" /> 
<circle cx="2733.5" cy="7937.01" r="531.496" /> 
<circle cx="2635.08" cy="1933.07" r="531.496" /> 
<circle cx="17005.2" cy="1933.07" r="492.126" /> 
<circle cx="31276.8" cy="1933.07" r="531.496" /> 
<circle cx="31276.8" cy="8035.43" r="511.811" /> 
<circle cx="23009.1" cy="7937.01" r="492.126" /> 
<path d="M1552 5673
L1552 9019
" />
<path d="M3422 5673
L1552 5673
" />
<path d="M3422 6460
L3422 5673
" />
<path d="M3816 6854
L3422 6460
" />
<path d="M16709 6854
L3816 6854
" />
<path d="M16709 2917
L16709 6854
" />
<path d="M3422 2917
L16709 2917
" />
<path d="M3422 3409
L3422 2917
" />
<path d="M1552 3409
L3422 3409
" />
<path d="M1552 1145
L1552 3409
" />
<path d="M1847.68 850.394 A295.276 295.276 0.0 0 0 1552.4 1145.67 " />
<path d="M32162 850
L1847 850
" />
<path d="M32457.9 1145.67 A295.276 295.276 0.0 0 0 32162.6 850.394 " />
<path d="M32457 3409
L32457 1145
" />
<path d="M30587 3409
L32457 3409
" />
<path d="M30587 2917
L30587 3409
" />
<path d="M17497 2917
L30587 2917
" />
<path d="M17497 6854
L17497 2917
" />
<path d="M29308 6854
L17497 6854
" />
<path d="M30587 5574
L29308 6854
" />
<path d="M32457 5574
L30587 5574
" />
<path d="M32457 9019
L32457 5574
" />
<path d="M1552 9019
L32457 9019
" />
</g>
<g style="fill:#C2C200; fill-opacity:0.0; 
stroke:#C2C200; stroke-width:78.7402; stroke-opacity:1; 
stroke-linecap:round; stroke-linejoin:round;">
</g>
<g style="fill:#C2C200; fill-opacity:0.0; 
stroke:#C2C200; stroke-width:59.0551; stroke-opacity:1; 
stroke-linecap:round; stroke-linejoin:round;">
<path d="M19505 4059
L18324 4059
" />
<path d="M19505 3212
L19505 4059
" />
<path d="M26572 3212
L19505 3212
" />
<path d="M26572 4059
L26572 3212
" />
<path d="M27753 4059
L26572 4059
" />
<path d="M27753 4925
L27753 4059
" />
<path d="M26591 4925
L27753 4925
" />
<path d="M26591 5771
L26591 4925
" />
<path d="M26572 5771
L26591 5771
" />
<path d="M19505 5771
L26572 5771
" />
<path d="M19505 4925
L19505 5771
" />
<path d="M18324 4925
L19505 4925
" />
<path d="M18324 4905
L18324 4925
" />
<path d="M18324 4059
L18324 4905
" />
<path d="M7635 4059
L7635 3212
" />
<path d="M6453 4059
L7635 4059
" />
<path d="M6453 4078
L6453 4059
" />
<path d="M6453 4925
L6453 4078
" />
<path d="M7635 4925
L6453 4925
" />
<path d="M7635 5771
L7635 4925
" />
<path d="M14702 5771
L7635 5771
" />
<path d="M14702 4925
L14702 5771
" />
<path d="M15883 4925
L14702 4925
" />
<path d="M15883 4059
L15883 4925
" />
<path d="M14702 4059
L15883 4059
" />
<path d="M14702 3212
L14702 4059
" />
<path d="M7635 3212
L14702 3212
" />
<path d="M32162 850
L1847 850
" />
<path d="M32457 22405
L32457 1145
" />
<path d="M1847 22700
L32162 22700
" />
<path d="M1552 1145
L1552 22405
" />
<path d="M32457.9 1145.67 A295.276 295.276 0.0 0 0 32162.6 850.394 " />
<path d="M32162.6 22700.8 A295.276 295.276 0.0 0 0 32457.9 22405.5 " />
<path d="M1552.4 22405.5 A295.276 295.276 0.0 0 0 1847.68 22700.8 " />
<path d="M1847.68 850.394 A295.276 295.276 0.0 0 0 1552.4 1145.67 " />
</g>
<g style="fill:#840000; fill-opacity:0.0; 
stroke:#840000; stroke-width:59.0551; stroke-opacity:1; 
stroke-linecap:round; stroke-linejoin:round;">
<path d="M26246 11025
L26332 10903
" />
<path d="M26393 11025
L26393 10769
L26295 10769
L26271 10781
L26258 10793
L26246 10818
L26246 10854
L26258 10878
L26271 10891
L26295 10903
L26393 10903
" />
<path d="M26198 11049
L26003 11049
" />
<path d="M25954 11013
L25917 11025
L25856 11025
L25832 11013
L25820 11000
L25808 10976
L25808 10952
L25820 10927
L25832 10915
L25856 10903
L25905 10891
L25929 10878
L25942 10866
L25954 10842
L25954 10818
L25942 10793
L25929 10781
L25905 10769
L25844 10769
L25808 10781
" />
<path d="M25698 11025
L25698 10854
" />
<path d="M25698 10878
L25686 10866
L25661 10854
L25625 10854
L25600 10866
L25588 10891
L25588 11025
" />
<path d="M25588 10891
L25576 10866
L25552 10854
L25515 10854
L25491 10866
L25479 10891
L25479 11025
" />
<path d="M25247 11025
L25247 10891
L25259 10866
L25284 10854
L25332 10854
L25357 10866
" />
<path d="M25247 11013
L25271 11025
L25332 11025
L25357 11013
L25369 10988
L25369 10964
L25357 10939
L25332 10927
L25271 10927
L25247 10915
" />
<path d="M25089 11025
L25113 11013
L25125 10988
L25125 10769
" />
<path d="M24955 11025
L24979 11013
L24991 10988
L24991 10769
" />
<path d="M26522 11000
L26534 11013
L26571 11025
L26595 11025
L26632 11013
L26656 10988
L26668 10964
L26680 10915
L26680 10878
L26668 10830
L26656 10805
L26632 10781
L26595 10769
L26571 10769
L26534 10781
L26522 10793
" />
<path d="M26473 11049
L26278 11049
" />
<path d="M26229 11013
L26193 11025
L26132 11025
L26108 11013
L26095 11000
L26083 10976
L26083 10952
L26095 10927
L26108 10915
L26132 10903
L26181 10891
L26205 10878
L26217 10866
L26229 10842
L26229 10818
L26217 10793
L26205 10781
L26181 10769
L26120 10769
L26083 10781
" />
<path d="M25974 11025
L25974 10854
" />
<path d="M25974 10878
L25961 10866
L25937 10854
L25900 10854
L25876 10866
L25864 10891
L25864 11025
" />
<path d="M25864 10891
L25852 10866
L25827 10854
L25791 10854
L25766 10866
L25754 10891
L25754 11025
" />
<path d="M25523 11025
L25523 10891
L25535 10866
L25559 10854
L25608 10854
L25632 10866
" />
<path d="M25523 11013
L25547 11025
L25608 11025
L25632 11013
L25645 10988
L25645 10964
L25632 10939
L25608 10927
L25547 10927
L25523 10915
" />
<path d="M25364 11025
L25389 11013
L25401 10988
L25401 10769
" />
<path d="M25230 11025
L25255 11013
L25267 10988
L25267 10769
" />
<path d="M5920 12770
L5920 12648
L5664 12648
" />
<path d="M5944 12794
L5944 12989
" />
<path d="M5907 13038
L5920 13074
L5920 13135
L5907 13160
L5895 13172
L5871 13184
L5847 13184
L5822 13172
L5810 13160
L5798 13135
L5786 13086
L5773 13062
L5761 13050
L5737 13038
L5712 13038
L5688 13050
L5676 13062
L5664 13086
L5664 13147
L5676 13184
" />
<path d="M5920 13294
L5749 13294
" />
<path d="M5773 13294
L5761 13306
L5749 13330
L5749 13367
L5761 13391
L5786 13403
L5920 13403
" />
<path d="M5786 13403
L5761 13416
L5749 13440
L5749 13476
L5761 13501
L5786 13513
L5920 13513
" />
<path d="M5920 13745
L5786 13745
L5761 13732
L5749 13708
L5749 13659
L5761 13635
" />
<path d="M5907 13745
L5920 13720
L5920 13659
L5907 13635
L5883 13623
L5859 13623
L5834 13635
L5822 13659
L5822 13720
L5810 13745
" />
<path d="M5920 13903
L5907 13879
L5883 13866
L5664 13866
" />
<path d="M5920 14037
L5907 14013
L5883 14000
L5664 14000
" />
<path d="M5428 12770
L5428 12648
L5172 12648
" />
<path d="M5452 12794
L5452 12989
" />
<path d="M5415 13038
L5428 13074
L5428 13135
L5415 13160
L5403 13172
L5379 13184
L5354 13184
L5330 13172
L5318 13160
L5306 13135
L5293 13086
L5281 13062
L5269 13050
L5245 13038
L5220 13038
L5196 13050
L5184 13062
L5172 13086
L5172 13147
L5184 13184
" />
<path d="M5428 13294
L5257 13294
" />
<path d="M5281 13294
L5269 13306
L5257 13330
L5257 13367
L5269 13391
L5293 13403
L5428 13403
" />
<path d="M5293 13403
L5269 13416
L5257 13440
L5257 13476
L5269 13501
L5293 13513
L5428 13513
" />
<path d="M5428 13745
L5293 13745
L5269 13732
L5257 13708
L5257 13659
L5269 13635
" />
<path d="M5415 13745
L5428 13720
L5428 13659
L5415 13635
L5391 13623
L5367 13623
L5342 13635
L5330 13659
L5330 13720
L5318 13745
" />
<path d="M5428 13903
L5415 13879
L5391 13866
L5172 13866
" />
<path d="M5428 14037
L5415 14013
L5391 14000
L5172 14000
" />
<path d="M26109 11714
L26230 11714
L26230 11458
" />
<path d="M26084 11738
L25889 11738
" />
<path d="M25840 11702
L25804 11714
L25743 11714
L25719 11702
L25706 11689
L25694 11665
L25694 11641
L25706 11616
L25719 11604
L25743 11592
L25792 11580
L25816 11567
L25828 11555
L25840 11531
L25840 11507
L25828 11482
L25816 11470
L25792 11458
L25731 11458
L25694 11470
" />
<path d="M25585 11714
L25585 11543
" />
<path d="M25585 11567
L25572 11555
L25548 11543
L25511 11543
L25487 11555
L25475 11580
L25475 11714
" />
<path d="M25475 11580
L25463 11555
L25438 11543
L25402 11543
L25377 11555
L25365 11580
L25365 11714
" />
<path d="M25134 11714
L25134 11580
L25146 11555
L25170 11543
L25219 11543
L25243 11555
" />
<path d="M25134 11702
L25158 11714
L25219 11714
L25243 11702
L25255 11677
L25255 11653
L25243 11628
L25219 11616
L25158 11616
L25134 11604
" />
<path d="M24975 11714
L25000 11702
L25012 11677
L25012 11458
" />
<path d="M24841 11714
L24866 11702
L24878 11677
L24878 11458
" />
<path d="M25439 11025
L25561 11025
L25561 10769
" />
<path d="M25415 11049
L25220 11049
" />
<path d="M25171 11013
L25135 11025
L25074 11025
L25049 11013
L25037 11000
L25025 10976
L25025 10952
L25037 10927
L25049 10915
L25074 10903
L25122 10891
L25147 10878
L25159 10866
L25171 10842
L25171 10818
L25159 10793
L25147 10781
L25122 10769
L25061 10769
L25025 10781
" />
<path d="M24915 11025
L24915 10854
" />
<path d="M24915 10878
L24903 10866
L24879 10854
L24842 10854
L24818 10866
L24806 10891
L24806 11025
" />
<path d="M24806 10891
L24793 10866
L24769 10854
L24732 10854
L24708 10866
L24696 10891
L24696 11025
" />
<path d="M24464 11025
L24464 10891
L24477 10866
L24501 10854
L24550 10854
L24574 10866
" />
<path d="M24464 11013
L24489 11025
L24550 11025
L24574 11013
L24586 10988
L24586 10964
L24574 10939
L24550 10927
L24489 10927
L24464 10915
" />
<path d="M24306 11025
L24330 11013
L24342 10988
L24342 10769
" />
<path d="M24172 11025
L24196 11013
L24208 10988
L24208 10769
" />
<path d="M25439 10434
L25561 10434
L25561 10178
" />
<path d="M25415 10459
L25220 10459
" />
<path d="M25171 10422
L25135 10434
L25074 10434
L25049 10422
L25037 10410
L25025 10385
L25025 10361
L25037 10337
L25049 10324
L25074 10312
L25122 10300
L25147 10288
L25159 10276
L25171 10251
L25171 10227
L25159 10203
L25147 10190
L25122 10178
L25061 10178
L25025 10190
" />
<path d="M24915 10434
L24915 10264
" />
<path d="M24915 10288
L24903 10276
L24879 10264
L24842 10264
L24818 10276
L24806 10300
L24806 10434
" />
<path d="M24806 10300
L24793 10276
L24769 10264
L24732 10264
L24708 10276
L24696 10300
L24696 10434
" />
<path d="M24464 10434
L24464 10300
L24477 10276
L24501 10264
L24550 10264
L24574 10276
" />
<path d="M24464 10422
L24489 10434
L24550 10434
L24574 10422
L24586 10398
L24586 10373
L24574 10349
L24550 10337
L24489 10337
L24464 10324
" />
<path d="M24306 10434
L24330 10422
L24342 10398
L24342 10178
" />
<path d="M24172 10434
L24196 10422
L24208 10398
L24208 10178
" />
<path d="M5920 11982
L5798 11897
" />
<path d="M5920 11836
L5664 11836
L5664 11934
L5676 11958
L5688 11970
L5712 11982
L5749 11982
L5773 11970
L5786 11958
L5798 11934
L5798 11836
" />
<path d="M5944 12031
L5944 12226
" />
<path d="M5907 12275
L5920 12311
L5920 12372
L5907 12397
L5895 12409
L5871 12421
L5847 12421
L5822 12409
L5810 12397
L5798 12372
L5786 12323
L5773 12299
L5761 12287
L5737 12275
L5712 12275
L5688 12287
L5676 12299
L5664 12323
L5664 12384
L5676 12421
" />
<path d="M5920 12531
L5749 12531
" />
<path d="M5773 12531
L5761 12543
L5749 12567
L5749 12604
L5761 12628
L5786 12640
L5920 12640
" />
<path d="M5786 12640
L5761 12652
L5749 12677
L5749 12713
L5761 12738
L5786 12750
L5920 12750
" />
<path d="M5920 12982
L5786 12982
L5761 12969
L5749 12945
L5749 12896
L5761 12872
" />
<path d="M5907 12982
L5920 12957
L5920 12896
L5907 12872
L5883 12860
L5859 12860
L5834 12872
L5822 12896
L5822 12957
L5810 12982
" />
<path d="M5920 13140
L5907 13116
L5883 13103
L5664 13103
" />
<path d="M5920 13274
L5907 13250
L5883 13237
L5664 13237
" />
<path d="M5428 11982
L5306 11897
" />
<path d="M5428 11836
L5172 11836
L5172 11934
L5184 11958
L5196 11970
L5220 11982
L5257 11982
L5281 11970
L5293 11958
L5306 11934
L5306 11836
" />
<path d="M5452 12031
L5452 12226
" />
<path d="M5415 12275
L5428 12311
L5428 12372
L5415 12397
L5403 12409
L5379 12421
L5354 12421
L5330 12409
L5318 12397
L5306 12372
L5293 12323
L5281 12299
L5269 12287
L5245 12275
L5220 12275
L5196 12287
L5184 12299
L5172 12323
L5172 12384
L5184 12421
" />
<path d="M5428 12531
L5257 12531
" />
<path d="M5281 12531
L5269 12543
L5257 12567
L5257 12604
L5269 12628
L5293 12640
L5428 12640
" />
<path d="M5293 12640
L5269 12652
L5257 12677
L5257 12713
L5269 12738
L5293 12750
L5428 12750
" />
<path d="M5428 12982
L5293 12982
L5269 12969
L5257 12945
L5257 12896
L5269 12872
" />
<path d="M5415 12982
L5428 12957
L5428 12896
L5415 12872
L5391 12860
L5367 12860
L5342 12872
L5330 12896
L5330 12957
L5318 12982
" />
<path d="M5428 13140
L5415 13116
L5391 13103
L5172 13103
" />
<path d="M5428 13274
L5415 13250
L5391 13237
L5172 13237
" />
<path d="M26246 10434
L26332 10312
" />
<path d="M26393 10434
L26393 10178
L26295 10178
L26271 10190
L26258 10203
L26246 10227
L26246 10264
L26258 10288
L26271 10300
L26295 10312
L26393 10312
" />
<path d="M26198 10459
L26003 10459
" />
<path d="M25954 10422
L25917 10434
L25856 10434
L25832 10422
L25820 10410
L25808 10385
L25808 10361
L25820 10337
L25832 10324
L25856 10312
L25905 10300
L25929 10288
L25942 10276
L25954 10251
L25954 10227
L25942 10203
L25929 10190
L25905 10178
L25844 10178
L25808 10190
" />
<path d="M25698 10434
L25698 10264
" />
<path d="M25698 10288
L25686 10276
L25661 10264
L25625 10264
L25600 10276
L25588 10300
L25588 10434
" />
<path d="M25588 10300
L25576 10276
L25552 10264
L25515 10264
L25491 10276
L25479 10300
L25479 10434
" />
<path d="M25247 10434
L25247 10300
L25259 10276
L25284 10264
L25332 10264
L25357 10276
" />
<path d="M25247 10422
L25271 10434
L25332 10434
L25357 10422
L25369 10398
L25369 10373
L25357 10349
L25332 10337
L25271 10337
L25247 10324
" />
<path d="M25089 10434
L25113 10422
L25125 10398
L25125 10178
" />
<path d="M24955 10434
L24979 10422
L24991 10398
L24991 10178
" />
<path d="M19244 19351
L19390 19351
" />
<path d="M19317 19351
L19317 19096
L19341 19132
L19365 19157
L19390 19169
" />
<path d="M19085 19096
L19061 19096
L19036 19108
L19024 19120
L19012 19144
L19000 19193
L19000 19254
L19012 19303
L19024 19327
L19036 19339
L19061 19351
L19085 19351
L19110 19339
L19122 19327
L19134 19303
L19146 19254
L19146 19193
L19134 19144
L19122 19120
L19110 19108
L19085 19096
" />
<path d="M18890 19351
L18890 19096
" />
<path d="M18866 19254
L18793 19351
" />
<path d="M18793 19181
L18890 19278
" />
<path d="M22374 22540
L22520 22540
" />
<path d="M22447 22540
L22447 22285
L22471 22321
L22495 22345
L22520 22358
" />
<path d="M22215 22285
L22191 22285
L22166 22297
L22154 22309
L22142 22333
L22130 22382
L22130 22443
L22142 22492
L22154 22516
L22166 22528
L22191 22540
L22215 22540
L22239 22528
L22252 22516
L22264 22492
L22276 22443
L22276 22382
L22264 22333
L22252 22309
L22239 22297
L22215 22285
" />
<path d="M22020 22540
L22020 22285
" />
<path d="M21996 22443
L21923 22540
" />
<path d="M21923 22370
L22020 22467
" />
<path d="M22354 21556
L22500 21556
" />
<path d="M22427 21556
L22427 21300
L22451 21337
L22476 21361
L22500 21373
" />
<path d="M22195 21300
L22171 21300
L22147 21312
L22134 21325
L22122 21349
L22110 21398
L22110 21459
L22122 21507
L22134 21532
L22147 21544
L22171 21556
L22195 21556
L22220 21544
L22232 21532
L22244 21507
L22256 21459
L22256 21398
L22244 21349
L22232 21325
L22220 21312
L22195 21300
" />
<path d="M22000 21556
L22000 21300
" />
<path d="M21976 21459
L21903 21556
" />
<path d="M21903 21386
L22000 21483
" />
<path d="M20228 19351
L20374 19351
" />
<path d="M20301 19351
L20301 19096
L20325 19132
L20350 19157
L20374 19169
" />
<path d="M20069 19096
L20045 19096
L20021 19108
L20008 19120
L19996 19144
L19984 19193
L19984 19254
L19996 19303
L20008 19327
L20021 19339
L20045 19351
L20069 19351
L20094 19339
L20106 19327
L20118 19303
L20130 19254
L20130 19193
L20118 19144
L20106 19120
L20094 19108
L20069 19096
" />
<path d="M19874 19351
L19874 19096
" />
<path d="M19850 19254
L19777 19351
" />
<path d="M19777 19181
L19874 19278
" />
</g> 
</svg>
