M48
;DRILL file {KiCad 4.0.2-stable} date Mon Jul  4 17:55:23 2016
;FORMAT={3:3/ absolute / metric / keep zeros}
FMAT,2
METRIC,TZ
T1C0.400
T2C1.500
%
G90
G05
M71
T1
X141000Y-108000
X147000Y-108000
X151000Y-108000
X152000Y-102000
X153000Y-108000
X153000Y-110000
X155000Y-110000
X155090Y-104090
X156910Y-104090
X157000Y-102000
X161000Y-108000
X167000Y-108000
T2
X132500Y-102464
X132500Y-107544
X135040Y-105004
X137580Y-102464
X137580Y-107544
X169460Y-102460
X169460Y-107540
X172000Y-105000
X174540Y-102460
X174540Y-107540
T0
M30
