G04 #@! TF.FileFunction,Copper,L1,Top,Signal*
%FSLAX46Y46*%
G04 Gerber Fmt 4.6, Leading zero omitted, Abs format (unit mm)*
G04 Created by KiCad (PCBNEW 4.0.2-stable) date Mon Jul  4 17:55:20 2016*
%MOMM*%
G01*
G04 APERTURE LIST*
%ADD10C,0.100000*%
%ADD11R,1.000000X1.250000*%
%ADD12R,1.250000X1.000000*%
%ADD13C,1.800000*%
%ADD14R,1.400000X6.100000*%
%ADD15R,2.200000X1.400000*%
%ADD16C,0.600000*%
%ADD17C,1.000000*%
%ADD18C,0.254000*%
G04 APERTURE END LIST*
D10*
D11*
X145000000Y-105000000D03*
X143000000Y-105000000D03*
X165000000Y-105000000D03*
X163000000Y-105000000D03*
D12*
X141000000Y-107000000D03*
X141000000Y-105000000D03*
X147000000Y-107000000D03*
X147000000Y-105000000D03*
X161000000Y-107000000D03*
X161000000Y-105000000D03*
X167000000Y-107000000D03*
X167000000Y-105000000D03*
D13*
X135040000Y-105003600D03*
X132500000Y-107543600D03*
X132500000Y-102463600D03*
X137580000Y-102463600D03*
X137580000Y-107543600D03*
X172000000Y-105000000D03*
X174540000Y-102460000D03*
X174540000Y-107540000D03*
X169460000Y-107540000D03*
X169460000Y-102460000D03*
D14*
X154000000Y-106000000D03*
D15*
X151090000Y-104730000D03*
X151090000Y-107270000D03*
X156910000Y-107270000D03*
X156910000Y-104730000D03*
D16*
X152000000Y-102000000D03*
X157000000Y-102000000D03*
X155090000Y-104090000D03*
X155000000Y-110000000D03*
X153000000Y-110000000D03*
X153000000Y-108000000D03*
X141000000Y-108000000D03*
X147000000Y-108000000D03*
X151000000Y-108000000D03*
X156910000Y-104090000D03*
X161000000Y-108000000D03*
X167000000Y-108000000D03*
D17*
X145000000Y-105000000D02*
X147000000Y-105000000D01*
X151090000Y-104730000D02*
X149270000Y-104730000D01*
X149270000Y-104730000D02*
X149000000Y-105000000D01*
X147000000Y-105000000D02*
X149000000Y-105000000D01*
X143000000Y-105000000D02*
X141000000Y-105000000D01*
X135040000Y-105003600D02*
X140996400Y-105003600D01*
X140996400Y-105003600D02*
X141000000Y-105000000D01*
X167000000Y-105000000D02*
X172000000Y-105000000D01*
X165000000Y-105000000D02*
X167000000Y-105000000D01*
X161000000Y-105000000D02*
X163000000Y-105000000D01*
X159000000Y-105375000D02*
X159000000Y-107000000D01*
X161000000Y-105000000D02*
X159375000Y-105000000D01*
X159375000Y-105000000D02*
X159000000Y-105375000D01*
X158730000Y-107270000D02*
X159000000Y-107000000D01*
X156910000Y-107270000D02*
X158730000Y-107270000D01*
X156910000Y-107270000D02*
X156910000Y-107090000D01*
X156910000Y-107090000D02*
X157000000Y-107000000D01*
X157000000Y-102000000D02*
X152000000Y-102000000D01*
X155090000Y-104090000D02*
X155090000Y-103910000D01*
X155090000Y-103910000D02*
X157000000Y-102000000D01*
X156910000Y-104090000D02*
X155090000Y-104090000D01*
X153000000Y-110000000D02*
X155000000Y-110000000D01*
X153000000Y-108000000D02*
X153000000Y-110000000D01*
X151000000Y-108000000D02*
X153000000Y-108000000D01*
X141000000Y-107000000D02*
X141000000Y-108000000D01*
X147000000Y-107000000D02*
X147000000Y-108000000D01*
X151090000Y-107270000D02*
X151090000Y-107910000D01*
X151090000Y-107910000D02*
X151000000Y-108000000D01*
X156910000Y-104730000D02*
X156910000Y-104090000D01*
X161000000Y-107000000D02*
X161000000Y-108000000D01*
X167000000Y-107000000D02*
X167000000Y-108000000D01*
D18*
G36*
X157873000Y-105334781D02*
X157865000Y-105375000D01*
X157865000Y-105873000D01*
X157040218Y-105873000D01*
X157000000Y-105865000D01*
X156959782Y-105873000D01*
X155000000Y-105873000D01*
X154950590Y-105883006D01*
X154908965Y-105911447D01*
X154881685Y-105953841D01*
X154873000Y-106000000D01*
X154873000Y-109000000D01*
X154883006Y-109049410D01*
X154911447Y-109091035D01*
X154953841Y-109118315D01*
X155000000Y-109127000D01*
X157873000Y-109127000D01*
X157873000Y-110290000D01*
X151127000Y-110290000D01*
X151127000Y-106127000D01*
X153000000Y-106127000D01*
X153049410Y-106116994D01*
X153091035Y-106088553D01*
X153118315Y-106046159D01*
X153127000Y-106000000D01*
X153127000Y-103000000D01*
X153116994Y-102950590D01*
X153088553Y-102908965D01*
X153046159Y-102881685D01*
X153000000Y-102873000D01*
X151127000Y-102873000D01*
X151127000Y-99710000D01*
X157873000Y-99710000D01*
X157873000Y-105334781D01*
X157873000Y-105334781D01*
G37*
X157873000Y-105334781D02*
X157865000Y-105375000D01*
X157865000Y-105873000D01*
X157040218Y-105873000D01*
X157000000Y-105865000D01*
X156959782Y-105873000D01*
X155000000Y-105873000D01*
X154950590Y-105883006D01*
X154908965Y-105911447D01*
X154881685Y-105953841D01*
X154873000Y-106000000D01*
X154873000Y-109000000D01*
X154883006Y-109049410D01*
X154911447Y-109091035D01*
X154953841Y-109118315D01*
X155000000Y-109127000D01*
X157873000Y-109127000D01*
X157873000Y-110290000D01*
X151127000Y-110290000D01*
X151127000Y-106127000D01*
X153000000Y-106127000D01*
X153049410Y-106116994D01*
X153091035Y-106088553D01*
X153118315Y-106046159D01*
X153127000Y-106000000D01*
X153127000Y-103000000D01*
X153116994Y-102950590D01*
X153088553Y-102908965D01*
X153046159Y-102881685D01*
X153000000Y-102873000D01*
X151127000Y-102873000D01*
X151127000Y-99710000D01*
X157873000Y-99710000D01*
X157873000Y-105334781D01*
M02*
