G04 #@! TF.FileFunction,Copper,L2,Bot,Signal*
%FSLAX46Y46*%
G04 Gerber Fmt 4.6, Leading zero omitted, Abs format (unit mm)*
G04 Created by KiCad (PCBNEW 4.0.2-stable) date Mon Jul  4 17:55:20 2016*
%MOMM*%
G01*
G04 APERTURE LIST*
%ADD10C,0.100000*%
%ADD11C,1.800000*%
%ADD12C,0.600000*%
%ADD13C,0.254000*%
G04 APERTURE END LIST*
D10*
D11*
X135040000Y-105003600D03*
X132500000Y-107543600D03*
X132500000Y-102463600D03*
X137580000Y-102463600D03*
X137580000Y-107543600D03*
X172000000Y-105000000D03*
X174540000Y-102460000D03*
X174540000Y-107540000D03*
X169460000Y-107540000D03*
X169460000Y-102460000D03*
D12*
X152000000Y-102000000D03*
X157000000Y-102000000D03*
X155090000Y-104090000D03*
X155000000Y-110000000D03*
X153000000Y-110000000D03*
X153000000Y-108000000D03*
X141000000Y-108000000D03*
X147000000Y-108000000D03*
X151000000Y-108000000D03*
X156910000Y-104090000D03*
X161000000Y-108000000D03*
X167000000Y-108000000D03*
D13*
G36*
X175290000Y-101099888D02*
X174780664Y-100913542D01*
X174170540Y-100939161D01*
X173725852Y-101123357D01*
X173639446Y-101379841D01*
X174540000Y-102280395D01*
X174554143Y-102266253D01*
X174733748Y-102445858D01*
X174719605Y-102460000D01*
X174733748Y-102474143D01*
X174554143Y-102653748D01*
X174540000Y-102639605D01*
X173639446Y-103540159D01*
X173725852Y-103796643D01*
X174299336Y-104006458D01*
X174909460Y-103980839D01*
X175290000Y-103823214D01*
X175290000Y-106179888D01*
X174780664Y-105993542D01*
X174170540Y-106019161D01*
X173725852Y-106203357D01*
X173639446Y-106459841D01*
X174540000Y-107360395D01*
X174554143Y-107346253D01*
X174733748Y-107525858D01*
X174719605Y-107540000D01*
X174733748Y-107554143D01*
X174554143Y-107733748D01*
X174540000Y-107719605D01*
X173639446Y-108620159D01*
X173725852Y-108876643D01*
X174299336Y-109086458D01*
X174909460Y-109060839D01*
X175290000Y-108903214D01*
X175290000Y-110290000D01*
X131710000Y-110290000D01*
X131710000Y-108889078D01*
X132259336Y-109090058D01*
X132869460Y-109064439D01*
X133314148Y-108880243D01*
X133400554Y-108623759D01*
X136679446Y-108623759D01*
X136765852Y-108880243D01*
X137339336Y-109090058D01*
X137949460Y-109064439D01*
X138394148Y-108880243D01*
X138480554Y-108623759D01*
X138476954Y-108620159D01*
X168559446Y-108620159D01*
X168645852Y-108876643D01*
X169219336Y-109086458D01*
X169829460Y-109060839D01*
X170274148Y-108876643D01*
X170360554Y-108620159D01*
X169460000Y-107719605D01*
X168559446Y-108620159D01*
X138476954Y-108620159D01*
X137580000Y-107723205D01*
X136679446Y-108623759D01*
X133400554Y-108623759D01*
X132500000Y-107723205D01*
X132485858Y-107737348D01*
X132306253Y-107557743D01*
X132320395Y-107543600D01*
X132679605Y-107543600D01*
X133580159Y-108444154D01*
X133836643Y-108357748D01*
X134046458Y-107784264D01*
X134026248Y-107302936D01*
X136033542Y-107302936D01*
X136059161Y-107913060D01*
X136243357Y-108357748D01*
X136499841Y-108444154D01*
X137400395Y-107543600D01*
X137759605Y-107543600D01*
X138660159Y-108444154D01*
X138916643Y-108357748D01*
X139126458Y-107784264D01*
X139106096Y-107299336D01*
X167913542Y-107299336D01*
X167939161Y-107909460D01*
X168123357Y-108354148D01*
X168379841Y-108440554D01*
X169280395Y-107540000D01*
X169639605Y-107540000D01*
X170540159Y-108440554D01*
X170796643Y-108354148D01*
X171006458Y-107780664D01*
X170986248Y-107299336D01*
X172993542Y-107299336D01*
X173019161Y-107909460D01*
X173203357Y-108354148D01*
X173459841Y-108440554D01*
X174360395Y-107540000D01*
X173459841Y-106639446D01*
X173203357Y-106725852D01*
X172993542Y-107299336D01*
X170986248Y-107299336D01*
X170980839Y-107170540D01*
X170796643Y-106725852D01*
X170540159Y-106639446D01*
X169639605Y-107540000D01*
X169280395Y-107540000D01*
X168379841Y-106639446D01*
X168123357Y-106725852D01*
X167913542Y-107299336D01*
X139106096Y-107299336D01*
X139100839Y-107174140D01*
X138916643Y-106729452D01*
X138660159Y-106643046D01*
X137759605Y-107543600D01*
X137400395Y-107543600D01*
X136499841Y-106643046D01*
X136243357Y-106729452D01*
X136033542Y-107302936D01*
X134026248Y-107302936D01*
X134020839Y-107174140D01*
X133836643Y-106729452D01*
X133580159Y-106643046D01*
X132679605Y-107543600D01*
X132320395Y-107543600D01*
X132306253Y-107529458D01*
X132485858Y-107349853D01*
X132500000Y-107363995D01*
X133400554Y-106463441D01*
X133314148Y-106206957D01*
X132740664Y-105997142D01*
X132130540Y-106022761D01*
X131710000Y-106196955D01*
X131710000Y-105307591D01*
X133504735Y-105307591D01*
X133737932Y-105871971D01*
X134169357Y-106304151D01*
X134733330Y-106538333D01*
X135343991Y-106538865D01*
X135526531Y-106463441D01*
X136679446Y-106463441D01*
X137580000Y-107363995D01*
X138480554Y-106463441D01*
X138479342Y-106459841D01*
X168559446Y-106459841D01*
X169460000Y-107360395D01*
X170360554Y-106459841D01*
X170274148Y-106203357D01*
X169700664Y-105993542D01*
X169090540Y-106019161D01*
X168645852Y-106203357D01*
X168559446Y-106459841D01*
X138479342Y-106459841D01*
X138394148Y-106206957D01*
X137820664Y-105997142D01*
X137210540Y-106022761D01*
X136765852Y-106206957D01*
X136679446Y-106463441D01*
X135526531Y-106463441D01*
X135908371Y-106305668D01*
X136340551Y-105874243D01*
X136574733Y-105310270D01*
X136574738Y-105303991D01*
X170464735Y-105303991D01*
X170697932Y-105868371D01*
X171129357Y-106300551D01*
X171693330Y-106534733D01*
X172303991Y-106535265D01*
X172868371Y-106302068D01*
X173300551Y-105870643D01*
X173534733Y-105306670D01*
X173535265Y-104696009D01*
X173302068Y-104131629D01*
X172870643Y-103699449D01*
X172306670Y-103465267D01*
X171696009Y-103464735D01*
X171131629Y-103697932D01*
X170699449Y-104129357D01*
X170465267Y-104693330D01*
X170464735Y-105303991D01*
X136574738Y-105303991D01*
X136575265Y-104699609D01*
X136342068Y-104135229D01*
X135910643Y-103703049D01*
X135527031Y-103543759D01*
X136679446Y-103543759D01*
X136765852Y-103800243D01*
X137339336Y-104010058D01*
X137949460Y-103984439D01*
X138394148Y-103800243D01*
X138480554Y-103543759D01*
X138476954Y-103540159D01*
X168559446Y-103540159D01*
X168645852Y-103796643D01*
X169219336Y-104006458D01*
X169829460Y-103980839D01*
X170274148Y-103796643D01*
X170360554Y-103540159D01*
X169460000Y-102639605D01*
X168559446Y-103540159D01*
X138476954Y-103540159D01*
X137580000Y-102643205D01*
X136679446Y-103543759D01*
X135527031Y-103543759D01*
X135346670Y-103468867D01*
X134736009Y-103468335D01*
X134171629Y-103701532D01*
X133739449Y-104132957D01*
X133505267Y-104696930D01*
X133504735Y-105307591D01*
X131710000Y-105307591D01*
X131710000Y-103809078D01*
X132259336Y-104010058D01*
X132869460Y-103984439D01*
X133314148Y-103800243D01*
X133400554Y-103543759D01*
X132500000Y-102643205D01*
X132485858Y-102657348D01*
X132306253Y-102477743D01*
X132320395Y-102463600D01*
X132679605Y-102463600D01*
X133580159Y-103364154D01*
X133836643Y-103277748D01*
X134046458Y-102704264D01*
X134026248Y-102222936D01*
X136033542Y-102222936D01*
X136059161Y-102833060D01*
X136243357Y-103277748D01*
X136499841Y-103364154D01*
X137400395Y-102463600D01*
X137759605Y-102463600D01*
X138660159Y-103364154D01*
X138916643Y-103277748D01*
X139126458Y-102704264D01*
X139106096Y-102219336D01*
X167913542Y-102219336D01*
X167939161Y-102829460D01*
X168123357Y-103274148D01*
X168379841Y-103360554D01*
X169280395Y-102460000D01*
X169639605Y-102460000D01*
X170540159Y-103360554D01*
X170796643Y-103274148D01*
X171006458Y-102700664D01*
X170986248Y-102219336D01*
X172993542Y-102219336D01*
X173019161Y-102829460D01*
X173203357Y-103274148D01*
X173459841Y-103360554D01*
X174360395Y-102460000D01*
X173459841Y-101559446D01*
X173203357Y-101645852D01*
X172993542Y-102219336D01*
X170986248Y-102219336D01*
X170980839Y-102090540D01*
X170796643Y-101645852D01*
X170540159Y-101559446D01*
X169639605Y-102460000D01*
X169280395Y-102460000D01*
X168379841Y-101559446D01*
X168123357Y-101645852D01*
X167913542Y-102219336D01*
X139106096Y-102219336D01*
X139100839Y-102094140D01*
X138916643Y-101649452D01*
X138660159Y-101563046D01*
X137759605Y-102463600D01*
X137400395Y-102463600D01*
X136499841Y-101563046D01*
X136243357Y-101649452D01*
X136033542Y-102222936D01*
X134026248Y-102222936D01*
X134020839Y-102094140D01*
X133836643Y-101649452D01*
X133580159Y-101563046D01*
X132679605Y-102463600D01*
X132320395Y-102463600D01*
X132306253Y-102449458D01*
X132485858Y-102269853D01*
X132500000Y-102283995D01*
X133400554Y-101383441D01*
X136679446Y-101383441D01*
X137580000Y-102283995D01*
X138480554Y-101383441D01*
X138479342Y-101379841D01*
X168559446Y-101379841D01*
X169460000Y-102280395D01*
X170360554Y-101379841D01*
X170274148Y-101123357D01*
X169700664Y-100913542D01*
X169090540Y-100939161D01*
X168645852Y-101123357D01*
X168559446Y-101379841D01*
X138479342Y-101379841D01*
X138394148Y-101126957D01*
X137820664Y-100917142D01*
X137210540Y-100942761D01*
X136765852Y-101126957D01*
X136679446Y-101383441D01*
X133400554Y-101383441D01*
X133314148Y-101126957D01*
X132740664Y-100917142D01*
X132130540Y-100942761D01*
X131710000Y-101116955D01*
X131710000Y-99710000D01*
X175290000Y-99710000D01*
X175290000Y-101099888D01*
X175290000Y-101099888D01*
G37*
X175290000Y-101099888D02*
X174780664Y-100913542D01*
X174170540Y-100939161D01*
X173725852Y-101123357D01*
X173639446Y-101379841D01*
X174540000Y-102280395D01*
X174554143Y-102266253D01*
X174733748Y-102445858D01*
X174719605Y-102460000D01*
X174733748Y-102474143D01*
X174554143Y-102653748D01*
X174540000Y-102639605D01*
X173639446Y-103540159D01*
X173725852Y-103796643D01*
X174299336Y-104006458D01*
X174909460Y-103980839D01*
X175290000Y-103823214D01*
X175290000Y-106179888D01*
X174780664Y-105993542D01*
X174170540Y-106019161D01*
X173725852Y-106203357D01*
X173639446Y-106459841D01*
X174540000Y-107360395D01*
X174554143Y-107346253D01*
X174733748Y-107525858D01*
X174719605Y-107540000D01*
X174733748Y-107554143D01*
X174554143Y-107733748D01*
X174540000Y-107719605D01*
X173639446Y-108620159D01*
X173725852Y-108876643D01*
X174299336Y-109086458D01*
X174909460Y-109060839D01*
X175290000Y-108903214D01*
X175290000Y-110290000D01*
X131710000Y-110290000D01*
X131710000Y-108889078D01*
X132259336Y-109090058D01*
X132869460Y-109064439D01*
X133314148Y-108880243D01*
X133400554Y-108623759D01*
X136679446Y-108623759D01*
X136765852Y-108880243D01*
X137339336Y-109090058D01*
X137949460Y-109064439D01*
X138394148Y-108880243D01*
X138480554Y-108623759D01*
X138476954Y-108620159D01*
X168559446Y-108620159D01*
X168645852Y-108876643D01*
X169219336Y-109086458D01*
X169829460Y-109060839D01*
X170274148Y-108876643D01*
X170360554Y-108620159D01*
X169460000Y-107719605D01*
X168559446Y-108620159D01*
X138476954Y-108620159D01*
X137580000Y-107723205D01*
X136679446Y-108623759D01*
X133400554Y-108623759D01*
X132500000Y-107723205D01*
X132485858Y-107737348D01*
X132306253Y-107557743D01*
X132320395Y-107543600D01*
X132679605Y-107543600D01*
X133580159Y-108444154D01*
X133836643Y-108357748D01*
X134046458Y-107784264D01*
X134026248Y-107302936D01*
X136033542Y-107302936D01*
X136059161Y-107913060D01*
X136243357Y-108357748D01*
X136499841Y-108444154D01*
X137400395Y-107543600D01*
X137759605Y-107543600D01*
X138660159Y-108444154D01*
X138916643Y-108357748D01*
X139126458Y-107784264D01*
X139106096Y-107299336D01*
X167913542Y-107299336D01*
X167939161Y-107909460D01*
X168123357Y-108354148D01*
X168379841Y-108440554D01*
X169280395Y-107540000D01*
X169639605Y-107540000D01*
X170540159Y-108440554D01*
X170796643Y-108354148D01*
X171006458Y-107780664D01*
X170986248Y-107299336D01*
X172993542Y-107299336D01*
X173019161Y-107909460D01*
X173203357Y-108354148D01*
X173459841Y-108440554D01*
X174360395Y-107540000D01*
X173459841Y-106639446D01*
X173203357Y-106725852D01*
X172993542Y-107299336D01*
X170986248Y-107299336D01*
X170980839Y-107170540D01*
X170796643Y-106725852D01*
X170540159Y-106639446D01*
X169639605Y-107540000D01*
X169280395Y-107540000D01*
X168379841Y-106639446D01*
X168123357Y-106725852D01*
X167913542Y-107299336D01*
X139106096Y-107299336D01*
X139100839Y-107174140D01*
X138916643Y-106729452D01*
X138660159Y-106643046D01*
X137759605Y-107543600D01*
X137400395Y-107543600D01*
X136499841Y-106643046D01*
X136243357Y-106729452D01*
X136033542Y-107302936D01*
X134026248Y-107302936D01*
X134020839Y-107174140D01*
X133836643Y-106729452D01*
X133580159Y-106643046D01*
X132679605Y-107543600D01*
X132320395Y-107543600D01*
X132306253Y-107529458D01*
X132485858Y-107349853D01*
X132500000Y-107363995D01*
X133400554Y-106463441D01*
X133314148Y-106206957D01*
X132740664Y-105997142D01*
X132130540Y-106022761D01*
X131710000Y-106196955D01*
X131710000Y-105307591D01*
X133504735Y-105307591D01*
X133737932Y-105871971D01*
X134169357Y-106304151D01*
X134733330Y-106538333D01*
X135343991Y-106538865D01*
X135526531Y-106463441D01*
X136679446Y-106463441D01*
X137580000Y-107363995D01*
X138480554Y-106463441D01*
X138479342Y-106459841D01*
X168559446Y-106459841D01*
X169460000Y-107360395D01*
X170360554Y-106459841D01*
X170274148Y-106203357D01*
X169700664Y-105993542D01*
X169090540Y-106019161D01*
X168645852Y-106203357D01*
X168559446Y-106459841D01*
X138479342Y-106459841D01*
X138394148Y-106206957D01*
X137820664Y-105997142D01*
X137210540Y-106022761D01*
X136765852Y-106206957D01*
X136679446Y-106463441D01*
X135526531Y-106463441D01*
X135908371Y-106305668D01*
X136340551Y-105874243D01*
X136574733Y-105310270D01*
X136574738Y-105303991D01*
X170464735Y-105303991D01*
X170697932Y-105868371D01*
X171129357Y-106300551D01*
X171693330Y-106534733D01*
X172303991Y-106535265D01*
X172868371Y-106302068D01*
X173300551Y-105870643D01*
X173534733Y-105306670D01*
X173535265Y-104696009D01*
X173302068Y-104131629D01*
X172870643Y-103699449D01*
X172306670Y-103465267D01*
X171696009Y-103464735D01*
X171131629Y-103697932D01*
X170699449Y-104129357D01*
X170465267Y-104693330D01*
X170464735Y-105303991D01*
X136574738Y-105303991D01*
X136575265Y-104699609D01*
X136342068Y-104135229D01*
X135910643Y-103703049D01*
X135527031Y-103543759D01*
X136679446Y-103543759D01*
X136765852Y-103800243D01*
X137339336Y-104010058D01*
X137949460Y-103984439D01*
X138394148Y-103800243D01*
X138480554Y-103543759D01*
X138476954Y-103540159D01*
X168559446Y-103540159D01*
X168645852Y-103796643D01*
X169219336Y-104006458D01*
X169829460Y-103980839D01*
X170274148Y-103796643D01*
X170360554Y-103540159D01*
X169460000Y-102639605D01*
X168559446Y-103540159D01*
X138476954Y-103540159D01*
X137580000Y-102643205D01*
X136679446Y-103543759D01*
X135527031Y-103543759D01*
X135346670Y-103468867D01*
X134736009Y-103468335D01*
X134171629Y-103701532D01*
X133739449Y-104132957D01*
X133505267Y-104696930D01*
X133504735Y-105307591D01*
X131710000Y-105307591D01*
X131710000Y-103809078D01*
X132259336Y-104010058D01*
X132869460Y-103984439D01*
X133314148Y-103800243D01*
X133400554Y-103543759D01*
X132500000Y-102643205D01*
X132485858Y-102657348D01*
X132306253Y-102477743D01*
X132320395Y-102463600D01*
X132679605Y-102463600D01*
X133580159Y-103364154D01*
X133836643Y-103277748D01*
X134046458Y-102704264D01*
X134026248Y-102222936D01*
X136033542Y-102222936D01*
X136059161Y-102833060D01*
X136243357Y-103277748D01*
X136499841Y-103364154D01*
X137400395Y-102463600D01*
X137759605Y-102463600D01*
X138660159Y-103364154D01*
X138916643Y-103277748D01*
X139126458Y-102704264D01*
X139106096Y-102219336D01*
X167913542Y-102219336D01*
X167939161Y-102829460D01*
X168123357Y-103274148D01*
X168379841Y-103360554D01*
X169280395Y-102460000D01*
X169639605Y-102460000D01*
X170540159Y-103360554D01*
X170796643Y-103274148D01*
X171006458Y-102700664D01*
X170986248Y-102219336D01*
X172993542Y-102219336D01*
X173019161Y-102829460D01*
X173203357Y-103274148D01*
X173459841Y-103360554D01*
X174360395Y-102460000D01*
X173459841Y-101559446D01*
X173203357Y-101645852D01*
X172993542Y-102219336D01*
X170986248Y-102219336D01*
X170980839Y-102090540D01*
X170796643Y-101645852D01*
X170540159Y-101559446D01*
X169639605Y-102460000D01*
X169280395Y-102460000D01*
X168379841Y-101559446D01*
X168123357Y-101645852D01*
X167913542Y-102219336D01*
X139106096Y-102219336D01*
X139100839Y-102094140D01*
X138916643Y-101649452D01*
X138660159Y-101563046D01*
X137759605Y-102463600D01*
X137400395Y-102463600D01*
X136499841Y-101563046D01*
X136243357Y-101649452D01*
X136033542Y-102222936D01*
X134026248Y-102222936D01*
X134020839Y-102094140D01*
X133836643Y-101649452D01*
X133580159Y-101563046D01*
X132679605Y-102463600D01*
X132320395Y-102463600D01*
X132306253Y-102449458D01*
X132485858Y-102269853D01*
X132500000Y-102283995D01*
X133400554Y-101383441D01*
X136679446Y-101383441D01*
X137580000Y-102283995D01*
X138480554Y-101383441D01*
X138479342Y-101379841D01*
X168559446Y-101379841D01*
X169460000Y-102280395D01*
X170360554Y-101379841D01*
X170274148Y-101123357D01*
X169700664Y-100913542D01*
X169090540Y-100939161D01*
X168645852Y-101123357D01*
X168559446Y-101379841D01*
X138479342Y-101379841D01*
X138394148Y-101126957D01*
X137820664Y-100917142D01*
X137210540Y-100942761D01*
X136765852Y-101126957D01*
X136679446Y-101383441D01*
X133400554Y-101383441D01*
X133314148Y-101126957D01*
X132740664Y-100917142D01*
X132130540Y-100942761D01*
X131710000Y-101116955D01*
X131710000Y-99710000D01*
X175290000Y-99710000D01*
X175290000Y-101099888D01*
M02*
