G04 #@! TF.FileFunction,Copper,L2,Inr,Signal*
%FSLAX46Y46*%
G04 Gerber Fmt 4.6, Leading zero omitted, Abs format (unit mm)*
G04 Created by KiCad (PCBNEW 4.0.2-stable) date Tue Mar  8 23:24:32 2016*
%MOMM*%
G01*
G04 APERTURE LIST*
%ADD10C,0.100000*%
%ADD11R,1.727200X1.727200*%
%ADD12O,1.727200X1.727200*%
%ADD13R,2.032000X2.032000*%
%ADD14O,2.032000X2.032000*%
%ADD15C,1.800000*%
%ADD16C,0.600000*%
%ADD17C,0.250000*%
%ADD18C,0.254000*%
G04 APERTURE END LIST*
D10*
D11*
X96250000Y-118250000D03*
D12*
X98790000Y-118250000D03*
X96250000Y-120790000D03*
X98790000Y-120790000D03*
X96250000Y-123330000D03*
X98790000Y-123330000D03*
D13*
X104385000Y-114950000D03*
D14*
X106925000Y-114950000D03*
D15*
X83500000Y-98000000D03*
X80960000Y-95460000D03*
X86040000Y-95460000D03*
X86040000Y-100540000D03*
X80960000Y-100540000D03*
X83500000Y-140000000D03*
X86040000Y-142540000D03*
X80960000Y-142540000D03*
X80960000Y-137460000D03*
X86040000Y-137460000D03*
X105250000Y-139750000D03*
X107790000Y-142290000D03*
X102710000Y-142290000D03*
X102710000Y-137210000D03*
X107790000Y-137210000D03*
X104750000Y-98750000D03*
X107290000Y-96210000D03*
X107290000Y-101290000D03*
X102210000Y-101290000D03*
X102210000Y-96210000D03*
D11*
X106635000Y-127950000D03*
D12*
X104095000Y-127950000D03*
X106635000Y-125410000D03*
X104095000Y-125410000D03*
X106635000Y-122870000D03*
X104095000Y-122870000D03*
X106635000Y-120330000D03*
X104095000Y-120330000D03*
D16*
X100135000Y-94700000D03*
X95035000Y-128600000D03*
X95235000Y-130200000D03*
X96635000Y-135000000D03*
X100635000Y-132800000D03*
X99750000Y-112500000D03*
X101500000Y-106750000D03*
X105250000Y-107000000D03*
X104165000Y-109845000D03*
X103335000Y-109845000D03*
X104165000Y-108655000D03*
X103335000Y-108655000D03*
X100500000Y-107000000D03*
X99000000Y-107000000D03*
X101750000Y-111750000D03*
X106300000Y-111300000D03*
X108500000Y-109750000D03*
X98500000Y-135750000D03*
X91750000Y-143250000D03*
X95000000Y-141750000D03*
X89000000Y-139250000D03*
X87000000Y-133250000D03*
X86750000Y-135000000D03*
X95750000Y-111750000D03*
X96250000Y-105750000D03*
X94000000Y-101250000D03*
X96250000Y-104750000D03*
X92500000Y-105750000D03*
X91000000Y-95500000D03*
X83000000Y-120750000D03*
X84500000Y-120750000D03*
X84500000Y-119250000D03*
X83000000Y-119250000D03*
X82250000Y-132500000D03*
X80500000Y-123250000D03*
X79750000Y-118750000D03*
X93750000Y-116750000D03*
X89000000Y-124250000D03*
X89000000Y-123500000D03*
X87500000Y-123500000D03*
X81000000Y-117000000D03*
X81000000Y-115000000D03*
X85000000Y-105500000D03*
X93885000Y-94700000D03*
X97635000Y-134800000D03*
X98435000Y-129400000D03*
X99385000Y-137950000D03*
X98000000Y-108750000D03*
X91000000Y-96500000D03*
X92500000Y-111000000D03*
X89750000Y-121500000D03*
X82000000Y-113000000D03*
X87250000Y-116500000D03*
X90250000Y-139500000D03*
X80500000Y-122250000D03*
X108635000Y-105400000D03*
X80750000Y-119500000D03*
X89750000Y-116750000D03*
X92000000Y-117000000D03*
X80750000Y-120500000D03*
X91635000Y-123200000D03*
X94000000Y-138750000D03*
X89000000Y-102750000D03*
X96635000Y-114600000D03*
X89835000Y-111800000D03*
X96835000Y-113400000D03*
X91235000Y-111800000D03*
X97235000Y-100200000D03*
X91750000Y-140000000D03*
X96000000Y-141000000D03*
X91000000Y-105750000D03*
X93250000Y-100250000D03*
D17*
X104250000Y-108750000D02*
X104250000Y-108740000D01*
X104250000Y-108740000D02*
X104165000Y-108655000D01*
X103500000Y-108750000D02*
X103430000Y-108750000D01*
X103430000Y-108750000D02*
X103335000Y-108655000D01*
X104250000Y-109750000D02*
X104250000Y-109760000D01*
X104250000Y-109760000D02*
X104165000Y-109845000D01*
X103250000Y-109760000D02*
X103250000Y-109750000D01*
X103335000Y-109845000D02*
X103250000Y-109760000D01*
D18*
G36*
X92950162Y-94513201D02*
X92949838Y-94885167D01*
X93091883Y-95228943D01*
X93354673Y-95492192D01*
X93698201Y-95634838D01*
X94070167Y-95635162D01*
X94413943Y-95493117D01*
X94677192Y-95230327D01*
X94819838Y-94886799D01*
X94820162Y-94514833D01*
X94776846Y-94410000D01*
X108675000Y-94410000D01*
X108675000Y-104465034D01*
X108449833Y-104464838D01*
X108106057Y-104606883D01*
X107842808Y-104869673D01*
X107700162Y-105213201D01*
X107699838Y-105585167D01*
X107841883Y-105928943D01*
X108104673Y-106192192D01*
X108448201Y-106334838D01*
X108675000Y-106335036D01*
X108675000Y-143490000D01*
X79345000Y-143490000D01*
X79345000Y-140303991D01*
X81964735Y-140303991D01*
X82197932Y-140868371D01*
X82629357Y-141300551D01*
X83193330Y-141534733D01*
X83803991Y-141535265D01*
X84368371Y-141302068D01*
X84485476Y-141185167D01*
X95064838Y-141185167D01*
X95206883Y-141528943D01*
X95469673Y-141792192D01*
X95813201Y-141934838D01*
X96185167Y-141935162D01*
X96528943Y-141793117D01*
X96792192Y-141530327D01*
X96934838Y-141186799D01*
X96935162Y-140814833D01*
X96793117Y-140471057D01*
X96530327Y-140207808D01*
X96186799Y-140065162D01*
X95814833Y-140064838D01*
X95471057Y-140206883D01*
X95207808Y-140469673D01*
X95065162Y-140813201D01*
X95064838Y-141185167D01*
X84485476Y-141185167D01*
X84800551Y-140870643D01*
X85034733Y-140306670D01*
X85035265Y-139696009D01*
X85030786Y-139685167D01*
X89314838Y-139685167D01*
X89456883Y-140028943D01*
X89719673Y-140292192D01*
X90063201Y-140434838D01*
X90435167Y-140435162D01*
X90778943Y-140293117D01*
X90835935Y-140236225D01*
X90956883Y-140528943D01*
X91219673Y-140792192D01*
X91563201Y-140934838D01*
X91935167Y-140935162D01*
X92278943Y-140793117D01*
X92542192Y-140530327D01*
X92684838Y-140186799D01*
X92684953Y-140053991D01*
X103714735Y-140053991D01*
X103947932Y-140618371D01*
X104379357Y-141050551D01*
X104943330Y-141284733D01*
X105553991Y-141285265D01*
X106118371Y-141052068D01*
X106550551Y-140620643D01*
X106784733Y-140056670D01*
X106785265Y-139446009D01*
X106552068Y-138881629D01*
X106120643Y-138449449D01*
X105556670Y-138215267D01*
X104946009Y-138214735D01*
X104381629Y-138447932D01*
X103949449Y-138879357D01*
X103715267Y-139443330D01*
X103714735Y-140053991D01*
X92684953Y-140053991D01*
X92685162Y-139814833D01*
X92543117Y-139471057D01*
X92280327Y-139207808D01*
X91936799Y-139065162D01*
X91564833Y-139064838D01*
X91221057Y-139206883D01*
X91164065Y-139263775D01*
X91043117Y-138971057D01*
X91007290Y-138935167D01*
X93064838Y-138935167D01*
X93206883Y-139278943D01*
X93469673Y-139542192D01*
X93813201Y-139684838D01*
X94185167Y-139685162D01*
X94528943Y-139543117D01*
X94792192Y-139280327D01*
X94934838Y-138936799D01*
X94935162Y-138564833D01*
X94793117Y-138221057D01*
X94707377Y-138135167D01*
X98449838Y-138135167D01*
X98591883Y-138478943D01*
X98854673Y-138742192D01*
X99198201Y-138884838D01*
X99570167Y-138885162D01*
X99913943Y-138743117D01*
X100177192Y-138480327D01*
X100319838Y-138136799D01*
X100320162Y-137764833D01*
X100178117Y-137421057D01*
X99915327Y-137157808D01*
X99571799Y-137015162D01*
X99199833Y-137014838D01*
X98856057Y-137156883D01*
X98592808Y-137419673D01*
X98450162Y-137763201D01*
X98449838Y-138135167D01*
X94707377Y-138135167D01*
X94530327Y-137957808D01*
X94186799Y-137815162D01*
X93814833Y-137814838D01*
X93471057Y-137956883D01*
X93207808Y-138219673D01*
X93065162Y-138563201D01*
X93064838Y-138935167D01*
X91007290Y-138935167D01*
X90780327Y-138707808D01*
X90436799Y-138565162D01*
X90064833Y-138564838D01*
X89721057Y-138706883D01*
X89457808Y-138969673D01*
X89315162Y-139313201D01*
X89314838Y-139685167D01*
X85030786Y-139685167D01*
X84802068Y-139131629D01*
X84370643Y-138699449D01*
X83806670Y-138465267D01*
X83196009Y-138464735D01*
X82631629Y-138697932D01*
X82199449Y-139129357D01*
X81965267Y-139693330D01*
X81964735Y-140303991D01*
X79345000Y-140303991D01*
X79345000Y-134985167D01*
X96699838Y-134985167D01*
X96841883Y-135328943D01*
X97104673Y-135592192D01*
X97448201Y-135734838D01*
X97820167Y-135735162D01*
X98163943Y-135593117D01*
X98427192Y-135330327D01*
X98569838Y-134986799D01*
X98570162Y-134614833D01*
X98428117Y-134271057D01*
X98165327Y-134007808D01*
X97821799Y-133865162D01*
X97449833Y-133864838D01*
X97106057Y-134006883D01*
X96842808Y-134269673D01*
X96700162Y-134613201D01*
X96699838Y-134985167D01*
X79345000Y-134985167D01*
X79345000Y-129585167D01*
X97499838Y-129585167D01*
X97641883Y-129928943D01*
X97904673Y-130192192D01*
X98248201Y-130334838D01*
X98620167Y-130335162D01*
X98963943Y-130193117D01*
X99227192Y-129930327D01*
X99369838Y-129586799D01*
X99370162Y-129214833D01*
X99228117Y-128871057D01*
X98965327Y-128607808D01*
X98621799Y-128465162D01*
X98249833Y-128464838D01*
X97906057Y-128606883D01*
X97642808Y-128869673D01*
X97500162Y-129213201D01*
X97499838Y-129585167D01*
X79345000Y-129585167D01*
X79345000Y-125410000D01*
X102567041Y-125410000D01*
X102681115Y-125983489D01*
X103005971Y-126469670D01*
X103320752Y-126680000D01*
X103005971Y-126890330D01*
X102681115Y-127376511D01*
X102567041Y-127950000D01*
X102681115Y-128523489D01*
X103005971Y-129009670D01*
X103492152Y-129334526D01*
X104065641Y-129448600D01*
X104124359Y-129448600D01*
X104697848Y-129334526D01*
X105184029Y-129009670D01*
X105508885Y-128523489D01*
X105622959Y-127950000D01*
X105508885Y-127376511D01*
X105184029Y-126890330D01*
X104869248Y-126680000D01*
X105184029Y-126469670D01*
X105365000Y-126198828D01*
X105545971Y-126469670D01*
X106032152Y-126794526D01*
X106605641Y-126908600D01*
X106664359Y-126908600D01*
X107237848Y-126794526D01*
X107724029Y-126469670D01*
X108048885Y-125983489D01*
X108162959Y-125410000D01*
X108048885Y-124836511D01*
X107724029Y-124350330D01*
X107237848Y-124025474D01*
X106664359Y-123911400D01*
X106605641Y-123911400D01*
X106032152Y-124025474D01*
X105545971Y-124350330D01*
X105365000Y-124621172D01*
X105184029Y-124350330D01*
X104697848Y-124025474D01*
X104124359Y-123911400D01*
X104065641Y-123911400D01*
X103492152Y-124025474D01*
X103005971Y-124350330D01*
X102681115Y-124836511D01*
X102567041Y-125410000D01*
X79345000Y-125410000D01*
X79345000Y-123385167D01*
X90699838Y-123385167D01*
X90841883Y-123728943D01*
X91104673Y-123992192D01*
X91448201Y-124134838D01*
X91820167Y-124135162D01*
X92163943Y-123993117D01*
X92427192Y-123730327D01*
X92569838Y-123386799D01*
X92569887Y-123330000D01*
X94722041Y-123330000D01*
X94836115Y-123903489D01*
X95160971Y-124389670D01*
X95647152Y-124714526D01*
X96220641Y-124828600D01*
X96279359Y-124828600D01*
X96852848Y-124714526D01*
X97339029Y-124389670D01*
X97520000Y-124118828D01*
X97700971Y-124389670D01*
X98187152Y-124714526D01*
X98760641Y-124828600D01*
X98819359Y-124828600D01*
X99392848Y-124714526D01*
X99879029Y-124389670D01*
X100203885Y-123903489D01*
X100317959Y-123330000D01*
X100203885Y-122756511D01*
X99879029Y-122270330D01*
X99392848Y-121945474D01*
X98819359Y-121831400D01*
X98760641Y-121831400D01*
X98187152Y-121945474D01*
X97700971Y-122270330D01*
X97520000Y-122541172D01*
X97339029Y-122270330D01*
X96852848Y-121945474D01*
X96279359Y-121831400D01*
X96220641Y-121831400D01*
X95647152Y-121945474D01*
X95160971Y-122270330D01*
X94836115Y-122756511D01*
X94722041Y-123330000D01*
X92569887Y-123330000D01*
X92570162Y-123014833D01*
X92428117Y-122671057D01*
X92165327Y-122407808D01*
X91821799Y-122265162D01*
X91449833Y-122264838D01*
X91106057Y-122406883D01*
X90842808Y-122669673D01*
X90700162Y-123013201D01*
X90699838Y-123385167D01*
X79345000Y-123385167D01*
X79345000Y-122435167D01*
X79564838Y-122435167D01*
X79706883Y-122778943D01*
X79969673Y-123042192D01*
X80313201Y-123184838D01*
X80685167Y-123185162D01*
X81028943Y-123043117D01*
X81292192Y-122780327D01*
X81434838Y-122436799D01*
X81435162Y-122064833D01*
X81293117Y-121721057D01*
X81257290Y-121685167D01*
X88814838Y-121685167D01*
X88956883Y-122028943D01*
X89219673Y-122292192D01*
X89563201Y-122434838D01*
X89935167Y-122435162D01*
X90278943Y-122293117D01*
X90542192Y-122030327D01*
X90684838Y-121686799D01*
X90685162Y-121314833D01*
X90543117Y-120971057D01*
X90280327Y-120707808D01*
X89936799Y-120565162D01*
X89564833Y-120564838D01*
X89221057Y-120706883D01*
X88957808Y-120969673D01*
X88815162Y-121313201D01*
X88814838Y-121685167D01*
X81257290Y-121685167D01*
X81030327Y-121457808D01*
X80955529Y-121426749D01*
X81278943Y-121293117D01*
X81542192Y-121030327D01*
X81684838Y-120686799D01*
X81685148Y-120330000D01*
X102567041Y-120330000D01*
X102681115Y-120903489D01*
X103005971Y-121389670D01*
X103492152Y-121714526D01*
X104065641Y-121828600D01*
X104124359Y-121828600D01*
X104697848Y-121714526D01*
X105184029Y-121389670D01*
X105365000Y-121118828D01*
X105545971Y-121389670D01*
X106032152Y-121714526D01*
X106605641Y-121828600D01*
X106664359Y-121828600D01*
X107237848Y-121714526D01*
X107724029Y-121389670D01*
X108048885Y-120903489D01*
X108162959Y-120330000D01*
X108048885Y-119756511D01*
X107724029Y-119270330D01*
X107237848Y-118945474D01*
X106664359Y-118831400D01*
X106605641Y-118831400D01*
X106032152Y-118945474D01*
X105545971Y-119270330D01*
X105365000Y-119541172D01*
X105184029Y-119270330D01*
X104697848Y-118945474D01*
X104124359Y-118831400D01*
X104065641Y-118831400D01*
X103492152Y-118945474D01*
X103005971Y-119270330D01*
X102681115Y-119756511D01*
X102567041Y-120330000D01*
X81685148Y-120330000D01*
X81685162Y-120314833D01*
X81554931Y-119999649D01*
X81684838Y-119686799D01*
X81685162Y-119314833D01*
X81543117Y-118971057D01*
X81280327Y-118707808D01*
X80936799Y-118565162D01*
X80564833Y-118564838D01*
X80221057Y-118706883D01*
X79957808Y-118969673D01*
X79815162Y-119313201D01*
X79814838Y-119685167D01*
X79945069Y-120000351D01*
X79815162Y-120313201D01*
X79814838Y-120685167D01*
X79956883Y-121028943D01*
X80219673Y-121292192D01*
X80294471Y-121323251D01*
X79971057Y-121456883D01*
X79707808Y-121719673D01*
X79565162Y-122063201D01*
X79564838Y-122435167D01*
X79345000Y-122435167D01*
X79345000Y-116685167D01*
X86314838Y-116685167D01*
X86456883Y-117028943D01*
X86719673Y-117292192D01*
X87063201Y-117434838D01*
X87435167Y-117435162D01*
X87778943Y-117293117D01*
X88042192Y-117030327D01*
X88081706Y-116935167D01*
X88814838Y-116935167D01*
X88956883Y-117278943D01*
X89219673Y-117542192D01*
X89563201Y-117684838D01*
X89935167Y-117685162D01*
X90278943Y-117543117D01*
X90542192Y-117280327D01*
X90581706Y-117185167D01*
X91064838Y-117185167D01*
X91206883Y-117528943D01*
X91469673Y-117792192D01*
X91813201Y-117934838D01*
X92185167Y-117935162D01*
X92528943Y-117793117D01*
X92792192Y-117530327D01*
X92851956Y-117386400D01*
X94738960Y-117386400D01*
X94738960Y-119113600D01*
X94783238Y-119348917D01*
X94922310Y-119565041D01*
X95134510Y-119710031D01*
X95386400Y-119761040D01*
X97113600Y-119761040D01*
X97348917Y-119716762D01*
X97565041Y-119577690D01*
X97710031Y-119365490D01*
X97718908Y-119321655D01*
X98187152Y-119634526D01*
X98760641Y-119748600D01*
X98819359Y-119748600D01*
X99392848Y-119634526D01*
X99879029Y-119309670D01*
X100203885Y-118823489D01*
X100317959Y-118250000D01*
X100203885Y-117676511D01*
X99879029Y-117190330D01*
X99392848Y-116865474D01*
X98819359Y-116751400D01*
X98760641Y-116751400D01*
X98187152Y-116865474D01*
X97721558Y-117176574D01*
X97716762Y-117151083D01*
X97577690Y-116934959D01*
X97365490Y-116789969D01*
X97113600Y-116738960D01*
X95386400Y-116738960D01*
X95151083Y-116783238D01*
X94934959Y-116922310D01*
X94789969Y-117134510D01*
X94738960Y-117386400D01*
X92851956Y-117386400D01*
X92934838Y-117186799D01*
X92935162Y-116814833D01*
X92793117Y-116471057D01*
X92530327Y-116207808D01*
X92186799Y-116065162D01*
X91814833Y-116064838D01*
X91471057Y-116206883D01*
X91207808Y-116469673D01*
X91065162Y-116813201D01*
X91064838Y-117185167D01*
X90581706Y-117185167D01*
X90684838Y-116936799D01*
X90685162Y-116564833D01*
X90543117Y-116221057D01*
X90280327Y-115957808D01*
X89936799Y-115815162D01*
X89564833Y-115814838D01*
X89221057Y-115956883D01*
X88957808Y-116219673D01*
X88815162Y-116563201D01*
X88814838Y-116935167D01*
X88081706Y-116935167D01*
X88184838Y-116686799D01*
X88185162Y-116314833D01*
X88043117Y-115971057D01*
X87780327Y-115707808D01*
X87436799Y-115565162D01*
X87064833Y-115564838D01*
X86721057Y-115706883D01*
X86457808Y-115969673D01*
X86315162Y-116313201D01*
X86314838Y-116685167D01*
X79345000Y-116685167D01*
X79345000Y-114785167D01*
X95699838Y-114785167D01*
X95841883Y-115128943D01*
X96104673Y-115392192D01*
X96448201Y-115534838D01*
X96820167Y-115535162D01*
X97163943Y-115393117D01*
X97427192Y-115130327D01*
X97515501Y-114917655D01*
X105274000Y-114917655D01*
X105274000Y-114982345D01*
X105399675Y-115614155D01*
X105757567Y-116149778D01*
X106293190Y-116507670D01*
X106925000Y-116633345D01*
X107556810Y-116507670D01*
X108092433Y-116149778D01*
X108450325Y-115614155D01*
X108576000Y-114982345D01*
X108576000Y-114917655D01*
X108450325Y-114285845D01*
X108092433Y-113750222D01*
X107556810Y-113392330D01*
X106925000Y-113266655D01*
X106293190Y-113392330D01*
X105757567Y-113750222D01*
X105399675Y-114285845D01*
X105274000Y-114917655D01*
X97515501Y-114917655D01*
X97569838Y-114786799D01*
X97570162Y-114414833D01*
X97445083Y-114112118D01*
X97627192Y-113930327D01*
X97769838Y-113586799D01*
X97770162Y-113214833D01*
X97628117Y-112871057D01*
X97365327Y-112607808D01*
X97021799Y-112465162D01*
X96649833Y-112464838D01*
X96306057Y-112606883D01*
X96042808Y-112869673D01*
X95900162Y-113213201D01*
X95899838Y-113585167D01*
X96024917Y-113887882D01*
X95842808Y-114069673D01*
X95700162Y-114413201D01*
X95699838Y-114785167D01*
X79345000Y-114785167D01*
X79345000Y-113185167D01*
X81064838Y-113185167D01*
X81206883Y-113528943D01*
X81469673Y-113792192D01*
X81813201Y-113934838D01*
X82185167Y-113935162D01*
X82528943Y-113793117D01*
X82792192Y-113530327D01*
X82934838Y-113186799D01*
X82935162Y-112814833D01*
X82793117Y-112471057D01*
X82530327Y-112207808D01*
X82186799Y-112065162D01*
X81814833Y-112064838D01*
X81471057Y-112206883D01*
X81207808Y-112469673D01*
X81065162Y-112813201D01*
X81064838Y-113185167D01*
X79345000Y-113185167D01*
X79345000Y-111985167D01*
X88899838Y-111985167D01*
X89041883Y-112328943D01*
X89304673Y-112592192D01*
X89648201Y-112734838D01*
X90020167Y-112735162D01*
X90363943Y-112593117D01*
X90535068Y-112422291D01*
X90704673Y-112592192D01*
X91048201Y-112734838D01*
X91420167Y-112735162D01*
X91763943Y-112593117D01*
X92027192Y-112330327D01*
X92169838Y-111986799D01*
X92169935Y-111875348D01*
X92313201Y-111934838D01*
X92685167Y-111935162D01*
X93028943Y-111793117D01*
X93292192Y-111530327D01*
X93434838Y-111186799D01*
X93435162Y-110814833D01*
X93293117Y-110471057D01*
X93030327Y-110207808D01*
X92686799Y-110065162D01*
X92314833Y-110064838D01*
X91971057Y-110206883D01*
X91707808Y-110469673D01*
X91565162Y-110813201D01*
X91565065Y-110924652D01*
X91421799Y-110865162D01*
X91049833Y-110864838D01*
X90706057Y-111006883D01*
X90534932Y-111177709D01*
X90365327Y-111007808D01*
X90021799Y-110865162D01*
X89649833Y-110864838D01*
X89306057Y-111006883D01*
X89042808Y-111269673D01*
X88900162Y-111613201D01*
X88899838Y-111985167D01*
X79345000Y-111985167D01*
X79345000Y-108935167D01*
X97064838Y-108935167D01*
X97206883Y-109278943D01*
X97469673Y-109542192D01*
X97813201Y-109684838D01*
X98185167Y-109685162D01*
X98528943Y-109543117D01*
X98792192Y-109280327D01*
X98934838Y-108936799D01*
X98935162Y-108564833D01*
X98793117Y-108221057D01*
X98530327Y-107957808D01*
X98186799Y-107815162D01*
X97814833Y-107814838D01*
X97471057Y-107956883D01*
X97207808Y-108219673D01*
X97065162Y-108563201D01*
X97064838Y-108935167D01*
X79345000Y-108935167D01*
X79345000Y-105935167D01*
X90064838Y-105935167D01*
X90206883Y-106278943D01*
X90469673Y-106542192D01*
X90813201Y-106684838D01*
X91185167Y-106685162D01*
X91528943Y-106543117D01*
X91792192Y-106280327D01*
X91934838Y-105936799D01*
X91935162Y-105564833D01*
X91793117Y-105221057D01*
X91530327Y-104957808D01*
X91186799Y-104815162D01*
X90814833Y-104814838D01*
X90471057Y-104956883D01*
X90207808Y-105219673D01*
X90065162Y-105563201D01*
X90064838Y-105935167D01*
X79345000Y-105935167D01*
X79345000Y-102935167D01*
X88064838Y-102935167D01*
X88206883Y-103278943D01*
X88469673Y-103542192D01*
X88813201Y-103684838D01*
X89185167Y-103685162D01*
X89528943Y-103543117D01*
X89792192Y-103280327D01*
X89934838Y-102936799D01*
X89935162Y-102564833D01*
X89793117Y-102221057D01*
X89530327Y-101957808D01*
X89186799Y-101815162D01*
X88814833Y-101814838D01*
X88471057Y-101956883D01*
X88207808Y-102219673D01*
X88065162Y-102563201D01*
X88064838Y-102935167D01*
X79345000Y-102935167D01*
X79345000Y-100435167D01*
X92314838Y-100435167D01*
X92456883Y-100778943D01*
X92719673Y-101042192D01*
X93063201Y-101184838D01*
X93435167Y-101185162D01*
X93778943Y-101043117D01*
X94042192Y-100780327D01*
X94184838Y-100436799D01*
X94184882Y-100385167D01*
X96299838Y-100385167D01*
X96441883Y-100728943D01*
X96704673Y-100992192D01*
X97048201Y-101134838D01*
X97420167Y-101135162D01*
X97763943Y-100993117D01*
X98027192Y-100730327D01*
X98169838Y-100386799D01*
X98170162Y-100014833D01*
X98028117Y-99671057D01*
X97765327Y-99407808D01*
X97421799Y-99265162D01*
X97049833Y-99264838D01*
X96706057Y-99406883D01*
X96442808Y-99669673D01*
X96300162Y-100013201D01*
X96299838Y-100385167D01*
X94184882Y-100385167D01*
X94185162Y-100064833D01*
X94043117Y-99721057D01*
X93780327Y-99457808D01*
X93436799Y-99315162D01*
X93064833Y-99314838D01*
X92721057Y-99456883D01*
X92457808Y-99719673D01*
X92315162Y-100063201D01*
X92314838Y-100435167D01*
X79345000Y-100435167D01*
X79345000Y-98303991D01*
X81964735Y-98303991D01*
X82197932Y-98868371D01*
X82629357Y-99300551D01*
X83193330Y-99534733D01*
X83803991Y-99535265D01*
X84368371Y-99302068D01*
X84616882Y-99053991D01*
X103214735Y-99053991D01*
X103447932Y-99618371D01*
X103879357Y-100050551D01*
X104443330Y-100284733D01*
X105053991Y-100285265D01*
X105618371Y-100052068D01*
X106050551Y-99620643D01*
X106284733Y-99056670D01*
X106285265Y-98446009D01*
X106052068Y-97881629D01*
X105620643Y-97449449D01*
X105056670Y-97215267D01*
X104446009Y-97214735D01*
X103881629Y-97447932D01*
X103449449Y-97879357D01*
X103215267Y-98443330D01*
X103214735Y-99053991D01*
X84616882Y-99053991D01*
X84800551Y-98870643D01*
X85034733Y-98306670D01*
X85035265Y-97696009D01*
X84802068Y-97131629D01*
X84370643Y-96699449D01*
X84336249Y-96685167D01*
X90064838Y-96685167D01*
X90206883Y-97028943D01*
X90469673Y-97292192D01*
X90813201Y-97434838D01*
X91185167Y-97435162D01*
X91528943Y-97293117D01*
X91792192Y-97030327D01*
X91934838Y-96686799D01*
X91935162Y-96314833D01*
X91793117Y-95971057D01*
X91530327Y-95707808D01*
X91186799Y-95565162D01*
X90814833Y-95564838D01*
X90471057Y-95706883D01*
X90207808Y-95969673D01*
X90065162Y-96313201D01*
X90064838Y-96685167D01*
X84336249Y-96685167D01*
X83806670Y-96465267D01*
X83196009Y-96464735D01*
X82631629Y-96697932D01*
X82199449Y-97129357D01*
X81965267Y-97693330D01*
X81964735Y-98303991D01*
X79345000Y-98303991D01*
X79345000Y-94410000D01*
X92993015Y-94410000D01*
X92950162Y-94513201D01*
X92950162Y-94513201D01*
G37*
X92950162Y-94513201D02*
X92949838Y-94885167D01*
X93091883Y-95228943D01*
X93354673Y-95492192D01*
X93698201Y-95634838D01*
X94070167Y-95635162D01*
X94413943Y-95493117D01*
X94677192Y-95230327D01*
X94819838Y-94886799D01*
X94820162Y-94514833D01*
X94776846Y-94410000D01*
X108675000Y-94410000D01*
X108675000Y-104465034D01*
X108449833Y-104464838D01*
X108106057Y-104606883D01*
X107842808Y-104869673D01*
X107700162Y-105213201D01*
X107699838Y-105585167D01*
X107841883Y-105928943D01*
X108104673Y-106192192D01*
X108448201Y-106334838D01*
X108675000Y-106335036D01*
X108675000Y-143490000D01*
X79345000Y-143490000D01*
X79345000Y-140303991D01*
X81964735Y-140303991D01*
X82197932Y-140868371D01*
X82629357Y-141300551D01*
X83193330Y-141534733D01*
X83803991Y-141535265D01*
X84368371Y-141302068D01*
X84485476Y-141185167D01*
X95064838Y-141185167D01*
X95206883Y-141528943D01*
X95469673Y-141792192D01*
X95813201Y-141934838D01*
X96185167Y-141935162D01*
X96528943Y-141793117D01*
X96792192Y-141530327D01*
X96934838Y-141186799D01*
X96935162Y-140814833D01*
X96793117Y-140471057D01*
X96530327Y-140207808D01*
X96186799Y-140065162D01*
X95814833Y-140064838D01*
X95471057Y-140206883D01*
X95207808Y-140469673D01*
X95065162Y-140813201D01*
X95064838Y-141185167D01*
X84485476Y-141185167D01*
X84800551Y-140870643D01*
X85034733Y-140306670D01*
X85035265Y-139696009D01*
X85030786Y-139685167D01*
X89314838Y-139685167D01*
X89456883Y-140028943D01*
X89719673Y-140292192D01*
X90063201Y-140434838D01*
X90435167Y-140435162D01*
X90778943Y-140293117D01*
X90835935Y-140236225D01*
X90956883Y-140528943D01*
X91219673Y-140792192D01*
X91563201Y-140934838D01*
X91935167Y-140935162D01*
X92278943Y-140793117D01*
X92542192Y-140530327D01*
X92684838Y-140186799D01*
X92684953Y-140053991D01*
X103714735Y-140053991D01*
X103947932Y-140618371D01*
X104379357Y-141050551D01*
X104943330Y-141284733D01*
X105553991Y-141285265D01*
X106118371Y-141052068D01*
X106550551Y-140620643D01*
X106784733Y-140056670D01*
X106785265Y-139446009D01*
X106552068Y-138881629D01*
X106120643Y-138449449D01*
X105556670Y-138215267D01*
X104946009Y-138214735D01*
X104381629Y-138447932D01*
X103949449Y-138879357D01*
X103715267Y-139443330D01*
X103714735Y-140053991D01*
X92684953Y-140053991D01*
X92685162Y-139814833D01*
X92543117Y-139471057D01*
X92280327Y-139207808D01*
X91936799Y-139065162D01*
X91564833Y-139064838D01*
X91221057Y-139206883D01*
X91164065Y-139263775D01*
X91043117Y-138971057D01*
X91007290Y-138935167D01*
X93064838Y-138935167D01*
X93206883Y-139278943D01*
X93469673Y-139542192D01*
X93813201Y-139684838D01*
X94185167Y-139685162D01*
X94528943Y-139543117D01*
X94792192Y-139280327D01*
X94934838Y-138936799D01*
X94935162Y-138564833D01*
X94793117Y-138221057D01*
X94707377Y-138135167D01*
X98449838Y-138135167D01*
X98591883Y-138478943D01*
X98854673Y-138742192D01*
X99198201Y-138884838D01*
X99570167Y-138885162D01*
X99913943Y-138743117D01*
X100177192Y-138480327D01*
X100319838Y-138136799D01*
X100320162Y-137764833D01*
X100178117Y-137421057D01*
X99915327Y-137157808D01*
X99571799Y-137015162D01*
X99199833Y-137014838D01*
X98856057Y-137156883D01*
X98592808Y-137419673D01*
X98450162Y-137763201D01*
X98449838Y-138135167D01*
X94707377Y-138135167D01*
X94530327Y-137957808D01*
X94186799Y-137815162D01*
X93814833Y-137814838D01*
X93471057Y-137956883D01*
X93207808Y-138219673D01*
X93065162Y-138563201D01*
X93064838Y-138935167D01*
X91007290Y-138935167D01*
X90780327Y-138707808D01*
X90436799Y-138565162D01*
X90064833Y-138564838D01*
X89721057Y-138706883D01*
X89457808Y-138969673D01*
X89315162Y-139313201D01*
X89314838Y-139685167D01*
X85030786Y-139685167D01*
X84802068Y-139131629D01*
X84370643Y-138699449D01*
X83806670Y-138465267D01*
X83196009Y-138464735D01*
X82631629Y-138697932D01*
X82199449Y-139129357D01*
X81965267Y-139693330D01*
X81964735Y-140303991D01*
X79345000Y-140303991D01*
X79345000Y-134985167D01*
X96699838Y-134985167D01*
X96841883Y-135328943D01*
X97104673Y-135592192D01*
X97448201Y-135734838D01*
X97820167Y-135735162D01*
X98163943Y-135593117D01*
X98427192Y-135330327D01*
X98569838Y-134986799D01*
X98570162Y-134614833D01*
X98428117Y-134271057D01*
X98165327Y-134007808D01*
X97821799Y-133865162D01*
X97449833Y-133864838D01*
X97106057Y-134006883D01*
X96842808Y-134269673D01*
X96700162Y-134613201D01*
X96699838Y-134985167D01*
X79345000Y-134985167D01*
X79345000Y-129585167D01*
X97499838Y-129585167D01*
X97641883Y-129928943D01*
X97904673Y-130192192D01*
X98248201Y-130334838D01*
X98620167Y-130335162D01*
X98963943Y-130193117D01*
X99227192Y-129930327D01*
X99369838Y-129586799D01*
X99370162Y-129214833D01*
X99228117Y-128871057D01*
X98965327Y-128607808D01*
X98621799Y-128465162D01*
X98249833Y-128464838D01*
X97906057Y-128606883D01*
X97642808Y-128869673D01*
X97500162Y-129213201D01*
X97499838Y-129585167D01*
X79345000Y-129585167D01*
X79345000Y-125410000D01*
X102567041Y-125410000D01*
X102681115Y-125983489D01*
X103005971Y-126469670D01*
X103320752Y-126680000D01*
X103005971Y-126890330D01*
X102681115Y-127376511D01*
X102567041Y-127950000D01*
X102681115Y-128523489D01*
X103005971Y-129009670D01*
X103492152Y-129334526D01*
X104065641Y-129448600D01*
X104124359Y-129448600D01*
X104697848Y-129334526D01*
X105184029Y-129009670D01*
X105508885Y-128523489D01*
X105622959Y-127950000D01*
X105508885Y-127376511D01*
X105184029Y-126890330D01*
X104869248Y-126680000D01*
X105184029Y-126469670D01*
X105365000Y-126198828D01*
X105545971Y-126469670D01*
X106032152Y-126794526D01*
X106605641Y-126908600D01*
X106664359Y-126908600D01*
X107237848Y-126794526D01*
X107724029Y-126469670D01*
X108048885Y-125983489D01*
X108162959Y-125410000D01*
X108048885Y-124836511D01*
X107724029Y-124350330D01*
X107237848Y-124025474D01*
X106664359Y-123911400D01*
X106605641Y-123911400D01*
X106032152Y-124025474D01*
X105545971Y-124350330D01*
X105365000Y-124621172D01*
X105184029Y-124350330D01*
X104697848Y-124025474D01*
X104124359Y-123911400D01*
X104065641Y-123911400D01*
X103492152Y-124025474D01*
X103005971Y-124350330D01*
X102681115Y-124836511D01*
X102567041Y-125410000D01*
X79345000Y-125410000D01*
X79345000Y-123385167D01*
X90699838Y-123385167D01*
X90841883Y-123728943D01*
X91104673Y-123992192D01*
X91448201Y-124134838D01*
X91820167Y-124135162D01*
X92163943Y-123993117D01*
X92427192Y-123730327D01*
X92569838Y-123386799D01*
X92569887Y-123330000D01*
X94722041Y-123330000D01*
X94836115Y-123903489D01*
X95160971Y-124389670D01*
X95647152Y-124714526D01*
X96220641Y-124828600D01*
X96279359Y-124828600D01*
X96852848Y-124714526D01*
X97339029Y-124389670D01*
X97520000Y-124118828D01*
X97700971Y-124389670D01*
X98187152Y-124714526D01*
X98760641Y-124828600D01*
X98819359Y-124828600D01*
X99392848Y-124714526D01*
X99879029Y-124389670D01*
X100203885Y-123903489D01*
X100317959Y-123330000D01*
X100203885Y-122756511D01*
X99879029Y-122270330D01*
X99392848Y-121945474D01*
X98819359Y-121831400D01*
X98760641Y-121831400D01*
X98187152Y-121945474D01*
X97700971Y-122270330D01*
X97520000Y-122541172D01*
X97339029Y-122270330D01*
X96852848Y-121945474D01*
X96279359Y-121831400D01*
X96220641Y-121831400D01*
X95647152Y-121945474D01*
X95160971Y-122270330D01*
X94836115Y-122756511D01*
X94722041Y-123330000D01*
X92569887Y-123330000D01*
X92570162Y-123014833D01*
X92428117Y-122671057D01*
X92165327Y-122407808D01*
X91821799Y-122265162D01*
X91449833Y-122264838D01*
X91106057Y-122406883D01*
X90842808Y-122669673D01*
X90700162Y-123013201D01*
X90699838Y-123385167D01*
X79345000Y-123385167D01*
X79345000Y-122435167D01*
X79564838Y-122435167D01*
X79706883Y-122778943D01*
X79969673Y-123042192D01*
X80313201Y-123184838D01*
X80685167Y-123185162D01*
X81028943Y-123043117D01*
X81292192Y-122780327D01*
X81434838Y-122436799D01*
X81435162Y-122064833D01*
X81293117Y-121721057D01*
X81257290Y-121685167D01*
X88814838Y-121685167D01*
X88956883Y-122028943D01*
X89219673Y-122292192D01*
X89563201Y-122434838D01*
X89935167Y-122435162D01*
X90278943Y-122293117D01*
X90542192Y-122030327D01*
X90684838Y-121686799D01*
X90685162Y-121314833D01*
X90543117Y-120971057D01*
X90280327Y-120707808D01*
X89936799Y-120565162D01*
X89564833Y-120564838D01*
X89221057Y-120706883D01*
X88957808Y-120969673D01*
X88815162Y-121313201D01*
X88814838Y-121685167D01*
X81257290Y-121685167D01*
X81030327Y-121457808D01*
X80955529Y-121426749D01*
X81278943Y-121293117D01*
X81542192Y-121030327D01*
X81684838Y-120686799D01*
X81685148Y-120330000D01*
X102567041Y-120330000D01*
X102681115Y-120903489D01*
X103005971Y-121389670D01*
X103492152Y-121714526D01*
X104065641Y-121828600D01*
X104124359Y-121828600D01*
X104697848Y-121714526D01*
X105184029Y-121389670D01*
X105365000Y-121118828D01*
X105545971Y-121389670D01*
X106032152Y-121714526D01*
X106605641Y-121828600D01*
X106664359Y-121828600D01*
X107237848Y-121714526D01*
X107724029Y-121389670D01*
X108048885Y-120903489D01*
X108162959Y-120330000D01*
X108048885Y-119756511D01*
X107724029Y-119270330D01*
X107237848Y-118945474D01*
X106664359Y-118831400D01*
X106605641Y-118831400D01*
X106032152Y-118945474D01*
X105545971Y-119270330D01*
X105365000Y-119541172D01*
X105184029Y-119270330D01*
X104697848Y-118945474D01*
X104124359Y-118831400D01*
X104065641Y-118831400D01*
X103492152Y-118945474D01*
X103005971Y-119270330D01*
X102681115Y-119756511D01*
X102567041Y-120330000D01*
X81685148Y-120330000D01*
X81685162Y-120314833D01*
X81554931Y-119999649D01*
X81684838Y-119686799D01*
X81685162Y-119314833D01*
X81543117Y-118971057D01*
X81280327Y-118707808D01*
X80936799Y-118565162D01*
X80564833Y-118564838D01*
X80221057Y-118706883D01*
X79957808Y-118969673D01*
X79815162Y-119313201D01*
X79814838Y-119685167D01*
X79945069Y-120000351D01*
X79815162Y-120313201D01*
X79814838Y-120685167D01*
X79956883Y-121028943D01*
X80219673Y-121292192D01*
X80294471Y-121323251D01*
X79971057Y-121456883D01*
X79707808Y-121719673D01*
X79565162Y-122063201D01*
X79564838Y-122435167D01*
X79345000Y-122435167D01*
X79345000Y-116685167D01*
X86314838Y-116685167D01*
X86456883Y-117028943D01*
X86719673Y-117292192D01*
X87063201Y-117434838D01*
X87435167Y-117435162D01*
X87778943Y-117293117D01*
X88042192Y-117030327D01*
X88081706Y-116935167D01*
X88814838Y-116935167D01*
X88956883Y-117278943D01*
X89219673Y-117542192D01*
X89563201Y-117684838D01*
X89935167Y-117685162D01*
X90278943Y-117543117D01*
X90542192Y-117280327D01*
X90581706Y-117185167D01*
X91064838Y-117185167D01*
X91206883Y-117528943D01*
X91469673Y-117792192D01*
X91813201Y-117934838D01*
X92185167Y-117935162D01*
X92528943Y-117793117D01*
X92792192Y-117530327D01*
X92851956Y-117386400D01*
X94738960Y-117386400D01*
X94738960Y-119113600D01*
X94783238Y-119348917D01*
X94922310Y-119565041D01*
X95134510Y-119710031D01*
X95386400Y-119761040D01*
X97113600Y-119761040D01*
X97348917Y-119716762D01*
X97565041Y-119577690D01*
X97710031Y-119365490D01*
X97718908Y-119321655D01*
X98187152Y-119634526D01*
X98760641Y-119748600D01*
X98819359Y-119748600D01*
X99392848Y-119634526D01*
X99879029Y-119309670D01*
X100203885Y-118823489D01*
X100317959Y-118250000D01*
X100203885Y-117676511D01*
X99879029Y-117190330D01*
X99392848Y-116865474D01*
X98819359Y-116751400D01*
X98760641Y-116751400D01*
X98187152Y-116865474D01*
X97721558Y-117176574D01*
X97716762Y-117151083D01*
X97577690Y-116934959D01*
X97365490Y-116789969D01*
X97113600Y-116738960D01*
X95386400Y-116738960D01*
X95151083Y-116783238D01*
X94934959Y-116922310D01*
X94789969Y-117134510D01*
X94738960Y-117386400D01*
X92851956Y-117386400D01*
X92934838Y-117186799D01*
X92935162Y-116814833D01*
X92793117Y-116471057D01*
X92530327Y-116207808D01*
X92186799Y-116065162D01*
X91814833Y-116064838D01*
X91471057Y-116206883D01*
X91207808Y-116469673D01*
X91065162Y-116813201D01*
X91064838Y-117185167D01*
X90581706Y-117185167D01*
X90684838Y-116936799D01*
X90685162Y-116564833D01*
X90543117Y-116221057D01*
X90280327Y-115957808D01*
X89936799Y-115815162D01*
X89564833Y-115814838D01*
X89221057Y-115956883D01*
X88957808Y-116219673D01*
X88815162Y-116563201D01*
X88814838Y-116935167D01*
X88081706Y-116935167D01*
X88184838Y-116686799D01*
X88185162Y-116314833D01*
X88043117Y-115971057D01*
X87780327Y-115707808D01*
X87436799Y-115565162D01*
X87064833Y-115564838D01*
X86721057Y-115706883D01*
X86457808Y-115969673D01*
X86315162Y-116313201D01*
X86314838Y-116685167D01*
X79345000Y-116685167D01*
X79345000Y-114785167D01*
X95699838Y-114785167D01*
X95841883Y-115128943D01*
X96104673Y-115392192D01*
X96448201Y-115534838D01*
X96820167Y-115535162D01*
X97163943Y-115393117D01*
X97427192Y-115130327D01*
X97515501Y-114917655D01*
X105274000Y-114917655D01*
X105274000Y-114982345D01*
X105399675Y-115614155D01*
X105757567Y-116149778D01*
X106293190Y-116507670D01*
X106925000Y-116633345D01*
X107556810Y-116507670D01*
X108092433Y-116149778D01*
X108450325Y-115614155D01*
X108576000Y-114982345D01*
X108576000Y-114917655D01*
X108450325Y-114285845D01*
X108092433Y-113750222D01*
X107556810Y-113392330D01*
X106925000Y-113266655D01*
X106293190Y-113392330D01*
X105757567Y-113750222D01*
X105399675Y-114285845D01*
X105274000Y-114917655D01*
X97515501Y-114917655D01*
X97569838Y-114786799D01*
X97570162Y-114414833D01*
X97445083Y-114112118D01*
X97627192Y-113930327D01*
X97769838Y-113586799D01*
X97770162Y-113214833D01*
X97628117Y-112871057D01*
X97365327Y-112607808D01*
X97021799Y-112465162D01*
X96649833Y-112464838D01*
X96306057Y-112606883D01*
X96042808Y-112869673D01*
X95900162Y-113213201D01*
X95899838Y-113585167D01*
X96024917Y-113887882D01*
X95842808Y-114069673D01*
X95700162Y-114413201D01*
X95699838Y-114785167D01*
X79345000Y-114785167D01*
X79345000Y-113185167D01*
X81064838Y-113185167D01*
X81206883Y-113528943D01*
X81469673Y-113792192D01*
X81813201Y-113934838D01*
X82185167Y-113935162D01*
X82528943Y-113793117D01*
X82792192Y-113530327D01*
X82934838Y-113186799D01*
X82935162Y-112814833D01*
X82793117Y-112471057D01*
X82530327Y-112207808D01*
X82186799Y-112065162D01*
X81814833Y-112064838D01*
X81471057Y-112206883D01*
X81207808Y-112469673D01*
X81065162Y-112813201D01*
X81064838Y-113185167D01*
X79345000Y-113185167D01*
X79345000Y-111985167D01*
X88899838Y-111985167D01*
X89041883Y-112328943D01*
X89304673Y-112592192D01*
X89648201Y-112734838D01*
X90020167Y-112735162D01*
X90363943Y-112593117D01*
X90535068Y-112422291D01*
X90704673Y-112592192D01*
X91048201Y-112734838D01*
X91420167Y-112735162D01*
X91763943Y-112593117D01*
X92027192Y-112330327D01*
X92169838Y-111986799D01*
X92169935Y-111875348D01*
X92313201Y-111934838D01*
X92685167Y-111935162D01*
X93028943Y-111793117D01*
X93292192Y-111530327D01*
X93434838Y-111186799D01*
X93435162Y-110814833D01*
X93293117Y-110471057D01*
X93030327Y-110207808D01*
X92686799Y-110065162D01*
X92314833Y-110064838D01*
X91971057Y-110206883D01*
X91707808Y-110469673D01*
X91565162Y-110813201D01*
X91565065Y-110924652D01*
X91421799Y-110865162D01*
X91049833Y-110864838D01*
X90706057Y-111006883D01*
X90534932Y-111177709D01*
X90365327Y-111007808D01*
X90021799Y-110865162D01*
X89649833Y-110864838D01*
X89306057Y-111006883D01*
X89042808Y-111269673D01*
X88900162Y-111613201D01*
X88899838Y-111985167D01*
X79345000Y-111985167D01*
X79345000Y-108935167D01*
X97064838Y-108935167D01*
X97206883Y-109278943D01*
X97469673Y-109542192D01*
X97813201Y-109684838D01*
X98185167Y-109685162D01*
X98528943Y-109543117D01*
X98792192Y-109280327D01*
X98934838Y-108936799D01*
X98935162Y-108564833D01*
X98793117Y-108221057D01*
X98530327Y-107957808D01*
X98186799Y-107815162D01*
X97814833Y-107814838D01*
X97471057Y-107956883D01*
X97207808Y-108219673D01*
X97065162Y-108563201D01*
X97064838Y-108935167D01*
X79345000Y-108935167D01*
X79345000Y-105935167D01*
X90064838Y-105935167D01*
X90206883Y-106278943D01*
X90469673Y-106542192D01*
X90813201Y-106684838D01*
X91185167Y-106685162D01*
X91528943Y-106543117D01*
X91792192Y-106280327D01*
X91934838Y-105936799D01*
X91935162Y-105564833D01*
X91793117Y-105221057D01*
X91530327Y-104957808D01*
X91186799Y-104815162D01*
X90814833Y-104814838D01*
X90471057Y-104956883D01*
X90207808Y-105219673D01*
X90065162Y-105563201D01*
X90064838Y-105935167D01*
X79345000Y-105935167D01*
X79345000Y-102935167D01*
X88064838Y-102935167D01*
X88206883Y-103278943D01*
X88469673Y-103542192D01*
X88813201Y-103684838D01*
X89185167Y-103685162D01*
X89528943Y-103543117D01*
X89792192Y-103280327D01*
X89934838Y-102936799D01*
X89935162Y-102564833D01*
X89793117Y-102221057D01*
X89530327Y-101957808D01*
X89186799Y-101815162D01*
X88814833Y-101814838D01*
X88471057Y-101956883D01*
X88207808Y-102219673D01*
X88065162Y-102563201D01*
X88064838Y-102935167D01*
X79345000Y-102935167D01*
X79345000Y-100435167D01*
X92314838Y-100435167D01*
X92456883Y-100778943D01*
X92719673Y-101042192D01*
X93063201Y-101184838D01*
X93435167Y-101185162D01*
X93778943Y-101043117D01*
X94042192Y-100780327D01*
X94184838Y-100436799D01*
X94184882Y-100385167D01*
X96299838Y-100385167D01*
X96441883Y-100728943D01*
X96704673Y-100992192D01*
X97048201Y-101134838D01*
X97420167Y-101135162D01*
X97763943Y-100993117D01*
X98027192Y-100730327D01*
X98169838Y-100386799D01*
X98170162Y-100014833D01*
X98028117Y-99671057D01*
X97765327Y-99407808D01*
X97421799Y-99265162D01*
X97049833Y-99264838D01*
X96706057Y-99406883D01*
X96442808Y-99669673D01*
X96300162Y-100013201D01*
X96299838Y-100385167D01*
X94184882Y-100385167D01*
X94185162Y-100064833D01*
X94043117Y-99721057D01*
X93780327Y-99457808D01*
X93436799Y-99315162D01*
X93064833Y-99314838D01*
X92721057Y-99456883D01*
X92457808Y-99719673D01*
X92315162Y-100063201D01*
X92314838Y-100435167D01*
X79345000Y-100435167D01*
X79345000Y-98303991D01*
X81964735Y-98303991D01*
X82197932Y-98868371D01*
X82629357Y-99300551D01*
X83193330Y-99534733D01*
X83803991Y-99535265D01*
X84368371Y-99302068D01*
X84616882Y-99053991D01*
X103214735Y-99053991D01*
X103447932Y-99618371D01*
X103879357Y-100050551D01*
X104443330Y-100284733D01*
X105053991Y-100285265D01*
X105618371Y-100052068D01*
X106050551Y-99620643D01*
X106284733Y-99056670D01*
X106285265Y-98446009D01*
X106052068Y-97881629D01*
X105620643Y-97449449D01*
X105056670Y-97215267D01*
X104446009Y-97214735D01*
X103881629Y-97447932D01*
X103449449Y-97879357D01*
X103215267Y-98443330D01*
X103214735Y-99053991D01*
X84616882Y-99053991D01*
X84800551Y-98870643D01*
X85034733Y-98306670D01*
X85035265Y-97696009D01*
X84802068Y-97131629D01*
X84370643Y-96699449D01*
X84336249Y-96685167D01*
X90064838Y-96685167D01*
X90206883Y-97028943D01*
X90469673Y-97292192D01*
X90813201Y-97434838D01*
X91185167Y-97435162D01*
X91528943Y-97293117D01*
X91792192Y-97030327D01*
X91934838Y-96686799D01*
X91935162Y-96314833D01*
X91793117Y-95971057D01*
X91530327Y-95707808D01*
X91186799Y-95565162D01*
X90814833Y-95564838D01*
X90471057Y-95706883D01*
X90207808Y-95969673D01*
X90065162Y-96313201D01*
X90064838Y-96685167D01*
X84336249Y-96685167D01*
X83806670Y-96465267D01*
X83196009Y-96464735D01*
X82631629Y-96697932D01*
X82199449Y-97129357D01*
X81965267Y-97693330D01*
X81964735Y-98303991D01*
X79345000Y-98303991D01*
X79345000Y-94410000D01*
X92993015Y-94410000D01*
X92950162Y-94513201D01*
M02*
