G04 #@! TF.FileFunction,Copper,L1,Top,Signal*
%FSLAX46Y46*%
G04 Gerber Fmt 4.6, Leading zero omitted, Abs format (unit mm)*
G04 Created by KiCad (PCBNEW 4.0.2-stable) date Mon 07 Mar 2016 11:14:17 AM HST*
%MOMM*%
G01*
G04 APERTURE LIST*
%ADD10C,0.100000*%
%ADD11R,0.500000X0.600000*%
%ADD12R,0.600000X0.500000*%
%ADD13R,1.250000X1.000000*%
%ADD14R,1.000000X1.250000*%
%ADD15R,1.727200X1.727200*%
%ADD16O,1.727200X1.727200*%
%ADD17R,2.032000X2.032000*%
%ADD18O,2.032000X2.032000*%
%ADD19R,0.400000X0.600000*%
%ADD20R,0.600000X0.400000*%
%ADD21C,1.800000*%
%ADD22R,0.760000X1.650000*%
%ADD23R,0.850000X0.300000*%
%ADD24R,0.300000X0.850000*%
%ADD25R,1.300000X1.300000*%
%ADD26R,0.700000X0.250000*%
%ADD27R,0.830000X1.190000*%
%ADD28R,0.600000X1.550000*%
%ADD29R,1.450000X0.450000*%
%ADD30R,0.450000X1.450000*%
%ADD31R,1.060000X0.650000*%
%ADD32R,0.797560X0.797560*%
%ADD33C,0.600000*%
%ADD34C,0.350000*%
%ADD35C,0.250000*%
%ADD36C,0.200000*%
G04 APERTURE END LIST*
D10*
D11*
X83500000Y-104550000D03*
X83500000Y-103450000D03*
D12*
X80950000Y-114000000D03*
X82050000Y-114000000D03*
D11*
X79750000Y-119700000D03*
X79750000Y-120800000D03*
D12*
X80950000Y-116000000D03*
X82050000Y-116000000D03*
D11*
X79750000Y-123300000D03*
X79750000Y-122200000D03*
X85000000Y-114050000D03*
X85000000Y-112950000D03*
X84500000Y-124450000D03*
X84500000Y-125550000D03*
X83000000Y-124450000D03*
X83000000Y-125550000D03*
X87500000Y-122550000D03*
X87500000Y-121450000D03*
X89000000Y-122550000D03*
X89000000Y-121450000D03*
X100500000Y-107700000D03*
X100500000Y-108800000D03*
X83500000Y-133450000D03*
X83500000Y-134550000D03*
D13*
X98750000Y-112500000D03*
X98750000Y-110500000D03*
D11*
X99000000Y-107700000D03*
X99000000Y-108800000D03*
D14*
X101500000Y-105500000D03*
X103500000Y-105500000D03*
D11*
X100750000Y-111800000D03*
X100750000Y-110700000D03*
X107000000Y-111300000D03*
X107000000Y-110200000D03*
D14*
X105500000Y-105500000D03*
X107500000Y-105500000D03*
D11*
X108500000Y-108800000D03*
X108500000Y-107700000D03*
D15*
X96250000Y-118250000D03*
D16*
X98790000Y-118250000D03*
X96250000Y-120790000D03*
X98790000Y-120790000D03*
X96250000Y-123330000D03*
X98790000Y-123330000D03*
D17*
X104385000Y-114950000D03*
D18*
X106925000Y-114950000D03*
D19*
X86450000Y-116500000D03*
X85550000Y-116500000D03*
D20*
X107000000Y-107800000D03*
X107000000Y-108700000D03*
D21*
X83500000Y-98000000D03*
X80960000Y-95460000D03*
X86040000Y-95460000D03*
X86040000Y-100540000D03*
X80960000Y-100540000D03*
D22*
X83500000Y-106910000D03*
X84770000Y-106910000D03*
X84770000Y-110090000D03*
X83500000Y-110090000D03*
X82230000Y-110090000D03*
X82230000Y-106910000D03*
D23*
X81800000Y-118750000D03*
X81800000Y-119250000D03*
X81800000Y-119750000D03*
X81800000Y-120250000D03*
X81800000Y-120750000D03*
X81800000Y-121250000D03*
D24*
X82500000Y-121950000D03*
X83000000Y-121950000D03*
X83500000Y-121950000D03*
X84000000Y-121950000D03*
X84500000Y-121950000D03*
X85000000Y-121950000D03*
D23*
X85700000Y-121250000D03*
X85700000Y-120750000D03*
X85700000Y-120250000D03*
X85700000Y-119750000D03*
X85700000Y-119250000D03*
X85700000Y-118750000D03*
D24*
X85000000Y-118050000D03*
X84500000Y-118050000D03*
X84000000Y-118050000D03*
X83500000Y-118050000D03*
X83000000Y-118050000D03*
X82500000Y-118050000D03*
D25*
X84400000Y-120650000D03*
X84400000Y-119350000D03*
X83100000Y-120650000D03*
X83100000Y-119350000D03*
D22*
X83500000Y-131090000D03*
X82230000Y-131090000D03*
X82230000Y-127910000D03*
X83500000Y-127910000D03*
X84770000Y-127910000D03*
X84770000Y-131090000D03*
D21*
X83500000Y-140000000D03*
X86040000Y-142540000D03*
X80960000Y-142540000D03*
X80960000Y-137460000D03*
X86040000Y-137460000D03*
D26*
X102350000Y-108500000D03*
X102350000Y-109000000D03*
X102350000Y-109500000D03*
X102350000Y-110000000D03*
X105150000Y-110000000D03*
X105150000Y-109500000D03*
X105150000Y-109000000D03*
X105150000Y-108500000D03*
D27*
X104165000Y-109845000D03*
X104165000Y-108655000D03*
X103335000Y-109845000D03*
X103335000Y-108655000D03*
D12*
X88800000Y-135000000D03*
X87700000Y-135000000D03*
D11*
X95750000Y-109700000D03*
X95750000Y-110800000D03*
D12*
X88950000Y-138250000D03*
X90050000Y-138250000D03*
D11*
X92500000Y-106700000D03*
X92500000Y-107800000D03*
X92750000Y-136700000D03*
X92750000Y-137800000D03*
X91750000Y-142300000D03*
X91750000Y-141200000D03*
X89000000Y-104800000D03*
X89000000Y-103700000D03*
D12*
X95300000Y-104750000D03*
X94200000Y-104750000D03*
D11*
X98500000Y-136950000D03*
X98500000Y-138050000D03*
X92000000Y-95450000D03*
X92000000Y-96550000D03*
D19*
X88950000Y-133250000D03*
X88050000Y-133250000D03*
D20*
X96250000Y-107700000D03*
X96250000Y-106800000D03*
D19*
X90200000Y-136750000D03*
X89300000Y-136750000D03*
X93800000Y-107750000D03*
X94700000Y-107750000D03*
D20*
X93500000Y-134700000D03*
X93500000Y-133800000D03*
X89250000Y-106800000D03*
X89250000Y-107700000D03*
D19*
X94950000Y-138000000D03*
X94050000Y-138000000D03*
D20*
X90500000Y-104700000D03*
X90500000Y-103800000D03*
D19*
X97200000Y-138000000D03*
X96300000Y-138000000D03*
D20*
X90000000Y-100550000D03*
X90000000Y-101450000D03*
X91750000Y-133800000D03*
X91750000Y-134700000D03*
X91000000Y-107700000D03*
X91000000Y-106800000D03*
D28*
X92905000Y-125800000D03*
X91635000Y-125800000D03*
X90365000Y-125800000D03*
X89095000Y-125800000D03*
X89095000Y-131200000D03*
X90365000Y-131200000D03*
X91635000Y-131200000D03*
X92905000Y-131200000D03*
X89845000Y-115200000D03*
X91115000Y-115200000D03*
X92385000Y-115200000D03*
X93655000Y-115200000D03*
X93655000Y-109800000D03*
X92385000Y-109800000D03*
X91115000Y-109800000D03*
X89845000Y-109800000D03*
D29*
X93800000Y-139775000D03*
X93800000Y-140425000D03*
X93800000Y-141075000D03*
X93800000Y-141725000D03*
X98200000Y-141725000D03*
X98200000Y-141075000D03*
X98200000Y-140425000D03*
X98200000Y-139775000D03*
D30*
X92025000Y-102700000D03*
X92675000Y-102700000D03*
X93325000Y-102700000D03*
X93975000Y-102700000D03*
X93975000Y-98300000D03*
X93325000Y-98300000D03*
X92675000Y-98300000D03*
X92025000Y-98300000D03*
D21*
X105250000Y-139750000D03*
X107790000Y-142290000D03*
X102710000Y-142290000D03*
X102710000Y-137210000D03*
X107790000Y-137210000D03*
X104750000Y-98750000D03*
X107290000Y-96210000D03*
X107290000Y-101290000D03*
X102210000Y-101290000D03*
X102210000Y-96210000D03*
D12*
X95885000Y-128600000D03*
X96985000Y-128600000D03*
D11*
X95635000Y-134950000D03*
X95635000Y-133850000D03*
X83500000Y-114050000D03*
X83500000Y-112950000D03*
D19*
X96185000Y-130200000D03*
X97085000Y-130200000D03*
D20*
X101635000Y-131750000D03*
X101635000Y-132650000D03*
X99635000Y-129350000D03*
X99635000Y-130250000D03*
D15*
X106635000Y-127950000D03*
D16*
X104095000Y-127950000D03*
X106635000Y-125410000D03*
X104095000Y-125410000D03*
X106635000Y-122870000D03*
X104095000Y-122870000D03*
X106635000Y-120330000D03*
X104095000Y-120330000D03*
D31*
X99535000Y-133750000D03*
X99535000Y-132800000D03*
X99535000Y-131850000D03*
X97335000Y-131850000D03*
X97335000Y-133750000D03*
D32*
X95135700Y-94700000D03*
X96634300Y-94700000D03*
D19*
X99385000Y-94700000D03*
X98485000Y-94700000D03*
D33*
X100135000Y-94700000D03*
X95035000Y-128600000D03*
X95235000Y-130200000D03*
X96635000Y-135000000D03*
X100635000Y-132800000D03*
X99750000Y-112500000D03*
X101500000Y-106750000D03*
X105250000Y-107000000D03*
X104165000Y-109845000D03*
X103335000Y-109845000D03*
X104165000Y-108655000D03*
X103335000Y-108655000D03*
X100500000Y-107000000D03*
X99000000Y-107000000D03*
X101750000Y-111750000D03*
X106300000Y-111300000D03*
X108500000Y-109750000D03*
X98500000Y-135750000D03*
X91750000Y-143250000D03*
X95000000Y-141750000D03*
X89000000Y-139250000D03*
X87000000Y-133250000D03*
X86750000Y-135000000D03*
X95750000Y-111750000D03*
X96250000Y-105750000D03*
X94000000Y-101250000D03*
X96250000Y-104750000D03*
X92500000Y-105750000D03*
X91000000Y-95500000D03*
X83000000Y-120750000D03*
X84500000Y-120750000D03*
X84500000Y-119250000D03*
X83000000Y-119250000D03*
X82250000Y-132500000D03*
X80500000Y-123250000D03*
X79750000Y-118750000D03*
X93750000Y-116750000D03*
X89000000Y-124250000D03*
X89000000Y-123500000D03*
X87500000Y-123500000D03*
X81000000Y-117000000D03*
X81000000Y-115000000D03*
X85000000Y-105500000D03*
X93885000Y-94700000D03*
X97635000Y-134800000D03*
X98435000Y-129400000D03*
X99385000Y-137950000D03*
X98000000Y-108750000D03*
X91000000Y-96500000D03*
X92500000Y-111000000D03*
X89750000Y-121500000D03*
X82000000Y-113000000D03*
X87250000Y-116500000D03*
X90250000Y-139500000D03*
X80500000Y-122250000D03*
X108635000Y-105400000D03*
X80750000Y-119500000D03*
X89750000Y-116750000D03*
X92000000Y-117000000D03*
X80750000Y-120500000D03*
X91635000Y-123200000D03*
X94000000Y-138750000D03*
X89000000Y-102750000D03*
X96635000Y-114600000D03*
X89835000Y-111800000D03*
X96835000Y-113400000D03*
X91235000Y-111800000D03*
X97235000Y-100200000D03*
X91750000Y-140000000D03*
X96000000Y-141000000D03*
X91000000Y-105750000D03*
X93250000Y-100250000D03*
D34*
X83500000Y-106910000D02*
X83500000Y-104550000D01*
X83500000Y-103450000D02*
X83500000Y-98000000D01*
D35*
X99385000Y-94700000D02*
X100135000Y-94700000D01*
D34*
X95885000Y-128600000D02*
X95035000Y-128600000D01*
X96185000Y-130200000D02*
X95235000Y-130200000D01*
X95635000Y-134950000D02*
X96585000Y-134950000D01*
X96585000Y-134950000D02*
X96635000Y-135000000D01*
X99535000Y-132800000D02*
X100635000Y-132800000D01*
D35*
X98750000Y-112500000D02*
X99750000Y-112500000D01*
X101500000Y-105500000D02*
X101500000Y-106750000D01*
X105500000Y-105500000D02*
X105500000Y-106750000D01*
X105500000Y-106750000D02*
X105250000Y-107000000D01*
X103180000Y-110000000D02*
X103335000Y-109845000D01*
X102350000Y-110000000D02*
X103180000Y-110000000D01*
X100500000Y-107700000D02*
X100500000Y-107000000D01*
X99000000Y-107700000D02*
X99000000Y-107000000D01*
X100750000Y-111800000D02*
X101700000Y-111800000D01*
X101700000Y-111800000D02*
X101750000Y-111750000D01*
X106300000Y-111300000D02*
X106250000Y-111250000D01*
X107000000Y-111300000D02*
X106300000Y-111300000D01*
X108500000Y-108800000D02*
X108500000Y-109750000D01*
D34*
X98500000Y-136950000D02*
X98500000Y-135750000D01*
X91750000Y-142300000D02*
X91750000Y-143250000D01*
X93800000Y-141725000D02*
X94975000Y-141725000D01*
X94975000Y-141725000D02*
X95000000Y-141750000D01*
X88950000Y-138250000D02*
X88950000Y-139200000D01*
X88950000Y-139200000D02*
X89000000Y-139250000D01*
X88050000Y-133250000D02*
X87000000Y-133250000D01*
X87700000Y-135000000D02*
X86750000Y-135000000D01*
X95750000Y-110800000D02*
X95750000Y-111750000D01*
X96250000Y-106800000D02*
X96250000Y-105750000D01*
X93975000Y-102700000D02*
X93975000Y-101275000D01*
X93975000Y-101275000D02*
X94000000Y-101250000D01*
X95300000Y-104750000D02*
X96250000Y-104750000D01*
X92500000Y-106700000D02*
X92500000Y-105750000D01*
X92000000Y-95450000D02*
X91050000Y-95450000D01*
X91050000Y-95450000D02*
X91000000Y-95500000D01*
D35*
X83000000Y-120750000D02*
X83100000Y-120650000D01*
X84500000Y-120750000D02*
X84400000Y-120650000D01*
X84500000Y-119250000D02*
X84400000Y-119350000D01*
X83000000Y-119250000D02*
X83100000Y-119350000D01*
X82230000Y-131090000D02*
X82230000Y-132480000D01*
X82230000Y-132480000D02*
X82250000Y-132500000D01*
X79750000Y-123300000D02*
X80450000Y-123300000D01*
X80450000Y-123300000D02*
X80500000Y-123250000D01*
D34*
X79750000Y-119700000D02*
X79750000Y-118750000D01*
X93655000Y-115200000D02*
X93655000Y-116655000D01*
X93655000Y-116655000D02*
X93750000Y-116750000D01*
X89095000Y-125800000D02*
X89095000Y-124595000D01*
X89000000Y-124500000D02*
X89000000Y-124250000D01*
X89095000Y-124595000D02*
X89000000Y-124500000D01*
D36*
X89000000Y-122550000D02*
X89000000Y-123500000D01*
X87500000Y-122550000D02*
X87500000Y-123500000D01*
X81800000Y-120750000D02*
X83000000Y-120750000D01*
X82500000Y-121950000D02*
X83000000Y-121950000D01*
X83000000Y-121950000D02*
X83000000Y-120750000D01*
X83000000Y-120750000D02*
X83100000Y-120650000D01*
X84500000Y-121950000D02*
X84500000Y-120750000D01*
X85700000Y-120750000D02*
X84500000Y-120750000D01*
X84400000Y-120650000D02*
X84400000Y-119350000D01*
X83100000Y-120650000D02*
X84400000Y-120650000D01*
X83100000Y-119350000D02*
X83100000Y-120650000D01*
X84400000Y-119350000D02*
X83100000Y-119350000D01*
X85700000Y-118750000D02*
X85700000Y-118800000D01*
X85700000Y-118800000D02*
X85700000Y-119250000D01*
X85700000Y-119250000D02*
X84500000Y-119250000D01*
X84500000Y-118050000D02*
X84500000Y-119250000D01*
X84500000Y-119250000D02*
X84400000Y-119350000D01*
X81800000Y-118750000D02*
X81800000Y-119250000D01*
X81800000Y-119250000D02*
X83000000Y-119250000D01*
X83000000Y-118050000D02*
X83000000Y-119250000D01*
X83000000Y-119250000D02*
X83100000Y-119350000D01*
D35*
X80950000Y-116000000D02*
X80950000Y-116950000D01*
X80950000Y-116950000D02*
X81000000Y-117000000D01*
X80950000Y-114000000D02*
X80950000Y-114950000D01*
X80950000Y-114950000D02*
X81000000Y-115000000D01*
D34*
X84770000Y-106910000D02*
X84770000Y-105730000D01*
X84770000Y-105730000D02*
X85000000Y-105500000D01*
D35*
X95135700Y-94700000D02*
X93885000Y-94700000D01*
D34*
X97335000Y-133750000D02*
X97335000Y-134500000D01*
X97335000Y-134500000D02*
X97635000Y-134800000D01*
X97335000Y-133750000D02*
X95735000Y-133750000D01*
X95735000Y-133750000D02*
X95635000Y-133850000D01*
X99635000Y-129350000D02*
X98485000Y-129350000D01*
X98485000Y-129350000D02*
X98435000Y-129400000D01*
X98500000Y-138050000D02*
X99285000Y-138050000D01*
X99285000Y-138050000D02*
X99385000Y-137950000D01*
D35*
X99000000Y-108800000D02*
X98050000Y-108800000D01*
X98050000Y-108800000D02*
X98000000Y-108750000D01*
X99000000Y-108800000D02*
X99000000Y-110250000D01*
X99000000Y-110250000D02*
X98750000Y-110500000D01*
X100500000Y-108800000D02*
X99000000Y-108800000D01*
X100500000Y-108800000D02*
X101050000Y-108800000D01*
X101250000Y-109000000D02*
X102350000Y-109000000D01*
X101050000Y-108800000D02*
X101250000Y-109000000D01*
D34*
X92000000Y-96550000D02*
X91950000Y-96500000D01*
X91950000Y-96500000D02*
X91000000Y-96500000D01*
X92385000Y-109800000D02*
X92500000Y-109915000D01*
X92500000Y-109915000D02*
X92500000Y-111000000D01*
X89000000Y-121450000D02*
X89700000Y-121450000D01*
X89700000Y-121450000D02*
X89750000Y-121500000D01*
X82050000Y-114000000D02*
X82050000Y-113050000D01*
X82050000Y-113050000D02*
X82000000Y-113000000D01*
X86450000Y-116500000D02*
X87250000Y-116500000D01*
X98200000Y-139775000D02*
X98200000Y-139300000D01*
X98500000Y-139000000D02*
X98500000Y-138050000D01*
X98200000Y-139300000D02*
X98500000Y-139000000D01*
X90050000Y-138250000D02*
X90050000Y-139300000D01*
X90050000Y-139300000D02*
X90250000Y-139500000D01*
X90200000Y-136750000D02*
X90200000Y-138100000D01*
X90200000Y-138100000D02*
X90050000Y-138250000D01*
X90365000Y-131200000D02*
X90365000Y-135885000D01*
X90200000Y-136050000D02*
X90200000Y-136750000D01*
X90365000Y-135885000D02*
X90200000Y-136050000D01*
X92500000Y-107800000D02*
X93750000Y-107800000D01*
X93750000Y-107800000D02*
X93800000Y-107750000D01*
X92500000Y-107800000D02*
X92500000Y-109685000D01*
X92500000Y-109685000D02*
X92385000Y-109800000D01*
X92000000Y-96550000D02*
X92000000Y-98275000D01*
X92000000Y-98275000D02*
X92025000Y-98300000D01*
D35*
X79750000Y-122200000D02*
X80450000Y-122200000D01*
X80450000Y-122200000D02*
X80500000Y-122250000D01*
X81800000Y-121250000D02*
X79750000Y-121250000D01*
X79750000Y-120800000D02*
X79750000Y-121250000D01*
X79750000Y-121250000D02*
X79750000Y-122200000D01*
D34*
X87500000Y-121450000D02*
X89000000Y-121450000D01*
D36*
X85700000Y-121250000D02*
X86250000Y-121250000D01*
X86450000Y-121450000D02*
X87500000Y-121450000D01*
X86250000Y-121250000D02*
X86450000Y-121450000D01*
D35*
X82050000Y-116000000D02*
X82050000Y-114000000D01*
X82500000Y-118050000D02*
X82500000Y-117000000D01*
X82050000Y-116550000D02*
X82050000Y-116000000D01*
X82500000Y-117000000D02*
X82050000Y-116550000D01*
D34*
X83500000Y-114050000D02*
X83500000Y-116500000D01*
D35*
X83500000Y-116500000D02*
X83500000Y-118050000D01*
D34*
X83500000Y-112950000D02*
X83500000Y-112500000D01*
X82230000Y-111230000D02*
X82230000Y-110090000D01*
X83500000Y-112500000D02*
X82230000Y-111230000D01*
X84500000Y-116500000D02*
X84500000Y-115500000D01*
D35*
X84000000Y-117000000D02*
X84500000Y-116500000D01*
X84000000Y-118050000D02*
X84000000Y-117000000D01*
D34*
X85000000Y-115000000D02*
X85000000Y-114050000D01*
X84500000Y-115500000D02*
X85000000Y-115000000D01*
X84770000Y-110090000D02*
X84770000Y-111270000D01*
X85000000Y-111500000D02*
X85000000Y-112950000D01*
X84770000Y-111270000D02*
X85000000Y-111500000D01*
X84500000Y-124450000D02*
X84500000Y-123000000D01*
D35*
X84000000Y-122500000D02*
X84500000Y-123000000D01*
X84000000Y-122500000D02*
X84000000Y-121950000D01*
D34*
X84500000Y-125550000D02*
X84500000Y-126000000D01*
X84770000Y-126270000D02*
X84770000Y-127910000D01*
X84500000Y-126000000D02*
X84770000Y-126270000D01*
X83000000Y-124450000D02*
X83000000Y-123000000D01*
D35*
X83500000Y-122500000D02*
X83000000Y-123000000D01*
X83500000Y-122500000D02*
X83500000Y-121950000D01*
D34*
X83000000Y-125550000D02*
X83000000Y-126000000D01*
X82230000Y-126770000D02*
X82230000Y-127910000D01*
X83000000Y-126000000D02*
X82230000Y-126770000D01*
X83500000Y-133450000D02*
X83500000Y-131090000D01*
X83500000Y-134550000D02*
X83500000Y-140000000D01*
D35*
X102350000Y-108500000D02*
X101750000Y-108500000D01*
X103500000Y-106500000D02*
X103500000Y-105500000D01*
X103000000Y-107000000D02*
X103500000Y-106500000D01*
X102250000Y-107000000D02*
X103000000Y-107000000D01*
X101750000Y-107500000D02*
X102250000Y-107000000D01*
X101750000Y-108500000D02*
X101750000Y-107500000D01*
X102350000Y-109500000D02*
X101250000Y-109500000D01*
X100750000Y-110000000D02*
X100750000Y-110700000D01*
X101250000Y-109500000D02*
X100750000Y-110000000D01*
X105150000Y-110000000D02*
X106800000Y-110000000D01*
X106800000Y-110000000D02*
X107000000Y-110200000D01*
X105150000Y-109500000D02*
X106750000Y-109500000D01*
X107000000Y-109750000D02*
X107000000Y-110200000D01*
X106750000Y-109500000D02*
X107000000Y-109750000D01*
D34*
X108535000Y-105500000D02*
X107500000Y-105500000D01*
X108635000Y-105400000D02*
X108535000Y-105500000D01*
D35*
X107000000Y-107800000D02*
X108400000Y-107800000D01*
X108400000Y-107800000D02*
X108500000Y-107700000D01*
X107000000Y-107800000D02*
X107000000Y-107000000D01*
X107000000Y-107000000D02*
X107500000Y-106500000D01*
X107500000Y-106500000D02*
X107500000Y-105500000D01*
X105150000Y-108500000D02*
X105500000Y-108500000D01*
X105500000Y-108500000D02*
X106200000Y-107800000D01*
X106200000Y-107800000D02*
X107000000Y-107800000D01*
X85000000Y-118050000D02*
X85000000Y-117500000D01*
X85550000Y-116950000D02*
X85550000Y-116500000D01*
X85000000Y-117500000D02*
X85550000Y-116950000D01*
X105150000Y-109000000D02*
X106000000Y-109000000D01*
X106300000Y-108700000D02*
X107000000Y-108700000D01*
X106000000Y-109000000D02*
X106300000Y-108700000D01*
X81000000Y-119750000D02*
X80750000Y-119500000D01*
X81800000Y-119750000D02*
X81000000Y-119750000D01*
D34*
X94250000Y-119500000D02*
X92500000Y-119500000D01*
X98790000Y-118460000D02*
X97750000Y-119500000D01*
X97750000Y-119500000D02*
X97500000Y-119500000D01*
D36*
X94250000Y-119500000D02*
X97500000Y-119500000D01*
D34*
X89845000Y-116845000D02*
X89845000Y-115200000D01*
X92500000Y-119500000D02*
X89845000Y-116845000D01*
X98790000Y-118250000D02*
X98790000Y-118460000D01*
D35*
X98790000Y-118250000D02*
X98750000Y-118250000D01*
D34*
X92000000Y-117000000D02*
X91625000Y-117375000D01*
D35*
X81800000Y-120250000D02*
X81000000Y-120250000D01*
X81000000Y-120250000D02*
X80750000Y-120500000D01*
D34*
X91625000Y-117375000D02*
X91500000Y-117250000D01*
X96250000Y-118250000D02*
X92500000Y-118250000D01*
X91115000Y-116865000D02*
X91115000Y-115200000D01*
X92500000Y-118250000D02*
X91500000Y-117250000D01*
X91500000Y-117250000D02*
X91115000Y-116865000D01*
X87250000Y-120250000D02*
X89750000Y-120250000D01*
D35*
X85700000Y-120250000D02*
X87250000Y-120250000D01*
D34*
X91635000Y-122135000D02*
X91635000Y-123200000D01*
X91635000Y-123200000D02*
X91635000Y-125800000D01*
X89750000Y-120250000D02*
X91635000Y-122135000D01*
X92905000Y-122000000D02*
X95250000Y-122000000D01*
D36*
X97000000Y-122000000D02*
X95250000Y-122000000D01*
X97000000Y-122000000D02*
X98330000Y-123330000D01*
X98790000Y-123330000D02*
X98330000Y-123330000D01*
D34*
X87250000Y-119250000D02*
X90250000Y-119250000D01*
D35*
X86750000Y-119750000D02*
X87250000Y-119250000D01*
X85700000Y-119750000D02*
X86750000Y-119750000D01*
D34*
X92905000Y-121905000D02*
X92905000Y-122000000D01*
X92905000Y-122000000D02*
X92905000Y-125800000D01*
X90250000Y-119250000D02*
X92905000Y-121905000D01*
X93800000Y-140425000D02*
X94825000Y-140425000D01*
X94950000Y-140300000D02*
X94950000Y-138000000D01*
X94825000Y-140425000D02*
X94950000Y-140300000D01*
X94950000Y-138000000D02*
X96300000Y-138000000D01*
X92750000Y-136700000D02*
X94700000Y-136700000D01*
X94950000Y-136950000D02*
X94950000Y-138000000D01*
X94700000Y-136700000D02*
X94950000Y-136950000D01*
X93500000Y-134700000D02*
X93500000Y-135000000D01*
X92750000Y-135750000D02*
X92750000Y-136700000D01*
X93500000Y-135000000D02*
X92750000Y-135750000D01*
X94050000Y-138000000D02*
X94050000Y-138700000D01*
X94050000Y-138700000D02*
X94000000Y-138750000D01*
X93800000Y-139775000D02*
X92775000Y-139775000D01*
X92750000Y-139750000D02*
X92750000Y-137800000D01*
X92775000Y-139775000D02*
X92750000Y-139750000D01*
X92750000Y-137800000D02*
X93300000Y-137800000D01*
X93500000Y-138000000D02*
X94050000Y-138000000D01*
X93300000Y-137800000D02*
X93500000Y-138000000D01*
X93800000Y-141075000D02*
X91875000Y-141075000D01*
X91875000Y-141075000D02*
X91750000Y-141200000D01*
X89000000Y-104800000D02*
X88550000Y-104800000D01*
X89050000Y-101450000D02*
X90000000Y-101450000D01*
X88000000Y-102500000D02*
X89050000Y-101450000D01*
X88000000Y-104250000D02*
X88000000Y-102500000D01*
X88550000Y-104800000D02*
X88000000Y-104250000D01*
X90500000Y-104700000D02*
X92050000Y-104700000D01*
X92675000Y-104075000D02*
X92675000Y-102700000D01*
X92050000Y-104700000D02*
X92675000Y-104075000D01*
X89000000Y-104800000D02*
X90400000Y-104800000D01*
X90400000Y-104800000D02*
X90500000Y-104700000D01*
X89250000Y-106800000D02*
X89250000Y-105750000D01*
X89000000Y-105500000D02*
X89000000Y-104800000D01*
X89250000Y-105750000D02*
X89000000Y-105500000D01*
X89000000Y-103700000D02*
X89000000Y-102750000D01*
X89000000Y-103700000D02*
X90400000Y-103700000D01*
X90400000Y-103700000D02*
X90500000Y-103800000D01*
X90500000Y-103800000D02*
X91700000Y-103800000D01*
X92025000Y-103475000D02*
X92025000Y-102700000D01*
X91700000Y-103800000D02*
X92025000Y-103475000D01*
X93325000Y-102700000D02*
X93325000Y-104325000D01*
X93750000Y-104750000D02*
X94200000Y-104750000D01*
X93325000Y-104325000D02*
X93750000Y-104750000D01*
D35*
X106635000Y-125410000D02*
X106225000Y-125410000D01*
X106225000Y-125410000D02*
X105035000Y-126600000D01*
X105035000Y-126600000D02*
X102435000Y-126600000D01*
D34*
X102435000Y-126600000D02*
X102235000Y-126400000D01*
X102235000Y-126400000D02*
X95835000Y-126400000D01*
X95835000Y-126400000D02*
X92905000Y-129330000D01*
X92905000Y-129330000D02*
X92905000Y-131200000D01*
X92905000Y-131200000D02*
X93000000Y-131105000D01*
X92905000Y-131200000D02*
X92905000Y-132405000D01*
X93500000Y-133000000D02*
X93500000Y-133800000D01*
X92905000Y-132405000D02*
X93500000Y-133000000D01*
X91635000Y-131200000D02*
X91635000Y-129200000D01*
X95425000Y-125410000D02*
X104095000Y-125410000D01*
X91635000Y-129200000D02*
X95425000Y-125410000D01*
X91635000Y-131200000D02*
X91635000Y-133135000D01*
X91750000Y-133250000D02*
X91750000Y-133800000D01*
X91635000Y-133135000D02*
X91750000Y-133250000D01*
X106635000Y-120330000D02*
X106635000Y-120400000D01*
X106635000Y-120400000D02*
X105435000Y-121600000D01*
X105435000Y-121600000D02*
X103435000Y-121600000D01*
X103435000Y-121600000D02*
X100635000Y-118800000D01*
X100635000Y-118800000D02*
X100635000Y-116400000D01*
X100635000Y-116400000D02*
X99635000Y-115400000D01*
X99635000Y-115400000D02*
X97435000Y-115400000D01*
X97435000Y-115400000D02*
X96635000Y-114600000D01*
X89835000Y-111800000D02*
X89845000Y-111790000D01*
X89845000Y-111790000D02*
X89845000Y-109800000D01*
X89845000Y-109800000D02*
X89845000Y-108845000D01*
X89250000Y-108250000D02*
X89250000Y-107700000D01*
X89845000Y-108845000D02*
X89250000Y-108250000D01*
X104095000Y-120330000D02*
X103565000Y-120330000D01*
X103565000Y-120330000D02*
X101435000Y-118200000D01*
X101435000Y-118200000D02*
X101435000Y-116200000D01*
X101435000Y-116200000D02*
X99835000Y-114600000D01*
X99835000Y-114600000D02*
X98035000Y-114600000D01*
X98035000Y-114600000D02*
X96835000Y-113400000D01*
X91235000Y-111800000D02*
X91115000Y-111680000D01*
X91115000Y-111680000D02*
X91115000Y-109800000D01*
X91115000Y-109800000D02*
X91115000Y-107815000D01*
X91115000Y-107815000D02*
X91000000Y-107700000D01*
X93975000Y-96660000D02*
X93975000Y-98300000D01*
X94435000Y-96200000D02*
X93975000Y-96660000D01*
X95035000Y-96200000D02*
X94435000Y-96200000D01*
X97035000Y-98200000D02*
X95035000Y-96200000D01*
X97035000Y-100000000D02*
X97035000Y-98200000D01*
X97235000Y-100200000D02*
X97035000Y-100000000D01*
X98200000Y-141725000D02*
X99510000Y-141725000D01*
X102785000Y-131750000D02*
X101635000Y-131750000D01*
X103235000Y-132200000D02*
X102785000Y-131750000D01*
X103235000Y-133400000D02*
X103235000Y-132200000D01*
X100635000Y-136000000D02*
X103235000Y-133400000D01*
X100635000Y-140600000D02*
X100635000Y-136000000D01*
X99510000Y-141725000D02*
X100635000Y-140600000D01*
X97085000Y-130200000D02*
X99585000Y-130200000D01*
X99585000Y-130200000D02*
X99635000Y-130250000D01*
X97085000Y-130200000D02*
X97085000Y-128700000D01*
X97085000Y-128700000D02*
X96985000Y-128600000D01*
X101635000Y-131750000D02*
X101635000Y-128600000D01*
X102285000Y-127950000D02*
X104095000Y-127950000D01*
X101635000Y-128600000D02*
X101835000Y-128400000D01*
X101835000Y-128400000D02*
X102285000Y-127950000D01*
X99535000Y-131850000D02*
X99535000Y-130350000D01*
X99535000Y-130350000D02*
X99635000Y-130250000D01*
X101635000Y-131750000D02*
X99635000Y-131750000D01*
X99635000Y-131750000D02*
X99535000Y-131850000D01*
X93975000Y-98300000D02*
X94000000Y-98325000D01*
X98200000Y-140425000D02*
X96925000Y-140425000D01*
X97200000Y-138550000D02*
X97200000Y-138000000D01*
X96750000Y-139000000D02*
X97200000Y-138550000D01*
X96750000Y-140250000D02*
X96750000Y-139000000D01*
X96925000Y-140425000D02*
X96750000Y-140250000D01*
X90000000Y-100550000D02*
X91950000Y-100550000D01*
X92675000Y-99825000D02*
X92675000Y-98300000D01*
X91950000Y-100550000D02*
X92675000Y-99825000D01*
X91750000Y-134700000D02*
X91750000Y-140000000D01*
X98200000Y-141075000D02*
X96075000Y-141075000D01*
X96075000Y-141075000D02*
X96000000Y-141000000D01*
X93325000Y-98300000D02*
X93325000Y-100175000D01*
X91000000Y-105750000D02*
X91000000Y-106800000D01*
X93325000Y-100175000D02*
X93250000Y-100250000D01*
X88800000Y-135000000D02*
X88800000Y-135300000D01*
X89300000Y-135800000D02*
X89300000Y-136750000D01*
X88800000Y-135300000D02*
X89300000Y-135800000D01*
X88800000Y-135000000D02*
X88800000Y-134200000D01*
X88950000Y-134050000D02*
X88950000Y-133250000D01*
X88800000Y-134200000D02*
X88950000Y-134050000D01*
X89095000Y-131200000D02*
X89095000Y-132405000D01*
X88950000Y-132550000D02*
X88950000Y-133250000D01*
X89095000Y-132405000D02*
X88950000Y-132550000D01*
X90365000Y-125800000D02*
X90365000Y-127135000D01*
X89095000Y-128405000D02*
X89095000Y-131200000D01*
X90365000Y-127135000D02*
X89095000Y-128405000D01*
X95750000Y-109700000D02*
X95750000Y-109000000D01*
X96250000Y-108500000D02*
X96250000Y-107700000D01*
X95750000Y-109000000D02*
X96250000Y-108500000D01*
X94700000Y-107750000D02*
X96200000Y-107750000D01*
X96200000Y-107750000D02*
X96250000Y-107700000D01*
X93655000Y-109800000D02*
X95650000Y-109800000D01*
X95650000Y-109800000D02*
X95750000Y-109700000D01*
X92385000Y-115200000D02*
X92385000Y-114365000D01*
X93655000Y-113095000D02*
X93655000Y-109800000D01*
X92385000Y-114365000D02*
X93655000Y-113095000D01*
X99535000Y-133750000D02*
X101285000Y-133750000D01*
X101635000Y-133400000D02*
X101635000Y-132650000D01*
X101285000Y-133750000D02*
X101635000Y-133400000D01*
D35*
X96634300Y-94700000D02*
X98485000Y-94700000D01*
M02*
