G04 #@! TF.FileFunction,Copper,L4,Bot,Signal*
%FSLAX46Y46*%
G04 Gerber Fmt 4.6, Leading zero omitted, Abs format (unit mm)*
G04 Created by KiCad (PCBNEW 4.0.2-stable) date Mon 07 Mar 2016 11:14:17 AM HST*
%MOMM*%
G01*
G04 APERTURE LIST*
%ADD10C,0.100000*%
%ADD11R,1.727200X1.727200*%
%ADD12O,1.727200X1.727200*%
%ADD13R,2.032000X2.032000*%
%ADD14O,2.032000X2.032000*%
%ADD15C,1.800000*%
%ADD16C,0.600000*%
%ADD17C,0.250000*%
%ADD18C,0.350000*%
G04 APERTURE END LIST*
D10*
D11*
X96250000Y-118250000D03*
D12*
X98790000Y-118250000D03*
X96250000Y-120790000D03*
X98790000Y-120790000D03*
X96250000Y-123330000D03*
X98790000Y-123330000D03*
D13*
X104385000Y-114950000D03*
D14*
X106925000Y-114950000D03*
D15*
X83500000Y-98000000D03*
X80960000Y-95460000D03*
X86040000Y-95460000D03*
X86040000Y-100540000D03*
X80960000Y-100540000D03*
X83500000Y-140000000D03*
X86040000Y-142540000D03*
X80960000Y-142540000D03*
X80960000Y-137460000D03*
X86040000Y-137460000D03*
X105250000Y-139750000D03*
X107790000Y-142290000D03*
X102710000Y-142290000D03*
X102710000Y-137210000D03*
X107790000Y-137210000D03*
X104750000Y-98750000D03*
X107290000Y-96210000D03*
X107290000Y-101290000D03*
X102210000Y-101290000D03*
X102210000Y-96210000D03*
D11*
X106635000Y-127950000D03*
D12*
X104095000Y-127950000D03*
X106635000Y-125410000D03*
X104095000Y-125410000D03*
X106635000Y-122870000D03*
X104095000Y-122870000D03*
X106635000Y-120330000D03*
X104095000Y-120330000D03*
D16*
X100135000Y-94700000D03*
X95035000Y-128600000D03*
X95235000Y-130200000D03*
X96635000Y-135000000D03*
X100635000Y-132800000D03*
X99750000Y-112500000D03*
X101500000Y-106750000D03*
X105250000Y-107000000D03*
X104165000Y-109845000D03*
X103335000Y-109845000D03*
X104165000Y-108655000D03*
X103335000Y-108655000D03*
X100500000Y-107000000D03*
X99000000Y-107000000D03*
X101750000Y-111750000D03*
X106300000Y-111300000D03*
X108500000Y-109750000D03*
X98500000Y-135750000D03*
X91750000Y-143250000D03*
X95000000Y-141750000D03*
X89000000Y-139250000D03*
X87000000Y-133250000D03*
X86750000Y-135000000D03*
X95750000Y-111750000D03*
X96250000Y-105750000D03*
X94000000Y-101250000D03*
X96250000Y-104750000D03*
X92500000Y-105750000D03*
X91000000Y-95500000D03*
X83000000Y-120750000D03*
X84500000Y-120750000D03*
X84500000Y-119250000D03*
X83000000Y-119250000D03*
X82250000Y-132500000D03*
X80500000Y-123250000D03*
X79750000Y-118750000D03*
X93750000Y-116750000D03*
X89000000Y-124250000D03*
X89000000Y-123500000D03*
X87500000Y-123500000D03*
X81000000Y-117000000D03*
X81000000Y-115000000D03*
X85000000Y-105500000D03*
X93885000Y-94700000D03*
X97635000Y-134800000D03*
X98435000Y-129400000D03*
X99385000Y-137950000D03*
X98000000Y-108750000D03*
X91000000Y-96500000D03*
X92500000Y-111000000D03*
X89750000Y-121500000D03*
X82000000Y-113000000D03*
X87250000Y-116500000D03*
X90250000Y-139500000D03*
X80500000Y-122250000D03*
X108635000Y-105400000D03*
X80750000Y-119500000D03*
X89750000Y-116750000D03*
X92000000Y-117000000D03*
X80750000Y-120500000D03*
X91635000Y-123200000D03*
X94000000Y-138750000D03*
X89000000Y-102750000D03*
X96635000Y-114600000D03*
X89835000Y-111800000D03*
X96835000Y-113400000D03*
X91235000Y-111800000D03*
X97235000Y-100200000D03*
X91750000Y-140000000D03*
X96000000Y-141000000D03*
X91000000Y-105750000D03*
X93250000Y-100250000D03*
D17*
X106300000Y-111300000D02*
X106250000Y-111250000D01*
D18*
X106925000Y-114950000D02*
X106925000Y-113510000D01*
X107635000Y-106400000D02*
X108635000Y-105400000D01*
X107635000Y-112800000D02*
X107635000Y-106400000D01*
X106925000Y-113510000D02*
X107635000Y-112800000D01*
X80750000Y-119500000D02*
X82750000Y-117500000D01*
X89250000Y-117250000D02*
X89750000Y-116750000D01*
X89250000Y-117500000D02*
X89250000Y-117250000D01*
X82750000Y-117500000D02*
X89250000Y-117500000D01*
X81250000Y-120000000D02*
X89000000Y-120000000D01*
X89000000Y-120000000D02*
X92000000Y-117000000D01*
X80750000Y-120500000D02*
X81250000Y-120000000D01*
X96250000Y-123330000D02*
X91765000Y-123330000D01*
X91765000Y-123330000D02*
X91635000Y-123200000D01*
X96750000Y-139750000D02*
X105250000Y-139750000D01*
X95750000Y-138750000D02*
X96750000Y-139750000D01*
X94000000Y-138750000D02*
X95750000Y-138750000D01*
X90250000Y-98750000D02*
X104750000Y-98750000D01*
X89000000Y-100000000D02*
X90250000Y-98750000D01*
X89000000Y-102750000D02*
X89000000Y-100000000D01*
X96635000Y-114600000D02*
X95635000Y-113600000D01*
X95635000Y-113600000D02*
X91635000Y-113600000D01*
X91635000Y-113600000D02*
X89835000Y-111800000D01*
X96835000Y-113400000D02*
X96035000Y-112600000D01*
X96035000Y-112600000D02*
X92035000Y-112600000D01*
X92035000Y-112600000D02*
X91235000Y-111800000D01*
X104095000Y-127950000D02*
X102185000Y-127950000D01*
X97235000Y-110200000D02*
X97235000Y-100200000D01*
X98635000Y-111600000D02*
X97235000Y-110200000D01*
X98635000Y-114200000D02*
X98635000Y-111600000D01*
X101435000Y-117000000D02*
X98635000Y-114200000D01*
X101435000Y-127200000D02*
X101435000Y-117000000D01*
X102185000Y-127950000D02*
X101435000Y-127200000D01*
X95000000Y-140000000D02*
X91750000Y-140000000D01*
X96000000Y-141000000D02*
X95000000Y-140000000D01*
X91000000Y-105750000D02*
X91000000Y-102000000D01*
X91000000Y-102000000D02*
X92750000Y-100250000D01*
X92750000Y-100250000D02*
X93250000Y-100250000D01*
M02*
