G04 #@! TF.FileFunction,Copper,L3,Inr,Signal*
%FSLAX46Y46*%
G04 Gerber Fmt 4.6, Leading zero omitted, Abs format (unit mm)*
G04 Created by KiCad (PCBNEW 4.0.2-stable) date Tue Mar  8 23:24:32 2016*
%MOMM*%
G01*
G04 APERTURE LIST*
%ADD10C,0.100000*%
%ADD11R,1.727200X1.727200*%
%ADD12O,1.727200X1.727200*%
%ADD13R,2.032000X2.032000*%
%ADD14O,2.032000X2.032000*%
%ADD15C,1.800000*%
%ADD16C,0.600000*%
%ADD17C,0.254000*%
G04 APERTURE END LIST*
D10*
D11*
X96250000Y-118250000D03*
D12*
X98790000Y-118250000D03*
X96250000Y-120790000D03*
X98790000Y-120790000D03*
X96250000Y-123330000D03*
X98790000Y-123330000D03*
D13*
X104385000Y-114950000D03*
D14*
X106925000Y-114950000D03*
D15*
X83500000Y-98000000D03*
X80960000Y-95460000D03*
X86040000Y-95460000D03*
X86040000Y-100540000D03*
X80960000Y-100540000D03*
X83500000Y-140000000D03*
X86040000Y-142540000D03*
X80960000Y-142540000D03*
X80960000Y-137460000D03*
X86040000Y-137460000D03*
X105250000Y-139750000D03*
X107790000Y-142290000D03*
X102710000Y-142290000D03*
X102710000Y-137210000D03*
X107790000Y-137210000D03*
X104750000Y-98750000D03*
X107290000Y-96210000D03*
X107290000Y-101290000D03*
X102210000Y-101290000D03*
X102210000Y-96210000D03*
D11*
X106635000Y-127950000D03*
D12*
X104095000Y-127950000D03*
X106635000Y-125410000D03*
X104095000Y-125410000D03*
X106635000Y-122870000D03*
X104095000Y-122870000D03*
X106635000Y-120330000D03*
X104095000Y-120330000D03*
D16*
X100135000Y-94700000D03*
X95035000Y-128600000D03*
X95235000Y-130200000D03*
X96635000Y-135000000D03*
X100635000Y-132800000D03*
X99750000Y-112500000D03*
X101500000Y-106750000D03*
X105250000Y-107000000D03*
X104165000Y-109845000D03*
X103335000Y-109845000D03*
X104165000Y-108655000D03*
X103335000Y-108655000D03*
X100500000Y-107000000D03*
X99000000Y-107000000D03*
X101750000Y-111750000D03*
X106300000Y-111300000D03*
X108500000Y-109750000D03*
X98500000Y-135750000D03*
X91750000Y-143250000D03*
X95000000Y-141750000D03*
X89000000Y-139250000D03*
X87000000Y-133250000D03*
X86750000Y-135000000D03*
X95750000Y-111750000D03*
X96250000Y-105750000D03*
X94000000Y-101250000D03*
X96250000Y-104750000D03*
X92500000Y-105750000D03*
X91000000Y-95500000D03*
X83000000Y-120750000D03*
X84500000Y-120750000D03*
X84500000Y-119250000D03*
X83000000Y-119250000D03*
X82250000Y-132500000D03*
X80500000Y-123250000D03*
X79750000Y-118750000D03*
X93750000Y-116750000D03*
X89000000Y-124250000D03*
X89000000Y-123500000D03*
X87500000Y-123500000D03*
X81000000Y-117000000D03*
X81000000Y-115000000D03*
X85000000Y-105500000D03*
X93885000Y-94700000D03*
X97635000Y-134800000D03*
X98435000Y-129400000D03*
X99385000Y-137950000D03*
X98000000Y-108750000D03*
X91000000Y-96500000D03*
X92500000Y-111000000D03*
X89750000Y-121500000D03*
X82000000Y-113000000D03*
X87250000Y-116500000D03*
X90250000Y-139500000D03*
X80500000Y-122250000D03*
X108635000Y-105400000D03*
X80750000Y-119500000D03*
X89750000Y-116750000D03*
X92000000Y-117000000D03*
X80750000Y-120500000D03*
X91635000Y-123200000D03*
X94000000Y-138750000D03*
X89000000Y-102750000D03*
X96635000Y-114600000D03*
X89835000Y-111800000D03*
X96835000Y-113400000D03*
X91235000Y-111800000D03*
X97235000Y-100200000D03*
X91750000Y-140000000D03*
X96000000Y-141000000D03*
X91000000Y-105750000D03*
X93250000Y-100250000D03*
D17*
G36*
X99200162Y-94513201D02*
X99199838Y-94885167D01*
X99341883Y-95228943D01*
X99604673Y-95492192D01*
X99948201Y-95634838D01*
X100320167Y-95635162D01*
X100508000Y-95557551D01*
X100508000Y-103200000D01*
X100518006Y-103249410D01*
X100546447Y-103291035D01*
X100588841Y-103318315D01*
X100635000Y-103327000D01*
X108675000Y-103327000D01*
X108675000Y-104465034D01*
X108449833Y-104464838D01*
X108106057Y-104606883D01*
X107842808Y-104869673D01*
X107700162Y-105213201D01*
X107699838Y-105585167D01*
X107841883Y-105928943D01*
X108104673Y-106192192D01*
X108448201Y-106334838D01*
X108675000Y-106335036D01*
X108675000Y-108815152D01*
X108314833Y-108814838D01*
X107971057Y-108956883D01*
X107707808Y-109219673D01*
X107565162Y-109563201D01*
X107564838Y-109935167D01*
X107706883Y-110278943D01*
X107969673Y-110542192D01*
X108313201Y-110684838D01*
X108675000Y-110685153D01*
X108675000Y-135073000D01*
X101635000Y-135073000D01*
X101585590Y-135083006D01*
X101543965Y-135111447D01*
X101516685Y-135153841D01*
X101508000Y-135200000D01*
X101508000Y-136240978D01*
X101409449Y-136339357D01*
X101175267Y-136903330D01*
X101174735Y-137513991D01*
X101407932Y-138078371D01*
X101508000Y-138178614D01*
X101508000Y-141320978D01*
X101409449Y-141419357D01*
X101175267Y-141983330D01*
X101174735Y-142593991D01*
X101407932Y-143158371D01*
X101508000Y-143258614D01*
X101508000Y-143490000D01*
X92662747Y-143490000D01*
X92684838Y-143436799D01*
X92685162Y-143064833D01*
X92543117Y-142721057D01*
X92280327Y-142457808D01*
X91936799Y-142315162D01*
X91564833Y-142314838D01*
X91221057Y-142456883D01*
X90957808Y-142719673D01*
X90815162Y-143063201D01*
X90814838Y-143435167D01*
X90837494Y-143490000D01*
X87762000Y-143490000D01*
X87762000Y-141935167D01*
X94064838Y-141935167D01*
X94206883Y-142278943D01*
X94469673Y-142542192D01*
X94813201Y-142684838D01*
X95185167Y-142685162D01*
X95528943Y-142543117D01*
X95792192Y-142280327D01*
X95934838Y-141936799D01*
X95934840Y-141934944D01*
X96185167Y-141935162D01*
X96528943Y-141793117D01*
X96792192Y-141530327D01*
X96934838Y-141186799D01*
X96935162Y-140814833D01*
X96793117Y-140471057D01*
X96530327Y-140207808D01*
X96186799Y-140065162D01*
X95814833Y-140064838D01*
X95471057Y-140206883D01*
X95207808Y-140469673D01*
X95065162Y-140813201D01*
X95065160Y-140815056D01*
X94814833Y-140814838D01*
X94471057Y-140956883D01*
X94207808Y-141219673D01*
X94065162Y-141563201D01*
X94064838Y-141935167D01*
X87762000Y-141935167D01*
X87762000Y-140185167D01*
X90814838Y-140185167D01*
X90956883Y-140528943D01*
X91219673Y-140792192D01*
X91563201Y-140934838D01*
X91935167Y-140935162D01*
X92278943Y-140793117D01*
X92542192Y-140530327D01*
X92684838Y-140186799D01*
X92685162Y-139814833D01*
X92543117Y-139471057D01*
X92280327Y-139207808D01*
X91936799Y-139065162D01*
X91564833Y-139064838D01*
X91221057Y-139206883D01*
X90957808Y-139469673D01*
X90815162Y-139813201D01*
X90814838Y-140185167D01*
X87762000Y-140185167D01*
X87762000Y-139435167D01*
X88064838Y-139435167D01*
X88206883Y-139778943D01*
X88469673Y-140042192D01*
X88813201Y-140184838D01*
X89185167Y-140185162D01*
X89528943Y-140043117D01*
X89792192Y-139780327D01*
X89934838Y-139436799D01*
X89935162Y-139064833D01*
X89881586Y-138935167D01*
X93064838Y-138935167D01*
X93206883Y-139278943D01*
X93469673Y-139542192D01*
X93813201Y-139684838D01*
X94185167Y-139685162D01*
X94528943Y-139543117D01*
X94792192Y-139280327D01*
X94934838Y-138936799D01*
X94935162Y-138564833D01*
X94793117Y-138221057D01*
X94530327Y-137957808D01*
X94186799Y-137815162D01*
X93814833Y-137814838D01*
X93471057Y-137956883D01*
X93207808Y-138219673D01*
X93065162Y-138563201D01*
X93064838Y-138935167D01*
X89881586Y-138935167D01*
X89793117Y-138721057D01*
X89530327Y-138457808D01*
X89186799Y-138315162D01*
X88814833Y-138314838D01*
X88471057Y-138456883D01*
X88207808Y-138719673D01*
X88065162Y-139063201D01*
X88064838Y-139435167D01*
X87762000Y-139435167D01*
X87762000Y-136200000D01*
X87751994Y-136150590D01*
X87723553Y-136108965D01*
X87681159Y-136081685D01*
X87635000Y-136073000D01*
X86702451Y-136073000D01*
X86370512Y-135935167D01*
X97564838Y-135935167D01*
X97706883Y-136278943D01*
X97969673Y-136542192D01*
X98313201Y-136684838D01*
X98685167Y-136685162D01*
X99028943Y-136543117D01*
X99292192Y-136280327D01*
X99434838Y-135936799D01*
X99435162Y-135564833D01*
X99293117Y-135221057D01*
X99030327Y-134957808D01*
X98686799Y-134815162D01*
X98314833Y-134814838D01*
X97971057Y-134956883D01*
X97707808Y-135219673D01*
X97565162Y-135563201D01*
X97564838Y-135935167D01*
X86370512Y-135935167D01*
X86346670Y-135925267D01*
X85736009Y-135924735D01*
X85377180Y-136073000D01*
X81622451Y-136073000D01*
X81266670Y-135925267D01*
X80656009Y-135924735D01*
X80297180Y-136073000D01*
X79345000Y-136073000D01*
X79345000Y-135185167D01*
X85814838Y-135185167D01*
X85956883Y-135528943D01*
X86219673Y-135792192D01*
X86563201Y-135934838D01*
X86935167Y-135935162D01*
X87278943Y-135793117D01*
X87542192Y-135530327D01*
X87684838Y-135186799D01*
X87684839Y-135185167D01*
X95699838Y-135185167D01*
X95841883Y-135528943D01*
X96104673Y-135792192D01*
X96448201Y-135934838D01*
X96820167Y-135935162D01*
X97163943Y-135793117D01*
X97427192Y-135530327D01*
X97569838Y-135186799D01*
X97570162Y-134814833D01*
X97428117Y-134471057D01*
X97165327Y-134207808D01*
X96821799Y-134065162D01*
X96449833Y-134064838D01*
X96106057Y-134206883D01*
X95842808Y-134469673D01*
X95700162Y-134813201D01*
X95699838Y-135185167D01*
X87684839Y-135185167D01*
X87685162Y-134814833D01*
X87543117Y-134471057D01*
X87280327Y-134207808D01*
X87205529Y-134176749D01*
X87528943Y-134043117D01*
X87792192Y-133780327D01*
X87934838Y-133436799D01*
X87935162Y-133064833D01*
X87902245Y-132985167D01*
X99699838Y-132985167D01*
X99841883Y-133328943D01*
X100104673Y-133592192D01*
X100448201Y-133734838D01*
X100820167Y-133735162D01*
X101163943Y-133593117D01*
X101427192Y-133330327D01*
X101569838Y-132986799D01*
X101570162Y-132614833D01*
X101428117Y-132271057D01*
X101165327Y-132007808D01*
X100821799Y-131865162D01*
X100449833Y-131864838D01*
X100106057Y-132006883D01*
X99842808Y-132269673D01*
X99700162Y-132613201D01*
X99699838Y-132985167D01*
X87902245Y-132985167D01*
X87793117Y-132721057D01*
X87530327Y-132457808D01*
X87186799Y-132315162D01*
X86814833Y-132314838D01*
X86471057Y-132456883D01*
X86207808Y-132719673D01*
X86065162Y-133063201D01*
X86064838Y-133435167D01*
X86206883Y-133778943D01*
X86469673Y-134042192D01*
X86544471Y-134073251D01*
X86221057Y-134206883D01*
X85957808Y-134469673D01*
X85815162Y-134813201D01*
X85814838Y-135185167D01*
X79345000Y-135185167D01*
X79345000Y-132685167D01*
X81314838Y-132685167D01*
X81456883Y-133028943D01*
X81719673Y-133292192D01*
X82063201Y-133434838D01*
X82435167Y-133435162D01*
X82778943Y-133293117D01*
X83042192Y-133030327D01*
X83184838Y-132686799D01*
X83185162Y-132314833D01*
X83043117Y-131971057D01*
X82780327Y-131707808D01*
X82436799Y-131565162D01*
X82064833Y-131564838D01*
X81721057Y-131706883D01*
X81457808Y-131969673D01*
X81315162Y-132313201D01*
X81314838Y-132685167D01*
X79345000Y-132685167D01*
X79345000Y-128785167D01*
X94099838Y-128785167D01*
X94241883Y-129128943D01*
X94504673Y-129392192D01*
X94657290Y-129455565D01*
X94442808Y-129669673D01*
X94300162Y-130013201D01*
X94299838Y-130385167D01*
X94441883Y-130728943D01*
X94704673Y-130992192D01*
X95048201Y-131134838D01*
X95420167Y-131135162D01*
X95763943Y-130993117D01*
X96027192Y-130730327D01*
X96169838Y-130386799D01*
X96170162Y-130014833D01*
X96028117Y-129671057D01*
X95765327Y-129407808D01*
X95612710Y-129344435D01*
X95827192Y-129130327D01*
X95969838Y-128786799D01*
X95970162Y-128414833D01*
X95828117Y-128071057D01*
X95565327Y-127807808D01*
X95221799Y-127665162D01*
X94849833Y-127664838D01*
X94506057Y-127806883D01*
X94242808Y-128069673D01*
X94100162Y-128413201D01*
X94099838Y-128785167D01*
X79345000Y-128785167D01*
X79345000Y-123435167D01*
X79564838Y-123435167D01*
X79706883Y-123778943D01*
X79969673Y-124042192D01*
X80313201Y-124184838D01*
X80685167Y-124185162D01*
X81028943Y-124043117D01*
X81292192Y-123780327D01*
X81331706Y-123685167D01*
X86564838Y-123685167D01*
X86706883Y-124028943D01*
X86969673Y-124292192D01*
X87313201Y-124434838D01*
X87685167Y-124435162D01*
X88028943Y-124293117D01*
X88064993Y-124257130D01*
X88064838Y-124435167D01*
X88206883Y-124778943D01*
X88469673Y-125042192D01*
X88813201Y-125184838D01*
X89185167Y-125185162D01*
X89528943Y-125043117D01*
X89792192Y-124780327D01*
X89934838Y-124436799D01*
X89935162Y-124064833D01*
X89856707Y-123874958D01*
X89934838Y-123686799D01*
X89935100Y-123385167D01*
X90699838Y-123385167D01*
X90841883Y-123728943D01*
X91104673Y-123992192D01*
X91448201Y-124134838D01*
X91820167Y-124135162D01*
X92163943Y-123993117D01*
X92427192Y-123730327D01*
X92569838Y-123386799D01*
X92570162Y-123014833D01*
X92428117Y-122671057D01*
X92165327Y-122407808D01*
X91821799Y-122265162D01*
X91449833Y-122264838D01*
X91106057Y-122406883D01*
X90842808Y-122669673D01*
X90700162Y-123013201D01*
X90699838Y-123385167D01*
X89935100Y-123385167D01*
X89935162Y-123314833D01*
X89793117Y-122971057D01*
X89530327Y-122707808D01*
X89186799Y-122565162D01*
X88814833Y-122564838D01*
X88471057Y-122706883D01*
X88249845Y-122927709D01*
X88030327Y-122707808D01*
X87686799Y-122565162D01*
X87314833Y-122564838D01*
X86971057Y-122706883D01*
X86707808Y-122969673D01*
X86565162Y-123313201D01*
X86564838Y-123685167D01*
X81331706Y-123685167D01*
X81434838Y-123436799D01*
X81435162Y-123064833D01*
X81293117Y-122721057D01*
X81030327Y-122457808D01*
X80686799Y-122315162D01*
X80314833Y-122314838D01*
X79971057Y-122456883D01*
X79707808Y-122719673D01*
X79565162Y-123063201D01*
X79564838Y-123435167D01*
X79345000Y-123435167D01*
X79345000Y-119594233D01*
X79563201Y-119684838D01*
X79814838Y-119685057D01*
X79814838Y-119685167D01*
X79945069Y-120000351D01*
X79815162Y-120313201D01*
X79814838Y-120685167D01*
X79956883Y-121028943D01*
X80219673Y-121292192D01*
X80563201Y-121434838D01*
X80935167Y-121435162D01*
X81278943Y-121293117D01*
X81542192Y-121030327D01*
X81684838Y-120686799D01*
X81685162Y-120314833D01*
X81554931Y-119999649D01*
X81684838Y-119686799D01*
X81685057Y-119435167D01*
X82064838Y-119435167D01*
X82206883Y-119778943D01*
X82427709Y-120000155D01*
X82207808Y-120219673D01*
X82065162Y-120563201D01*
X82064838Y-120935167D01*
X82206883Y-121278943D01*
X82469673Y-121542192D01*
X82813201Y-121684838D01*
X83185167Y-121685162D01*
X83528943Y-121543117D01*
X83750155Y-121322291D01*
X83969673Y-121542192D01*
X84313201Y-121684838D01*
X84685167Y-121685162D01*
X85028943Y-121543117D01*
X85292192Y-121280327D01*
X85434838Y-120936799D01*
X85434965Y-120790000D01*
X94722041Y-120790000D01*
X94836115Y-121363489D01*
X95160971Y-121849670D01*
X95475752Y-122060000D01*
X95160971Y-122270330D01*
X94836115Y-122756511D01*
X94722041Y-123330000D01*
X94836115Y-123903489D01*
X95160971Y-124389670D01*
X95647152Y-124714526D01*
X96220641Y-124828600D01*
X96279359Y-124828600D01*
X96852848Y-124714526D01*
X97339029Y-124389670D01*
X97520000Y-124118828D01*
X97700971Y-124389670D01*
X98187152Y-124714526D01*
X98760641Y-124828600D01*
X98819359Y-124828600D01*
X99392848Y-124714526D01*
X99879029Y-124389670D01*
X100203885Y-123903489D01*
X100317959Y-123330000D01*
X100203885Y-122756511D01*
X99879029Y-122270330D01*
X99564248Y-122060000D01*
X99879029Y-121849670D01*
X100203885Y-121363489D01*
X100317959Y-120790000D01*
X100226460Y-120330000D01*
X102567041Y-120330000D01*
X102681115Y-120903489D01*
X103005971Y-121389670D01*
X103320752Y-121600000D01*
X103005971Y-121810330D01*
X102681115Y-122296511D01*
X102567041Y-122870000D01*
X102681115Y-123443489D01*
X103005971Y-123929670D01*
X103320752Y-124140000D01*
X103005971Y-124350330D01*
X102681115Y-124836511D01*
X102567041Y-125410000D01*
X102681115Y-125983489D01*
X103005971Y-126469670D01*
X103320752Y-126680000D01*
X103005971Y-126890330D01*
X102681115Y-127376511D01*
X102567041Y-127950000D01*
X102681115Y-128523489D01*
X103005971Y-129009670D01*
X103492152Y-129334526D01*
X104065641Y-129448600D01*
X104124359Y-129448600D01*
X104697848Y-129334526D01*
X105163442Y-129023426D01*
X105168238Y-129048917D01*
X105307310Y-129265041D01*
X105519510Y-129410031D01*
X105771400Y-129461040D01*
X107498600Y-129461040D01*
X107733917Y-129416762D01*
X107950041Y-129277690D01*
X108095031Y-129065490D01*
X108146040Y-128813600D01*
X108146040Y-127086400D01*
X108101762Y-126851083D01*
X107962690Y-126634959D01*
X107750490Y-126489969D01*
X107706869Y-126481136D01*
X107724029Y-126469670D01*
X108048885Y-125983489D01*
X108162959Y-125410000D01*
X108048885Y-124836511D01*
X107724029Y-124350330D01*
X107409248Y-124140000D01*
X107724029Y-123929670D01*
X108048885Y-123443489D01*
X108162959Y-122870000D01*
X108048885Y-122296511D01*
X107724029Y-121810330D01*
X107409248Y-121600000D01*
X107724029Y-121389670D01*
X108048885Y-120903489D01*
X108162959Y-120330000D01*
X108048885Y-119756511D01*
X107724029Y-119270330D01*
X107237848Y-118945474D01*
X106664359Y-118831400D01*
X106605641Y-118831400D01*
X106032152Y-118945474D01*
X105545971Y-119270330D01*
X105365000Y-119541172D01*
X105184029Y-119270330D01*
X104697848Y-118945474D01*
X104124359Y-118831400D01*
X104065641Y-118831400D01*
X103492152Y-118945474D01*
X103005971Y-119270330D01*
X102681115Y-119756511D01*
X102567041Y-120330000D01*
X100226460Y-120330000D01*
X100203885Y-120216511D01*
X99879029Y-119730330D01*
X99564248Y-119520000D01*
X99879029Y-119309670D01*
X100203885Y-118823489D01*
X100317959Y-118250000D01*
X100203885Y-117676511D01*
X99879029Y-117190330D01*
X99392848Y-116865474D01*
X98819359Y-116751400D01*
X98760641Y-116751400D01*
X98187152Y-116865474D01*
X97721558Y-117176574D01*
X97716762Y-117151083D01*
X97577690Y-116934959D01*
X97365490Y-116789969D01*
X97113600Y-116738960D01*
X95386400Y-116738960D01*
X95151083Y-116783238D01*
X94934959Y-116922310D01*
X94789969Y-117134510D01*
X94738960Y-117386400D01*
X94738960Y-119113600D01*
X94783238Y-119348917D01*
X94922310Y-119565041D01*
X95134510Y-119710031D01*
X95178131Y-119718864D01*
X95160971Y-119730330D01*
X94836115Y-120216511D01*
X94722041Y-120790000D01*
X85434965Y-120790000D01*
X85435162Y-120564833D01*
X85293117Y-120221057D01*
X85072291Y-119999845D01*
X85292192Y-119780327D01*
X85434838Y-119436799D01*
X85435162Y-119064833D01*
X85293117Y-118721057D01*
X85030327Y-118457808D01*
X84686799Y-118315162D01*
X84314833Y-118314838D01*
X83971057Y-118456883D01*
X83749845Y-118677709D01*
X83530327Y-118457808D01*
X83186799Y-118315162D01*
X82814833Y-118314838D01*
X82471057Y-118456883D01*
X82207808Y-118719673D01*
X82065162Y-119063201D01*
X82064838Y-119435167D01*
X81685057Y-119435167D01*
X81685162Y-119314833D01*
X81543117Y-118971057D01*
X81280327Y-118707808D01*
X80936799Y-118565162D01*
X80685162Y-118564943D01*
X80685162Y-118564833D01*
X80543117Y-118221057D01*
X80280327Y-117957808D01*
X79936799Y-117815162D01*
X79564833Y-117814838D01*
X79345000Y-117905671D01*
X79345000Y-117185167D01*
X80064838Y-117185167D01*
X80206883Y-117528943D01*
X80469673Y-117792192D01*
X80813201Y-117934838D01*
X81185167Y-117935162D01*
X81528943Y-117793117D01*
X81792192Y-117530327D01*
X81934838Y-117186799D01*
X81935057Y-116935167D01*
X88814838Y-116935167D01*
X88956883Y-117278943D01*
X89219673Y-117542192D01*
X89563201Y-117684838D01*
X89935167Y-117685162D01*
X90278943Y-117543117D01*
X90542192Y-117280327D01*
X90581706Y-117185167D01*
X91064838Y-117185167D01*
X91206883Y-117528943D01*
X91469673Y-117792192D01*
X91813201Y-117934838D01*
X92185167Y-117935162D01*
X92528943Y-117793117D01*
X92792192Y-117530327D01*
X92926804Y-117206147D01*
X92956883Y-117278943D01*
X93219673Y-117542192D01*
X93563201Y-117684838D01*
X93935167Y-117685162D01*
X94278943Y-117543117D01*
X94542192Y-117280327D01*
X94684838Y-116936799D01*
X94685162Y-116564833D01*
X94543117Y-116221057D01*
X94280327Y-115957808D01*
X93936799Y-115815162D01*
X93564833Y-115814838D01*
X93221057Y-115956883D01*
X92957808Y-116219673D01*
X92823196Y-116543853D01*
X92793117Y-116471057D01*
X92530327Y-116207808D01*
X92186799Y-116065162D01*
X91814833Y-116064838D01*
X91471057Y-116206883D01*
X91207808Y-116469673D01*
X91065162Y-116813201D01*
X91064838Y-117185167D01*
X90581706Y-117185167D01*
X90684838Y-116936799D01*
X90685162Y-116564833D01*
X90543117Y-116221057D01*
X90280327Y-115957808D01*
X89936799Y-115815162D01*
X89564833Y-115814838D01*
X89221057Y-115956883D01*
X88957808Y-116219673D01*
X88815162Y-116563201D01*
X88814838Y-116935167D01*
X81935057Y-116935167D01*
X81935162Y-116814833D01*
X81793117Y-116471057D01*
X81530327Y-116207808D01*
X81186799Y-116065162D01*
X80814833Y-116064838D01*
X80471057Y-116206883D01*
X80207808Y-116469673D01*
X80065162Y-116813201D01*
X80064838Y-117185167D01*
X79345000Y-117185167D01*
X79345000Y-115185167D01*
X80064838Y-115185167D01*
X80206883Y-115528943D01*
X80469673Y-115792192D01*
X80813201Y-115934838D01*
X81185167Y-115935162D01*
X81528943Y-115793117D01*
X81792192Y-115530327D01*
X81934838Y-115186799D01*
X81935162Y-114814833D01*
X81922905Y-114785167D01*
X95699838Y-114785167D01*
X95841883Y-115128943D01*
X96104673Y-115392192D01*
X96448201Y-115534838D01*
X96820167Y-115535162D01*
X97163943Y-115393117D01*
X97427192Y-115130327D01*
X97569838Y-114786799D01*
X97570162Y-114414833D01*
X97445083Y-114112118D01*
X97623512Y-113934000D01*
X102721560Y-113934000D01*
X102721560Y-115966000D01*
X102765838Y-116201317D01*
X102904910Y-116417441D01*
X103117110Y-116562431D01*
X103369000Y-116613440D01*
X105401000Y-116613440D01*
X105636317Y-116569162D01*
X105852441Y-116430090D01*
X105954198Y-116281163D01*
X106293190Y-116507670D01*
X106925000Y-116633345D01*
X107556810Y-116507670D01*
X108092433Y-116149778D01*
X108450325Y-115614155D01*
X108576000Y-114982345D01*
X108576000Y-114917655D01*
X108450325Y-114285845D01*
X108092433Y-113750222D01*
X107556810Y-113392330D01*
X106925000Y-113266655D01*
X106293190Y-113392330D01*
X105953208Y-113619499D01*
X105865090Y-113482559D01*
X105652890Y-113337569D01*
X105401000Y-113286560D01*
X103369000Y-113286560D01*
X103133683Y-113330838D01*
X102917559Y-113469910D01*
X102772569Y-113682110D01*
X102721560Y-113934000D01*
X97623512Y-113934000D01*
X97627192Y-113930327D01*
X97769838Y-113586799D01*
X97770162Y-113214833D01*
X97628117Y-112871057D01*
X97442552Y-112685167D01*
X98814838Y-112685167D01*
X98956883Y-113028943D01*
X99219673Y-113292192D01*
X99563201Y-113434838D01*
X99935167Y-113435162D01*
X100278943Y-113293117D01*
X100542192Y-113030327D01*
X100684838Y-112686799D01*
X100685162Y-112314833D01*
X100543117Y-111971057D01*
X100507290Y-111935167D01*
X100814838Y-111935167D01*
X100956883Y-112278943D01*
X101219673Y-112542192D01*
X101563201Y-112684838D01*
X101935167Y-112685162D01*
X102278943Y-112543117D01*
X102542192Y-112280327D01*
X102684838Y-111936799D01*
X102685162Y-111564833D01*
X102652245Y-111485167D01*
X105364838Y-111485167D01*
X105506883Y-111828943D01*
X105769673Y-112092192D01*
X106113201Y-112234838D01*
X106485167Y-112235162D01*
X106828943Y-112093117D01*
X107092192Y-111830327D01*
X107234838Y-111486799D01*
X107235162Y-111114833D01*
X107093117Y-110771057D01*
X106830327Y-110507808D01*
X106486799Y-110365162D01*
X106114833Y-110364838D01*
X105771057Y-110506883D01*
X105507808Y-110769673D01*
X105365162Y-111113201D01*
X105364838Y-111485167D01*
X102652245Y-111485167D01*
X102543117Y-111221057D01*
X102280327Y-110957808D01*
X101936799Y-110815162D01*
X101564833Y-110814838D01*
X101221057Y-110956883D01*
X100957808Y-111219673D01*
X100815162Y-111563201D01*
X100814838Y-111935167D01*
X100507290Y-111935167D01*
X100280327Y-111707808D01*
X99936799Y-111565162D01*
X99564833Y-111564838D01*
X99221057Y-111706883D01*
X98957808Y-111969673D01*
X98815162Y-112313201D01*
X98814838Y-112685167D01*
X97442552Y-112685167D01*
X97365327Y-112607808D01*
X97021799Y-112465162D01*
X96649833Y-112464838D01*
X96306057Y-112606883D01*
X96042808Y-112869673D01*
X95900162Y-113213201D01*
X95899838Y-113585167D01*
X96024917Y-113887882D01*
X95842808Y-114069673D01*
X95700162Y-114413201D01*
X95699838Y-114785167D01*
X81922905Y-114785167D01*
X81793117Y-114471057D01*
X81530327Y-114207808D01*
X81186799Y-114065162D01*
X80814833Y-114064838D01*
X80471057Y-114206883D01*
X80207808Y-114469673D01*
X80065162Y-114813201D01*
X80064838Y-115185167D01*
X79345000Y-115185167D01*
X79345000Y-111985167D01*
X88899838Y-111985167D01*
X89041883Y-112328943D01*
X89304673Y-112592192D01*
X89648201Y-112734838D01*
X90020167Y-112735162D01*
X90363943Y-112593117D01*
X90535068Y-112422291D01*
X90704673Y-112592192D01*
X91048201Y-112734838D01*
X91420167Y-112735162D01*
X91763943Y-112593117D01*
X92027192Y-112330327D01*
X92169838Y-111986799D01*
X92169882Y-111935167D01*
X94814838Y-111935167D01*
X94956883Y-112278943D01*
X95219673Y-112542192D01*
X95563201Y-112684838D01*
X95935167Y-112685162D01*
X96278943Y-112543117D01*
X96542192Y-112280327D01*
X96684838Y-111936799D01*
X96685162Y-111564833D01*
X96543117Y-111221057D01*
X96280327Y-110957808D01*
X95936799Y-110815162D01*
X95564833Y-110814838D01*
X95221057Y-110956883D01*
X94957808Y-111219673D01*
X94815162Y-111563201D01*
X94814838Y-111935167D01*
X92169882Y-111935167D01*
X92170162Y-111614833D01*
X92028117Y-111271057D01*
X91765327Y-111007808D01*
X91421799Y-110865162D01*
X91049833Y-110864838D01*
X90706057Y-111006883D01*
X90534932Y-111177709D01*
X90365327Y-111007808D01*
X90021799Y-110865162D01*
X89649833Y-110864838D01*
X89306057Y-111006883D01*
X89042808Y-111269673D01*
X88900162Y-111613201D01*
X88899838Y-111985167D01*
X79345000Y-111985167D01*
X79345000Y-108840167D01*
X102399838Y-108840167D01*
X102541883Y-109183943D01*
X102607710Y-109249885D01*
X102542808Y-109314673D01*
X102400162Y-109658201D01*
X102399838Y-110030167D01*
X102541883Y-110373943D01*
X102804673Y-110637192D01*
X103148201Y-110779838D01*
X103520167Y-110780162D01*
X103750141Y-110685139D01*
X103978201Y-110779838D01*
X104350167Y-110780162D01*
X104693943Y-110638117D01*
X104957192Y-110375327D01*
X105099838Y-110031799D01*
X105100162Y-109659833D01*
X104958117Y-109316057D01*
X104892290Y-109250115D01*
X104957192Y-109185327D01*
X105099838Y-108841799D01*
X105100162Y-108469833D01*
X104958117Y-108126057D01*
X104695327Y-107862808D01*
X104351799Y-107720162D01*
X103979833Y-107719838D01*
X103749859Y-107814861D01*
X103521799Y-107720162D01*
X103149833Y-107719838D01*
X102806057Y-107861883D01*
X102542808Y-108124673D01*
X102400162Y-108468201D01*
X102399838Y-108840167D01*
X79345000Y-108840167D01*
X79345000Y-107185167D01*
X98064838Y-107185167D01*
X98206883Y-107528943D01*
X98469673Y-107792192D01*
X98813201Y-107934838D01*
X99185167Y-107935162D01*
X99528943Y-107793117D01*
X99750155Y-107572291D01*
X99969673Y-107792192D01*
X100313201Y-107934838D01*
X100685167Y-107935162D01*
X101028943Y-107793117D01*
X101189052Y-107633287D01*
X101313201Y-107684838D01*
X101685167Y-107685162D01*
X102028943Y-107543117D01*
X102292192Y-107280327D01*
X102331706Y-107185167D01*
X104314838Y-107185167D01*
X104456883Y-107528943D01*
X104719673Y-107792192D01*
X105063201Y-107934838D01*
X105435167Y-107935162D01*
X105778943Y-107793117D01*
X106042192Y-107530327D01*
X106184838Y-107186799D01*
X106185162Y-106814833D01*
X106043117Y-106471057D01*
X105780327Y-106207808D01*
X105436799Y-106065162D01*
X105064833Y-106064838D01*
X104721057Y-106206883D01*
X104457808Y-106469673D01*
X104315162Y-106813201D01*
X104314838Y-107185167D01*
X102331706Y-107185167D01*
X102434838Y-106936799D01*
X102435162Y-106564833D01*
X102293117Y-106221057D01*
X102030327Y-105957808D01*
X101686799Y-105815162D01*
X101314833Y-105814838D01*
X100971057Y-105956883D01*
X100810948Y-106116713D01*
X100686799Y-106065162D01*
X100314833Y-106064838D01*
X99971057Y-106206883D01*
X99749845Y-106427709D01*
X99530327Y-106207808D01*
X99186799Y-106065162D01*
X98814833Y-106064838D01*
X98471057Y-106206883D01*
X98207808Y-106469673D01*
X98065162Y-106813201D01*
X98064838Y-107185167D01*
X79345000Y-107185167D01*
X79345000Y-105685167D01*
X84064838Y-105685167D01*
X84206883Y-106028943D01*
X84469673Y-106292192D01*
X84813201Y-106434838D01*
X85185167Y-106435162D01*
X85528943Y-106293117D01*
X85792192Y-106030327D01*
X85831706Y-105935167D01*
X90064838Y-105935167D01*
X90206883Y-106278943D01*
X90469673Y-106542192D01*
X90813201Y-106684838D01*
X91185167Y-106685162D01*
X91528943Y-106543117D01*
X91750155Y-106322291D01*
X91969673Y-106542192D01*
X92313201Y-106684838D01*
X92685167Y-106685162D01*
X93028943Y-106543117D01*
X93292192Y-106280327D01*
X93434838Y-105936799D01*
X93435162Y-105564833D01*
X93293117Y-105221057D01*
X93030327Y-104957808D01*
X92975802Y-104935167D01*
X95314838Y-104935167D01*
X95445069Y-105250351D01*
X95315162Y-105563201D01*
X95314838Y-105935167D01*
X95456883Y-106278943D01*
X95719673Y-106542192D01*
X96063201Y-106684838D01*
X96435167Y-106685162D01*
X96778943Y-106543117D01*
X97042192Y-106280327D01*
X97184838Y-105936799D01*
X97185162Y-105564833D01*
X97054931Y-105249649D01*
X97184838Y-104936799D01*
X97185162Y-104564833D01*
X97043117Y-104221057D01*
X96780327Y-103957808D01*
X96436799Y-103815162D01*
X96064833Y-103814838D01*
X95721057Y-103956883D01*
X95457808Y-104219673D01*
X95315162Y-104563201D01*
X95314838Y-104935167D01*
X92975802Y-104935167D01*
X92686799Y-104815162D01*
X92314833Y-104814838D01*
X91971057Y-104956883D01*
X91749845Y-105177709D01*
X91530327Y-104957808D01*
X91186799Y-104815162D01*
X90814833Y-104814838D01*
X90471057Y-104956883D01*
X90207808Y-105219673D01*
X90065162Y-105563201D01*
X90064838Y-105935167D01*
X85831706Y-105935167D01*
X85934838Y-105686799D01*
X85935162Y-105314833D01*
X85793117Y-104971057D01*
X85530327Y-104707808D01*
X85186799Y-104565162D01*
X84814833Y-104564838D01*
X84471057Y-104706883D01*
X84207808Y-104969673D01*
X84065162Y-105313201D01*
X84064838Y-105685167D01*
X79345000Y-105685167D01*
X79345000Y-102935167D01*
X88064838Y-102935167D01*
X88206883Y-103278943D01*
X88469673Y-103542192D01*
X88813201Y-103684838D01*
X89185167Y-103685162D01*
X89528943Y-103543117D01*
X89792192Y-103280327D01*
X89934838Y-102936799D01*
X89935162Y-102564833D01*
X89793117Y-102221057D01*
X89530327Y-101957808D01*
X89186799Y-101815162D01*
X88814833Y-101814838D01*
X88471057Y-101956883D01*
X88207808Y-102219673D01*
X88065162Y-102563201D01*
X88064838Y-102935167D01*
X79345000Y-102935167D01*
X79345000Y-102327000D01*
X87635000Y-102327000D01*
X87684410Y-102316994D01*
X87726035Y-102288553D01*
X87753315Y-102246159D01*
X87762000Y-102200000D01*
X87762000Y-100435167D01*
X92314838Y-100435167D01*
X92456883Y-100778943D01*
X92719673Y-101042192D01*
X93063201Y-101184838D01*
X93065056Y-101184840D01*
X93064838Y-101435167D01*
X93206883Y-101778943D01*
X93469673Y-102042192D01*
X93813201Y-102184838D01*
X94185167Y-102185162D01*
X94528943Y-102043117D01*
X94792192Y-101780327D01*
X94934838Y-101436799D01*
X94935162Y-101064833D01*
X94793117Y-100721057D01*
X94530327Y-100457808D01*
X94355389Y-100385167D01*
X96299838Y-100385167D01*
X96441883Y-100728943D01*
X96704673Y-100992192D01*
X97048201Y-101134838D01*
X97420167Y-101135162D01*
X97763943Y-100993117D01*
X98027192Y-100730327D01*
X98169838Y-100386799D01*
X98170162Y-100014833D01*
X98028117Y-99671057D01*
X97765327Y-99407808D01*
X97421799Y-99265162D01*
X97049833Y-99264838D01*
X96706057Y-99406883D01*
X96442808Y-99669673D01*
X96300162Y-100013201D01*
X96299838Y-100385167D01*
X94355389Y-100385167D01*
X94186799Y-100315162D01*
X94184944Y-100315160D01*
X94185162Y-100064833D01*
X94043117Y-99721057D01*
X93780327Y-99457808D01*
X93436799Y-99315162D01*
X93064833Y-99314838D01*
X92721057Y-99456883D01*
X92457808Y-99719673D01*
X92315162Y-100063201D01*
X92314838Y-100435167D01*
X87762000Y-100435167D01*
X87762000Y-95685167D01*
X90064838Y-95685167D01*
X90206883Y-96028943D01*
X90469673Y-96292192D01*
X90813201Y-96434838D01*
X91185167Y-96435162D01*
X91528943Y-96293117D01*
X91792192Y-96030327D01*
X91934838Y-95686799D01*
X91935162Y-95314833D01*
X91793117Y-94971057D01*
X91530327Y-94707808D01*
X91186799Y-94565162D01*
X90814833Y-94564838D01*
X90471057Y-94706883D01*
X90207808Y-94969673D01*
X90065162Y-95313201D01*
X90064838Y-95685167D01*
X87762000Y-95685167D01*
X87762000Y-94410000D01*
X99243015Y-94410000D01*
X99200162Y-94513201D01*
X99200162Y-94513201D01*
G37*
X99200162Y-94513201D02*
X99199838Y-94885167D01*
X99341883Y-95228943D01*
X99604673Y-95492192D01*
X99948201Y-95634838D01*
X100320167Y-95635162D01*
X100508000Y-95557551D01*
X100508000Y-103200000D01*
X100518006Y-103249410D01*
X100546447Y-103291035D01*
X100588841Y-103318315D01*
X100635000Y-103327000D01*
X108675000Y-103327000D01*
X108675000Y-104465034D01*
X108449833Y-104464838D01*
X108106057Y-104606883D01*
X107842808Y-104869673D01*
X107700162Y-105213201D01*
X107699838Y-105585167D01*
X107841883Y-105928943D01*
X108104673Y-106192192D01*
X108448201Y-106334838D01*
X108675000Y-106335036D01*
X108675000Y-108815152D01*
X108314833Y-108814838D01*
X107971057Y-108956883D01*
X107707808Y-109219673D01*
X107565162Y-109563201D01*
X107564838Y-109935167D01*
X107706883Y-110278943D01*
X107969673Y-110542192D01*
X108313201Y-110684838D01*
X108675000Y-110685153D01*
X108675000Y-135073000D01*
X101635000Y-135073000D01*
X101585590Y-135083006D01*
X101543965Y-135111447D01*
X101516685Y-135153841D01*
X101508000Y-135200000D01*
X101508000Y-136240978D01*
X101409449Y-136339357D01*
X101175267Y-136903330D01*
X101174735Y-137513991D01*
X101407932Y-138078371D01*
X101508000Y-138178614D01*
X101508000Y-141320978D01*
X101409449Y-141419357D01*
X101175267Y-141983330D01*
X101174735Y-142593991D01*
X101407932Y-143158371D01*
X101508000Y-143258614D01*
X101508000Y-143490000D01*
X92662747Y-143490000D01*
X92684838Y-143436799D01*
X92685162Y-143064833D01*
X92543117Y-142721057D01*
X92280327Y-142457808D01*
X91936799Y-142315162D01*
X91564833Y-142314838D01*
X91221057Y-142456883D01*
X90957808Y-142719673D01*
X90815162Y-143063201D01*
X90814838Y-143435167D01*
X90837494Y-143490000D01*
X87762000Y-143490000D01*
X87762000Y-141935167D01*
X94064838Y-141935167D01*
X94206883Y-142278943D01*
X94469673Y-142542192D01*
X94813201Y-142684838D01*
X95185167Y-142685162D01*
X95528943Y-142543117D01*
X95792192Y-142280327D01*
X95934838Y-141936799D01*
X95934840Y-141934944D01*
X96185167Y-141935162D01*
X96528943Y-141793117D01*
X96792192Y-141530327D01*
X96934838Y-141186799D01*
X96935162Y-140814833D01*
X96793117Y-140471057D01*
X96530327Y-140207808D01*
X96186799Y-140065162D01*
X95814833Y-140064838D01*
X95471057Y-140206883D01*
X95207808Y-140469673D01*
X95065162Y-140813201D01*
X95065160Y-140815056D01*
X94814833Y-140814838D01*
X94471057Y-140956883D01*
X94207808Y-141219673D01*
X94065162Y-141563201D01*
X94064838Y-141935167D01*
X87762000Y-141935167D01*
X87762000Y-140185167D01*
X90814838Y-140185167D01*
X90956883Y-140528943D01*
X91219673Y-140792192D01*
X91563201Y-140934838D01*
X91935167Y-140935162D01*
X92278943Y-140793117D01*
X92542192Y-140530327D01*
X92684838Y-140186799D01*
X92685162Y-139814833D01*
X92543117Y-139471057D01*
X92280327Y-139207808D01*
X91936799Y-139065162D01*
X91564833Y-139064838D01*
X91221057Y-139206883D01*
X90957808Y-139469673D01*
X90815162Y-139813201D01*
X90814838Y-140185167D01*
X87762000Y-140185167D01*
X87762000Y-139435167D01*
X88064838Y-139435167D01*
X88206883Y-139778943D01*
X88469673Y-140042192D01*
X88813201Y-140184838D01*
X89185167Y-140185162D01*
X89528943Y-140043117D01*
X89792192Y-139780327D01*
X89934838Y-139436799D01*
X89935162Y-139064833D01*
X89881586Y-138935167D01*
X93064838Y-138935167D01*
X93206883Y-139278943D01*
X93469673Y-139542192D01*
X93813201Y-139684838D01*
X94185167Y-139685162D01*
X94528943Y-139543117D01*
X94792192Y-139280327D01*
X94934838Y-138936799D01*
X94935162Y-138564833D01*
X94793117Y-138221057D01*
X94530327Y-137957808D01*
X94186799Y-137815162D01*
X93814833Y-137814838D01*
X93471057Y-137956883D01*
X93207808Y-138219673D01*
X93065162Y-138563201D01*
X93064838Y-138935167D01*
X89881586Y-138935167D01*
X89793117Y-138721057D01*
X89530327Y-138457808D01*
X89186799Y-138315162D01*
X88814833Y-138314838D01*
X88471057Y-138456883D01*
X88207808Y-138719673D01*
X88065162Y-139063201D01*
X88064838Y-139435167D01*
X87762000Y-139435167D01*
X87762000Y-136200000D01*
X87751994Y-136150590D01*
X87723553Y-136108965D01*
X87681159Y-136081685D01*
X87635000Y-136073000D01*
X86702451Y-136073000D01*
X86370512Y-135935167D01*
X97564838Y-135935167D01*
X97706883Y-136278943D01*
X97969673Y-136542192D01*
X98313201Y-136684838D01*
X98685167Y-136685162D01*
X99028943Y-136543117D01*
X99292192Y-136280327D01*
X99434838Y-135936799D01*
X99435162Y-135564833D01*
X99293117Y-135221057D01*
X99030327Y-134957808D01*
X98686799Y-134815162D01*
X98314833Y-134814838D01*
X97971057Y-134956883D01*
X97707808Y-135219673D01*
X97565162Y-135563201D01*
X97564838Y-135935167D01*
X86370512Y-135935167D01*
X86346670Y-135925267D01*
X85736009Y-135924735D01*
X85377180Y-136073000D01*
X81622451Y-136073000D01*
X81266670Y-135925267D01*
X80656009Y-135924735D01*
X80297180Y-136073000D01*
X79345000Y-136073000D01*
X79345000Y-135185167D01*
X85814838Y-135185167D01*
X85956883Y-135528943D01*
X86219673Y-135792192D01*
X86563201Y-135934838D01*
X86935167Y-135935162D01*
X87278943Y-135793117D01*
X87542192Y-135530327D01*
X87684838Y-135186799D01*
X87684839Y-135185167D01*
X95699838Y-135185167D01*
X95841883Y-135528943D01*
X96104673Y-135792192D01*
X96448201Y-135934838D01*
X96820167Y-135935162D01*
X97163943Y-135793117D01*
X97427192Y-135530327D01*
X97569838Y-135186799D01*
X97570162Y-134814833D01*
X97428117Y-134471057D01*
X97165327Y-134207808D01*
X96821799Y-134065162D01*
X96449833Y-134064838D01*
X96106057Y-134206883D01*
X95842808Y-134469673D01*
X95700162Y-134813201D01*
X95699838Y-135185167D01*
X87684839Y-135185167D01*
X87685162Y-134814833D01*
X87543117Y-134471057D01*
X87280327Y-134207808D01*
X87205529Y-134176749D01*
X87528943Y-134043117D01*
X87792192Y-133780327D01*
X87934838Y-133436799D01*
X87935162Y-133064833D01*
X87902245Y-132985167D01*
X99699838Y-132985167D01*
X99841883Y-133328943D01*
X100104673Y-133592192D01*
X100448201Y-133734838D01*
X100820167Y-133735162D01*
X101163943Y-133593117D01*
X101427192Y-133330327D01*
X101569838Y-132986799D01*
X101570162Y-132614833D01*
X101428117Y-132271057D01*
X101165327Y-132007808D01*
X100821799Y-131865162D01*
X100449833Y-131864838D01*
X100106057Y-132006883D01*
X99842808Y-132269673D01*
X99700162Y-132613201D01*
X99699838Y-132985167D01*
X87902245Y-132985167D01*
X87793117Y-132721057D01*
X87530327Y-132457808D01*
X87186799Y-132315162D01*
X86814833Y-132314838D01*
X86471057Y-132456883D01*
X86207808Y-132719673D01*
X86065162Y-133063201D01*
X86064838Y-133435167D01*
X86206883Y-133778943D01*
X86469673Y-134042192D01*
X86544471Y-134073251D01*
X86221057Y-134206883D01*
X85957808Y-134469673D01*
X85815162Y-134813201D01*
X85814838Y-135185167D01*
X79345000Y-135185167D01*
X79345000Y-132685167D01*
X81314838Y-132685167D01*
X81456883Y-133028943D01*
X81719673Y-133292192D01*
X82063201Y-133434838D01*
X82435167Y-133435162D01*
X82778943Y-133293117D01*
X83042192Y-133030327D01*
X83184838Y-132686799D01*
X83185162Y-132314833D01*
X83043117Y-131971057D01*
X82780327Y-131707808D01*
X82436799Y-131565162D01*
X82064833Y-131564838D01*
X81721057Y-131706883D01*
X81457808Y-131969673D01*
X81315162Y-132313201D01*
X81314838Y-132685167D01*
X79345000Y-132685167D01*
X79345000Y-128785167D01*
X94099838Y-128785167D01*
X94241883Y-129128943D01*
X94504673Y-129392192D01*
X94657290Y-129455565D01*
X94442808Y-129669673D01*
X94300162Y-130013201D01*
X94299838Y-130385167D01*
X94441883Y-130728943D01*
X94704673Y-130992192D01*
X95048201Y-131134838D01*
X95420167Y-131135162D01*
X95763943Y-130993117D01*
X96027192Y-130730327D01*
X96169838Y-130386799D01*
X96170162Y-130014833D01*
X96028117Y-129671057D01*
X95765327Y-129407808D01*
X95612710Y-129344435D01*
X95827192Y-129130327D01*
X95969838Y-128786799D01*
X95970162Y-128414833D01*
X95828117Y-128071057D01*
X95565327Y-127807808D01*
X95221799Y-127665162D01*
X94849833Y-127664838D01*
X94506057Y-127806883D01*
X94242808Y-128069673D01*
X94100162Y-128413201D01*
X94099838Y-128785167D01*
X79345000Y-128785167D01*
X79345000Y-123435167D01*
X79564838Y-123435167D01*
X79706883Y-123778943D01*
X79969673Y-124042192D01*
X80313201Y-124184838D01*
X80685167Y-124185162D01*
X81028943Y-124043117D01*
X81292192Y-123780327D01*
X81331706Y-123685167D01*
X86564838Y-123685167D01*
X86706883Y-124028943D01*
X86969673Y-124292192D01*
X87313201Y-124434838D01*
X87685167Y-124435162D01*
X88028943Y-124293117D01*
X88064993Y-124257130D01*
X88064838Y-124435167D01*
X88206883Y-124778943D01*
X88469673Y-125042192D01*
X88813201Y-125184838D01*
X89185167Y-125185162D01*
X89528943Y-125043117D01*
X89792192Y-124780327D01*
X89934838Y-124436799D01*
X89935162Y-124064833D01*
X89856707Y-123874958D01*
X89934838Y-123686799D01*
X89935100Y-123385167D01*
X90699838Y-123385167D01*
X90841883Y-123728943D01*
X91104673Y-123992192D01*
X91448201Y-124134838D01*
X91820167Y-124135162D01*
X92163943Y-123993117D01*
X92427192Y-123730327D01*
X92569838Y-123386799D01*
X92570162Y-123014833D01*
X92428117Y-122671057D01*
X92165327Y-122407808D01*
X91821799Y-122265162D01*
X91449833Y-122264838D01*
X91106057Y-122406883D01*
X90842808Y-122669673D01*
X90700162Y-123013201D01*
X90699838Y-123385167D01*
X89935100Y-123385167D01*
X89935162Y-123314833D01*
X89793117Y-122971057D01*
X89530327Y-122707808D01*
X89186799Y-122565162D01*
X88814833Y-122564838D01*
X88471057Y-122706883D01*
X88249845Y-122927709D01*
X88030327Y-122707808D01*
X87686799Y-122565162D01*
X87314833Y-122564838D01*
X86971057Y-122706883D01*
X86707808Y-122969673D01*
X86565162Y-123313201D01*
X86564838Y-123685167D01*
X81331706Y-123685167D01*
X81434838Y-123436799D01*
X81435162Y-123064833D01*
X81293117Y-122721057D01*
X81030327Y-122457808D01*
X80686799Y-122315162D01*
X80314833Y-122314838D01*
X79971057Y-122456883D01*
X79707808Y-122719673D01*
X79565162Y-123063201D01*
X79564838Y-123435167D01*
X79345000Y-123435167D01*
X79345000Y-119594233D01*
X79563201Y-119684838D01*
X79814838Y-119685057D01*
X79814838Y-119685167D01*
X79945069Y-120000351D01*
X79815162Y-120313201D01*
X79814838Y-120685167D01*
X79956883Y-121028943D01*
X80219673Y-121292192D01*
X80563201Y-121434838D01*
X80935167Y-121435162D01*
X81278943Y-121293117D01*
X81542192Y-121030327D01*
X81684838Y-120686799D01*
X81685162Y-120314833D01*
X81554931Y-119999649D01*
X81684838Y-119686799D01*
X81685057Y-119435167D01*
X82064838Y-119435167D01*
X82206883Y-119778943D01*
X82427709Y-120000155D01*
X82207808Y-120219673D01*
X82065162Y-120563201D01*
X82064838Y-120935167D01*
X82206883Y-121278943D01*
X82469673Y-121542192D01*
X82813201Y-121684838D01*
X83185167Y-121685162D01*
X83528943Y-121543117D01*
X83750155Y-121322291D01*
X83969673Y-121542192D01*
X84313201Y-121684838D01*
X84685167Y-121685162D01*
X85028943Y-121543117D01*
X85292192Y-121280327D01*
X85434838Y-120936799D01*
X85434965Y-120790000D01*
X94722041Y-120790000D01*
X94836115Y-121363489D01*
X95160971Y-121849670D01*
X95475752Y-122060000D01*
X95160971Y-122270330D01*
X94836115Y-122756511D01*
X94722041Y-123330000D01*
X94836115Y-123903489D01*
X95160971Y-124389670D01*
X95647152Y-124714526D01*
X96220641Y-124828600D01*
X96279359Y-124828600D01*
X96852848Y-124714526D01*
X97339029Y-124389670D01*
X97520000Y-124118828D01*
X97700971Y-124389670D01*
X98187152Y-124714526D01*
X98760641Y-124828600D01*
X98819359Y-124828600D01*
X99392848Y-124714526D01*
X99879029Y-124389670D01*
X100203885Y-123903489D01*
X100317959Y-123330000D01*
X100203885Y-122756511D01*
X99879029Y-122270330D01*
X99564248Y-122060000D01*
X99879029Y-121849670D01*
X100203885Y-121363489D01*
X100317959Y-120790000D01*
X100226460Y-120330000D01*
X102567041Y-120330000D01*
X102681115Y-120903489D01*
X103005971Y-121389670D01*
X103320752Y-121600000D01*
X103005971Y-121810330D01*
X102681115Y-122296511D01*
X102567041Y-122870000D01*
X102681115Y-123443489D01*
X103005971Y-123929670D01*
X103320752Y-124140000D01*
X103005971Y-124350330D01*
X102681115Y-124836511D01*
X102567041Y-125410000D01*
X102681115Y-125983489D01*
X103005971Y-126469670D01*
X103320752Y-126680000D01*
X103005971Y-126890330D01*
X102681115Y-127376511D01*
X102567041Y-127950000D01*
X102681115Y-128523489D01*
X103005971Y-129009670D01*
X103492152Y-129334526D01*
X104065641Y-129448600D01*
X104124359Y-129448600D01*
X104697848Y-129334526D01*
X105163442Y-129023426D01*
X105168238Y-129048917D01*
X105307310Y-129265041D01*
X105519510Y-129410031D01*
X105771400Y-129461040D01*
X107498600Y-129461040D01*
X107733917Y-129416762D01*
X107950041Y-129277690D01*
X108095031Y-129065490D01*
X108146040Y-128813600D01*
X108146040Y-127086400D01*
X108101762Y-126851083D01*
X107962690Y-126634959D01*
X107750490Y-126489969D01*
X107706869Y-126481136D01*
X107724029Y-126469670D01*
X108048885Y-125983489D01*
X108162959Y-125410000D01*
X108048885Y-124836511D01*
X107724029Y-124350330D01*
X107409248Y-124140000D01*
X107724029Y-123929670D01*
X108048885Y-123443489D01*
X108162959Y-122870000D01*
X108048885Y-122296511D01*
X107724029Y-121810330D01*
X107409248Y-121600000D01*
X107724029Y-121389670D01*
X108048885Y-120903489D01*
X108162959Y-120330000D01*
X108048885Y-119756511D01*
X107724029Y-119270330D01*
X107237848Y-118945474D01*
X106664359Y-118831400D01*
X106605641Y-118831400D01*
X106032152Y-118945474D01*
X105545971Y-119270330D01*
X105365000Y-119541172D01*
X105184029Y-119270330D01*
X104697848Y-118945474D01*
X104124359Y-118831400D01*
X104065641Y-118831400D01*
X103492152Y-118945474D01*
X103005971Y-119270330D01*
X102681115Y-119756511D01*
X102567041Y-120330000D01*
X100226460Y-120330000D01*
X100203885Y-120216511D01*
X99879029Y-119730330D01*
X99564248Y-119520000D01*
X99879029Y-119309670D01*
X100203885Y-118823489D01*
X100317959Y-118250000D01*
X100203885Y-117676511D01*
X99879029Y-117190330D01*
X99392848Y-116865474D01*
X98819359Y-116751400D01*
X98760641Y-116751400D01*
X98187152Y-116865474D01*
X97721558Y-117176574D01*
X97716762Y-117151083D01*
X97577690Y-116934959D01*
X97365490Y-116789969D01*
X97113600Y-116738960D01*
X95386400Y-116738960D01*
X95151083Y-116783238D01*
X94934959Y-116922310D01*
X94789969Y-117134510D01*
X94738960Y-117386400D01*
X94738960Y-119113600D01*
X94783238Y-119348917D01*
X94922310Y-119565041D01*
X95134510Y-119710031D01*
X95178131Y-119718864D01*
X95160971Y-119730330D01*
X94836115Y-120216511D01*
X94722041Y-120790000D01*
X85434965Y-120790000D01*
X85435162Y-120564833D01*
X85293117Y-120221057D01*
X85072291Y-119999845D01*
X85292192Y-119780327D01*
X85434838Y-119436799D01*
X85435162Y-119064833D01*
X85293117Y-118721057D01*
X85030327Y-118457808D01*
X84686799Y-118315162D01*
X84314833Y-118314838D01*
X83971057Y-118456883D01*
X83749845Y-118677709D01*
X83530327Y-118457808D01*
X83186799Y-118315162D01*
X82814833Y-118314838D01*
X82471057Y-118456883D01*
X82207808Y-118719673D01*
X82065162Y-119063201D01*
X82064838Y-119435167D01*
X81685057Y-119435167D01*
X81685162Y-119314833D01*
X81543117Y-118971057D01*
X81280327Y-118707808D01*
X80936799Y-118565162D01*
X80685162Y-118564943D01*
X80685162Y-118564833D01*
X80543117Y-118221057D01*
X80280327Y-117957808D01*
X79936799Y-117815162D01*
X79564833Y-117814838D01*
X79345000Y-117905671D01*
X79345000Y-117185167D01*
X80064838Y-117185167D01*
X80206883Y-117528943D01*
X80469673Y-117792192D01*
X80813201Y-117934838D01*
X81185167Y-117935162D01*
X81528943Y-117793117D01*
X81792192Y-117530327D01*
X81934838Y-117186799D01*
X81935057Y-116935167D01*
X88814838Y-116935167D01*
X88956883Y-117278943D01*
X89219673Y-117542192D01*
X89563201Y-117684838D01*
X89935167Y-117685162D01*
X90278943Y-117543117D01*
X90542192Y-117280327D01*
X90581706Y-117185167D01*
X91064838Y-117185167D01*
X91206883Y-117528943D01*
X91469673Y-117792192D01*
X91813201Y-117934838D01*
X92185167Y-117935162D01*
X92528943Y-117793117D01*
X92792192Y-117530327D01*
X92926804Y-117206147D01*
X92956883Y-117278943D01*
X93219673Y-117542192D01*
X93563201Y-117684838D01*
X93935167Y-117685162D01*
X94278943Y-117543117D01*
X94542192Y-117280327D01*
X94684838Y-116936799D01*
X94685162Y-116564833D01*
X94543117Y-116221057D01*
X94280327Y-115957808D01*
X93936799Y-115815162D01*
X93564833Y-115814838D01*
X93221057Y-115956883D01*
X92957808Y-116219673D01*
X92823196Y-116543853D01*
X92793117Y-116471057D01*
X92530327Y-116207808D01*
X92186799Y-116065162D01*
X91814833Y-116064838D01*
X91471057Y-116206883D01*
X91207808Y-116469673D01*
X91065162Y-116813201D01*
X91064838Y-117185167D01*
X90581706Y-117185167D01*
X90684838Y-116936799D01*
X90685162Y-116564833D01*
X90543117Y-116221057D01*
X90280327Y-115957808D01*
X89936799Y-115815162D01*
X89564833Y-115814838D01*
X89221057Y-115956883D01*
X88957808Y-116219673D01*
X88815162Y-116563201D01*
X88814838Y-116935167D01*
X81935057Y-116935167D01*
X81935162Y-116814833D01*
X81793117Y-116471057D01*
X81530327Y-116207808D01*
X81186799Y-116065162D01*
X80814833Y-116064838D01*
X80471057Y-116206883D01*
X80207808Y-116469673D01*
X80065162Y-116813201D01*
X80064838Y-117185167D01*
X79345000Y-117185167D01*
X79345000Y-115185167D01*
X80064838Y-115185167D01*
X80206883Y-115528943D01*
X80469673Y-115792192D01*
X80813201Y-115934838D01*
X81185167Y-115935162D01*
X81528943Y-115793117D01*
X81792192Y-115530327D01*
X81934838Y-115186799D01*
X81935162Y-114814833D01*
X81922905Y-114785167D01*
X95699838Y-114785167D01*
X95841883Y-115128943D01*
X96104673Y-115392192D01*
X96448201Y-115534838D01*
X96820167Y-115535162D01*
X97163943Y-115393117D01*
X97427192Y-115130327D01*
X97569838Y-114786799D01*
X97570162Y-114414833D01*
X97445083Y-114112118D01*
X97623512Y-113934000D01*
X102721560Y-113934000D01*
X102721560Y-115966000D01*
X102765838Y-116201317D01*
X102904910Y-116417441D01*
X103117110Y-116562431D01*
X103369000Y-116613440D01*
X105401000Y-116613440D01*
X105636317Y-116569162D01*
X105852441Y-116430090D01*
X105954198Y-116281163D01*
X106293190Y-116507670D01*
X106925000Y-116633345D01*
X107556810Y-116507670D01*
X108092433Y-116149778D01*
X108450325Y-115614155D01*
X108576000Y-114982345D01*
X108576000Y-114917655D01*
X108450325Y-114285845D01*
X108092433Y-113750222D01*
X107556810Y-113392330D01*
X106925000Y-113266655D01*
X106293190Y-113392330D01*
X105953208Y-113619499D01*
X105865090Y-113482559D01*
X105652890Y-113337569D01*
X105401000Y-113286560D01*
X103369000Y-113286560D01*
X103133683Y-113330838D01*
X102917559Y-113469910D01*
X102772569Y-113682110D01*
X102721560Y-113934000D01*
X97623512Y-113934000D01*
X97627192Y-113930327D01*
X97769838Y-113586799D01*
X97770162Y-113214833D01*
X97628117Y-112871057D01*
X97442552Y-112685167D01*
X98814838Y-112685167D01*
X98956883Y-113028943D01*
X99219673Y-113292192D01*
X99563201Y-113434838D01*
X99935167Y-113435162D01*
X100278943Y-113293117D01*
X100542192Y-113030327D01*
X100684838Y-112686799D01*
X100685162Y-112314833D01*
X100543117Y-111971057D01*
X100507290Y-111935167D01*
X100814838Y-111935167D01*
X100956883Y-112278943D01*
X101219673Y-112542192D01*
X101563201Y-112684838D01*
X101935167Y-112685162D01*
X102278943Y-112543117D01*
X102542192Y-112280327D01*
X102684838Y-111936799D01*
X102685162Y-111564833D01*
X102652245Y-111485167D01*
X105364838Y-111485167D01*
X105506883Y-111828943D01*
X105769673Y-112092192D01*
X106113201Y-112234838D01*
X106485167Y-112235162D01*
X106828943Y-112093117D01*
X107092192Y-111830327D01*
X107234838Y-111486799D01*
X107235162Y-111114833D01*
X107093117Y-110771057D01*
X106830327Y-110507808D01*
X106486799Y-110365162D01*
X106114833Y-110364838D01*
X105771057Y-110506883D01*
X105507808Y-110769673D01*
X105365162Y-111113201D01*
X105364838Y-111485167D01*
X102652245Y-111485167D01*
X102543117Y-111221057D01*
X102280327Y-110957808D01*
X101936799Y-110815162D01*
X101564833Y-110814838D01*
X101221057Y-110956883D01*
X100957808Y-111219673D01*
X100815162Y-111563201D01*
X100814838Y-111935167D01*
X100507290Y-111935167D01*
X100280327Y-111707808D01*
X99936799Y-111565162D01*
X99564833Y-111564838D01*
X99221057Y-111706883D01*
X98957808Y-111969673D01*
X98815162Y-112313201D01*
X98814838Y-112685167D01*
X97442552Y-112685167D01*
X97365327Y-112607808D01*
X97021799Y-112465162D01*
X96649833Y-112464838D01*
X96306057Y-112606883D01*
X96042808Y-112869673D01*
X95900162Y-113213201D01*
X95899838Y-113585167D01*
X96024917Y-113887882D01*
X95842808Y-114069673D01*
X95700162Y-114413201D01*
X95699838Y-114785167D01*
X81922905Y-114785167D01*
X81793117Y-114471057D01*
X81530327Y-114207808D01*
X81186799Y-114065162D01*
X80814833Y-114064838D01*
X80471057Y-114206883D01*
X80207808Y-114469673D01*
X80065162Y-114813201D01*
X80064838Y-115185167D01*
X79345000Y-115185167D01*
X79345000Y-111985167D01*
X88899838Y-111985167D01*
X89041883Y-112328943D01*
X89304673Y-112592192D01*
X89648201Y-112734838D01*
X90020167Y-112735162D01*
X90363943Y-112593117D01*
X90535068Y-112422291D01*
X90704673Y-112592192D01*
X91048201Y-112734838D01*
X91420167Y-112735162D01*
X91763943Y-112593117D01*
X92027192Y-112330327D01*
X92169838Y-111986799D01*
X92169882Y-111935167D01*
X94814838Y-111935167D01*
X94956883Y-112278943D01*
X95219673Y-112542192D01*
X95563201Y-112684838D01*
X95935167Y-112685162D01*
X96278943Y-112543117D01*
X96542192Y-112280327D01*
X96684838Y-111936799D01*
X96685162Y-111564833D01*
X96543117Y-111221057D01*
X96280327Y-110957808D01*
X95936799Y-110815162D01*
X95564833Y-110814838D01*
X95221057Y-110956883D01*
X94957808Y-111219673D01*
X94815162Y-111563201D01*
X94814838Y-111935167D01*
X92169882Y-111935167D01*
X92170162Y-111614833D01*
X92028117Y-111271057D01*
X91765327Y-111007808D01*
X91421799Y-110865162D01*
X91049833Y-110864838D01*
X90706057Y-111006883D01*
X90534932Y-111177709D01*
X90365327Y-111007808D01*
X90021799Y-110865162D01*
X89649833Y-110864838D01*
X89306057Y-111006883D01*
X89042808Y-111269673D01*
X88900162Y-111613201D01*
X88899838Y-111985167D01*
X79345000Y-111985167D01*
X79345000Y-108840167D01*
X102399838Y-108840167D01*
X102541883Y-109183943D01*
X102607710Y-109249885D01*
X102542808Y-109314673D01*
X102400162Y-109658201D01*
X102399838Y-110030167D01*
X102541883Y-110373943D01*
X102804673Y-110637192D01*
X103148201Y-110779838D01*
X103520167Y-110780162D01*
X103750141Y-110685139D01*
X103978201Y-110779838D01*
X104350167Y-110780162D01*
X104693943Y-110638117D01*
X104957192Y-110375327D01*
X105099838Y-110031799D01*
X105100162Y-109659833D01*
X104958117Y-109316057D01*
X104892290Y-109250115D01*
X104957192Y-109185327D01*
X105099838Y-108841799D01*
X105100162Y-108469833D01*
X104958117Y-108126057D01*
X104695327Y-107862808D01*
X104351799Y-107720162D01*
X103979833Y-107719838D01*
X103749859Y-107814861D01*
X103521799Y-107720162D01*
X103149833Y-107719838D01*
X102806057Y-107861883D01*
X102542808Y-108124673D01*
X102400162Y-108468201D01*
X102399838Y-108840167D01*
X79345000Y-108840167D01*
X79345000Y-107185167D01*
X98064838Y-107185167D01*
X98206883Y-107528943D01*
X98469673Y-107792192D01*
X98813201Y-107934838D01*
X99185167Y-107935162D01*
X99528943Y-107793117D01*
X99750155Y-107572291D01*
X99969673Y-107792192D01*
X100313201Y-107934838D01*
X100685167Y-107935162D01*
X101028943Y-107793117D01*
X101189052Y-107633287D01*
X101313201Y-107684838D01*
X101685167Y-107685162D01*
X102028943Y-107543117D01*
X102292192Y-107280327D01*
X102331706Y-107185167D01*
X104314838Y-107185167D01*
X104456883Y-107528943D01*
X104719673Y-107792192D01*
X105063201Y-107934838D01*
X105435167Y-107935162D01*
X105778943Y-107793117D01*
X106042192Y-107530327D01*
X106184838Y-107186799D01*
X106185162Y-106814833D01*
X106043117Y-106471057D01*
X105780327Y-106207808D01*
X105436799Y-106065162D01*
X105064833Y-106064838D01*
X104721057Y-106206883D01*
X104457808Y-106469673D01*
X104315162Y-106813201D01*
X104314838Y-107185167D01*
X102331706Y-107185167D01*
X102434838Y-106936799D01*
X102435162Y-106564833D01*
X102293117Y-106221057D01*
X102030327Y-105957808D01*
X101686799Y-105815162D01*
X101314833Y-105814838D01*
X100971057Y-105956883D01*
X100810948Y-106116713D01*
X100686799Y-106065162D01*
X100314833Y-106064838D01*
X99971057Y-106206883D01*
X99749845Y-106427709D01*
X99530327Y-106207808D01*
X99186799Y-106065162D01*
X98814833Y-106064838D01*
X98471057Y-106206883D01*
X98207808Y-106469673D01*
X98065162Y-106813201D01*
X98064838Y-107185167D01*
X79345000Y-107185167D01*
X79345000Y-105685167D01*
X84064838Y-105685167D01*
X84206883Y-106028943D01*
X84469673Y-106292192D01*
X84813201Y-106434838D01*
X85185167Y-106435162D01*
X85528943Y-106293117D01*
X85792192Y-106030327D01*
X85831706Y-105935167D01*
X90064838Y-105935167D01*
X90206883Y-106278943D01*
X90469673Y-106542192D01*
X90813201Y-106684838D01*
X91185167Y-106685162D01*
X91528943Y-106543117D01*
X91750155Y-106322291D01*
X91969673Y-106542192D01*
X92313201Y-106684838D01*
X92685167Y-106685162D01*
X93028943Y-106543117D01*
X93292192Y-106280327D01*
X93434838Y-105936799D01*
X93435162Y-105564833D01*
X93293117Y-105221057D01*
X93030327Y-104957808D01*
X92975802Y-104935167D01*
X95314838Y-104935167D01*
X95445069Y-105250351D01*
X95315162Y-105563201D01*
X95314838Y-105935167D01*
X95456883Y-106278943D01*
X95719673Y-106542192D01*
X96063201Y-106684838D01*
X96435167Y-106685162D01*
X96778943Y-106543117D01*
X97042192Y-106280327D01*
X97184838Y-105936799D01*
X97185162Y-105564833D01*
X97054931Y-105249649D01*
X97184838Y-104936799D01*
X97185162Y-104564833D01*
X97043117Y-104221057D01*
X96780327Y-103957808D01*
X96436799Y-103815162D01*
X96064833Y-103814838D01*
X95721057Y-103956883D01*
X95457808Y-104219673D01*
X95315162Y-104563201D01*
X95314838Y-104935167D01*
X92975802Y-104935167D01*
X92686799Y-104815162D01*
X92314833Y-104814838D01*
X91971057Y-104956883D01*
X91749845Y-105177709D01*
X91530327Y-104957808D01*
X91186799Y-104815162D01*
X90814833Y-104814838D01*
X90471057Y-104956883D01*
X90207808Y-105219673D01*
X90065162Y-105563201D01*
X90064838Y-105935167D01*
X85831706Y-105935167D01*
X85934838Y-105686799D01*
X85935162Y-105314833D01*
X85793117Y-104971057D01*
X85530327Y-104707808D01*
X85186799Y-104565162D01*
X84814833Y-104564838D01*
X84471057Y-104706883D01*
X84207808Y-104969673D01*
X84065162Y-105313201D01*
X84064838Y-105685167D01*
X79345000Y-105685167D01*
X79345000Y-102935167D01*
X88064838Y-102935167D01*
X88206883Y-103278943D01*
X88469673Y-103542192D01*
X88813201Y-103684838D01*
X89185167Y-103685162D01*
X89528943Y-103543117D01*
X89792192Y-103280327D01*
X89934838Y-102936799D01*
X89935162Y-102564833D01*
X89793117Y-102221057D01*
X89530327Y-101957808D01*
X89186799Y-101815162D01*
X88814833Y-101814838D01*
X88471057Y-101956883D01*
X88207808Y-102219673D01*
X88065162Y-102563201D01*
X88064838Y-102935167D01*
X79345000Y-102935167D01*
X79345000Y-102327000D01*
X87635000Y-102327000D01*
X87684410Y-102316994D01*
X87726035Y-102288553D01*
X87753315Y-102246159D01*
X87762000Y-102200000D01*
X87762000Y-100435167D01*
X92314838Y-100435167D01*
X92456883Y-100778943D01*
X92719673Y-101042192D01*
X93063201Y-101184838D01*
X93065056Y-101184840D01*
X93064838Y-101435167D01*
X93206883Y-101778943D01*
X93469673Y-102042192D01*
X93813201Y-102184838D01*
X94185167Y-102185162D01*
X94528943Y-102043117D01*
X94792192Y-101780327D01*
X94934838Y-101436799D01*
X94935162Y-101064833D01*
X94793117Y-100721057D01*
X94530327Y-100457808D01*
X94355389Y-100385167D01*
X96299838Y-100385167D01*
X96441883Y-100728943D01*
X96704673Y-100992192D01*
X97048201Y-101134838D01*
X97420167Y-101135162D01*
X97763943Y-100993117D01*
X98027192Y-100730327D01*
X98169838Y-100386799D01*
X98170162Y-100014833D01*
X98028117Y-99671057D01*
X97765327Y-99407808D01*
X97421799Y-99265162D01*
X97049833Y-99264838D01*
X96706057Y-99406883D01*
X96442808Y-99669673D01*
X96300162Y-100013201D01*
X96299838Y-100385167D01*
X94355389Y-100385167D01*
X94186799Y-100315162D01*
X94184944Y-100315160D01*
X94185162Y-100064833D01*
X94043117Y-99721057D01*
X93780327Y-99457808D01*
X93436799Y-99315162D01*
X93064833Y-99314838D01*
X92721057Y-99456883D01*
X92457808Y-99719673D01*
X92315162Y-100063201D01*
X92314838Y-100435167D01*
X87762000Y-100435167D01*
X87762000Y-95685167D01*
X90064838Y-95685167D01*
X90206883Y-96028943D01*
X90469673Y-96292192D01*
X90813201Y-96434838D01*
X91185167Y-96435162D01*
X91528943Y-96293117D01*
X91792192Y-96030327D01*
X91934838Y-95686799D01*
X91935162Y-95314833D01*
X91793117Y-94971057D01*
X91530327Y-94707808D01*
X91186799Y-94565162D01*
X90814833Y-94564838D01*
X90471057Y-94706883D01*
X90207808Y-94969673D01*
X90065162Y-95313201D01*
X90064838Y-95685167D01*
X87762000Y-95685167D01*
X87762000Y-94410000D01*
X99243015Y-94410000D01*
X99200162Y-94513201D01*
M02*
