M48
;DRILL file {KiCad 4.0.2-stable} date Mon 07 Mar 2016 11:14:21 AM HST
;FORMAT={-:-/ absolute / inch / decimal}
FMAT,2
INCH,TZ
T1C0.016
T2C0.040
T3C0.059
%
G90
G05
M72
T1
X3.1398Y-4.6752
X3.1693Y-4.813
X3.1693Y-4.8524
X3.1791Y-4.7047
X3.1791Y-4.7441
X3.189Y-4.5276
X3.189Y-4.6063
X3.2283Y-4.4488
X3.2382Y-5.2165
X3.2677Y-4.6949
X3.2677Y-4.7539
X3.3268Y-4.6949
X3.3268Y-4.7539
X3.3465Y-4.1535
X3.4154Y-5.315
X3.4252Y-5.2461
X3.435Y-4.5866
X3.4449Y-4.8622
X3.5039Y-4.0453
X3.5039Y-4.8622
X3.5039Y-4.8917
X3.5039Y-5.4823
X3.5335Y-4.5965
X3.5335Y-4.7835
X3.5368Y-4.4016
X3.5531Y-5.4921
X3.5827Y-3.7598
X3.5827Y-3.7992
X3.5827Y-4.1634
X3.5919Y-4.4016
X3.6077Y-4.8504
X3.6122Y-5.5118
X3.6122Y-5.6398
X3.622Y-4.6063
X3.6417Y-4.1634
X3.6417Y-4.3701
X3.6713Y-3.9469
X3.6909Y-4.5965
X3.6963Y-3.7283
X3.7008Y-3.9862
X3.7008Y-5.4626
X3.7402Y-5.5807
X3.7415Y-5.063
X3.7494Y-5.126
X3.7697Y-4.3996
X3.7795Y-5.5512
X3.7894Y-4.124
X3.7894Y-4.1634
X3.8045Y-4.5118
X3.8045Y-5.315
X3.8124Y-4.4646
X3.8281Y-3.9449
X3.8439Y-5.3071
X3.8583Y-4.2815
X3.8754Y-5.0945
X3.878Y-5.3445
X3.8976Y-4.2126
X3.9128Y-5.4311
X3.9272Y-4.4291
X3.9423Y-3.7283
X3.9567Y-4.2126
X3.962Y-5.2283
X3.9961Y-4.2028
X4.0059Y-4.3996
X4.0683Y-4.2778
X4.0683Y-4.3246
X4.101Y-4.2778
X4.101Y-4.3246
X4.1437Y-4.2126
X4.185Y-4.3819
X4.2717Y-4.3209
X4.277Y-4.1496
T2
X3.7894Y-4.6555
X3.7894Y-4.7555
X3.7894Y-4.8555
X3.8894Y-4.6555
X3.8894Y-4.7555
X3.8894Y-4.8555
X4.0982Y-4.7374
X4.0982Y-4.8374
X4.0982Y-4.9374
X4.0982Y-5.0374
X4.1096Y-4.5256
X4.1982Y-4.7374
X4.1982Y-4.8374
X4.1982Y-4.9374
X4.1982Y-5.0374
X4.2096Y-4.5256
T3
X3.1874Y-3.7583
X3.1874Y-3.9583
X3.1874Y-5.4118
X3.1874Y-5.6118
X3.2874Y-3.8583
X3.2874Y-5.5118
X3.3874Y-3.7583
X3.3874Y-3.9583
X3.3874Y-5.4118
X3.3874Y-5.6118
X4.024Y-3.7878
X4.024Y-3.9878
X4.0437Y-5.402
X4.0437Y-5.602
X4.124Y-3.8878
X4.1437Y-5.502
X4.224Y-3.7878
X4.224Y-3.9878
X4.2437Y-5.402
X4.2437Y-5.602
T0
M30
