M48
;DRILL file {KiCad 4.0.2-stable} date Tue Mar  8 23:24:34 2016
;FORMAT={3:3/ absolute / metric / keep zeros}
FMAT,2
METRIC,TZ
T1C0.400
T2C1.016
T3C1.500
%
G90
G05
M71
T1
X079750Y-118750
X080500Y-122250
X080500Y-123250
X080750Y-119500
X080750Y-120500
X081000Y-115000
X081000Y-117000
X082000Y-113000
X082250Y-132500
X083000Y-119250
X083000Y-120750
X084500Y-119250
X084500Y-120750
X085000Y-105500
X086750Y-135000
X087000Y-133250
X087250Y-116500
X087500Y-123500
X089000Y-102750
X089000Y-123500
X089000Y-124250
X089000Y-139250
X089750Y-116750
X089750Y-121500
X089835Y-111800
X090250Y-139500
X091000Y-095500
X091000Y-096500
X091000Y-105750
X091235Y-111800
X091635Y-123200
X091750Y-140000
X091750Y-143250
X092000Y-117000
X092500Y-105750
X092500Y-111000
X093250Y-100250
X093750Y-116750
X093885Y-094700
X094000Y-101250
X094000Y-138750
X095000Y-141750
X095035Y-128600
X095235Y-130200
X095750Y-111750
X096000Y-141000
X096250Y-104750
X096250Y-105750
X096635Y-114600
X096635Y-135000
X096835Y-113400
X097235Y-100200
X097635Y-134800
X098000Y-108750
X098435Y-129400
X098500Y-135750
X099000Y-107000
X099385Y-137950
X099750Y-112500
X100135Y-094700
X100500Y-107000
X100635Y-132800
X101500Y-106750
X101750Y-111750
X103335Y-108655
X103335Y-109845
X104165Y-108655
X104165Y-109845
X105250Y-107000
X106300Y-111300
X108500Y-109750
X108635Y-105400
T2
X096250Y-118250
X096250Y-120790
X096250Y-123330
X098790Y-118250
X098790Y-120790
X098790Y-123330
X104095Y-120330
X104095Y-122870
X104095Y-125410
X104095Y-127950
X104385Y-114950
X106635Y-120330
X106635Y-122870
X106635Y-125410
X106635Y-127950
X106925Y-114950
T3
X080960Y-095460
X080960Y-100540
X080960Y-137460
X080960Y-142540
X083500Y-098000
X083500Y-140000
X086040Y-095460
X086040Y-100540
X086040Y-137460
X086040Y-142540
X102210Y-096210
X102210Y-101290
X102710Y-137210
X102710Y-142290
X104750Y-098750
X105250Y-139750
X107290Y-096210
X107290Y-101290
X107790Y-137210
X107790Y-142290
T0
M30
