G04 #@! TF.FileFunction,Legend,Top*
%FSLAX46Y46*%
G04 Gerber Fmt 4.6, Leading zero omitted, Abs format (unit mm)*
G04 Created by KiCad (PCBNEW 4.0.2-stable) date Sat 23 Apr 2016 11:16:51 PM AKDT*
%MOMM*%
G01*
G04 APERTURE LIST*
%ADD10C,0.100000*%
%ADD11C,0.225000*%
%ADD12C,0.200000*%
%ADD13C,0.150000*%
G04 APERTURE END LIST*
D10*
D11*
X141121429Y-94257143D02*
X140692858Y-94257143D01*
X140650001Y-94685714D01*
X140692858Y-94642857D01*
X140778572Y-94600000D01*
X140992858Y-94600000D01*
X141078572Y-94642857D01*
X141121429Y-94685714D01*
X141164286Y-94771429D01*
X141164286Y-94985714D01*
X141121429Y-95071429D01*
X141078572Y-95114286D01*
X140992858Y-95157143D01*
X140778572Y-95157143D01*
X140692858Y-95114286D01*
X140650001Y-95071429D01*
X141464286Y-94557143D02*
X141678572Y-95157143D01*
X141892858Y-94557143D01*
X132057143Y-96371429D02*
X132785714Y-96371429D01*
X132871429Y-96414286D01*
X132914286Y-96457143D01*
X132957143Y-96542858D01*
X132957143Y-96671429D01*
X132914286Y-96757143D01*
X132614286Y-96371429D02*
X132657143Y-96457143D01*
X132657143Y-96628572D01*
X132614286Y-96714286D01*
X132571429Y-96757143D01*
X132485714Y-96800000D01*
X132228571Y-96800000D01*
X132142857Y-96757143D01*
X132100000Y-96714286D01*
X132057143Y-96628572D01*
X132057143Y-96457143D01*
X132100000Y-96371429D01*
X132057143Y-95942857D02*
X132657143Y-95942857D01*
X132142857Y-95942857D02*
X132100000Y-95900000D01*
X132057143Y-95814286D01*
X132057143Y-95685714D01*
X132100000Y-95600000D01*
X132185714Y-95557143D01*
X132657143Y-95557143D01*
X132657143Y-94742857D02*
X131757143Y-94742857D01*
X132614286Y-94742857D02*
X132657143Y-94828571D01*
X132657143Y-95000000D01*
X132614286Y-95085714D01*
X132571429Y-95128571D01*
X132485714Y-95171428D01*
X132228571Y-95171428D01*
X132142857Y-95128571D01*
X132100000Y-95085714D01*
X132057143Y-95000000D01*
X132057143Y-94828571D01*
X132100000Y-94742857D01*
X141807143Y-93914643D02*
X141807143Y-93314643D01*
X141807143Y-93400357D02*
X141850000Y-93357500D01*
X141935714Y-93314643D01*
X142064286Y-93314643D01*
X142150000Y-93357500D01*
X142192857Y-93443214D01*
X142192857Y-93914643D01*
X142192857Y-93443214D02*
X142235714Y-93357500D01*
X142321428Y-93314643D01*
X142450000Y-93314643D01*
X142535714Y-93357500D01*
X142578571Y-93443214D01*
X142578571Y-93914643D01*
X143392857Y-93914643D02*
X143392857Y-93443214D01*
X143350000Y-93357500D01*
X143264286Y-93314643D01*
X143092857Y-93314643D01*
X143007143Y-93357500D01*
X143392857Y-93871786D02*
X143307143Y-93914643D01*
X143092857Y-93914643D01*
X143007143Y-93871786D01*
X142964286Y-93786071D01*
X142964286Y-93700357D01*
X143007143Y-93614643D01*
X143092857Y-93571786D01*
X143307143Y-93571786D01*
X143392857Y-93528929D01*
X144207143Y-93871786D02*
X144121429Y-93914643D01*
X143950000Y-93914643D01*
X143864286Y-93871786D01*
X143821429Y-93828929D01*
X143778572Y-93743214D01*
X143778572Y-93486071D01*
X143821429Y-93400357D01*
X143864286Y-93357500D01*
X143950000Y-93314643D01*
X144121429Y-93314643D01*
X144207143Y-93357500D01*
X144721429Y-93914643D02*
X144635715Y-93871786D01*
X144592858Y-93828929D01*
X144550001Y-93743214D01*
X144550001Y-93486071D01*
X144592858Y-93400357D01*
X144635715Y-93357500D01*
X144721429Y-93314643D01*
X144850001Y-93314643D01*
X144935715Y-93357500D01*
X144978572Y-93400357D01*
X145021429Y-93486071D01*
X145021429Y-93743214D01*
X144978572Y-93828929D01*
X144935715Y-93871786D01*
X144850001Y-93914643D01*
X144721429Y-93914643D01*
X145407144Y-93914643D02*
X145407144Y-93314643D01*
X145407144Y-93400357D02*
X145450001Y-93357500D01*
X145535715Y-93314643D01*
X145664287Y-93314643D01*
X145750001Y-93357500D01*
X145792858Y-93443214D01*
X145792858Y-93914643D01*
X145792858Y-93443214D02*
X145835715Y-93357500D01*
X145921429Y-93314643D01*
X146050001Y-93314643D01*
X146135715Y-93357500D01*
X146178572Y-93443214D01*
X146178572Y-93914643D01*
X147678572Y-93914643D02*
X147678572Y-93443214D01*
X147635715Y-93357500D01*
X147550001Y-93314643D01*
X147378572Y-93314643D01*
X147292858Y-93357500D01*
X147678572Y-93871786D02*
X147592858Y-93914643D01*
X147378572Y-93914643D01*
X147292858Y-93871786D01*
X147250001Y-93786071D01*
X147250001Y-93700357D01*
X147292858Y-93614643D01*
X147378572Y-93571786D01*
X147592858Y-93571786D01*
X147678572Y-93528929D01*
X148107144Y-93914643D02*
X148107144Y-93314643D01*
X148107144Y-93400357D02*
X148150001Y-93357500D01*
X148235715Y-93314643D01*
X148364287Y-93314643D01*
X148450001Y-93357500D01*
X148492858Y-93443214D01*
X148492858Y-93914643D01*
X148492858Y-93443214D02*
X148535715Y-93357500D01*
X148621429Y-93314643D01*
X148750001Y-93314643D01*
X148835715Y-93357500D01*
X148878572Y-93443214D01*
X148878572Y-93914643D01*
X149307144Y-93314643D02*
X149307144Y-94214643D01*
X149307144Y-93357500D02*
X149392858Y-93314643D01*
X149564287Y-93314643D01*
X149650001Y-93357500D01*
X149692858Y-93400357D01*
X149735715Y-93486071D01*
X149735715Y-93743214D01*
X149692858Y-93828929D01*
X149650001Y-93871786D01*
X149564287Y-93914643D01*
X149392858Y-93914643D01*
X149307144Y-93871786D01*
X145257143Y-95399643D02*
X145257143Y-94799643D01*
X145257143Y-94971071D02*
X145300000Y-94885357D01*
X145342857Y-94842500D01*
X145428571Y-94799643D01*
X145514286Y-94799643D01*
X145985714Y-94499643D02*
X146071429Y-94499643D01*
X146157143Y-94542500D01*
X146200000Y-94585357D01*
X146242857Y-94671071D01*
X146285714Y-94842500D01*
X146285714Y-95056786D01*
X146242857Y-95228214D01*
X146200000Y-95313929D01*
X146157143Y-95356786D01*
X146071429Y-95399643D01*
X145985714Y-95399643D01*
X145900000Y-95356786D01*
X145857143Y-95313929D01*
X145814286Y-95228214D01*
X145771429Y-95056786D01*
X145771429Y-94842500D01*
X145814286Y-94671071D01*
X145857143Y-94585357D01*
X145900000Y-94542500D01*
X145985714Y-94499643D01*
D12*
X139000000Y-109000000D02*
X139000000Y-109500000D01*
X143000000Y-109000000D02*
X142500000Y-109000000D01*
X143000000Y-109500000D02*
X143000000Y-109000000D01*
X142000000Y-110500000D02*
X143000000Y-109500000D01*
X142000000Y-108000000D02*
X142000000Y-110500000D01*
X143000000Y-109000000D02*
X142000000Y-108000000D01*
X139000000Y-109000000D02*
X143000000Y-109000000D01*
X139000000Y-109500000D02*
X143000000Y-109500000D01*
D13*
X141100000Y-100100000D02*
X140400000Y-100100000D01*
X140400000Y-98900000D02*
X141100000Y-98900000D01*
X139200000Y-101475000D02*
X139700000Y-101475000D01*
X139700000Y-100525000D02*
X139200000Y-100525000D01*
X142025000Y-101800000D02*
X142025000Y-101300000D01*
X140975000Y-101300000D02*
X140975000Y-101800000D01*
X136270000Y-97270000D02*
X133730000Y-97270000D01*
X139090000Y-97550000D02*
X137540000Y-97550000D01*
X136270000Y-97270000D02*
X136270000Y-94730000D01*
X137540000Y-94450000D02*
X139090000Y-94450000D01*
X139090000Y-94450000D02*
X139090000Y-97550000D01*
X136270000Y-94730000D02*
X133730000Y-94730000D01*
X133730000Y-94730000D02*
X133730000Y-97270000D01*
X140825000Y-97250000D02*
X140825000Y-96250000D01*
X142175000Y-96250000D02*
X142175000Y-97250000D01*
X132000000Y-111000000D02*
X138250000Y-111000000D01*
X132000000Y-99000000D02*
X138250000Y-99000000D01*
X142625000Y-103425000D02*
X142625000Y-103925000D01*
X139375000Y-106675000D02*
X139375000Y-106175000D01*
X142625000Y-106675000D02*
X142625000Y-106175000D01*
X139375000Y-103425000D02*
X139875000Y-103425000D01*
X139375000Y-106675000D02*
X139875000Y-106675000D01*
X142625000Y-106675000D02*
X142125000Y-106675000D01*
X142625000Y-103425000D02*
X142125000Y-103425000D01*
X150000000Y-99000000D02*
X143750000Y-99000000D01*
X150000000Y-111000000D02*
X143750000Y-111000000D01*
X139866667Y-98535714D02*
X139828572Y-98573810D01*
X139714286Y-98611905D01*
X139638096Y-98611905D01*
X139523810Y-98573810D01*
X139447619Y-98497619D01*
X139409524Y-98421429D01*
X139371429Y-98269048D01*
X139371429Y-98154762D01*
X139409524Y-98002381D01*
X139447619Y-97926190D01*
X139523810Y-97850000D01*
X139638096Y-97811905D01*
X139714286Y-97811905D01*
X139828572Y-97850000D01*
X139866667Y-97888095D01*
X140628572Y-98611905D02*
X140171429Y-98611905D01*
X140400000Y-98611905D02*
X140400000Y-97811905D01*
X140323810Y-97926190D01*
X140247619Y-98002381D01*
X140171429Y-98040476D01*
X139366667Y-102535714D02*
X139328572Y-102573810D01*
X139214286Y-102611905D01*
X139138096Y-102611905D01*
X139023810Y-102573810D01*
X138947619Y-102497619D01*
X138909524Y-102421429D01*
X138871429Y-102269048D01*
X138871429Y-102154762D01*
X138909524Y-102002381D01*
X138947619Y-101926190D01*
X139023810Y-101850000D01*
X139138096Y-101811905D01*
X139214286Y-101811905D01*
X139328572Y-101850000D01*
X139366667Y-101888095D01*
X139671429Y-101888095D02*
X139709524Y-101850000D01*
X139785715Y-101811905D01*
X139976191Y-101811905D01*
X140052381Y-101850000D01*
X140090477Y-101888095D01*
X140128572Y-101964286D01*
X140128572Y-102040476D01*
X140090477Y-102154762D01*
X139633334Y-102611905D01*
X140128572Y-102611905D01*
X143661905Y-101683333D02*
X143661905Y-102064286D01*
X142861905Y-102064286D01*
X143661905Y-100997619D02*
X143661905Y-101454762D01*
X143661905Y-101226191D02*
X142861905Y-101226191D01*
X142976190Y-101302381D01*
X143052381Y-101378572D01*
X143090476Y-101454762D01*
X132861905Y-98340476D02*
X132061905Y-98340476D01*
X132061905Y-98035714D01*
X132100000Y-97959523D01*
X132138095Y-97921428D01*
X132214286Y-97883333D01*
X132328571Y-97883333D01*
X132404762Y-97921428D01*
X132442857Y-97959523D01*
X132480952Y-98035714D01*
X132480952Y-98340476D01*
X132861905Y-97121428D02*
X132861905Y-97578571D01*
X132861905Y-97350000D02*
X132061905Y-97350000D01*
X132176190Y-97426190D01*
X132252381Y-97502381D01*
X132290476Y-97578571D01*
X143761905Y-96883333D02*
X143380952Y-97150000D01*
X143761905Y-97340476D02*
X142961905Y-97340476D01*
X142961905Y-97035714D01*
X143000000Y-96959523D01*
X143038095Y-96921428D01*
X143114286Y-96883333D01*
X143228571Y-96883333D01*
X143304762Y-96921428D01*
X143342857Y-96959523D01*
X143380952Y-97035714D01*
X143380952Y-97340476D01*
X143761905Y-96121428D02*
X143761905Y-96578571D01*
X143761905Y-96350000D02*
X142961905Y-96350000D01*
X143076190Y-96426190D01*
X143152381Y-96502381D01*
X143190476Y-96578571D01*
X137890476Y-107561905D02*
X137890476Y-108209524D01*
X137928571Y-108285714D01*
X137966667Y-108323810D01*
X138042857Y-108361905D01*
X138195238Y-108361905D01*
X138271429Y-108323810D01*
X138309524Y-108285714D01*
X138347619Y-108209524D01*
X138347619Y-107561905D01*
X139147619Y-108361905D02*
X138690476Y-108361905D01*
X138919047Y-108361905D02*
X138919047Y-107561905D01*
X138842857Y-107676190D01*
X138766666Y-107752381D01*
X138690476Y-107790476D01*
X143561905Y-103609524D02*
X144209524Y-103609524D01*
X144285714Y-103571429D01*
X144323810Y-103533333D01*
X144361905Y-103457143D01*
X144361905Y-103304762D01*
X144323810Y-103228571D01*
X144285714Y-103190476D01*
X144209524Y-103152381D01*
X143561905Y-103152381D01*
X143638095Y-102809524D02*
X143600000Y-102771429D01*
X143561905Y-102695238D01*
X143561905Y-102504762D01*
X143600000Y-102428572D01*
X143638095Y-102390476D01*
X143714286Y-102352381D01*
X143790476Y-102352381D01*
X143904762Y-102390476D01*
X144361905Y-102847619D01*
X144361905Y-102352381D01*
X148390476Y-97811905D02*
X148390476Y-98459524D01*
X148428571Y-98535714D01*
X148466667Y-98573810D01*
X148542857Y-98611905D01*
X148695238Y-98611905D01*
X148771429Y-98573810D01*
X148809524Y-98535714D01*
X148847619Y-98459524D01*
X148847619Y-97811905D01*
X149152381Y-97811905D02*
X149647619Y-97811905D01*
X149380952Y-98116667D01*
X149495238Y-98116667D01*
X149571428Y-98154762D01*
X149609524Y-98192857D01*
X149647619Y-98269048D01*
X149647619Y-98459524D01*
X149609524Y-98535714D01*
X149571428Y-98573810D01*
X149495238Y-98611905D01*
X149266666Y-98611905D01*
X149190476Y-98573810D01*
X149152381Y-98535714D01*
M02*
