G04 #@! TF.FileFunction,Copper,L1,Top,Signal*
%FSLAX46Y46*%
G04 Gerber Fmt 4.6, Leading zero omitted, Abs format (unit mm)*
G04 Created by KiCad (PCBNEW 4.0.2-stable) date Tue Apr 26 20:17:22 2016*
%MOMM*%
G01*
G04 APERTURE LIST*
%ADD10C,0.100000*%
%ADD11R,0.800000X0.750000*%
%ADD12R,0.600000X0.500000*%
%ADD13R,0.600000X0.400000*%
%ADD14R,2.032000X2.032000*%
%ADD15O,2.032000X2.032000*%
%ADD16R,0.900000X0.500000*%
%ADD17R,5.080000X1.290000*%
%ADD18R,5.080000X2.290000*%
%ADD19O,0.750000X0.300000*%
%ADD20O,0.300000X0.750000*%
%ADD21R,0.900000X0.900000*%
%ADD22C,0.600000*%
%ADD23C,0.250000*%
%ADD24C,0.350000*%
G04 APERTURE END LIST*
D10*
D11*
X141500000Y-99500000D03*
X140000000Y-99500000D03*
D12*
X140000000Y-101000000D03*
X138900000Y-101000000D03*
D13*
X141500000Y-101100000D03*
X141500000Y-102000000D03*
D14*
X137540000Y-96000000D03*
D15*
X135000000Y-96000000D03*
D16*
X141500000Y-96000000D03*
X141500000Y-97500000D03*
D17*
X134500000Y-105000000D03*
D18*
X134500000Y-109380000D03*
X134500000Y-100620000D03*
D19*
X139525000Y-104300000D03*
X139525000Y-104800000D03*
X139525000Y-105300000D03*
X139525000Y-105800000D03*
D20*
X140250000Y-106525000D03*
X140750000Y-106525000D03*
X141250000Y-106525000D03*
X141750000Y-106525000D03*
D19*
X142475000Y-105800000D03*
X142475000Y-105300000D03*
X142475000Y-104800000D03*
X142475000Y-104300000D03*
D20*
X141750000Y-103575000D03*
X141250000Y-103575000D03*
X140750000Y-103575000D03*
X140250000Y-103575000D03*
D21*
X141450000Y-105500000D03*
X141450000Y-104600000D03*
X140550000Y-105500000D03*
X140550000Y-104600000D03*
D17*
X147500000Y-105000000D03*
D18*
X147500000Y-100620000D03*
X147500000Y-109380000D03*
D22*
X140550000Y-105500000D03*
X141450000Y-105500000D03*
X141450000Y-104600000D03*
X140550000Y-104600000D03*
X144000000Y-100500000D03*
X144000000Y-109500000D03*
X138000000Y-109500000D03*
X138000000Y-100000000D03*
X138000000Y-101000000D03*
X139000000Y-99500000D03*
D23*
X140000000Y-101000000D02*
X141400000Y-101000000D01*
X141400000Y-101000000D02*
X141500000Y-101100000D01*
X141500000Y-101100000D02*
X141500000Y-99500000D01*
X141500000Y-97500000D02*
X141500000Y-99500000D01*
X140750000Y-103575000D02*
X140750000Y-104400000D01*
X140750000Y-104400000D02*
X140550000Y-104600000D01*
X141250000Y-103575000D02*
X141250000Y-104400000D01*
X141250000Y-104400000D02*
X141450000Y-104600000D01*
X142475000Y-104300000D02*
X141750000Y-104300000D01*
X141750000Y-104300000D02*
X141450000Y-104600000D01*
X142475000Y-104800000D02*
X141650000Y-104800000D01*
X141650000Y-104800000D02*
X141450000Y-104600000D01*
X142475000Y-105800000D02*
X141750000Y-105800000D01*
X141750000Y-105800000D02*
X141450000Y-105500000D01*
X141750000Y-106525000D02*
X141750000Y-105800000D01*
X141250000Y-106525000D02*
X141250000Y-105700000D01*
X141250000Y-105700000D02*
X141450000Y-105500000D01*
X140750000Y-106525000D02*
X140750000Y-105700000D01*
X140750000Y-105700000D02*
X140550000Y-105500000D01*
X140250000Y-106525000D02*
X140250000Y-105800000D01*
X140250000Y-105800000D02*
X140550000Y-105500000D01*
X139525000Y-105800000D02*
X140250000Y-105800000D01*
X139525000Y-104800000D02*
X140350000Y-104800000D01*
X140350000Y-104800000D02*
X140550000Y-104600000D01*
X139525000Y-104300000D02*
X140250000Y-104300000D01*
X140250000Y-104300000D02*
X140550000Y-104600000D01*
X140250000Y-103575000D02*
X140250000Y-104300000D01*
X144590000Y-100500000D02*
X144000000Y-100500000D01*
X147500000Y-100620000D02*
X144710000Y-100620000D01*
X144710000Y-100620000D02*
X144590000Y-100500000D01*
X144000000Y-109500000D02*
X147380000Y-109500000D01*
X147380000Y-109500000D02*
X147500000Y-109380000D01*
X134500000Y-109380000D02*
X137880000Y-109380000D01*
X137880000Y-109380000D02*
X138000000Y-109500000D01*
X134500000Y-100620000D02*
X137380000Y-100620000D01*
X137380000Y-100620000D02*
X138000000Y-100000000D01*
X138900000Y-101000000D02*
X138000000Y-101000000D01*
X140000000Y-99500000D02*
X139000000Y-99500000D01*
X141750000Y-102750000D02*
X141500000Y-102500000D01*
X141500000Y-102500000D02*
X141500000Y-102000000D01*
X141750000Y-103575000D02*
X141750000Y-102750000D01*
X137540000Y-96000000D02*
X141500000Y-96000000D01*
D24*
X138500000Y-105000000D02*
X134500000Y-105000000D01*
D23*
X138828235Y-105000000D02*
X138500000Y-105000000D01*
X139525000Y-105300000D02*
X139128235Y-105300000D01*
X139128235Y-105300000D02*
X138828235Y-105000000D01*
D24*
X143500000Y-105000000D02*
X147500000Y-105000000D01*
D23*
X143171765Y-105000000D02*
X143500000Y-105000000D01*
X142475000Y-105300000D02*
X142871765Y-105300000D01*
X142871765Y-105300000D02*
X143171765Y-105000000D01*
M02*
