G04 #@! TF.FileFunction,Soldermask,Top*
%FSLAX46Y46*%
G04 Gerber Fmt 4.6, Leading zero omitted, Abs format (unit mm)*
G04 Created by KiCad (PCBNEW 4.0.4-stable) date Thu Oct 20 22:10:56 2016*
%MOMM*%
%LPD*%
G01*
G04 APERTURE LIST*
%ADD10C,0.100000*%
%ADD11R,0.700000X0.600000*%
%ADD12R,1.827200X2.132000*%
%ADD13O,1.827200X2.132000*%
%ADD14R,6.100000X1.100000*%
%ADD15R,6.100000X4.100000*%
%ADD16R,0.400000X0.650000*%
%ADD17R,0.480000X0.350000*%
%ADD18R,2.590000X2.890000*%
%ADD19R,1.140000X1.570000*%
%ADD20R,0.460000X0.250000*%
%ADD21C,0.254000*%
G04 APERTURE END LIST*
D10*
D11*
X147550000Y-101000000D03*
X146450000Y-101000000D03*
X149000000Y-101000000D03*
X150100000Y-101000000D03*
D12*
X146960000Y-96500000D03*
D13*
X149500000Y-96500000D03*
X152040000Y-96500000D03*
D14*
X141500000Y-105000000D03*
D15*
X141500000Y-107700000D03*
X141500000Y-102300000D03*
D16*
X147801100Y-103128600D03*
X148501100Y-103128600D03*
X149201100Y-103128600D03*
X147801100Y-106878600D03*
X148501100Y-106878600D03*
X149201100Y-106878600D03*
D17*
X150501100Y-105003600D03*
X146501100Y-105003600D03*
D18*
X148501100Y-105003600D03*
D19*
X146701100Y-103603600D03*
X150301100Y-103603600D03*
X146701100Y-106403600D03*
X150301100Y-106403600D03*
D20*
X146201100Y-105003600D03*
X150801100Y-105003600D03*
D14*
X155500000Y-105000000D03*
D15*
X155500000Y-102300000D03*
X155500000Y-107700000D03*
D21*
G36*
X145623000Y-105873000D02*
X138627000Y-105873000D01*
X138627000Y-104127000D01*
X145623000Y-104127000D01*
X145623000Y-105873000D01*
X145623000Y-105873000D01*
G37*
X145623000Y-105873000D02*
X138627000Y-105873000D01*
X138627000Y-104127000D01*
X145623000Y-104127000D01*
X145623000Y-105873000D01*
G36*
X158373000Y-105873000D02*
X151377000Y-105873000D01*
X151377000Y-104127000D01*
X158373000Y-104127000D01*
X158373000Y-105873000D01*
X158373000Y-105873000D01*
G37*
X158373000Y-105873000D02*
X151377000Y-105873000D01*
X151377000Y-104127000D01*
X158373000Y-104127000D01*
X158373000Y-105873000D01*
M02*
