M48
;DRILL file {KiCad 4.0.4-stable} date Thu Oct 20 22:10:57 2016
;FORMAT={3:3/ absolute / metric / keep zeros}
FMAT,2
METRIC,TZ
T1C0.254
T2C1.016
%
G90
G05
M71
T1
X139000Y-104000
X139000Y-106000
X140000Y-097500
X140000Y-100000
X140000Y-102500
X140000Y-104000
X140000Y-106000
X140000Y-107500
X140000Y-110000
X141000Y-104000
X141000Y-106000
X142000Y-104000
X142000Y-106000
X142500Y-102500
X142500Y-107500
X143000Y-104000
X143000Y-106000
X144000Y-104000
X144000Y-106000
X145000Y-097500
X145000Y-100000
X145000Y-102500
X145000Y-104000
X145000Y-106000
X145000Y-107500
X145000Y-110000
X146000Y-104000
X146000Y-106000
X146500Y-104400
X146500Y-105600
X147000Y-104000
X147000Y-106000
X147100Y-105000
X147500Y-107500
X148000Y-104000
X148000Y-105000
X148000Y-106000
X149000Y-104000
X149000Y-105000
X149000Y-106000
X149900Y-105000
X150000Y-102500
X150000Y-104000
X150000Y-106000
X150000Y-107500
X150000Y-110000
X150500Y-104400
X150500Y-105600
X151000Y-104000
X151000Y-106000
X152000Y-104000
X152000Y-106000
X152500Y-102500
X152500Y-107500
X153000Y-104000
X153000Y-106000
X154000Y-104000
X154000Y-106000
X155000Y-097500
X155000Y-100000
X155000Y-102500
X155000Y-104000
X155000Y-106000
X155000Y-107500
X155000Y-110000
X156000Y-104000
X156000Y-106000
X157000Y-104000
X157000Y-106000
X158000Y-104000
X158000Y-106000
T2
X146960Y-096500
X149500Y-096500
X152040Y-096500
T0
M30
