G04 #@! TF.FileFunction,Copper,L2,Inr,Signal*
%FSLAX46Y46*%
G04 Gerber Fmt 4.6, Leading zero omitted, Abs format (unit mm)*
G04 Created by KiCad (PCBNEW 4.0.4-stable) date Thu Oct 20 22:10:56 2016*
%MOMM*%
%LPD*%
G01*
G04 APERTURE LIST*
%ADD10C,0.100000*%
%ADD11C,0.381000*%
%ADD12R,1.727200X2.032000*%
%ADD13O,1.727200X2.032000*%
G04 APERTURE END LIST*
D10*
D11*
X148000000Y-106000000D03*
X148000000Y-104000000D03*
X144000000Y-106000000D03*
X146500000Y-105600000D03*
X146500000Y-104400000D03*
X150500000Y-104400000D03*
X150500000Y-105600000D03*
X149900000Y-105000000D03*
X147100000Y-105000000D03*
X155000000Y-110000000D03*
X150000000Y-110000000D03*
X145000000Y-110000000D03*
X140000000Y-110000000D03*
X140000000Y-100000000D03*
X145000000Y-100000000D03*
X155000000Y-100000000D03*
X155000000Y-97500000D03*
X145000000Y-97500000D03*
X140000000Y-97500000D03*
X140000000Y-102500000D03*
X140000000Y-107500000D03*
X142500000Y-107500000D03*
X142500000Y-102500000D03*
X147500000Y-107500000D03*
X145000000Y-107500000D03*
X145000000Y-102500000D03*
X150000000Y-102500000D03*
X150000000Y-107500000D03*
X152500000Y-107500000D03*
X152500000Y-102500000D03*
X155000000Y-102500000D03*
X155000000Y-107500000D03*
X158000000Y-106000000D03*
X157000000Y-106000000D03*
X156000000Y-106000000D03*
X155000000Y-106000000D03*
X154000000Y-106000000D03*
X153000000Y-106000000D03*
X152000000Y-106000000D03*
X151000000Y-106000000D03*
X150000000Y-106000000D03*
X149000000Y-106000000D03*
X149000000Y-105000000D03*
X149000000Y-104000000D03*
X150000000Y-104000000D03*
X151000000Y-104000000D03*
X152000000Y-104000000D03*
X153000000Y-104000000D03*
X154000000Y-104000000D03*
X155000000Y-104000000D03*
X156000000Y-104000000D03*
X157000000Y-104000000D03*
X158000000Y-104000000D03*
X139000000Y-104000000D03*
X139000000Y-106000000D03*
X140000000Y-106000000D03*
X141000000Y-106000000D03*
X142000000Y-106000000D03*
X143000000Y-106000000D03*
X145000000Y-106000000D03*
X146000000Y-106000000D03*
X147000000Y-106000000D03*
X148000000Y-105000000D03*
X147000000Y-104000000D03*
X146000000Y-104000000D03*
X145000000Y-104000000D03*
X144000000Y-104000000D03*
X143000000Y-104000000D03*
X142000000Y-104000000D03*
X141000000Y-104000000D03*
X140000000Y-104000000D03*
D12*
X146960000Y-96500000D03*
D13*
X149500000Y-96500000D03*
X152040000Y-96500000D03*
M02*
