G04 #@! TF.FileFunction,Legend,Top*
%FSLAX46Y46*%
G04 Gerber Fmt 4.6, Leading zero omitted, Abs format (unit mm)*
G04 Created by KiCad (PCBNEW 4.0.4-stable) date Thu Oct 20 22:10:56 2016*
%MOMM*%
%LPD*%
G01*
G04 APERTURE LIST*
%ADD10C,0.100000*%
%ADD11C,0.225000*%
%ADD12C,0.150000*%
G04 APERTURE END LIST*
D10*
D11*
X146042857Y-99007143D02*
X146342857Y-99907143D01*
X146642857Y-99007143D01*
X147328572Y-99907143D02*
X147328572Y-99007143D01*
X147328572Y-99864286D02*
X147242858Y-99907143D01*
X147071429Y-99907143D01*
X146985715Y-99864286D01*
X146942858Y-99821429D01*
X146900001Y-99735714D01*
X146900001Y-99478571D01*
X146942858Y-99392857D01*
X146985715Y-99350000D01*
X147071429Y-99307143D01*
X147242858Y-99307143D01*
X147328572Y-99350000D01*
X148314286Y-99007143D02*
X148614286Y-99907143D01*
X148914286Y-99007143D01*
X149600001Y-99307143D02*
X149600001Y-100035714D01*
X149557144Y-100121429D01*
X149514287Y-100164286D01*
X149428572Y-100207143D01*
X149300001Y-100207143D01*
X149214287Y-100164286D01*
X149600001Y-99864286D02*
X149514287Y-99907143D01*
X149342858Y-99907143D01*
X149257144Y-99864286D01*
X149214287Y-99821429D01*
X149171430Y-99735714D01*
X149171430Y-99478571D01*
X149214287Y-99392857D01*
X149257144Y-99350000D01*
X149342858Y-99307143D01*
X149514287Y-99307143D01*
X149600001Y-99350000D01*
X150885715Y-99007143D02*
X150971430Y-99007143D01*
X151057144Y-99050000D01*
X151100001Y-99092857D01*
X151142858Y-99178571D01*
X151185715Y-99350000D01*
X151185715Y-99564286D01*
X151142858Y-99735714D01*
X151100001Y-99821429D01*
X151057144Y-99864286D01*
X150971430Y-99907143D01*
X150885715Y-99907143D01*
X150800001Y-99864286D01*
X150757144Y-99821429D01*
X150714287Y-99735714D01*
X150671430Y-99564286D01*
X150671430Y-99350000D01*
X150714287Y-99178571D01*
X150757144Y-99092857D01*
X150800001Y-99050000D01*
X150885715Y-99007143D01*
X151485715Y-99307143D02*
X151700001Y-99907143D01*
X151914287Y-99307143D01*
D12*
X146750000Y-101475000D02*
X147250000Y-101475000D01*
X147250000Y-100525000D02*
X146750000Y-100525000D01*
X149800000Y-100525000D02*
X149300000Y-100525000D01*
X149300000Y-101475000D02*
X149800000Y-101475000D01*
X148230000Y-97770000D02*
X153310000Y-97770000D01*
X153310000Y-97770000D02*
X153310000Y-95230000D01*
X153310000Y-95230000D02*
X148230000Y-95230000D01*
X145410000Y-94950000D02*
X146960000Y-94950000D01*
X148230000Y-95230000D02*
X148230000Y-97770000D01*
X146960000Y-98050000D02*
X145410000Y-98050000D01*
X145410000Y-98050000D02*
X145410000Y-94950000D01*
X142104762Y-101285714D02*
X142066667Y-101323810D01*
X141952381Y-101361905D01*
X141876191Y-101361905D01*
X141761905Y-101323810D01*
X141685714Y-101247619D01*
X141647619Y-101171429D01*
X141609524Y-101019048D01*
X141609524Y-100904762D01*
X141647619Y-100752381D01*
X141685714Y-100676190D01*
X141761905Y-100600000D01*
X141876191Y-100561905D01*
X141952381Y-100561905D01*
X142066667Y-100600000D01*
X142104762Y-100638095D01*
X142866667Y-101361905D02*
X142409524Y-101361905D01*
X142638095Y-101361905D02*
X142638095Y-100561905D01*
X142561905Y-100676190D01*
X142485714Y-100752381D01*
X142409524Y-100790476D01*
X143361905Y-100561905D02*
X143438096Y-100561905D01*
X143514286Y-100600000D01*
X143552381Y-100638095D01*
X143590477Y-100714286D01*
X143628572Y-100866667D01*
X143628572Y-101057143D01*
X143590477Y-101209524D01*
X143552381Y-101285714D01*
X143514286Y-101323810D01*
X143438096Y-101361905D01*
X143361905Y-101361905D01*
X143285715Y-101323810D01*
X143247619Y-101285714D01*
X143209524Y-101209524D01*
X143171429Y-101057143D01*
X143171429Y-100866667D01*
X143209524Y-100714286D01*
X143247619Y-100638095D01*
X143285715Y-100600000D01*
X143361905Y-100561905D01*
X144390477Y-101361905D02*
X143933334Y-101361905D01*
X144161905Y-101361905D02*
X144161905Y-100561905D01*
X144085715Y-100676190D01*
X144009524Y-100752381D01*
X143933334Y-100790476D01*
X153104762Y-101785714D02*
X153066667Y-101823810D01*
X152952381Y-101861905D01*
X152876191Y-101861905D01*
X152761905Y-101823810D01*
X152685714Y-101747619D01*
X152647619Y-101671429D01*
X152609524Y-101519048D01*
X152609524Y-101404762D01*
X152647619Y-101252381D01*
X152685714Y-101176190D01*
X152761905Y-101100000D01*
X152876191Y-101061905D01*
X152952381Y-101061905D01*
X153066667Y-101100000D01*
X153104762Y-101138095D01*
X153866667Y-101861905D02*
X153409524Y-101861905D01*
X153638095Y-101861905D02*
X153638095Y-101061905D01*
X153561905Y-101176190D01*
X153485714Y-101252381D01*
X153409524Y-101290476D01*
X154361905Y-101061905D02*
X154438096Y-101061905D01*
X154514286Y-101100000D01*
X154552381Y-101138095D01*
X154590477Y-101214286D01*
X154628572Y-101366667D01*
X154628572Y-101557143D01*
X154590477Y-101709524D01*
X154552381Y-101785714D01*
X154514286Y-101823810D01*
X154438096Y-101861905D01*
X154361905Y-101861905D01*
X154285715Y-101823810D01*
X154247619Y-101785714D01*
X154209524Y-101709524D01*
X154171429Y-101557143D01*
X154171429Y-101366667D01*
X154209524Y-101214286D01*
X154247619Y-101138095D01*
X154285715Y-101100000D01*
X154361905Y-101061905D01*
X154933334Y-101138095D02*
X154971429Y-101100000D01*
X155047620Y-101061905D01*
X155238096Y-101061905D01*
X155314286Y-101100000D01*
X155352382Y-101138095D01*
X155390477Y-101214286D01*
X155390477Y-101290476D01*
X155352382Y-101404762D01*
X154895239Y-101861905D01*
X155390477Y-101861905D01*
X145147619Y-93361905D02*
X145147619Y-92561905D01*
X145452381Y-92561905D01*
X145528572Y-92600000D01*
X145566667Y-92638095D01*
X145604762Y-92714286D01*
X145604762Y-92828571D01*
X145566667Y-92904762D01*
X145528572Y-92942857D01*
X145452381Y-92980952D01*
X145147619Y-92980952D01*
X146366667Y-93361905D02*
X145909524Y-93361905D01*
X146138095Y-93361905D02*
X146138095Y-92561905D01*
X146061905Y-92676190D01*
X145985714Y-92752381D01*
X145909524Y-92790476D01*
X146861905Y-92561905D02*
X146938096Y-92561905D01*
X147014286Y-92600000D01*
X147052381Y-92638095D01*
X147090477Y-92714286D01*
X147128572Y-92866667D01*
X147128572Y-93057143D01*
X147090477Y-93209524D01*
X147052381Y-93285714D01*
X147014286Y-93323810D01*
X146938096Y-93361905D01*
X146861905Y-93361905D01*
X146785715Y-93323810D01*
X146747619Y-93285714D01*
X146709524Y-93209524D01*
X146671429Y-93057143D01*
X146671429Y-92866667D01*
X146709524Y-92714286D01*
X146747619Y-92638095D01*
X146785715Y-92600000D01*
X146861905Y-92561905D01*
X147890477Y-93361905D02*
X147433334Y-93361905D01*
X147661905Y-93361905D02*
X147661905Y-92561905D01*
X147585715Y-92676190D01*
X147509524Y-92752381D01*
X147433334Y-92790476D01*
X138628571Y-111061905D02*
X138628571Y-111709524D01*
X138666666Y-111785714D01*
X138704762Y-111823810D01*
X138780952Y-111861905D01*
X138933333Y-111861905D01*
X139009524Y-111823810D01*
X139047619Y-111785714D01*
X139085714Y-111709524D01*
X139085714Y-111061905D01*
X139885714Y-111861905D02*
X139428571Y-111861905D01*
X139657142Y-111861905D02*
X139657142Y-111061905D01*
X139580952Y-111176190D01*
X139504761Y-111252381D01*
X139428571Y-111290476D01*
X140380952Y-111061905D02*
X140457143Y-111061905D01*
X140533333Y-111100000D01*
X140571428Y-111138095D01*
X140609524Y-111214286D01*
X140647619Y-111366667D01*
X140647619Y-111557143D01*
X140609524Y-111709524D01*
X140571428Y-111785714D01*
X140533333Y-111823810D01*
X140457143Y-111861905D01*
X140380952Y-111861905D01*
X140304762Y-111823810D01*
X140266666Y-111785714D01*
X140228571Y-111709524D01*
X140190476Y-111557143D01*
X140190476Y-111366667D01*
X140228571Y-111214286D01*
X140266666Y-111138095D01*
X140304762Y-111100000D01*
X140380952Y-111061905D01*
X141409524Y-111861905D02*
X140952381Y-111861905D01*
X141180952Y-111861905D02*
X141180952Y-111061905D01*
X141104762Y-111176190D01*
X141028571Y-111252381D01*
X140952381Y-111290476D01*
X140879671Y-100315505D02*
X140879671Y-100963124D01*
X140917766Y-101039314D01*
X140955862Y-101077410D01*
X141032052Y-101115505D01*
X141184433Y-101115505D01*
X141260624Y-101077410D01*
X141298719Y-101039314D01*
X141336814Y-100963124D01*
X141336814Y-100315505D01*
X142136814Y-101115505D02*
X141679671Y-101115505D01*
X141908242Y-101115505D02*
X141908242Y-100315505D01*
X141832052Y-100429790D01*
X141755861Y-100505981D01*
X141679671Y-100544076D01*
X142632052Y-100315505D02*
X142708243Y-100315505D01*
X142784433Y-100353600D01*
X142822528Y-100391695D01*
X142860624Y-100467886D01*
X142898719Y-100620267D01*
X142898719Y-100810743D01*
X142860624Y-100963124D01*
X142822528Y-101039314D01*
X142784433Y-101077410D01*
X142708243Y-101115505D01*
X142632052Y-101115505D01*
X142555862Y-101077410D01*
X142517766Y-101039314D01*
X142479671Y-100963124D01*
X142441576Y-100810743D01*
X142441576Y-100620267D01*
X142479671Y-100467886D01*
X142517766Y-100391695D01*
X142555862Y-100353600D01*
X142632052Y-100315505D01*
X143203481Y-100391695D02*
X143241576Y-100353600D01*
X143317767Y-100315505D01*
X143508243Y-100315505D01*
X143584433Y-100353600D01*
X143622529Y-100391695D01*
X143660624Y-100467886D01*
X143660624Y-100544076D01*
X143622529Y-100658362D01*
X143165386Y-101115505D01*
X143660624Y-101115505D01*
X154378571Y-111061905D02*
X154378571Y-111709524D01*
X154416666Y-111785714D01*
X154454762Y-111823810D01*
X154530952Y-111861905D01*
X154683333Y-111861905D01*
X154759524Y-111823810D01*
X154797619Y-111785714D01*
X154835714Y-111709524D01*
X154835714Y-111061905D01*
X155635714Y-111861905D02*
X155178571Y-111861905D01*
X155407142Y-111861905D02*
X155407142Y-111061905D01*
X155330952Y-111176190D01*
X155254761Y-111252381D01*
X155178571Y-111290476D01*
X156130952Y-111061905D02*
X156207143Y-111061905D01*
X156283333Y-111100000D01*
X156321428Y-111138095D01*
X156359524Y-111214286D01*
X156397619Y-111366667D01*
X156397619Y-111557143D01*
X156359524Y-111709524D01*
X156321428Y-111785714D01*
X156283333Y-111823810D01*
X156207143Y-111861905D01*
X156130952Y-111861905D01*
X156054762Y-111823810D01*
X156016666Y-111785714D01*
X155978571Y-111709524D01*
X155940476Y-111557143D01*
X155940476Y-111366667D01*
X155978571Y-111214286D01*
X156016666Y-111138095D01*
X156054762Y-111100000D01*
X156130952Y-111061905D01*
X156664286Y-111061905D02*
X157159524Y-111061905D01*
X156892857Y-111366667D01*
X157007143Y-111366667D01*
X157083333Y-111404762D01*
X157121429Y-111442857D01*
X157159524Y-111519048D01*
X157159524Y-111709524D01*
X157121429Y-111785714D01*
X157083333Y-111823810D01*
X157007143Y-111861905D01*
X156778571Y-111861905D01*
X156702381Y-111823810D01*
X156664286Y-111785714D01*
M02*
