G04 #@! TF.FileFunction,Copper,L3,Inr,Signal*
%FSLAX46Y46*%
G04 Gerber Fmt 4.6, Leading zero omitted, Abs format (unit mm)*
G04 Created by KiCad (PCBNEW 4.0.4-stable) date Thu Oct 20 22:10:56 2016*
%MOMM*%
%LPD*%
G01*
G04 APERTURE LIST*
%ADD10C,0.100000*%
%ADD11C,0.381000*%
%ADD12R,1.727200X2.032000*%
%ADD13O,1.727200X2.032000*%
%ADD14C,0.254000*%
G04 APERTURE END LIST*
D10*
D11*
X148000000Y-106000000D03*
X148000000Y-104000000D03*
X144000000Y-106000000D03*
X146500000Y-105600000D03*
X146500000Y-104400000D03*
X150500000Y-104400000D03*
X150500000Y-105600000D03*
X149900000Y-105000000D03*
X147100000Y-105000000D03*
X155000000Y-110000000D03*
X150000000Y-110000000D03*
X145000000Y-110000000D03*
X140000000Y-110000000D03*
X140000000Y-100000000D03*
X145000000Y-100000000D03*
X155000000Y-100000000D03*
X155000000Y-97500000D03*
X145000000Y-97500000D03*
X140000000Y-97500000D03*
X140000000Y-102500000D03*
X140000000Y-107500000D03*
X142500000Y-107500000D03*
X142500000Y-102500000D03*
X147500000Y-107500000D03*
X145000000Y-107500000D03*
X145000000Y-102500000D03*
X150000000Y-102500000D03*
X150000000Y-107500000D03*
X152500000Y-107500000D03*
X152500000Y-102500000D03*
X155000000Y-102500000D03*
X155000000Y-107500000D03*
X158000000Y-106000000D03*
X157000000Y-106000000D03*
X156000000Y-106000000D03*
X155000000Y-106000000D03*
X154000000Y-106000000D03*
X153000000Y-106000000D03*
X152000000Y-106000000D03*
X151000000Y-106000000D03*
X150000000Y-106000000D03*
X149000000Y-106000000D03*
X149000000Y-105000000D03*
X149000000Y-104000000D03*
X150000000Y-104000000D03*
X151000000Y-104000000D03*
X152000000Y-104000000D03*
X153000000Y-104000000D03*
X154000000Y-104000000D03*
X155000000Y-104000000D03*
X156000000Y-104000000D03*
X157000000Y-104000000D03*
X158000000Y-104000000D03*
X139000000Y-104000000D03*
X139000000Y-106000000D03*
X140000000Y-106000000D03*
X141000000Y-106000000D03*
X142000000Y-106000000D03*
X143000000Y-106000000D03*
X145000000Y-106000000D03*
X146000000Y-106000000D03*
X147000000Y-106000000D03*
X148000000Y-105000000D03*
X147000000Y-104000000D03*
X146000000Y-104000000D03*
X145000000Y-104000000D03*
X144000000Y-104000000D03*
X143000000Y-104000000D03*
X142000000Y-104000000D03*
X141000000Y-104000000D03*
X140000000Y-104000000D03*
D12*
X146960000Y-96500000D03*
D13*
X149500000Y-96500000D03*
X152040000Y-96500000D03*
D14*
G36*
X145499969Y-95232110D02*
X145448960Y-95484000D01*
X145448960Y-97516000D01*
X145493238Y-97751317D01*
X145632310Y-97967441D01*
X145844510Y-98112431D01*
X146096400Y-98163440D01*
X147823600Y-98163440D01*
X148058917Y-98119162D01*
X148275041Y-97980090D01*
X148420031Y-97767890D01*
X148428400Y-97726561D01*
X148440330Y-97744415D01*
X148926511Y-98069271D01*
X149500000Y-98183345D01*
X150073489Y-98069271D01*
X150559670Y-97744415D01*
X150884526Y-97258234D01*
X150998600Y-96684745D01*
X150998600Y-96315255D01*
X150884526Y-95741766D01*
X150559670Y-95255585D01*
X150491447Y-95210000D01*
X157790000Y-95210000D01*
X157790000Y-109790000D01*
X139210000Y-109790000D01*
X139210000Y-95210000D01*
X145515076Y-95210000D01*
X145499969Y-95232110D01*
X145499969Y-95232110D01*
G37*
X145499969Y-95232110D02*
X145448960Y-95484000D01*
X145448960Y-97516000D01*
X145493238Y-97751317D01*
X145632310Y-97967441D01*
X145844510Y-98112431D01*
X146096400Y-98163440D01*
X147823600Y-98163440D01*
X148058917Y-98119162D01*
X148275041Y-97980090D01*
X148420031Y-97767890D01*
X148428400Y-97726561D01*
X148440330Y-97744415D01*
X148926511Y-98069271D01*
X149500000Y-98183345D01*
X150073489Y-98069271D01*
X150559670Y-97744415D01*
X150884526Y-97258234D01*
X150998600Y-96684745D01*
X150998600Y-96315255D01*
X150884526Y-95741766D01*
X150559670Y-95255585D01*
X150491447Y-95210000D01*
X157790000Y-95210000D01*
X157790000Y-109790000D01*
X139210000Y-109790000D01*
X139210000Y-95210000D01*
X145515076Y-95210000D01*
X145499969Y-95232110D01*
M02*
