G04 #@! TF.FileFunction,Copper,L4,Bot,Signal*
%FSLAX46Y46*%
G04 Gerber Fmt 4.6, Leading zero omitted, Abs format (unit mm)*
G04 Created by KiCad (PCBNEW 4.0.2-stable) date Sun 24 Apr 2016 07:38:59 PM AKDT*
%MOMM*%
G01*
G04 APERTURE LIST*
%ADD10C,0.100000*%
%ADD11R,2.032000X1.727200*%
%ADD12O,2.032000X1.727200*%
%ADD13R,1.727200X2.032000*%
%ADD14O,1.727200X2.032000*%
%ADD15C,1.800000*%
%ADD16C,0.600000*%
%ADD17C,0.350000*%
%ADD18C,0.254000*%
G04 APERTURE END LIST*
D10*
D11*
X145000000Y-108040000D03*
D12*
X145000000Y-105500000D03*
X145000000Y-102960000D03*
D13*
X152080000Y-114000000D03*
D14*
X149540000Y-114000000D03*
X147000000Y-114000000D03*
X144460000Y-114000000D03*
X141920000Y-114000000D03*
D15*
X160540000Y-112000000D03*
X163080000Y-109460000D03*
X163080000Y-114540000D03*
X158000000Y-114540000D03*
X158000000Y-109460000D03*
X160540000Y-102460000D03*
X163080000Y-99920000D03*
X163080000Y-105000000D03*
X158000000Y-105000000D03*
X158000000Y-99920000D03*
D16*
X152000000Y-98500000D03*
X141500000Y-98100000D03*
X153000000Y-98000000D03*
X154500000Y-98000000D03*
X149500000Y-109500000D03*
X148540000Y-108040000D03*
X146750000Y-101250000D03*
X142000000Y-101250000D03*
X147500000Y-102000000D03*
X142449990Y-100449990D03*
D17*
X142000000Y-101250000D02*
X146750000Y-101250000D01*
X147500000Y-101000998D02*
X147500000Y-102000000D01*
X142449990Y-100449990D02*
X146948992Y-100449990D01*
X146948992Y-100449990D02*
X147500000Y-101000998D01*
D18*
G36*
X163790000Y-98545253D02*
X163320664Y-98373542D01*
X162710540Y-98399161D01*
X162265852Y-98583357D01*
X162179446Y-98839841D01*
X163080000Y-99740395D01*
X163094143Y-99726253D01*
X163273748Y-99905858D01*
X163259605Y-99920000D01*
X163273748Y-99934143D01*
X163094143Y-100113748D01*
X163080000Y-100099605D01*
X162179446Y-101000159D01*
X162265852Y-101256643D01*
X162839336Y-101466458D01*
X163449460Y-101440839D01*
X163790000Y-101299783D01*
X163790000Y-103625253D01*
X163320664Y-103453542D01*
X162710540Y-103479161D01*
X162265852Y-103663357D01*
X162179446Y-103919841D01*
X163080000Y-104820395D01*
X163094143Y-104806253D01*
X163273748Y-104985858D01*
X163259605Y-105000000D01*
X163273748Y-105014143D01*
X163094143Y-105193748D01*
X163080000Y-105179605D01*
X162179446Y-106080159D01*
X162265852Y-106336643D01*
X162839336Y-106546458D01*
X163449460Y-106520839D01*
X163790000Y-106379783D01*
X163790000Y-108085253D01*
X163320664Y-107913542D01*
X162710540Y-107939161D01*
X162265852Y-108123357D01*
X162179446Y-108379841D01*
X163080000Y-109280395D01*
X163094143Y-109266253D01*
X163273748Y-109445858D01*
X163259605Y-109460000D01*
X163273748Y-109474143D01*
X163094143Y-109653748D01*
X163080000Y-109639605D01*
X162179446Y-110540159D01*
X162265852Y-110796643D01*
X162839336Y-111006458D01*
X163449460Y-110980839D01*
X163790000Y-110839783D01*
X163790000Y-113165253D01*
X163320664Y-112993542D01*
X162710540Y-113019161D01*
X162265852Y-113203357D01*
X162179446Y-113459841D01*
X163080000Y-114360395D01*
X163094143Y-114346253D01*
X163273748Y-114525858D01*
X163259605Y-114540000D01*
X163273748Y-114554143D01*
X163094143Y-114733748D01*
X163080000Y-114719605D01*
X162179446Y-115620159D01*
X162265852Y-115876643D01*
X162839336Y-116086458D01*
X163449460Y-116060839D01*
X163790000Y-115919783D01*
X163790000Y-116790000D01*
X140210000Y-116790000D01*
X140210000Y-114361913D01*
X140434816Y-114361913D01*
X140628046Y-114914320D01*
X141017964Y-115350732D01*
X141545209Y-115604709D01*
X141560974Y-115607358D01*
X141793000Y-115486217D01*
X141793000Y-114127000D01*
X140579076Y-114127000D01*
X140434816Y-114361913D01*
X140210000Y-114361913D01*
X140210000Y-113638087D01*
X140434816Y-113638087D01*
X140579076Y-113873000D01*
X141793000Y-113873000D01*
X141793000Y-112513783D01*
X142047000Y-112513783D01*
X142047000Y-113873000D01*
X142067000Y-113873000D01*
X142067000Y-114127000D01*
X142047000Y-114127000D01*
X142047000Y-115486217D01*
X142279026Y-115607358D01*
X142294791Y-115604709D01*
X142822036Y-115350732D01*
X143193539Y-114934931D01*
X143400330Y-115244415D01*
X143886511Y-115569271D01*
X144460000Y-115683345D01*
X145033489Y-115569271D01*
X145519670Y-115244415D01*
X145730000Y-114929634D01*
X145940330Y-115244415D01*
X146426511Y-115569271D01*
X147000000Y-115683345D01*
X147573489Y-115569271D01*
X148059670Y-115244415D01*
X148270000Y-114929634D01*
X148480330Y-115244415D01*
X148966511Y-115569271D01*
X149540000Y-115683345D01*
X150113489Y-115569271D01*
X150599670Y-115244415D01*
X150609243Y-115230087D01*
X150613238Y-115251317D01*
X150752310Y-115467441D01*
X150964510Y-115612431D01*
X151216400Y-115663440D01*
X152943600Y-115663440D01*
X153173618Y-115620159D01*
X157099446Y-115620159D01*
X157185852Y-115876643D01*
X157759336Y-116086458D01*
X158369460Y-116060839D01*
X158814148Y-115876643D01*
X158900554Y-115620159D01*
X158000000Y-114719605D01*
X157099446Y-115620159D01*
X153173618Y-115620159D01*
X153178917Y-115619162D01*
X153395041Y-115480090D01*
X153540031Y-115267890D01*
X153591040Y-115016000D01*
X153591040Y-114299336D01*
X156453542Y-114299336D01*
X156479161Y-114909460D01*
X156663357Y-115354148D01*
X156919841Y-115440554D01*
X157820395Y-114540000D01*
X158179605Y-114540000D01*
X159080159Y-115440554D01*
X159336643Y-115354148D01*
X159546458Y-114780664D01*
X159526248Y-114299336D01*
X161533542Y-114299336D01*
X161559161Y-114909460D01*
X161743357Y-115354148D01*
X161999841Y-115440554D01*
X162900395Y-114540000D01*
X161999841Y-113639446D01*
X161743357Y-113725852D01*
X161533542Y-114299336D01*
X159526248Y-114299336D01*
X159520839Y-114170540D01*
X159336643Y-113725852D01*
X159080159Y-113639446D01*
X158179605Y-114540000D01*
X157820395Y-114540000D01*
X156919841Y-113639446D01*
X156663357Y-113725852D01*
X156453542Y-114299336D01*
X153591040Y-114299336D01*
X153591040Y-113459841D01*
X157099446Y-113459841D01*
X158000000Y-114360395D01*
X158900554Y-113459841D01*
X158814148Y-113203357D01*
X158240664Y-112993542D01*
X157630540Y-113019161D01*
X157185852Y-113203357D01*
X157099446Y-113459841D01*
X153591040Y-113459841D01*
X153591040Y-112984000D01*
X153546762Y-112748683D01*
X153407690Y-112532559D01*
X153195490Y-112387569D01*
X152943600Y-112336560D01*
X151216400Y-112336560D01*
X150981083Y-112380838D01*
X150764959Y-112519910D01*
X150619969Y-112732110D01*
X150611600Y-112773439D01*
X150599670Y-112755585D01*
X150113489Y-112430729D01*
X149540000Y-112316655D01*
X148966511Y-112430729D01*
X148480330Y-112755585D01*
X148270000Y-113070366D01*
X148059670Y-112755585D01*
X147573489Y-112430729D01*
X147000000Y-112316655D01*
X146426511Y-112430729D01*
X145940330Y-112755585D01*
X145730000Y-113070366D01*
X145519670Y-112755585D01*
X145033489Y-112430729D01*
X144460000Y-112316655D01*
X143886511Y-112430729D01*
X143400330Y-112755585D01*
X143193539Y-113065069D01*
X142822036Y-112649268D01*
X142294791Y-112395291D01*
X142279026Y-112392642D01*
X142047000Y-112513783D01*
X141793000Y-112513783D01*
X141560974Y-112392642D01*
X141545209Y-112395291D01*
X141017964Y-112649268D01*
X140628046Y-113085680D01*
X140434816Y-113638087D01*
X140210000Y-113638087D01*
X140210000Y-112303991D01*
X159004735Y-112303991D01*
X159237932Y-112868371D01*
X159669357Y-113300551D01*
X160233330Y-113534733D01*
X160843991Y-113535265D01*
X161408371Y-113302068D01*
X161840551Y-112870643D01*
X162074733Y-112306670D01*
X162075265Y-111696009D01*
X161842068Y-111131629D01*
X161410643Y-110699449D01*
X160846670Y-110465267D01*
X160236009Y-110464735D01*
X159671629Y-110697932D01*
X159239449Y-111129357D01*
X159005267Y-111693330D01*
X159004735Y-112303991D01*
X140210000Y-112303991D01*
X140210000Y-110540159D01*
X157099446Y-110540159D01*
X157185852Y-110796643D01*
X157759336Y-111006458D01*
X158369460Y-110980839D01*
X158814148Y-110796643D01*
X158900554Y-110540159D01*
X158000000Y-109639605D01*
X157099446Y-110540159D01*
X140210000Y-110540159D01*
X140210000Y-108325750D01*
X143349000Y-108325750D01*
X143349000Y-109029910D01*
X143445673Y-109263299D01*
X143624302Y-109441927D01*
X143857691Y-109538600D01*
X144714250Y-109538600D01*
X144873000Y-109379850D01*
X144873000Y-108167000D01*
X145127000Y-108167000D01*
X145127000Y-109379850D01*
X145285750Y-109538600D01*
X146142309Y-109538600D01*
X146375698Y-109441927D01*
X146554327Y-109263299D01*
X146572537Y-109219336D01*
X156453542Y-109219336D01*
X156479161Y-109829460D01*
X156663357Y-110274148D01*
X156919841Y-110360554D01*
X157820395Y-109460000D01*
X158179605Y-109460000D01*
X159080159Y-110360554D01*
X159336643Y-110274148D01*
X159546458Y-109700664D01*
X159526248Y-109219336D01*
X161533542Y-109219336D01*
X161559161Y-109829460D01*
X161743357Y-110274148D01*
X161999841Y-110360554D01*
X162900395Y-109460000D01*
X161999841Y-108559446D01*
X161743357Y-108645852D01*
X161533542Y-109219336D01*
X159526248Y-109219336D01*
X159520839Y-109090540D01*
X159336643Y-108645852D01*
X159080159Y-108559446D01*
X158179605Y-109460000D01*
X157820395Y-109460000D01*
X156919841Y-108559446D01*
X156663357Y-108645852D01*
X156453542Y-109219336D01*
X146572537Y-109219336D01*
X146651000Y-109029910D01*
X146651000Y-108379841D01*
X157099446Y-108379841D01*
X158000000Y-109280395D01*
X158900554Y-108379841D01*
X158814148Y-108123357D01*
X158240664Y-107913542D01*
X157630540Y-107939161D01*
X157185852Y-108123357D01*
X157099446Y-108379841D01*
X146651000Y-108379841D01*
X146651000Y-108325750D01*
X146492250Y-108167000D01*
X145127000Y-108167000D01*
X144873000Y-108167000D01*
X143507750Y-108167000D01*
X143349000Y-108325750D01*
X140210000Y-108325750D01*
X140210000Y-101435167D01*
X141064838Y-101435167D01*
X141206883Y-101778943D01*
X141469673Y-102042192D01*
X141813201Y-102184838D01*
X142185167Y-102185162D01*
X142488083Y-102060000D01*
X143648897Y-102060000D01*
X143430729Y-102386511D01*
X143316655Y-102960000D01*
X143430729Y-103533489D01*
X143755585Y-104019670D01*
X144070366Y-104230000D01*
X143755585Y-104440330D01*
X143430729Y-104926511D01*
X143316655Y-105500000D01*
X143430729Y-106073489D01*
X143755585Y-106559670D01*
X143777780Y-106574500D01*
X143624302Y-106638073D01*
X143445673Y-106816701D01*
X143349000Y-107050090D01*
X143349000Y-107754250D01*
X143507750Y-107913000D01*
X144873000Y-107913000D01*
X144873000Y-107893000D01*
X145127000Y-107893000D01*
X145127000Y-107913000D01*
X146492250Y-107913000D01*
X146651000Y-107754250D01*
X146651000Y-107050090D01*
X146554327Y-106816701D01*
X146375698Y-106638073D01*
X146222220Y-106574500D01*
X146244415Y-106559670D01*
X146564814Y-106080159D01*
X157099446Y-106080159D01*
X157185852Y-106336643D01*
X157759336Y-106546458D01*
X158369460Y-106520839D01*
X158814148Y-106336643D01*
X158900554Y-106080159D01*
X158000000Y-105179605D01*
X157099446Y-106080159D01*
X146564814Y-106080159D01*
X146569271Y-106073489D01*
X146683345Y-105500000D01*
X146569271Y-104926511D01*
X146457569Y-104759336D01*
X156453542Y-104759336D01*
X156479161Y-105369460D01*
X156663357Y-105814148D01*
X156919841Y-105900554D01*
X157820395Y-105000000D01*
X158179605Y-105000000D01*
X159080159Y-105900554D01*
X159336643Y-105814148D01*
X159546458Y-105240664D01*
X159526248Y-104759336D01*
X161533542Y-104759336D01*
X161559161Y-105369460D01*
X161743357Y-105814148D01*
X161999841Y-105900554D01*
X162900395Y-105000000D01*
X161999841Y-104099446D01*
X161743357Y-104185852D01*
X161533542Y-104759336D01*
X159526248Y-104759336D01*
X159520839Y-104630540D01*
X159336643Y-104185852D01*
X159080159Y-104099446D01*
X158179605Y-105000000D01*
X157820395Y-105000000D01*
X156919841Y-104099446D01*
X156663357Y-104185852D01*
X156453542Y-104759336D01*
X146457569Y-104759336D01*
X146244415Y-104440330D01*
X145929634Y-104230000D01*
X146244415Y-104019670D01*
X146311118Y-103919841D01*
X157099446Y-103919841D01*
X158000000Y-104820395D01*
X158900554Y-103919841D01*
X158814148Y-103663357D01*
X158240664Y-103453542D01*
X157630540Y-103479161D01*
X157185852Y-103663357D01*
X157099446Y-103919841D01*
X146311118Y-103919841D01*
X146569271Y-103533489D01*
X146683345Y-102960000D01*
X146569271Y-102386511D01*
X146385104Y-102110885D01*
X146563201Y-102184838D01*
X146564838Y-102184839D01*
X146564838Y-102185167D01*
X146706883Y-102528943D01*
X146969673Y-102792192D01*
X147313201Y-102934838D01*
X147685167Y-102935162D01*
X148028943Y-102793117D01*
X148058119Y-102763991D01*
X159004735Y-102763991D01*
X159237932Y-103328371D01*
X159669357Y-103760551D01*
X160233330Y-103994733D01*
X160843991Y-103995265D01*
X161408371Y-103762068D01*
X161840551Y-103330643D01*
X162074733Y-102766670D01*
X162075265Y-102156009D01*
X161842068Y-101591629D01*
X161410643Y-101159449D01*
X160846670Y-100925267D01*
X160236009Y-100924735D01*
X159671629Y-101157932D01*
X159239449Y-101589357D01*
X159005267Y-102153330D01*
X159004735Y-102763991D01*
X148058119Y-102763991D01*
X148292192Y-102530327D01*
X148434838Y-102186799D01*
X148435162Y-101814833D01*
X148310000Y-101511917D01*
X148310000Y-101000998D01*
X148309834Y-101000159D01*
X157099446Y-101000159D01*
X157185852Y-101256643D01*
X157759336Y-101466458D01*
X158369460Y-101440839D01*
X158814148Y-101256643D01*
X158900554Y-101000159D01*
X158000000Y-100099605D01*
X157099446Y-101000159D01*
X148309834Y-101000159D01*
X148248342Y-100691024D01*
X148178012Y-100585769D01*
X148072757Y-100428242D01*
X147521748Y-99877234D01*
X147258966Y-99701648D01*
X147146797Y-99679336D01*
X156453542Y-99679336D01*
X156479161Y-100289460D01*
X156663357Y-100734148D01*
X156919841Y-100820554D01*
X157820395Y-99920000D01*
X158179605Y-99920000D01*
X159080159Y-100820554D01*
X159336643Y-100734148D01*
X159546458Y-100160664D01*
X159526248Y-99679336D01*
X161533542Y-99679336D01*
X161559161Y-100289460D01*
X161743357Y-100734148D01*
X161999841Y-100820554D01*
X162900395Y-99920000D01*
X161999841Y-99019446D01*
X161743357Y-99105852D01*
X161533542Y-99679336D01*
X159526248Y-99679336D01*
X159520839Y-99550540D01*
X159336643Y-99105852D01*
X159080159Y-99019446D01*
X158179605Y-99920000D01*
X157820395Y-99920000D01*
X156919841Y-99019446D01*
X156663357Y-99105852D01*
X156453542Y-99679336D01*
X147146797Y-99679336D01*
X146948992Y-99639990D01*
X142937431Y-99639990D01*
X142636789Y-99515152D01*
X142264823Y-99514828D01*
X141921047Y-99656873D01*
X141657798Y-99919663D01*
X141515152Y-100263191D01*
X141514999Y-100438727D01*
X141471057Y-100456883D01*
X141207808Y-100719673D01*
X141065162Y-101063201D01*
X141064838Y-101435167D01*
X140210000Y-101435167D01*
X140210000Y-98839841D01*
X157099446Y-98839841D01*
X158000000Y-99740395D01*
X158900554Y-98839841D01*
X158814148Y-98583357D01*
X158240664Y-98373542D01*
X157630540Y-98399161D01*
X157185852Y-98583357D01*
X157099446Y-98839841D01*
X140210000Y-98839841D01*
X140210000Y-97710000D01*
X163790000Y-97710000D01*
X163790000Y-98545253D01*
X163790000Y-98545253D01*
G37*
X163790000Y-98545253D02*
X163320664Y-98373542D01*
X162710540Y-98399161D01*
X162265852Y-98583357D01*
X162179446Y-98839841D01*
X163080000Y-99740395D01*
X163094143Y-99726253D01*
X163273748Y-99905858D01*
X163259605Y-99920000D01*
X163273748Y-99934143D01*
X163094143Y-100113748D01*
X163080000Y-100099605D01*
X162179446Y-101000159D01*
X162265852Y-101256643D01*
X162839336Y-101466458D01*
X163449460Y-101440839D01*
X163790000Y-101299783D01*
X163790000Y-103625253D01*
X163320664Y-103453542D01*
X162710540Y-103479161D01*
X162265852Y-103663357D01*
X162179446Y-103919841D01*
X163080000Y-104820395D01*
X163094143Y-104806253D01*
X163273748Y-104985858D01*
X163259605Y-105000000D01*
X163273748Y-105014143D01*
X163094143Y-105193748D01*
X163080000Y-105179605D01*
X162179446Y-106080159D01*
X162265852Y-106336643D01*
X162839336Y-106546458D01*
X163449460Y-106520839D01*
X163790000Y-106379783D01*
X163790000Y-108085253D01*
X163320664Y-107913542D01*
X162710540Y-107939161D01*
X162265852Y-108123357D01*
X162179446Y-108379841D01*
X163080000Y-109280395D01*
X163094143Y-109266253D01*
X163273748Y-109445858D01*
X163259605Y-109460000D01*
X163273748Y-109474143D01*
X163094143Y-109653748D01*
X163080000Y-109639605D01*
X162179446Y-110540159D01*
X162265852Y-110796643D01*
X162839336Y-111006458D01*
X163449460Y-110980839D01*
X163790000Y-110839783D01*
X163790000Y-113165253D01*
X163320664Y-112993542D01*
X162710540Y-113019161D01*
X162265852Y-113203357D01*
X162179446Y-113459841D01*
X163080000Y-114360395D01*
X163094143Y-114346253D01*
X163273748Y-114525858D01*
X163259605Y-114540000D01*
X163273748Y-114554143D01*
X163094143Y-114733748D01*
X163080000Y-114719605D01*
X162179446Y-115620159D01*
X162265852Y-115876643D01*
X162839336Y-116086458D01*
X163449460Y-116060839D01*
X163790000Y-115919783D01*
X163790000Y-116790000D01*
X140210000Y-116790000D01*
X140210000Y-114361913D01*
X140434816Y-114361913D01*
X140628046Y-114914320D01*
X141017964Y-115350732D01*
X141545209Y-115604709D01*
X141560974Y-115607358D01*
X141793000Y-115486217D01*
X141793000Y-114127000D01*
X140579076Y-114127000D01*
X140434816Y-114361913D01*
X140210000Y-114361913D01*
X140210000Y-113638087D01*
X140434816Y-113638087D01*
X140579076Y-113873000D01*
X141793000Y-113873000D01*
X141793000Y-112513783D01*
X142047000Y-112513783D01*
X142047000Y-113873000D01*
X142067000Y-113873000D01*
X142067000Y-114127000D01*
X142047000Y-114127000D01*
X142047000Y-115486217D01*
X142279026Y-115607358D01*
X142294791Y-115604709D01*
X142822036Y-115350732D01*
X143193539Y-114934931D01*
X143400330Y-115244415D01*
X143886511Y-115569271D01*
X144460000Y-115683345D01*
X145033489Y-115569271D01*
X145519670Y-115244415D01*
X145730000Y-114929634D01*
X145940330Y-115244415D01*
X146426511Y-115569271D01*
X147000000Y-115683345D01*
X147573489Y-115569271D01*
X148059670Y-115244415D01*
X148270000Y-114929634D01*
X148480330Y-115244415D01*
X148966511Y-115569271D01*
X149540000Y-115683345D01*
X150113489Y-115569271D01*
X150599670Y-115244415D01*
X150609243Y-115230087D01*
X150613238Y-115251317D01*
X150752310Y-115467441D01*
X150964510Y-115612431D01*
X151216400Y-115663440D01*
X152943600Y-115663440D01*
X153173618Y-115620159D01*
X157099446Y-115620159D01*
X157185852Y-115876643D01*
X157759336Y-116086458D01*
X158369460Y-116060839D01*
X158814148Y-115876643D01*
X158900554Y-115620159D01*
X158000000Y-114719605D01*
X157099446Y-115620159D01*
X153173618Y-115620159D01*
X153178917Y-115619162D01*
X153395041Y-115480090D01*
X153540031Y-115267890D01*
X153591040Y-115016000D01*
X153591040Y-114299336D01*
X156453542Y-114299336D01*
X156479161Y-114909460D01*
X156663357Y-115354148D01*
X156919841Y-115440554D01*
X157820395Y-114540000D01*
X158179605Y-114540000D01*
X159080159Y-115440554D01*
X159336643Y-115354148D01*
X159546458Y-114780664D01*
X159526248Y-114299336D01*
X161533542Y-114299336D01*
X161559161Y-114909460D01*
X161743357Y-115354148D01*
X161999841Y-115440554D01*
X162900395Y-114540000D01*
X161999841Y-113639446D01*
X161743357Y-113725852D01*
X161533542Y-114299336D01*
X159526248Y-114299336D01*
X159520839Y-114170540D01*
X159336643Y-113725852D01*
X159080159Y-113639446D01*
X158179605Y-114540000D01*
X157820395Y-114540000D01*
X156919841Y-113639446D01*
X156663357Y-113725852D01*
X156453542Y-114299336D01*
X153591040Y-114299336D01*
X153591040Y-113459841D01*
X157099446Y-113459841D01*
X158000000Y-114360395D01*
X158900554Y-113459841D01*
X158814148Y-113203357D01*
X158240664Y-112993542D01*
X157630540Y-113019161D01*
X157185852Y-113203357D01*
X157099446Y-113459841D01*
X153591040Y-113459841D01*
X153591040Y-112984000D01*
X153546762Y-112748683D01*
X153407690Y-112532559D01*
X153195490Y-112387569D01*
X152943600Y-112336560D01*
X151216400Y-112336560D01*
X150981083Y-112380838D01*
X150764959Y-112519910D01*
X150619969Y-112732110D01*
X150611600Y-112773439D01*
X150599670Y-112755585D01*
X150113489Y-112430729D01*
X149540000Y-112316655D01*
X148966511Y-112430729D01*
X148480330Y-112755585D01*
X148270000Y-113070366D01*
X148059670Y-112755585D01*
X147573489Y-112430729D01*
X147000000Y-112316655D01*
X146426511Y-112430729D01*
X145940330Y-112755585D01*
X145730000Y-113070366D01*
X145519670Y-112755585D01*
X145033489Y-112430729D01*
X144460000Y-112316655D01*
X143886511Y-112430729D01*
X143400330Y-112755585D01*
X143193539Y-113065069D01*
X142822036Y-112649268D01*
X142294791Y-112395291D01*
X142279026Y-112392642D01*
X142047000Y-112513783D01*
X141793000Y-112513783D01*
X141560974Y-112392642D01*
X141545209Y-112395291D01*
X141017964Y-112649268D01*
X140628046Y-113085680D01*
X140434816Y-113638087D01*
X140210000Y-113638087D01*
X140210000Y-112303991D01*
X159004735Y-112303991D01*
X159237932Y-112868371D01*
X159669357Y-113300551D01*
X160233330Y-113534733D01*
X160843991Y-113535265D01*
X161408371Y-113302068D01*
X161840551Y-112870643D01*
X162074733Y-112306670D01*
X162075265Y-111696009D01*
X161842068Y-111131629D01*
X161410643Y-110699449D01*
X160846670Y-110465267D01*
X160236009Y-110464735D01*
X159671629Y-110697932D01*
X159239449Y-111129357D01*
X159005267Y-111693330D01*
X159004735Y-112303991D01*
X140210000Y-112303991D01*
X140210000Y-110540159D01*
X157099446Y-110540159D01*
X157185852Y-110796643D01*
X157759336Y-111006458D01*
X158369460Y-110980839D01*
X158814148Y-110796643D01*
X158900554Y-110540159D01*
X158000000Y-109639605D01*
X157099446Y-110540159D01*
X140210000Y-110540159D01*
X140210000Y-108325750D01*
X143349000Y-108325750D01*
X143349000Y-109029910D01*
X143445673Y-109263299D01*
X143624302Y-109441927D01*
X143857691Y-109538600D01*
X144714250Y-109538600D01*
X144873000Y-109379850D01*
X144873000Y-108167000D01*
X145127000Y-108167000D01*
X145127000Y-109379850D01*
X145285750Y-109538600D01*
X146142309Y-109538600D01*
X146375698Y-109441927D01*
X146554327Y-109263299D01*
X146572537Y-109219336D01*
X156453542Y-109219336D01*
X156479161Y-109829460D01*
X156663357Y-110274148D01*
X156919841Y-110360554D01*
X157820395Y-109460000D01*
X158179605Y-109460000D01*
X159080159Y-110360554D01*
X159336643Y-110274148D01*
X159546458Y-109700664D01*
X159526248Y-109219336D01*
X161533542Y-109219336D01*
X161559161Y-109829460D01*
X161743357Y-110274148D01*
X161999841Y-110360554D01*
X162900395Y-109460000D01*
X161999841Y-108559446D01*
X161743357Y-108645852D01*
X161533542Y-109219336D01*
X159526248Y-109219336D01*
X159520839Y-109090540D01*
X159336643Y-108645852D01*
X159080159Y-108559446D01*
X158179605Y-109460000D01*
X157820395Y-109460000D01*
X156919841Y-108559446D01*
X156663357Y-108645852D01*
X156453542Y-109219336D01*
X146572537Y-109219336D01*
X146651000Y-109029910D01*
X146651000Y-108379841D01*
X157099446Y-108379841D01*
X158000000Y-109280395D01*
X158900554Y-108379841D01*
X158814148Y-108123357D01*
X158240664Y-107913542D01*
X157630540Y-107939161D01*
X157185852Y-108123357D01*
X157099446Y-108379841D01*
X146651000Y-108379841D01*
X146651000Y-108325750D01*
X146492250Y-108167000D01*
X145127000Y-108167000D01*
X144873000Y-108167000D01*
X143507750Y-108167000D01*
X143349000Y-108325750D01*
X140210000Y-108325750D01*
X140210000Y-101435167D01*
X141064838Y-101435167D01*
X141206883Y-101778943D01*
X141469673Y-102042192D01*
X141813201Y-102184838D01*
X142185167Y-102185162D01*
X142488083Y-102060000D01*
X143648897Y-102060000D01*
X143430729Y-102386511D01*
X143316655Y-102960000D01*
X143430729Y-103533489D01*
X143755585Y-104019670D01*
X144070366Y-104230000D01*
X143755585Y-104440330D01*
X143430729Y-104926511D01*
X143316655Y-105500000D01*
X143430729Y-106073489D01*
X143755585Y-106559670D01*
X143777780Y-106574500D01*
X143624302Y-106638073D01*
X143445673Y-106816701D01*
X143349000Y-107050090D01*
X143349000Y-107754250D01*
X143507750Y-107913000D01*
X144873000Y-107913000D01*
X144873000Y-107893000D01*
X145127000Y-107893000D01*
X145127000Y-107913000D01*
X146492250Y-107913000D01*
X146651000Y-107754250D01*
X146651000Y-107050090D01*
X146554327Y-106816701D01*
X146375698Y-106638073D01*
X146222220Y-106574500D01*
X146244415Y-106559670D01*
X146564814Y-106080159D01*
X157099446Y-106080159D01*
X157185852Y-106336643D01*
X157759336Y-106546458D01*
X158369460Y-106520839D01*
X158814148Y-106336643D01*
X158900554Y-106080159D01*
X158000000Y-105179605D01*
X157099446Y-106080159D01*
X146564814Y-106080159D01*
X146569271Y-106073489D01*
X146683345Y-105500000D01*
X146569271Y-104926511D01*
X146457569Y-104759336D01*
X156453542Y-104759336D01*
X156479161Y-105369460D01*
X156663357Y-105814148D01*
X156919841Y-105900554D01*
X157820395Y-105000000D01*
X158179605Y-105000000D01*
X159080159Y-105900554D01*
X159336643Y-105814148D01*
X159546458Y-105240664D01*
X159526248Y-104759336D01*
X161533542Y-104759336D01*
X161559161Y-105369460D01*
X161743357Y-105814148D01*
X161999841Y-105900554D01*
X162900395Y-105000000D01*
X161999841Y-104099446D01*
X161743357Y-104185852D01*
X161533542Y-104759336D01*
X159526248Y-104759336D01*
X159520839Y-104630540D01*
X159336643Y-104185852D01*
X159080159Y-104099446D01*
X158179605Y-105000000D01*
X157820395Y-105000000D01*
X156919841Y-104099446D01*
X156663357Y-104185852D01*
X156453542Y-104759336D01*
X146457569Y-104759336D01*
X146244415Y-104440330D01*
X145929634Y-104230000D01*
X146244415Y-104019670D01*
X146311118Y-103919841D01*
X157099446Y-103919841D01*
X158000000Y-104820395D01*
X158900554Y-103919841D01*
X158814148Y-103663357D01*
X158240664Y-103453542D01*
X157630540Y-103479161D01*
X157185852Y-103663357D01*
X157099446Y-103919841D01*
X146311118Y-103919841D01*
X146569271Y-103533489D01*
X146683345Y-102960000D01*
X146569271Y-102386511D01*
X146385104Y-102110885D01*
X146563201Y-102184838D01*
X146564838Y-102184839D01*
X146564838Y-102185167D01*
X146706883Y-102528943D01*
X146969673Y-102792192D01*
X147313201Y-102934838D01*
X147685167Y-102935162D01*
X148028943Y-102793117D01*
X148058119Y-102763991D01*
X159004735Y-102763991D01*
X159237932Y-103328371D01*
X159669357Y-103760551D01*
X160233330Y-103994733D01*
X160843991Y-103995265D01*
X161408371Y-103762068D01*
X161840551Y-103330643D01*
X162074733Y-102766670D01*
X162075265Y-102156009D01*
X161842068Y-101591629D01*
X161410643Y-101159449D01*
X160846670Y-100925267D01*
X160236009Y-100924735D01*
X159671629Y-101157932D01*
X159239449Y-101589357D01*
X159005267Y-102153330D01*
X159004735Y-102763991D01*
X148058119Y-102763991D01*
X148292192Y-102530327D01*
X148434838Y-102186799D01*
X148435162Y-101814833D01*
X148310000Y-101511917D01*
X148310000Y-101000998D01*
X148309834Y-101000159D01*
X157099446Y-101000159D01*
X157185852Y-101256643D01*
X157759336Y-101466458D01*
X158369460Y-101440839D01*
X158814148Y-101256643D01*
X158900554Y-101000159D01*
X158000000Y-100099605D01*
X157099446Y-101000159D01*
X148309834Y-101000159D01*
X148248342Y-100691024D01*
X148178012Y-100585769D01*
X148072757Y-100428242D01*
X147521748Y-99877234D01*
X147258966Y-99701648D01*
X147146797Y-99679336D01*
X156453542Y-99679336D01*
X156479161Y-100289460D01*
X156663357Y-100734148D01*
X156919841Y-100820554D01*
X157820395Y-99920000D01*
X158179605Y-99920000D01*
X159080159Y-100820554D01*
X159336643Y-100734148D01*
X159546458Y-100160664D01*
X159526248Y-99679336D01*
X161533542Y-99679336D01*
X161559161Y-100289460D01*
X161743357Y-100734148D01*
X161999841Y-100820554D01*
X162900395Y-99920000D01*
X161999841Y-99019446D01*
X161743357Y-99105852D01*
X161533542Y-99679336D01*
X159526248Y-99679336D01*
X159520839Y-99550540D01*
X159336643Y-99105852D01*
X159080159Y-99019446D01*
X158179605Y-99920000D01*
X157820395Y-99920000D01*
X156919841Y-99019446D01*
X156663357Y-99105852D01*
X156453542Y-99679336D01*
X147146797Y-99679336D01*
X146948992Y-99639990D01*
X142937431Y-99639990D01*
X142636789Y-99515152D01*
X142264823Y-99514828D01*
X141921047Y-99656873D01*
X141657798Y-99919663D01*
X141515152Y-100263191D01*
X141514999Y-100438727D01*
X141471057Y-100456883D01*
X141207808Y-100719673D01*
X141065162Y-101063201D01*
X141064838Y-101435167D01*
X140210000Y-101435167D01*
X140210000Y-98839841D01*
X157099446Y-98839841D01*
X158000000Y-99740395D01*
X158900554Y-98839841D01*
X158814148Y-98583357D01*
X158240664Y-98373542D01*
X157630540Y-98399161D01*
X157185852Y-98583357D01*
X157099446Y-98839841D01*
X140210000Y-98839841D01*
X140210000Y-97710000D01*
X163790000Y-97710000D01*
X163790000Y-98545253D01*
M02*
