M48
;DRILL file {KiCad 4.0.2-stable} date Sun 24 Apr 2016 07:39:01 PM AKDT
;FORMAT={-:-/ absolute / inch / decimal}
FMAT,2
INCH,TZ
T1C0.016
T2C0.040
T3C0.059
%
G90
G05
M72
T1
X5.5709Y-3.8622
X5.5906Y-3.9862
X5.6083Y-3.9547
X5.7776Y-3.9862
X5.8071Y-4.0157
X5.848Y-4.2535
X5.8858Y-4.311
X5.9843Y-3.878
X6.0236Y-3.8583
X6.0827Y-3.8583
T2
X5.5874Y-4.4882
X5.6874Y-4.4882
X5.7087Y-4.0535
X5.7087Y-4.1535
X5.7087Y-4.2535
X5.7874Y-4.4882
X5.8874Y-4.4882
X5.9874Y-4.4882
T3
X6.2205Y-3.9339
X6.2205Y-4.1339
X6.2205Y-4.3094
X6.2205Y-4.5094
X6.3205Y-4.0339
X6.3205Y-4.4094
X6.4205Y-3.9339
X6.4205Y-4.1339
X6.4205Y-4.3094
X6.4205Y-4.5094
T0
M30
