G04 #@! TF.FileFunction,Legend,Top*
%FSLAX46Y46*%
G04 Gerber Fmt 4.6, Leading zero omitted, Abs format (unit mm)*
G04 Created by KiCad (PCBNEW 4.0.2-stable) date Sun 24 Apr 2016 07:38:59 PM AKDT*
%MOMM*%
G01*
G04 APERTURE LIST*
%ADD10C,0.100000*%
%ADD11C,0.225000*%
%ADD12C,0.150000*%
G04 APERTURE END LIST*
D10*
D11*
X160035715Y-97257143D02*
X160207144Y-97257143D01*
X160292858Y-97300000D01*
X160378572Y-97385714D01*
X160421430Y-97557143D01*
X160421430Y-97857143D01*
X160378572Y-98028571D01*
X160292858Y-98114286D01*
X160207144Y-98157143D01*
X160035715Y-98157143D01*
X159950001Y-98114286D01*
X159864287Y-98028571D01*
X159821430Y-97857143D01*
X159821430Y-97557143D01*
X159864287Y-97385714D01*
X159950001Y-97300000D01*
X160035715Y-97257143D01*
X160807144Y-97257143D02*
X160807144Y-97985714D01*
X160850001Y-98071429D01*
X160892858Y-98114286D01*
X160978572Y-98157143D01*
X161150001Y-98157143D01*
X161235715Y-98114286D01*
X161278572Y-98071429D01*
X161321429Y-97985714D01*
X161321429Y-97257143D01*
X161621429Y-97257143D02*
X162135715Y-97257143D01*
X161878572Y-98157143D02*
X161878572Y-97257143D01*
X162221429Y-98242857D02*
X162907143Y-98242857D01*
X163121429Y-98157143D02*
X163121429Y-97257143D01*
X163635714Y-98157143D01*
X163635714Y-97257143D01*
X160307143Y-116257143D02*
X160478572Y-116257143D01*
X160564286Y-116300000D01*
X160650000Y-116385714D01*
X160692858Y-116557143D01*
X160692858Y-116857143D01*
X160650000Y-117028571D01*
X160564286Y-117114286D01*
X160478572Y-117157143D01*
X160307143Y-117157143D01*
X160221429Y-117114286D01*
X160135715Y-117028571D01*
X160092858Y-116857143D01*
X160092858Y-116557143D01*
X160135715Y-116385714D01*
X160221429Y-116300000D01*
X160307143Y-116257143D01*
X161078572Y-116257143D02*
X161078572Y-116985714D01*
X161121429Y-117071429D01*
X161164286Y-117114286D01*
X161250000Y-117157143D01*
X161421429Y-117157143D01*
X161507143Y-117114286D01*
X161550000Y-117071429D01*
X161592857Y-116985714D01*
X161592857Y-116257143D01*
X161892857Y-116257143D02*
X162407143Y-116257143D01*
X162150000Y-117157143D02*
X162150000Y-116257143D01*
X162492857Y-117242857D02*
X163178571Y-117242857D01*
X163392857Y-117157143D02*
X163392857Y-116257143D01*
X163735714Y-116257143D01*
X163821428Y-116300000D01*
X163864285Y-116342857D01*
X163907142Y-116428571D01*
X163907142Y-116557143D01*
X163864285Y-116642857D01*
X163821428Y-116685714D01*
X163735714Y-116728571D01*
X163392857Y-116728571D01*
X140828571Y-102937143D02*
X140314286Y-102937143D01*
X140571428Y-102937143D02*
X140571428Y-102037143D01*
X140485714Y-102165714D01*
X140400000Y-102251429D01*
X140314286Y-102294286D01*
X141385714Y-102037143D02*
X141471429Y-102037143D01*
X141557143Y-102080000D01*
X141600000Y-102122857D01*
X141642857Y-102208571D01*
X141685714Y-102380000D01*
X141685714Y-102594286D01*
X141642857Y-102765714D01*
X141600000Y-102851429D01*
X141557143Y-102894286D01*
X141471429Y-102937143D01*
X141385714Y-102937143D01*
X141300000Y-102894286D01*
X141257143Y-102851429D01*
X141214286Y-102765714D01*
X141171429Y-102594286D01*
X141171429Y-102380000D01*
X141214286Y-102208571D01*
X141257143Y-102122857D01*
X141300000Y-102080000D01*
X141385714Y-102037143D01*
X140528571Y-105007143D02*
X140614286Y-105007143D01*
X140700000Y-105050000D01*
X140742857Y-105092857D01*
X140785714Y-105178571D01*
X140828571Y-105350000D01*
X140828571Y-105564286D01*
X140785714Y-105735714D01*
X140742857Y-105821429D01*
X140700000Y-105864286D01*
X140614286Y-105907143D01*
X140528571Y-105907143D01*
X140442857Y-105864286D01*
X140400000Y-105821429D01*
X140357143Y-105735714D01*
X140314286Y-105564286D01*
X140314286Y-105350000D01*
X140357143Y-105178571D01*
X140400000Y-105092857D01*
X140442857Y-105050000D01*
X140528571Y-105007143D01*
X141685714Y-105907143D02*
X141171429Y-105907143D01*
X141428571Y-105907143D02*
X141428571Y-105007143D01*
X141342857Y-105135714D01*
X141257143Y-105221429D01*
X141171429Y-105264286D01*
X140528571Y-107977143D02*
X140614286Y-107977143D01*
X140700000Y-108020000D01*
X140742857Y-108062857D01*
X140785714Y-108148571D01*
X140828571Y-108320000D01*
X140828571Y-108534286D01*
X140785714Y-108705714D01*
X140742857Y-108791429D01*
X140700000Y-108834286D01*
X140614286Y-108877143D01*
X140528571Y-108877143D01*
X140442857Y-108834286D01*
X140400000Y-108791429D01*
X140357143Y-108705714D01*
X140314286Y-108534286D01*
X140314286Y-108320000D01*
X140357143Y-108148571D01*
X140400000Y-108062857D01*
X140442857Y-108020000D01*
X140528571Y-107977143D01*
X141385714Y-107977143D02*
X141471429Y-107977143D01*
X141557143Y-108020000D01*
X141600000Y-108062857D01*
X141642857Y-108148571D01*
X141685714Y-108320000D01*
X141685714Y-108534286D01*
X141642857Y-108705714D01*
X141600000Y-108791429D01*
X141557143Y-108834286D01*
X141471429Y-108877143D01*
X141385714Y-108877143D01*
X141300000Y-108834286D01*
X141257143Y-108791429D01*
X141214286Y-108705714D01*
X141171429Y-108534286D01*
X141171429Y-108320000D01*
X141214286Y-108148571D01*
X141257143Y-108062857D01*
X141300000Y-108020000D01*
X141385714Y-107977143D01*
X140850000Y-116557143D02*
X140850000Y-117285714D01*
X140807143Y-117371429D01*
X140764286Y-117414286D01*
X140678571Y-117457143D01*
X140550000Y-117457143D01*
X140464286Y-117414286D01*
X140850000Y-117114286D02*
X140764286Y-117157143D01*
X140592857Y-117157143D01*
X140507143Y-117114286D01*
X140464286Y-117071429D01*
X140421429Y-116985714D01*
X140421429Y-116728571D01*
X140464286Y-116642857D01*
X140507143Y-116600000D01*
X140592857Y-116557143D01*
X140764286Y-116557143D01*
X140850000Y-116600000D01*
X141278572Y-116557143D02*
X141278572Y-117157143D01*
X141278572Y-116642857D02*
X141321429Y-116600000D01*
X141407143Y-116557143D01*
X141535715Y-116557143D01*
X141621429Y-116600000D01*
X141664286Y-116685714D01*
X141664286Y-117157143D01*
X142478572Y-117157143D02*
X142478572Y-116257143D01*
X142478572Y-117114286D02*
X142392858Y-117157143D01*
X142221429Y-117157143D01*
X142135715Y-117114286D01*
X142092858Y-117071429D01*
X142050001Y-116985714D01*
X142050001Y-116728571D01*
X142092858Y-116642857D01*
X142135715Y-116600000D01*
X142221429Y-116557143D01*
X142392858Y-116557143D01*
X142478572Y-116600000D01*
X143721429Y-117157143D02*
X143635715Y-117114286D01*
X143592858Y-117071429D01*
X143550001Y-116985714D01*
X143550001Y-116728571D01*
X143592858Y-116642857D01*
X143635715Y-116600000D01*
X143721429Y-116557143D01*
X143850001Y-116557143D01*
X143935715Y-116600000D01*
X143978572Y-116642857D01*
X144021429Y-116728571D01*
X144021429Y-116985714D01*
X143978572Y-117071429D01*
X143935715Y-117114286D01*
X143850001Y-117157143D01*
X143721429Y-117157143D01*
X144750001Y-117114286D02*
X144664287Y-117157143D01*
X144492858Y-117157143D01*
X144407144Y-117114286D01*
X144364287Y-117028571D01*
X144364287Y-116685714D01*
X144407144Y-116600000D01*
X144492858Y-116557143D01*
X144664287Y-116557143D01*
X144750001Y-116600000D01*
X144792858Y-116685714D01*
X144792858Y-116771429D01*
X144364287Y-116857143D01*
X145778572Y-116257143D02*
X146335715Y-116257143D01*
X146035715Y-116600000D01*
X146164287Y-116600000D01*
X146250001Y-116642857D01*
X146292858Y-116685714D01*
X146335715Y-116771429D01*
X146335715Y-116985714D01*
X146292858Y-117071429D01*
X146250001Y-117114286D01*
X146164287Y-117157143D01*
X145907144Y-117157143D01*
X145821430Y-117114286D01*
X145778572Y-117071429D01*
X146635715Y-116557143D02*
X146850001Y-117157143D01*
X147064287Y-116557143D01*
X147321429Y-116257143D02*
X147878572Y-116257143D01*
X147578572Y-116600000D01*
X147707144Y-116600000D01*
X147792858Y-116642857D01*
X147835715Y-116685714D01*
X147878572Y-116771429D01*
X147878572Y-116985714D01*
X147835715Y-117071429D01*
X147792858Y-117114286D01*
X147707144Y-117157143D01*
X147450001Y-117157143D01*
X147364287Y-117114286D01*
X147321429Y-117071429D01*
X148907144Y-117114286D02*
X148992858Y-117157143D01*
X149164286Y-117157143D01*
X149250001Y-117114286D01*
X149292858Y-117028571D01*
X149292858Y-116985714D01*
X149250001Y-116900000D01*
X149164286Y-116857143D01*
X149035715Y-116857143D01*
X148950001Y-116814286D01*
X148907144Y-116728571D01*
X148907144Y-116685714D01*
X148950001Y-116600000D01*
X149035715Y-116557143D01*
X149164286Y-116557143D01*
X149250001Y-116600000D01*
X150064286Y-117114286D02*
X149978572Y-117157143D01*
X149807143Y-117157143D01*
X149721429Y-117114286D01*
X149678572Y-117071429D01*
X149635715Y-116985714D01*
X149635715Y-116728571D01*
X149678572Y-116642857D01*
X149721429Y-116600000D01*
X149807143Y-116557143D01*
X149978572Y-116557143D01*
X150064286Y-116600000D01*
X150578572Y-117157143D02*
X150492858Y-117114286D01*
X150450001Y-117028571D01*
X150450001Y-116257143D01*
X151564287Y-117114286D02*
X151650001Y-117157143D01*
X151821429Y-117157143D01*
X151907144Y-117114286D01*
X151950001Y-117028571D01*
X151950001Y-116985714D01*
X151907144Y-116900000D01*
X151821429Y-116857143D01*
X151692858Y-116857143D01*
X151607144Y-116814286D01*
X151564287Y-116728571D01*
X151564287Y-116685714D01*
X151607144Y-116600000D01*
X151692858Y-116557143D01*
X151821429Y-116557143D01*
X151907144Y-116600000D01*
X152721429Y-117157143D02*
X152721429Y-116257143D01*
X152721429Y-117114286D02*
X152635715Y-117157143D01*
X152464286Y-117157143D01*
X152378572Y-117114286D01*
X152335715Y-117071429D01*
X152292858Y-116985714D01*
X152292858Y-116728571D01*
X152335715Y-116642857D01*
X152378572Y-116600000D01*
X152464286Y-116557143D01*
X152635715Y-116557143D01*
X152721429Y-116600000D01*
X153535715Y-117157143D02*
X153535715Y-116685714D01*
X153492858Y-116600000D01*
X153407144Y-116557143D01*
X153235715Y-116557143D01*
X153150001Y-116600000D01*
X153535715Y-117114286D02*
X153450001Y-117157143D01*
X153235715Y-117157143D01*
X153150001Y-117114286D01*
X153107144Y-117028571D01*
X153107144Y-116942857D01*
X153150001Y-116857143D01*
X153235715Y-116814286D01*
X153450001Y-116814286D01*
X153535715Y-116771429D01*
D12*
X152525000Y-99250000D02*
X152525000Y-99750000D01*
X153475000Y-99750000D02*
X153475000Y-99250000D01*
X154025000Y-99250000D02*
X154025000Y-99750000D01*
X154975000Y-99750000D02*
X154975000Y-99250000D01*
X150400000Y-99600000D02*
X150400000Y-98900000D01*
X151600000Y-98900000D02*
X151600000Y-99600000D01*
X144600000Y-98650000D02*
X146500000Y-98650000D01*
X144600000Y-97550000D02*
X146500000Y-97550000D01*
X145500000Y-98100000D02*
X145950000Y-98100000D01*
X145450000Y-97850000D02*
X145450000Y-98350000D01*
X145450000Y-98100000D02*
X145700000Y-97850000D01*
X145700000Y-97850000D02*
X145700000Y-98350000D01*
X145700000Y-98350000D02*
X145450000Y-98100000D01*
X146270000Y-106770000D02*
X146270000Y-101690000D01*
X146270000Y-101690000D02*
X143730000Y-101690000D01*
X143730000Y-101690000D02*
X143730000Y-106770000D01*
X143450000Y-109590000D02*
X143450000Y-108040000D01*
X143730000Y-106770000D02*
X146270000Y-106770000D01*
X146550000Y-108040000D02*
X146550000Y-109590000D01*
X146550000Y-109590000D02*
X143450000Y-109590000D01*
X147925000Y-99700000D02*
X147925000Y-98700000D01*
X149275000Y-98700000D02*
X149275000Y-99700000D01*
X152080000Y-112450000D02*
X153630000Y-112450000D01*
X153630000Y-112450000D02*
X153630000Y-115550000D01*
X153630000Y-115550000D02*
X152080000Y-115550000D01*
X150810000Y-115270000D02*
X140650000Y-115270000D01*
X140650000Y-115270000D02*
X140650000Y-112730000D01*
X140650000Y-112730000D02*
X150810000Y-112730000D01*
X150810000Y-115270000D02*
X150810000Y-112730000D01*
X155525000Y-113700000D02*
X155525000Y-113200000D01*
X154475000Y-113200000D02*
X154475000Y-113700000D01*
X152250000Y-111025000D02*
X152750000Y-111025000D01*
X152750000Y-109975000D02*
X152250000Y-109975000D01*
X143100000Y-97575000D02*
X142600000Y-97575000D01*
X142600000Y-98625000D02*
X143100000Y-98625000D01*
X152008000Y-109056000D02*
X152516000Y-109056000D01*
X150484000Y-109056000D02*
X150992000Y-109056000D01*
X150484000Y-101944000D02*
X150992000Y-101944000D01*
X152008000Y-101944000D02*
X152516000Y-101944000D01*
X154040000Y-103976000D02*
X154040000Y-104484000D01*
X154040000Y-106516000D02*
X154040000Y-107024000D01*
X148960000Y-106516000D02*
X148960000Y-107024000D01*
X148960000Y-103976000D02*
X148960000Y-104484000D01*
X149210000Y-101436000D02*
G75*
G03X149210000Y-101436000I-250000J0D01*
G01*
X164604000Y-108190000D02*
X164604000Y-115810000D01*
X164858000Y-108190000D02*
X164350000Y-108190000D01*
X164858000Y-115810000D02*
X164858000Y-108190000D01*
X164858000Y-115810000D02*
X164350000Y-115810000D01*
X156730000Y-108190000D02*
X164350000Y-108190000D01*
X156730000Y-115810000D02*
X156730000Y-108190000D01*
X164350000Y-115810000D02*
X156730000Y-115810000D01*
X164604000Y-98650000D02*
X164604000Y-106270000D01*
X164858000Y-98650000D02*
X164350000Y-98650000D01*
X164858000Y-106270000D02*
X164858000Y-98650000D01*
X164858000Y-106270000D02*
X164350000Y-106270000D01*
X156730000Y-98650000D02*
X164350000Y-98650000D01*
X156730000Y-106270000D02*
X156730000Y-98650000D01*
X164350000Y-106270000D02*
X156730000Y-106270000D01*
X152850000Y-101571429D02*
X152807143Y-101614286D01*
X152678572Y-101657143D01*
X152592858Y-101657143D01*
X152464286Y-101614286D01*
X152378572Y-101528571D01*
X152335715Y-101442857D01*
X152292858Y-101271429D01*
X152292858Y-101142857D01*
X152335715Y-100971429D01*
X152378572Y-100885714D01*
X152464286Y-100800000D01*
X152592858Y-100757143D01*
X152678572Y-100757143D01*
X152807143Y-100800000D01*
X152850000Y-100842857D01*
X153707143Y-101657143D02*
X153192858Y-101657143D01*
X153450000Y-101657143D02*
X153450000Y-100757143D01*
X153364286Y-100885714D01*
X153278572Y-100971429D01*
X153192858Y-101014286D01*
X154600000Y-101571429D02*
X154557143Y-101614286D01*
X154428572Y-101657143D01*
X154342858Y-101657143D01*
X154214286Y-101614286D01*
X154128572Y-101528571D01*
X154085715Y-101442857D01*
X154042858Y-101271429D01*
X154042858Y-101142857D01*
X154085715Y-100971429D01*
X154128572Y-100885714D01*
X154214286Y-100800000D01*
X154342858Y-100757143D01*
X154428572Y-100757143D01*
X154557143Y-100800000D01*
X154600000Y-100842857D01*
X154942858Y-100842857D02*
X154985715Y-100800000D01*
X155071429Y-100757143D01*
X155285715Y-100757143D01*
X155371429Y-100800000D01*
X155414286Y-100842857D01*
X155457143Y-100928571D01*
X155457143Y-101014286D01*
X155414286Y-101142857D01*
X154900000Y-101657143D01*
X155457143Y-101657143D01*
X150850000Y-101571429D02*
X150807143Y-101614286D01*
X150678572Y-101657143D01*
X150592858Y-101657143D01*
X150464286Y-101614286D01*
X150378572Y-101528571D01*
X150335715Y-101442857D01*
X150292858Y-101271429D01*
X150292858Y-101142857D01*
X150335715Y-100971429D01*
X150378572Y-100885714D01*
X150464286Y-100800000D01*
X150592858Y-100757143D01*
X150678572Y-100757143D01*
X150807143Y-100800000D01*
X150850000Y-100842857D01*
X151150000Y-100757143D02*
X151707143Y-100757143D01*
X151407143Y-101100000D01*
X151535715Y-101100000D01*
X151621429Y-101142857D01*
X151664286Y-101185714D01*
X151707143Y-101271429D01*
X151707143Y-101485714D01*
X151664286Y-101571429D01*
X151621429Y-101614286D01*
X151535715Y-101657143D01*
X151278572Y-101657143D01*
X151192858Y-101614286D01*
X151150000Y-101571429D01*
X144585715Y-99907143D02*
X144585715Y-99007143D01*
X144800000Y-99007143D01*
X144928572Y-99050000D01*
X145014286Y-99135714D01*
X145057143Y-99221429D01*
X145100000Y-99392857D01*
X145100000Y-99521429D01*
X145057143Y-99692857D01*
X145014286Y-99778571D01*
X144928572Y-99864286D01*
X144800000Y-99907143D01*
X144585715Y-99907143D01*
X145957143Y-99907143D02*
X145442858Y-99907143D01*
X145700000Y-99907143D02*
X145700000Y-99007143D01*
X145614286Y-99135714D01*
X145528572Y-99221429D01*
X145442858Y-99264286D01*
X144250001Y-112647143D02*
X144250001Y-113290000D01*
X144207143Y-113418571D01*
X144121429Y-113504286D01*
X143992858Y-113547143D01*
X143907143Y-113547143D01*
X144678572Y-113547143D02*
X144678572Y-112647143D01*
X145021429Y-112647143D01*
X145107143Y-112690000D01*
X145150000Y-112732857D01*
X145192857Y-112818571D01*
X145192857Y-112947143D01*
X145150000Y-113032857D01*
X145107143Y-113075714D01*
X145021429Y-113118571D01*
X144678572Y-113118571D01*
X146050000Y-113547143D02*
X145535715Y-113547143D01*
X145792857Y-113547143D02*
X145792857Y-112647143D01*
X145707143Y-112775714D01*
X145621429Y-112861429D01*
X145535715Y-112904286D01*
X146600000Y-100657143D02*
X146171429Y-100657143D01*
X146171429Y-99757143D01*
X147371428Y-100657143D02*
X146857143Y-100657143D01*
X147114285Y-100657143D02*
X147114285Y-99757143D01*
X147028571Y-99885714D01*
X146942857Y-99971429D01*
X146857143Y-100014286D01*
X154835715Y-117157143D02*
X154835715Y-116257143D01*
X155178572Y-116257143D01*
X155264286Y-116300000D01*
X155307143Y-116342857D01*
X155350000Y-116428571D01*
X155350000Y-116557143D01*
X155307143Y-116642857D01*
X155264286Y-116685714D01*
X155178572Y-116728571D01*
X154835715Y-116728571D01*
X156207143Y-117157143D02*
X155692858Y-117157143D01*
X155950000Y-117157143D02*
X155950000Y-116257143D01*
X155864286Y-116385714D01*
X155778572Y-116471429D01*
X155692858Y-116514286D01*
X154850000Y-112157143D02*
X154550000Y-111728571D01*
X154335715Y-112157143D02*
X154335715Y-111257143D01*
X154678572Y-111257143D01*
X154764286Y-111300000D01*
X154807143Y-111342857D01*
X154850000Y-111428571D01*
X154850000Y-111557143D01*
X154807143Y-111642857D01*
X154764286Y-111685714D01*
X154678572Y-111728571D01*
X154335715Y-111728571D01*
X155707143Y-112157143D02*
X155192858Y-112157143D01*
X155450000Y-112157143D02*
X155450000Y-111257143D01*
X155364286Y-111385714D01*
X155278572Y-111471429D01*
X155192858Y-111514286D01*
X154600000Y-110657143D02*
X154300000Y-110228571D01*
X154085715Y-110657143D02*
X154085715Y-109757143D01*
X154428572Y-109757143D01*
X154514286Y-109800000D01*
X154557143Y-109842857D01*
X154600000Y-109928571D01*
X154600000Y-110057143D01*
X154557143Y-110142857D01*
X154514286Y-110185714D01*
X154428572Y-110228571D01*
X154085715Y-110228571D01*
X154942858Y-109842857D02*
X154985715Y-109800000D01*
X155071429Y-109757143D01*
X155285715Y-109757143D01*
X155371429Y-109800000D01*
X155414286Y-109842857D01*
X155457143Y-109928571D01*
X155457143Y-110014286D01*
X155414286Y-110142857D01*
X154900000Y-110657143D01*
X155457143Y-110657143D01*
X142600000Y-99907143D02*
X142300000Y-99478571D01*
X142085715Y-99907143D02*
X142085715Y-99007143D01*
X142428572Y-99007143D01*
X142514286Y-99050000D01*
X142557143Y-99092857D01*
X142600000Y-99178571D01*
X142600000Y-99307143D01*
X142557143Y-99392857D01*
X142514286Y-99435714D01*
X142428572Y-99478571D01*
X142085715Y-99478571D01*
X142900000Y-99007143D02*
X143457143Y-99007143D01*
X143157143Y-99350000D01*
X143285715Y-99350000D01*
X143371429Y-99392857D01*
X143414286Y-99435714D01*
X143457143Y-99521429D01*
X143457143Y-99735714D01*
X143414286Y-99821429D01*
X143371429Y-99864286D01*
X143285715Y-99907143D01*
X143028572Y-99907143D01*
X142942858Y-99864286D01*
X142900000Y-99821429D01*
X155307143Y-108285714D02*
X156035714Y-108285714D01*
X156121429Y-108242857D01*
X156164286Y-108200000D01*
X156207143Y-108114286D01*
X156207143Y-107942857D01*
X156164286Y-107857143D01*
X156121429Y-107814286D01*
X156035714Y-107771429D01*
X155307143Y-107771429D01*
X156207143Y-106871429D02*
X156207143Y-107385714D01*
X156207143Y-107128572D02*
X155307143Y-107128572D01*
X155435714Y-107214286D01*
X155521429Y-107300000D01*
X155564286Y-107385714D01*
X157314286Y-106907143D02*
X157314286Y-107635714D01*
X157357143Y-107721429D01*
X157400000Y-107764286D01*
X157485714Y-107807143D01*
X157657143Y-107807143D01*
X157742857Y-107764286D01*
X157785714Y-107721429D01*
X157828571Y-107635714D01*
X157828571Y-106907143D01*
X158214286Y-106992857D02*
X158257143Y-106950000D01*
X158342857Y-106907143D01*
X158557143Y-106907143D01*
X158642857Y-106950000D01*
X158685714Y-106992857D01*
X158728571Y-107078571D01*
X158728571Y-107164286D01*
X158685714Y-107292857D01*
X158171428Y-107807143D01*
X158728571Y-107807143D01*
X162714286Y-106907143D02*
X162714286Y-107635714D01*
X162757143Y-107721429D01*
X162800000Y-107764286D01*
X162885714Y-107807143D01*
X163057143Y-107807143D01*
X163142857Y-107764286D01*
X163185714Y-107721429D01*
X163228571Y-107635714D01*
X163228571Y-106907143D01*
X163571428Y-106907143D02*
X164128571Y-106907143D01*
X163828571Y-107250000D01*
X163957143Y-107250000D01*
X164042857Y-107292857D01*
X164085714Y-107335714D01*
X164128571Y-107421429D01*
X164128571Y-107635714D01*
X164085714Y-107721429D01*
X164042857Y-107764286D01*
X163957143Y-107807143D01*
X163700000Y-107807143D01*
X163614286Y-107764286D01*
X163571428Y-107721429D01*
M02*
