G04 #@! TF.FileFunction,Copper,L1,Top,Signal*
%FSLAX46Y46*%
G04 Gerber Fmt 4.6, Leading zero omitted, Abs format (unit mm)*
G04 Created by KiCad (PCBNEW 4.0.2-stable) date Sun 24 Apr 2016 07:38:59 PM AKDT*
%MOMM*%
G01*
G04 APERTURE LIST*
%ADD10C,0.100000*%
%ADD11R,0.500000X0.600000*%
%ADD12R,0.750000X0.800000*%
%ADD13R,0.797560X0.797560*%
%ADD14R,2.032000X1.727200*%
%ADD15O,2.032000X1.727200*%
%ADD16R,0.900000X0.500000*%
%ADD17R,1.727200X2.032000*%
%ADD18O,1.727200X2.032000*%
%ADD19R,0.600000X0.400000*%
%ADD20R,0.400000X0.600000*%
%ADD21R,1.000000X1.400000*%
%ADD22R,0.800000X0.800000*%
%ADD23C,1.800000*%
%ADD24C,0.600000*%
%ADD25C,0.350000*%
G04 APERTURE END LIST*
D10*
D11*
X153000000Y-100050000D03*
X153000000Y-98950000D03*
X154500000Y-100050000D03*
X154500000Y-98950000D03*
D12*
X151000000Y-100000000D03*
X151000000Y-98500000D03*
D13*
X146449300Y-98100000D03*
X144950700Y-98100000D03*
D14*
X145000000Y-108040000D03*
D15*
X145000000Y-105500000D03*
X145000000Y-102960000D03*
D16*
X148600000Y-98450000D03*
X148600000Y-99950000D03*
D17*
X152080000Y-114000000D03*
D18*
X149540000Y-114000000D03*
X147000000Y-114000000D03*
X144460000Y-114000000D03*
X141920000Y-114000000D03*
D19*
X155000000Y-113000000D03*
X155000000Y-113900000D03*
D20*
X152950000Y-110500000D03*
X152050000Y-110500000D03*
X142400000Y-98100000D03*
X143300000Y-98100000D03*
D21*
X149650000Y-102960000D03*
X149650000Y-105500000D03*
X149650000Y-108040000D03*
X153350000Y-108040000D03*
X153350000Y-105500000D03*
X153350000Y-102960000D03*
D22*
X151500000Y-102635000D03*
X151500000Y-108365000D03*
D23*
X160540000Y-112000000D03*
X163080000Y-109460000D03*
X163080000Y-114540000D03*
X158000000Y-114540000D03*
X158000000Y-109460000D03*
X160540000Y-102460000D03*
X163080000Y-99920000D03*
X163080000Y-105000000D03*
X158000000Y-105000000D03*
X158000000Y-99920000D03*
D24*
X152000000Y-98500000D03*
X141500000Y-98100000D03*
X153000000Y-98000000D03*
X154500000Y-98000000D03*
X149500000Y-109500000D03*
X148540000Y-108040000D03*
X146750000Y-101250000D03*
X142000000Y-101250000D03*
X147500000Y-102000000D03*
X142449990Y-100449990D03*
D25*
X151000000Y-100000000D02*
X148650000Y-100000000D01*
X148650000Y-100000000D02*
X148600000Y-99950000D01*
X153000000Y-100050000D02*
X151050000Y-100050000D01*
X151050000Y-100050000D02*
X151000000Y-100000000D01*
X153000000Y-100050000D02*
X154500000Y-100050000D01*
X153350000Y-101350000D02*
X153000000Y-101000000D01*
X153000000Y-101000000D02*
X153000000Y-100050000D01*
X153350000Y-102960000D02*
X153350000Y-101350000D01*
X151000000Y-98500000D02*
X152000000Y-98500000D01*
X142400000Y-98100000D02*
X141500000Y-98100000D01*
X153000000Y-98950000D02*
X153000000Y-98000000D01*
X154500000Y-98950000D02*
X154500000Y-98000000D01*
X149650000Y-108040000D02*
X149650000Y-109350000D01*
X149650000Y-109350000D02*
X149500000Y-109500000D01*
X149650000Y-108040000D02*
X148540000Y-108040000D01*
X142500000Y-104094000D02*
X142500000Y-108134000D01*
X142500000Y-108134000D02*
X147000000Y-112634000D01*
X147000000Y-112634000D02*
X147000000Y-114000000D01*
X145000000Y-102960000D02*
X143634000Y-102960000D01*
X143634000Y-102960000D02*
X142500000Y-104094000D01*
X146449300Y-98100000D02*
X146449300Y-98848780D01*
X146449300Y-98848780D02*
X145000000Y-100298080D01*
X145000000Y-100298080D02*
X145000000Y-101746400D01*
X145000000Y-101746400D02*
X145000000Y-102960000D01*
X147300000Y-98100000D02*
X147650000Y-98450000D01*
X147650000Y-98450000D02*
X148600000Y-98450000D01*
X146449300Y-98100000D02*
X147300000Y-98100000D01*
X147000000Y-114000000D02*
X148391010Y-115391010D01*
X148391010Y-115391010D02*
X150108990Y-115391010D01*
X150108990Y-115391010D02*
X150778610Y-114721390D01*
X150778610Y-114721390D02*
X150778610Y-112721390D01*
X150778610Y-112721390D02*
X151500000Y-112000000D01*
X151500000Y-112000000D02*
X153000000Y-112000000D01*
X153000000Y-112000000D02*
X153500000Y-111500000D01*
X153500000Y-111500000D02*
X154000000Y-112000000D01*
X153000000Y-111000000D02*
X153500000Y-111500000D01*
X152950000Y-110500000D02*
X152950000Y-110600000D01*
X152950000Y-110600000D02*
X153000000Y-110650000D01*
X153000000Y-110650000D02*
X153000000Y-111000000D01*
X154000000Y-112000000D02*
X154550000Y-112000000D01*
X154550000Y-112000000D02*
X155000000Y-112450000D01*
X155000000Y-112450000D02*
X155000000Y-113000000D01*
X144950700Y-98100000D02*
X143300000Y-98100000D01*
X145000000Y-105500000D02*
X149650000Y-105500000D01*
X150815000Y-101200000D02*
X150765000Y-101250000D01*
X150765000Y-101250000D02*
X146750000Y-101250000D01*
X141750000Y-101000000D02*
X142000000Y-101250000D01*
X141250000Y-101000000D02*
X141750000Y-101000000D01*
X140550010Y-101699990D02*
X141250000Y-101000000D01*
X140550010Y-109300010D02*
X140550010Y-101699990D01*
X141949990Y-110699990D02*
X140550010Y-109300010D01*
X145761390Y-113011390D02*
X143449990Y-110699990D01*
X143449990Y-110699990D02*
X141949990Y-110699990D01*
X147250000Y-116500000D02*
X145761390Y-115011390D01*
X145761390Y-115011390D02*
X145761390Y-113011390D01*
X150946000Y-116500000D02*
X147250000Y-116500000D01*
X152080000Y-114000000D02*
X152080000Y-115366000D01*
X152080000Y-115366000D02*
X150946000Y-116500000D01*
X151500000Y-102635000D02*
X151500000Y-101885000D01*
X151500000Y-101885000D02*
X150815000Y-101200000D01*
X152080000Y-114000000D02*
X154900000Y-114000000D01*
X154900000Y-114000000D02*
X155000000Y-113900000D01*
X151500000Y-109500000D02*
X151000000Y-110000000D01*
X151000000Y-110000000D02*
X149540000Y-111460000D01*
X152050000Y-110500000D02*
X151500000Y-110500000D01*
X151500000Y-110500000D02*
X151000000Y-110000000D01*
X149540000Y-111460000D02*
X149540000Y-114000000D01*
X151500000Y-108365000D02*
X151500000Y-109500000D01*
X147500000Y-102000000D02*
X148460000Y-102960000D01*
X148460000Y-102960000D02*
X149650000Y-102960000D01*
X140750000Y-100500000D02*
X140972169Y-100500000D01*
X140972169Y-100500000D02*
X141022179Y-100449990D01*
X141022179Y-100449990D02*
X142449990Y-100449990D01*
X140000000Y-101250000D02*
X140750000Y-100500000D01*
X140000000Y-109750000D02*
X140000000Y-101250000D01*
X141500000Y-111250000D02*
X140000000Y-109750000D01*
X143076000Y-111250000D02*
X141500000Y-111250000D01*
X144460000Y-114000000D02*
X144460000Y-112634000D01*
X144460000Y-112634000D02*
X143076000Y-111250000D01*
X155000000Y-109500000D02*
X155000000Y-108580000D01*
X155000000Y-108580000D02*
X154460000Y-108040000D01*
X157500000Y-112000000D02*
X155000000Y-109500000D01*
X160540000Y-112000000D02*
X157500000Y-112000000D01*
X153350000Y-108040000D02*
X154460000Y-108040000D01*
X157540000Y-102460000D02*
X154500000Y-105500000D01*
X154500000Y-105500000D02*
X154200000Y-105500000D01*
X160540000Y-102460000D02*
X157540000Y-102460000D01*
X153350000Y-105500000D02*
X154200000Y-105500000D01*
M02*
