G04 #@! TF.FileFunction,Paste,Top*
%FSLAX46Y46*%
G04 Gerber Fmt 4.6, Leading zero omitted, Abs format (unit mm)*
G04 Created by KiCad (PCBNEW 4.0.2-stable) date Sun Mar 13 22:40:22 2016*
%MOMM*%
G01*
G04 APERTURE LIST*
%ADD10C,0.100000*%
%ADD11R,0.500000X0.600000*%
%ADD12R,1.250000X1.000000*%
%ADD13R,0.600000X0.500000*%
%ADD14R,0.400000X0.600000*%
%ADD15R,0.398780X0.749300*%
%ADD16R,0.250000X0.700000*%
%ADD17R,0.714000X0.498000*%
G04 APERTURE END LIST*
D10*
D11*
X148400000Y-101350000D03*
X148400000Y-100250000D03*
X156700000Y-105000000D03*
X156700000Y-106100000D03*
D12*
X154900000Y-110300000D03*
X154900000Y-108300000D03*
D11*
X155000000Y-105000000D03*
X155000000Y-106100000D03*
D13*
X152100000Y-104000000D03*
X153200000Y-104000000D03*
D12*
X160900000Y-103300000D03*
X160900000Y-105300000D03*
D11*
X157500000Y-109100000D03*
X157500000Y-108000000D03*
X148600000Y-109700000D03*
X148600000Y-108600000D03*
X158750000Y-113750000D03*
X158750000Y-112650000D03*
D12*
X154300000Y-98400000D03*
X154300000Y-96400000D03*
D11*
X162875000Y-113850000D03*
X162875000Y-112750000D03*
D14*
X153300000Y-106200000D03*
X152400000Y-106200000D03*
X151100000Y-106200000D03*
X150200000Y-106200000D03*
X161250000Y-112750000D03*
X160350000Y-112750000D03*
D15*
X149050240Y-104250040D03*
X148400000Y-104250040D03*
X147749760Y-104250040D03*
X147749760Y-106149960D03*
X148400000Y-106149960D03*
X149050240Y-106149960D03*
D16*
X160895000Y-107965000D03*
X160395000Y-107965000D03*
X159895000Y-107965000D03*
X159395000Y-107965000D03*
X159395000Y-110765000D03*
X159895000Y-110765000D03*
X160395000Y-110765000D03*
X160895000Y-110765000D03*
D17*
X159550000Y-109780000D03*
X160740000Y-109780000D03*
X159550000Y-108950000D03*
X160740000Y-108950000D03*
M02*
