G04 #@! TF.FileFunction,Paste,Top*
%FSLAX46Y46*%
G04 Gerber Fmt 4.6, Leading zero omitted, Abs format (unit mm)*
G04 Created by KiCad (PCBNEW 4.0.2-stable) date Tue Mar  8 23:24:32 2016*
%MOMM*%
G01*
G04 APERTURE LIST*
%ADD10C,0.100000*%
%ADD11R,0.500000X0.600000*%
%ADD12R,0.600000X0.500000*%
%ADD13R,1.250000X1.000000*%
%ADD14R,1.000000X1.250000*%
%ADD15R,0.400000X0.600000*%
%ADD16R,0.600000X0.400000*%
%ADD17R,0.760000X1.650000*%
%ADD18R,0.850000X0.300000*%
%ADD19R,0.300000X0.850000*%
%ADD20R,0.780000X0.780000*%
%ADD21R,0.700000X0.250000*%
%ADD22R,0.498000X0.714000*%
%ADD23R,0.600000X1.550000*%
%ADD24R,1.450000X0.450000*%
%ADD25R,0.450000X1.450000*%
%ADD26R,1.060000X0.650000*%
%ADD27R,0.797560X0.797560*%
G04 APERTURE END LIST*
D10*
D11*
X83500000Y-104550000D03*
X83500000Y-103450000D03*
D12*
X80950000Y-114000000D03*
X82050000Y-114000000D03*
D11*
X79750000Y-119700000D03*
X79750000Y-120800000D03*
D12*
X80950000Y-116000000D03*
X82050000Y-116000000D03*
D11*
X79750000Y-123300000D03*
X79750000Y-122200000D03*
X85000000Y-114050000D03*
X85000000Y-112950000D03*
X84500000Y-124450000D03*
X84500000Y-125550000D03*
X83000000Y-124450000D03*
X83000000Y-125550000D03*
X87500000Y-122550000D03*
X87500000Y-121450000D03*
X89000000Y-122550000D03*
X89000000Y-121450000D03*
X100500000Y-107700000D03*
X100500000Y-108800000D03*
X83500000Y-133450000D03*
X83500000Y-134550000D03*
D13*
X98750000Y-112500000D03*
X98750000Y-110500000D03*
D11*
X99000000Y-107700000D03*
X99000000Y-108800000D03*
D14*
X101500000Y-105500000D03*
X103500000Y-105500000D03*
D11*
X100750000Y-111800000D03*
X100750000Y-110700000D03*
X107000000Y-111300000D03*
X107000000Y-110200000D03*
D14*
X105500000Y-105500000D03*
X107500000Y-105500000D03*
D11*
X108500000Y-108800000D03*
X108500000Y-107700000D03*
D15*
X86450000Y-116500000D03*
X85550000Y-116500000D03*
D16*
X107000000Y-107800000D03*
X107000000Y-108700000D03*
D17*
X83500000Y-106910000D03*
X84770000Y-106910000D03*
X84770000Y-110090000D03*
X83500000Y-110090000D03*
X82230000Y-110090000D03*
X82230000Y-106910000D03*
D18*
X81800000Y-118750000D03*
X81800000Y-119250000D03*
X81800000Y-119750000D03*
X81800000Y-120250000D03*
X81800000Y-120750000D03*
X81800000Y-121250000D03*
D19*
X82500000Y-121950000D03*
X83000000Y-121950000D03*
X83500000Y-121950000D03*
X84000000Y-121950000D03*
X84500000Y-121950000D03*
X85000000Y-121950000D03*
D18*
X85700000Y-121250000D03*
X85700000Y-120750000D03*
X85700000Y-120250000D03*
X85700000Y-119750000D03*
X85700000Y-119250000D03*
X85700000Y-118750000D03*
D19*
X85000000Y-118050000D03*
X84500000Y-118050000D03*
X84000000Y-118050000D03*
X83500000Y-118050000D03*
X83000000Y-118050000D03*
X82500000Y-118050000D03*
D20*
X84400000Y-120650000D03*
X84400000Y-119350000D03*
X83100000Y-120650000D03*
X83100000Y-119350000D03*
D17*
X83500000Y-131090000D03*
X82230000Y-131090000D03*
X82230000Y-127910000D03*
X83500000Y-127910000D03*
X84770000Y-127910000D03*
X84770000Y-131090000D03*
D21*
X102350000Y-108500000D03*
X102350000Y-109000000D03*
X102350000Y-109500000D03*
X102350000Y-110000000D03*
X105150000Y-110000000D03*
X105150000Y-109500000D03*
X105150000Y-109000000D03*
X105150000Y-108500000D03*
D22*
X104165000Y-109845000D03*
X104165000Y-108655000D03*
X103335000Y-109845000D03*
X103335000Y-108655000D03*
D12*
X88800000Y-135000000D03*
X87700000Y-135000000D03*
D11*
X95750000Y-109700000D03*
X95750000Y-110800000D03*
D12*
X88950000Y-138250000D03*
X90050000Y-138250000D03*
D11*
X92500000Y-106700000D03*
X92500000Y-107800000D03*
X92750000Y-136700000D03*
X92750000Y-137800000D03*
X91750000Y-142300000D03*
X91750000Y-141200000D03*
X89000000Y-104800000D03*
X89000000Y-103700000D03*
D12*
X95300000Y-104750000D03*
X94200000Y-104750000D03*
D11*
X98500000Y-136950000D03*
X98500000Y-138050000D03*
X92000000Y-95450000D03*
X92000000Y-96550000D03*
D15*
X88950000Y-133250000D03*
X88050000Y-133250000D03*
D16*
X96250000Y-107700000D03*
X96250000Y-106800000D03*
D15*
X90200000Y-136750000D03*
X89300000Y-136750000D03*
X93800000Y-107750000D03*
X94700000Y-107750000D03*
D16*
X93500000Y-134700000D03*
X93500000Y-133800000D03*
X89250000Y-106800000D03*
X89250000Y-107700000D03*
D15*
X94950000Y-138000000D03*
X94050000Y-138000000D03*
D16*
X90500000Y-104700000D03*
X90500000Y-103800000D03*
D15*
X97200000Y-138000000D03*
X96300000Y-138000000D03*
D16*
X90000000Y-100550000D03*
X90000000Y-101450000D03*
X91750000Y-133800000D03*
X91750000Y-134700000D03*
X91000000Y-107700000D03*
X91000000Y-106800000D03*
D23*
X92905000Y-125800000D03*
X91635000Y-125800000D03*
X90365000Y-125800000D03*
X89095000Y-125800000D03*
X89095000Y-131200000D03*
X90365000Y-131200000D03*
X91635000Y-131200000D03*
X92905000Y-131200000D03*
X89845000Y-115200000D03*
X91115000Y-115200000D03*
X92385000Y-115200000D03*
X93655000Y-115200000D03*
X93655000Y-109800000D03*
X92385000Y-109800000D03*
X91115000Y-109800000D03*
X89845000Y-109800000D03*
D24*
X93800000Y-139775000D03*
X93800000Y-140425000D03*
X93800000Y-141075000D03*
X93800000Y-141725000D03*
X98200000Y-141725000D03*
X98200000Y-141075000D03*
X98200000Y-140425000D03*
X98200000Y-139775000D03*
D25*
X92025000Y-102700000D03*
X92675000Y-102700000D03*
X93325000Y-102700000D03*
X93975000Y-102700000D03*
X93975000Y-98300000D03*
X93325000Y-98300000D03*
X92675000Y-98300000D03*
X92025000Y-98300000D03*
D12*
X95885000Y-128600000D03*
X96985000Y-128600000D03*
D11*
X95635000Y-134950000D03*
X95635000Y-133850000D03*
X83500000Y-114050000D03*
X83500000Y-112950000D03*
D15*
X96185000Y-130200000D03*
X97085000Y-130200000D03*
D16*
X101635000Y-131750000D03*
X101635000Y-132650000D03*
X99635000Y-129350000D03*
X99635000Y-130250000D03*
D26*
X99535000Y-133750000D03*
X99535000Y-132800000D03*
X99535000Y-131850000D03*
X97335000Y-131850000D03*
X97335000Y-133750000D03*
D27*
X95135700Y-94700000D03*
X96634300Y-94700000D03*
D15*
X99385000Y-94700000D03*
X98485000Y-94700000D03*
M02*
