G04 #@! TF.FileFunction,Paste,Top*
%FSLAX46Y46*%
G04 Gerber Fmt 4.6, Leading zero omitted, Abs format (unit mm)*
G04 Created by KiCad (PCBNEW 4.0.2-stable) date Sun Mar 13 21:40:34 2016*
%MOMM*%
G01*
G04 APERTURE LIST*
%ADD10C,0.100000*%
%ADD11R,0.500000X0.600000*%
%ADD12R,0.600000X0.500000*%
%ADD13R,0.600000X0.400000*%
%ADD14R,0.400000X0.600000*%
%ADD15R,0.350000X0.800000*%
%ADD16R,0.800000X0.350000*%
%ADD17R,0.750000X0.750000*%
G04 APERTURE END LIST*
D10*
D11*
X153200000Y-107900000D03*
X153200000Y-109000000D03*
D12*
X149650000Y-108000000D03*
X150750000Y-108000000D03*
X149650000Y-109600000D03*
X150750000Y-109600000D03*
D11*
X145600000Y-106050000D03*
X145600000Y-107150000D03*
X144200000Y-106050000D03*
X144200000Y-107150000D03*
D12*
X142750000Y-105000000D03*
X141650000Y-105000000D03*
X142750000Y-103800000D03*
X141650000Y-103800000D03*
X149650000Y-100200000D03*
X150750000Y-100200000D03*
D11*
X153000000Y-112800000D03*
X153000000Y-111700000D03*
D12*
X149650000Y-98600000D03*
X150750000Y-98600000D03*
D11*
X151000000Y-111700000D03*
X151000000Y-112800000D03*
D13*
X140200000Y-104950000D03*
X140200000Y-105850000D03*
X135800000Y-103650000D03*
X135800000Y-102750000D03*
X138000000Y-102750000D03*
X138000000Y-103650000D03*
D14*
X136650000Y-105000000D03*
X135750000Y-105000000D03*
X138850000Y-105000000D03*
X137950000Y-105000000D03*
D13*
X135800000Y-107250000D03*
X135800000Y-106350000D03*
X148000000Y-98650000D03*
X148000000Y-97750000D03*
D14*
X147150000Y-100000000D03*
X148050000Y-100000000D03*
D13*
X148200000Y-108650000D03*
X148200000Y-107750000D03*
X148000000Y-95750000D03*
X148000000Y-96650000D03*
X153200000Y-104450000D03*
X153200000Y-103550000D03*
D15*
X148225000Y-106200000D03*
X148875000Y-106200000D03*
X149525000Y-106200000D03*
X150175000Y-106200000D03*
D16*
X151200000Y-105175000D03*
X151200000Y-104525000D03*
X151200000Y-103875000D03*
X151200000Y-103225000D03*
D15*
X150175000Y-102200000D03*
X149525000Y-102200000D03*
X148875000Y-102200000D03*
X148225000Y-102200000D03*
D16*
X147200000Y-103225000D03*
X147200000Y-103875000D03*
X147200000Y-104525000D03*
X147200000Y-105175000D03*
D17*
X149825000Y-103575000D03*
X148575000Y-103575000D03*
X149825000Y-104825000D03*
X148575000Y-104825000D03*
M02*
