G04 #@! TF.FileFunction,Legend,Top*
%FSLAX46Y46*%
G04 Gerber Fmt 4.6, Leading zero omitted, Abs format (unit mm)*
G04 Created by KiCad (PCBNEW 4.0.2-stable) date Mon Jul  4 16:25:18 2016*
%MOMM*%
G01*
G04 APERTURE LIST*
%ADD10C,0.100000*%
%ADD11C,0.225000*%
G04 APERTURE END LIST*
D10*
D11*
X127321428Y-96407143D02*
X126807143Y-96407143D01*
X127064285Y-96407143D02*
X127064285Y-95507143D01*
X126978571Y-95635714D01*
X126892857Y-95721429D01*
X126807143Y-95764286D01*
X128392857Y-96407143D02*
X128392857Y-95807143D01*
X128392857Y-95892857D02*
X128435714Y-95850000D01*
X128521428Y-95807143D01*
X128650000Y-95807143D01*
X128735714Y-95850000D01*
X128778571Y-95935714D01*
X128778571Y-96407143D01*
X128778571Y-95935714D02*
X128821428Y-95850000D01*
X128907142Y-95807143D01*
X129035714Y-95807143D01*
X129121428Y-95850000D01*
X129164285Y-95935714D01*
X129164285Y-96407143D01*
X129592857Y-96407143D02*
X129592857Y-95807143D01*
X129592857Y-95892857D02*
X129635714Y-95850000D01*
X129721428Y-95807143D01*
X129850000Y-95807143D01*
X129935714Y-95850000D01*
X129978571Y-95935714D01*
X129978571Y-96407143D01*
X129978571Y-95935714D02*
X130021428Y-95850000D01*
X130107142Y-95807143D01*
X130235714Y-95807143D01*
X130321428Y-95850000D01*
X130364285Y-95935714D01*
X130364285Y-96407143D01*
X131349999Y-95807143D02*
X131692856Y-95807143D01*
X131478571Y-95507143D02*
X131478571Y-96278571D01*
X131521428Y-96364286D01*
X131607142Y-96407143D01*
X131692856Y-96407143D01*
X131992857Y-96407143D02*
X131992857Y-95807143D01*
X131992857Y-95978571D02*
X132035714Y-95892857D01*
X132078571Y-95850000D01*
X132164285Y-95807143D01*
X132250000Y-95807143D01*
X132935714Y-96407143D02*
X132935714Y-95935714D01*
X132892857Y-95850000D01*
X132807143Y-95807143D01*
X132635714Y-95807143D01*
X132550000Y-95850000D01*
X132935714Y-96364286D02*
X132850000Y-96407143D01*
X132635714Y-96407143D01*
X132550000Y-96364286D01*
X132507143Y-96278571D01*
X132507143Y-96192857D01*
X132550000Y-96107143D01*
X132635714Y-96064286D01*
X132850000Y-96064286D01*
X132935714Y-96021429D01*
X133750000Y-96364286D02*
X133664286Y-96407143D01*
X133492857Y-96407143D01*
X133407143Y-96364286D01*
X133364286Y-96321429D01*
X133321429Y-96235714D01*
X133321429Y-95978571D01*
X133364286Y-95892857D01*
X133407143Y-95850000D01*
X133492857Y-95807143D01*
X133664286Y-95807143D01*
X133750000Y-95850000D01*
X134478572Y-96364286D02*
X134392858Y-96407143D01*
X134221429Y-96407143D01*
X134135715Y-96364286D01*
X134092858Y-96278571D01*
X134092858Y-95935714D01*
X134135715Y-95850000D01*
X134221429Y-95807143D01*
X134392858Y-95807143D01*
X134478572Y-95850000D01*
X134521429Y-95935714D01*
X134521429Y-96021429D01*
X134092858Y-96107143D01*
X134950001Y-96364286D02*
X134950001Y-96407143D01*
X134907144Y-96492857D01*
X134864287Y-96535714D01*
X136021429Y-96321429D02*
X136064286Y-96364286D01*
X136021429Y-96407143D01*
X135978572Y-96364286D01*
X136021429Y-96321429D01*
X136021429Y-96407143D01*
X136407143Y-95592857D02*
X136450000Y-95550000D01*
X136535714Y-95507143D01*
X136750000Y-95507143D01*
X136835714Y-95550000D01*
X136878571Y-95592857D01*
X136921428Y-95678571D01*
X136921428Y-95764286D01*
X136878571Y-95892857D01*
X136364285Y-96407143D01*
X136921428Y-96407143D01*
X137992857Y-96407143D02*
X137992857Y-95807143D01*
X137992857Y-95892857D02*
X138035714Y-95850000D01*
X138121428Y-95807143D01*
X138250000Y-95807143D01*
X138335714Y-95850000D01*
X138378571Y-95935714D01*
X138378571Y-96407143D01*
X138378571Y-95935714D02*
X138421428Y-95850000D01*
X138507142Y-95807143D01*
X138635714Y-95807143D01*
X138721428Y-95850000D01*
X138764285Y-95935714D01*
X138764285Y-96407143D01*
X139192857Y-96407143D02*
X139192857Y-95807143D01*
X139192857Y-95892857D02*
X139235714Y-95850000D01*
X139321428Y-95807143D01*
X139450000Y-95807143D01*
X139535714Y-95850000D01*
X139578571Y-95935714D01*
X139578571Y-96407143D01*
X139578571Y-95935714D02*
X139621428Y-95850000D01*
X139707142Y-95807143D01*
X139835714Y-95807143D01*
X139921428Y-95850000D01*
X139964285Y-95935714D01*
X139964285Y-96407143D01*
X141464285Y-95807143D02*
X141464285Y-96535714D01*
X141421428Y-96621429D01*
X141378571Y-96664286D01*
X141292856Y-96707143D01*
X141164285Y-96707143D01*
X141078571Y-96664286D01*
X141464285Y-96364286D02*
X141378571Y-96407143D01*
X141207142Y-96407143D01*
X141121428Y-96364286D01*
X141078571Y-96321429D01*
X141035714Y-96235714D01*
X141035714Y-95978571D01*
X141078571Y-95892857D01*
X141121428Y-95850000D01*
X141207142Y-95807143D01*
X141378571Y-95807143D01*
X141464285Y-95850000D01*
X141892857Y-96407143D02*
X141892857Y-95807143D01*
X141892857Y-95978571D02*
X141935714Y-95892857D01*
X141978571Y-95850000D01*
X142064285Y-95807143D01*
X142150000Y-95807143D01*
X142578571Y-96407143D02*
X142492857Y-96364286D01*
X142450000Y-96321429D01*
X142407143Y-96235714D01*
X142407143Y-95978571D01*
X142450000Y-95892857D01*
X142492857Y-95850000D01*
X142578571Y-95807143D01*
X142707143Y-95807143D01*
X142792857Y-95850000D01*
X142835714Y-95892857D01*
X142878571Y-95978571D01*
X142878571Y-96235714D01*
X142835714Y-96321429D01*
X142792857Y-96364286D01*
X142707143Y-96407143D01*
X142578571Y-96407143D01*
X143650000Y-95807143D02*
X143650000Y-96407143D01*
X143264286Y-95807143D02*
X143264286Y-96278571D01*
X143307143Y-96364286D01*
X143392857Y-96407143D01*
X143521429Y-96407143D01*
X143607143Y-96364286D01*
X143650000Y-96321429D01*
X144078572Y-95807143D02*
X144078572Y-96407143D01*
X144078572Y-95892857D02*
X144121429Y-95850000D01*
X144207143Y-95807143D01*
X144335715Y-95807143D01*
X144421429Y-95850000D01*
X144464286Y-95935714D01*
X144464286Y-96407143D01*
X145278572Y-96407143D02*
X145278572Y-95507143D01*
X145278572Y-96364286D02*
X145192858Y-96407143D01*
X145021429Y-96407143D01*
X144935715Y-96364286D01*
X144892858Y-96321429D01*
X144850001Y-96235714D01*
X144850001Y-95978571D01*
X144892858Y-95892857D01*
X144935715Y-95850000D01*
X145021429Y-95807143D01*
X145192858Y-95807143D01*
X145278572Y-95850000D01*
X146350001Y-96364286D02*
X146435715Y-96407143D01*
X146607143Y-96407143D01*
X146692858Y-96364286D01*
X146735715Y-96278571D01*
X146735715Y-96235714D01*
X146692858Y-96150000D01*
X146607143Y-96107143D01*
X146478572Y-96107143D01*
X146392858Y-96064286D01*
X146350001Y-95978571D01*
X146350001Y-95935714D01*
X146392858Y-95850000D01*
X146478572Y-95807143D01*
X146607143Y-95807143D01*
X146692858Y-95850000D01*
X147121429Y-95807143D02*
X147121429Y-96707143D01*
X147121429Y-95850000D02*
X147207143Y-95807143D01*
X147378572Y-95807143D01*
X147464286Y-95850000D01*
X147507143Y-95892857D01*
X147550000Y-95978571D01*
X147550000Y-96235714D01*
X147507143Y-96321429D01*
X147464286Y-96364286D01*
X147378572Y-96407143D01*
X147207143Y-96407143D01*
X147121429Y-96364286D01*
X148321429Y-96407143D02*
X148321429Y-95935714D01*
X148278572Y-95850000D01*
X148192858Y-95807143D01*
X148021429Y-95807143D01*
X147935715Y-95850000D01*
X148321429Y-96364286D02*
X148235715Y-96407143D01*
X148021429Y-96407143D01*
X147935715Y-96364286D01*
X147892858Y-96278571D01*
X147892858Y-96192857D01*
X147935715Y-96107143D01*
X148021429Y-96064286D01*
X148235715Y-96064286D01*
X148321429Y-96021429D01*
X149135715Y-96364286D02*
X149050001Y-96407143D01*
X148878572Y-96407143D01*
X148792858Y-96364286D01*
X148750001Y-96321429D01*
X148707144Y-96235714D01*
X148707144Y-95978571D01*
X148750001Y-95892857D01*
X148792858Y-95850000D01*
X148878572Y-95807143D01*
X149050001Y-95807143D01*
X149135715Y-95850000D01*
X149521430Y-96407143D02*
X149521430Y-95807143D01*
X149521430Y-95507143D02*
X149478573Y-95550000D01*
X149521430Y-95592857D01*
X149564287Y-95550000D01*
X149521430Y-95507143D01*
X149521430Y-95592857D01*
X149950001Y-95807143D02*
X149950001Y-96407143D01*
X149950001Y-95892857D02*
X149992858Y-95850000D01*
X150078572Y-95807143D01*
X150207144Y-95807143D01*
X150292858Y-95850000D01*
X150335715Y-95935714D01*
X150335715Y-96407143D01*
X151150001Y-95807143D02*
X151150001Y-96535714D01*
X151107144Y-96621429D01*
X151064287Y-96664286D01*
X150978572Y-96707143D01*
X150850001Y-96707143D01*
X150764287Y-96664286D01*
X151150001Y-96364286D02*
X151064287Y-96407143D01*
X150892858Y-96407143D01*
X150807144Y-96364286D01*
X150764287Y-96321429D01*
X150721430Y-96235714D01*
X150721430Y-95978571D01*
X150764287Y-95892857D01*
X150807144Y-95850000D01*
X150892858Y-95807143D01*
X151064287Y-95807143D01*
X151150001Y-95850000D01*
X128907141Y-84364286D02*
X128821427Y-84407143D01*
X128649998Y-84407143D01*
X128564284Y-84364286D01*
X128521427Y-84321429D01*
X128478570Y-84235714D01*
X128478570Y-83978571D01*
X128521427Y-83892857D01*
X128564284Y-83850000D01*
X128649998Y-83807143D01*
X128821427Y-83807143D01*
X128907141Y-83850000D01*
X129421427Y-84407143D02*
X129335713Y-84364286D01*
X129292856Y-84321429D01*
X129249999Y-84235714D01*
X129249999Y-83978571D01*
X129292856Y-83892857D01*
X129335713Y-83850000D01*
X129421427Y-83807143D01*
X129549999Y-83807143D01*
X129635713Y-83850000D01*
X129678570Y-83892857D01*
X129721427Y-83978571D01*
X129721427Y-84235714D01*
X129678570Y-84321429D01*
X129635713Y-84364286D01*
X129549999Y-84407143D01*
X129421427Y-84407143D01*
X130107142Y-83807143D02*
X130107142Y-84707143D01*
X130107142Y-83850000D02*
X130192856Y-83807143D01*
X130364285Y-83807143D01*
X130449999Y-83850000D01*
X130492856Y-83892857D01*
X130535713Y-83978571D01*
X130535713Y-84235714D01*
X130492856Y-84321429D01*
X130449999Y-84364286D01*
X130364285Y-84407143D01*
X130192856Y-84407143D01*
X130107142Y-84364286D01*
X131049999Y-84407143D02*
X130964285Y-84364286D01*
X130921428Y-84278571D01*
X130921428Y-83507143D01*
X131778571Y-84407143D02*
X131778571Y-83935714D01*
X131735714Y-83850000D01*
X131650000Y-83807143D01*
X131478571Y-83807143D01*
X131392857Y-83850000D01*
X131778571Y-84364286D02*
X131692857Y-84407143D01*
X131478571Y-84407143D01*
X131392857Y-84364286D01*
X131350000Y-84278571D01*
X131350000Y-84192857D01*
X131392857Y-84107143D01*
X131478571Y-84064286D01*
X131692857Y-84064286D01*
X131778571Y-84021429D01*
X132207143Y-83807143D02*
X132207143Y-84407143D01*
X132207143Y-83892857D02*
X132250000Y-83850000D01*
X132335714Y-83807143D01*
X132464286Y-83807143D01*
X132550000Y-83850000D01*
X132592857Y-83935714D01*
X132592857Y-84407143D01*
X133407143Y-84407143D02*
X133407143Y-83935714D01*
X133364286Y-83850000D01*
X133278572Y-83807143D01*
X133107143Y-83807143D01*
X133021429Y-83850000D01*
X133407143Y-84364286D02*
X133321429Y-84407143D01*
X133107143Y-84407143D01*
X133021429Y-84364286D01*
X132978572Y-84278571D01*
X132978572Y-84192857D01*
X133021429Y-84107143D01*
X133107143Y-84064286D01*
X133321429Y-84064286D01*
X133407143Y-84021429D01*
X133835715Y-84407143D02*
X133835715Y-83807143D01*
X133835715Y-83978571D02*
X133878572Y-83892857D01*
X133921429Y-83850000D01*
X134007143Y-83807143D01*
X134092858Y-83807143D01*
X134992857Y-83807143D02*
X135164286Y-84407143D01*
X135335715Y-83978571D01*
X135507143Y-84407143D01*
X135678572Y-83807143D01*
X136407143Y-84407143D02*
X136407143Y-83935714D01*
X136364286Y-83850000D01*
X136278572Y-83807143D01*
X136107143Y-83807143D01*
X136021429Y-83850000D01*
X136407143Y-84364286D02*
X136321429Y-84407143D01*
X136107143Y-84407143D01*
X136021429Y-84364286D01*
X135978572Y-84278571D01*
X135978572Y-84192857D01*
X136021429Y-84107143D01*
X136107143Y-84064286D01*
X136321429Y-84064286D01*
X136407143Y-84021429D01*
X136750000Y-83807143D02*
X136964286Y-84407143D01*
X137178572Y-83807143D01*
X137864286Y-84364286D02*
X137778572Y-84407143D01*
X137607143Y-84407143D01*
X137521429Y-84364286D01*
X137478572Y-84278571D01*
X137478572Y-83935714D01*
X137521429Y-83850000D01*
X137607143Y-83807143D01*
X137778572Y-83807143D01*
X137864286Y-83850000D01*
X137907143Y-83935714D01*
X137907143Y-84021429D01*
X137478572Y-84107143D01*
X138678572Y-83807143D02*
X138678572Y-84535714D01*
X138635715Y-84621429D01*
X138592858Y-84664286D01*
X138507143Y-84707143D01*
X138378572Y-84707143D01*
X138292858Y-84664286D01*
X138678572Y-84364286D02*
X138592858Y-84407143D01*
X138421429Y-84407143D01*
X138335715Y-84364286D01*
X138292858Y-84321429D01*
X138250001Y-84235714D01*
X138250001Y-83978571D01*
X138292858Y-83892857D01*
X138335715Y-83850000D01*
X138421429Y-83807143D01*
X138592858Y-83807143D01*
X138678572Y-83850000D01*
X139492858Y-83807143D02*
X139492858Y-84407143D01*
X139107144Y-83807143D02*
X139107144Y-84278571D01*
X139150001Y-84364286D01*
X139235715Y-84407143D01*
X139364287Y-84407143D01*
X139450001Y-84364286D01*
X139492858Y-84321429D01*
X139921430Y-84407143D02*
X139921430Y-83807143D01*
X139921430Y-83507143D02*
X139878573Y-83550000D01*
X139921430Y-83592857D01*
X139964287Y-83550000D01*
X139921430Y-83507143D01*
X139921430Y-83592857D01*
X140735715Y-84407143D02*
X140735715Y-83507143D01*
X140735715Y-84364286D02*
X140650001Y-84407143D01*
X140478572Y-84407143D01*
X140392858Y-84364286D01*
X140350001Y-84321429D01*
X140307144Y-84235714D01*
X140307144Y-83978571D01*
X140350001Y-83892857D01*
X140392858Y-83850000D01*
X140478572Y-83807143D01*
X140650001Y-83807143D01*
X140735715Y-83850000D01*
X141507144Y-84364286D02*
X141421430Y-84407143D01*
X141250001Y-84407143D01*
X141164287Y-84364286D01*
X141121430Y-84278571D01*
X141121430Y-83935714D01*
X141164287Y-83850000D01*
X141250001Y-83807143D01*
X141421430Y-83807143D01*
X141507144Y-83850000D01*
X141550001Y-83935714D01*
X141550001Y-84021429D01*
X141121430Y-84107143D01*
X142492858Y-83807143D02*
X142835715Y-83807143D01*
X142621430Y-83507143D02*
X142621430Y-84278571D01*
X142664287Y-84364286D01*
X142750001Y-84407143D01*
X142835715Y-84407143D01*
X143478573Y-84364286D02*
X143392859Y-84407143D01*
X143221430Y-84407143D01*
X143135716Y-84364286D01*
X143092859Y-84278571D01*
X143092859Y-83935714D01*
X143135716Y-83850000D01*
X143221430Y-83807143D01*
X143392859Y-83807143D01*
X143478573Y-83850000D01*
X143521430Y-83935714D01*
X143521430Y-84021429D01*
X143092859Y-84107143D01*
X143864288Y-84364286D02*
X143950002Y-84407143D01*
X144121430Y-84407143D01*
X144207145Y-84364286D01*
X144250002Y-84278571D01*
X144250002Y-84235714D01*
X144207145Y-84150000D01*
X144121430Y-84107143D01*
X143992859Y-84107143D01*
X143907145Y-84064286D01*
X143864288Y-83978571D01*
X143864288Y-83935714D01*
X143907145Y-83850000D01*
X143992859Y-83807143D01*
X144121430Y-83807143D01*
X144207145Y-83850000D01*
X144507144Y-83807143D02*
X144850001Y-83807143D01*
X144635716Y-83507143D02*
X144635716Y-84278571D01*
X144678573Y-84364286D01*
X144764287Y-84407143D01*
X144850001Y-84407143D01*
X145192859Y-84364286D02*
X145192859Y-84407143D01*
X145150002Y-84492857D01*
X145107145Y-84535714D01*
X146135715Y-83807143D02*
X146478572Y-83807143D01*
X146264287Y-84407143D02*
X146264287Y-83635714D01*
X146307144Y-83550000D01*
X146392858Y-83507143D01*
X146478572Y-83507143D01*
X146778573Y-84407143D02*
X146778573Y-83807143D01*
X146778573Y-83978571D02*
X146821430Y-83892857D01*
X146864287Y-83850000D01*
X146950001Y-83807143D01*
X147035716Y-83807143D01*
X147721430Y-83807143D02*
X147721430Y-84407143D01*
X147507144Y-83464286D02*
X147292859Y-84107143D01*
X147850001Y-84107143D01*
X148364287Y-83507143D02*
X148450002Y-83507143D01*
X148535716Y-83550000D01*
X148578573Y-83592857D01*
X148621430Y-83678571D01*
X148664287Y-83850000D01*
X148664287Y-84064286D01*
X148621430Y-84235714D01*
X148578573Y-84321429D01*
X148535716Y-84364286D01*
X148450002Y-84407143D01*
X148364287Y-84407143D01*
X148278573Y-84364286D01*
X148235716Y-84321429D01*
X148192859Y-84235714D01*
X148150002Y-84064286D01*
X148150002Y-83850000D01*
X148192859Y-83678571D01*
X148235716Y-83592857D01*
X148278573Y-83550000D01*
X148364287Y-83507143D01*
X149178573Y-83892857D02*
X149092859Y-83850000D01*
X149050002Y-83807143D01*
X149007145Y-83721429D01*
X149007145Y-83678571D01*
X149050002Y-83592857D01*
X149092859Y-83550000D01*
X149178573Y-83507143D01*
X149350002Y-83507143D01*
X149435716Y-83550000D01*
X149478573Y-83592857D01*
X149521430Y-83678571D01*
X149521430Y-83721429D01*
X149478573Y-83807143D01*
X149435716Y-83850000D01*
X149350002Y-83892857D01*
X149178573Y-83892857D01*
X149092859Y-83935714D01*
X149050002Y-83978571D01*
X149007145Y-84064286D01*
X149007145Y-84235714D01*
X149050002Y-84321429D01*
X149092859Y-84364286D01*
X149178573Y-84407143D01*
X149350002Y-84407143D01*
X149435716Y-84364286D01*
X149478573Y-84321429D01*
X149521430Y-84235714D01*
X149521430Y-84064286D01*
X149478573Y-83978571D01*
X149435716Y-83935714D01*
X149350002Y-83892857D01*
M02*
