<?xml version="1.0" standalone="no"?>
 <!DOCTYPE svg PUBLIC "-//W3C//DTD SVG 1.1//EN" 
 "http://www.w3.org/Graphics/SVG/1.1/DTD/svg11.dtd"> 
<svg xmlns="http://www.w3.org/2000/svg" version="1.1" 
    width="8.48614cm" height="6.00202cm" viewBox="0 0 33410 23630 ">
<title>SVG Picture created as vna_r1_synth-B.Fab.svg date 2018/05/20 15:45:41 </title>
  <desc>Picture generated by PCBNEW </desc>
<g style="fill:#000000; fill-opacity:1;stroke:#000000; stroke-opacity:1;
stroke-linecap:round; stroke-linejoin:round; "
 transform="translate(0 0) scale(1 1)">
</g>
<g style="fill:#840000; fill-opacity:0.0; 
stroke:#840000; stroke-width:-0.000393701; stroke-opacity:1; 
stroke-linecap:round; stroke-linejoin:round;">
</g>
<g style="fill:#840000; fill-opacity:0.0; 
stroke:#840000; stroke-width:59.0551; stroke-opacity:1; 
stroke-linecap:round; stroke-linejoin:round;">
<path d="M24970 5128
L25127 5128
" />
<path d="M25049 5128
L25049 4853
L25075 4892
L25101 4918
L25127 4931
" />
<path d="M24799 4853
L24773 4853
L24747 4866
L24734 4879
L24721 4905
L24708 4958
L24708 5023
L24721 5076
L24734 5102
L24747 5115
L24773 5128
L24799 5128
L24826 5115
L24839 5102
L24852 5076
L24865 5023
L24865 4958
L24852 4905
L24839 4879
L24826 4866
L24799 4853
" />
<path d="M24537 4853
L24511 4853
L24484 4866
L24471 4879
L24458 4905
L24445 4958
L24445 5023
L24458 5076
L24471 5102
L24484 5115
L24511 5128
L24537 5128
L24563 5115
L24576 5102
L24589 5076
L24603 5023
L24603 4958
L24589 4905
L24576 4879
L24563 4866
L24537 4853
" />
<path d="M24117 4944
L24117 5128
" />
<path d="M24117 4971
L24104 4958
L24078 4944
L24038 4944
L24012 4958
L23999 4984
L23999 5128
" />
<path d="M23776 4984
L23868 4984
" />
<path d="M23868 5128
L23868 4853
L23736 4853
" />
<path d="M23658 8140
L23815 8140
" />
<path d="M23736 8140
L23736 7864
L23763 7904
L23789 7930
L23815 7943
" />
<path d="M23487 7864
L23461 7864
L23435 7877
L23421 7891
L23408 7917
L23395 7969
L23395 8035
L23408 8087
L23421 8114
L23435 8127
L23461 8140
L23487 8140
L23513 8127
L23526 8114
L23540 8087
L23553 8035
L23553 7969
L23540 7917
L23526 7891
L23513 7877
L23487 7864
" />
<path d="M23067 7956
L23067 8232
" />
<path d="M23067 7969
L23041 7956
L22988 7956
L22962 7969
L22949 7982
L22936 8009
L22936 8087
L22949 8114
L22962 8127
L22988 8140
L23041 8140
L23067 8127
" />
<path d="M22726 7996
L22818 7996
" />
<path d="M22818 8140
L22818 7864
L22687 7864
" />
<path d="M27240 4879
L27240 4721
" />
<path d="M27240 4800
L26965 4800
L27004 4774
L27030 4748
L27043 4721
" />
<path d="M26965 5049
L26965 5076
L26978 5102
L26991 5115
L27017 5128
L27070 5141
L27135 5141
L27188 5128
L27214 5115
L27227 5102
L27240 5076
L27240 5049
L27227 5023
L27214 5010
L27188 4997
L27135 4984
L27070 4984
L27017 4997
L26991 5010
L26978 5023
L26965 5049
" />
<path d="M27057 5469
L27332 5469
" />
<path d="M27070 5469
L27057 5496
L27057 5548
L27070 5574
L27083 5587
L27109 5601
L27188 5601
L27214 5587
L27227 5574
L27240 5548
L27240 5496
L27227 5469
" />
<path d="M27096 5811
L27096 5719
" />
<path d="M27240 5719
L26965 5719
L26965 5850
" />
<path d="M28579 6355
L28579 6198
" />
<path d="M28579 6276
L28303 6276
L28343 6250
L28369 6224
L28382 6198
" />
<path d="M28303 6526
L28303 6552
L28316 6578
L28330 6591
L28356 6604
L28408 6618
L28474 6618
L28526 6604
L28553 6591
L28566 6578
L28579 6552
L28579 6526
L28566 6500
L28553 6486
L28526 6473
L28474 6460
L28408 6460
L28356 6473
L28330 6486
L28316 6500
L28303 6526
" />
<path d="M28395 6946
L28671 6946
" />
<path d="M28408 6946
L28395 6972
L28395 7024
L28408 7051
L28421 7064
L28448 7077
L28526 7077
L28553 7064
L28566 7051
L28579 7024
L28579 6972
L28566 6946
" />
<path d="M28435 7287
L28435 7195
" />
<path d="M28579 7195
L28303 7195
L28303 7326
" />
<path d="M29366 6552
L29366 6395
" />
<path d="M29366 6473
L29091 6473
L29130 6447
L29156 6421
L29169 6395
" />
<path d="M29091 6723
L29091 6749
L29104 6775
L29117 6788
L29143 6801
L29196 6814
L29261 6814
L29314 6801
L29340 6788
L29353 6775
L29366 6749
L29366 6723
L29353 6696
L29340 6683
L29314 6670
L29261 6657
L29196 6657
L29143 6670
L29117 6683
L29104 6696
L29091 6723
" />
<path d="M29183 7143
L29458 7143
" />
<path d="M29196 7143
L29183 7169
L29183 7221
L29196 7248
L29209 7261
L29235 7274
L29314 7274
L29340 7261
L29353 7248
L29366 7221
L29366 7169
L29353 7143
" />
<path d="M29222 7484
L29222 7392
" />
<path d="M29366 7392
L29091 7392
L29091 7523
" />
<path d="M15416 19741
L15403 19728
L15377 19715
L15311 19715
L15285 19728
L15272 19741
L15259 19767
L15259 19793
L15272 19833
L15429 19990
L15259 19990
" />
<path d="M15154 19741
L15141 19728
L15114 19715
L15049 19715
L15022 19728
L15009 19741
L14996 19767
L14996 19793
L15009 19833
L15167 19990
L14996 19990
" />
<path d="M15252 20207
L15383 20207
L15396 20338
L15383 20325
L15357 20312
L15291 20312
L15265 20325
L15252 20338
L15239 20364
L15239 20430
L15252 20456
L15265 20469
L15291 20482
L15357 20482
L15383 20469
L15396 20456
" />
<path d="M14977 20482
L15134 20482
" />
<path d="M15055 20482
L15055 20207
L15082 20246
L15108 20272
L15134 20286
" />
<path d="M15416 19249
L15403 19236
L15377 19223
L15311 19223
L15285 19236
L15272 19249
L15259 19275
L15259 19301
L15272 19341
L15429 19498
L15259 19498
" />
<path d="M15154 19249
L15141 19236
L15114 19223
L15049 19223
L15022 19236
L15009 19249
L14996 19275
L14996 19301
L15009 19341
L15167 19498
L14996 19498
" />
<path d="M15416 18757
L15403 18744
L15377 18730
L15311 18730
L15285 18744
L15272 18757
L15259 18783
L15259 18809
L15272 18849
L15429 19006
L15259 19006
" />
<path d="M15154 18757
L15141 18744
L15114 18730
L15049 18730
L15022 18744
L15009 18757
L14996 18783
L14996 18809
L15009 18849
L15167 19006
L14996 19006
" />
<path d="M15416 18265
L15403 18251
L15377 18238
L15311 18238
L15285 18251
L15272 18265
L15259 18291
L15259 18317
L15272 18356
L15429 18514
L15259 18514
" />
<path d="M15154 18265
L15141 18251
L15114 18238
L15049 18238
L15022 18251
L15009 18265
L14996 18291
L14996 18317
L15009 18356
L15167 18514
L14996 18514
" />
<path d="M9622 12667
L9780 12667
" />
<path d="M9701 12667
L9701 12392
L9727 12431
L9753 12458
L9780 12471
" />
<path d="M9452 12392
L9425 12392
L9399 12405
L9386 12418
L9373 12444
L9360 12497
L9360 12562
L9373 12615
L9386 12641
L9399 12654
L9425 12667
L9452 12667
L9478 12654
L9491 12641
L9504 12615
L9517 12562
L9517 12497
L9504 12444
L9491 12418
L9478 12405
L9452 12392
" />
<path d="M9242 12667
L9242 12392
" />
<path d="M9215 12562
L9137 12667
" />
<path d="M9137 12484
L9242 12589
" />
<path d="M21112 3494
L21295 3494
" />
<path d="M21007 3429
L21204 3363
L21204 3534
" />
<path d="M21295 3639
L21020 3639
" />
<path d="M21190 3665
L21295 3744
" />
<path d="M21112 3744
L21217 3639
" />
<path d="M21020 3835
L21020 4019
L21295 3901
" />
<path d="M21295 4308
L21295 4150
" />
<path d="M21295 4229
L21020 4229
L21059 4203
L21085 4177
L21099 4150
" />
<path d="M21295 4426
L21020 4426
" />
<path d="M21190 4452
L21295 4531
" />
<path d="M21112 4531
L21217 4426
" />
<path d="M21046 4636
L21033 4649
L21020 4675
L21020 4741
L21033 4767
L21046 4780
L21072 4793
L21099 4793
L21138 4780
L21295 4623
L21295 4793
" />
<path d="M23907 5896
L23907 6093
L23920 6132
L23946 6158
L23986 6171
L24012 6171
" />
<path d="M23776 6171
L23776 5896
L23684 6093
L23592 5896
L23592 6171
" />
<path d="M23461 6171
L23461 5896
L23356 5896
L23330 5909
L23316 5922
L23303 5948
L23303 5988
L23316 6014
L23330 6027
L23356 6040
L23461 6040
" />
<path d="M27516 5220
L27713 5220
L27752 5207
L27778 5181
L27791 5141
L27791 5115
" />
<path d="M27791 5351
L27516 5351
L27713 5443
L27516 5535
L27791 5535
" />
<path d="M27791 5666
L27516 5666
L27516 5771
L27529 5797
L27542 5811
L27568 5824
L27608 5824
L27634 5811
L27647 5797
L27660 5771
L27660 5666
" />
<path d="M28113 6900
L28270 6900
" />
<path d="M28192 6900
L28192 6624
L28218 6664
L28244 6690
L28270 6703
" />
<path d="M27995 6900
L27995 6624
" />
<path d="M27969 6795
L27890 6900
" />
<path d="M27890 6716
L27995 6821
" />
<path d="M4406 14367
L4406 14209
" />
<path d="M4406 14288
L4130 14288
L4169 14262
L4196 14236
L4209 14209
" />
<path d="M4130 14538
L4130 14564
L4143 14590
L4156 14603
L4183 14616
L4235 14629
L4301 14629
L4353 14616
L4379 14603
L4393 14590
L4406 14564
L4406 14538
L4393 14511
L4379 14498
L4353 14485
L4301 14472
L4235 14472
L4183 14485
L4156 14498
L4143 14511
L4130 14538
" />
<path d="M4406 14748
L4130 14748
" />
<path d="M4301 14774
L4406 14853
" />
<path d="M4222 14853
L4327 14748
" />
<path d="M4406 19682
L4406 19524
" />
<path d="M4406 19603
L4130 19603
L4169 19577
L4196 19551
L4209 19524
" />
<path d="M4130 19853
L4130 19879
L4143 19905
L4156 19918
L4183 19931
L4235 19944
L4301 19944
L4353 19931
L4379 19918
L4393 19905
L4406 19879
L4406 19853
L4393 19826
L4379 19813
L4353 19800
L4301 19787
L4235 19787
L4183 19800
L4156 19813
L4143 19826
L4130 19853
" />
<path d="M4406 20062
L4130 20062
" />
<path d="M4301 20089
L4406 20167
" />
<path d="M4222 20167
L4327 20062
" />
<path d="M15823 14328
L15823 14170
" />
<path d="M15823 14249
L15547 14249
L15587 14223
L15613 14196
L15626 14170
" />
<path d="M15547 14498
L15547 14524
L15561 14551
L15574 14564
L15600 14577
L15652 14590
L15718 14590
L15770 14577
L15797 14564
L15810 14551
L15823 14524
L15823 14498
L15810 14472
L15797 14459
L15770 14446
L15718 14433
L15652 14433
L15600 14446
L15574 14459
L15561 14472
L15547 14498
" />
<path d="M15639 14918
L15915 14918
" />
<path d="M15652 14918
L15639 14944
L15639 14997
L15652 15023
L15666 15036
L15692 15049
L15770 15049
L15797 15036
L15810 15023
L15823 14997
L15823 14944
L15810 14918
" />
<path d="M15679 15259
L15679 15167
" />
<path d="M15823 15167
L15547 15167
L15547 15299
" />
<path d="M18126 15817
L18284 15817
" />
<path d="M18205 15817
L18205 15541
L18231 15581
L18257 15607
L18284 15620
" />
<path d="M17956 15541
L17929 15541
L17903 15555
L17890 15568
L17877 15594
L17864 15646
L17864 15712
L17877 15765
L17890 15791
L17903 15804
L17929 15817
L17956 15817
L17982 15804
L17995 15791
L18008 15765
L18021 15712
L18021 15646
L18008 15594
L17995 15568
L17982 15555
L17956 15541
" />
<path d="M17536 15633
L17536 15909
" />
<path d="M17536 15646
L17509 15633
L17457 15633
L17431 15646
L17417 15660
L17404 15686
L17404 15765
L17417 15791
L17431 15804
L17457 15817
L17509 15817
L17536 15804
" />
<path d="M17194 15673
L17286 15673
" />
<path d="M17286 15817
L17286 15541
L17155 15541
" />
<path d="M17988 12950
L17988 12792
" />
<path d="M17988 12871
L17713 12871
L17752 12845
L17778 12818
L17791 12792
" />
<path d="M17713 13120
L17713 13146
L17726 13173
L17739 13186
L17765 13199
L17818 13212
L17883 13212
L17936 13199
L17962 13186
L17975 13173
L17988 13146
L17988 13120
L17975 13094
L17962 13081
L17936 13068
L17883 13055
L17818 13055
L17765 13068
L17739 13081
L17726 13094
L17713 13120
" />
<path d="M17805 13540
L18080 13540
" />
<path d="M17818 13540
L17805 13566
L17805 13619
L17818 13645
L17831 13658
L17857 13671
L17936 13671
L17962 13658
L17975 13645
L17988 13619
L17988 13566
L17975 13540
" />
<path d="M17844 13881
L17844 13790
" />
<path d="M17988 13790
L17713 13790
L17713 13921
" />
<path d="M18776 11276
L18776 11119
" />
<path d="M18776 11198
L18500 11198
L18540 11171
L18566 11145
L18579 11119
" />
<path d="M18500 11447
L18500 11473
L18513 11500
L18526 11513
L18553 11526
L18605 11539
L18671 11539
L18723 11526
L18750 11513
L18763 11500
L18776 11473
L18776 11447
L18763 11421
L18750 11408
L18723 11395
L18671 11381
L18605 11381
L18553 11395
L18526 11408
L18513 11421
L18500 11447
" />
<path d="M18592 11867
L18868 11867
" />
<path d="M18605 11867
L18592 11893
L18592 11946
L18605 11972
L18618 11985
L18645 11998
L18723 11998
L18750 11985
L18763 11972
L18776 11946
L18776 11893
L18763 11867
" />
<path d="M18631 12208
L18631 12116
" />
<path d="M18776 12116
L18500 12116
L18500 12248
" />
</g> 
</svg>
