M48
;DRILL file {KiCad 4.0.2-stable} date Mon Jul  4 16:36:03 2016
;FORMAT={3:3/ absolute / metric / keep zeros}
FMAT,2
METRIC,TZ
T1C0.300
T2C0.400
%
G90
G05
M71
T1
X115000Y-089000
X115000Y-091000
X116000Y-089000
X116000Y-091000
X117000Y-089000
X117000Y-091000
X118000Y-089000
X118000Y-091000
X119000Y-089000
X119000Y-091000
X120000Y-085000
X120000Y-089000
X120000Y-091000
X120000Y-095000
X121000Y-089000
X121000Y-091000
X122000Y-089000
X122000Y-091000
X123000Y-089000
X123000Y-091000
X124000Y-089000
X124000Y-091000
X125000Y-085000
X125000Y-089000
X125000Y-091000
X125000Y-095000
X126000Y-089000
X126000Y-091000
X127000Y-089000
X127000Y-091000
X128000Y-089000
X128000Y-091000
X129000Y-089000
X129000Y-091000
X130000Y-085000
X130000Y-089000
X130000Y-091000
X130000Y-095000
X131000Y-089000
X131000Y-091000
X132000Y-089000
X132000Y-091000
X133000Y-089000
X133000Y-091000
X134000Y-089000
X134000Y-091000
X135000Y-085000
X135000Y-089000
X135000Y-091000
X135000Y-095000
X136000Y-089000
X136000Y-091000
X137000Y-089000
X137000Y-091000
X138000Y-089000
X138000Y-091000
X139000Y-089000
X139000Y-091000
X140000Y-085000
X140000Y-089000
X140000Y-091000
X140000Y-095000
X141000Y-089000
X141000Y-091000
X142000Y-089000
X142000Y-091000
X143000Y-089000
X143000Y-091000
X144000Y-089000
X144000Y-091000
X145000Y-085000
X145000Y-089000
X145000Y-091000
X145000Y-095000
X146000Y-089000
X146000Y-091000
X147000Y-089000
X147000Y-091000
X148000Y-089000
X148000Y-091000
X149000Y-089000
X149000Y-091000
X150000Y-085000
X150000Y-089000
X150000Y-091000
X150000Y-095000
X151000Y-089000
X151000Y-091000
X152000Y-089000
X152000Y-091000
X153000Y-089000
X153000Y-091000
X154000Y-089000
X154000Y-091000
X155000Y-085000
X155000Y-089000
X155000Y-091000
X155000Y-095000
X156000Y-089000
X156000Y-091000
X157000Y-089000
X157000Y-091000
X158000Y-089000
X158000Y-091000
X159000Y-089000
X159000Y-091000
X160000Y-085000
X160000Y-089000
X160000Y-091000
X160000Y-095000
X161000Y-089000
X161000Y-091000
X162000Y-089000
X162000Y-091000
X163000Y-089000
X163000Y-091000
T2
X115500Y-090000
X117500Y-087300
X117500Y-092700
X161000Y-087300
X161000Y-092700
X163000Y-090000
T0
M30
