G04 #@! TF.FileFunction,Copper,L1,Top,Signal*
%FSLAX46Y46*%
G04 Gerber Fmt 4.6, Leading zero omitted, Abs format (unit mm)*
G04 Created by KiCad (PCBNEW 4.0.2-stable) date Mon Jul  4 16:36:02 2016*
%MOMM*%
G01*
G04 APERTURE LIST*
%ADD10C,0.100000*%
%ADD11C,0.600000*%
%ADD12R,1.000000X1.000000*%
%ADD13R,2.200000X1.050000*%
%ADD14C,1.000000*%
%ADD15C,0.254000*%
G04 APERTURE END LIST*
D10*
D11*
X120000000Y-85000000D03*
X125000000Y-85000000D03*
X130000000Y-85000000D03*
X135000000Y-85000000D03*
X140000000Y-85000000D03*
X145000000Y-85000000D03*
X150000000Y-85000000D03*
X155000000Y-85000000D03*
X160000000Y-85000000D03*
X160000000Y-95000000D03*
X155000000Y-95000000D03*
X150000000Y-95000000D03*
X145000000Y-95000000D03*
X140000000Y-95000000D03*
X135000000Y-95000000D03*
X130000000Y-95000000D03*
X125000000Y-95000000D03*
X120000000Y-95000000D03*
X163000000Y-91000000D03*
X162000000Y-91000000D03*
X161000000Y-91000000D03*
X160000000Y-91000000D03*
X159000000Y-91000000D03*
X158000000Y-91000000D03*
X157000000Y-91000000D03*
X156000000Y-91000000D03*
X155000000Y-91000000D03*
X154000000Y-91000000D03*
X153000000Y-91000000D03*
X152000000Y-91000000D03*
X151000000Y-91000000D03*
X150000000Y-91000000D03*
X149000000Y-91000000D03*
X148000000Y-91000000D03*
X147000000Y-91000000D03*
X146000000Y-91000000D03*
X145000000Y-91000000D03*
X144000000Y-91000000D03*
X143000000Y-91000000D03*
X142000000Y-91000000D03*
X141000000Y-91000000D03*
X140000000Y-91000000D03*
X139000000Y-91000000D03*
X138000000Y-91000000D03*
X137000000Y-91000000D03*
X136000000Y-91000000D03*
X135000000Y-91000000D03*
X134000000Y-91000000D03*
X133000000Y-91000000D03*
X132000000Y-91000000D03*
X131000000Y-91000000D03*
X130000000Y-91000000D03*
X129000000Y-91000000D03*
X128000000Y-91000000D03*
X127000000Y-91000000D03*
X126000000Y-91000000D03*
X125000000Y-91000000D03*
X124000000Y-91000000D03*
X123000000Y-91000000D03*
X122000000Y-91000000D03*
X121000000Y-91000000D03*
X120000000Y-91000000D03*
X119000000Y-91000000D03*
X118000000Y-91000000D03*
X117000000Y-91000000D03*
X116000000Y-91000000D03*
X163000000Y-89000000D03*
X162000000Y-89000000D03*
X161000000Y-89000000D03*
X160000000Y-89000000D03*
X159000000Y-89000000D03*
X158000000Y-89000000D03*
X157000000Y-89000000D03*
X156000000Y-89000000D03*
X155000000Y-89000000D03*
X154000000Y-89000000D03*
X153000000Y-89000000D03*
X152000000Y-89000000D03*
X151000000Y-89000000D03*
X150000000Y-89000000D03*
X149000000Y-89000000D03*
X148000000Y-89000000D03*
X147000000Y-89000000D03*
X146000000Y-89000000D03*
X145000000Y-89000000D03*
X144000000Y-89000000D03*
X143000000Y-89000000D03*
X142000000Y-89000000D03*
X141000000Y-89000000D03*
X140000000Y-89000000D03*
X139000000Y-89000000D03*
X138000000Y-89000000D03*
X137000000Y-89000000D03*
X136000000Y-89000000D03*
X135000000Y-89000000D03*
X134000000Y-89000000D03*
X133000000Y-89000000D03*
X132000000Y-89000000D03*
X131000000Y-89000000D03*
X130000000Y-89000000D03*
X129000000Y-89000000D03*
X128000000Y-89000000D03*
X127000000Y-89000000D03*
X126000000Y-89000000D03*
X125000000Y-89000000D03*
X124000000Y-89000000D03*
X123000000Y-89000000D03*
X122000000Y-89000000D03*
X121000000Y-89000000D03*
X120000000Y-89000000D03*
X119000000Y-89000000D03*
X118000000Y-89000000D03*
X117000000Y-89000000D03*
X116000000Y-89000000D03*
X115000000Y-91000000D03*
X115000000Y-89000000D03*
D12*
X118500000Y-90000000D03*
D13*
X117000000Y-91475000D03*
X117000000Y-88525000D03*
D12*
X115500000Y-90000000D03*
X160000000Y-90000000D03*
D13*
X161500000Y-88525000D03*
X161500000Y-91475000D03*
D12*
X163000000Y-90000000D03*
D11*
X161000000Y-92700000D03*
X161000000Y-87300000D03*
X117500000Y-92700000D03*
X117500000Y-87300000D03*
X115500000Y-90000000D03*
X163000000Y-90000000D03*
D14*
X118500000Y-90000000D02*
X159376402Y-90000000D01*
X159376402Y-90000000D02*
X160000000Y-90000000D01*
X115500000Y-91000000D02*
X115500000Y-90000000D01*
X115500000Y-89000000D02*
X115500000Y-90000000D01*
X163000000Y-90000000D02*
X163000000Y-89000000D01*
X163000000Y-90000000D02*
X163000000Y-91000000D01*
D15*
G36*
X158000000Y-90833406D02*
X163598000Y-90833406D01*
X163598000Y-97098000D01*
X114902000Y-97098000D01*
X114902000Y-90833406D01*
X120500000Y-90833406D01*
X120534046Y-90827000D01*
X157968367Y-90827000D01*
X158000000Y-90833406D01*
X158000000Y-90833406D01*
G37*
X158000000Y-90833406D02*
X163598000Y-90833406D01*
X163598000Y-97098000D01*
X114902000Y-97098000D01*
X114902000Y-90833406D01*
X120500000Y-90833406D01*
X120534046Y-90827000D01*
X157968367Y-90827000D01*
X158000000Y-90833406D01*
G36*
X163598000Y-89166594D02*
X158000000Y-89166594D01*
X157965954Y-89173000D01*
X120531633Y-89173000D01*
X120500000Y-89166594D01*
X114902000Y-89166594D01*
X114902000Y-82902000D01*
X163598000Y-82902000D01*
X163598000Y-89166594D01*
X163598000Y-89166594D01*
G37*
X163598000Y-89166594D02*
X158000000Y-89166594D01*
X157965954Y-89173000D01*
X120531633Y-89173000D01*
X120500000Y-89166594D01*
X114902000Y-89166594D01*
X114902000Y-82902000D01*
X163598000Y-82902000D01*
X163598000Y-89166594D01*
M02*
