<?xml version="1.0" standalone="no"?>
 <!DOCTYPE svg PUBLIC "-//W3C//DTD SVG 1.1//EN" 
 "http://www.w3.org/Graphics/SVG/1.1/DTD/svg11.dtd"> 
<svg xmlns="http://www.w3.org/2000/svg" version="1.1" 
    width="8.48614cm" height="6.00202cm" viewBox="0 0 33410 23630 ">
<title>SVG Picture created as vna_r1_synth-Eco1.User.svg date 2018/05/20 15:45:41 </title>
  <desc>Picture generated by PCBNEW </desc>
<g style="fill:#000000; fill-opacity:1;stroke:#000000; stroke-opacity:1;
stroke-linecap:round; stroke-linejoin:round; "
 transform="translate(0 0) scale(1 1)">
</g>
<g style="fill:#008400; fill-opacity:0.0; 
stroke:#008400; stroke-width:-0.000393701; stroke-opacity:1; 
stroke-linecap:round; stroke-linejoin:round;">
</g>
<g style="fill:#008400; fill-opacity:0.0; 
stroke:#008400; stroke-width:78.7402; stroke-opacity:1; 
stroke-linecap:round; stroke-linejoin:round;">
<circle cx="5639.76" cy="2031.5" r="492.126" /> 
<circle cx="13021.7" cy="12858.3" r="492.126" /> 
<circle cx="5639.76" cy="21913.4" r="492.126" /> 
<circle cx="17942.9" cy="21913.4" r="492.126" /> 
<circle cx="29655.5" cy="21815" r="492.126" /> 
<circle cx="29655.5" cy="17878" r="492.126" /> 
<circle cx="29655.5" cy="13940.9" r="492.126" /> 
<circle cx="29655.5" cy="10003.9" r="492.126" /> 
<circle cx="29655.5" cy="6066.93" r="492.126" /> 
<circle cx="29655.5" cy="1933.07" r="492.126" /> 
<circle cx="17844.5" cy="1933.07" r="492.126" /> 
<circle cx="17942.9" cy="6657.48" r="492.126" /> 
<path d="M6820 3015
L12037 3015
" />
<path d="M5639 4885
L6820 3015
" />
<path d="M5639 19748
L5639 4885
" />
<path d="M6525 20830
L5639 19748
" />
<path d="M12037 20830
L6525 20830
" />
<path d="M12037 3015
L12037 20830
" />
<path d="M14005 3015
L22765 3015
" />
<path d="M14005 5673
L14005 3015
" />
<path d="M21584 5673
L14005 5673
" />
<path d="M22765 4492
L21584 5673
" />
<path d="M22765 3015
L22765 4492
" />
<path d="M30738 5082
L30738 7051
" />
<path d="M28277 5082
L30738 5082
" />
<path d="M28277 5377
L28277 5082
" />
<path d="M28375 5476
L28277 5377
" />
<path d="M28375 5870
L28375 5476
" />
<path d="M28277 5968
L28375 5870
" />
<path d="M28277 7051
L28277 5968
" />
<path d="M30738 7051
L28277 7051
" />
<path d="M30738 9019
L30738 10889
" />
<path d="M27883 9019
L30738 9019
" />
<path d="M26013 7149
L27883 9019
" />
<path d="M24635 7149
L26013 7149
" />
<path d="M22765 9019
L24635 7149
" />
<path d="M22765 10889
L22765 9019
" />
<path d="M30738 10889
L22765 10889
" />
<path d="M30738 12956
L30738 14925
" />
<path d="M22568 12956
L30738 12956
" />
<path d="M22568 14925
L22568 12956
" />
<path d="M30738 14925
L22568 14925
" />
<path d="M30738 18665
L30738 16992
" />
<path d="M22568 18665
L30738 18665
" />
<path d="M22568 16992
L22568 18665
" />
<path d="M30738 16992
L22568 16992
" />
<path d="M30738 22405
L30738 20830
" />
<path d="M30147.6 22996.1 A590.551 590.551 0.0 0 0 30738.2 22405.5 " />
<path d="M4557 22996
L30147 22996
" />
<path d="M4557 948
L4557 22996
" />
<path d="M30147 948
L4557 948
" />
<path d="M30738.2 1539.37 A590.551 590.551 0.0 0 0 30147.6 948.819 " />
<path d="M30738 3015
L30738 1539
" />
<path d="M27883 3015
L30738 3015
" />
<path d="M25915 5377
L27883 3015
" />
<path d="M25521 5377
L25915 5377
" />
<path d="M25521 3015
L25521 5377
" />
<path d="M23553 3015
L25521 3015
" />
<path d="M23553 4885
L23553 3015
" />
<path d="M20797 7641
L23553 4885
" />
<path d="M14005 7641
L20797 7641
" />
<path d="M14005 20830
L14005 7641
" />
<path d="M30738 20830
L14005 20830
" />
</g> 
</svg>
