G04 #@! TF.FileFunction,Legend,Bot*
%FSLAX46Y46*%
G04 Gerber Fmt 4.6, Leading zero omitted, Abs format (unit mm)*
G04 Created by KiCad (PCBNEW 4.0.2-stable) date Mon Mar 14 23:55:08 2016*
%MOMM*%
G01*
G04 APERTURE LIST*
%ADD10C,0.100000*%
%ADD11C,0.275000*%
G04 APERTURE END LIST*
D10*
D11*
X159683902Y-94252286D02*
X159421997Y-94985619D01*
X159160093Y-94252286D01*
X158269617Y-94985619D02*
X158269617Y-94409429D01*
X158321998Y-94304667D01*
X158426760Y-94252286D01*
X158636283Y-94252286D01*
X158741045Y-94304667D01*
X158269617Y-94933238D02*
X158374379Y-94985619D01*
X158636283Y-94985619D01*
X158741045Y-94933238D01*
X158793426Y-94828476D01*
X158793426Y-94723714D01*
X158741045Y-94618952D01*
X158636283Y-94566571D01*
X158374379Y-94566571D01*
X158269617Y-94514190D01*
X157745807Y-94985619D02*
X157745807Y-94252286D01*
X157745807Y-94461810D02*
X157693426Y-94357048D01*
X157641045Y-94304667D01*
X157536283Y-94252286D01*
X157431522Y-94252286D01*
X157064855Y-94985619D02*
X157064855Y-94252286D01*
X157064855Y-93885619D02*
X157117236Y-93938000D01*
X157064855Y-93990381D01*
X157012474Y-93938000D01*
X157064855Y-93885619D01*
X157064855Y-93990381D01*
X156069617Y-94985619D02*
X156069617Y-94409429D01*
X156121998Y-94304667D01*
X156226760Y-94252286D01*
X156436283Y-94252286D01*
X156541045Y-94304667D01*
X156069617Y-94933238D02*
X156174379Y-94985619D01*
X156436283Y-94985619D01*
X156541045Y-94933238D01*
X156593426Y-94828476D01*
X156593426Y-94723714D01*
X156541045Y-94618952D01*
X156436283Y-94566571D01*
X156174379Y-94566571D01*
X156069617Y-94514190D01*
X155545807Y-94985619D02*
X155545807Y-93885619D01*
X155545807Y-94304667D02*
X155441045Y-94252286D01*
X155231522Y-94252286D01*
X155126760Y-94304667D01*
X155074379Y-94357048D01*
X155021998Y-94461810D01*
X155021998Y-94776095D01*
X155074379Y-94880857D01*
X155126760Y-94933238D01*
X155231522Y-94985619D01*
X155441045Y-94985619D01*
X155545807Y-94933238D01*
X154393426Y-94985619D02*
X154498188Y-94933238D01*
X154550569Y-94828476D01*
X154550569Y-93885619D01*
X153555332Y-94933238D02*
X153660094Y-94985619D01*
X153869617Y-94985619D01*
X153974379Y-94933238D01*
X154026760Y-94828476D01*
X154026760Y-94409429D01*
X153974379Y-94304667D01*
X153869617Y-94252286D01*
X153660094Y-94252286D01*
X153555332Y-94304667D01*
X153502951Y-94409429D01*
X153502951Y-94514190D01*
X154026760Y-94618952D01*
X151721999Y-94985619D02*
X151721999Y-94409429D01*
X151774380Y-94304667D01*
X151879142Y-94252286D01*
X152088665Y-94252286D01*
X152193427Y-94304667D01*
X151721999Y-94933238D02*
X151826761Y-94985619D01*
X152088665Y-94985619D01*
X152193427Y-94933238D01*
X152245808Y-94828476D01*
X152245808Y-94723714D01*
X152193427Y-94618952D01*
X152088665Y-94566571D01*
X151826761Y-94566571D01*
X151721999Y-94514190D01*
X151355332Y-94252286D02*
X150936284Y-94252286D01*
X151198189Y-93885619D02*
X151198189Y-94828476D01*
X151145808Y-94933238D01*
X151041046Y-94985619D01*
X150936284Y-94985619D01*
X150726761Y-94252286D02*
X150307713Y-94252286D01*
X150569618Y-93885619D02*
X150569618Y-94828476D01*
X150517237Y-94933238D01*
X150412475Y-94985619D01*
X150307713Y-94985619D01*
X149522000Y-94933238D02*
X149626762Y-94985619D01*
X149836285Y-94985619D01*
X149941047Y-94933238D01*
X149993428Y-94828476D01*
X149993428Y-94409429D01*
X149941047Y-94304667D01*
X149836285Y-94252286D01*
X149626762Y-94252286D01*
X149522000Y-94304667D01*
X149469619Y-94409429D01*
X149469619Y-94514190D01*
X149993428Y-94618952D01*
X148998190Y-94252286D02*
X148998190Y-94985619D01*
X148998190Y-94357048D02*
X148945809Y-94304667D01*
X148841047Y-94252286D01*
X148683905Y-94252286D01*
X148579143Y-94304667D01*
X148526762Y-94409429D01*
X148526762Y-94985619D01*
X147531524Y-94252286D02*
X147531524Y-94985619D01*
X148002952Y-94252286D02*
X148002952Y-94828476D01*
X147950571Y-94933238D01*
X147845809Y-94985619D01*
X147688667Y-94985619D01*
X147583905Y-94933238D01*
X147531524Y-94880857D01*
X146536286Y-94985619D02*
X146536286Y-94409429D01*
X146588667Y-94304667D01*
X146693429Y-94252286D01*
X146902952Y-94252286D01*
X147007714Y-94304667D01*
X146536286Y-94933238D02*
X146641048Y-94985619D01*
X146902952Y-94985619D01*
X147007714Y-94933238D01*
X147060095Y-94828476D01*
X147060095Y-94723714D01*
X147007714Y-94618952D01*
X146902952Y-94566571D01*
X146641048Y-94566571D01*
X146536286Y-94514190D01*
X146169619Y-94252286D02*
X145750571Y-94252286D01*
X146012476Y-93885619D02*
X146012476Y-94828476D01*
X145960095Y-94933238D01*
X145855333Y-94985619D01*
X145750571Y-94985619D01*
X145226762Y-94985619D02*
X145331524Y-94933238D01*
X145383905Y-94880857D01*
X145436286Y-94776095D01*
X145436286Y-94461810D01*
X145383905Y-94357048D01*
X145331524Y-94304667D01*
X145226762Y-94252286D01*
X145069620Y-94252286D01*
X144964858Y-94304667D01*
X144912477Y-94357048D01*
X144860096Y-94461810D01*
X144860096Y-94776095D01*
X144912477Y-94880857D01*
X144964858Y-94933238D01*
X145069620Y-94985619D01*
X145226762Y-94985619D01*
X144388667Y-94985619D02*
X144388667Y-94252286D01*
X144388667Y-94461810D02*
X144336286Y-94357048D01*
X144283905Y-94304667D01*
X144179143Y-94252286D01*
X144074382Y-94252286D01*
X142869620Y-94985619D02*
X142869620Y-94252286D01*
X142869620Y-94461810D02*
X142817239Y-94357048D01*
X142764858Y-94304667D01*
X142660096Y-94252286D01*
X142555335Y-94252286D01*
X141979144Y-93885619D02*
X141874383Y-93885619D01*
X141769621Y-93938000D01*
X141717240Y-93990381D01*
X141664859Y-94095143D01*
X141612478Y-94304667D01*
X141612478Y-94566571D01*
X141664859Y-94776095D01*
X141717240Y-94880857D01*
X141769621Y-94933238D01*
X141874383Y-94985619D01*
X141979144Y-94985619D01*
X142083906Y-94933238D01*
X142136287Y-94880857D01*
X142188668Y-94776095D01*
X142241049Y-94566571D01*
X142241049Y-94304667D01*
X142188668Y-94095143D01*
X142136287Y-93990381D01*
X142083906Y-93938000D01*
X141979144Y-93885619D01*
M02*
