G04 #@! TF.FileFunction,Copper,L3,Inr,Signal*
%FSLAX46Y46*%
G04 Gerber Fmt 4.6, Leading zero omitted, Abs format (unit mm)*
G04 Created by KiCad (PCBNEW 4.0.2-stable) date Mon Mar 14 23:55:08 2016*
%MOMM*%
G01*
G04 APERTURE LIST*
%ADD10C,0.100000*%
%ADD11R,1.727200X2.032000*%
%ADD12O,1.727200X2.032000*%
%ADD13C,1.800000*%
%ADD14C,0.600000*%
%ADD15C,0.350000*%
G04 APERTURE END LIST*
D10*
D11*
X160655000Y-114750000D03*
D12*
X158115000Y-114750000D03*
X155575000Y-114750000D03*
X153035000Y-114750000D03*
X150495000Y-114750000D03*
X147955000Y-114750000D03*
X145415000Y-114750000D03*
X142875000Y-114750000D03*
D13*
X135890000Y-112500000D03*
X138430000Y-115040000D03*
X133350000Y-115040000D03*
X133350000Y-109960000D03*
X138430000Y-109960000D03*
X135890000Y-97155000D03*
X133350000Y-94615000D03*
X138430000Y-94615000D03*
X138430000Y-99695000D03*
X133350000Y-99695000D03*
D14*
X127508000Y-102108000D03*
X127508000Y-107696000D03*
X130810000Y-104050000D03*
X129910000Y-104050000D03*
X129910000Y-104950000D03*
X130810000Y-104950000D03*
X160655000Y-107315000D03*
X160655000Y-106045000D03*
X141055000Y-101565000D03*
X152355000Y-96475000D03*
X155575000Y-100965000D03*
X161925000Y-104140000D03*
X161290000Y-98425000D03*
X127508000Y-104648000D03*
X142155000Y-101565000D03*
X142875000Y-102870000D03*
X161290000Y-102235000D03*
X155575000Y-102870000D03*
X153035000Y-102870000D03*
X150495000Y-102870000D03*
X147955000Y-102870000D03*
X145415000Y-102870000D03*
X142875000Y-96449990D03*
X144145000Y-104140000D03*
X147360010Y-99075000D03*
X146009990Y-99075000D03*
X149225000Y-97155000D03*
X156395000Y-104590000D03*
X149225000Y-98425000D03*
X149225000Y-100965000D03*
X137922000Y-103124000D03*
X140335000Y-97155000D03*
X139192000Y-102870000D03*
X140335000Y-98425000D03*
X140335000Y-99695000D03*
X140462000Y-108966000D03*
X154305000Y-97790000D03*
X140716000Y-107950000D03*
X154305000Y-99060000D03*
X139954000Y-106426000D03*
X154305000Y-100330000D03*
D15*
X127508000Y-105918000D02*
X127508000Y-104648000D01*
X128778000Y-107188000D02*
X127508000Y-105918000D01*
X141224000Y-107188000D02*
X128778000Y-107188000D01*
X142875000Y-105537000D02*
X141224000Y-107188000D01*
X142875000Y-102870000D02*
X142875000Y-105537000D01*
X155575000Y-102870000D02*
X160655000Y-102870000D01*
X160655000Y-102870000D02*
X161290000Y-102235000D01*
M02*
