M48
;DRILL file {KiCad 4.0.2-stable} date Mon Mar 14 23:55:09 2016
;FORMAT={3:3/ absolute / metric / keep zeros}
FMAT,2
METRIC,TZ
T1C0.400
T2C1.016
T3C1.500
%
G90
G05
M71
T1
X127508Y-102108
X127508Y-104648
X127508Y-107696
X129910Y-104050
X129910Y-104950
X130810Y-104050
X130810Y-104950
X137922Y-103124
X139192Y-102870
X139954Y-106426
X140335Y-097155
X140335Y-098425
X140335Y-099695
X140462Y-108966
X140716Y-107950
X141055Y-101565
X142155Y-101565
X142875Y-096450
X142875Y-102870
X144145Y-104140
X145415Y-102870
X146010Y-099075
X147360Y-099075
X147955Y-102870
X149225Y-097155
X149225Y-098425
X149225Y-100965
X150495Y-102870
X152355Y-096475
X153035Y-102870
X154305Y-097790
X154305Y-099060
X154305Y-100330
X155575Y-100965
X155575Y-102870
X156395Y-104590
X160655Y-106045
X160655Y-107315
X161290Y-098425
X161290Y-102235
X161925Y-104140
T2
X142875Y-114750
X145415Y-114750
X147955Y-114750
X150495Y-114750
X153035Y-114750
X155575Y-114750
X158115Y-114750
X160655Y-114750
T3
X133350Y-094615
X133350Y-099695
X133350Y-109960
X133350Y-115040
X135890Y-097155
X135890Y-112500
X138430Y-094615
X138430Y-099695
X138430Y-109960
X138430Y-115040
T0
M30
