G04 #@! TF.FileFunction,Copper,L2,Inr,Signal*
%FSLAX46Y46*%
G04 Gerber Fmt 4.6, Leading zero omitted, Abs format (unit mm)*
G04 Created by KiCad (PCBNEW 4.0.2-stable) date Mon Mar 14 23:55:08 2016*
%MOMM*%
G01*
G04 APERTURE LIST*
%ADD10C,0.100000*%
%ADD11R,1.727200X2.032000*%
%ADD12O,1.727200X2.032000*%
%ADD13C,1.800000*%
%ADD14C,0.600000*%
%ADD15C,0.250000*%
%ADD16C,0.350000*%
%ADD17C,0.254000*%
G04 APERTURE END LIST*
D10*
D11*
X160655000Y-114750000D03*
D12*
X158115000Y-114750000D03*
X155575000Y-114750000D03*
X153035000Y-114750000D03*
X150495000Y-114750000D03*
X147955000Y-114750000D03*
X145415000Y-114750000D03*
X142875000Y-114750000D03*
D13*
X135890000Y-112500000D03*
X138430000Y-115040000D03*
X133350000Y-115040000D03*
X133350000Y-109960000D03*
X138430000Y-109960000D03*
X135890000Y-97155000D03*
X133350000Y-94615000D03*
X138430000Y-94615000D03*
X138430000Y-99695000D03*
X133350000Y-99695000D03*
D14*
X127508000Y-102108000D03*
X127508000Y-107696000D03*
X130810000Y-104050000D03*
X129910000Y-104050000D03*
X129910000Y-104950000D03*
X130810000Y-104950000D03*
X160655000Y-107315000D03*
X160655000Y-106045000D03*
X141055000Y-101565000D03*
X152355000Y-96475000D03*
X155575000Y-100965000D03*
X161925000Y-104140000D03*
X161290000Y-98425000D03*
X127508000Y-104648000D03*
X142155000Y-101565000D03*
X142875000Y-102870000D03*
X161290000Y-102235000D03*
X155575000Y-102870000D03*
X153035000Y-102870000D03*
X150495000Y-102870000D03*
X147955000Y-102870000D03*
X145415000Y-102870000D03*
X142875000Y-96449990D03*
X144145000Y-104140000D03*
X147360010Y-99075000D03*
X146009990Y-99075000D03*
X149225000Y-97155000D03*
X156395000Y-104590000D03*
X149225000Y-98425000D03*
X149225000Y-100965000D03*
X137922000Y-103124000D03*
X140335000Y-97155000D03*
X139192000Y-102870000D03*
X140335000Y-98425000D03*
X140335000Y-99695000D03*
X140462000Y-108966000D03*
X154305000Y-97790000D03*
X140716000Y-107950000D03*
X154305000Y-99060000D03*
X139954000Y-106426000D03*
X154305000Y-100330000D03*
D15*
X140970000Y-102870000D02*
X141055000Y-102785000D01*
X141055000Y-101565000D02*
X141055000Y-102785000D01*
D16*
X161290000Y-104140000D02*
X161290000Y-105410000D01*
X161290000Y-105410000D02*
X160655000Y-106045000D01*
X161925000Y-104140000D02*
X161290000Y-104140000D01*
X153035000Y-102870000D02*
X155575000Y-102870000D01*
X150495000Y-102870000D02*
X153035000Y-102870000D01*
X147955000Y-102870000D02*
X150495000Y-102870000D01*
X145415000Y-102870000D02*
X147955000Y-102870000D01*
X142875000Y-102870000D02*
X145415000Y-102870000D01*
X142155000Y-101565000D02*
X142155000Y-102150000D01*
X142155000Y-102150000D02*
X142875000Y-102870000D01*
D17*
G36*
X131803542Y-94374336D02*
X131829161Y-94984460D01*
X132013357Y-95429148D01*
X132269841Y-95515554D01*
X133170395Y-94615000D01*
X133156253Y-94600858D01*
X133335858Y-94421253D01*
X133350000Y-94435395D01*
X133364143Y-94421253D01*
X133543748Y-94600858D01*
X133529605Y-94615000D01*
X134430159Y-95515554D01*
X134686643Y-95429148D01*
X134896458Y-94855664D01*
X134870839Y-94245540D01*
X134691261Y-93812000D01*
X137089278Y-93812000D01*
X136883542Y-94374336D01*
X136909161Y-94984460D01*
X137093357Y-95429148D01*
X137349841Y-95515554D01*
X138250395Y-94615000D01*
X138236253Y-94600858D01*
X138415858Y-94421253D01*
X138430000Y-94435395D01*
X138444143Y-94421253D01*
X138623748Y-94600858D01*
X138609605Y-94615000D01*
X139510159Y-95515554D01*
X139766643Y-95429148D01*
X139976458Y-94855664D01*
X139950839Y-94245540D01*
X139771261Y-93812000D01*
X161458000Y-93812000D01*
X161458000Y-100908146D01*
X161027202Y-100907771D01*
X160539297Y-101109369D01*
X160165681Y-101482334D01*
X159963231Y-101969885D01*
X159962771Y-102497798D01*
X160164369Y-102985703D01*
X160537334Y-103359319D01*
X161024885Y-103561769D01*
X161458000Y-103562146D01*
X161458000Y-113099000D01*
X160940750Y-113099000D01*
X160782000Y-113257750D01*
X160782000Y-114623000D01*
X160802000Y-114623000D01*
X160802000Y-114877000D01*
X160782000Y-114877000D01*
X160782000Y-114897000D01*
X160528000Y-114897000D01*
X160528000Y-114877000D01*
X160508000Y-114877000D01*
X160508000Y-114623000D01*
X160528000Y-114623000D01*
X160528000Y-113257750D01*
X160369250Y-113099000D01*
X159665090Y-113099000D01*
X159431701Y-113195673D01*
X159424760Y-113202614D01*
X158838501Y-112810888D01*
X158115000Y-112666975D01*
X157391499Y-112810888D01*
X156845000Y-113176047D01*
X156298501Y-112810888D01*
X155575000Y-112666975D01*
X154851499Y-112810888D01*
X154305000Y-113176047D01*
X153758501Y-112810888D01*
X153035000Y-112666975D01*
X152311499Y-112810888D01*
X151765000Y-113176047D01*
X151218501Y-112810888D01*
X150495000Y-112666975D01*
X149771499Y-112810888D01*
X149225000Y-113176047D01*
X148678501Y-112810888D01*
X147955000Y-112666975D01*
X147231499Y-112810888D01*
X146685000Y-113176047D01*
X146138501Y-112810888D01*
X145415000Y-112666975D01*
X144691499Y-112810888D01*
X144145000Y-113176047D01*
X143598501Y-112810888D01*
X142875000Y-112666975D01*
X142151499Y-112810888D01*
X141538144Y-113220719D01*
X141128313Y-113834074D01*
X140984400Y-114557575D01*
X140984400Y-114942425D01*
X141128313Y-115665926D01*
X141176471Y-115738000D01*
X139809137Y-115738000D01*
X139976458Y-115280664D01*
X139950839Y-114670540D01*
X139766643Y-114225852D01*
X139510159Y-114139446D01*
X138609605Y-115040000D01*
X138623748Y-115054143D01*
X138444143Y-115233748D01*
X138430000Y-115219605D01*
X138415858Y-115233748D01*
X138236253Y-115054143D01*
X138250395Y-115040000D01*
X137349841Y-114139446D01*
X137093357Y-114225852D01*
X136883542Y-114799336D01*
X136909161Y-115409460D01*
X137045247Y-115738000D01*
X134729137Y-115738000D01*
X134896458Y-115280664D01*
X134870839Y-114670540D01*
X134686643Y-114225852D01*
X134430159Y-114139446D01*
X133529605Y-115040000D01*
X133543748Y-115054143D01*
X133364143Y-115233748D01*
X133350000Y-115219605D01*
X133335858Y-115233748D01*
X133156253Y-115054143D01*
X133170395Y-115040000D01*
X132269841Y-114139446D01*
X132013357Y-114225852D01*
X131803542Y-114799336D01*
X131829161Y-115409460D01*
X131965247Y-115738000D01*
X126832000Y-115738000D01*
X126832000Y-113959841D01*
X132449446Y-113959841D01*
X133350000Y-114860395D01*
X134250554Y-113959841D01*
X134164148Y-113703357D01*
X133590664Y-113493542D01*
X132980540Y-113519161D01*
X132535852Y-113703357D01*
X132449446Y-113959841D01*
X126832000Y-113959841D01*
X126832000Y-112881622D01*
X133962666Y-112881622D01*
X134255416Y-113590132D01*
X134797017Y-114132678D01*
X135505014Y-114426665D01*
X136271622Y-114427334D01*
X136980132Y-114134584D01*
X137155179Y-113959841D01*
X137529446Y-113959841D01*
X138430000Y-114860395D01*
X139330554Y-113959841D01*
X139244148Y-113703357D01*
X138670664Y-113493542D01*
X138060540Y-113519161D01*
X137615852Y-113703357D01*
X137529446Y-113959841D01*
X137155179Y-113959841D01*
X137522678Y-113592983D01*
X137816665Y-112884986D01*
X137817334Y-112118378D01*
X137524584Y-111409868D01*
X137155519Y-111040159D01*
X137529446Y-111040159D01*
X137615852Y-111296643D01*
X138189336Y-111506458D01*
X138799460Y-111480839D01*
X139244148Y-111296643D01*
X139330554Y-111040159D01*
X138430000Y-110139605D01*
X137529446Y-111040159D01*
X137155519Y-111040159D01*
X136982983Y-110867322D01*
X136274986Y-110573335D01*
X135508378Y-110572666D01*
X134799868Y-110865416D01*
X134257322Y-111407017D01*
X133963335Y-112115014D01*
X133962666Y-112881622D01*
X126832000Y-112881622D01*
X126832000Y-111040159D01*
X132449446Y-111040159D01*
X132535852Y-111296643D01*
X133109336Y-111506458D01*
X133719460Y-111480839D01*
X134164148Y-111296643D01*
X134250554Y-111040159D01*
X133350000Y-110139605D01*
X132449446Y-111040159D01*
X126832000Y-111040159D01*
X126832000Y-109719336D01*
X131803542Y-109719336D01*
X131829161Y-110329460D01*
X132013357Y-110774148D01*
X132269841Y-110860554D01*
X133170395Y-109960000D01*
X133529605Y-109960000D01*
X134430159Y-110860554D01*
X134686643Y-110774148D01*
X134896458Y-110200664D01*
X134876248Y-109719336D01*
X136883542Y-109719336D01*
X136909161Y-110329460D01*
X137093357Y-110774148D01*
X137349841Y-110860554D01*
X138250395Y-109960000D01*
X138609605Y-109960000D01*
X139510159Y-110860554D01*
X139766643Y-110774148D01*
X139976458Y-110200664D01*
X139950839Y-109590540D01*
X139766643Y-109145852D01*
X139510159Y-109059446D01*
X138609605Y-109960000D01*
X138250395Y-109960000D01*
X137349841Y-109059446D01*
X137093357Y-109145852D01*
X136883542Y-109719336D01*
X134876248Y-109719336D01*
X134870839Y-109590540D01*
X134686643Y-109145852D01*
X134430159Y-109059446D01*
X133529605Y-109960000D01*
X133170395Y-109960000D01*
X132269841Y-109059446D01*
X132013357Y-109145852D01*
X131803542Y-109719336D01*
X126832000Y-109719336D01*
X126832000Y-108879841D01*
X132449446Y-108879841D01*
X133350000Y-109780395D01*
X134250554Y-108879841D01*
X137529446Y-108879841D01*
X138430000Y-109780395D01*
X139330554Y-108879841D01*
X139244148Y-108623357D01*
X138670664Y-108413542D01*
X138060540Y-108439161D01*
X137615852Y-108623357D01*
X137529446Y-108879841D01*
X134250554Y-108879841D01*
X134164148Y-108623357D01*
X133590664Y-108413542D01*
X132980540Y-108439161D01*
X132535852Y-108623357D01*
X132449446Y-108879841D01*
X126832000Y-108879841D01*
X126832000Y-100775159D01*
X132449446Y-100775159D01*
X132535852Y-101031643D01*
X133109336Y-101241458D01*
X133719460Y-101215839D01*
X134164148Y-101031643D01*
X134250554Y-100775159D01*
X137529446Y-100775159D01*
X137615852Y-101031643D01*
X138189336Y-101241458D01*
X138799460Y-101215839D01*
X139244148Y-101031643D01*
X139330554Y-100775159D01*
X138430000Y-99874605D01*
X137529446Y-100775159D01*
X134250554Y-100775159D01*
X133350000Y-99874605D01*
X132449446Y-100775159D01*
X126832000Y-100775159D01*
X126832000Y-99454336D01*
X131803542Y-99454336D01*
X131829161Y-100064460D01*
X132013357Y-100509148D01*
X132269841Y-100595554D01*
X133170395Y-99695000D01*
X133529605Y-99695000D01*
X134430159Y-100595554D01*
X134686643Y-100509148D01*
X134896458Y-99935664D01*
X134876248Y-99454336D01*
X136883542Y-99454336D01*
X136909161Y-100064460D01*
X137093357Y-100509148D01*
X137349841Y-100595554D01*
X138250395Y-99695000D01*
X137349841Y-98794446D01*
X137093357Y-98880852D01*
X136883542Y-99454336D01*
X134876248Y-99454336D01*
X134870839Y-99325540D01*
X134686643Y-98880852D01*
X134430159Y-98794446D01*
X133529605Y-99695000D01*
X133170395Y-99695000D01*
X132269841Y-98794446D01*
X132013357Y-98880852D01*
X131803542Y-99454336D01*
X126832000Y-99454336D01*
X126832000Y-98614841D01*
X132449446Y-98614841D01*
X133350000Y-99515395D01*
X134250554Y-98614841D01*
X134164148Y-98358357D01*
X133590664Y-98148542D01*
X132980540Y-98174161D01*
X132535852Y-98358357D01*
X132449446Y-98614841D01*
X126832000Y-98614841D01*
X126832000Y-97536622D01*
X133962666Y-97536622D01*
X134255416Y-98245132D01*
X134797017Y-98787678D01*
X135505014Y-99081665D01*
X136271622Y-99082334D01*
X136980132Y-98789584D01*
X137155179Y-98614841D01*
X137529446Y-98614841D01*
X138430000Y-99515395D01*
X138444143Y-99501253D01*
X138623748Y-99680858D01*
X138609605Y-99695000D01*
X139103088Y-100188483D01*
X139209369Y-100445703D01*
X139582334Y-100819319D01*
X140069885Y-101021769D01*
X140597798Y-101022229D01*
X141015127Y-100849792D01*
X140828231Y-101299885D01*
X140827771Y-101827798D01*
X141029369Y-102315703D01*
X141402334Y-102689319D01*
X141548105Y-102749849D01*
X141547771Y-103132798D01*
X141749369Y-103620703D01*
X142122334Y-103994319D01*
X142609885Y-104196769D01*
X142817950Y-104196950D01*
X142817771Y-104402798D01*
X143019369Y-104890703D01*
X143392334Y-105264319D01*
X143879885Y-105466769D01*
X144407798Y-105467229D01*
X144895703Y-105265631D01*
X145269319Y-104892666D01*
X145471769Y-104405115D01*
X145471950Y-104197050D01*
X145677798Y-104197229D01*
X146165703Y-103995631D01*
X146539319Y-103622666D01*
X146685109Y-103271567D01*
X146829369Y-103620703D01*
X147202334Y-103994319D01*
X147689885Y-104196769D01*
X148217798Y-104197229D01*
X148705703Y-103995631D01*
X149079319Y-103622666D01*
X149225109Y-103271567D01*
X149369369Y-103620703D01*
X149742334Y-103994319D01*
X150229885Y-104196769D01*
X150757798Y-104197229D01*
X151245703Y-103995631D01*
X151619319Y-103622666D01*
X151765109Y-103271567D01*
X151909369Y-103620703D01*
X152282334Y-103994319D01*
X152769885Y-104196769D01*
X153297798Y-104197229D01*
X153785703Y-103995631D01*
X154159319Y-103622666D01*
X154305109Y-103271567D01*
X154449369Y-103620703D01*
X154822334Y-103994319D01*
X155149145Y-104130024D01*
X155068231Y-104324885D01*
X155067771Y-104852798D01*
X155269369Y-105340703D01*
X155642334Y-105714319D01*
X156129885Y-105916769D01*
X156657798Y-105917229D01*
X157145703Y-105715631D01*
X157519319Y-105342666D01*
X157721769Y-104855115D01*
X157722229Y-104327202D01*
X157520631Y-103839297D01*
X157147666Y-103465681D01*
X156820855Y-103329976D01*
X156901769Y-103135115D01*
X156902229Y-102607202D01*
X156700631Y-102119297D01*
X156327666Y-101745681D01*
X155840115Y-101543231D01*
X155312202Y-101542771D01*
X154824297Y-101744369D01*
X154450681Y-102117334D01*
X154304891Y-102468433D01*
X154160631Y-102119297D01*
X153787666Y-101745681D01*
X153300115Y-101543231D01*
X152772202Y-101542771D01*
X152284297Y-101744369D01*
X151910681Y-102117334D01*
X151764891Y-102468433D01*
X151620631Y-102119297D01*
X151247666Y-101745681D01*
X150760115Y-101543231D01*
X150421874Y-101542936D01*
X150551769Y-101230115D01*
X150552229Y-100702202D01*
X150350631Y-100214297D01*
X149977666Y-99840681D01*
X149626567Y-99694891D01*
X149975703Y-99550631D01*
X150349319Y-99177666D01*
X150551769Y-98690115D01*
X150552229Y-98162202D01*
X150507025Y-98052798D01*
X152977771Y-98052798D01*
X153131691Y-98425314D01*
X152978231Y-98794885D01*
X152977771Y-99322798D01*
X153131691Y-99695314D01*
X152978231Y-100064885D01*
X152977771Y-100592798D01*
X153179369Y-101080703D01*
X153552334Y-101454319D01*
X154039885Y-101656769D01*
X154567798Y-101657229D01*
X155055703Y-101455631D01*
X155429319Y-101082666D01*
X155631769Y-100595115D01*
X155632229Y-100067202D01*
X155478309Y-99694686D01*
X155631769Y-99325115D01*
X155632229Y-98797202D01*
X155478309Y-98424686D01*
X155631769Y-98055115D01*
X155632229Y-97527202D01*
X155430631Y-97039297D01*
X155057666Y-96665681D01*
X154570115Y-96463231D01*
X154042202Y-96462771D01*
X153554297Y-96664369D01*
X153180681Y-97037334D01*
X152978231Y-97524885D01*
X152977771Y-98052798D01*
X150507025Y-98052798D01*
X150398309Y-97789686D01*
X150551769Y-97420115D01*
X150552229Y-96892202D01*
X150350631Y-96404297D01*
X149977666Y-96030681D01*
X149490115Y-95828231D01*
X148962202Y-95827771D01*
X148474297Y-96029369D01*
X148100681Y-96402334D01*
X147898231Y-96889885D01*
X147897771Y-97417798D01*
X148051691Y-97790314D01*
X148003863Y-97905497D01*
X147625125Y-97748231D01*
X147097212Y-97747771D01*
X146684587Y-97918264D01*
X146275105Y-97748231D01*
X145747192Y-97747771D01*
X145259287Y-97949369D01*
X144885671Y-98322334D01*
X144683221Y-98809885D01*
X144682761Y-99337798D01*
X144884359Y-99825703D01*
X145257324Y-100199319D01*
X145744875Y-100401769D01*
X146272788Y-100402229D01*
X146685413Y-100231736D01*
X147094895Y-100401769D01*
X147622808Y-100402229D01*
X148110713Y-100200631D01*
X148484329Y-99827666D01*
X148581147Y-99594503D01*
X148823433Y-99695109D01*
X148474297Y-99839369D01*
X148100681Y-100212334D01*
X147898231Y-100699885D01*
X147897771Y-101227798D01*
X148028036Y-101543064D01*
X147692202Y-101542771D01*
X147204297Y-101744369D01*
X146830681Y-102117334D01*
X146684891Y-102468433D01*
X146540631Y-102119297D01*
X146167666Y-101745681D01*
X145680115Y-101543231D01*
X145152202Y-101542771D01*
X144664297Y-101744369D01*
X144290681Y-102117334D01*
X144144891Y-102468433D01*
X144000631Y-102119297D01*
X143627666Y-101745681D01*
X143481895Y-101685151D01*
X143482229Y-101302202D01*
X143280631Y-100814297D01*
X142907666Y-100440681D01*
X142420115Y-100238231D01*
X141892202Y-100237771D01*
X141474873Y-100410208D01*
X141661769Y-99960115D01*
X141662229Y-99432202D01*
X141508309Y-99059686D01*
X141661769Y-98690115D01*
X141662229Y-98162202D01*
X141508309Y-97789686D01*
X141661769Y-97420115D01*
X141662144Y-96989592D01*
X141749369Y-97200693D01*
X142122334Y-97574309D01*
X142609885Y-97776759D01*
X143137798Y-97777219D01*
X143625703Y-97575621D01*
X143999319Y-97202656D01*
X144201769Y-96715105D01*
X144202229Y-96187192D01*
X144000631Y-95699287D01*
X143627666Y-95325671D01*
X143140115Y-95123221D01*
X142612202Y-95122761D01*
X142124297Y-95324359D01*
X141750681Y-95697324D01*
X141548231Y-96184875D01*
X141547856Y-96615398D01*
X141460631Y-96404297D01*
X141087666Y-96030681D01*
X140600115Y-95828231D01*
X140072202Y-95827771D01*
X139584297Y-96029369D01*
X139210681Y-96402334D01*
X139008231Y-96889885D01*
X139007771Y-97417798D01*
X139161691Y-97790314D01*
X139008231Y-98159885D01*
X139008133Y-98272009D01*
X138670664Y-98148542D01*
X138060540Y-98174161D01*
X137615852Y-98358357D01*
X137529446Y-98614841D01*
X137155179Y-98614841D01*
X137522678Y-98247983D01*
X137816665Y-97539986D01*
X137817334Y-96773378D01*
X137524584Y-96064868D01*
X137155519Y-95695159D01*
X137529446Y-95695159D01*
X137615852Y-95951643D01*
X138189336Y-96161458D01*
X138799460Y-96135839D01*
X139244148Y-95951643D01*
X139330554Y-95695159D01*
X138430000Y-94794605D01*
X137529446Y-95695159D01*
X137155519Y-95695159D01*
X136982983Y-95522322D01*
X136274986Y-95228335D01*
X135508378Y-95227666D01*
X134799868Y-95520416D01*
X134257322Y-96062017D01*
X133963335Y-96770014D01*
X133962666Y-97536622D01*
X126832000Y-97536622D01*
X126832000Y-95695159D01*
X132449446Y-95695159D01*
X132535852Y-95951643D01*
X133109336Y-96161458D01*
X133719460Y-96135839D01*
X134164148Y-95951643D01*
X134250554Y-95695159D01*
X133350000Y-94794605D01*
X132449446Y-95695159D01*
X126832000Y-95695159D01*
X126832000Y-93812000D01*
X132009278Y-93812000D01*
X131803542Y-94374336D01*
X131803542Y-94374336D01*
G37*
X131803542Y-94374336D02*
X131829161Y-94984460D01*
X132013357Y-95429148D01*
X132269841Y-95515554D01*
X133170395Y-94615000D01*
X133156253Y-94600858D01*
X133335858Y-94421253D01*
X133350000Y-94435395D01*
X133364143Y-94421253D01*
X133543748Y-94600858D01*
X133529605Y-94615000D01*
X134430159Y-95515554D01*
X134686643Y-95429148D01*
X134896458Y-94855664D01*
X134870839Y-94245540D01*
X134691261Y-93812000D01*
X137089278Y-93812000D01*
X136883542Y-94374336D01*
X136909161Y-94984460D01*
X137093357Y-95429148D01*
X137349841Y-95515554D01*
X138250395Y-94615000D01*
X138236253Y-94600858D01*
X138415858Y-94421253D01*
X138430000Y-94435395D01*
X138444143Y-94421253D01*
X138623748Y-94600858D01*
X138609605Y-94615000D01*
X139510159Y-95515554D01*
X139766643Y-95429148D01*
X139976458Y-94855664D01*
X139950839Y-94245540D01*
X139771261Y-93812000D01*
X161458000Y-93812000D01*
X161458000Y-100908146D01*
X161027202Y-100907771D01*
X160539297Y-101109369D01*
X160165681Y-101482334D01*
X159963231Y-101969885D01*
X159962771Y-102497798D01*
X160164369Y-102985703D01*
X160537334Y-103359319D01*
X161024885Y-103561769D01*
X161458000Y-103562146D01*
X161458000Y-113099000D01*
X160940750Y-113099000D01*
X160782000Y-113257750D01*
X160782000Y-114623000D01*
X160802000Y-114623000D01*
X160802000Y-114877000D01*
X160782000Y-114877000D01*
X160782000Y-114897000D01*
X160528000Y-114897000D01*
X160528000Y-114877000D01*
X160508000Y-114877000D01*
X160508000Y-114623000D01*
X160528000Y-114623000D01*
X160528000Y-113257750D01*
X160369250Y-113099000D01*
X159665090Y-113099000D01*
X159431701Y-113195673D01*
X159424760Y-113202614D01*
X158838501Y-112810888D01*
X158115000Y-112666975D01*
X157391499Y-112810888D01*
X156845000Y-113176047D01*
X156298501Y-112810888D01*
X155575000Y-112666975D01*
X154851499Y-112810888D01*
X154305000Y-113176047D01*
X153758501Y-112810888D01*
X153035000Y-112666975D01*
X152311499Y-112810888D01*
X151765000Y-113176047D01*
X151218501Y-112810888D01*
X150495000Y-112666975D01*
X149771499Y-112810888D01*
X149225000Y-113176047D01*
X148678501Y-112810888D01*
X147955000Y-112666975D01*
X147231499Y-112810888D01*
X146685000Y-113176047D01*
X146138501Y-112810888D01*
X145415000Y-112666975D01*
X144691499Y-112810888D01*
X144145000Y-113176047D01*
X143598501Y-112810888D01*
X142875000Y-112666975D01*
X142151499Y-112810888D01*
X141538144Y-113220719D01*
X141128313Y-113834074D01*
X140984400Y-114557575D01*
X140984400Y-114942425D01*
X141128313Y-115665926D01*
X141176471Y-115738000D01*
X139809137Y-115738000D01*
X139976458Y-115280664D01*
X139950839Y-114670540D01*
X139766643Y-114225852D01*
X139510159Y-114139446D01*
X138609605Y-115040000D01*
X138623748Y-115054143D01*
X138444143Y-115233748D01*
X138430000Y-115219605D01*
X138415858Y-115233748D01*
X138236253Y-115054143D01*
X138250395Y-115040000D01*
X137349841Y-114139446D01*
X137093357Y-114225852D01*
X136883542Y-114799336D01*
X136909161Y-115409460D01*
X137045247Y-115738000D01*
X134729137Y-115738000D01*
X134896458Y-115280664D01*
X134870839Y-114670540D01*
X134686643Y-114225852D01*
X134430159Y-114139446D01*
X133529605Y-115040000D01*
X133543748Y-115054143D01*
X133364143Y-115233748D01*
X133350000Y-115219605D01*
X133335858Y-115233748D01*
X133156253Y-115054143D01*
X133170395Y-115040000D01*
X132269841Y-114139446D01*
X132013357Y-114225852D01*
X131803542Y-114799336D01*
X131829161Y-115409460D01*
X131965247Y-115738000D01*
X126832000Y-115738000D01*
X126832000Y-113959841D01*
X132449446Y-113959841D01*
X133350000Y-114860395D01*
X134250554Y-113959841D01*
X134164148Y-113703357D01*
X133590664Y-113493542D01*
X132980540Y-113519161D01*
X132535852Y-113703357D01*
X132449446Y-113959841D01*
X126832000Y-113959841D01*
X126832000Y-112881622D01*
X133962666Y-112881622D01*
X134255416Y-113590132D01*
X134797017Y-114132678D01*
X135505014Y-114426665D01*
X136271622Y-114427334D01*
X136980132Y-114134584D01*
X137155179Y-113959841D01*
X137529446Y-113959841D01*
X138430000Y-114860395D01*
X139330554Y-113959841D01*
X139244148Y-113703357D01*
X138670664Y-113493542D01*
X138060540Y-113519161D01*
X137615852Y-113703357D01*
X137529446Y-113959841D01*
X137155179Y-113959841D01*
X137522678Y-113592983D01*
X137816665Y-112884986D01*
X137817334Y-112118378D01*
X137524584Y-111409868D01*
X137155519Y-111040159D01*
X137529446Y-111040159D01*
X137615852Y-111296643D01*
X138189336Y-111506458D01*
X138799460Y-111480839D01*
X139244148Y-111296643D01*
X139330554Y-111040159D01*
X138430000Y-110139605D01*
X137529446Y-111040159D01*
X137155519Y-111040159D01*
X136982983Y-110867322D01*
X136274986Y-110573335D01*
X135508378Y-110572666D01*
X134799868Y-110865416D01*
X134257322Y-111407017D01*
X133963335Y-112115014D01*
X133962666Y-112881622D01*
X126832000Y-112881622D01*
X126832000Y-111040159D01*
X132449446Y-111040159D01*
X132535852Y-111296643D01*
X133109336Y-111506458D01*
X133719460Y-111480839D01*
X134164148Y-111296643D01*
X134250554Y-111040159D01*
X133350000Y-110139605D01*
X132449446Y-111040159D01*
X126832000Y-111040159D01*
X126832000Y-109719336D01*
X131803542Y-109719336D01*
X131829161Y-110329460D01*
X132013357Y-110774148D01*
X132269841Y-110860554D01*
X133170395Y-109960000D01*
X133529605Y-109960000D01*
X134430159Y-110860554D01*
X134686643Y-110774148D01*
X134896458Y-110200664D01*
X134876248Y-109719336D01*
X136883542Y-109719336D01*
X136909161Y-110329460D01*
X137093357Y-110774148D01*
X137349841Y-110860554D01*
X138250395Y-109960000D01*
X138609605Y-109960000D01*
X139510159Y-110860554D01*
X139766643Y-110774148D01*
X139976458Y-110200664D01*
X139950839Y-109590540D01*
X139766643Y-109145852D01*
X139510159Y-109059446D01*
X138609605Y-109960000D01*
X138250395Y-109960000D01*
X137349841Y-109059446D01*
X137093357Y-109145852D01*
X136883542Y-109719336D01*
X134876248Y-109719336D01*
X134870839Y-109590540D01*
X134686643Y-109145852D01*
X134430159Y-109059446D01*
X133529605Y-109960000D01*
X133170395Y-109960000D01*
X132269841Y-109059446D01*
X132013357Y-109145852D01*
X131803542Y-109719336D01*
X126832000Y-109719336D01*
X126832000Y-108879841D01*
X132449446Y-108879841D01*
X133350000Y-109780395D01*
X134250554Y-108879841D01*
X137529446Y-108879841D01*
X138430000Y-109780395D01*
X139330554Y-108879841D01*
X139244148Y-108623357D01*
X138670664Y-108413542D01*
X138060540Y-108439161D01*
X137615852Y-108623357D01*
X137529446Y-108879841D01*
X134250554Y-108879841D01*
X134164148Y-108623357D01*
X133590664Y-108413542D01*
X132980540Y-108439161D01*
X132535852Y-108623357D01*
X132449446Y-108879841D01*
X126832000Y-108879841D01*
X126832000Y-100775159D01*
X132449446Y-100775159D01*
X132535852Y-101031643D01*
X133109336Y-101241458D01*
X133719460Y-101215839D01*
X134164148Y-101031643D01*
X134250554Y-100775159D01*
X137529446Y-100775159D01*
X137615852Y-101031643D01*
X138189336Y-101241458D01*
X138799460Y-101215839D01*
X139244148Y-101031643D01*
X139330554Y-100775159D01*
X138430000Y-99874605D01*
X137529446Y-100775159D01*
X134250554Y-100775159D01*
X133350000Y-99874605D01*
X132449446Y-100775159D01*
X126832000Y-100775159D01*
X126832000Y-99454336D01*
X131803542Y-99454336D01*
X131829161Y-100064460D01*
X132013357Y-100509148D01*
X132269841Y-100595554D01*
X133170395Y-99695000D01*
X133529605Y-99695000D01*
X134430159Y-100595554D01*
X134686643Y-100509148D01*
X134896458Y-99935664D01*
X134876248Y-99454336D01*
X136883542Y-99454336D01*
X136909161Y-100064460D01*
X137093357Y-100509148D01*
X137349841Y-100595554D01*
X138250395Y-99695000D01*
X137349841Y-98794446D01*
X137093357Y-98880852D01*
X136883542Y-99454336D01*
X134876248Y-99454336D01*
X134870839Y-99325540D01*
X134686643Y-98880852D01*
X134430159Y-98794446D01*
X133529605Y-99695000D01*
X133170395Y-99695000D01*
X132269841Y-98794446D01*
X132013357Y-98880852D01*
X131803542Y-99454336D01*
X126832000Y-99454336D01*
X126832000Y-98614841D01*
X132449446Y-98614841D01*
X133350000Y-99515395D01*
X134250554Y-98614841D01*
X134164148Y-98358357D01*
X133590664Y-98148542D01*
X132980540Y-98174161D01*
X132535852Y-98358357D01*
X132449446Y-98614841D01*
X126832000Y-98614841D01*
X126832000Y-97536622D01*
X133962666Y-97536622D01*
X134255416Y-98245132D01*
X134797017Y-98787678D01*
X135505014Y-99081665D01*
X136271622Y-99082334D01*
X136980132Y-98789584D01*
X137155179Y-98614841D01*
X137529446Y-98614841D01*
X138430000Y-99515395D01*
X138444143Y-99501253D01*
X138623748Y-99680858D01*
X138609605Y-99695000D01*
X139103088Y-100188483D01*
X139209369Y-100445703D01*
X139582334Y-100819319D01*
X140069885Y-101021769D01*
X140597798Y-101022229D01*
X141015127Y-100849792D01*
X140828231Y-101299885D01*
X140827771Y-101827798D01*
X141029369Y-102315703D01*
X141402334Y-102689319D01*
X141548105Y-102749849D01*
X141547771Y-103132798D01*
X141749369Y-103620703D01*
X142122334Y-103994319D01*
X142609885Y-104196769D01*
X142817950Y-104196950D01*
X142817771Y-104402798D01*
X143019369Y-104890703D01*
X143392334Y-105264319D01*
X143879885Y-105466769D01*
X144407798Y-105467229D01*
X144895703Y-105265631D01*
X145269319Y-104892666D01*
X145471769Y-104405115D01*
X145471950Y-104197050D01*
X145677798Y-104197229D01*
X146165703Y-103995631D01*
X146539319Y-103622666D01*
X146685109Y-103271567D01*
X146829369Y-103620703D01*
X147202334Y-103994319D01*
X147689885Y-104196769D01*
X148217798Y-104197229D01*
X148705703Y-103995631D01*
X149079319Y-103622666D01*
X149225109Y-103271567D01*
X149369369Y-103620703D01*
X149742334Y-103994319D01*
X150229885Y-104196769D01*
X150757798Y-104197229D01*
X151245703Y-103995631D01*
X151619319Y-103622666D01*
X151765109Y-103271567D01*
X151909369Y-103620703D01*
X152282334Y-103994319D01*
X152769885Y-104196769D01*
X153297798Y-104197229D01*
X153785703Y-103995631D01*
X154159319Y-103622666D01*
X154305109Y-103271567D01*
X154449369Y-103620703D01*
X154822334Y-103994319D01*
X155149145Y-104130024D01*
X155068231Y-104324885D01*
X155067771Y-104852798D01*
X155269369Y-105340703D01*
X155642334Y-105714319D01*
X156129885Y-105916769D01*
X156657798Y-105917229D01*
X157145703Y-105715631D01*
X157519319Y-105342666D01*
X157721769Y-104855115D01*
X157722229Y-104327202D01*
X157520631Y-103839297D01*
X157147666Y-103465681D01*
X156820855Y-103329976D01*
X156901769Y-103135115D01*
X156902229Y-102607202D01*
X156700631Y-102119297D01*
X156327666Y-101745681D01*
X155840115Y-101543231D01*
X155312202Y-101542771D01*
X154824297Y-101744369D01*
X154450681Y-102117334D01*
X154304891Y-102468433D01*
X154160631Y-102119297D01*
X153787666Y-101745681D01*
X153300115Y-101543231D01*
X152772202Y-101542771D01*
X152284297Y-101744369D01*
X151910681Y-102117334D01*
X151764891Y-102468433D01*
X151620631Y-102119297D01*
X151247666Y-101745681D01*
X150760115Y-101543231D01*
X150421874Y-101542936D01*
X150551769Y-101230115D01*
X150552229Y-100702202D01*
X150350631Y-100214297D01*
X149977666Y-99840681D01*
X149626567Y-99694891D01*
X149975703Y-99550631D01*
X150349319Y-99177666D01*
X150551769Y-98690115D01*
X150552229Y-98162202D01*
X150507025Y-98052798D01*
X152977771Y-98052798D01*
X153131691Y-98425314D01*
X152978231Y-98794885D01*
X152977771Y-99322798D01*
X153131691Y-99695314D01*
X152978231Y-100064885D01*
X152977771Y-100592798D01*
X153179369Y-101080703D01*
X153552334Y-101454319D01*
X154039885Y-101656769D01*
X154567798Y-101657229D01*
X155055703Y-101455631D01*
X155429319Y-101082666D01*
X155631769Y-100595115D01*
X155632229Y-100067202D01*
X155478309Y-99694686D01*
X155631769Y-99325115D01*
X155632229Y-98797202D01*
X155478309Y-98424686D01*
X155631769Y-98055115D01*
X155632229Y-97527202D01*
X155430631Y-97039297D01*
X155057666Y-96665681D01*
X154570115Y-96463231D01*
X154042202Y-96462771D01*
X153554297Y-96664369D01*
X153180681Y-97037334D01*
X152978231Y-97524885D01*
X152977771Y-98052798D01*
X150507025Y-98052798D01*
X150398309Y-97789686D01*
X150551769Y-97420115D01*
X150552229Y-96892202D01*
X150350631Y-96404297D01*
X149977666Y-96030681D01*
X149490115Y-95828231D01*
X148962202Y-95827771D01*
X148474297Y-96029369D01*
X148100681Y-96402334D01*
X147898231Y-96889885D01*
X147897771Y-97417798D01*
X148051691Y-97790314D01*
X148003863Y-97905497D01*
X147625125Y-97748231D01*
X147097212Y-97747771D01*
X146684587Y-97918264D01*
X146275105Y-97748231D01*
X145747192Y-97747771D01*
X145259287Y-97949369D01*
X144885671Y-98322334D01*
X144683221Y-98809885D01*
X144682761Y-99337798D01*
X144884359Y-99825703D01*
X145257324Y-100199319D01*
X145744875Y-100401769D01*
X146272788Y-100402229D01*
X146685413Y-100231736D01*
X147094895Y-100401769D01*
X147622808Y-100402229D01*
X148110713Y-100200631D01*
X148484329Y-99827666D01*
X148581147Y-99594503D01*
X148823433Y-99695109D01*
X148474297Y-99839369D01*
X148100681Y-100212334D01*
X147898231Y-100699885D01*
X147897771Y-101227798D01*
X148028036Y-101543064D01*
X147692202Y-101542771D01*
X147204297Y-101744369D01*
X146830681Y-102117334D01*
X146684891Y-102468433D01*
X146540631Y-102119297D01*
X146167666Y-101745681D01*
X145680115Y-101543231D01*
X145152202Y-101542771D01*
X144664297Y-101744369D01*
X144290681Y-102117334D01*
X144144891Y-102468433D01*
X144000631Y-102119297D01*
X143627666Y-101745681D01*
X143481895Y-101685151D01*
X143482229Y-101302202D01*
X143280631Y-100814297D01*
X142907666Y-100440681D01*
X142420115Y-100238231D01*
X141892202Y-100237771D01*
X141474873Y-100410208D01*
X141661769Y-99960115D01*
X141662229Y-99432202D01*
X141508309Y-99059686D01*
X141661769Y-98690115D01*
X141662229Y-98162202D01*
X141508309Y-97789686D01*
X141661769Y-97420115D01*
X141662144Y-96989592D01*
X141749369Y-97200693D01*
X142122334Y-97574309D01*
X142609885Y-97776759D01*
X143137798Y-97777219D01*
X143625703Y-97575621D01*
X143999319Y-97202656D01*
X144201769Y-96715105D01*
X144202229Y-96187192D01*
X144000631Y-95699287D01*
X143627666Y-95325671D01*
X143140115Y-95123221D01*
X142612202Y-95122761D01*
X142124297Y-95324359D01*
X141750681Y-95697324D01*
X141548231Y-96184875D01*
X141547856Y-96615398D01*
X141460631Y-96404297D01*
X141087666Y-96030681D01*
X140600115Y-95828231D01*
X140072202Y-95827771D01*
X139584297Y-96029369D01*
X139210681Y-96402334D01*
X139008231Y-96889885D01*
X139007771Y-97417798D01*
X139161691Y-97790314D01*
X139008231Y-98159885D01*
X139008133Y-98272009D01*
X138670664Y-98148542D01*
X138060540Y-98174161D01*
X137615852Y-98358357D01*
X137529446Y-98614841D01*
X137155179Y-98614841D01*
X137522678Y-98247983D01*
X137816665Y-97539986D01*
X137817334Y-96773378D01*
X137524584Y-96064868D01*
X137155519Y-95695159D01*
X137529446Y-95695159D01*
X137615852Y-95951643D01*
X138189336Y-96161458D01*
X138799460Y-96135839D01*
X139244148Y-95951643D01*
X139330554Y-95695159D01*
X138430000Y-94794605D01*
X137529446Y-95695159D01*
X137155519Y-95695159D01*
X136982983Y-95522322D01*
X136274986Y-95228335D01*
X135508378Y-95227666D01*
X134799868Y-95520416D01*
X134257322Y-96062017D01*
X133963335Y-96770014D01*
X133962666Y-97536622D01*
X126832000Y-97536622D01*
X126832000Y-95695159D01*
X132449446Y-95695159D01*
X132535852Y-95951643D01*
X133109336Y-96161458D01*
X133719460Y-96135839D01*
X134164148Y-95951643D01*
X134250554Y-95695159D01*
X133350000Y-94794605D01*
X132449446Y-95695159D01*
X126832000Y-95695159D01*
X126832000Y-93812000D01*
X132009278Y-93812000D01*
X131803542Y-94374336D01*
M02*
