G04 #@! TF.FileFunction,Copper,L1,Top,Signal*
%FSLAX46Y46*%
G04 Gerber Fmt 4.6, Leading zero omitted, Abs format (unit mm)*
G04 Created by KiCad (PCBNEW 4.0.2-stable) date Mon Mar 14 23:55:08 2016*
%MOMM*%
G01*
G04 APERTURE LIST*
%ADD10C,0.100000*%
%ADD11R,0.600000X0.500000*%
%ADD12R,1.000000X1.250000*%
%ADD13R,1.250000X1.000000*%
%ADD14R,0.500000X0.600000*%
%ADD15R,1.220000X0.910000*%
%ADD16R,1.727200X2.032000*%
%ADD17O,1.727200X2.032000*%
%ADD18R,0.600000X0.400000*%
%ADD19R,0.400000X0.600000*%
%ADD20C,1.800000*%
%ADD21R,1.060000X0.650000*%
%ADD22O,0.300000X0.750000*%
%ADD23O,0.750000X0.300000*%
%ADD24R,0.900000X0.900000*%
%ADD25R,1.450000X0.450000*%
%ADD26C,0.600000*%
%ADD27C,0.250000*%
%ADD28C,0.350000*%
G04 APERTURE END LIST*
D10*
D11*
X159935000Y-107315000D03*
X158835000Y-107315000D03*
X159935000Y-106045000D03*
X158835000Y-106045000D03*
D12*
X159020000Y-104140000D03*
X161020000Y-104140000D03*
D13*
X161290000Y-101330000D03*
X161290000Y-99330000D03*
D12*
X157115000Y-97790000D03*
X159115000Y-97790000D03*
D11*
X130725000Y-112395000D03*
X129625000Y-112395000D03*
X129625000Y-111125000D03*
X130725000Y-111125000D03*
D14*
X127508000Y-102828000D03*
X127508000Y-103928000D03*
X127508000Y-106680000D03*
X127508000Y-105580000D03*
D11*
X130810000Y-97155000D03*
X129710000Y-97155000D03*
X130810000Y-98425000D03*
X129710000Y-98425000D03*
X141055000Y-100965000D03*
X142155000Y-100965000D03*
D15*
X142875000Y-110490000D03*
X142875000Y-107220000D03*
X145415000Y-110490000D03*
X145415000Y-107220000D03*
X147955000Y-110490000D03*
X147955000Y-107220000D03*
X155575000Y-110490000D03*
X155575000Y-107220000D03*
X153035000Y-110490000D03*
X153035000Y-107220000D03*
X150495000Y-110490000D03*
X150495000Y-107220000D03*
D16*
X160655000Y-114750000D03*
D17*
X158115000Y-114750000D03*
X155575000Y-114750000D03*
X153035000Y-114750000D03*
X150495000Y-114750000D03*
X147955000Y-114750000D03*
X145415000Y-114750000D03*
X142875000Y-114750000D03*
D18*
X142875000Y-104590000D03*
X142875000Y-103690000D03*
X145415000Y-104590000D03*
X145415000Y-103690000D03*
X147955000Y-104590000D03*
X147955000Y-103690000D03*
D19*
X142055000Y-97155000D03*
X141155000Y-97155000D03*
X142055000Y-98425000D03*
X141155000Y-98425000D03*
X142055000Y-99695000D03*
X141155000Y-99695000D03*
X153485000Y-97790000D03*
X152585000Y-97790000D03*
X153485000Y-99060000D03*
X152585000Y-99060000D03*
X153485000Y-100330000D03*
X152585000Y-100330000D03*
D18*
X150495000Y-104590000D03*
X150495000Y-103690000D03*
X153035000Y-104590000D03*
X153035000Y-103690000D03*
X155575000Y-104590000D03*
X155575000Y-103690000D03*
D20*
X135890000Y-112500000D03*
X138430000Y-115040000D03*
X133350000Y-115040000D03*
X133350000Y-109960000D03*
X138430000Y-109960000D03*
D21*
X159215000Y-101915000D03*
X159215000Y-100965000D03*
X159215000Y-100015000D03*
X157015000Y-100015000D03*
X157015000Y-101915000D03*
X157015000Y-100965000D03*
D22*
X129610000Y-105975000D03*
X130110000Y-105975000D03*
X130610000Y-105975000D03*
X131110000Y-105975000D03*
D23*
X131835000Y-105250000D03*
X131835000Y-104750000D03*
X131835000Y-104250000D03*
X131835000Y-103750000D03*
D22*
X131110000Y-103025000D03*
X130610000Y-103025000D03*
X130110000Y-103025000D03*
X129610000Y-103025000D03*
D23*
X128885000Y-103750000D03*
X128885000Y-104250000D03*
X128885000Y-104750000D03*
X128885000Y-105250000D03*
D24*
X130810000Y-104050000D03*
X129910000Y-104050000D03*
X130810000Y-104950000D03*
X129910000Y-104950000D03*
D20*
X135890000Y-97155000D03*
X133350000Y-94615000D03*
X138430000Y-94615000D03*
X138430000Y-99695000D03*
X133350000Y-99695000D03*
D25*
X144745000Y-96475000D03*
X144745000Y-97125000D03*
X144745000Y-97775000D03*
X144745000Y-98425000D03*
X144745000Y-99075000D03*
X144745000Y-99725000D03*
X144745000Y-100375000D03*
X150645000Y-100375000D03*
X150645000Y-99725000D03*
X150645000Y-99075000D03*
X150645000Y-98425000D03*
X150645000Y-97775000D03*
X150645000Y-97125000D03*
X150645000Y-96475000D03*
D26*
X127508000Y-102108000D03*
X127508000Y-107696000D03*
X130810000Y-104050000D03*
X129910000Y-104050000D03*
X129910000Y-104950000D03*
X130810000Y-104950000D03*
X160655000Y-107315000D03*
X160655000Y-106045000D03*
X141055000Y-101565000D03*
X152355000Y-96475000D03*
X155575000Y-100965000D03*
X161925000Y-104140000D03*
X161290000Y-98425000D03*
X127508000Y-104648000D03*
X142155000Y-101565000D03*
X142875000Y-102870000D03*
X161290000Y-102235000D03*
X155575000Y-102870000D03*
X153035000Y-102870000D03*
X150495000Y-102870000D03*
X147955000Y-102870000D03*
X145415000Y-102870000D03*
X142875000Y-96449990D03*
X144145000Y-104140000D03*
X147360010Y-99075000D03*
X146009990Y-99075000D03*
X149225000Y-97155000D03*
X156395000Y-104590000D03*
X149225000Y-98425000D03*
X149225000Y-100965000D03*
X137922000Y-103124000D03*
X140335000Y-97155000D03*
X139192000Y-102870000D03*
X140335000Y-98425000D03*
X140335000Y-99695000D03*
X140462000Y-108966000D03*
X154305000Y-97790000D03*
X140716000Y-107950000D03*
X154305000Y-99060000D03*
X139954000Y-106426000D03*
X154305000Y-100330000D03*
D27*
X127508000Y-102278000D02*
X127508000Y-102108000D01*
X127508000Y-102828000D02*
X127508000Y-102278000D01*
X127508000Y-107442000D02*
X127508000Y-107696000D01*
X127508000Y-106680000D02*
X127508000Y-107442000D01*
X129910000Y-104050000D02*
X130810000Y-104050000D01*
X129910000Y-104950000D02*
X129910000Y-104050000D01*
X130810000Y-104950000D02*
X129910000Y-104950000D01*
X130810000Y-104050000D02*
X130810000Y-104950000D01*
X130610000Y-105975000D02*
X130610000Y-105150000D01*
X130610000Y-105150000D02*
X130810000Y-104950000D01*
X129610000Y-105975000D02*
X129610000Y-104350000D01*
X129610000Y-104350000D02*
X129910000Y-104050000D01*
X129610000Y-103025000D02*
X129610000Y-103750000D01*
X129610000Y-103750000D02*
X129910000Y-104050000D01*
X130610000Y-103025000D02*
X130610000Y-103850000D01*
X130610000Y-103850000D02*
X130810000Y-104050000D01*
D28*
X159935000Y-107315000D02*
X160655000Y-107315000D01*
X159935000Y-106045000D02*
X160655000Y-106045000D01*
X141020000Y-101600000D02*
X141055000Y-101565000D01*
X141055000Y-100965000D02*
X141055000Y-101565000D01*
X150645000Y-96475000D02*
X152355000Y-96475000D01*
X156210000Y-100965000D02*
X155575000Y-100965000D01*
X157015000Y-100965000D02*
X156210000Y-100965000D01*
X161020000Y-104140000D02*
X161925000Y-104140000D01*
X161290000Y-99330000D02*
X161290000Y-98425000D01*
X158835000Y-111675000D02*
X158115000Y-112395000D01*
X158115000Y-112395000D02*
X158115000Y-114750000D01*
X158835000Y-107315000D02*
X158835000Y-111675000D01*
X158835000Y-107315000D02*
X158835000Y-106045000D01*
X158835000Y-106045000D02*
X158835000Y-104325000D01*
X158835000Y-104325000D02*
X159020000Y-104140000D01*
X157015000Y-101915000D02*
X159215000Y-101915000D01*
X159215000Y-101915000D02*
X159215000Y-103945000D01*
X159215000Y-103945000D02*
X159020000Y-104140000D01*
D27*
X127508000Y-103928000D02*
X127508000Y-104648000D01*
X127508000Y-104648000D02*
X127508000Y-105580000D01*
X128885000Y-104750000D02*
X127610000Y-104750000D01*
X127610000Y-104750000D02*
X127508000Y-104648000D01*
D28*
X142190000Y-101600000D02*
X142155000Y-101565000D01*
X142155000Y-100965000D02*
X142155000Y-101565000D01*
X142875000Y-100965000D02*
X143465000Y-100375000D01*
X143465000Y-100375000D02*
X144745000Y-100375000D01*
X142155000Y-100965000D02*
X142875000Y-100965000D01*
X142875000Y-103140000D02*
X142875000Y-102870000D01*
X142875000Y-103690000D02*
X142875000Y-103140000D01*
X161290000Y-101330000D02*
X161290000Y-102235000D01*
X159215000Y-100965000D02*
X160925000Y-100965000D01*
X160925000Y-100965000D02*
X161290000Y-101330000D01*
X155575000Y-103690000D02*
X155575000Y-102870000D01*
X153035000Y-103690000D02*
X153035000Y-102870000D01*
X150495000Y-103690000D02*
X150495000Y-102870000D01*
X147955000Y-103690000D02*
X147955000Y-102870000D01*
X145415000Y-103690000D02*
X145415000Y-102870000D01*
X157115000Y-97790000D02*
X157115000Y-99915000D01*
X157115000Y-99915000D02*
X157015000Y-100015000D01*
X159115000Y-97790000D02*
X159115000Y-99915000D01*
X159115000Y-99915000D02*
X159215000Y-100015000D01*
X130725000Y-111125000D02*
X130725000Y-112395000D01*
X135890000Y-112500000D02*
X130830000Y-112500000D01*
X130830000Y-112500000D02*
X130725000Y-112395000D01*
D27*
X130110000Y-105975000D02*
X130110000Y-106872000D01*
X130110000Y-106872000D02*
X130048000Y-106934000D01*
D28*
X130048000Y-110102000D02*
X130048000Y-106934000D01*
X129625000Y-111125000D02*
X129625000Y-110525000D01*
X129625000Y-110525000D02*
X130048000Y-110102000D01*
X129625000Y-112395000D02*
X129625000Y-111125000D01*
X130810000Y-97155000D02*
X130810000Y-98425000D01*
X135890000Y-97155000D02*
X130810000Y-97155000D01*
X130048000Y-102108000D02*
X129710000Y-101770000D01*
X129710000Y-101770000D02*
X129710000Y-98425000D01*
D27*
X130048000Y-102338000D02*
X130048000Y-102108000D01*
X130110000Y-103025000D02*
X130110000Y-102400000D01*
X130110000Y-102400000D02*
X130048000Y-102338000D01*
D28*
X129710000Y-97155000D02*
X129710000Y-98425000D01*
X142875000Y-114750000D02*
X142875000Y-110490000D01*
X142875000Y-96449990D02*
X144719990Y-96449990D01*
X144719990Y-96449990D02*
X144745000Y-96475000D01*
X143695000Y-104590000D02*
X144145000Y-104140000D01*
X142875000Y-104590000D02*
X143695000Y-104590000D01*
X142875000Y-104590000D02*
X142875000Y-107220000D01*
X145415000Y-110490000D02*
X145415000Y-114750000D01*
X145415000Y-104590000D02*
X146235000Y-104590000D01*
X146235000Y-104590000D02*
X146685000Y-104140000D01*
X146685000Y-104140000D02*
X146685000Y-98425000D01*
X146685000Y-98425000D02*
X146035000Y-97775000D01*
X146035000Y-97775000D02*
X144745000Y-97775000D01*
X145415000Y-104590000D02*
X145415000Y-107220000D01*
X147955000Y-114750000D02*
X147955000Y-110490000D01*
X147360010Y-99075000D02*
X147360010Y-101276008D01*
X147360010Y-101276008D02*
X149225000Y-103140998D01*
X149225000Y-103140998D02*
X149225000Y-104140000D01*
X149225000Y-104140000D02*
X148775000Y-104590000D01*
X148775000Y-104590000D02*
X147955000Y-104590000D01*
X144745000Y-99075000D02*
X146009990Y-99075000D01*
X146035000Y-99075000D02*
X146009990Y-99075000D01*
X147955000Y-104590000D02*
X147955000Y-107220000D01*
X155575000Y-114750000D02*
X155575000Y-110490000D01*
X150645000Y-97125000D02*
X149255000Y-97125000D01*
X149255000Y-97125000D02*
X149225000Y-97155000D01*
X155575000Y-104590000D02*
X156395000Y-104590000D01*
X155575000Y-104590000D02*
X155575000Y-107220000D01*
X153035000Y-114750000D02*
X153035000Y-110490000D01*
X150645000Y-98425000D02*
X149225000Y-98425000D01*
X149860000Y-101600000D02*
X149225000Y-100965000D01*
X152764002Y-101600000D02*
X149860000Y-101600000D01*
X154305000Y-102235000D02*
X153399002Y-102235000D01*
X153399002Y-102235000D02*
X152764002Y-101600000D01*
X154305000Y-104140000D02*
X154305000Y-102235000D01*
X153855000Y-104590000D02*
X154305000Y-104140000D01*
X153035000Y-104590000D02*
X153855000Y-104590000D01*
X153035000Y-104590000D02*
X153035000Y-107220000D01*
X150495000Y-114750000D02*
X150495000Y-110490000D01*
X147955000Y-100330000D02*
X148560000Y-99725000D01*
X148560000Y-99725000D02*
X150645000Y-99725000D01*
X147955000Y-100965000D02*
X147955000Y-100330000D01*
X149225000Y-102235000D02*
X147955000Y-100965000D01*
X149860000Y-102235000D02*
X149225000Y-102235000D01*
X149900001Y-102194999D02*
X149860000Y-102235000D01*
X151765000Y-102870000D02*
X151089999Y-102194999D01*
X151089999Y-102194999D02*
X149900001Y-102194999D01*
X151765000Y-104140000D02*
X151765000Y-102870000D01*
X151315000Y-104590000D02*
X151765000Y-104140000D01*
X150495000Y-104590000D02*
X151315000Y-104590000D01*
X150495000Y-104590000D02*
X150495000Y-107220000D01*
X144745000Y-97125000D02*
X142085000Y-97125000D01*
X142085000Y-97125000D02*
X142055000Y-97155000D01*
D27*
X131802000Y-102108000D02*
X135636000Y-102108000D01*
X136352001Y-102824001D02*
X135636000Y-102108000D01*
X137922000Y-103124000D02*
X137622001Y-102824001D01*
X137622001Y-102824001D02*
X136352001Y-102824001D01*
X131110000Y-103025000D02*
X131110000Y-102800000D01*
X131110000Y-102800000D02*
X131802000Y-102108000D01*
D28*
X141155000Y-97155000D02*
X140335000Y-97155000D01*
X142055000Y-98425000D02*
X144745000Y-98425000D01*
D27*
X138312000Y-103750000D02*
X139192000Y-102870000D01*
X135010000Y-103750000D02*
X138312000Y-103750000D01*
X131835000Y-103750000D02*
X135010000Y-103750000D01*
D28*
X141155000Y-98425000D02*
X140335000Y-98425000D01*
X142055000Y-99695000D02*
X144715000Y-99695000D01*
X144715000Y-99695000D02*
X144745000Y-99725000D01*
D27*
X131835000Y-104250000D02*
X138828000Y-104250000D01*
X138828000Y-104250000D02*
X140335000Y-102743000D01*
X140335000Y-102743000D02*
X140335000Y-99695000D01*
D28*
X141155000Y-99695000D02*
X140335000Y-99695000D01*
D27*
X138430000Y-106934000D02*
X140462000Y-108966000D01*
X135890000Y-106934000D02*
X138430000Y-106934000D01*
X131444000Y-106934000D02*
X135890000Y-106934000D01*
X131110000Y-105975000D02*
X131110000Y-106600000D01*
X131110000Y-106600000D02*
X131444000Y-106934000D01*
D28*
X153485000Y-97790000D02*
X154305000Y-97790000D01*
X152585000Y-97790000D02*
X150660000Y-97790000D01*
X150660000Y-97790000D02*
X150645000Y-97775000D01*
D27*
X140082410Y-107950000D02*
X140716000Y-107950000D01*
X135890000Y-105918000D02*
X138050410Y-105918000D01*
X138050410Y-105918000D02*
X140082410Y-107950000D01*
X135222000Y-105250000D02*
X135890000Y-105918000D01*
X131835000Y-105250000D02*
X135222000Y-105250000D01*
D28*
X153485000Y-99060000D02*
X154305000Y-99060000D01*
X150645000Y-99075000D02*
X152570000Y-99075000D01*
X152570000Y-99075000D02*
X152585000Y-99060000D01*
D27*
X138938000Y-105410000D02*
X136448000Y-105410000D01*
X136448000Y-105410000D02*
X135788000Y-104750000D01*
X139954000Y-106426000D02*
X138938000Y-105410000D01*
X131835000Y-104750000D02*
X135788000Y-104750000D01*
D28*
X153485000Y-100330000D02*
X154305000Y-100330000D01*
X152585000Y-100330000D02*
X150690000Y-100330000D01*
X150690000Y-100330000D02*
X150645000Y-100375000D01*
M02*
