G04 #@! TF.FileFunction,Copper,L1,Top,Signal*
%FSLAX46Y46*%
G04 Gerber Fmt 4.6, Leading zero omitted, Abs format (unit mm)*
G04 Created by KiCad (PCBNEW 4.0.3-stable) date Sun Sep 11 01:35:28 2016*
%MOMM*%
%LPD*%
G01*
G04 APERTURE LIST*
%ADD10C,0.100000*%
%ADD11C,0.381000*%
%ADD12R,0.600000X0.500000*%
%ADD13R,0.600000X0.400000*%
%ADD14C,2.400000*%
%ADD15R,2.400000X2.400000*%
%ADD16R,6.000000X1.000000*%
%ADD17R,6.000000X4.000000*%
%ADD18R,0.749300X0.398780*%
%ADD19C,0.400000*%
%ADD20C,0.500000*%
%ADD21C,0.250000*%
%ADD22C,1.000000*%
%ADD23C,0.150000*%
G04 APERTURE END LIST*
D10*
D11*
X143500000Y-103250000D03*
X145000000Y-102500000D03*
X146500000Y-101500000D03*
X145500000Y-102000000D03*
X145000000Y-104000000D03*
X145000000Y-103500000D03*
X143500000Y-102500000D03*
X144000000Y-102000000D03*
X144500000Y-102000000D03*
X146500000Y-104500000D03*
X146000000Y-104500000D03*
X145500000Y-104500000D03*
X145500000Y-103500000D03*
X147000000Y-103500000D03*
X147500000Y-103500000D03*
X148500000Y-103500000D03*
X156500000Y-103500000D03*
X155500000Y-103500000D03*
X154500000Y-103500000D03*
X153500000Y-103500000D03*
X152500000Y-103500000D03*
X151500000Y-103500000D03*
X150500000Y-103500000D03*
X149500000Y-103500000D03*
X148500000Y-101500000D03*
X149500000Y-101500000D03*
X150500000Y-101500000D03*
X151500000Y-101500000D03*
X152500000Y-101500000D03*
X153500000Y-101500000D03*
X154500000Y-101500000D03*
X155500000Y-101500000D03*
X156500000Y-101500000D03*
X146000000Y-102000000D03*
X145000000Y-102000000D03*
X145000000Y-103050000D03*
X147000000Y-104000000D03*
X145000000Y-105000000D03*
X144000000Y-105000000D03*
X143000000Y-105000000D03*
X142000000Y-105000000D03*
X141000000Y-105000000D03*
X140000000Y-105000000D03*
X139000000Y-105000000D03*
X138000000Y-105000000D03*
X137000000Y-105000000D03*
X136000000Y-105000000D03*
X135250000Y-105000000D03*
X143000000Y-103050000D03*
X142000000Y-103050000D03*
X141000000Y-103050000D03*
X140000000Y-103050000D03*
X139000000Y-103050000D03*
X138000000Y-103050000D03*
X137000000Y-103050000D03*
X136000000Y-103050000D03*
D12*
X142850000Y-104000000D03*
X141750000Y-104000000D03*
X148850000Y-99500000D03*
X149950000Y-99500000D03*
X146100000Y-99600000D03*
X145000000Y-99600000D03*
X150000000Y-102500000D03*
X148900000Y-102500000D03*
D13*
X147500000Y-101400000D03*
X147500000Y-102300000D03*
D14*
X144000000Y-95600000D03*
D15*
X147500000Y-95600000D03*
D13*
X147500000Y-99400000D03*
X147500000Y-100300000D03*
D16*
X138000000Y-104000000D03*
D17*
X138000000Y-106700000D03*
X138000000Y-101300000D03*
D18*
X144250000Y-102750000D03*
X144250000Y-103400240D03*
X144250000Y-104050480D03*
X146149920Y-104050480D03*
X146149920Y-103400240D03*
X146149920Y-102750000D03*
D16*
X154000000Y-102500000D03*
D17*
X154000000Y-99800000D03*
X154000000Y-105200000D03*
D11*
X135250000Y-103050000D03*
D19*
X144250000Y-104050480D02*
X143550480Y-104050480D01*
X143550480Y-104050480D02*
X143500000Y-104000000D01*
D20*
X142850000Y-104000000D02*
X143500000Y-104000000D01*
D21*
X141750000Y-104000000D02*
X141400000Y-104000000D01*
D22*
X138000000Y-104000000D02*
X141400000Y-104000000D01*
D19*
X148200000Y-99400000D02*
X148300000Y-99500000D01*
X148300000Y-99500000D02*
X148850000Y-99500000D01*
X147500000Y-99400000D02*
X148200000Y-99400000D01*
X146800000Y-99600000D02*
X147000000Y-99400000D01*
X147000000Y-99400000D02*
X147500000Y-99400000D01*
X146100000Y-99600000D02*
X146800000Y-99600000D01*
D20*
X147500000Y-95600000D02*
X147500000Y-99400000D01*
D21*
X150000000Y-102500000D02*
X150300000Y-102500000D01*
D22*
X154000000Y-102500000D02*
X150300000Y-102500000D01*
D21*
X148900000Y-102500000D02*
X148201698Y-102500000D01*
X148201698Y-102500000D02*
X148200849Y-102500849D01*
X147500000Y-102300000D02*
X147285420Y-102300000D01*
X147285420Y-102300000D02*
X147084571Y-102500849D01*
D20*
X146149920Y-102750000D02*
X147024570Y-102750000D01*
X147024570Y-102750000D02*
X147084571Y-102689999D01*
X147084571Y-102689999D02*
X147084571Y-102500849D01*
D22*
X148200849Y-102500849D02*
X147084571Y-102500849D01*
D21*
X148900000Y-102750000D02*
X148450000Y-102750000D01*
X147500000Y-101400000D02*
X147500000Y-100300000D01*
D23*
G36*
X146019613Y-94400000D02*
X146019613Y-96800000D01*
X146038788Y-96901909D01*
X146099016Y-96995506D01*
X146190914Y-97058296D01*
X146300000Y-97080387D01*
X146975000Y-97080387D01*
X146975000Y-98929972D01*
X146848384Y-98955158D01*
X146818225Y-98961157D01*
X146686735Y-99049016D01*
X146664124Y-99064124D01*
X146603248Y-99125000D01*
X146557817Y-99125000D01*
X146509086Y-99091704D01*
X146400000Y-99069613D01*
X145800000Y-99069613D01*
X145698091Y-99088788D01*
X145604494Y-99149016D01*
X145541704Y-99240914D01*
X145519613Y-99350000D01*
X145519613Y-99850000D01*
X145538788Y-99951909D01*
X145599016Y-100045506D01*
X145690914Y-100108296D01*
X145800000Y-100130387D01*
X146400000Y-100130387D01*
X146501909Y-100111212D01*
X146558184Y-100075000D01*
X146800000Y-100075000D01*
X146929909Y-100049160D01*
X146919613Y-100100000D01*
X146919613Y-100500000D01*
X146938788Y-100601909D01*
X146999016Y-100695506D01*
X147090914Y-100758296D01*
X147100000Y-100760136D01*
X147100000Y-100938429D01*
X147098091Y-100938788D01*
X147004494Y-100999016D01*
X146941704Y-101090914D01*
X146919613Y-101200000D01*
X146919613Y-101600000D01*
X146938788Y-101701909D01*
X146968987Y-101748840D01*
X146787991Y-101784842D01*
X146536563Y-101952841D01*
X146368564Y-102204269D01*
X146364440Y-102225000D01*
X146149920Y-102225000D01*
X145949011Y-102264963D01*
X145941139Y-102270223D01*
X145775270Y-102270223D01*
X145673361Y-102289398D01*
X145579764Y-102349626D01*
X145516974Y-102441524D01*
X145494883Y-102550610D01*
X145494883Y-102949390D01*
X145514058Y-103051299D01*
X145574286Y-103144896D01*
X145666184Y-103207686D01*
X145775270Y-103229777D01*
X145941139Y-103229777D01*
X145949011Y-103235037D01*
X146149920Y-103275000D01*
X147024570Y-103275000D01*
X147052436Y-103269457D01*
X147084571Y-103275849D01*
X148200849Y-103275849D01*
X148497429Y-103216856D01*
X148597486Y-103150000D01*
X148900000Y-103150000D01*
X149053073Y-103119552D01*
X149182843Y-103032843D01*
X149184484Y-103030387D01*
X149200000Y-103030387D01*
X149301909Y-103011212D01*
X149358184Y-102975000D01*
X149542183Y-102975000D01*
X149590914Y-103008296D01*
X149700000Y-103030387D01*
X149740218Y-103030387D01*
X149751992Y-103048008D01*
X150003420Y-103216007D01*
X150300000Y-103275000D01*
X150973399Y-103275000D01*
X151000000Y-103280387D01*
X156650000Y-103280387D01*
X156650000Y-108650000D01*
X135350000Y-108650000D01*
X135350000Y-104780387D01*
X141000000Y-104780387D01*
X141028630Y-104775000D01*
X141400000Y-104775000D01*
X141696580Y-104716007D01*
X141948008Y-104548008D01*
X141959782Y-104530387D01*
X142050000Y-104530387D01*
X142151909Y-104511212D01*
X142208184Y-104475000D01*
X142392183Y-104475000D01*
X142440914Y-104508296D01*
X142550000Y-104530387D01*
X143150000Y-104530387D01*
X143178630Y-104525000D01*
X143500000Y-104525000D01*
X143524031Y-104520220D01*
X143550480Y-104525481D01*
X143550485Y-104525480D01*
X143851761Y-104525480D01*
X143875350Y-104530257D01*
X144624650Y-104530257D01*
X144726559Y-104511082D01*
X144820156Y-104450854D01*
X144882946Y-104358956D01*
X144905037Y-104249870D01*
X144905037Y-103851090D01*
X144885862Y-103749181D01*
X144825634Y-103655584D01*
X144733736Y-103592794D01*
X144624650Y-103570703D01*
X143875350Y-103570703D01*
X143849962Y-103575480D01*
X143791479Y-103575480D01*
X143700909Y-103514963D01*
X143500000Y-103475000D01*
X143176601Y-103475000D01*
X143150000Y-103469613D01*
X142550000Y-103469613D01*
X142448091Y-103488788D01*
X142391816Y-103525000D01*
X142207817Y-103525000D01*
X142159086Y-103491704D01*
X142050000Y-103469613D01*
X141959782Y-103469613D01*
X141948008Y-103451992D01*
X141696580Y-103283993D01*
X141400000Y-103225000D01*
X141026601Y-103225000D01*
X141000000Y-103219613D01*
X135350000Y-103219613D01*
X135350000Y-94350000D01*
X146029738Y-94350000D01*
X146019613Y-94400000D01*
X146019613Y-94400000D01*
G37*
X146019613Y-94400000D02*
X146019613Y-96800000D01*
X146038788Y-96901909D01*
X146099016Y-96995506D01*
X146190914Y-97058296D01*
X146300000Y-97080387D01*
X146975000Y-97080387D01*
X146975000Y-98929972D01*
X146848384Y-98955158D01*
X146818225Y-98961157D01*
X146686735Y-99049016D01*
X146664124Y-99064124D01*
X146603248Y-99125000D01*
X146557817Y-99125000D01*
X146509086Y-99091704D01*
X146400000Y-99069613D01*
X145800000Y-99069613D01*
X145698091Y-99088788D01*
X145604494Y-99149016D01*
X145541704Y-99240914D01*
X145519613Y-99350000D01*
X145519613Y-99850000D01*
X145538788Y-99951909D01*
X145599016Y-100045506D01*
X145690914Y-100108296D01*
X145800000Y-100130387D01*
X146400000Y-100130387D01*
X146501909Y-100111212D01*
X146558184Y-100075000D01*
X146800000Y-100075000D01*
X146929909Y-100049160D01*
X146919613Y-100100000D01*
X146919613Y-100500000D01*
X146938788Y-100601909D01*
X146999016Y-100695506D01*
X147090914Y-100758296D01*
X147100000Y-100760136D01*
X147100000Y-100938429D01*
X147098091Y-100938788D01*
X147004494Y-100999016D01*
X146941704Y-101090914D01*
X146919613Y-101200000D01*
X146919613Y-101600000D01*
X146938788Y-101701909D01*
X146968987Y-101748840D01*
X146787991Y-101784842D01*
X146536563Y-101952841D01*
X146368564Y-102204269D01*
X146364440Y-102225000D01*
X146149920Y-102225000D01*
X145949011Y-102264963D01*
X145941139Y-102270223D01*
X145775270Y-102270223D01*
X145673361Y-102289398D01*
X145579764Y-102349626D01*
X145516974Y-102441524D01*
X145494883Y-102550610D01*
X145494883Y-102949390D01*
X145514058Y-103051299D01*
X145574286Y-103144896D01*
X145666184Y-103207686D01*
X145775270Y-103229777D01*
X145941139Y-103229777D01*
X145949011Y-103235037D01*
X146149920Y-103275000D01*
X147024570Y-103275000D01*
X147052436Y-103269457D01*
X147084571Y-103275849D01*
X148200849Y-103275849D01*
X148497429Y-103216856D01*
X148597486Y-103150000D01*
X148900000Y-103150000D01*
X149053073Y-103119552D01*
X149182843Y-103032843D01*
X149184484Y-103030387D01*
X149200000Y-103030387D01*
X149301909Y-103011212D01*
X149358184Y-102975000D01*
X149542183Y-102975000D01*
X149590914Y-103008296D01*
X149700000Y-103030387D01*
X149740218Y-103030387D01*
X149751992Y-103048008D01*
X150003420Y-103216007D01*
X150300000Y-103275000D01*
X150973399Y-103275000D01*
X151000000Y-103280387D01*
X156650000Y-103280387D01*
X156650000Y-108650000D01*
X135350000Y-108650000D01*
X135350000Y-104780387D01*
X141000000Y-104780387D01*
X141028630Y-104775000D01*
X141400000Y-104775000D01*
X141696580Y-104716007D01*
X141948008Y-104548008D01*
X141959782Y-104530387D01*
X142050000Y-104530387D01*
X142151909Y-104511212D01*
X142208184Y-104475000D01*
X142392183Y-104475000D01*
X142440914Y-104508296D01*
X142550000Y-104530387D01*
X143150000Y-104530387D01*
X143178630Y-104525000D01*
X143500000Y-104525000D01*
X143524031Y-104520220D01*
X143550480Y-104525481D01*
X143550485Y-104525480D01*
X143851761Y-104525480D01*
X143875350Y-104530257D01*
X144624650Y-104530257D01*
X144726559Y-104511082D01*
X144820156Y-104450854D01*
X144882946Y-104358956D01*
X144905037Y-104249870D01*
X144905037Y-103851090D01*
X144885862Y-103749181D01*
X144825634Y-103655584D01*
X144733736Y-103592794D01*
X144624650Y-103570703D01*
X143875350Y-103570703D01*
X143849962Y-103575480D01*
X143791479Y-103575480D01*
X143700909Y-103514963D01*
X143500000Y-103475000D01*
X143176601Y-103475000D01*
X143150000Y-103469613D01*
X142550000Y-103469613D01*
X142448091Y-103488788D01*
X142391816Y-103525000D01*
X142207817Y-103525000D01*
X142159086Y-103491704D01*
X142050000Y-103469613D01*
X141959782Y-103469613D01*
X141948008Y-103451992D01*
X141696580Y-103283993D01*
X141400000Y-103225000D01*
X141026601Y-103225000D01*
X141000000Y-103219613D01*
X135350000Y-103219613D01*
X135350000Y-94350000D01*
X146029738Y-94350000D01*
X146019613Y-94400000D01*
G36*
X156650000Y-101719613D02*
X151000000Y-101719613D01*
X150971370Y-101725000D01*
X150300000Y-101725000D01*
X150003420Y-101783993D01*
X149751992Y-101951992D01*
X149740218Y-101969613D01*
X149700000Y-101969613D01*
X149598091Y-101988788D01*
X149541816Y-102025000D01*
X149357817Y-102025000D01*
X149309086Y-101991704D01*
X149200000Y-101969613D01*
X148760064Y-101969613D01*
X148748857Y-101952841D01*
X148497429Y-101784842D01*
X148200849Y-101725849D01*
X148046843Y-101725849D01*
X148058296Y-101709086D01*
X148080387Y-101600000D01*
X148080387Y-101200000D01*
X148061212Y-101098091D01*
X148000984Y-101004494D01*
X147909086Y-100941704D01*
X147900000Y-100939864D01*
X147900000Y-100761571D01*
X147901909Y-100761212D01*
X147995506Y-100700984D01*
X148058296Y-100609086D01*
X148080387Y-100500000D01*
X148080387Y-100100000D01*
X148061212Y-99998091D01*
X148000984Y-99904494D01*
X147957817Y-99875000D01*
X148022677Y-99875000D01*
X148118225Y-99938843D01*
X148300000Y-99975000D01*
X148392183Y-99975000D01*
X148440914Y-100008296D01*
X148550000Y-100030387D01*
X149150000Y-100030387D01*
X149251909Y-100011212D01*
X149345506Y-99950984D01*
X149408296Y-99859086D01*
X149430387Y-99750000D01*
X149430387Y-99250000D01*
X149411212Y-99148091D01*
X149350984Y-99054494D01*
X149259086Y-98991704D01*
X149150000Y-98969613D01*
X148550000Y-98969613D01*
X148448091Y-98988788D01*
X148435374Y-98996971D01*
X148381775Y-98961157D01*
X148200000Y-98925000D01*
X148025000Y-98925000D01*
X148025000Y-97080387D01*
X148700000Y-97080387D01*
X148801909Y-97061212D01*
X148895506Y-97000984D01*
X148958296Y-96909086D01*
X148980387Y-96800000D01*
X148980387Y-94400000D01*
X148970979Y-94350000D01*
X156650000Y-94350000D01*
X156650000Y-101719613D01*
X156650000Y-101719613D01*
G37*
X156650000Y-101719613D02*
X151000000Y-101719613D01*
X150971370Y-101725000D01*
X150300000Y-101725000D01*
X150003420Y-101783993D01*
X149751992Y-101951992D01*
X149740218Y-101969613D01*
X149700000Y-101969613D01*
X149598091Y-101988788D01*
X149541816Y-102025000D01*
X149357817Y-102025000D01*
X149309086Y-101991704D01*
X149200000Y-101969613D01*
X148760064Y-101969613D01*
X148748857Y-101952841D01*
X148497429Y-101784842D01*
X148200849Y-101725849D01*
X148046843Y-101725849D01*
X148058296Y-101709086D01*
X148080387Y-101600000D01*
X148080387Y-101200000D01*
X148061212Y-101098091D01*
X148000984Y-101004494D01*
X147909086Y-100941704D01*
X147900000Y-100939864D01*
X147900000Y-100761571D01*
X147901909Y-100761212D01*
X147995506Y-100700984D01*
X148058296Y-100609086D01*
X148080387Y-100500000D01*
X148080387Y-100100000D01*
X148061212Y-99998091D01*
X148000984Y-99904494D01*
X147957817Y-99875000D01*
X148022677Y-99875000D01*
X148118225Y-99938843D01*
X148300000Y-99975000D01*
X148392183Y-99975000D01*
X148440914Y-100008296D01*
X148550000Y-100030387D01*
X149150000Y-100030387D01*
X149251909Y-100011212D01*
X149345506Y-99950984D01*
X149408296Y-99859086D01*
X149430387Y-99750000D01*
X149430387Y-99250000D01*
X149411212Y-99148091D01*
X149350984Y-99054494D01*
X149259086Y-98991704D01*
X149150000Y-98969613D01*
X148550000Y-98969613D01*
X148448091Y-98988788D01*
X148435374Y-98996971D01*
X148381775Y-98961157D01*
X148200000Y-98925000D01*
X148025000Y-98925000D01*
X148025000Y-97080387D01*
X148700000Y-97080387D01*
X148801909Y-97061212D01*
X148895506Y-97000984D01*
X148958296Y-96909086D01*
X148980387Y-96800000D01*
X148980387Y-94400000D01*
X148970979Y-94350000D01*
X156650000Y-94350000D01*
X156650000Y-101719613D01*
M02*
