G04 #@! TF.FileFunction,Soldermask,Top*
%FSLAX46Y46*%
G04 Gerber Fmt 4.6, Leading zero omitted, Abs format (unit mm)*
G04 Created by KiCad (PCBNEW 4.0.3-stable) date Sun Sep 11 01:35:28 2016*
%MOMM*%
%LPD*%
G01*
G04 APERTURE LIST*
%ADD10C,0.100000*%
%ADD11R,1.000000X0.900000*%
%ADD12R,1.000000X0.800000*%
%ADD13C,2.800000*%
%ADD14R,2.800000X2.800000*%
%ADD15R,6.400000X1.400000*%
%ADD16R,6.400000X4.400000*%
%ADD17R,1.149300X0.798780*%
%ADD18C,0.254000*%
G04 APERTURE END LIST*
D10*
D11*
X142850000Y-104000000D03*
X141750000Y-104000000D03*
X148850000Y-99500000D03*
X149950000Y-99500000D03*
X146100000Y-99600000D03*
X145000000Y-99600000D03*
X150000000Y-102500000D03*
X148900000Y-102500000D03*
D12*
X147500000Y-101400000D03*
X147500000Y-102300000D03*
D13*
X144000000Y-95600000D03*
D14*
X147500000Y-95600000D03*
D12*
X147500000Y-99400000D03*
X147500000Y-100300000D03*
D15*
X138000000Y-104000000D03*
D16*
X138000000Y-106700000D03*
X138000000Y-101300000D03*
D17*
X144250000Y-102750000D03*
X144250000Y-103400240D03*
X144250000Y-104050480D03*
X146149920Y-104050480D03*
X146149920Y-103400240D03*
X146149920Y-102750000D03*
D15*
X154000000Y-102500000D03*
D16*
X154000000Y-99800000D03*
X154000000Y-105200000D03*
D18*
G36*
X143623000Y-105082913D02*
X135681712Y-102877000D01*
X143623000Y-102877000D01*
X143623000Y-105082913D01*
X143623000Y-105082913D01*
G37*
X143623000Y-105082913D02*
X135681712Y-102877000D01*
X143623000Y-102877000D01*
X143623000Y-105082913D01*
G36*
X143623000Y-105123000D02*
X140877000Y-105123000D01*
X140877000Y-104627000D01*
X143623000Y-104627000D01*
X143623000Y-105123000D01*
X143623000Y-105123000D01*
G37*
X143623000Y-105123000D02*
X140877000Y-105123000D01*
X140877000Y-104627000D01*
X143623000Y-104627000D01*
X143623000Y-105123000D01*
G36*
X151123000Y-103623000D02*
X145877000Y-103623000D01*
X145877000Y-101865978D01*
X151123000Y-101389069D01*
X151123000Y-103623000D01*
X151123000Y-103623000D01*
G37*
X151123000Y-103623000D02*
X145877000Y-103623000D01*
X145877000Y-101865978D01*
X151123000Y-101389069D01*
X151123000Y-103623000D01*
G36*
X150873000Y-101628904D02*
X148432052Y-101745140D01*
X150873000Y-101396433D01*
X150873000Y-101628904D01*
X150873000Y-101628904D01*
G37*
X150873000Y-101628904D02*
X148432052Y-101745140D01*
X150873000Y-101396433D01*
X150873000Y-101628904D01*
G36*
X150873000Y-101878904D02*
X145877000Y-102116809D01*
X145877000Y-101377000D01*
X150873000Y-101377000D01*
X150873000Y-101878904D01*
X150873000Y-101878904D01*
G37*
X150873000Y-101878904D02*
X145877000Y-102116809D01*
X145877000Y-101377000D01*
X150873000Y-101377000D01*
X150873000Y-101878904D01*
G36*
X146623000Y-105123000D02*
X143377000Y-105123000D01*
X143377000Y-104377000D01*
X146623000Y-104377000D01*
X146623000Y-105123000D01*
X146623000Y-105123000D01*
G37*
X146623000Y-105123000D02*
X143377000Y-105123000D01*
X143377000Y-104377000D01*
X146623000Y-104377000D01*
X146623000Y-105123000D01*
G36*
X145873000Y-102373000D02*
X143877000Y-102373000D01*
X143877000Y-101877000D01*
X145873000Y-101877000D01*
X145873000Y-102373000D01*
X145873000Y-102373000D01*
G37*
X145873000Y-102373000D02*
X143877000Y-102373000D01*
X143877000Y-101877000D01*
X145873000Y-101877000D01*
X145873000Y-102373000D01*
M02*
