G04 #@! TF.FileFunction,Copper,L2,Inr,Signal*
%FSLAX46Y46*%
G04 Gerber Fmt 4.6, Leading zero omitted, Abs format (unit mm)*
G04 Created by KiCad (PCBNEW 4.0.3-stable) date Sun Sep 11 01:35:28 2016*
%MOMM*%
%LPD*%
G01*
G04 APERTURE LIST*
%ADD10C,0.100000*%
%ADD11C,0.381000*%
%ADD12C,2.400000*%
%ADD13R,2.400000X2.400000*%
G04 APERTURE END LIST*
D10*
D11*
X143500000Y-103250000D03*
X145000000Y-102500000D03*
X146500000Y-101500000D03*
X145500000Y-102000000D03*
X145000000Y-104000000D03*
X145000000Y-103500000D03*
X143500000Y-102500000D03*
X144000000Y-102000000D03*
X144500000Y-102000000D03*
X146500000Y-104500000D03*
X146000000Y-104500000D03*
X145500000Y-104500000D03*
X145500000Y-103500000D03*
X147000000Y-103500000D03*
X147500000Y-103500000D03*
X148500000Y-103500000D03*
X156500000Y-103500000D03*
X155500000Y-103500000D03*
X154500000Y-103500000D03*
X153500000Y-103500000D03*
X152500000Y-103500000D03*
X151500000Y-103500000D03*
X150500000Y-103500000D03*
X149500000Y-103500000D03*
X148500000Y-101500000D03*
X149500000Y-101500000D03*
X150500000Y-101500000D03*
X151500000Y-101500000D03*
X152500000Y-101500000D03*
X153500000Y-101500000D03*
X154500000Y-101500000D03*
X155500000Y-101500000D03*
X156500000Y-101500000D03*
X146000000Y-102000000D03*
X145000000Y-102000000D03*
X145000000Y-103050000D03*
X147000000Y-104000000D03*
X145000000Y-105000000D03*
X144000000Y-105000000D03*
X143000000Y-105000000D03*
X142000000Y-105000000D03*
X141000000Y-105000000D03*
X140000000Y-105000000D03*
X139000000Y-105000000D03*
X138000000Y-105000000D03*
X137000000Y-105000000D03*
X136000000Y-105000000D03*
X135250000Y-105000000D03*
X143000000Y-103050000D03*
X142000000Y-103050000D03*
X141000000Y-103050000D03*
X140000000Y-103050000D03*
X139000000Y-103050000D03*
X138000000Y-103050000D03*
X137000000Y-103050000D03*
X136000000Y-103050000D03*
D12*
X144000000Y-95600000D03*
D13*
X147500000Y-95600000D03*
D11*
X135250000Y-103050000D03*
M02*
