G04 #@! TF.FileFunction,Legend,Top*
%FSLAX46Y46*%
G04 Gerber Fmt 4.6, Leading zero omitted, Abs format (unit mm)*
G04 Created by KiCad (PCBNEW 4.0.3-stable) date Sun Sep 11 01:35:28 2016*
%MOMM*%
%LPD*%
G01*
G04 APERTURE LIST*
%ADD10C,0.100000*%
%ADD11C,0.250000*%
%ADD12C,0.300000*%
%ADD13C,0.150000*%
G04 APERTURE END LIST*
D10*
D11*
X151571429Y-108452381D02*
X151238095Y-107976190D01*
X151000000Y-108452381D02*
X151000000Y-107452381D01*
X151380953Y-107452381D01*
X151476191Y-107500000D01*
X151523810Y-107547619D01*
X151571429Y-107642857D01*
X151571429Y-107785714D01*
X151523810Y-107880952D01*
X151476191Y-107928571D01*
X151380953Y-107976190D01*
X151000000Y-107976190D01*
X152333334Y-107928571D02*
X152000000Y-107928571D01*
X152000000Y-108452381D02*
X152000000Y-107452381D01*
X152476191Y-107452381D01*
X153809524Y-107452381D02*
X154000001Y-107452381D01*
X154095239Y-107500000D01*
X154190477Y-107595238D01*
X154238096Y-107785714D01*
X154238096Y-108119048D01*
X154190477Y-108309524D01*
X154095239Y-108404762D01*
X154000001Y-108452381D01*
X153809524Y-108452381D01*
X153714286Y-108404762D01*
X153619048Y-108309524D01*
X153571429Y-108119048D01*
X153571429Y-107785714D01*
X153619048Y-107595238D01*
X153714286Y-107500000D01*
X153809524Y-107452381D01*
X154666667Y-107452381D02*
X154666667Y-108261905D01*
X154714286Y-108357143D01*
X154761905Y-108404762D01*
X154857143Y-108452381D01*
X155047620Y-108452381D01*
X155142858Y-108404762D01*
X155190477Y-108357143D01*
X155238096Y-108261905D01*
X155238096Y-107452381D01*
X155571429Y-107452381D02*
X156142858Y-107452381D01*
X155857143Y-108452381D02*
X155857143Y-107452381D01*
D12*
X136607143Y-98678571D02*
X136107143Y-97964286D01*
X135750000Y-98678571D02*
X135750000Y-97178571D01*
X136321428Y-97178571D01*
X136464286Y-97250000D01*
X136535714Y-97321429D01*
X136607143Y-97464286D01*
X136607143Y-97678571D01*
X136535714Y-97821429D01*
X136464286Y-97892857D01*
X136321428Y-97964286D01*
X135750000Y-97964286D01*
X137750000Y-97892857D02*
X137250000Y-97892857D01*
X137250000Y-98678571D02*
X137250000Y-97178571D01*
X137964286Y-97178571D01*
X139678571Y-98678571D02*
X139678571Y-97178571D01*
X140392857Y-98678571D02*
X140392857Y-97178571D01*
X141250000Y-98678571D01*
X141250000Y-97178571D01*
X138357143Y-95250000D02*
X138214286Y-95178571D01*
X138000000Y-95178571D01*
X137785715Y-95250000D01*
X137642857Y-95392857D01*
X137571429Y-95535714D01*
X137500000Y-95821429D01*
X137500000Y-96035714D01*
X137571429Y-96321429D01*
X137642857Y-96464286D01*
X137785715Y-96607143D01*
X138000000Y-96678571D01*
X138142857Y-96678571D01*
X138357143Y-96607143D01*
X138428572Y-96535714D01*
X138428572Y-96035714D01*
X138142857Y-96035714D01*
X139071429Y-96678571D02*
X139071429Y-95178571D01*
X139928572Y-96678571D01*
X139928572Y-95178571D01*
X140642858Y-96678571D02*
X140642858Y-95178571D01*
X141000001Y-95178571D01*
X141214286Y-95250000D01*
X141357144Y-95392857D01*
X141428572Y-95535714D01*
X141500001Y-95821429D01*
X141500001Y-96035714D01*
X141428572Y-96321429D01*
X141357144Y-96464286D01*
X141214286Y-96607143D01*
X141000001Y-96678571D01*
X140642858Y-96678571D01*
X149857143Y-94678571D02*
X150357143Y-96178571D01*
X150857143Y-94678571D01*
X151357143Y-96178571D02*
X151357143Y-94678571D01*
X152071429Y-96178571D02*
X152071429Y-94678571D01*
X152928572Y-96178571D01*
X152928572Y-94678571D01*
D13*
X142050000Y-104475000D02*
X142550000Y-104475000D01*
X142550000Y-103525000D02*
X142050000Y-103525000D01*
X149650000Y-99025000D02*
X149150000Y-99025000D01*
X149150000Y-99975000D02*
X149650000Y-99975000D01*
X145300000Y-100075000D02*
X145800000Y-100075000D01*
X145800000Y-99125000D02*
X145300000Y-99125000D01*
X149200000Y-102975000D02*
X149700000Y-102975000D01*
X149700000Y-102025000D02*
X149200000Y-102025000D01*
X148025000Y-102100000D02*
X148025000Y-101600000D01*
X146975000Y-101600000D02*
X146975000Y-102100000D01*
X145750000Y-91500000D02*
X145750000Y-91100000D01*
X149250000Y-92600000D02*
X142250000Y-92600000D01*
X149250000Y-91500000D02*
X142250000Y-91500000D01*
X149250000Y-98700000D02*
X149250000Y-91100000D01*
X142250000Y-91100000D02*
X142250000Y-98700000D01*
X142250000Y-98700000D02*
X149250000Y-98700000D01*
X148025000Y-100100000D02*
X148025000Y-99600000D01*
X146975000Y-99600000D02*
X146975000Y-100100000D01*
X144039180Y-102069280D02*
X143429580Y-102069280D01*
X143429580Y-102069280D02*
X143419420Y-102501080D01*
X141966667Y-106250000D02*
X141933333Y-106283333D01*
X141833333Y-106316667D01*
X141766667Y-106316667D01*
X141666667Y-106283333D01*
X141600000Y-106216667D01*
X141566667Y-106150000D01*
X141533333Y-106016667D01*
X141533333Y-105916667D01*
X141566667Y-105783333D01*
X141600000Y-105716667D01*
X141666667Y-105650000D01*
X141766667Y-105616667D01*
X141833333Y-105616667D01*
X141933333Y-105650000D01*
X141966667Y-105683333D01*
X142633333Y-106316667D02*
X142233333Y-106316667D01*
X142433333Y-106316667D02*
X142433333Y-105616667D01*
X142366667Y-105716667D01*
X142300000Y-105783333D01*
X142233333Y-105816667D01*
X143066667Y-105616667D02*
X143133334Y-105616667D01*
X143200000Y-105650000D01*
X143233334Y-105683333D01*
X143266667Y-105750000D01*
X143300000Y-105883333D01*
X143300000Y-106050000D01*
X143266667Y-106183333D01*
X143233334Y-106250000D01*
X143200000Y-106283333D01*
X143133334Y-106316667D01*
X143066667Y-106316667D01*
X143000000Y-106283333D01*
X142966667Y-106250000D01*
X142933334Y-106183333D01*
X142900000Y-106050000D01*
X142900000Y-105883333D01*
X142933334Y-105750000D01*
X142966667Y-105683333D01*
X143000000Y-105650000D01*
X143066667Y-105616667D01*
X143966667Y-106316667D02*
X143566667Y-106316667D01*
X143766667Y-106316667D02*
X143766667Y-105616667D01*
X143700001Y-105716667D01*
X143633334Y-105783333D01*
X143566667Y-105816667D01*
X150250000Y-98533333D02*
X150283333Y-98566667D01*
X150316667Y-98666667D01*
X150316667Y-98733333D01*
X150283333Y-98833333D01*
X150216667Y-98900000D01*
X150150000Y-98933333D01*
X150016667Y-98966667D01*
X149916667Y-98966667D01*
X149783333Y-98933333D01*
X149716667Y-98900000D01*
X149650000Y-98833333D01*
X149616667Y-98733333D01*
X149616667Y-98666667D01*
X149650000Y-98566667D01*
X149683333Y-98533333D01*
X150316667Y-97866667D02*
X150316667Y-98266667D01*
X150316667Y-98066667D02*
X149616667Y-98066667D01*
X149716667Y-98133333D01*
X149783333Y-98200000D01*
X149816667Y-98266667D01*
X149616667Y-97433333D02*
X149616667Y-97366666D01*
X149650000Y-97300000D01*
X149683333Y-97266666D01*
X149750000Y-97233333D01*
X149883333Y-97200000D01*
X150050000Y-97200000D01*
X150183333Y-97233333D01*
X150250000Y-97266666D01*
X150283333Y-97300000D01*
X150316667Y-97366666D01*
X150316667Y-97433333D01*
X150283333Y-97500000D01*
X150250000Y-97533333D01*
X150183333Y-97566666D01*
X150050000Y-97600000D01*
X149883333Y-97600000D01*
X149750000Y-97566666D01*
X149683333Y-97533333D01*
X149650000Y-97500000D01*
X149616667Y-97433333D01*
X149683333Y-96933333D02*
X149650000Y-96899999D01*
X149616667Y-96833333D01*
X149616667Y-96666666D01*
X149650000Y-96599999D01*
X149683333Y-96566666D01*
X149750000Y-96533333D01*
X149816667Y-96533333D01*
X149916667Y-96566666D01*
X150316667Y-96966666D01*
X150316667Y-96533333D01*
X143466667Y-101250000D02*
X143433333Y-101283333D01*
X143333333Y-101316667D01*
X143266667Y-101316667D01*
X143166667Y-101283333D01*
X143100000Y-101216667D01*
X143066667Y-101150000D01*
X143033333Y-101016667D01*
X143033333Y-100916667D01*
X143066667Y-100783333D01*
X143100000Y-100716667D01*
X143166667Y-100650000D01*
X143266667Y-100616667D01*
X143333333Y-100616667D01*
X143433333Y-100650000D01*
X143466667Y-100683333D01*
X144133333Y-101316667D02*
X143733333Y-101316667D01*
X143933333Y-101316667D02*
X143933333Y-100616667D01*
X143866667Y-100716667D01*
X143800000Y-100783333D01*
X143733333Y-100816667D01*
X144566667Y-100616667D02*
X144633334Y-100616667D01*
X144700000Y-100650000D01*
X144733334Y-100683333D01*
X144766667Y-100750000D01*
X144800000Y-100883333D01*
X144800000Y-101050000D01*
X144766667Y-101183333D01*
X144733334Y-101250000D01*
X144700000Y-101283333D01*
X144633334Y-101316667D01*
X144566667Y-101316667D01*
X144500000Y-101283333D01*
X144466667Y-101250000D01*
X144433334Y-101183333D01*
X144400000Y-101050000D01*
X144400000Y-100883333D01*
X144433334Y-100750000D01*
X144466667Y-100683333D01*
X144500000Y-100650000D01*
X144566667Y-100616667D01*
X145033334Y-100616667D02*
X145466667Y-100616667D01*
X145233334Y-100883333D01*
X145333334Y-100883333D01*
X145400001Y-100916667D01*
X145433334Y-100950000D01*
X145466667Y-101016667D01*
X145466667Y-101183333D01*
X145433334Y-101250000D01*
X145400001Y-101283333D01*
X145333334Y-101316667D01*
X145133334Y-101316667D01*
X145066667Y-101283333D01*
X145033334Y-101250000D01*
X148466667Y-104750000D02*
X148433333Y-104783333D01*
X148333333Y-104816667D01*
X148266667Y-104816667D01*
X148166667Y-104783333D01*
X148100000Y-104716667D01*
X148066667Y-104650000D01*
X148033333Y-104516667D01*
X148033333Y-104416667D01*
X148066667Y-104283333D01*
X148100000Y-104216667D01*
X148166667Y-104150000D01*
X148266667Y-104116667D01*
X148333333Y-104116667D01*
X148433333Y-104150000D01*
X148466667Y-104183333D01*
X149133333Y-104816667D02*
X148733333Y-104816667D01*
X148933333Y-104816667D02*
X148933333Y-104116667D01*
X148866667Y-104216667D01*
X148800000Y-104283333D01*
X148733333Y-104316667D01*
X149566667Y-104116667D02*
X149633334Y-104116667D01*
X149700000Y-104150000D01*
X149733334Y-104183333D01*
X149766667Y-104250000D01*
X149800000Y-104383333D01*
X149800000Y-104550000D01*
X149766667Y-104683333D01*
X149733334Y-104750000D01*
X149700000Y-104783333D01*
X149633334Y-104816667D01*
X149566667Y-104816667D01*
X149500000Y-104783333D01*
X149466667Y-104750000D01*
X149433334Y-104683333D01*
X149400000Y-104550000D01*
X149400000Y-104383333D01*
X149433334Y-104250000D01*
X149466667Y-104183333D01*
X149500000Y-104150000D01*
X149566667Y-104116667D01*
X150400001Y-104350000D02*
X150400001Y-104816667D01*
X150233334Y-104083333D02*
X150066667Y-104583333D01*
X150500001Y-104583333D01*
X148716666Y-101066667D02*
X148383333Y-101066667D01*
X148383333Y-100366667D01*
X149316666Y-101066667D02*
X148916666Y-101066667D01*
X149116666Y-101066667D02*
X149116666Y-100366667D01*
X149050000Y-100466667D01*
X148983333Y-100533333D01*
X148916666Y-100566667D01*
X149750000Y-100366667D02*
X149816667Y-100366667D01*
X149883333Y-100400000D01*
X149916667Y-100433333D01*
X149950000Y-100500000D01*
X149983333Y-100633333D01*
X149983333Y-100800000D01*
X149950000Y-100933333D01*
X149916667Y-101000000D01*
X149883333Y-101033333D01*
X149816667Y-101066667D01*
X149750000Y-101066667D01*
X149683333Y-101033333D01*
X149650000Y-101000000D01*
X149616667Y-100933333D01*
X149583333Y-100800000D01*
X149583333Y-100633333D01*
X149616667Y-100500000D01*
X149650000Y-100433333D01*
X149683333Y-100400000D01*
X149750000Y-100366667D01*
X150650000Y-101066667D02*
X150250000Y-101066667D01*
X150450000Y-101066667D02*
X150450000Y-100366667D01*
X150383334Y-100466667D01*
X150316667Y-100533333D01*
X150250000Y-100566667D01*
X143316667Y-98316667D02*
X143316667Y-97616667D01*
X143583333Y-97616667D01*
X143650000Y-97650000D01*
X143683333Y-97683333D01*
X143716667Y-97750000D01*
X143716667Y-97850000D01*
X143683333Y-97916667D01*
X143650000Y-97950000D01*
X143583333Y-97983333D01*
X143316667Y-97983333D01*
X144383333Y-98316667D02*
X143983333Y-98316667D01*
X144183333Y-98316667D02*
X144183333Y-97616667D01*
X144116667Y-97716667D01*
X144050000Y-97783333D01*
X143983333Y-97816667D01*
X144816667Y-97616667D02*
X144883334Y-97616667D01*
X144950000Y-97650000D01*
X144983334Y-97683333D01*
X145016667Y-97750000D01*
X145050000Y-97883333D01*
X145050000Y-98050000D01*
X145016667Y-98183333D01*
X144983334Y-98250000D01*
X144950000Y-98283333D01*
X144883334Y-98316667D01*
X144816667Y-98316667D01*
X144750000Y-98283333D01*
X144716667Y-98250000D01*
X144683334Y-98183333D01*
X144650000Y-98050000D01*
X144650000Y-97883333D01*
X144683334Y-97750000D01*
X144716667Y-97683333D01*
X144750000Y-97650000D01*
X144816667Y-97616667D01*
X145716667Y-98316667D02*
X145316667Y-98316667D01*
X145516667Y-98316667D02*
X145516667Y-97616667D01*
X145450001Y-97716667D01*
X145383334Y-97783333D01*
X145316667Y-97816667D01*
X146716667Y-98316667D02*
X146483333Y-97983333D01*
X146316667Y-98316667D02*
X146316667Y-97616667D01*
X146583333Y-97616667D01*
X146650000Y-97650000D01*
X146683333Y-97683333D01*
X146716667Y-97750000D01*
X146716667Y-97850000D01*
X146683333Y-97916667D01*
X146650000Y-97950000D01*
X146583333Y-97983333D01*
X146316667Y-97983333D01*
X147383333Y-98316667D02*
X146983333Y-98316667D01*
X147183333Y-98316667D02*
X147183333Y-97616667D01*
X147116667Y-97716667D01*
X147050000Y-97783333D01*
X146983333Y-97816667D01*
X147816667Y-97616667D02*
X147883334Y-97616667D01*
X147950000Y-97650000D01*
X147983334Y-97683333D01*
X148016667Y-97750000D01*
X148050000Y-97883333D01*
X148050000Y-98050000D01*
X148016667Y-98183333D01*
X147983334Y-98250000D01*
X147950000Y-98283333D01*
X147883334Y-98316667D01*
X147816667Y-98316667D01*
X147750000Y-98283333D01*
X147716667Y-98250000D01*
X147683334Y-98183333D01*
X147650000Y-98050000D01*
X147650000Y-97883333D01*
X147683334Y-97750000D01*
X147716667Y-97683333D01*
X147750000Y-97650000D01*
X147816667Y-97616667D01*
X148716667Y-98316667D02*
X148316667Y-98316667D01*
X148516667Y-98316667D02*
X148516667Y-97616667D01*
X148450001Y-97716667D01*
X148383334Y-97783333D01*
X148316667Y-97816667D01*
X141616667Y-101700000D02*
X142183333Y-101700000D01*
X142250000Y-101666667D01*
X142283333Y-101633334D01*
X142316667Y-101566667D01*
X142316667Y-101433334D01*
X142283333Y-101366667D01*
X142250000Y-101333334D01*
X142183333Y-101300000D01*
X141616667Y-101300000D01*
X142316667Y-100600001D02*
X142316667Y-101000001D01*
X142316667Y-100800001D02*
X141616667Y-100800001D01*
X141716667Y-100866667D01*
X141783333Y-100933334D01*
X141816667Y-101000001D01*
X141616667Y-100166667D02*
X141616667Y-100100000D01*
X141650000Y-100033334D01*
X141683333Y-100000000D01*
X141750000Y-99966667D01*
X141883333Y-99933334D01*
X142050000Y-99933334D01*
X142183333Y-99966667D01*
X142250000Y-100000000D01*
X142283333Y-100033334D01*
X142316667Y-100100000D01*
X142316667Y-100166667D01*
X142283333Y-100233334D01*
X142250000Y-100266667D01*
X142183333Y-100300000D01*
X142050000Y-100333334D01*
X141883333Y-100333334D01*
X141750000Y-100300000D01*
X141683333Y-100266667D01*
X141650000Y-100233334D01*
X141616667Y-100166667D01*
X142316667Y-99266667D02*
X142316667Y-99666667D01*
X142316667Y-99466667D02*
X141616667Y-99466667D01*
X141716667Y-99533333D01*
X141783333Y-99600000D01*
X141816667Y-99666667D01*
X144550000Y-105616667D02*
X144550000Y-106183333D01*
X144583333Y-106250000D01*
X144616666Y-106283333D01*
X144683333Y-106316667D01*
X144816666Y-106316667D01*
X144883333Y-106283333D01*
X144916666Y-106250000D01*
X144950000Y-106183333D01*
X144950000Y-105616667D01*
X145649999Y-106316667D02*
X145249999Y-106316667D01*
X145449999Y-106316667D02*
X145449999Y-105616667D01*
X145383333Y-105716667D01*
X145316666Y-105783333D01*
X145249999Y-105816667D01*
X146083333Y-105616667D02*
X146150000Y-105616667D01*
X146216666Y-105650000D01*
X146250000Y-105683333D01*
X146283333Y-105750000D01*
X146316666Y-105883333D01*
X146316666Y-106050000D01*
X146283333Y-106183333D01*
X146250000Y-106250000D01*
X146216666Y-106283333D01*
X146150000Y-106316667D01*
X146083333Y-106316667D01*
X146016666Y-106283333D01*
X145983333Y-106250000D01*
X145950000Y-106183333D01*
X145916666Y-106050000D01*
X145916666Y-105883333D01*
X145950000Y-105750000D01*
X145983333Y-105683333D01*
X146016666Y-105650000D01*
X146083333Y-105616667D01*
X146583333Y-105683333D02*
X146616667Y-105650000D01*
X146683333Y-105616667D01*
X146850000Y-105616667D01*
X146916667Y-105650000D01*
X146950000Y-105683333D01*
X146983333Y-105750000D01*
X146983333Y-105816667D01*
X146950000Y-105916667D01*
X146550000Y-106316667D01*
X146983333Y-106316667D01*
X154050000Y-96616667D02*
X154050000Y-97183333D01*
X154083333Y-97250000D01*
X154116666Y-97283333D01*
X154183333Y-97316667D01*
X154316666Y-97316667D01*
X154383333Y-97283333D01*
X154416666Y-97250000D01*
X154450000Y-97183333D01*
X154450000Y-96616667D01*
X155149999Y-97316667D02*
X154749999Y-97316667D01*
X154949999Y-97316667D02*
X154949999Y-96616667D01*
X154883333Y-96716667D01*
X154816666Y-96783333D01*
X154749999Y-96816667D01*
X155583333Y-96616667D02*
X155650000Y-96616667D01*
X155716666Y-96650000D01*
X155750000Y-96683333D01*
X155783333Y-96750000D01*
X155816666Y-96883333D01*
X155816666Y-97050000D01*
X155783333Y-97183333D01*
X155750000Y-97250000D01*
X155716666Y-97283333D01*
X155650000Y-97316667D01*
X155583333Y-97316667D01*
X155516666Y-97283333D01*
X155483333Y-97250000D01*
X155450000Y-97183333D01*
X155416666Y-97050000D01*
X155416666Y-96883333D01*
X155450000Y-96750000D01*
X155483333Y-96683333D01*
X155516666Y-96650000D01*
X155583333Y-96616667D01*
X156050000Y-96616667D02*
X156483333Y-96616667D01*
X156250000Y-96883333D01*
X156350000Y-96883333D01*
X156416667Y-96916667D01*
X156450000Y-96950000D01*
X156483333Y-97016667D01*
X156483333Y-97183333D01*
X156450000Y-97250000D01*
X156416667Y-97283333D01*
X156350000Y-97316667D01*
X156150000Y-97316667D01*
X156083333Y-97283333D01*
X156050000Y-97250000D01*
M02*
