M48
;DRILL file {KiCad 4.0.3-stable} date Sun Sep 11 01:35:30 2016
;FORMAT={3:3/ absolute / metric / keep zeros}
FMAT,2
METRIC,TZ
T1C0.254
T2C1.200
%
G90
G05
M71
T1
X135250Y-103050
X135250Y-105000
X136000Y-103050
X136000Y-105000
X137000Y-103050
X137000Y-105000
X138000Y-103050
X138000Y-105000
X139000Y-103050
X139000Y-105000
X140000Y-103050
X140000Y-105000
X141000Y-103050
X141000Y-105000
X142000Y-103050
X142000Y-105000
X143000Y-103050
X143000Y-105000
X143500Y-102500
X143500Y-103250
X144000Y-102000
X144000Y-105000
X144500Y-102000
X145000Y-102000
X145000Y-102500
X145000Y-103050
X145000Y-103500
X145000Y-104000
X145000Y-105000
X145500Y-102000
X145500Y-103500
X145500Y-104500
X146000Y-102000
X146000Y-104500
X146500Y-101500
X146500Y-104500
X147000Y-103500
X147000Y-104000
X147500Y-103500
X148500Y-101500
X148500Y-103500
X149500Y-101500
X149500Y-103500
X150500Y-101500
X150500Y-103500
X151500Y-101500
X151500Y-103500
X152500Y-101500
X152500Y-103500
X153500Y-101500
X153500Y-103500
X154500Y-101500
X154500Y-103500
X155500Y-101500
X155500Y-103500
X156500Y-101500
X156500Y-103500
T2
X144000Y-095600
X147500Y-095600
T0
M30
