M48
;DRILL file {KiCad 4.0.4-stable} date Sun Sep 18 14:28:14 2016
;FORMAT={3:3/ absolute / metric / keep zeros}
FMAT,2
METRIC,TZ
T1C0.254
T2C0.400
T3C0.700
T4C1.200
T5C2.700
%
G90
G05
M71
T1
X244000Y-093000
X244000Y-099000
X244300Y-093950
X245300Y-093850
X245300Y-095200
X245900Y-093850
X245900Y-095200
X246000Y-091000
X246000Y-092000
X246000Y-093000
X246000Y-096000
X246000Y-097000
X246000Y-098000
X246000Y-099000
X246600Y-093600
X246600Y-095400
X247000Y-091000
X247000Y-092000
X247000Y-093000
X247000Y-093600
X247000Y-095400
X247000Y-096000
X247000Y-097000
X247000Y-098000
X247750Y-093600
X247750Y-095400
X248000Y-091000
X248000Y-092000
X248000Y-093000
X248000Y-096000
X248000Y-097000
X248000Y-098000
X248000Y-099000
X248500Y-093600
X248500Y-095400
X249000Y-091000
X249000Y-092000
X249000Y-093000
X249000Y-096000
X249000Y-097000
X249000Y-098000
X249250Y-093600
X249250Y-095400
X250000Y-091000
X250000Y-092000
X250000Y-093000
X250000Y-093600
X250000Y-095400
X250000Y-096000
X250000Y-097000
X250000Y-098000
X250000Y-099000
X250750Y-093600
X250750Y-095400
X251000Y-091000
X251000Y-092000
X251000Y-093000
X251000Y-096000
X251000Y-097000
X251000Y-098000
X251500Y-093600
X251500Y-095400
X252000Y-091000
X252000Y-092000
X252000Y-093000
X252000Y-096000
X252000Y-097000
X252000Y-098000
X252250Y-093600
X252250Y-095400
X253000Y-091000
X253000Y-092000
X253000Y-093000
X253000Y-093600
X253000Y-095400
X253000Y-096000
X253000Y-097000
X253000Y-098000
X253000Y-099000
X253750Y-093600
X253750Y-095400
X254000Y-091000
X254000Y-092000
X254000Y-093000
X254000Y-096000
X254000Y-097000
X254000Y-098000
X254500Y-093600
X254500Y-095400
X255000Y-091000
X255000Y-093000
X255000Y-096000
X255000Y-098000
X255250Y-093600
X255250Y-095400
X256000Y-091000
X256000Y-092000
X256000Y-093000
X256000Y-093600
X256000Y-095400
X256000Y-096000
X256000Y-097000
X256000Y-098000
X256000Y-099000
X256750Y-093600
X256750Y-095400
X257000Y-091000
X257000Y-092000
X257000Y-093000
X257000Y-096000
X257000Y-097000
X257000Y-098000
X257500Y-093600
X257500Y-095400
T2
X162130Y-093530
X167400Y-087000
X168000Y-087760
X168530Y-093530
X168600Y-090400
X169600Y-097400
X171100Y-104100
X171380Y-095600
X172200Y-097200
X172200Y-105000
X173000Y-106000
X173100Y-096200
X173600Y-108400
X174200Y-114400
X174300Y-094500
X174900Y-095900
X174900Y-097200
X175425Y-111725
X175800Y-106600
X176900Y-115200
X177350Y-092950
X177400Y-085800
X178400Y-111700
X178650Y-096650
X179200Y-085200
X179200Y-086000
X180000Y-106600
X180300Y-115500
X180600Y-095350
X180600Y-103600
X181200Y-093600
X181200Y-103800
X181250Y-105500
X181400Y-106600
X181500Y-102300
X181950Y-101250
X182750Y-092750
X183000Y-106600
X183150Y-111850
X183250Y-104500
X183800Y-090900
X183900Y-088700
X184100Y-109400
X184500Y-090200
X185000Y-091600
X186100Y-115000
X186400Y-087800
X186700Y-095700
X186700Y-096850
X186700Y-098000
X186700Y-099150
X186800Y-107784
X187000Y-102000
X187000Y-104250
X187200Y-115000
X187270Y-112110
X187270Y-113300
X187300Y-110800
X187500Y-089250
X187848Y-089888
X187850Y-095700
X187850Y-096850
X187850Y-098000
X187850Y-099150
X188000Y-103400
X188000Y-115000
X188100Y-110800
X188100Y-112110
X188100Y-113300
X188300Y-107700
X188500Y-086000
X189000Y-095700
X189000Y-096850
X189000Y-098000
X189000Y-099150
X189600Y-107784
X189750Y-104500
X190055Y-112455
X190150Y-095700
X190150Y-096850
X190150Y-098000
X190150Y-099150
X190300Y-089000
X190325Y-090000
X190500Y-104500
X190700Y-090700
X191200Y-107784
X191400Y-115173
X191500Y-101000
X191500Y-110900
X191500Y-114000
X192100Y-090700
X192600Y-097800
X193000Y-087000
X193000Y-096500
X193600Y-090700
X193700Y-090100
X193700Y-094600
X194000Y-102600
X194600Y-103400
X195250Y-084950
X195600Y-103200
X195700Y-115150
X196550Y-095550
X196600Y-101000
X196600Y-103400
X197500Y-087000
X197750Y-103250
X198350Y-097150
X199100Y-094600
X200250Y-105750
X201450Y-109900
X202500Y-103250
X203400Y-109300
X203950Y-096000
X203950Y-097300
X203950Y-111350
X205250Y-096000
X205250Y-097300
X206000Y-108700
X206250Y-110250
X207600Y-095646
X207600Y-096373
X207600Y-097100
X207750Y-115050
X208550Y-112350
X209300Y-096300
X209300Y-097027
X210750Y-110250
X216250Y-086573
X216250Y-087500
X216250Y-089250
X216250Y-091000
X216250Y-092750
X216250Y-094500
X216250Y-096250
X216250Y-097750
X216250Y-099500
X216250Y-101250
X216250Y-103000
X216250Y-104750
X216250Y-106500
X216250Y-108250
X216250Y-110000
X216250Y-111750
X216250Y-113500
X221700Y-095200
X222900Y-092927
X222900Y-093654
X222900Y-094381
X223000Y-091800
X223760Y-113160
X224750Y-110950
X224750Y-113150
X225450Y-092500
X225450Y-093800
X225740Y-113210
X226750Y-092500
X226750Y-093800
X228900Y-107400
X229500Y-100500
X229500Y-102000
X229500Y-103500
X229600Y-114000
X229650Y-104750
X230000Y-094700
X230000Y-097600
X231300Y-107450
X231500Y-097200
X231600Y-094200
X232200Y-114000
X233600Y-087400
X233800Y-107450
X234050Y-094300
X234050Y-095200
X234600Y-113800
X234950Y-094300
X234950Y-095200
X235650Y-101100
X235900Y-100200
X236250Y-105000
X236252Y-102500
X236300Y-107450
X237200Y-113800
X237250Y-101750
X238000Y-100500
X238500Y-099750
X238800Y-107450
X239050Y-091750
X239350Y-087400
X239700Y-113800
X241050Y-107450
X241600Y-094350
X241600Y-095250
X242200Y-113800
X242500Y-094350
X242500Y-095250
X243173Y-098127
X243500Y-103500
X243800Y-097600
X243900Y-091700
X244150Y-096750
X244250Y-101000
X244800Y-091300
X247200Y-100500
X249000Y-103750
X250000Y-105000
X251000Y-101250
X251000Y-102750
X254900Y-091800
X254900Y-097200
X255400Y-102800
X255400Y-104700
T3
X164180Y-088450
X164180Y-089720
X164180Y-090990
X164180Y-092260
X164180Y-093530
X164180Y-094800
X164180Y-096070
X164180Y-097340
X164180Y-098610
X164180Y-099880
X164180Y-101150
X164180Y-102420
X164180Y-103690
X164180Y-104960
X164180Y-106230
X164180Y-107500
X164180Y-108770
X164180Y-110040
X164180Y-111310
X164180Y-112580
X165450Y-088450
X165450Y-089720
X165450Y-090990
X165450Y-092260
X165450Y-093530
X165450Y-094800
X165450Y-096070
X165450Y-097340
X165450Y-098610
X165450Y-099880
X165450Y-101150
X165450Y-102420
X165450Y-103690
X165450Y-104960
X165450Y-106230
X165450Y-107500
X165450Y-108770
X165450Y-110040
X165450Y-111310
X165450Y-112580
T4
X254950Y-110450
X254950Y-113950
T5
X171000Y-088000
X171000Y-113000
X246460Y-088000
X246460Y-113000
T0
M30
