G04 #@! TF.FileFunction,Legend,Top*
%FSLAX46Y46*%
G04 Gerber Fmt 4.6, Leading zero omitted, Abs format (unit mm)*
G04 Created by KiCad (PCBNEW 4.0.2-stable) date Tue Mar  8 23:30:59 2016*
%MOMM*%
G01*
G04 APERTURE LIST*
%ADD10C,0.100000*%
%ADD11C,0.250000*%
%ADD12C,0.225000*%
%ADD13C,0.150000*%
G04 APERTURE END LIST*
D10*
D11*
X120638096Y-113147619D02*
X120542858Y-113100000D01*
X120447620Y-113004762D01*
X120304763Y-112861905D01*
X120209524Y-112814286D01*
X120114286Y-112814286D01*
X120161905Y-113052381D02*
X120066667Y-113004762D01*
X119971429Y-112909524D01*
X119923810Y-112719048D01*
X119923810Y-112385714D01*
X119971429Y-112195238D01*
X120066667Y-112100000D01*
X120161905Y-112052381D01*
X120352382Y-112052381D01*
X120447620Y-112100000D01*
X120542858Y-112195238D01*
X120590477Y-112385714D01*
X120590477Y-112719048D01*
X120542858Y-112909524D01*
X120447620Y-113004762D01*
X120352382Y-113052381D01*
X120161905Y-113052381D01*
X121780953Y-113052381D02*
X121780953Y-112052381D01*
X122257143Y-113052381D02*
X122257143Y-112052381D01*
X122828572Y-113052381D01*
X122828572Y-112052381D01*
X120457143Y-122852381D02*
X120457143Y-121852381D01*
X121695238Y-122852381D02*
X121695238Y-121852381D01*
X122171428Y-122852381D02*
X122171428Y-121852381D01*
X122742857Y-122852381D01*
X122742857Y-121852381D01*
X133004762Y-130523809D02*
X133052381Y-130619047D01*
X133052381Y-130809524D01*
X133004762Y-130904762D01*
X132957143Y-130952381D01*
X132861905Y-131000000D01*
X132576190Y-131000000D01*
X132480952Y-130952381D01*
X132433333Y-130904762D01*
X132385714Y-130809524D01*
X132385714Y-130619047D01*
X132433333Y-130523809D01*
X133052381Y-129952381D02*
X133004762Y-130047619D01*
X132957143Y-130095238D01*
X132861905Y-130142857D01*
X132576190Y-130142857D01*
X132480952Y-130095238D01*
X132433333Y-130047619D01*
X132385714Y-129952381D01*
X132385714Y-129809523D01*
X132433333Y-129714285D01*
X132480952Y-129666666D01*
X132576190Y-129619047D01*
X132861905Y-129619047D01*
X132957143Y-129666666D01*
X133004762Y-129714285D01*
X133052381Y-129809523D01*
X133052381Y-129952381D01*
X133052381Y-129190476D02*
X132385714Y-129190476D01*
X132480952Y-129190476D02*
X132433333Y-129142857D01*
X132385714Y-129047619D01*
X132385714Y-128904761D01*
X132433333Y-128809523D01*
X132528571Y-128761904D01*
X133052381Y-128761904D01*
X132528571Y-128761904D02*
X132433333Y-128714285D01*
X132385714Y-128619047D01*
X132385714Y-128476190D01*
X132433333Y-128380952D01*
X132528571Y-128333333D01*
X133052381Y-128333333D01*
X132385714Y-126666666D02*
X133195238Y-126666666D01*
X133290476Y-126714285D01*
X133338095Y-126761904D01*
X133385714Y-126857143D01*
X133385714Y-127000000D01*
X133338095Y-127095238D01*
X133004762Y-126666666D02*
X133052381Y-126761904D01*
X133052381Y-126952381D01*
X133004762Y-127047619D01*
X132957143Y-127095238D01*
X132861905Y-127142857D01*
X132576190Y-127142857D01*
X132480952Y-127095238D01*
X132433333Y-127047619D01*
X132385714Y-126952381D01*
X132385714Y-126761904D01*
X132433333Y-126666666D01*
X132385714Y-126190476D02*
X133052381Y-126190476D01*
X132480952Y-126190476D02*
X132433333Y-126142857D01*
X132385714Y-126047619D01*
X132385714Y-125904761D01*
X132433333Y-125809523D01*
X132528571Y-125761904D01*
X133052381Y-125761904D01*
X133052381Y-124857142D02*
X132052381Y-124857142D01*
X133004762Y-124857142D02*
X133052381Y-124952380D01*
X133052381Y-125142857D01*
X133004762Y-125238095D01*
X132957143Y-125285714D01*
X132861905Y-125333333D01*
X132576190Y-125333333D01*
X132480952Y-125285714D01*
X132433333Y-125238095D01*
X132385714Y-125142857D01*
X132385714Y-124952380D01*
X132433333Y-124857142D01*
X133052381Y-123619047D02*
X132052381Y-123619047D01*
X133147619Y-120952380D02*
X133100000Y-121047618D01*
X133004762Y-121142856D01*
X132861905Y-121285713D01*
X132814286Y-121380952D01*
X132814286Y-121476190D01*
X133052381Y-121428571D02*
X133004762Y-121523809D01*
X132909524Y-121619047D01*
X132719048Y-121666666D01*
X132385714Y-121666666D01*
X132195238Y-121619047D01*
X132100000Y-121523809D01*
X132052381Y-121428571D01*
X132052381Y-121238094D01*
X132100000Y-121142856D01*
X132195238Y-121047618D01*
X132385714Y-120999999D01*
X132719048Y-120999999D01*
X132909524Y-121047618D01*
X133004762Y-121142856D01*
X133052381Y-121238094D01*
X133052381Y-121428571D01*
X154690476Y-126252381D02*
X154214285Y-126252381D01*
X154214285Y-125252381D01*
X157119048Y-126252381D02*
X156785714Y-125776190D01*
X156547619Y-126252381D02*
X156547619Y-125252381D01*
X156928572Y-125252381D01*
X157023810Y-125300000D01*
X157071429Y-125347619D01*
X157119048Y-125442857D01*
X157119048Y-125585714D01*
X157071429Y-125680952D01*
X157023810Y-125728571D01*
X156928572Y-125776190D01*
X156547619Y-125776190D01*
X158738096Y-125585714D02*
X158738096Y-126395238D01*
X158690477Y-126490476D01*
X158642858Y-126538095D01*
X158547619Y-126585714D01*
X158404762Y-126585714D01*
X158309524Y-126538095D01*
X158738096Y-126204762D02*
X158642858Y-126252381D01*
X158452381Y-126252381D01*
X158357143Y-126204762D01*
X158309524Y-126157143D01*
X158261905Y-126061905D01*
X158261905Y-125776190D01*
X158309524Y-125680952D01*
X158357143Y-125633333D01*
X158452381Y-125585714D01*
X158642858Y-125585714D01*
X158738096Y-125633333D01*
X159214286Y-125585714D02*
X159214286Y-126252381D01*
X159214286Y-125680952D02*
X159261905Y-125633333D01*
X159357143Y-125585714D01*
X159500001Y-125585714D01*
X159595239Y-125633333D01*
X159642858Y-125728571D01*
X159642858Y-126252381D01*
X160547620Y-126252381D02*
X160547620Y-125252381D01*
X160547620Y-126204762D02*
X160452382Y-126252381D01*
X160261905Y-126252381D01*
X160166667Y-126204762D01*
X160119048Y-126157143D01*
X160071429Y-126061905D01*
X160071429Y-125776190D01*
X160119048Y-125680952D01*
X160166667Y-125633333D01*
X160261905Y-125585714D01*
X160452382Y-125585714D01*
X160547620Y-125633333D01*
D12*
X118921428Y-107722143D02*
X118921428Y-108622143D01*
X118921428Y-107765000D02*
X119007142Y-107722143D01*
X119178571Y-107722143D01*
X119264285Y-107765000D01*
X119307142Y-107807857D01*
X119349999Y-107893571D01*
X119349999Y-108150714D01*
X119307142Y-108236429D01*
X119264285Y-108279286D01*
X119178571Y-108322143D01*
X119007142Y-108322143D01*
X118921428Y-108279286D01*
X120121428Y-108279286D02*
X120035714Y-108322143D01*
X119864285Y-108322143D01*
X119778571Y-108279286D01*
X119735714Y-108236429D01*
X119692857Y-108150714D01*
X119692857Y-107893571D01*
X119735714Y-107807857D01*
X119778571Y-107765000D01*
X119864285Y-107722143D01*
X120035714Y-107722143D01*
X120121428Y-107765000D01*
X120507143Y-108322143D02*
X120507143Y-107722143D01*
X120507143Y-107807857D02*
X120550000Y-107765000D01*
X120635714Y-107722143D01*
X120764286Y-107722143D01*
X120850000Y-107765000D01*
X120892857Y-107850714D01*
X120892857Y-108322143D01*
X120892857Y-107850714D02*
X120935714Y-107765000D01*
X121021428Y-107722143D01*
X121150000Y-107722143D01*
X121235714Y-107765000D01*
X121278571Y-107850714D01*
X121278571Y-108322143D01*
X121664286Y-107507857D02*
X121707143Y-107465000D01*
X121792857Y-107422143D01*
X122007143Y-107422143D01*
X122092857Y-107465000D01*
X122135714Y-107507857D01*
X122178571Y-107593571D01*
X122178571Y-107679286D01*
X122135714Y-107807857D01*
X121621428Y-108322143D01*
X122178571Y-108322143D01*
X122607143Y-108322143D02*
X122778571Y-108322143D01*
X122864286Y-108279286D01*
X122907143Y-108236429D01*
X122992857Y-108107857D01*
X123035714Y-107936429D01*
X123035714Y-107593571D01*
X122992857Y-107507857D01*
X122950000Y-107465000D01*
X122864286Y-107422143D01*
X122692857Y-107422143D01*
X122607143Y-107465000D01*
X122564286Y-107507857D01*
X122521429Y-107593571D01*
X122521429Y-107807857D01*
X122564286Y-107893571D01*
X122607143Y-107936429D01*
X122692857Y-107979286D01*
X122864286Y-107979286D01*
X122950000Y-107936429D01*
X122992857Y-107893571D01*
X123035714Y-107807857D01*
X123592857Y-107422143D02*
X123678572Y-107422143D01*
X123764286Y-107465000D01*
X123807143Y-107507857D01*
X123850000Y-107593571D01*
X123892857Y-107765000D01*
X123892857Y-107979286D01*
X123850000Y-108150714D01*
X123807143Y-108236429D01*
X123764286Y-108279286D01*
X123678572Y-108322143D01*
X123592857Y-108322143D01*
X123507143Y-108279286D01*
X123464286Y-108236429D01*
X123421429Y-108150714D01*
X123378572Y-107979286D01*
X123378572Y-107765000D01*
X123421429Y-107593571D01*
X123464286Y-107507857D01*
X123507143Y-107465000D01*
X123592857Y-107422143D01*
X124450000Y-107422143D02*
X124535715Y-107422143D01*
X124621429Y-107465000D01*
X124664286Y-107507857D01*
X124707143Y-107593571D01*
X124750000Y-107765000D01*
X124750000Y-107979286D01*
X124707143Y-108150714D01*
X124664286Y-108236429D01*
X124621429Y-108279286D01*
X124535715Y-108322143D01*
X124450000Y-108322143D01*
X124364286Y-108279286D01*
X124321429Y-108236429D01*
X124278572Y-108150714D01*
X124235715Y-107979286D01*
X124235715Y-107765000D01*
X124278572Y-107593571D01*
X124321429Y-107507857D01*
X124364286Y-107465000D01*
X124450000Y-107422143D01*
X125521429Y-108279286D02*
X125435715Y-108322143D01*
X125264286Y-108322143D01*
X125178572Y-108279286D01*
X125135715Y-108236429D01*
X125092858Y-108150714D01*
X125092858Y-107893571D01*
X125135715Y-107807857D01*
X125178572Y-107765000D01*
X125264286Y-107722143D01*
X125435715Y-107722143D01*
X125521429Y-107765000D01*
X119500000Y-109807143D02*
X119500000Y-108907143D01*
X119500000Y-109250000D02*
X119585714Y-109207143D01*
X119757143Y-109207143D01*
X119842857Y-109250000D01*
X119885714Y-109292857D01*
X119928571Y-109378571D01*
X119928571Y-109635714D01*
X119885714Y-109721429D01*
X119842857Y-109764286D01*
X119757143Y-109807143D01*
X119585714Y-109807143D01*
X119500000Y-109764286D01*
X120314286Y-109807143D02*
X120314286Y-109207143D01*
X120314286Y-109378571D02*
X120357143Y-109292857D01*
X120400000Y-109250000D01*
X120485714Y-109207143D01*
X120571429Y-109207143D01*
X121214286Y-109764286D02*
X121128572Y-109807143D01*
X120957143Y-109807143D01*
X120871429Y-109764286D01*
X120828572Y-109678571D01*
X120828572Y-109335714D01*
X120871429Y-109250000D01*
X120957143Y-109207143D01*
X121128572Y-109207143D01*
X121214286Y-109250000D01*
X121257143Y-109335714D01*
X121257143Y-109421429D01*
X120828572Y-109507143D01*
X122028572Y-109807143D02*
X122028572Y-109335714D01*
X121985715Y-109250000D01*
X121900001Y-109207143D01*
X121728572Y-109207143D01*
X121642858Y-109250000D01*
X122028572Y-109764286D02*
X121942858Y-109807143D01*
X121728572Y-109807143D01*
X121642858Y-109764286D01*
X121600001Y-109678571D01*
X121600001Y-109592857D01*
X121642858Y-109507143D01*
X121728572Y-109464286D01*
X121942858Y-109464286D01*
X122028572Y-109421429D01*
X122457144Y-109807143D02*
X122457144Y-108907143D01*
X122542858Y-109464286D02*
X122800001Y-109807143D01*
X122800001Y-109207143D02*
X122457144Y-109550000D01*
X123314286Y-109807143D02*
X123228572Y-109764286D01*
X123185715Y-109721429D01*
X123142858Y-109635714D01*
X123142858Y-109378571D01*
X123185715Y-109292857D01*
X123228572Y-109250000D01*
X123314286Y-109207143D01*
X123442858Y-109207143D01*
X123528572Y-109250000D01*
X123571429Y-109292857D01*
X123614286Y-109378571D01*
X123614286Y-109635714D01*
X123571429Y-109721429D01*
X123528572Y-109764286D01*
X123442858Y-109807143D01*
X123314286Y-109807143D01*
X124385715Y-109207143D02*
X124385715Y-109807143D01*
X124000001Y-109207143D02*
X124000001Y-109678571D01*
X124042858Y-109764286D01*
X124128572Y-109807143D01*
X124257144Y-109807143D01*
X124342858Y-109764286D01*
X124385715Y-109721429D01*
X124685715Y-109207143D02*
X125028572Y-109207143D01*
X124814287Y-108907143D02*
X124814287Y-109678571D01*
X124857144Y-109764286D01*
X124942858Y-109807143D01*
X125028572Y-109807143D01*
X119585715Y-110477857D02*
X119628572Y-110435000D01*
X119714286Y-110392143D01*
X119928572Y-110392143D01*
X120014286Y-110435000D01*
X120057143Y-110477857D01*
X120100000Y-110563571D01*
X120100000Y-110649286D01*
X120057143Y-110777857D01*
X119542857Y-111292143D01*
X120100000Y-111292143D01*
X120657143Y-110392143D02*
X120742858Y-110392143D01*
X120828572Y-110435000D01*
X120871429Y-110477857D01*
X120914286Y-110563571D01*
X120957143Y-110735000D01*
X120957143Y-110949286D01*
X120914286Y-111120714D01*
X120871429Y-111206429D01*
X120828572Y-111249286D01*
X120742858Y-111292143D01*
X120657143Y-111292143D01*
X120571429Y-111249286D01*
X120528572Y-111206429D01*
X120485715Y-111120714D01*
X120442858Y-110949286D01*
X120442858Y-110735000D01*
X120485715Y-110563571D01*
X120528572Y-110477857D01*
X120571429Y-110435000D01*
X120657143Y-110392143D01*
X121814286Y-111292143D02*
X121300001Y-111292143D01*
X121557143Y-111292143D02*
X121557143Y-110392143D01*
X121471429Y-110520714D01*
X121385715Y-110606429D01*
X121300001Y-110649286D01*
X122585715Y-110392143D02*
X122414286Y-110392143D01*
X122328572Y-110435000D01*
X122285715Y-110477857D01*
X122200001Y-110606429D01*
X122157144Y-110777857D01*
X122157144Y-111120714D01*
X122200001Y-111206429D01*
X122242858Y-111249286D01*
X122328572Y-111292143D01*
X122500001Y-111292143D01*
X122585715Y-111249286D01*
X122628572Y-111206429D01*
X122671429Y-111120714D01*
X122671429Y-110906429D01*
X122628572Y-110820714D01*
X122585715Y-110777857D01*
X122500001Y-110735000D01*
X122328572Y-110735000D01*
X122242858Y-110777857D01*
X122200001Y-110820714D01*
X122157144Y-110906429D01*
X123057144Y-111206429D02*
X123100001Y-111249286D01*
X123057144Y-111292143D01*
X123014287Y-111249286D01*
X123057144Y-111206429D01*
X123057144Y-111292143D01*
X123657143Y-110392143D02*
X123742858Y-110392143D01*
X123828572Y-110435000D01*
X123871429Y-110477857D01*
X123914286Y-110563571D01*
X123957143Y-110735000D01*
X123957143Y-110949286D01*
X123914286Y-111120714D01*
X123871429Y-111206429D01*
X123828572Y-111249286D01*
X123742858Y-111292143D01*
X123657143Y-111292143D01*
X123571429Y-111249286D01*
X123528572Y-111206429D01*
X123485715Y-111120714D01*
X123442858Y-110949286D01*
X123442858Y-110735000D01*
X123485715Y-110563571D01*
X123528572Y-110477857D01*
X123571429Y-110435000D01*
X123657143Y-110392143D01*
X124257143Y-110392143D02*
X124814286Y-110392143D01*
X124514286Y-110735000D01*
X124642858Y-110735000D01*
X124728572Y-110777857D01*
X124771429Y-110820714D01*
X124814286Y-110906429D01*
X124814286Y-111120714D01*
X124771429Y-111206429D01*
X124728572Y-111249286D01*
X124642858Y-111292143D01*
X124385715Y-111292143D01*
X124300001Y-111249286D01*
X124257143Y-111206429D01*
D13*
X143850000Y-109850000D02*
X143150000Y-109850000D01*
X143150000Y-108650000D02*
X143850000Y-108650000D01*
X156000000Y-122750000D02*
X156000000Y-122050000D01*
X157200000Y-122050000D02*
X157200000Y-122750000D01*
X153650000Y-122750000D02*
X153650000Y-122050000D01*
X154850000Y-122050000D02*
X154850000Y-122750000D01*
X150550000Y-109000000D02*
X149850000Y-109000000D01*
X149850000Y-107800000D02*
X150550000Y-107800000D01*
X155350000Y-113650000D02*
X155350000Y-114350000D01*
X154150000Y-114350000D02*
X154150000Y-113650000D01*
X160850000Y-108900000D02*
X160850000Y-109600000D01*
X159650000Y-109600000D02*
X159650000Y-108900000D01*
X158400000Y-122750000D02*
X158400000Y-122050000D01*
X159600000Y-122050000D02*
X159600000Y-122750000D01*
X136250640Y-107200820D02*
X128549360Y-107200820D01*
X136250640Y-106200060D02*
X128549360Y-106200060D01*
X128549360Y-106200060D02*
X128549360Y-115399940D01*
X128549360Y-115399940D02*
X136250640Y-115399940D01*
X136250640Y-115399940D02*
X136250640Y-106200060D01*
X136520000Y-127560000D02*
X136520000Y-119940000D01*
X133980000Y-127560000D02*
X133980000Y-119940000D01*
X133700000Y-130380000D02*
X133700000Y-128830000D01*
X136520000Y-119940000D02*
X133980000Y-119940000D01*
X133980000Y-127560000D02*
X136520000Y-127560000D01*
X136800000Y-128830000D02*
X136800000Y-130380000D01*
X136800000Y-130380000D02*
X133700000Y-130380000D01*
X155430000Y-129770000D02*
X160510000Y-129770000D01*
X160510000Y-129770000D02*
X160510000Y-127230000D01*
X160510000Y-127230000D02*
X155430000Y-127230000D01*
X152610000Y-126950000D02*
X154160000Y-126950000D01*
X155430000Y-127230000D02*
X155430000Y-129770000D01*
X154160000Y-130050000D02*
X152610000Y-130050000D01*
X152610000Y-130050000D02*
X152610000Y-126950000D01*
X127575000Y-120250000D02*
X127575000Y-119250000D01*
X128925000Y-119250000D02*
X128925000Y-120250000D01*
X128925000Y-124250000D02*
X128925000Y-125250000D01*
X127575000Y-125250000D02*
X127575000Y-124250000D01*
X128500000Y-116575000D02*
X129500000Y-116575000D01*
X129500000Y-117925000D02*
X128500000Y-117925000D01*
X128500000Y-126575000D02*
X129500000Y-126575000D01*
X129500000Y-127925000D02*
X128500000Y-127925000D01*
X130075000Y-120250000D02*
X130075000Y-119250000D01*
X131425000Y-119250000D02*
X131425000Y-120250000D01*
X131425000Y-124250000D02*
X131425000Y-125250000D01*
X130075000Y-125250000D02*
X130075000Y-124250000D01*
X146300000Y-108575000D02*
X147300000Y-108575000D01*
X147300000Y-109925000D02*
X146300000Y-109925000D01*
X140075000Y-117500000D02*
X140075000Y-116500000D01*
X141425000Y-116500000D02*
X141425000Y-117500000D01*
X138575000Y-112500000D02*
X138575000Y-111500000D01*
X139925000Y-111500000D02*
X139925000Y-112500000D01*
X134700000Y-116225000D02*
X135700000Y-116225000D01*
X135700000Y-117575000D02*
X134700000Y-117575000D01*
X155475000Y-116700000D02*
X155475000Y-117700000D01*
X154125000Y-117700000D02*
X154125000Y-116700000D01*
X117976000Y-121020000D02*
X117976000Y-113400000D01*
X117722000Y-121020000D02*
X118230000Y-121020000D01*
X117722000Y-113400000D02*
X117722000Y-121020000D01*
X117722000Y-113400000D02*
X118230000Y-113400000D01*
X125850000Y-121020000D02*
X118230000Y-121020000D01*
X125850000Y-113400000D02*
X125850000Y-121020000D01*
X118230000Y-113400000D02*
X125850000Y-113400000D01*
X117976000Y-131020000D02*
X117976000Y-123400000D01*
X117722000Y-131020000D02*
X118230000Y-131020000D01*
X117722000Y-123400000D02*
X117722000Y-131020000D01*
X117722000Y-123400000D02*
X118230000Y-123400000D01*
X125850000Y-131020000D02*
X118230000Y-131020000D01*
X125850000Y-123400000D02*
X125850000Y-131020000D01*
X118230000Y-123400000D02*
X125850000Y-123400000D01*
X145375000Y-111175000D02*
X145375000Y-111825000D01*
X151125000Y-111175000D02*
X151125000Y-111825000D01*
X151125000Y-121825000D02*
X151125000Y-121175000D01*
X145375000Y-121825000D02*
X145375000Y-121175000D01*
X145375000Y-111175000D02*
X151125000Y-111175000D01*
X145375000Y-121825000D02*
X151125000Y-121825000D01*
X145375000Y-111825000D02*
X143775000Y-111825000D01*
X156200640Y-112050960D02*
X157000740Y-112050960D01*
X161199360Y-112050960D02*
X160399260Y-112050960D01*
X161199360Y-119549040D02*
X160399260Y-119549040D01*
X156200640Y-119549040D02*
X157000740Y-119549040D01*
X156200640Y-112050960D02*
X156200640Y-119549040D01*
X161199360Y-119549040D02*
X161199360Y-112050960D01*
X138650000Y-119125000D02*
X139850000Y-119125000D01*
X139850000Y-120875000D02*
X138650000Y-120875000D01*
X138650000Y-121875000D02*
X139850000Y-121875000D01*
X139850000Y-123625000D02*
X138650000Y-123625000D01*
X142551120Y-124397900D02*
X142551120Y-129599820D01*
X144948880Y-129599820D02*
X144948880Y-124397900D01*
X146048700Y-123399680D02*
X144948880Y-123399680D01*
X145548320Y-122800240D02*
X145548320Y-123999120D01*
X144948880Y-123902600D02*
X142551120Y-123902600D01*
X140448880Y-129602100D02*
X140448880Y-124400180D01*
X138051120Y-124400180D02*
X138051120Y-129602100D01*
X136951300Y-130600320D02*
X138051120Y-130600320D01*
X137451680Y-131199760D02*
X137451680Y-130000880D01*
X138051120Y-130097400D02*
X140448880Y-130097400D01*
X146051120Y-124400180D02*
X146051120Y-129602100D01*
X148448880Y-129602100D02*
X148448880Y-124400180D01*
X149548700Y-123401960D02*
X148448880Y-123401960D01*
X149048320Y-122802520D02*
X149048320Y-124001400D01*
X148448880Y-123904880D02*
X146051120Y-123904880D01*
X149551120Y-124400180D02*
X149551120Y-129602100D01*
X151948880Y-129602100D02*
X151948880Y-124400180D01*
X153048700Y-123401960D02*
X151948880Y-123401960D01*
X152548320Y-122802520D02*
X152548320Y-124001400D01*
X151948880Y-123904880D02*
X149551120Y-123904880D01*
X154700000Y-107850000D02*
X152800000Y-107850000D01*
X154700000Y-108950000D02*
X152800000Y-108950000D01*
X153800000Y-108400000D02*
X153350000Y-108400000D01*
X153850000Y-108650000D02*
X153850000Y-108150000D01*
X153850000Y-108400000D02*
X153600000Y-108650000D01*
X153600000Y-108650000D02*
X153600000Y-108150000D01*
X153600000Y-108150000D02*
X153850000Y-108400000D01*
X156675000Y-108700000D02*
X156675000Y-109700000D01*
X155325000Y-109700000D02*
X155325000Y-108700000D01*
X143366667Y-108085714D02*
X143328572Y-108123810D01*
X143214286Y-108161905D01*
X143138096Y-108161905D01*
X143023810Y-108123810D01*
X142947619Y-108047619D01*
X142909524Y-107971429D01*
X142871429Y-107819048D01*
X142871429Y-107704762D01*
X142909524Y-107552381D01*
X142947619Y-107476190D01*
X143023810Y-107400000D01*
X143138096Y-107361905D01*
X143214286Y-107361905D01*
X143328572Y-107400000D01*
X143366667Y-107438095D01*
X144128572Y-108161905D02*
X143671429Y-108161905D01*
X143900000Y-108161905D02*
X143900000Y-107361905D01*
X143823810Y-107476190D01*
X143747619Y-107552381D01*
X143671429Y-107590476D01*
X156266667Y-120685714D02*
X156228572Y-120723810D01*
X156114286Y-120761905D01*
X156038096Y-120761905D01*
X155923810Y-120723810D01*
X155847619Y-120647619D01*
X155809524Y-120571429D01*
X155771429Y-120419048D01*
X155771429Y-120304762D01*
X155809524Y-120152381D01*
X155847619Y-120076190D01*
X155923810Y-120000000D01*
X156038096Y-119961905D01*
X156114286Y-119961905D01*
X156228572Y-120000000D01*
X156266667Y-120038095D01*
X156952381Y-120228571D02*
X156952381Y-120761905D01*
X156761905Y-119923810D02*
X156571429Y-120495238D01*
X157066667Y-120495238D01*
X153285714Y-124933333D02*
X153323810Y-124971428D01*
X153361905Y-125085714D01*
X153361905Y-125161904D01*
X153323810Y-125276190D01*
X153247619Y-125352381D01*
X153171429Y-125390476D01*
X153019048Y-125428571D01*
X152904762Y-125428571D01*
X152752381Y-125390476D01*
X152676190Y-125352381D01*
X152600000Y-125276190D01*
X152561905Y-125161904D01*
X152561905Y-125085714D01*
X152600000Y-124971428D01*
X152638095Y-124933333D01*
X152561905Y-124209523D02*
X152561905Y-124590476D01*
X152942857Y-124628571D01*
X152904762Y-124590476D01*
X152866667Y-124514285D01*
X152866667Y-124323809D01*
X152904762Y-124247619D01*
X152942857Y-124209523D01*
X153019048Y-124171428D01*
X153209524Y-124171428D01*
X153285714Y-124209523D01*
X153323810Y-124247619D01*
X153361905Y-124323809D01*
X153361905Y-124514285D01*
X153323810Y-124590476D01*
X153285714Y-124628571D01*
X150616667Y-110285714D02*
X150578572Y-110323810D01*
X150464286Y-110361905D01*
X150388096Y-110361905D01*
X150273810Y-110323810D01*
X150197619Y-110247619D01*
X150159524Y-110171429D01*
X150121429Y-110019048D01*
X150121429Y-109904762D01*
X150159524Y-109752381D01*
X150197619Y-109676190D01*
X150273810Y-109600000D01*
X150388096Y-109561905D01*
X150464286Y-109561905D01*
X150578572Y-109600000D01*
X150616667Y-109638095D01*
X151302381Y-109561905D02*
X151150000Y-109561905D01*
X151073810Y-109600000D01*
X151035715Y-109638095D01*
X150959524Y-109752381D01*
X150921429Y-109904762D01*
X150921429Y-110209524D01*
X150959524Y-110285714D01*
X150997619Y-110323810D01*
X151073810Y-110361905D01*
X151226191Y-110361905D01*
X151302381Y-110323810D01*
X151340477Y-110285714D01*
X151378572Y-110209524D01*
X151378572Y-110019048D01*
X151340477Y-109942857D01*
X151302381Y-109904762D01*
X151226191Y-109866667D01*
X151073810Y-109866667D01*
X150997619Y-109904762D01*
X150959524Y-109942857D01*
X150921429Y-110019048D01*
X154035714Y-111633333D02*
X154073810Y-111671428D01*
X154111905Y-111785714D01*
X154111905Y-111861904D01*
X154073810Y-111976190D01*
X153997619Y-112052381D01*
X153921429Y-112090476D01*
X153769048Y-112128571D01*
X153654762Y-112128571D01*
X153502381Y-112090476D01*
X153426190Y-112052381D01*
X153350000Y-111976190D01*
X153311905Y-111861904D01*
X153311905Y-111785714D01*
X153350000Y-111671428D01*
X153388095Y-111633333D01*
X153311905Y-111366666D02*
X153311905Y-110833333D01*
X154111905Y-111176190D01*
X159135714Y-109714286D02*
X159173810Y-109752381D01*
X159211905Y-109866667D01*
X159211905Y-109942857D01*
X159173810Y-110057143D01*
X159097619Y-110133334D01*
X159021429Y-110171429D01*
X158869048Y-110209524D01*
X158754762Y-110209524D01*
X158602381Y-110171429D01*
X158526190Y-110133334D01*
X158450000Y-110057143D01*
X158411905Y-109942857D01*
X158411905Y-109866667D01*
X158450000Y-109752381D01*
X158488095Y-109714286D01*
X159211905Y-108952381D02*
X159211905Y-109409524D01*
X159211905Y-109180953D02*
X158411905Y-109180953D01*
X158526190Y-109257143D01*
X158602381Y-109333334D01*
X158640476Y-109409524D01*
X158411905Y-108457143D02*
X158411905Y-108380952D01*
X158450000Y-108304762D01*
X158488095Y-108266667D01*
X158564286Y-108228571D01*
X158716667Y-108190476D01*
X158907143Y-108190476D01*
X159059524Y-108228571D01*
X159135714Y-108266667D01*
X159173810Y-108304762D01*
X159211905Y-108380952D01*
X159211905Y-108457143D01*
X159173810Y-108533333D01*
X159135714Y-108571429D01*
X159059524Y-108609524D01*
X158907143Y-108647619D01*
X158716667Y-108647619D01*
X158564286Y-108609524D01*
X158488095Y-108571429D01*
X158450000Y-108533333D01*
X158411905Y-108457143D01*
X161085714Y-121914286D02*
X161123810Y-121952381D01*
X161161905Y-122066667D01*
X161161905Y-122142857D01*
X161123810Y-122257143D01*
X161047619Y-122333334D01*
X160971429Y-122371429D01*
X160819048Y-122409524D01*
X160704762Y-122409524D01*
X160552381Y-122371429D01*
X160476190Y-122333334D01*
X160400000Y-122257143D01*
X160361905Y-122142857D01*
X160361905Y-122066667D01*
X160400000Y-121952381D01*
X160438095Y-121914286D01*
X161161905Y-121152381D02*
X161161905Y-121609524D01*
X161161905Y-121380953D02*
X160361905Y-121380953D01*
X160476190Y-121457143D01*
X160552381Y-121533334D01*
X160590476Y-121609524D01*
X161161905Y-120390476D02*
X161161905Y-120847619D01*
X161161905Y-120619048D02*
X160361905Y-120619048D01*
X160476190Y-120695238D01*
X160552381Y-120771429D01*
X160590476Y-120847619D01*
X139361905Y-108590476D02*
X138561905Y-108590476D01*
X138561905Y-108285714D01*
X138600000Y-108209523D01*
X138638095Y-108171428D01*
X138714286Y-108133333D01*
X138828571Y-108133333D01*
X138904762Y-108171428D01*
X138942857Y-108209523D01*
X138980952Y-108285714D01*
X138980952Y-108590476D01*
X139361905Y-107371428D02*
X139361905Y-107828571D01*
X139361905Y-107600000D02*
X138561905Y-107600000D01*
X138676190Y-107676190D01*
X138752381Y-107752381D01*
X138790476Y-107828571D01*
X134409524Y-119561905D02*
X134409524Y-118761905D01*
X134714286Y-118761905D01*
X134790477Y-118800000D01*
X134828572Y-118838095D01*
X134866667Y-118914286D01*
X134866667Y-119028571D01*
X134828572Y-119104762D01*
X134790477Y-119142857D01*
X134714286Y-119180952D01*
X134409524Y-119180952D01*
X135171429Y-118838095D02*
X135209524Y-118800000D01*
X135285715Y-118761905D01*
X135476191Y-118761905D01*
X135552381Y-118800000D01*
X135590477Y-118838095D01*
X135628572Y-118914286D01*
X135628572Y-118990476D01*
X135590477Y-119104762D01*
X135133334Y-119561905D01*
X135628572Y-119561905D01*
X157009524Y-131161905D02*
X157009524Y-130361905D01*
X157314286Y-130361905D01*
X157390477Y-130400000D01*
X157428572Y-130438095D01*
X157466667Y-130514286D01*
X157466667Y-130628571D01*
X157428572Y-130704762D01*
X157390477Y-130742857D01*
X157314286Y-130780952D01*
X157009524Y-130780952D01*
X157733334Y-130361905D02*
X158228572Y-130361905D01*
X157961905Y-130666667D01*
X158076191Y-130666667D01*
X158152381Y-130704762D01*
X158190477Y-130742857D01*
X158228572Y-130819048D01*
X158228572Y-131009524D01*
X158190477Y-131085714D01*
X158152381Y-131123810D01*
X158076191Y-131161905D01*
X157847619Y-131161905D01*
X157771429Y-131123810D01*
X157733334Y-131085714D01*
X127111905Y-119533333D02*
X126730952Y-119800000D01*
X127111905Y-119990476D02*
X126311905Y-119990476D01*
X126311905Y-119685714D01*
X126350000Y-119609523D01*
X126388095Y-119571428D01*
X126464286Y-119533333D01*
X126578571Y-119533333D01*
X126654762Y-119571428D01*
X126692857Y-119609523D01*
X126730952Y-119685714D01*
X126730952Y-119990476D01*
X127111905Y-118771428D02*
X127111905Y-119228571D01*
X127111905Y-119000000D02*
X126311905Y-119000000D01*
X126426190Y-119076190D01*
X126502381Y-119152381D01*
X126540476Y-119228571D01*
X127111905Y-124883333D02*
X126730952Y-125150000D01*
X127111905Y-125340476D02*
X126311905Y-125340476D01*
X126311905Y-125035714D01*
X126350000Y-124959523D01*
X126388095Y-124921428D01*
X126464286Y-124883333D01*
X126578571Y-124883333D01*
X126654762Y-124921428D01*
X126692857Y-124959523D01*
X126730952Y-125035714D01*
X126730952Y-125340476D01*
X126388095Y-124578571D02*
X126350000Y-124540476D01*
X126311905Y-124464285D01*
X126311905Y-124273809D01*
X126350000Y-124197619D01*
X126388095Y-124159523D01*
X126464286Y-124121428D01*
X126540476Y-124121428D01*
X126654762Y-124159523D01*
X127111905Y-124616666D01*
X127111905Y-124121428D01*
X131116667Y-117611905D02*
X130850000Y-117230952D01*
X130659524Y-117611905D02*
X130659524Y-116811905D01*
X130964286Y-116811905D01*
X131040477Y-116850000D01*
X131078572Y-116888095D01*
X131116667Y-116964286D01*
X131116667Y-117078571D01*
X131078572Y-117154762D01*
X131040477Y-117192857D01*
X130964286Y-117230952D01*
X130659524Y-117230952D01*
X131383334Y-116811905D02*
X131878572Y-116811905D01*
X131611905Y-117116667D01*
X131726191Y-117116667D01*
X131802381Y-117154762D01*
X131840477Y-117192857D01*
X131878572Y-117269048D01*
X131878572Y-117459524D01*
X131840477Y-117535714D01*
X131802381Y-117573810D01*
X131726191Y-117611905D01*
X131497619Y-117611905D01*
X131421429Y-117573810D01*
X131383334Y-117535714D01*
X128866667Y-129361905D02*
X128600000Y-128980952D01*
X128409524Y-129361905D02*
X128409524Y-128561905D01*
X128714286Y-128561905D01*
X128790477Y-128600000D01*
X128828572Y-128638095D01*
X128866667Y-128714286D01*
X128866667Y-128828571D01*
X128828572Y-128904762D01*
X128790477Y-128942857D01*
X128714286Y-128980952D01*
X128409524Y-128980952D01*
X129552381Y-128828571D02*
X129552381Y-129361905D01*
X129361905Y-128523810D02*
X129171429Y-129095238D01*
X129666667Y-129095238D01*
X132861905Y-119533333D02*
X132480952Y-119800000D01*
X132861905Y-119990476D02*
X132061905Y-119990476D01*
X132061905Y-119685714D01*
X132100000Y-119609523D01*
X132138095Y-119571428D01*
X132214286Y-119533333D01*
X132328571Y-119533333D01*
X132404762Y-119571428D01*
X132442857Y-119609523D01*
X132480952Y-119685714D01*
X132480952Y-119990476D01*
X132061905Y-118809523D02*
X132061905Y-119190476D01*
X132442857Y-119228571D01*
X132404762Y-119190476D01*
X132366667Y-119114285D01*
X132366667Y-118923809D01*
X132404762Y-118847619D01*
X132442857Y-118809523D01*
X132519048Y-118771428D01*
X132709524Y-118771428D01*
X132785714Y-118809523D01*
X132823810Y-118847619D01*
X132861905Y-118923809D01*
X132861905Y-119114285D01*
X132823810Y-119190476D01*
X132785714Y-119228571D01*
X131561905Y-127333333D02*
X131180952Y-127600000D01*
X131561905Y-127790476D02*
X130761905Y-127790476D01*
X130761905Y-127485714D01*
X130800000Y-127409523D01*
X130838095Y-127371428D01*
X130914286Y-127333333D01*
X131028571Y-127333333D01*
X131104762Y-127371428D01*
X131142857Y-127409523D01*
X131180952Y-127485714D01*
X131180952Y-127790476D01*
X130761905Y-126647619D02*
X130761905Y-126800000D01*
X130800000Y-126876190D01*
X130838095Y-126914285D01*
X130952381Y-126990476D01*
X131104762Y-127028571D01*
X131409524Y-127028571D01*
X131485714Y-126990476D01*
X131523810Y-126952381D01*
X131561905Y-126876190D01*
X131561905Y-126723809D01*
X131523810Y-126647619D01*
X131485714Y-126609523D01*
X131409524Y-126571428D01*
X131219048Y-126571428D01*
X131142857Y-126609523D01*
X131104762Y-126647619D01*
X131066667Y-126723809D01*
X131066667Y-126876190D01*
X131104762Y-126952381D01*
X131142857Y-126990476D01*
X131219048Y-127028571D01*
X146666667Y-108161905D02*
X146400000Y-107780952D01*
X146209524Y-108161905D02*
X146209524Y-107361905D01*
X146514286Y-107361905D01*
X146590477Y-107400000D01*
X146628572Y-107438095D01*
X146666667Y-107514286D01*
X146666667Y-107628571D01*
X146628572Y-107704762D01*
X146590477Y-107742857D01*
X146514286Y-107780952D01*
X146209524Y-107780952D01*
X147047619Y-108161905D02*
X147200000Y-108161905D01*
X147276191Y-108123810D01*
X147314286Y-108085714D01*
X147390477Y-107971429D01*
X147428572Y-107819048D01*
X147428572Y-107514286D01*
X147390477Y-107438095D01*
X147352381Y-107400000D01*
X147276191Y-107361905D01*
X147123810Y-107361905D01*
X147047619Y-107400000D01*
X147009524Y-107438095D01*
X146971429Y-107514286D01*
X146971429Y-107704762D01*
X147009524Y-107780952D01*
X147047619Y-107819048D01*
X147123810Y-107857143D01*
X147276191Y-107857143D01*
X147352381Y-107819048D01*
X147390477Y-107780952D01*
X147428572Y-107704762D01*
X143011905Y-117514286D02*
X142630952Y-117780953D01*
X143011905Y-117971429D02*
X142211905Y-117971429D01*
X142211905Y-117666667D01*
X142250000Y-117590476D01*
X142288095Y-117552381D01*
X142364286Y-117514286D01*
X142478571Y-117514286D01*
X142554762Y-117552381D01*
X142592857Y-117590476D01*
X142630952Y-117666667D01*
X142630952Y-117971429D01*
X143011905Y-116752381D02*
X143011905Y-117209524D01*
X143011905Y-116980953D02*
X142211905Y-116980953D01*
X142326190Y-117057143D01*
X142402381Y-117133334D01*
X142440476Y-117209524D01*
X142211905Y-116257143D02*
X142211905Y-116180952D01*
X142250000Y-116104762D01*
X142288095Y-116066667D01*
X142364286Y-116028571D01*
X142516667Y-115990476D01*
X142707143Y-115990476D01*
X142859524Y-116028571D01*
X142935714Y-116066667D01*
X142973810Y-116104762D01*
X143011905Y-116180952D01*
X143011905Y-116257143D01*
X142973810Y-116333333D01*
X142935714Y-116371429D01*
X142859524Y-116409524D01*
X142707143Y-116447619D01*
X142516667Y-116447619D01*
X142364286Y-116409524D01*
X142288095Y-116371429D01*
X142250000Y-116333333D01*
X142211905Y-116257143D01*
X141361905Y-112514286D02*
X140980952Y-112780953D01*
X141361905Y-112971429D02*
X140561905Y-112971429D01*
X140561905Y-112666667D01*
X140600000Y-112590476D01*
X140638095Y-112552381D01*
X140714286Y-112514286D01*
X140828571Y-112514286D01*
X140904762Y-112552381D01*
X140942857Y-112590476D01*
X140980952Y-112666667D01*
X140980952Y-112971429D01*
X141361905Y-111752381D02*
X141361905Y-112209524D01*
X141361905Y-111980953D02*
X140561905Y-111980953D01*
X140676190Y-112057143D01*
X140752381Y-112133334D01*
X140790476Y-112209524D01*
X141361905Y-110990476D02*
X141361905Y-111447619D01*
X141361905Y-111219048D02*
X140561905Y-111219048D01*
X140676190Y-111295238D01*
X140752381Y-111371429D01*
X140790476Y-111447619D01*
X137435714Y-117261905D02*
X137169047Y-116880952D01*
X136978571Y-117261905D02*
X136978571Y-116461905D01*
X137283333Y-116461905D01*
X137359524Y-116500000D01*
X137397619Y-116538095D01*
X137435714Y-116614286D01*
X137435714Y-116728571D01*
X137397619Y-116804762D01*
X137359524Y-116842857D01*
X137283333Y-116880952D01*
X136978571Y-116880952D01*
X138197619Y-117261905D02*
X137740476Y-117261905D01*
X137969047Y-117261905D02*
X137969047Y-116461905D01*
X137892857Y-116576190D01*
X137816666Y-116652381D01*
X137740476Y-116690476D01*
X138502381Y-116538095D02*
X138540476Y-116500000D01*
X138616667Y-116461905D01*
X138807143Y-116461905D01*
X138883333Y-116500000D01*
X138921429Y-116538095D01*
X138959524Y-116614286D01*
X138959524Y-116690476D01*
X138921429Y-116804762D01*
X138464286Y-117261905D01*
X138959524Y-117261905D01*
X155161905Y-120114286D02*
X154780952Y-120380953D01*
X155161905Y-120571429D02*
X154361905Y-120571429D01*
X154361905Y-120266667D01*
X154400000Y-120190476D01*
X154438095Y-120152381D01*
X154514286Y-120114286D01*
X154628571Y-120114286D01*
X154704762Y-120152381D01*
X154742857Y-120190476D01*
X154780952Y-120266667D01*
X154780952Y-120571429D01*
X155161905Y-119352381D02*
X155161905Y-119809524D01*
X155161905Y-119580953D02*
X154361905Y-119580953D01*
X154476190Y-119657143D01*
X154552381Y-119733334D01*
X154590476Y-119809524D01*
X154361905Y-119085714D02*
X154361905Y-118590476D01*
X154666667Y-118857143D01*
X154666667Y-118742857D01*
X154704762Y-118666667D01*
X154742857Y-118628571D01*
X154819048Y-118590476D01*
X155009524Y-118590476D01*
X155085714Y-118628571D01*
X155123810Y-118666667D01*
X155161905Y-118742857D01*
X155161905Y-118971429D01*
X155123810Y-119047619D01*
X155085714Y-119085714D01*
X124790476Y-112161905D02*
X124790476Y-112809524D01*
X124828571Y-112885714D01*
X124866667Y-112923810D01*
X124942857Y-112961905D01*
X125095238Y-112961905D01*
X125171429Y-112923810D01*
X125209524Y-112885714D01*
X125247619Y-112809524D01*
X125247619Y-112161905D01*
X126047619Y-112961905D02*
X125590476Y-112961905D01*
X125819047Y-112961905D02*
X125819047Y-112161905D01*
X125742857Y-112276190D01*
X125666666Y-112352381D01*
X125590476Y-112390476D01*
X124790476Y-122161905D02*
X124790476Y-122809524D01*
X124828571Y-122885714D01*
X124866667Y-122923810D01*
X124942857Y-122961905D01*
X125095238Y-122961905D01*
X125171429Y-122923810D01*
X125209524Y-122885714D01*
X125247619Y-122809524D01*
X125247619Y-122161905D01*
X125590476Y-122238095D02*
X125628571Y-122200000D01*
X125704762Y-122161905D01*
X125895238Y-122161905D01*
X125971428Y-122200000D01*
X126009524Y-122238095D01*
X126047619Y-122314286D01*
X126047619Y-122390476D01*
X126009524Y-122504762D01*
X125552381Y-122961905D01*
X126047619Y-122961905D01*
X148361905Y-110609524D02*
X149009524Y-110609524D01*
X149085714Y-110571429D01*
X149123810Y-110533333D01*
X149161905Y-110457143D01*
X149161905Y-110304762D01*
X149123810Y-110228571D01*
X149085714Y-110190476D01*
X149009524Y-110152381D01*
X148361905Y-110152381D01*
X148361905Y-109847619D02*
X148361905Y-109352381D01*
X148666667Y-109619048D01*
X148666667Y-109504762D01*
X148704762Y-109428572D01*
X148742857Y-109390476D01*
X148819048Y-109352381D01*
X149009524Y-109352381D01*
X149085714Y-109390476D01*
X149123810Y-109428572D01*
X149161905Y-109504762D01*
X149161905Y-109733334D01*
X149123810Y-109809524D01*
X149085714Y-109847619D01*
X155819048Y-111380952D02*
X155819048Y-111761905D01*
X155552381Y-110961905D02*
X155819048Y-111380952D01*
X156085715Y-110961905D01*
X156771429Y-111761905D02*
X156314286Y-111761905D01*
X156542857Y-111761905D02*
X156542857Y-110961905D01*
X156466667Y-111076190D01*
X156390476Y-111152381D01*
X156314286Y-111190476D01*
X142361905Y-120133333D02*
X141980952Y-120400000D01*
X142361905Y-120590476D02*
X141561905Y-120590476D01*
X141561905Y-120285714D01*
X141600000Y-120209523D01*
X141638095Y-120171428D01*
X141714286Y-120133333D01*
X141828571Y-120133333D01*
X141904762Y-120171428D01*
X141942857Y-120209523D01*
X141980952Y-120285714D01*
X141980952Y-120590476D01*
X141561905Y-119866666D02*
X141561905Y-119333333D01*
X142361905Y-119676190D01*
X142361905Y-122733333D02*
X141980952Y-123000000D01*
X142361905Y-123190476D02*
X141561905Y-123190476D01*
X141561905Y-122885714D01*
X141600000Y-122809523D01*
X141638095Y-122771428D01*
X141714286Y-122733333D01*
X141828571Y-122733333D01*
X141904762Y-122771428D01*
X141942857Y-122809523D01*
X141980952Y-122885714D01*
X141980952Y-123190476D01*
X141904762Y-122276190D02*
X141866667Y-122352381D01*
X141828571Y-122390476D01*
X141752381Y-122428571D01*
X141714286Y-122428571D01*
X141638095Y-122390476D01*
X141600000Y-122352381D01*
X141561905Y-122276190D01*
X141561905Y-122123809D01*
X141600000Y-122047619D01*
X141638095Y-122009523D01*
X141714286Y-121971428D01*
X141752381Y-121971428D01*
X141828571Y-122009523D01*
X141866667Y-122047619D01*
X141904762Y-122123809D01*
X141904762Y-122276190D01*
X141942857Y-122352381D01*
X141980952Y-122390476D01*
X142057143Y-122428571D01*
X142209524Y-122428571D01*
X142285714Y-122390476D01*
X142323810Y-122352381D01*
X142361905Y-122276190D01*
X142361905Y-122123809D01*
X142323810Y-122047619D01*
X142285714Y-122009523D01*
X142209524Y-121971428D01*
X142057143Y-121971428D01*
X141980952Y-122009523D01*
X141942857Y-122047619D01*
X141904762Y-122123809D01*
X143666667Y-123285714D02*
X143628572Y-123323810D01*
X143514286Y-123361905D01*
X143438096Y-123361905D01*
X143323810Y-123323810D01*
X143247619Y-123247619D01*
X143209524Y-123171429D01*
X143171429Y-123019048D01*
X143171429Y-122904762D01*
X143209524Y-122752381D01*
X143247619Y-122676190D01*
X143323810Y-122600000D01*
X143438096Y-122561905D01*
X143514286Y-122561905D01*
X143628572Y-122600000D01*
X143666667Y-122638095D01*
X143971429Y-122638095D02*
X144009524Y-122600000D01*
X144085715Y-122561905D01*
X144276191Y-122561905D01*
X144352381Y-122600000D01*
X144390477Y-122638095D01*
X144428572Y-122714286D01*
X144428572Y-122790476D01*
X144390477Y-122904762D01*
X143933334Y-123361905D01*
X144428572Y-123361905D01*
X145622289Y-123780632D02*
X145622289Y-123018727D01*
X146003241Y-123399679D02*
X145241336Y-123399679D01*
X141785714Y-129133333D02*
X141823810Y-129171428D01*
X141861905Y-129285714D01*
X141861905Y-129361904D01*
X141823810Y-129476190D01*
X141747619Y-129552381D01*
X141671429Y-129590476D01*
X141519048Y-129628571D01*
X141404762Y-129628571D01*
X141252381Y-129590476D01*
X141176190Y-129552381D01*
X141100000Y-129476190D01*
X141061905Y-129361904D01*
X141061905Y-129285714D01*
X141100000Y-129171428D01*
X141138095Y-129133333D01*
X141061905Y-128866666D02*
X141061905Y-128371428D01*
X141366667Y-128638095D01*
X141366667Y-128523809D01*
X141404762Y-128447619D01*
X141442857Y-128409523D01*
X141519048Y-128371428D01*
X141709524Y-128371428D01*
X141785714Y-128409523D01*
X141823810Y-128447619D01*
X141861905Y-128523809D01*
X141861905Y-128752381D01*
X141823810Y-128828571D01*
X141785714Y-128866666D01*
X137520569Y-130981272D02*
X137520569Y-130219367D01*
X137901521Y-130600319D02*
X137139616Y-130600319D01*
X147066667Y-123285714D02*
X147028572Y-123323810D01*
X146914286Y-123361905D01*
X146838096Y-123361905D01*
X146723810Y-123323810D01*
X146647619Y-123247619D01*
X146609524Y-123171429D01*
X146571429Y-123019048D01*
X146571429Y-122904762D01*
X146609524Y-122752381D01*
X146647619Y-122676190D01*
X146723810Y-122600000D01*
X146838096Y-122561905D01*
X146914286Y-122561905D01*
X147028572Y-122600000D01*
X147066667Y-122638095D01*
X147523810Y-122904762D02*
X147447619Y-122866667D01*
X147409524Y-122828571D01*
X147371429Y-122752381D01*
X147371429Y-122714286D01*
X147409524Y-122638095D01*
X147447619Y-122600000D01*
X147523810Y-122561905D01*
X147676191Y-122561905D01*
X147752381Y-122600000D01*
X147790477Y-122638095D01*
X147828572Y-122714286D01*
X147828572Y-122752381D01*
X147790477Y-122828571D01*
X147752381Y-122866667D01*
X147676191Y-122904762D01*
X147523810Y-122904762D01*
X147447619Y-122942857D01*
X147409524Y-122980952D01*
X147371429Y-123057143D01*
X147371429Y-123209524D01*
X147409524Y-123285714D01*
X147447619Y-123323810D01*
X147523810Y-123361905D01*
X147676191Y-123361905D01*
X147752381Y-123323810D01*
X147790477Y-123285714D01*
X147828572Y-123209524D01*
X147828572Y-123057143D01*
X147790477Y-122980952D01*
X147752381Y-122942857D01*
X147676191Y-122904762D01*
X149122289Y-123782912D02*
X149122289Y-123021007D01*
X149503241Y-123401959D02*
X148741336Y-123401959D01*
X150666667Y-123285714D02*
X150628572Y-123323810D01*
X150514286Y-123361905D01*
X150438096Y-123361905D01*
X150323810Y-123323810D01*
X150247619Y-123247619D01*
X150209524Y-123171429D01*
X150171429Y-123019048D01*
X150171429Y-122904762D01*
X150209524Y-122752381D01*
X150247619Y-122676190D01*
X150323810Y-122600000D01*
X150438096Y-122561905D01*
X150514286Y-122561905D01*
X150628572Y-122600000D01*
X150666667Y-122638095D01*
X151047619Y-123361905D02*
X151200000Y-123361905D01*
X151276191Y-123323810D01*
X151314286Y-123285714D01*
X151390477Y-123171429D01*
X151428572Y-123019048D01*
X151428572Y-122714286D01*
X151390477Y-122638095D01*
X151352381Y-122600000D01*
X151276191Y-122561905D01*
X151123810Y-122561905D01*
X151047619Y-122600000D01*
X151009524Y-122638095D01*
X150971429Y-122714286D01*
X150971429Y-122904762D01*
X151009524Y-122980952D01*
X151047619Y-123019048D01*
X151123810Y-123057143D01*
X151276191Y-123057143D01*
X151352381Y-123019048D01*
X151390477Y-122980952D01*
X151428572Y-122904762D01*
X152622289Y-123782912D02*
X152622289Y-123021007D01*
X153003241Y-123401959D02*
X152241336Y-123401959D01*
X153009524Y-110261905D02*
X153009524Y-109461905D01*
X153200000Y-109461905D01*
X153314286Y-109500000D01*
X153390477Y-109576190D01*
X153428572Y-109652381D01*
X153466667Y-109804762D01*
X153466667Y-109919048D01*
X153428572Y-110071429D01*
X153390477Y-110147619D01*
X153314286Y-110223810D01*
X153200000Y-110261905D01*
X153009524Y-110261905D01*
X154228572Y-110261905D02*
X153771429Y-110261905D01*
X154000000Y-110261905D02*
X154000000Y-109461905D01*
X153923810Y-109576190D01*
X153847619Y-109652381D01*
X153771429Y-109690476D01*
X157861905Y-109714286D02*
X157480952Y-109980953D01*
X157861905Y-110171429D02*
X157061905Y-110171429D01*
X157061905Y-109866667D01*
X157100000Y-109790476D01*
X157138095Y-109752381D01*
X157214286Y-109714286D01*
X157328571Y-109714286D01*
X157404762Y-109752381D01*
X157442857Y-109790476D01*
X157480952Y-109866667D01*
X157480952Y-110171429D01*
X157861905Y-108952381D02*
X157861905Y-109409524D01*
X157861905Y-109180953D02*
X157061905Y-109180953D01*
X157176190Y-109257143D01*
X157252381Y-109333334D01*
X157290476Y-109409524D01*
X157328571Y-108266667D02*
X157861905Y-108266667D01*
X157023810Y-108457143D02*
X157595238Y-108647619D01*
X157595238Y-108152381D01*
M02*
