G04 #@! TF.FileFunction,Legend,Bot*
%FSLAX46Y46*%
G04 Gerber Fmt 4.6, Leading zero omitted, Abs format (unit mm)*
G04 Created by KiCad (PCBNEW 4.0.2-stable) date Mon 07 Mar 2016 02:30:54 PM HST*
%MOMM*%
G01*
G04 APERTURE LIST*
%ADD10C,0.100000*%
%ADD11C,0.225000*%
G04 APERTURE END LIST*
D10*
D11*
X154078572Y-119122143D02*
X154078572Y-120022143D01*
X154078572Y-119165000D02*
X153992858Y-119122143D01*
X153821429Y-119122143D01*
X153735715Y-119165000D01*
X153692858Y-119207857D01*
X153650001Y-119293571D01*
X153650001Y-119550714D01*
X153692858Y-119636429D01*
X153735715Y-119679286D01*
X153821429Y-119722143D01*
X153992858Y-119722143D01*
X154078572Y-119679286D01*
X152878572Y-119679286D02*
X152964286Y-119722143D01*
X153135715Y-119722143D01*
X153221429Y-119679286D01*
X153264286Y-119636429D01*
X153307143Y-119550714D01*
X153307143Y-119293571D01*
X153264286Y-119207857D01*
X153221429Y-119165000D01*
X153135715Y-119122143D01*
X152964286Y-119122143D01*
X152878572Y-119165000D01*
X152492857Y-119722143D02*
X152492857Y-119122143D01*
X152492857Y-119207857D02*
X152450000Y-119165000D01*
X152364286Y-119122143D01*
X152235714Y-119122143D01*
X152150000Y-119165000D01*
X152107143Y-119250714D01*
X152107143Y-119722143D01*
X152107143Y-119250714D02*
X152064286Y-119165000D01*
X151978572Y-119122143D01*
X151850000Y-119122143D01*
X151764286Y-119165000D01*
X151721429Y-119250714D01*
X151721429Y-119722143D01*
X151335714Y-118907857D02*
X151292857Y-118865000D01*
X151207143Y-118822143D01*
X150992857Y-118822143D01*
X150907143Y-118865000D01*
X150864286Y-118907857D01*
X150821429Y-118993571D01*
X150821429Y-119079286D01*
X150864286Y-119207857D01*
X151378572Y-119722143D01*
X150821429Y-119722143D01*
X150392857Y-119722143D02*
X150221429Y-119722143D01*
X150135714Y-119679286D01*
X150092857Y-119636429D01*
X150007143Y-119507857D01*
X149964286Y-119336429D01*
X149964286Y-118993571D01*
X150007143Y-118907857D01*
X150050000Y-118865000D01*
X150135714Y-118822143D01*
X150307143Y-118822143D01*
X150392857Y-118865000D01*
X150435714Y-118907857D01*
X150478571Y-118993571D01*
X150478571Y-119207857D01*
X150435714Y-119293571D01*
X150392857Y-119336429D01*
X150307143Y-119379286D01*
X150135714Y-119379286D01*
X150050000Y-119336429D01*
X150007143Y-119293571D01*
X149964286Y-119207857D01*
X149407143Y-118822143D02*
X149321428Y-118822143D01*
X149235714Y-118865000D01*
X149192857Y-118907857D01*
X149150000Y-118993571D01*
X149107143Y-119165000D01*
X149107143Y-119379286D01*
X149150000Y-119550714D01*
X149192857Y-119636429D01*
X149235714Y-119679286D01*
X149321428Y-119722143D01*
X149407143Y-119722143D01*
X149492857Y-119679286D01*
X149535714Y-119636429D01*
X149578571Y-119550714D01*
X149621428Y-119379286D01*
X149621428Y-119165000D01*
X149578571Y-118993571D01*
X149535714Y-118907857D01*
X149492857Y-118865000D01*
X149407143Y-118822143D01*
X148550000Y-118822143D02*
X148464285Y-118822143D01*
X148378571Y-118865000D01*
X148335714Y-118907857D01*
X148292857Y-118993571D01*
X148250000Y-119165000D01*
X148250000Y-119379286D01*
X148292857Y-119550714D01*
X148335714Y-119636429D01*
X148378571Y-119679286D01*
X148464285Y-119722143D01*
X148550000Y-119722143D01*
X148635714Y-119679286D01*
X148678571Y-119636429D01*
X148721428Y-119550714D01*
X148764285Y-119379286D01*
X148764285Y-119165000D01*
X148721428Y-118993571D01*
X148678571Y-118907857D01*
X148635714Y-118865000D01*
X148550000Y-118822143D01*
X147478571Y-119679286D02*
X147564285Y-119722143D01*
X147735714Y-119722143D01*
X147821428Y-119679286D01*
X147864285Y-119636429D01*
X147907142Y-119550714D01*
X147907142Y-119293571D01*
X147864285Y-119207857D01*
X147821428Y-119165000D01*
X147735714Y-119122143D01*
X147564285Y-119122143D01*
X147478571Y-119165000D01*
X153500000Y-121207143D02*
X153500000Y-120307143D01*
X153500000Y-120650000D02*
X153414286Y-120607143D01*
X153242857Y-120607143D01*
X153157143Y-120650000D01*
X153114286Y-120692857D01*
X153071429Y-120778571D01*
X153071429Y-121035714D01*
X153114286Y-121121429D01*
X153157143Y-121164286D01*
X153242857Y-121207143D01*
X153414286Y-121207143D01*
X153500000Y-121164286D01*
X152685714Y-121207143D02*
X152685714Y-120607143D01*
X152685714Y-120778571D02*
X152642857Y-120692857D01*
X152600000Y-120650000D01*
X152514286Y-120607143D01*
X152428571Y-120607143D01*
X151785714Y-121164286D02*
X151871428Y-121207143D01*
X152042857Y-121207143D01*
X152128571Y-121164286D01*
X152171428Y-121078571D01*
X152171428Y-120735714D01*
X152128571Y-120650000D01*
X152042857Y-120607143D01*
X151871428Y-120607143D01*
X151785714Y-120650000D01*
X151742857Y-120735714D01*
X151742857Y-120821429D01*
X152171428Y-120907143D01*
X150971428Y-121207143D02*
X150971428Y-120735714D01*
X151014285Y-120650000D01*
X151099999Y-120607143D01*
X151271428Y-120607143D01*
X151357142Y-120650000D01*
X150971428Y-121164286D02*
X151057142Y-121207143D01*
X151271428Y-121207143D01*
X151357142Y-121164286D01*
X151399999Y-121078571D01*
X151399999Y-120992857D01*
X151357142Y-120907143D01*
X151271428Y-120864286D01*
X151057142Y-120864286D01*
X150971428Y-120821429D01*
X150542856Y-121207143D02*
X150542856Y-120307143D01*
X150457142Y-120864286D02*
X150199999Y-121207143D01*
X150199999Y-120607143D02*
X150542856Y-120950000D01*
X149685714Y-121207143D02*
X149771428Y-121164286D01*
X149814285Y-121121429D01*
X149857142Y-121035714D01*
X149857142Y-120778571D01*
X149814285Y-120692857D01*
X149771428Y-120650000D01*
X149685714Y-120607143D01*
X149557142Y-120607143D01*
X149471428Y-120650000D01*
X149428571Y-120692857D01*
X149385714Y-120778571D01*
X149385714Y-121035714D01*
X149428571Y-121121429D01*
X149471428Y-121164286D01*
X149557142Y-121207143D01*
X149685714Y-121207143D01*
X148614285Y-120607143D02*
X148614285Y-121207143D01*
X148999999Y-120607143D02*
X148999999Y-121078571D01*
X148957142Y-121164286D01*
X148871428Y-121207143D01*
X148742856Y-121207143D01*
X148657142Y-121164286D01*
X148614285Y-121121429D01*
X148314285Y-120607143D02*
X147971428Y-120607143D01*
X148185713Y-120307143D02*
X148185713Y-121078571D01*
X148142856Y-121164286D01*
X148057142Y-121207143D01*
X147971428Y-121207143D01*
X153414285Y-121877857D02*
X153371428Y-121835000D01*
X153285714Y-121792143D01*
X153071428Y-121792143D01*
X152985714Y-121835000D01*
X152942857Y-121877857D01*
X152900000Y-121963571D01*
X152900000Y-122049286D01*
X152942857Y-122177857D01*
X153457143Y-122692143D01*
X152900000Y-122692143D01*
X152342857Y-121792143D02*
X152257142Y-121792143D01*
X152171428Y-121835000D01*
X152128571Y-121877857D01*
X152085714Y-121963571D01*
X152042857Y-122135000D01*
X152042857Y-122349286D01*
X152085714Y-122520714D01*
X152128571Y-122606429D01*
X152171428Y-122649286D01*
X152257142Y-122692143D01*
X152342857Y-122692143D01*
X152428571Y-122649286D01*
X152471428Y-122606429D01*
X152514285Y-122520714D01*
X152557142Y-122349286D01*
X152557142Y-122135000D01*
X152514285Y-121963571D01*
X152471428Y-121877857D01*
X152428571Y-121835000D01*
X152342857Y-121792143D01*
X151185714Y-122692143D02*
X151699999Y-122692143D01*
X151442857Y-122692143D02*
X151442857Y-121792143D01*
X151528571Y-121920714D01*
X151614285Y-122006429D01*
X151699999Y-122049286D01*
X150414285Y-121792143D02*
X150585714Y-121792143D01*
X150671428Y-121835000D01*
X150714285Y-121877857D01*
X150799999Y-122006429D01*
X150842856Y-122177857D01*
X150842856Y-122520714D01*
X150799999Y-122606429D01*
X150757142Y-122649286D01*
X150671428Y-122692143D01*
X150499999Y-122692143D01*
X150414285Y-122649286D01*
X150371428Y-122606429D01*
X150328571Y-122520714D01*
X150328571Y-122306429D01*
X150371428Y-122220714D01*
X150414285Y-122177857D01*
X150499999Y-122135000D01*
X150671428Y-122135000D01*
X150757142Y-122177857D01*
X150799999Y-122220714D01*
X150842856Y-122306429D01*
X149942856Y-122606429D02*
X149899999Y-122649286D01*
X149942856Y-122692143D01*
X149985713Y-122649286D01*
X149942856Y-122606429D01*
X149942856Y-122692143D01*
X149342857Y-121792143D02*
X149257142Y-121792143D01*
X149171428Y-121835000D01*
X149128571Y-121877857D01*
X149085714Y-121963571D01*
X149042857Y-122135000D01*
X149042857Y-122349286D01*
X149085714Y-122520714D01*
X149128571Y-122606429D01*
X149171428Y-122649286D01*
X149257142Y-122692143D01*
X149342857Y-122692143D01*
X149428571Y-122649286D01*
X149471428Y-122606429D01*
X149514285Y-122520714D01*
X149557142Y-122349286D01*
X149557142Y-122135000D01*
X149514285Y-121963571D01*
X149471428Y-121877857D01*
X149428571Y-121835000D01*
X149342857Y-121792143D01*
X148742857Y-121792143D02*
X148185714Y-121792143D01*
X148485714Y-122135000D01*
X148357142Y-122135000D01*
X148271428Y-122177857D01*
X148228571Y-122220714D01*
X148185714Y-122306429D01*
X148185714Y-122520714D01*
X148228571Y-122606429D01*
X148271428Y-122649286D01*
X148357142Y-122692143D01*
X148614285Y-122692143D01*
X148699999Y-122649286D01*
X148742857Y-122606429D01*
M02*
