M48
;DRILL file {KiCad 4.0.2-stable} date Mon 07 Mar 2016 10:40:36 AM HST
;FORMAT={-:-/ absolute / inch / decimal}
FMAT,2
INCH,TZ
T1C0.016
T2C0.040
T3C0.059
%
G90
G05
M72
T1
X5.0492Y-4.7835
X5.0492Y-4.8327
X5.1476Y-4.7835
X5.1476Y-4.8327
X5.1496Y-4.5669
X5.2756Y-4.441
X5.4232Y-4.9409
X5.4823Y-4.3307
X5.4823Y-4.4783
X5.4823Y-4.5768
X5.5709Y-4.3012
X5.6594Y-5.128
X5.7579Y-4.685
X5.7667Y-4.497
X5.9154Y-4.3406
X5.9154Y-4.4783
X5.9154Y-4.5177
X5.9154Y-4.5669
X6.0925Y-4.4094
X6.122Y-4.8524
X6.1417Y-4.3209
X6.2992Y-4.8425
T2
X5.3248Y-4.772
X5.3248Y-4.872
X5.3248Y-4.972
X5.3248Y-5.072
X6.0693Y-5.0591
X6.1693Y-5.0591
X6.2693Y-5.0591
T3
X4.7047Y-4.5146
X4.7047Y-4.7146
X4.7047Y-4.9083
X4.7047Y-5.1083
X4.8047Y-4.6146
X4.8047Y-5.0083
X4.9047Y-4.5146
X4.9047Y-4.7146
X4.9047Y-4.9083
X4.9047Y-5.1083
T0
M30
