M48
;DRILL file {KiCad 4.0.2-stable} date Tue Mar  8 23:31:08 2016
;FORMAT={3:3/ absolute / metric / keep zeros}
FMAT,2
METRIC,TZ
T1C0.400
T2C1.016
T3C1.500
%
G90
G05
M71
T1
X128250Y-121500
X128250Y-122750
X130750Y-121500
X130750Y-122750
X130800Y-116000
X134000Y-112800
X137750Y-125500
X139250Y-110000
X139250Y-113750
X139250Y-116250
X141500Y-109250
X143750Y-130250
X146250Y-119000
X146475Y-114225
X148250Y-107750
X150250Y-113750
X150250Y-114750
X150250Y-116000
X154750Y-110250
X154750Y-112000
X155500Y-123250
X157750Y-110750
X160000Y-123000
T2
X135250Y-121210
X135250Y-123750
X135250Y-126290
X135250Y-128830
X154160Y-128500
X156700Y-128500
X159240Y-128500
T3
X119500Y-114670
X119500Y-119750
X119500Y-124670
X119500Y-129750
X122040Y-117210
X122040Y-127210
X124580Y-114670
X124580Y-119750
X124580Y-124670
X124580Y-129750
T0
M30
