%TF.GenerationSoftware,KiCad,Pcbnew,5.99.0-unknown-b691c18bfc~117~ubuntu20.10.1*%
%TF.CreationDate,2021-03-07T12:14:31-07:00*%
%TF.ProjectId,maam-011132,6d61616d-2d30-4313-9131-33322e6b6963,rev?*%
%TF.SameCoordinates,Original*%
%TF.FileFunction,Copper,L3,Inr*%
%TF.FilePolarity,Positive*%
%FSLAX46Y46*%
G04 Gerber Fmt 4.6, Leading zero omitted, Abs format (unit mm)*
G04 Created by KiCad (PCBNEW 5.99.0-unknown-b691c18bfc~117~ubuntu20.10.1) date 2021-03-07 12:14:31*
%MOMM*%
%LPD*%
G01*
G04 APERTURE LIST*
%TA.AperFunction,ComponentPad*%
%ADD10C,0.500000*%
%TD*%
%TA.AperFunction,ComponentPad*%
%ADD11C,3.000000*%
%TD*%
%TA.AperFunction,ComponentPad*%
%ADD12C,2.200000*%
%TD*%
%TA.AperFunction,ComponentPad*%
%ADD13R,2.200000X2.200000*%
%TD*%
%TA.AperFunction,ViaPad*%
%ADD14C,0.480000*%
%TD*%
%TA.AperFunction,ViaPad*%
%ADD15C,0.800000*%
%TD*%
%TA.AperFunction,Conductor*%
%ADD16C,0.250000*%
%TD*%
%TA.AperFunction,Conductor*%
%ADD17C,0.500000*%
%TD*%
G04 APERTURE END LIST*
D10*
%TO.N,EP*%
%TO.C,J4*%
X99835000Y-65125000D03*
X99835000Y-68125000D03*
D11*
X102225000Y-73800000D03*
D10*
X99835000Y-67125000D03*
X99835000Y-71925000D03*
X99835000Y-72925000D03*
X99835000Y-73925000D03*
D11*
X102225000Y-64450000D03*
D10*
X99835000Y-63125000D03*
X99835000Y-66125000D03*
X99835000Y-74925000D03*
X99835000Y-69925000D03*
X99835000Y-64125000D03*
X99835000Y-70925000D03*
%TD*%
%TO.N,EP*%
%TO.C,J3*%
X127100000Y-72475000D03*
X127100000Y-69475000D03*
D11*
X124710000Y-63800000D03*
D10*
X127100000Y-70475000D03*
X127100000Y-65675000D03*
X127100000Y-64675000D03*
X127100000Y-63675000D03*
D11*
X124710000Y-73150000D03*
D10*
X127100000Y-74475000D03*
X127100000Y-71475000D03*
X127100000Y-62675000D03*
X127100000Y-67675000D03*
X127100000Y-73475000D03*
X127100000Y-66675000D03*
%TD*%
D12*
%TO.N,Net-(J1-Pad2)*%
%TO.C,J1*%
X104040000Y-48740000D03*
D13*
%TO.N,EP*%
X101500000Y-48740000D03*
%TD*%
D14*
%TO.N,EP*%
X112000000Y-74250000D03*
D15*
X121500000Y-51490000D03*
D14*
X114000000Y-67900000D03*
D15*
X111000000Y-54740000D03*
D14*
X122750000Y-72000000D03*
D15*
X115500000Y-51240000D03*
D14*
X126500000Y-46000000D03*
D15*
X117250000Y-46490000D03*
D14*
X117750000Y-73750000D03*
X113400000Y-69700000D03*
X113400000Y-68500000D03*
X105500000Y-76000000D03*
X118750000Y-60000000D03*
X115250000Y-74250000D03*
D15*
X116500000Y-51240000D03*
X115500000Y-54740000D03*
X121250000Y-45740000D03*
D14*
X119750000Y-76500000D03*
X120250000Y-65250000D03*
X115250000Y-72000000D03*
X111000000Y-59000000D03*
X113400000Y-69100000D03*
X104250000Y-72750000D03*
D15*
X115500000Y-48240000D03*
X116000000Y-51990000D03*
X120250000Y-48490000D03*
D14*
X106750000Y-59000000D03*
D15*
X116500000Y-48240000D03*
D14*
X104250000Y-75250000D03*
D15*
X112000000Y-50740000D03*
D14*
X109750000Y-73750000D03*
X104250000Y-63000000D03*
D15*
X109250000Y-57240000D03*
X116000000Y-50490000D03*
X114750000Y-51990000D03*
D14*
X114600000Y-69100000D03*
X114600000Y-68500000D03*
X111000000Y-60000000D03*
X112800000Y-67900000D03*
X114600000Y-69700000D03*
D15*
X119750000Y-47740000D03*
D14*
X114600000Y-67900000D03*
X111250000Y-76000000D03*
D15*
X117500000Y-51740000D03*
X119750000Y-45740000D03*
D14*
X106750000Y-60000000D03*
D15*
X109750000Y-54740000D03*
D14*
X112800000Y-69100000D03*
X117750000Y-72750000D03*
D15*
X116000000Y-48990000D03*
D14*
X114000000Y-69100000D03*
X114250000Y-59000000D03*
X104250000Y-65500000D03*
D15*
X112250000Y-54740000D03*
D14*
X112250000Y-72000000D03*
X118750000Y-59000000D03*
D15*
X113000000Y-51490000D03*
D14*
X122750000Y-65000000D03*
X112250000Y-65000000D03*
X121500000Y-75750000D03*
X114000000Y-69700000D03*
D15*
X121500000Y-49240000D03*
D14*
X122750000Y-74500000D03*
X109750000Y-72750000D03*
X122750000Y-62500000D03*
X114250000Y-60000000D03*
X112800000Y-69700000D03*
X113400000Y-67900000D03*
X114000000Y-68500000D03*
X112800000Y-68500000D03*
X107500000Y-76750000D03*
X116000000Y-76000000D03*
%TO.N,-5V*%
X114500000Y-56750000D03*
X123500000Y-46300000D03*
%TO.N,/mmic_bias_a/Vd*%
X114500000Y-76200000D03*
X113250000Y-65500000D03*
%TO.N,/mmic_bias_a/Vg*%
X121000000Y-62500000D03*
X116700000Y-76500000D03*
%TO.N,+4V*%
X111250000Y-65250000D03*
X119000000Y-65250000D03*
X115750000Y-58250000D03*
X108250000Y-58250000D03*
%TO.N,/mmic_bias_a1/Vd*%
X106750000Y-66000000D03*
X112700000Y-76200000D03*
%TO.N,/mmic_bias_a1/Vg*%
X113000000Y-62500000D03*
X110300000Y-76800000D03*
%TO.N,/mmic_bias_a/Vp*%
X114400000Y-62900000D03*
X106800000Y-62500000D03*
X123200000Y-59300000D03*
%TD*%
D16*
%TO.N,-5V*%
X114500000Y-56750000D02*
X121250000Y-56750000D01*
X123500000Y-54500000D02*
X123500000Y-46300000D01*
X121250000Y-56750000D02*
X123500000Y-54500000D01*
D17*
%TO.N,/mmic_bias_a/Vd*%
X115500000Y-67250000D02*
X115500000Y-70500000D01*
X114250000Y-75950000D02*
X114500000Y-76200000D01*
X114250000Y-71750000D02*
X114250000Y-75950000D01*
X115000000Y-66750000D02*
X115500000Y-67250000D01*
X114500000Y-66750000D02*
X115000000Y-66750000D01*
X113250000Y-65500000D02*
X114500000Y-66750000D01*
X115500000Y-70500000D02*
X114250000Y-71750000D01*
D16*
%TO.N,/mmic_bias_a/Vg*%
X116700000Y-75300000D02*
X117400000Y-74600000D01*
X117400000Y-74600000D02*
X118400000Y-74600000D01*
X118400000Y-74600000D02*
X121000000Y-72000000D01*
X121000000Y-72000000D02*
X121000000Y-62500000D01*
X116700000Y-76500000D02*
X116700000Y-75300000D01*
%TO.N,+4V*%
X108250000Y-60650000D02*
X108250000Y-58250000D01*
X111250000Y-63650000D02*
X109700000Y-62100000D01*
X109800000Y-62100000D02*
X109700000Y-62100000D01*
X115750000Y-58250000D02*
X113650000Y-58250000D01*
X115750000Y-61250000D02*
X115750000Y-58250000D01*
X119000000Y-65250000D02*
X119000000Y-64500000D01*
X111250000Y-65250000D02*
X111250000Y-63650000D01*
X119000000Y-64500000D02*
X115750000Y-61250000D01*
X113650000Y-58250000D02*
X109800000Y-62100000D01*
X109700000Y-62100000D02*
X108250000Y-60650000D01*
D17*
%TO.N,/mmic_bias_a1/Vd*%
X108700000Y-67950000D02*
X106750000Y-66000000D01*
X108700000Y-76600000D02*
X108700000Y-67950000D01*
X109517011Y-77417011D02*
X108700000Y-76600000D01*
X111482989Y-77417011D02*
X109517011Y-77417011D01*
X112700000Y-76200000D02*
X111482989Y-77417011D01*
D16*
%TO.N,/mmic_bias_a1/Vg*%
X112800000Y-65200000D02*
X111300000Y-66700000D01*
X111300000Y-73400000D02*
X109700000Y-75000000D01*
X109700000Y-75000000D02*
X109700000Y-76700000D01*
X109800000Y-76800000D02*
X110300000Y-76800000D01*
X111300000Y-66700000D02*
X111300000Y-69300000D01*
X112800000Y-64000000D02*
X112700000Y-64100000D01*
X111300000Y-69300000D02*
X111300000Y-73400000D01*
X112700000Y-64100000D02*
X112700000Y-64721823D01*
X112800000Y-64821823D02*
X112800000Y-65200000D01*
X109700000Y-76700000D02*
X109800000Y-76800000D01*
X112700000Y-64721823D02*
X112800000Y-64821823D01*
X113000000Y-62500000D02*
X113000000Y-63800000D01*
X113000000Y-63800000D02*
X112800000Y-64000000D01*
%TD*%
M02*
