%TF.GenerationSoftware,KiCad,Pcbnew,5.99.0-unknown-b691c18bfc~117~ubuntu20.10.1*%
%TF.CreationDate,2021-03-07T12:14:31-07:00*%
%TF.ProjectId,maam-011132,6d61616d-2d30-4313-9131-33322e6b6963,rev?*%
%TF.SameCoordinates,Original*%
%TF.FileFunction,Paste,Top*%
%TF.FilePolarity,Positive*%
%FSLAX46Y46*%
G04 Gerber Fmt 4.6, Leading zero omitted, Abs format (unit mm)*
G04 Created by KiCad (PCBNEW 5.99.0-unknown-b691c18bfc~117~ubuntu20.10.1) date 2021-03-07 12:14:31*
%MOMM*%
%LPD*%
G01*
G04 APERTURE LIST*
G04 Aperture macros list*
%AMRoundRect*
0 Rectangle with rounded corners*
0 $1 Rounding radius*
0 $2 $3 $4 $5 $6 $7 $8 $9 X,Y pos of 4 corners*
0 Add a 4 corners polygon primitive as box body*
4,1,4,$2,$3,$4,$5,$6,$7,$8,$9,$2,$3,0*
0 Add four circle primitives for the rounded corners*
1,1,$1+$1,$2,$3*
1,1,$1+$1,$4,$5*
1,1,$1+$1,$6,$7*
1,1,$1+$1,$8,$9*
0 Add four rect primitives between the rounded corners*
20,1,$1+$1,$2,$3,$4,$5,0*
20,1,$1+$1,$4,$5,$6,$7,0*
20,1,$1+$1,$6,$7,$8,$9,0*
20,1,$1+$1,$8,$9,$2,$3,0*%
G04 Aperture macros list end*
%ADD10RoundRect,0.135000X-0.135000X-0.185000X0.135000X-0.185000X0.135000X0.185000X-0.135000X0.185000X0*%
%ADD11R,0.600000X0.700000*%
%ADD12RoundRect,0.135000X-0.185000X0.135000X-0.185000X-0.135000X0.185000X-0.135000X0.185000X0.135000X0*%
%ADD13RoundRect,0.135000X0.185000X-0.135000X0.185000X0.135000X-0.185000X0.135000X-0.185000X-0.135000X0*%
%ADD14R,0.450000X0.700000*%
%ADD15RoundRect,0.140000X-0.140000X-0.170000X0.140000X-0.170000X0.140000X0.170000X-0.140000X0.170000X0*%
%ADD16RoundRect,0.140000X0.140000X0.170000X-0.140000X0.170000X-0.140000X-0.170000X0.140000X-0.170000X0*%
%ADD17RoundRect,0.225000X-0.250000X0.225000X-0.250000X-0.225000X0.250000X-0.225000X0.250000X0.225000X0*%
%ADD18RoundRect,0.225000X0.225000X0.250000X-0.225000X0.250000X-0.225000X-0.250000X0.225000X-0.250000X0*%
%ADD19R,3.400000X1.800000*%
%ADD20RoundRect,0.200000X-0.275000X0.200000X-0.275000X-0.200000X0.275000X-0.200000X0.275000X0.200000X0*%
%ADD21R,0.400000X0.650000*%
%ADD22RoundRect,0.225000X0.250000X-0.225000X0.250000X0.225000X-0.250000X0.225000X-0.250000X-0.225000X0*%
%ADD23RoundRect,0.225000X-0.225000X-0.250000X0.225000X-0.250000X0.225000X0.250000X-0.225000X0.250000X0*%
%ADD24RoundRect,0.150000X0.587500X0.150000X-0.587500X0.150000X-0.587500X-0.150000X0.587500X-0.150000X0*%
%ADD25RoundRect,0.140000X-0.170000X0.140000X-0.170000X-0.140000X0.170000X-0.140000X0.170000X0.140000X0*%
%ADD26RoundRect,0.135000X0.135000X0.185000X-0.135000X0.185000X-0.135000X-0.185000X0.135000X-0.185000X0*%
%ADD27R,0.700000X0.600000*%
%ADD28RoundRect,0.150000X-0.150000X0.587500X-0.150000X-0.587500X0.150000X-0.587500X0.150000X0.587500X0*%
%ADD29R,0.650000X0.750000*%
%ADD30R,0.250000X0.500000*%
%ADD31R,0.640000X1.000000*%
%ADD32R,0.700000X0.250000*%
%ADD33RoundRect,0.092500X-0.092500X0.232500X-0.092500X-0.232500X0.092500X-0.232500X0.092500X0.232500X0*%
%ADD34RoundRect,0.092500X0.092500X-0.232500X0.092500X0.232500X-0.092500X0.232500X-0.092500X-0.232500X0*%
%ADD35RoundRect,0.092500X0.232500X0.092500X-0.232500X0.092500X-0.232500X-0.092500X0.232500X-0.092500X0*%
%ADD36RoundRect,0.250000X0.255000X0.255000X-0.255000X0.255000X-0.255000X-0.255000X0.255000X-0.255000X0*%
G04 APERTURE END LIST*
D10*
%TO.C,R7*%
X121010000Y-53740000D03*
X119990000Y-53740000D03*
%TD*%
D11*
%TO.C,D4*%
X120100000Y-75000000D03*
X121500000Y-75000000D03*
%TD*%
D12*
%TO.C,R9*%
X120080000Y-62510000D03*
X120080000Y-61490000D03*
%TD*%
D13*
%TO.C,R11*%
X118910000Y-61490000D03*
X118910000Y-62510000D03*
%TD*%
D12*
%TO.C,R14*%
X112250000Y-62510000D03*
X112250000Y-61490000D03*
%TD*%
%TO.C,R3*%
X115500000Y-54000000D03*
X115500000Y-52980000D03*
%TD*%
D14*
%TO.C,Q2*%
X125750000Y-51240000D03*
X125100000Y-49240000D03*
X126400000Y-49240000D03*
%TD*%
D13*
%TO.C,R16*%
X111250000Y-61490000D03*
X111250000Y-62510000D03*
%TD*%
D15*
%TO.C,C12*%
X117230000Y-73720000D03*
X116270000Y-73720000D03*
%TD*%
%TO.C,C3*%
X110980000Y-52490000D03*
X110020000Y-52490000D03*
%TD*%
%TO.C,C25*%
X110240000Y-60000000D03*
X109280000Y-60000000D03*
%TD*%
D16*
%TO.C,C19*%
X112270000Y-73720000D03*
X113230000Y-73720000D03*
%TD*%
D17*
%TO.C,C2*%
X113000000Y-50515000D03*
X113000000Y-48965000D03*
%TD*%
D16*
%TO.C,C15*%
X114850000Y-60000000D03*
X115810000Y-60000000D03*
%TD*%
D18*
%TO.C,C4*%
X110225000Y-57240000D03*
X111775000Y-57240000D03*
%TD*%
D13*
%TO.C,R19*%
X115910000Y-64490000D03*
X115910000Y-65510000D03*
%TD*%
D16*
%TO.C,C18*%
X112270000Y-72720000D03*
X113230000Y-72720000D03*
%TD*%
D19*
%TO.C,TP2*%
X109000000Y-46490000D03*
%TD*%
D16*
%TO.C,C21*%
X110270000Y-72720000D03*
X111230000Y-72720000D03*
%TD*%
D15*
%TO.C,C14*%
X117230000Y-72720000D03*
X116270000Y-72720000D03*
%TD*%
D20*
%TO.C,R10*%
X114410000Y-65325000D03*
X114410000Y-63675000D03*
%TD*%
D13*
%TO.C,R1*%
X126500000Y-46730000D03*
X126500000Y-47750000D03*
%TD*%
D15*
%TO.C,C17*%
X118060000Y-59000000D03*
X117100000Y-59000000D03*
%TD*%
D13*
%TO.C,R20*%
X117410000Y-64490000D03*
X117410000Y-65510000D03*
%TD*%
D21*
%TO.C,U4*%
X116010000Y-61300000D03*
X117310000Y-61300000D03*
X116660000Y-63200000D03*
X117310000Y-63200000D03*
X116010000Y-63200000D03*
%TD*%
D22*
%TO.C,C1*%
X108500000Y-54465000D03*
X108500000Y-56015000D03*
%TD*%
D13*
%TO.C,R12*%
X118910000Y-63490000D03*
X118910000Y-64510000D03*
%TD*%
D16*
%TO.C,C13*%
X114850000Y-59000000D03*
X115810000Y-59000000D03*
%TD*%
D20*
%TO.C,R15*%
X106780000Y-65325000D03*
X106780000Y-63675000D03*
%TD*%
D23*
%TO.C,C7*%
X121525000Y-50490000D03*
X119975000Y-50490000D03*
%TD*%
D24*
%TO.C,Q1*%
X109062500Y-49740000D03*
X110937500Y-48790000D03*
X110937500Y-50690000D03*
%TD*%
D13*
%TO.C,R21*%
X108280000Y-64480000D03*
X108280000Y-65500000D03*
%TD*%
D25*
%TO.C,C6*%
X118750000Y-51470000D03*
X118750000Y-50510000D03*
%TD*%
D11*
%TO.C,D5*%
X108300000Y-76750000D03*
X109700000Y-76750000D03*
%TD*%
D12*
%TO.C,R18*%
X112250000Y-64510000D03*
X112250000Y-63490000D03*
%TD*%
D15*
%TO.C,C16*%
X118060000Y-60000000D03*
X117100000Y-60000000D03*
%TD*%
D26*
%TO.C,R8*%
X122740000Y-51740000D03*
X123760000Y-51740000D03*
%TD*%
D15*
%TO.C,C5*%
X119480000Y-48740000D03*
X118520000Y-48740000D03*
%TD*%
D16*
%TO.C,C24*%
X107300000Y-60000000D03*
X108260000Y-60000000D03*
%TD*%
D21*
%TO.C,U5*%
X108380000Y-61300000D03*
X109680000Y-61300000D03*
X109030000Y-63200000D03*
X109680000Y-63200000D03*
X108380000Y-63200000D03*
%TD*%
D15*
%TO.C,C9*%
X115230000Y-72720000D03*
X114270000Y-72720000D03*
%TD*%
%TO.C,C10*%
X115230000Y-73720000D03*
X114270000Y-73720000D03*
%TD*%
D13*
%TO.C,R17*%
X111250000Y-63490000D03*
X111250000Y-64510000D03*
%TD*%
D19*
%TO.C,TP1*%
X117250000Y-46490000D03*
%TD*%
D15*
%TO.C,C26*%
X110260000Y-59000000D03*
X109300000Y-59000000D03*
%TD*%
D13*
%TO.C,R22*%
X109780000Y-64490000D03*
X109780000Y-65510000D03*
%TD*%
D16*
%TO.C,C22*%
X107300000Y-59000000D03*
X108260000Y-59000000D03*
%TD*%
D18*
%TO.C,C20*%
X111225000Y-75200000D03*
X112775000Y-75200000D03*
%TD*%
D12*
%TO.C,R13*%
X120080000Y-64510000D03*
X120080000Y-63490000D03*
%TD*%
D23*
%TO.C,C11*%
X116050000Y-75200000D03*
X114500000Y-75200000D03*
%TD*%
D13*
%TO.C,R2*%
X114500000Y-52980000D03*
X114500000Y-54000000D03*
%TD*%
D11*
%TO.C,D6*%
X109700000Y-75250000D03*
X108300000Y-75250000D03*
%TD*%
D12*
%TO.C,R6*%
X114500000Y-56000000D03*
X114500000Y-54980000D03*
%TD*%
D27*
%TO.C,D1*%
X125000000Y-47690000D03*
X125000000Y-46290000D03*
%TD*%
D11*
%TO.C,D2*%
X118950000Y-76500000D03*
X117550000Y-76500000D03*
%TD*%
%TO.C,D7*%
X106950000Y-75250000D03*
X105550000Y-75250000D03*
%TD*%
D22*
%TO.C,C8*%
X113000000Y-53965000D03*
X113000000Y-55515000D03*
%TD*%
D12*
%TO.C,R5*%
X125750000Y-53740000D03*
X125750000Y-52720000D03*
%TD*%
D28*
%TO.C,Q3*%
X123250000Y-55677500D03*
X122300000Y-53802500D03*
X124200000Y-53802500D03*
%TD*%
D16*
%TO.C,C23*%
X110270000Y-73720000D03*
X111230000Y-73720000D03*
%TD*%
D11*
%TO.C,D3*%
X117550000Y-75000000D03*
X118950000Y-75000000D03*
%TD*%
D29*
%TO.C,U1*%
X110600000Y-54740000D03*
X111400000Y-54740000D03*
D30*
X111250000Y-53790000D03*
X111750000Y-53790000D03*
X111750000Y-55690000D03*
X110750000Y-55690000D03*
X110250000Y-55690000D03*
X110250000Y-53790000D03*
X110750000Y-53790000D03*
X111250000Y-55690000D03*
%TD*%
D12*
%TO.C,R4*%
X123250000Y-58260000D03*
X123250000Y-57240000D03*
%TD*%
D31*
%TO.C,U2*%
X116415000Y-50335000D03*
X115585000Y-50335000D03*
X116415000Y-49145000D03*
X115585000Y-49145000D03*
D32*
X114600000Y-50490000D03*
X114600000Y-49990000D03*
X114600000Y-49490000D03*
X114600000Y-48990000D03*
X117400000Y-48990000D03*
X117400000Y-49490000D03*
X117400000Y-49990000D03*
X117400000Y-50490000D03*
%TD*%
D33*
%TO.C,U3*%
X114675000Y-70575000D03*
D34*
X114025000Y-70575000D03*
D33*
X113375000Y-70575000D03*
X112725000Y-70575000D03*
D35*
X111925000Y-69775000D03*
X111925000Y-69125000D03*
X111925000Y-68475000D03*
X111925000Y-67825000D03*
D33*
X112725000Y-67025000D03*
X113375000Y-67025000D03*
X114025000Y-67025000D03*
X114675000Y-67025000D03*
D35*
X115475000Y-67825000D03*
X115475000Y-68475000D03*
X115475000Y-69125000D03*
X115475000Y-69775000D03*
D36*
X113075000Y-69425000D03*
X113075000Y-68175000D03*
X114325000Y-69425000D03*
X114325000Y-68175000D03*
%TD*%
M02*
