%TF.GenerationSoftware,KiCad,Pcbnew,5.99.0-unknown-b691c18bfc~117~ubuntu20.10.1*%
%TF.CreationDate,2021-03-07T12:14:30-07:00*%
%TF.ProjectId,maam-011132,6d61616d-2d30-4313-9131-33322e6b6963,rev?*%
%TF.SameCoordinates,Original*%
%TF.FileFunction,Copper,L1,Top*%
%TF.FilePolarity,Positive*%
%FSLAX46Y46*%
G04 Gerber Fmt 4.6, Leading zero omitted, Abs format (unit mm)*
G04 Created by KiCad (PCBNEW 5.99.0-unknown-b691c18bfc~117~ubuntu20.10.1) date 2021-03-07 12:14:30*
%MOMM*%
%LPD*%
G01*
G04 APERTURE LIST*
G04 Aperture macros list*
%AMRoundRect*
0 Rectangle with rounded corners*
0 $1 Rounding radius*
0 $2 $3 $4 $5 $6 $7 $8 $9 X,Y pos of 4 corners*
0 Add a 4 corners polygon primitive as box body*
4,1,4,$2,$3,$4,$5,$6,$7,$8,$9,$2,$3,0*
0 Add four circle primitives for the rounded corners*
1,1,$1+$1,$2,$3*
1,1,$1+$1,$4,$5*
1,1,$1+$1,$6,$7*
1,1,$1+$1,$8,$9*
0 Add four rect primitives between the rounded corners*
20,1,$1+$1,$2,$3,$4,$5,0*
20,1,$1+$1,$4,$5,$6,$7,0*
20,1,$1+$1,$6,$7,$8,$9,0*
20,1,$1+$1,$8,$9,$2,$3,0*%
%AMOutline4P*
0 Free polygon, 4 corners , with rotation*
0 The origin of the aperture is its center*
0 number of corners: always 4*
0 $1 to $8 corner X, Y*
0 $9 Rotation angle, in degrees counterclockwise*
0 create outline with 4 corners*
4,1,4,$1,$2,$3,$4,$5,$6,$7,$8,$1,$2,$9*%
G04 Aperture macros list end*
%TA.AperFunction,SMDPad,CuDef*%
%ADD10R,0.600000X6.000000*%
%TD*%
%TA.AperFunction,SMDPad,CuDef*%
%ADD11R,4.500000X3.250000*%
%TD*%
%TA.AperFunction,ComponentPad*%
%ADD12C,0.500000*%
%TD*%
%TA.AperFunction,ComponentPad*%
%ADD13C,3.000000*%
%TD*%
%TA.AperFunction,SMDPad,CuDef*%
%ADD14Outline4P,-2.800000X-0.100000X2.800000X-0.100000X3.000000X0.100000X-3.000000X0.100000X90.000000*%
%TD*%
%TA.AperFunction,SMDPad,CuDef*%
%ADD15R,4.080000X0.410000*%
%TD*%
%TA.AperFunction,SMDPad,CuDef*%
%ADD16Outline4P,-0.205000X-0.475000X0.205000X-0.475000X0.095000X0.475000X-0.095000X0.475000X90.000000*%
%TD*%
%TA.AperFunction,SMDPad,CuDef*%
%ADD17RoundRect,0.135000X-0.135000X-0.185000X0.135000X-0.185000X0.135000X0.185000X-0.135000X0.185000X0*%
%TD*%
%TA.AperFunction,SMDPad,CuDef*%
%ADD18R,0.600000X0.700000*%
%TD*%
%TA.AperFunction,SMDPad,CuDef*%
%ADD19RoundRect,0.135000X-0.185000X0.135000X-0.185000X-0.135000X0.185000X-0.135000X0.185000X0.135000X0*%
%TD*%
%TA.AperFunction,SMDPad,CuDef*%
%ADD20RoundRect,0.135000X0.185000X-0.135000X0.185000X0.135000X-0.185000X0.135000X-0.185000X-0.135000X0*%
%TD*%
%TA.AperFunction,SMDPad,CuDef*%
%ADD21R,0.450000X0.700000*%
%TD*%
%TA.AperFunction,SMDPad,CuDef*%
%ADD22RoundRect,0.140000X-0.140000X-0.170000X0.140000X-0.170000X0.140000X0.170000X-0.140000X0.170000X0*%
%TD*%
%TA.AperFunction,SMDPad,CuDef*%
%ADD23RoundRect,0.140000X0.140000X0.170000X-0.140000X0.170000X-0.140000X-0.170000X0.140000X-0.170000X0*%
%TD*%
%TA.AperFunction,SMDPad,CuDef*%
%ADD24RoundRect,0.225000X-0.250000X0.225000X-0.250000X-0.225000X0.250000X-0.225000X0.250000X0.225000X0*%
%TD*%
%TA.AperFunction,SMDPad,CuDef*%
%ADD25RoundRect,0.225000X0.225000X0.250000X-0.225000X0.250000X-0.225000X-0.250000X0.225000X-0.250000X0*%
%TD*%
%TA.AperFunction,SMDPad,CuDef*%
%ADD26Outline4P,-2.800000X-0.100000X2.800000X-0.100000X3.000000X0.100000X-3.000000X0.100000X270.000000*%
%TD*%
%TA.AperFunction,SMDPad,CuDef*%
%ADD27Outline4P,-0.205000X-0.475000X0.205000X-0.475000X0.095000X0.475000X-0.095000X0.475000X270.000000*%
%TD*%
%TA.AperFunction,SMDPad,CuDef*%
%ADD28R,3.400000X1.800000*%
%TD*%
%TA.AperFunction,SMDPad,CuDef*%
%ADD29RoundRect,0.200000X-0.275000X0.200000X-0.275000X-0.200000X0.275000X-0.200000X0.275000X0.200000X0*%
%TD*%
%TA.AperFunction,SMDPad,CuDef*%
%ADD30R,0.400000X0.650000*%
%TD*%
%TA.AperFunction,SMDPad,CuDef*%
%ADD31RoundRect,0.225000X0.250000X-0.225000X0.250000X0.225000X-0.250000X0.225000X-0.250000X-0.225000X0*%
%TD*%
%TA.AperFunction,SMDPad,CuDef*%
%ADD32RoundRect,0.225000X-0.225000X-0.250000X0.225000X-0.250000X0.225000X0.250000X-0.225000X0.250000X0*%
%TD*%
%TA.AperFunction,SMDPad,CuDef*%
%ADD33RoundRect,0.150000X0.587500X0.150000X-0.587500X0.150000X-0.587500X-0.150000X0.587500X-0.150000X0*%
%TD*%
%TA.AperFunction,SMDPad,CuDef*%
%ADD34RoundRect,0.140000X-0.170000X0.140000X-0.170000X-0.140000X0.170000X-0.140000X0.170000X0.140000X0*%
%TD*%
%TA.AperFunction,SMDPad,CuDef*%
%ADD35RoundRect,0.135000X0.135000X0.185000X-0.135000X0.185000X-0.135000X-0.185000X0.135000X-0.185000X0*%
%TD*%
%TA.AperFunction,SMDPad,CuDef*%
%ADD36R,0.700000X0.600000*%
%TD*%
%TA.AperFunction,SMDPad,CuDef*%
%ADD37RoundRect,0.150000X-0.150000X0.587500X-0.150000X-0.587500X0.150000X-0.587500X0.150000X0.587500X0*%
%TD*%
%TA.AperFunction,ComponentPad*%
%ADD38C,2.200000*%
%TD*%
%TA.AperFunction,ComponentPad*%
%ADD39R,2.200000X2.200000*%
%TD*%
%TA.AperFunction,SMDPad,CuDef*%
%ADD40R,0.250000X0.500000*%
%TD*%
%TA.AperFunction,SMDPad,CuDef*%
%ADD41R,1.600000X0.900000*%
%TD*%
%TA.AperFunction,SMDPad,CuDef*%
%ADD42R,1.660000X2.380000*%
%TD*%
%TA.AperFunction,SMDPad,CuDef*%
%ADD43R,0.700000X0.250000*%
%TD*%
%TA.AperFunction,SMDPad,CuDef*%
%ADD44R,2.400000X2.400000*%
%TD*%
%TA.AperFunction,SMDPad,CuDef*%
%ADD45RoundRect,0.092500X-0.092500X0.232500X-0.092500X-0.232500X0.092500X-0.232500X0.092500X0.232500X0*%
%TD*%
%TA.AperFunction,SMDPad,CuDef*%
%ADD46RoundRect,0.092500X0.092500X-0.232500X0.092500X0.232500X-0.092500X0.232500X-0.092500X-0.232500X0*%
%TD*%
%TA.AperFunction,SMDPad,CuDef*%
%ADD47RoundRect,0.092500X0.232500X0.092500X-0.232500X0.092500X-0.232500X-0.092500X0.232500X-0.092500X0*%
%TD*%
%TA.AperFunction,ViaPad*%
%ADD48C,0.480000*%
%TD*%
%TA.AperFunction,ViaPad*%
%ADD49C,0.800000*%
%TD*%
%TA.AperFunction,Conductor*%
%ADD50C,0.500000*%
%TD*%
%TA.AperFunction,Conductor*%
%ADD51C,0.250000*%
%TD*%
%TA.AperFunction,Conductor*%
%ADD52C,0.390000*%
%TD*%
%TA.AperFunction,Conductor*%
%ADD53C,0.200000*%
%TD*%
G04 APERTURE END LIST*
D10*
%TO.P,J4,2,Ext*%
%TO.N,EP*%
X99735000Y-65725000D03*
D11*
X102285000Y-73900000D03*
D12*
X99835000Y-65125000D03*
X99835000Y-68125000D03*
D13*
X102225000Y-73800000D03*
D14*
X100135000Y-72525000D03*
D12*
X99835000Y-67125000D03*
X99835000Y-71925000D03*
X99835000Y-72925000D03*
X99835000Y-73925000D03*
D13*
X102225000Y-64450000D03*
D10*
X99735000Y-72525000D03*
D12*
X99835000Y-63125000D03*
X99835000Y-66125000D03*
D11*
X102285000Y-64350000D03*
D12*
X99835000Y-74925000D03*
X99835000Y-69925000D03*
X99835000Y-64125000D03*
D14*
X100135000Y-65725000D03*
D12*
X99835000Y-70925000D03*
D15*
%TO.P,J4,1,In*%
%TO.N,Net-(J4-Pad1)*%
X102475000Y-69125000D03*
D16*
X99985000Y-69125000D03*
%TD*%
D17*
%TO.P,R7,2*%
%TO.N,+4V*%
X121010000Y-53740000D03*
%TO.P,R7,1*%
%TO.N,Net-(C6-Pad1)*%
X119990000Y-53740000D03*
%TD*%
D18*
%TO.P,D4,1,K*%
%TO.N,Net-(D3-Pad2)*%
X120100000Y-75000000D03*
%TO.P,D4,2,A*%
%TO.N,EP*%
X121500000Y-75000000D03*
%TD*%
D19*
%TO.P,R9,2*%
%TO.N,/mmic_bias_a/Vg*%
X120080000Y-62510000D03*
%TO.P,R9,1*%
%TO.N,-5V*%
X120080000Y-61490000D03*
%TD*%
D20*
%TO.P,R11,2*%
%TO.N,Net-(R11-Pad2)*%
X118910000Y-61490000D03*
%TO.P,R11,1*%
%TO.N,/mmic_bias_a/Vg*%
X118910000Y-62510000D03*
%TD*%
D19*
%TO.P,R14,2*%
%TO.N,/mmic_bias_a1/Vg*%
X112250000Y-62510000D03*
%TO.P,R14,1*%
%TO.N,-5V*%
X112250000Y-61490000D03*
%TD*%
%TO.P,R3,2*%
%TO.N,EP*%
X115500000Y-54000000D03*
%TO.P,R3,1*%
%TO.N,Net-(R2-Pad2)*%
X115500000Y-52980000D03*
%TD*%
D21*
%TO.P,Q2,3,C*%
%TO.N,Net-(Q2-Pad3)*%
X125750000Y-51240000D03*
%TO.P,Q2,2,E*%
%TO.N,Net-(D1-Pad1)*%
X125100000Y-49240000D03*
%TO.P,Q2,1,B*%
%TO.N,Net-(Q2-Pad1)*%
X126400000Y-49240000D03*
%TD*%
D20*
%TO.P,R16,2*%
%TO.N,Net-(R16-Pad2)*%
X111250000Y-61490000D03*
%TO.P,R16,1*%
%TO.N,/mmic_bias_a1/Vg*%
X111250000Y-62510000D03*
%TD*%
D22*
%TO.P,C12,2*%
%TO.N,EP*%
X117230000Y-73720000D03*
%TO.P,C12,1*%
%TO.N,/mmic_bias_a/Vg*%
X116270000Y-73720000D03*
%TD*%
%TO.P,C3,2*%
%TO.N,Net-(C3-Pad2)*%
X110980000Y-52490000D03*
%TO.P,C3,1*%
%TO.N,Net-(C3-Pad1)*%
X110020000Y-52490000D03*
%TD*%
%TO.P,C25,2*%
%TO.N,EP*%
X110240000Y-60000000D03*
%TO.P,C25,1*%
%TO.N,-5V*%
X109280000Y-60000000D03*
%TD*%
D23*
%TO.P,C19,2*%
%TO.N,EP*%
X112270000Y-73720000D03*
%TO.P,C19,1*%
%TO.N,/mmic_bias_a1/Vd*%
X113230000Y-73720000D03*
%TD*%
D24*
%TO.P,C2,2*%
%TO.N,EP*%
X113000000Y-50515000D03*
%TO.P,C2,1*%
%TO.N,Net-(C1-Pad1)*%
X113000000Y-48965000D03*
%TD*%
D23*
%TO.P,C15,2*%
%TO.N,EP*%
X114850000Y-60000000D03*
%TO.P,C15,1*%
%TO.N,+4V*%
X115810000Y-60000000D03*
%TD*%
D25*
%TO.P,C4,2*%
%TO.N,EP*%
X110225000Y-57240000D03*
%TO.P,C4,1*%
%TO.N,Net-(C4-Pad1)*%
X111775000Y-57240000D03*
%TD*%
D20*
%TO.P,R19,2*%
%TO.N,Net-(R19-Pad2)*%
X115910000Y-64490000D03*
%TO.P,R19,1*%
%TO.N,/mmic_bias_a/Vd*%
X115910000Y-65510000D03*
%TD*%
D10*
%TO.P,J3,2,Ext*%
%TO.N,EP*%
X127200000Y-71875000D03*
D11*
X124650000Y-63700000D03*
D12*
X127100000Y-72475000D03*
X127100000Y-69475000D03*
D13*
X124710000Y-63800000D03*
D26*
X126800000Y-65075000D03*
D12*
X127100000Y-70475000D03*
X127100000Y-65675000D03*
X127100000Y-64675000D03*
X127100000Y-63675000D03*
D13*
X124710000Y-73150000D03*
D10*
X127200000Y-65075000D03*
D12*
X127100000Y-74475000D03*
X127100000Y-71475000D03*
D11*
X124650000Y-73250000D03*
D12*
X127100000Y-62675000D03*
X127100000Y-67675000D03*
X127100000Y-73475000D03*
D26*
X126800000Y-71875000D03*
D12*
X127100000Y-66675000D03*
D15*
%TO.P,J3,1,In*%
%TO.N,Net-(J3-Pad1)*%
X124460000Y-68475000D03*
D27*
X126950000Y-68475000D03*
%TD*%
D23*
%TO.P,C18,2*%
%TO.N,EP*%
X112270000Y-72720000D03*
%TO.P,C18,1*%
%TO.N,/mmic_bias_a1/Vd*%
X113230000Y-72720000D03*
%TD*%
D28*
%TO.P,TP2,1,1*%
%TO.N,Net-(J1-Pad2)*%
X109000000Y-46490000D03*
%TD*%
D23*
%TO.P,C21,2*%
%TO.N,EP*%
X110270000Y-72720000D03*
%TO.P,C21,1*%
%TO.N,/mmic_bias_a1/Vg*%
X111230000Y-72720000D03*
%TD*%
D22*
%TO.P,C14,2*%
%TO.N,EP*%
X117230000Y-72720000D03*
%TO.P,C14,1*%
%TO.N,/mmic_bias_a/Vg*%
X116270000Y-72720000D03*
%TD*%
D29*
%TO.P,R10,2*%
%TO.N,/mmic_bias_a/Vd*%
X114410000Y-65325000D03*
%TO.P,R10,1*%
%TO.N,/mmic_bias_a/Vp*%
X114410000Y-63675000D03*
%TD*%
D20*
%TO.P,R1,2*%
%TO.N,EP*%
X126500000Y-46730000D03*
%TO.P,R1,1*%
%TO.N,Net-(Q2-Pad1)*%
X126500000Y-47750000D03*
%TD*%
D22*
%TO.P,C17,2*%
%TO.N,EP*%
X118060000Y-59000000D03*
%TO.P,C17,1*%
%TO.N,-5V*%
X117100000Y-59000000D03*
%TD*%
D20*
%TO.P,R20,2*%
%TO.N,Net-(R20-Pad2)*%
X117410000Y-64490000D03*
%TO.P,R20,1*%
%TO.N,Net-(R12-Pad2)*%
X117410000Y-65510000D03*
%TD*%
D30*
%TO.P,U4,5,V+*%
%TO.N,+4V*%
X116010000Y-61300000D03*
%TO.P,U4,4*%
%TO.N,Net-(R11-Pad2)*%
X117310000Y-61300000D03*
%TO.P,U4,2,V-*%
%TO.N,-5V*%
X116660000Y-63200000D03*
%TO.P,U4,3,-*%
%TO.N,Net-(R20-Pad2)*%
X117310000Y-63200000D03*
%TO.P,U4,1,+*%
%TO.N,Net-(R19-Pad2)*%
X116010000Y-63200000D03*
%TD*%
D31*
%TO.P,C1,2*%
%TO.N,EP*%
X108500000Y-54465000D03*
%TO.P,C1,1*%
%TO.N,Net-(C1-Pad1)*%
X108500000Y-56015000D03*
%TD*%
D20*
%TO.P,R12,2*%
%TO.N,Net-(R12-Pad2)*%
X118910000Y-63490000D03*
%TO.P,R12,1*%
%TO.N,+4V*%
X118910000Y-64510000D03*
%TD*%
D23*
%TO.P,C13,2*%
%TO.N,EP*%
X114850000Y-59000000D03*
%TO.P,C13,1*%
%TO.N,+4V*%
X115810000Y-59000000D03*
%TD*%
D29*
%TO.P,R15,2*%
%TO.N,/mmic_bias_a1/Vd*%
X106780000Y-65325000D03*
%TO.P,R15,1*%
%TO.N,/mmic_bias_a/Vp*%
X106780000Y-63675000D03*
%TD*%
D32*
%TO.P,C7,2*%
%TO.N,EP*%
X121525000Y-50490000D03*
%TO.P,C7,1*%
%TO.N,Net-(C6-Pad1)*%
X119975000Y-50490000D03*
%TD*%
D33*
%TO.P,Q1,3,D*%
%TO.N,Net-(J1-Pad2)*%
X109062500Y-49740000D03*
%TO.P,Q1,2,S*%
%TO.N,Net-(C1-Pad1)*%
X110937500Y-48790000D03*
%TO.P,Q1,1,G*%
%TO.N,EP*%
X110937500Y-50690000D03*
%TD*%
D20*
%TO.P,R21,2*%
%TO.N,Net-(R21-Pad2)*%
X108280000Y-64480000D03*
%TO.P,R21,1*%
%TO.N,/mmic_bias_a1/Vd*%
X108280000Y-65500000D03*
%TD*%
D34*
%TO.P,C6,2*%
%TO.N,EP*%
X118750000Y-51470000D03*
%TO.P,C6,1*%
%TO.N,Net-(C6-Pad1)*%
X118750000Y-50510000D03*
%TD*%
D18*
%TO.P,D5,1,K*%
%TO.N,EP*%
X108300000Y-76750000D03*
%TO.P,D5,2,A*%
%TO.N,/mmic_bias_a1/Vg*%
X109700000Y-76750000D03*
%TD*%
D19*
%TO.P,R18,2*%
%TO.N,EP*%
X112250000Y-64510000D03*
%TO.P,R18,1*%
%TO.N,Net-(R17-Pad2)*%
X112250000Y-63490000D03*
%TD*%
D22*
%TO.P,C16,2*%
%TO.N,EP*%
X118060000Y-60000000D03*
%TO.P,C16,1*%
%TO.N,-5V*%
X117100000Y-60000000D03*
%TD*%
D35*
%TO.P,R8,2*%
%TO.N,+4V*%
X122740000Y-51740000D03*
%TO.P,R8,1*%
%TO.N,Net-(Q3-Pad1)*%
X123760000Y-51740000D03*
%TD*%
D22*
%TO.P,C5,2*%
%TO.N,EP*%
X119480000Y-48740000D03*
%TO.P,C5,1*%
%TO.N,Net-(C5-Pad1)*%
X118520000Y-48740000D03*
%TD*%
D23*
%TO.P,C24,2*%
%TO.N,EP*%
X107300000Y-60000000D03*
%TO.P,C24,1*%
%TO.N,+4V*%
X108260000Y-60000000D03*
%TD*%
D30*
%TO.P,U5,5,V+*%
%TO.N,+4V*%
X108380000Y-61300000D03*
%TO.P,U5,4*%
%TO.N,Net-(R16-Pad2)*%
X109680000Y-61300000D03*
%TO.P,U5,2,V-*%
%TO.N,-5V*%
X109030000Y-63200000D03*
%TO.P,U5,3,-*%
%TO.N,Net-(R22-Pad2)*%
X109680000Y-63200000D03*
%TO.P,U5,1,+*%
%TO.N,Net-(R21-Pad2)*%
X108380000Y-63200000D03*
%TD*%
D22*
%TO.P,C9,2*%
%TO.N,EP*%
X115230000Y-72720000D03*
%TO.P,C9,1*%
%TO.N,/mmic_bias_a/Vd*%
X114270000Y-72720000D03*
%TD*%
%TO.P,C10,2*%
%TO.N,EP*%
X115230000Y-73720000D03*
%TO.P,C10,1*%
%TO.N,/mmic_bias_a/Vd*%
X114270000Y-73720000D03*
%TD*%
D20*
%TO.P,R17,2*%
%TO.N,Net-(R17-Pad2)*%
X111250000Y-63490000D03*
%TO.P,R17,1*%
%TO.N,+4V*%
X111250000Y-64510000D03*
%TD*%
D28*
%TO.P,TP1,1,1*%
%TO.N,EP*%
X117250000Y-46490000D03*
%TD*%
D22*
%TO.P,C26,2*%
%TO.N,EP*%
X110260000Y-59000000D03*
%TO.P,C26,1*%
%TO.N,-5V*%
X109300000Y-59000000D03*
%TD*%
D20*
%TO.P,R22,2*%
%TO.N,Net-(R22-Pad2)*%
X109780000Y-64490000D03*
%TO.P,R22,1*%
%TO.N,Net-(R17-Pad2)*%
X109780000Y-65510000D03*
%TD*%
D23*
%TO.P,C22,2*%
%TO.N,EP*%
X107300000Y-59000000D03*
%TO.P,C22,1*%
%TO.N,+4V*%
X108260000Y-59000000D03*
%TD*%
D25*
%TO.P,C20,2*%
%TO.N,EP*%
X111225000Y-75200000D03*
%TO.P,C20,1*%
%TO.N,/mmic_bias_a1/Vd*%
X112775000Y-75200000D03*
%TD*%
D19*
%TO.P,R13,2*%
%TO.N,EP*%
X120080000Y-64510000D03*
%TO.P,R13,1*%
%TO.N,Net-(R12-Pad2)*%
X120080000Y-63490000D03*
%TD*%
D32*
%TO.P,C11,2*%
%TO.N,EP*%
X116050000Y-75200000D03*
%TO.P,C11,1*%
%TO.N,/mmic_bias_a/Vd*%
X114500000Y-75200000D03*
%TD*%
D20*
%TO.P,R2,2*%
%TO.N,Net-(R2-Pad2)*%
X114500000Y-52980000D03*
%TO.P,R2,1*%
%TO.N,Net-(C8-Pad1)*%
X114500000Y-54000000D03*
%TD*%
D18*
%TO.P,D6,1,K*%
%TO.N,/mmic_bias_a1/Vg*%
X109700000Y-75250000D03*
%TO.P,D6,2,A*%
%TO.N,Net-(D6-Pad2)*%
X108300000Y-75250000D03*
%TD*%
D19*
%TO.P,R6,2*%
%TO.N,-5V*%
X114500000Y-56000000D03*
%TO.P,R6,1*%
%TO.N,Net-(C8-Pad1)*%
X114500000Y-54980000D03*
%TD*%
D36*
%TO.P,D1,1,K*%
%TO.N,Net-(D1-Pad1)*%
X125000000Y-47690000D03*
%TO.P,D1,2,A*%
%TO.N,-5V*%
X125000000Y-46290000D03*
%TD*%
D18*
%TO.P,D2,1,K*%
%TO.N,EP*%
X118950000Y-76500000D03*
%TO.P,D2,2,A*%
%TO.N,/mmic_bias_a/Vg*%
X117550000Y-76500000D03*
%TD*%
%TO.P,D7,1,K*%
%TO.N,Net-(D6-Pad2)*%
X106950000Y-75250000D03*
%TO.P,D7,2,A*%
%TO.N,EP*%
X105550000Y-75250000D03*
%TD*%
D31*
%TO.P,C8,2*%
%TO.N,EP*%
X113000000Y-53965000D03*
%TO.P,C8,1*%
%TO.N,Net-(C8-Pad1)*%
X113000000Y-55515000D03*
%TD*%
D19*
%TO.P,R5,2*%
%TO.N,Net-(Q3-Pad1)*%
X125750000Y-53740000D03*
%TO.P,R5,1*%
%TO.N,Net-(Q2-Pad3)*%
X125750000Y-52720000D03*
%TD*%
D37*
%TO.P,Q3,3,D*%
%TO.N,Net-(Q3-Pad3)*%
X123250000Y-55677500D03*
%TO.P,Q3,2,S*%
%TO.N,+4V*%
X122300000Y-53802500D03*
%TO.P,Q3,1,G*%
%TO.N,Net-(Q3-Pad1)*%
X124200000Y-53802500D03*
%TD*%
D23*
%TO.P,C23,2*%
%TO.N,EP*%
X110270000Y-73720000D03*
%TO.P,C23,1*%
%TO.N,/mmic_bias_a1/Vg*%
X111230000Y-73720000D03*
%TD*%
D38*
%TO.P,J1,2,Pin_2*%
%TO.N,Net-(J1-Pad2)*%
X104040000Y-48740000D03*
D39*
%TO.P,J1,1,Pin_1*%
%TO.N,EP*%
X101500000Y-48740000D03*
%TD*%
D18*
%TO.P,D3,1,K*%
%TO.N,/mmic_bias_a/Vg*%
X117550000Y-75000000D03*
%TO.P,D3,2,A*%
%TO.N,Net-(D3-Pad2)*%
X118950000Y-75000000D03*
%TD*%
D40*
%TO.P,U1,6,EN*%
%TO.N,Net-(C1-Pad1)*%
X111250000Y-53790000D03*
%TO.P,U1,5,VFB*%
%TO.N,Net-(R2-Pad2)*%
X111750000Y-53790000D03*
%TO.P,U1,4,VOUT*%
%TO.N,Net-(C8-Pad1)*%
X111750000Y-55690000D03*
%TO.P,U1,2,GND*%
%TO.N,EP*%
X110750000Y-55690000D03*
%TO.P,U1,1,VIN*%
%TO.N,Net-(C1-Pad1)*%
X110250000Y-55690000D03*
D41*
%TO.P,U1,9,PAD*%
%TO.N,EP*%
X111000000Y-54740000D03*
D40*
%TO.P,U1,8,C+*%
%TO.N,Net-(C3-Pad1)*%
X110250000Y-53790000D03*
%TO.P,U1,7,C-*%
%TO.N,Net-(C3-Pad2)*%
X110750000Y-53790000D03*
%TO.P,U1,3,CPOUT*%
%TO.N,Net-(C4-Pad1)*%
X111250000Y-55690000D03*
%TD*%
D19*
%TO.P,R4,2*%
%TO.N,/mmic_bias_a/Vp*%
X123250000Y-58260000D03*
%TO.P,R4,1*%
%TO.N,Net-(Q3-Pad3)*%
X123250000Y-57240000D03*
%TD*%
D42*
%TO.P,U2,9,GND*%
%TO.N,EP*%
X116000000Y-49740000D03*
D43*
%TO.P,U2,8,VIN*%
%TO.N,Net-(C1-Pad1)*%
X114600000Y-50490000D03*
%TO.P,U2,7,VIN*%
X114600000Y-49990000D03*
%TO.P,U2,6,GND*%
%TO.N,EP*%
X114600000Y-49490000D03*
%TO.P,U2,5,EN*%
%TO.N,Net-(C1-Pad1)*%
X114600000Y-48990000D03*
%TO.P,U2,4,SS*%
%TO.N,Net-(C5-Pad1)*%
X117400000Y-48990000D03*
%TO.P,U2,3,SENSE*%
%TO.N,Net-(C6-Pad1)*%
X117400000Y-49490000D03*
%TO.P,U2,2,VOUT*%
X117400000Y-49990000D03*
%TO.P,U2,1,VOUT*%
X117400000Y-50490000D03*
%TD*%
D44*
%TO.P,U3,17,GND*%
%TO.N,EP*%
X113700000Y-68800000D03*
D45*
%TO.P,U3,16,Vg1*%
%TO.N,/mmic_bias_a/Vg*%
X114675000Y-70575000D03*
D46*
%TO.P,U3,15,Vd1*%
%TO.N,/mmic_bias_a/Vd*%
X114025000Y-70575000D03*
D45*
%TO.P,U3,14,Vg2*%
%TO.N,/mmic_bias_a1/Vd*%
X113375000Y-70575000D03*
%TO.P,U3,13,Vd2*%
%TO.N,/mmic_bias_a1/Vg*%
X112725000Y-70575000D03*
D47*
%TO.P,U3,12,GND*%
%TO.N,EP*%
X111925000Y-69775000D03*
%TO.P,U3,11,RFout*%
%TO.N,Net-(J4-Pad1)*%
X111925000Y-69125000D03*
%TO.P,U3,10,GND*%
%TO.N,EP*%
X111925000Y-68475000D03*
%TO.P,U3,9,NC*%
X111925000Y-67825000D03*
D45*
%TO.P,U3,8,NC*%
X112725000Y-67025000D03*
%TO.P,U3,7,NC*%
X113375000Y-67025000D03*
%TO.P,U3,6,NC*%
X114025000Y-67025000D03*
%TO.P,U3,5,NC*%
X114675000Y-67025000D03*
D47*
%TO.P,U3,4,GND*%
X115475000Y-67825000D03*
%TO.P,U3,3,RFin*%
%TO.N,Net-(J3-Pad1)*%
X115475000Y-68475000D03*
%TO.P,U3,2,GND*%
%TO.N,EP*%
X115475000Y-69125000D03*
%TO.P,U3,1,EP*%
X115475000Y-69775000D03*
%TD*%
D48*
%TO.N,EP*%
X112000000Y-74250000D03*
D49*
X121500000Y-51490000D03*
D48*
X114000000Y-67900000D03*
D49*
X111000000Y-54740000D03*
D48*
X122750000Y-72000000D03*
D49*
X115500000Y-51240000D03*
D48*
X126500000Y-46000000D03*
D49*
X117250000Y-46490000D03*
D48*
X117750000Y-73750000D03*
X113400000Y-69700000D03*
X113400000Y-68500000D03*
X105500000Y-76000000D03*
X118750000Y-60000000D03*
X115250000Y-74250000D03*
D49*
X116500000Y-51240000D03*
X115500000Y-54740000D03*
X121250000Y-45740000D03*
D48*
X119750000Y-76500000D03*
X120250000Y-65250000D03*
X115250000Y-72000000D03*
X111000000Y-59000000D03*
X113400000Y-69100000D03*
X104250000Y-72750000D03*
D49*
X115500000Y-48240000D03*
X116000000Y-51990000D03*
X120250000Y-48490000D03*
D48*
X106750000Y-59000000D03*
D49*
X116500000Y-48240000D03*
D48*
X104250000Y-75250000D03*
D49*
X112000000Y-50740000D03*
D48*
X109750000Y-73750000D03*
X104250000Y-63000000D03*
D49*
X109250000Y-57240000D03*
X116000000Y-50490000D03*
X114750000Y-51990000D03*
D48*
X114600000Y-69100000D03*
X114600000Y-68500000D03*
X111000000Y-60000000D03*
X112800000Y-67900000D03*
X114600000Y-69700000D03*
D49*
X119750000Y-47740000D03*
D48*
X114600000Y-67900000D03*
X111250000Y-76000000D03*
D49*
X117500000Y-51740000D03*
X119750000Y-45740000D03*
D48*
X106750000Y-60000000D03*
D49*
X109750000Y-54740000D03*
D48*
X112800000Y-69100000D03*
X117750000Y-72750000D03*
D49*
X116000000Y-48990000D03*
D48*
X114000000Y-69100000D03*
X114250000Y-59000000D03*
X104250000Y-65500000D03*
D49*
X112250000Y-54740000D03*
D48*
X112250000Y-72000000D03*
X118750000Y-59000000D03*
D49*
X113000000Y-51490000D03*
D48*
X122750000Y-65000000D03*
X112250000Y-65000000D03*
X121500000Y-75750000D03*
X114000000Y-69700000D03*
D49*
X121500000Y-49240000D03*
D48*
X122750000Y-74500000D03*
X109750000Y-72750000D03*
X122750000Y-62500000D03*
X114250000Y-60000000D03*
X112800000Y-69700000D03*
X113400000Y-67900000D03*
X114000000Y-68500000D03*
X112800000Y-68500000D03*
X107500000Y-76750000D03*
X116000000Y-76000000D03*
%TO.N,-5V*%
X114500000Y-56750000D03*
X123500000Y-46300000D03*
%TO.N,/mmic_bias_a/Vd*%
X114500000Y-76200000D03*
X113250000Y-65500000D03*
%TO.N,/mmic_bias_a/Vg*%
X121000000Y-62500000D03*
X116700000Y-76500000D03*
%TO.N,+4V*%
X111250000Y-65250000D03*
X119000000Y-65250000D03*
X115750000Y-58250000D03*
X108250000Y-58250000D03*
%TO.N,/mmic_bias_a1/Vd*%
X106750000Y-66000000D03*
X112700000Y-76200000D03*
%TO.N,/mmic_bias_a1/Vg*%
X113000000Y-62500000D03*
X110300000Y-76800000D03*
%TO.N,/mmic_bias_a/Vp*%
X114400000Y-62900000D03*
X106800000Y-62500000D03*
X123200000Y-59300000D03*
%TD*%
D50*
%TO.N,Net-(C1-Pad1)*%
X114000000Y-48990000D02*
X113990000Y-48990000D01*
X113990000Y-48990000D02*
X113025000Y-48990000D01*
X112094388Y-52240000D02*
X112121399Y-52267011D01*
X112121399Y-52267011D02*
X113372966Y-52267011D01*
X113372966Y-52267011D02*
X113872989Y-51766988D01*
X113872989Y-49107011D02*
X113990000Y-48990000D01*
X113872989Y-51766988D02*
X113872989Y-49107011D01*
X108945000Y-51545000D02*
X108750000Y-51740000D01*
X108945000Y-51545000D02*
X111399388Y-51545000D01*
X111399388Y-51545000D02*
X112094388Y-52240000D01*
%TO.N,EP*%
X121500000Y-75000000D02*
X121500000Y-75750000D01*
X116050000Y-75950000D02*
X116000000Y-76000000D01*
D51*
X113375000Y-67025000D02*
X113375000Y-68475000D01*
X111925000Y-68475000D02*
X113375000Y-68475000D01*
X107300000Y-59000000D02*
X106750000Y-59000000D01*
D50*
X115500000Y-54000000D02*
X115500000Y-54740000D01*
D51*
X126500000Y-46730000D02*
X126500000Y-46000000D01*
D50*
X109780000Y-72720000D02*
X109750000Y-72750000D01*
X117230000Y-72720000D02*
X117720000Y-72720000D01*
D51*
X112250000Y-64510000D02*
X112250000Y-65000000D01*
D50*
X111225000Y-75975000D02*
X111250000Y-76000000D01*
X113000000Y-50515000D02*
X113000000Y-51240000D01*
X115230000Y-72720000D02*
X115230000Y-72020000D01*
D51*
X110225000Y-57240000D02*
X109250000Y-57240000D01*
X120080000Y-65080000D02*
X120250000Y-65250000D01*
X110750000Y-55690000D02*
X110750000Y-54990000D01*
D50*
X105550000Y-75250000D02*
X105550000Y-75950000D01*
D51*
X112725000Y-69775000D02*
X113700000Y-68800000D01*
X110225000Y-57240000D02*
X110225000Y-56765000D01*
X120080000Y-64510000D02*
X120080000Y-65080000D01*
D50*
X117720000Y-73720000D02*
X117750000Y-73750000D01*
X110270000Y-73720000D02*
X109780000Y-73720000D01*
X109780000Y-73720000D02*
X109750000Y-73750000D01*
X110270000Y-72720000D02*
X109780000Y-72720000D01*
X112270000Y-73980000D02*
X112000000Y-74250000D01*
D51*
X115475000Y-69125000D02*
X114025000Y-69125000D01*
D50*
X111000000Y-50690000D02*
X111950000Y-50690000D01*
D51*
X119480000Y-48740000D02*
X120250000Y-48740000D01*
D50*
X117230000Y-73720000D02*
X117720000Y-73720000D01*
D51*
X114675000Y-69775000D02*
X113700000Y-68800000D01*
D50*
X111225000Y-75200000D02*
X111225000Y-75975000D01*
D51*
X114675000Y-67025000D02*
X114675000Y-67825000D01*
D50*
X112270000Y-72720000D02*
X112270000Y-72020000D01*
D51*
X112725000Y-67025000D02*
X112725000Y-67825000D01*
X114850000Y-59000000D02*
X114250000Y-59000000D01*
D50*
X115230000Y-72020000D02*
X115250000Y-72000000D01*
D51*
X110225000Y-56765000D02*
X110750000Y-56240000D01*
X111925000Y-67825000D02*
X112725000Y-67825000D01*
D50*
X111950000Y-50690000D02*
X112000000Y-50740000D01*
D51*
X111925000Y-69775000D02*
X112725000Y-69775000D01*
X114025000Y-68475000D02*
X113700000Y-68800000D01*
X110750000Y-56240000D02*
X110750000Y-55690000D01*
D50*
X112270000Y-72020000D02*
X112250000Y-72000000D01*
X115230000Y-73720000D02*
X115230000Y-74230000D01*
D51*
X107300000Y-60000000D02*
X106750000Y-60000000D01*
X114850000Y-60000000D02*
X114250000Y-60000000D01*
D52*
X108500000Y-54465000D02*
X109475000Y-54465000D01*
D51*
X114600000Y-49490000D02*
X115750000Y-49490000D01*
X110750000Y-54990000D02*
X111000000Y-54740000D01*
D50*
X112250000Y-54740000D02*
X112250000Y-54715000D01*
D51*
X118060000Y-60000000D02*
X118750000Y-60000000D01*
D50*
X118950000Y-76500000D02*
X119750000Y-76500000D01*
D51*
X114675000Y-67825000D02*
X113700000Y-68800000D01*
X115475000Y-67825000D02*
X114675000Y-67825000D01*
X110240000Y-60000000D02*
X111000000Y-60000000D01*
D50*
X111000000Y-54740000D02*
X112250000Y-54740000D01*
D51*
X115475000Y-69775000D02*
X114675000Y-69775000D01*
D50*
X116050000Y-75200000D02*
X116050000Y-75950000D01*
X115230000Y-74230000D02*
X115250000Y-74250000D01*
D51*
X112725000Y-67825000D02*
X113700000Y-68800000D01*
D50*
X117720000Y-72720000D02*
X117750000Y-72750000D01*
D51*
X110260000Y-59000000D02*
X111000000Y-59000000D01*
D50*
X108300000Y-76750000D02*
X107500000Y-76750000D01*
X105550000Y-75950000D02*
X105500000Y-76000000D01*
D51*
X114025000Y-69125000D02*
X113700000Y-68800000D01*
X118060000Y-59000000D02*
X118750000Y-59000000D01*
X114025000Y-67025000D02*
X114025000Y-68475000D01*
D50*
X112250000Y-54715000D02*
X113000000Y-53965000D01*
D51*
X113375000Y-68475000D02*
X113700000Y-68800000D01*
D52*
X109475000Y-54465000D02*
X109750000Y-54740000D01*
D51*
X115750000Y-49490000D02*
X116000000Y-49740000D01*
D50*
X112270000Y-73720000D02*
X112270000Y-73980000D01*
%TO.N,Net-(C1-Pad1)*%
X107775000Y-56015000D02*
X108500000Y-56015000D01*
D51*
X112750000Y-52240000D02*
X113500000Y-52240000D01*
X114600000Y-49990000D02*
X114000000Y-49990000D01*
X113997990Y-50487990D02*
X113997990Y-49987990D01*
X110250000Y-55690000D02*
X110250000Y-55990000D01*
D50*
X109250000Y-56240000D02*
X108725000Y-56240000D01*
D51*
X111377009Y-52957379D02*
X112094388Y-52240000D01*
D50*
X112250000Y-48990000D02*
X112275000Y-48965000D01*
X107500000Y-51740000D02*
X107000000Y-52240000D01*
X108725000Y-56240000D02*
X108500000Y-56015000D01*
X107000000Y-52240000D02*
X107000000Y-54740000D01*
D51*
X113500000Y-52240000D02*
X114000000Y-51740000D01*
X111250000Y-53790000D02*
X111250000Y-53273172D01*
X111377009Y-53146163D02*
X111377009Y-52957379D01*
D50*
X111000000Y-48790000D02*
X111050000Y-48740000D01*
D51*
X113997990Y-51737990D02*
X113997990Y-50487990D01*
D50*
X107750000Y-55990000D02*
X107775000Y-56015000D01*
X107000000Y-55240000D02*
X107750000Y-55990000D01*
X111050000Y-48740000D02*
X111750000Y-48740000D01*
D51*
X112094388Y-52240000D02*
X112750000Y-52240000D01*
X114000000Y-49990000D02*
X113997990Y-49987990D01*
D50*
X112275000Y-48965000D02*
X113000000Y-48965000D01*
D51*
X110250000Y-55990000D02*
X110000000Y-56240000D01*
X114000000Y-50490000D02*
X113997990Y-50487990D01*
X113997990Y-48992010D02*
X114000000Y-48990000D01*
X111250000Y-53273172D02*
X111377009Y-53146163D01*
D50*
X113025000Y-48990000D02*
X113000000Y-48965000D01*
X108750000Y-51740000D02*
X107500000Y-51740000D01*
D51*
X114600000Y-50490000D02*
X114000000Y-50490000D01*
D50*
X111000000Y-48790000D02*
X110950000Y-48740000D01*
X112000000Y-48740000D02*
X112250000Y-48990000D01*
D51*
X113997990Y-49987990D02*
X113997990Y-48992010D01*
D50*
X111750000Y-48740000D02*
X112000000Y-48740000D01*
X110000000Y-56240000D02*
X109250000Y-56240000D01*
X107000000Y-54740000D02*
X107000000Y-55240000D01*
D51*
X114600000Y-48990000D02*
X114000000Y-48990000D01*
X114000000Y-51740000D02*
X113997990Y-51737990D01*
%TO.N,Net-(C3-Pad2)*%
X110750000Y-53240000D02*
X111000000Y-52990000D01*
X111000000Y-52510000D02*
X110980000Y-52490000D01*
X111000000Y-52990000D02*
X111000000Y-52510000D01*
X110750000Y-53790000D02*
X110750000Y-53240000D01*
%TO.N,Net-(C3-Pad1)*%
X110000000Y-52990000D02*
X110000000Y-52510000D01*
X110250000Y-53790000D02*
X110250000Y-53240000D01*
X110250000Y-53240000D02*
X110000000Y-52990000D01*
X110000000Y-52510000D02*
X110020000Y-52490000D01*
%TO.N,Net-(C4-Pad1)*%
X111250000Y-56240000D02*
X111250000Y-55690000D01*
X111775000Y-56765000D02*
X111250000Y-56240000D01*
X111775000Y-57240000D02*
X111775000Y-56765000D01*
%TO.N,Net-(C5-Pad1)*%
X117400000Y-48990000D02*
X118000000Y-48990000D01*
X118250000Y-48740000D02*
X118520000Y-48740000D01*
X118000000Y-48990000D02*
X118250000Y-48740000D01*
D50*
%TO.N,Net-(C6-Pad1)*%
X119975000Y-53725000D02*
X119990000Y-53740000D01*
X119975000Y-50490000D02*
X119975000Y-53725000D01*
%TO.N,Net-(C8-Pad1)*%
X112000000Y-56240000D02*
X112750000Y-56240000D01*
D51*
X111750000Y-55690000D02*
X111750000Y-55990000D01*
D50*
X114010000Y-54980000D02*
X114500000Y-54980000D01*
X113750000Y-55240000D02*
X114010000Y-54980000D01*
X114500000Y-54980000D02*
X114500000Y-54000000D01*
D51*
X111750000Y-55990000D02*
X112000000Y-56240000D01*
D50*
X113000000Y-55515000D02*
X113475000Y-55515000D01*
X112750000Y-56240000D02*
X113000000Y-55990000D01*
X113000000Y-55990000D02*
X113000000Y-55515000D01*
X113475000Y-55515000D02*
X113750000Y-55240000D01*
%TO.N,-5V*%
X113190000Y-61490000D02*
X114390000Y-61490000D01*
D51*
X117100000Y-59000000D02*
X117100000Y-60000000D01*
X119750000Y-60750000D02*
X117738620Y-60750000D01*
X117457240Y-60468620D02*
X117100000Y-60468620D01*
X116660000Y-63200000D02*
X116660000Y-62060000D01*
X120080000Y-61080000D02*
X119750000Y-60750000D01*
X109280000Y-59020000D02*
X109300000Y-59000000D01*
X116660000Y-62060000D02*
X116660000Y-60908620D01*
X117100000Y-60350000D02*
X117100000Y-60000000D01*
X112250000Y-61000000D02*
X112000000Y-60750000D01*
D50*
X114500000Y-56000000D02*
X114500000Y-56750000D01*
D51*
X109030000Y-60720000D02*
X109280000Y-60470000D01*
D50*
X113190000Y-61490000D02*
X112250000Y-61490000D01*
D51*
X110125598Y-60750000D02*
X109845598Y-60470000D01*
X116660000Y-60908620D02*
X117100000Y-60468620D01*
X117100000Y-60468620D02*
X117100000Y-60000000D01*
D50*
X113190000Y-61490000D02*
X113190000Y-59010000D01*
D51*
X117738620Y-60750000D02*
X117457240Y-60468620D01*
X112250000Y-61490000D02*
X112250000Y-61000000D01*
X120080000Y-61490000D02*
X120080000Y-61080000D01*
X109030000Y-63200000D02*
X109030000Y-60720000D01*
X109845598Y-60470000D02*
X109280000Y-60470000D01*
D50*
X113190000Y-59010000D02*
X114500000Y-57700000D01*
D51*
X125000000Y-46290000D02*
X123510000Y-46290000D01*
X123510000Y-46290000D02*
X123500000Y-46300000D01*
X112000000Y-60750000D02*
X110125598Y-60750000D01*
X109280000Y-60000000D02*
X109280000Y-59020000D01*
D50*
X114960000Y-62060000D02*
X116660000Y-62060000D01*
X114390000Y-61490000D02*
X114960000Y-62060000D01*
D51*
X109280000Y-60470000D02*
X109280000Y-60000000D01*
D50*
X114500000Y-57700000D02*
X114500000Y-56750000D01*
D53*
%TO.N,/mmic_bias_a/Vd*%
X114025000Y-71325000D02*
X114270000Y-71570000D01*
D50*
X114500000Y-74250000D02*
X114500000Y-75200000D01*
X114270000Y-73720000D02*
X114270000Y-74020000D01*
D51*
X114410000Y-65325000D02*
X115075000Y-65325000D01*
D50*
X114410000Y-65325000D02*
X113425000Y-65325000D01*
X114270000Y-72720000D02*
X114270000Y-73720000D01*
X113425000Y-65325000D02*
X113250000Y-65500000D01*
D51*
X115075000Y-65325000D02*
X115260000Y-65510000D01*
D50*
X114500000Y-75200000D02*
X114500000Y-76200000D01*
D53*
X114270000Y-71570000D02*
X114270000Y-72720000D01*
D50*
X114270000Y-74020000D02*
X114500000Y-74250000D01*
D53*
X114025000Y-70575000D02*
X114025000Y-71325000D01*
D51*
X115260000Y-65510000D02*
X115910000Y-65510000D01*
%TO.N,Net-(D1-Pad1)*%
X125100000Y-49240000D02*
X125100000Y-47790000D01*
X125100000Y-47790000D02*
X125000000Y-47690000D01*
D50*
%TO.N,Net-(J1-Pad2)*%
X109000000Y-49740000D02*
X106500000Y-49740000D01*
X109000000Y-46490000D02*
X109000000Y-49740000D01*
X104040000Y-48740000D02*
X105500000Y-48740000D01*
X106500000Y-49740000D02*
X106000000Y-49240000D01*
X105500000Y-48740000D02*
X106000000Y-49240000D01*
%TO.N,/mmic_bias_a/Vg*%
X116270000Y-73720000D02*
X116270000Y-74020000D01*
D51*
X118910000Y-62510000D02*
X120080000Y-62510000D01*
D53*
X114900000Y-71200000D02*
X115600000Y-71200000D01*
D50*
X117250000Y-75000000D02*
X117550000Y-75000000D01*
X117550000Y-76500000D02*
X116700000Y-76500000D01*
D53*
X115600000Y-71200000D02*
X116270000Y-71870000D01*
D50*
X116270000Y-72720000D02*
X116270000Y-73720000D01*
D53*
X114675000Y-70575000D02*
X114675000Y-70975000D01*
X116270000Y-71870000D02*
X116270000Y-72720000D01*
X114675000Y-70975000D02*
X114900000Y-71200000D01*
D50*
X117550000Y-75000000D02*
X117550000Y-76500000D01*
D51*
X120990000Y-62510000D02*
X121000000Y-62500000D01*
X120080000Y-62510000D02*
X120990000Y-62510000D01*
D50*
X116270000Y-74020000D02*
X117250000Y-75000000D01*
D52*
%TO.N,Net-(J3-Pad1)*%
X124460000Y-68475000D02*
X115475000Y-68475000D01*
%TO.N,Net-(J4-Pad1)*%
X102490000Y-69125000D02*
X111925000Y-69125000D01*
D51*
%TO.N,+4V*%
X116010000Y-60760000D02*
X116010000Y-61300000D01*
X108250000Y-60500000D02*
X108380000Y-60630000D01*
X108260000Y-59000000D02*
X108260000Y-60000000D01*
X122300000Y-53802500D02*
X122300000Y-52950000D01*
D50*
X121010000Y-54790000D02*
X121010000Y-53740000D01*
X121010000Y-53740000D02*
X122237500Y-53740000D01*
D51*
X108260000Y-58260000D02*
X108250000Y-58250000D01*
X108260000Y-60000000D02*
X108260000Y-60490000D01*
D50*
X122237500Y-53740000D02*
X122300000Y-53802500D01*
X116400000Y-57100000D02*
X118700000Y-57100000D01*
X115800000Y-57700000D02*
X116400000Y-57100000D01*
D51*
X111250000Y-64510000D02*
X111250000Y-65250000D01*
X115810000Y-58310000D02*
X115750000Y-58250000D01*
X115810000Y-60000000D02*
X115810000Y-60560000D01*
X122740000Y-52490000D02*
X122740000Y-51740000D01*
X115810000Y-60560000D02*
X116010000Y-60760000D01*
X122750000Y-52500000D02*
X122740000Y-52490000D01*
X118910000Y-65160000D02*
X119000000Y-65250000D01*
X115810000Y-60000000D02*
X115810000Y-59000000D01*
X118910000Y-64510000D02*
X118910000Y-65160000D01*
D50*
X115750000Y-58250000D02*
X115800000Y-58200000D01*
D51*
X108380000Y-60630000D02*
X108380000Y-61300000D01*
X108260000Y-60490000D02*
X108250000Y-60500000D01*
D50*
X115800000Y-58200000D02*
X115800000Y-57700000D01*
X118700000Y-57100000D02*
X121010000Y-54790000D01*
D51*
X108260000Y-59000000D02*
X108260000Y-58260000D01*
X122300000Y-52950000D02*
X122750000Y-52500000D01*
X115810000Y-59000000D02*
X115810000Y-58310000D01*
%TO.N,Net-(Q2-Pad3)*%
X125750000Y-52720000D02*
X125750000Y-51240000D01*
%TO.N,Net-(Q2-Pad1)*%
X126500000Y-48500000D02*
X126400000Y-48600000D01*
X126500000Y-47750000D02*
X126500000Y-48500000D01*
X126400000Y-48600000D02*
X126400000Y-49240000D01*
D50*
%TO.N,Net-(Q3-Pad3)*%
X123250000Y-55677500D02*
X123250000Y-57240000D01*
%TO.N,/mmic_bias_a1/Vd*%
X112775000Y-74475000D02*
X112775000Y-75200000D01*
X113230000Y-73720000D02*
X113230000Y-74020000D01*
X106780000Y-65970000D02*
X106750000Y-66000000D01*
D51*
X106780000Y-65325000D02*
X107325000Y-65325000D01*
D50*
X112775000Y-76125000D02*
X112700000Y-76200000D01*
D53*
X113230000Y-71470000D02*
X113230000Y-72720000D01*
D50*
X113230000Y-74020000D02*
X112775000Y-74475000D01*
X113230000Y-72720000D02*
X113230000Y-73720000D01*
D51*
X107500000Y-65500000D02*
X108280000Y-65500000D01*
X107325000Y-65325000D02*
X107500000Y-65500000D01*
D53*
X113375000Y-70575000D02*
X113375000Y-71325000D01*
X113375000Y-71325000D02*
X113230000Y-71470000D01*
D50*
X106780000Y-65325000D02*
X106780000Y-65970000D01*
X112775000Y-75200000D02*
X112775000Y-76125000D01*
D51*
%TO.N,Net-(Q3-Pad1)*%
X124200000Y-52700000D02*
X124200000Y-53802500D01*
X123760000Y-51740000D02*
X123760000Y-52260000D01*
X125687500Y-53802500D02*
X125750000Y-53740000D01*
X124200000Y-53802500D02*
X125687500Y-53802500D01*
X123760000Y-52260000D02*
X124200000Y-52700000D01*
%TO.N,Net-(R2-Pad2)*%
X114500000Y-52980000D02*
X115500000Y-52980000D01*
X111750000Y-53790000D02*
X111750000Y-53240000D01*
X112000000Y-52990000D02*
X112010000Y-52980000D01*
X111750000Y-53240000D02*
X112000000Y-52990000D01*
X112010000Y-52980000D02*
X114500000Y-52980000D01*
D50*
%TO.N,/mmic_bias_a1/Vg*%
X109700000Y-75250000D02*
X109700000Y-76750000D01*
X110598614Y-74500000D02*
X110000000Y-74500000D01*
D51*
X112250000Y-62510000D02*
X112990000Y-62510000D01*
D53*
X111230000Y-71870000D02*
X111230000Y-72720000D01*
D51*
X109750000Y-76800000D02*
X109700000Y-76750000D01*
D50*
X111230000Y-73868614D02*
X110598614Y-74500000D01*
D51*
X111250000Y-62510000D02*
X112250000Y-62510000D01*
D53*
X112725000Y-70575000D02*
X112725000Y-71075000D01*
X112725000Y-71075000D02*
X112500000Y-71300000D01*
D51*
X110300000Y-76800000D02*
X109750000Y-76800000D01*
D50*
X109700000Y-74800000D02*
X109700000Y-75250000D01*
D51*
X112990000Y-62510000D02*
X113000000Y-62500000D01*
D50*
X111230000Y-73720000D02*
X111230000Y-73868614D01*
D53*
X112500000Y-71300000D02*
X111800000Y-71300000D01*
D50*
X110000000Y-74500000D02*
X109700000Y-74800000D01*
X111230000Y-72720000D02*
X111230000Y-73720000D01*
D53*
X111800000Y-71300000D02*
X111230000Y-71870000D01*
D50*
%TO.N,Net-(D3-Pad2)*%
X118950000Y-75000000D02*
X120050000Y-75000000D01*
%TO.N,Net-(D6-Pad2)*%
X108300000Y-75250000D02*
X106950000Y-75250000D01*
%TO.N,/mmic_bias_a/Vp*%
X106780000Y-62520000D02*
X106800000Y-62500000D01*
X114410000Y-62910000D02*
X114400000Y-62900000D01*
X123250000Y-59250000D02*
X123200000Y-59300000D01*
X114410000Y-63675000D02*
X114410000Y-62910000D01*
X106780000Y-63675000D02*
X106780000Y-62520000D01*
X123250000Y-58260000D02*
X123250000Y-59250000D01*
D51*
%TO.N,Net-(R11-Pad2)*%
X118050000Y-61300000D02*
X118250000Y-61500000D01*
X118260000Y-61490000D02*
X118910000Y-61490000D01*
X117310000Y-61300000D02*
X118050000Y-61300000D01*
X118250000Y-61500000D02*
X118260000Y-61490000D01*
%TO.N,Net-(R12-Pad2)*%
X118910000Y-63490000D02*
X118510000Y-63490000D01*
X118910000Y-63490000D02*
X120080000Y-63490000D01*
X118510000Y-63490000D02*
X118250000Y-63750000D01*
X118250000Y-65250000D02*
X117990000Y-65510000D01*
X118250000Y-63750000D02*
X118250000Y-65250000D01*
X117990000Y-65510000D02*
X117410000Y-65510000D01*
%TO.N,Net-(R16-Pad2)*%
X110500000Y-61500000D02*
X110510000Y-61490000D01*
X110300000Y-61300000D02*
X110500000Y-61500000D01*
X110510000Y-61490000D02*
X111410000Y-61490000D01*
X109680000Y-61300000D02*
X110300000Y-61300000D01*
%TO.N,Net-(R17-Pad2)*%
X112250000Y-63490000D02*
X111250000Y-63490000D01*
X110760000Y-63490000D02*
X110500000Y-63750000D01*
X110500000Y-65250000D02*
X110240000Y-65510000D01*
X110240000Y-65510000D02*
X109780000Y-65510000D01*
X111250000Y-63490000D02*
X110760000Y-63490000D01*
X110500000Y-63750000D02*
X110500000Y-65250000D01*
%TO.N,Net-(R19-Pad2)*%
X116010000Y-63740000D02*
X115910000Y-63840000D01*
X115910000Y-63840000D02*
X115910000Y-64490000D01*
X116010000Y-63200000D02*
X116010000Y-63740000D01*
%TO.N,Net-(R21-Pad2)*%
X108380000Y-63870000D02*
X108250000Y-64000000D01*
X108280000Y-64030000D02*
X108280000Y-64480000D01*
X108250000Y-64000000D02*
X108280000Y-64030000D01*
X108380000Y-63200000D02*
X108380000Y-63870000D01*
%TO.N,Net-(R20-Pad2)*%
X117410000Y-64490000D02*
X117410000Y-63910000D01*
X117250000Y-63750000D02*
X117250000Y-63260000D01*
X117410000Y-63910000D02*
X117250000Y-63750000D01*
X117250000Y-63260000D02*
X117310000Y-63200000D01*
%TO.N,Net-(R22-Pad2)*%
X109680000Y-63200000D02*
X109680000Y-63680000D01*
X109680000Y-63680000D02*
X109780000Y-63780000D01*
X109780000Y-63780000D02*
X109780000Y-64490000D01*
%TD*%
%TA.AperFunction,Conductor*%
%TO.N,EP*%
G36*
X116959191Y-48258907D02*
G01*
X116995155Y-48308407D01*
X117000000Y-48339000D01*
X117000000Y-48540739D01*
X116981093Y-48598930D01*
X116949662Y-48623709D01*
X116950694Y-48625253D01*
X116866506Y-48681506D01*
X116810253Y-48765694D01*
X116790500Y-48865000D01*
X116790500Y-49115000D01*
X116791448Y-49119764D01*
X116810253Y-49214306D01*
X116808252Y-49214704D01*
X116812055Y-49262997D01*
X116810253Y-49265694D01*
X116790500Y-49365000D01*
X116790500Y-49615000D01*
X116798960Y-49657531D01*
X116810253Y-49714306D01*
X116808252Y-49714704D01*
X116812055Y-49762997D01*
X116810253Y-49765694D01*
X116790500Y-49865000D01*
X116790500Y-50115000D01*
X116791448Y-50119764D01*
X116810253Y-50214306D01*
X116808252Y-50214704D01*
X116812055Y-50262997D01*
X116810253Y-50265694D01*
X116790500Y-50365000D01*
X116790500Y-50615000D01*
X116810253Y-50714306D01*
X116866506Y-50798494D01*
X116874616Y-50803913D01*
X116950694Y-50854747D01*
X116949361Y-50856742D01*
X116985414Y-50887538D01*
X117000000Y-50939261D01*
X117000000Y-51240000D01*
X119371500Y-51240000D01*
X119429691Y-51258907D01*
X119465655Y-51308407D01*
X119470500Y-51339000D01*
X119470500Y-52391000D01*
X119451593Y-52449191D01*
X119402093Y-52485155D01*
X119371500Y-52490000D01*
X115870304Y-52490000D01*
X115825358Y-52479209D01*
X115813850Y-52473345D01*
X115813846Y-52473344D01*
X115806907Y-52469808D01*
X115799213Y-52468589D01*
X115799212Y-52468589D01*
X115720415Y-52456109D01*
X115720413Y-52456109D01*
X115716569Y-52455500D01*
X115283431Y-52455500D01*
X115279587Y-52456109D01*
X115279585Y-52456109D01*
X115200788Y-52468589D01*
X115200787Y-52468589D01*
X115193093Y-52469808D01*
X115186154Y-52473344D01*
X115186150Y-52473345D01*
X115174642Y-52479209D01*
X115129696Y-52490000D01*
X114870304Y-52490000D01*
X114825358Y-52479209D01*
X114813850Y-52473345D01*
X114813846Y-52473344D01*
X114806907Y-52469808D01*
X114799213Y-52468589D01*
X114799212Y-52468589D01*
X114720415Y-52456109D01*
X114720413Y-52456109D01*
X114716569Y-52455500D01*
X114283431Y-52455500D01*
X114279587Y-52456109D01*
X114279585Y-52456109D01*
X114200788Y-52468589D01*
X114200787Y-52468589D01*
X114193093Y-52469808D01*
X114186154Y-52473344D01*
X114186150Y-52473345D01*
X114174642Y-52479209D01*
X114129696Y-52490000D01*
X114102456Y-52490000D01*
X114044265Y-52471093D01*
X114008301Y-52421593D01*
X114008301Y-52360407D01*
X114032452Y-52320996D01*
X114182516Y-52170932D01*
X114191938Y-52163405D01*
X114191871Y-52163326D01*
X114197241Y-52158755D01*
X114203206Y-52154992D01*
X114234419Y-52119650D01*
X114237080Y-52116637D01*
X114241280Y-52112168D01*
X114254412Y-52099036D01*
X114256524Y-52096218D01*
X114256530Y-52096211D01*
X114262042Y-52088856D01*
X114267059Y-52082692D01*
X114294166Y-52051999D01*
X114298833Y-52046715D01*
X114303258Y-52037290D01*
X114313649Y-52019996D01*
X114319895Y-52011662D01*
X114336744Y-51966714D01*
X114339830Y-51959392D01*
X114360226Y-51915951D01*
X114361827Y-51905669D01*
X114366951Y-51886135D01*
X114368127Y-51882999D01*
X114370603Y-51876395D01*
X114374160Y-51828527D01*
X114375063Y-51820657D01*
X114377489Y-51805081D01*
X114377489Y-51805078D01*
X114377952Y-51805150D01*
X114378138Y-51804154D01*
X114378099Y-51804149D01*
X114379125Y-51796029D01*
X114381469Y-51788191D01*
X114381148Y-51780019D01*
X114382021Y-51773107D01*
X114382351Y-51766111D01*
X114384073Y-51758113D01*
X114381198Y-51733824D01*
X114381307Y-51733811D01*
X114381223Y-51733483D01*
X114381309Y-51732334D01*
X114380665Y-51729316D01*
X114379988Y-51723593D01*
X114378863Y-51714088D01*
X114378252Y-51706335D01*
X114377566Y-51688872D01*
X114377490Y-51684986D01*
X114377490Y-51589000D01*
X114396397Y-51530809D01*
X114445897Y-51494845D01*
X114476490Y-51490000D01*
X115000000Y-51490000D01*
X115000000Y-50939261D01*
X115018907Y-50881070D01*
X115050338Y-50856291D01*
X115049306Y-50854747D01*
X115125384Y-50803913D01*
X115133494Y-50798494D01*
X115189747Y-50714306D01*
X115209500Y-50615000D01*
X115209500Y-50365000D01*
X115189747Y-50265694D01*
X115191748Y-50265296D01*
X115187945Y-50217003D01*
X115189747Y-50214306D01*
X115209500Y-50115000D01*
X115209500Y-49865000D01*
X115189747Y-49765694D01*
X115133494Y-49681506D01*
X115049306Y-49625253D01*
X115050639Y-49623258D01*
X115014586Y-49592462D01*
X115000000Y-49540739D01*
X115000000Y-49439261D01*
X115018907Y-49381070D01*
X115050338Y-49356291D01*
X115049306Y-49354747D01*
X115125384Y-49303913D01*
X115133494Y-49298494D01*
X115189747Y-49214306D01*
X115209500Y-49115000D01*
X115209500Y-48865000D01*
X115189747Y-48765694D01*
X115133494Y-48681506D01*
X115049306Y-48625253D01*
X115050639Y-48623258D01*
X115014586Y-48592462D01*
X115000000Y-48540739D01*
X115000000Y-48339000D01*
X115018907Y-48280809D01*
X115068407Y-48244845D01*
X115099000Y-48240000D01*
X116901000Y-48240000D01*
X116959191Y-48258907D01*
G37*
%TD.AperFunction*%
%TA.AperFunction,Conductor*%
G36*
X121959191Y-45172907D02*
G01*
X121995155Y-45222407D01*
X122000000Y-45253000D01*
X122000000Y-52391000D01*
X121981093Y-52449191D01*
X121931593Y-52485155D01*
X121901000Y-52490000D01*
X120578500Y-52490000D01*
X120520309Y-52471093D01*
X120484345Y-52421593D01*
X120479500Y-52391000D01*
X120479500Y-51339000D01*
X120498407Y-51280809D01*
X120547907Y-51244845D01*
X120578500Y-51240000D01*
X120750000Y-51240000D01*
X120750000Y-48990000D01*
X119349000Y-48990000D01*
X119290809Y-48971093D01*
X119254845Y-48921593D01*
X119250000Y-48891000D01*
X119250000Y-47990000D01*
X114849000Y-47990000D01*
X114790809Y-47971093D01*
X114754845Y-47921593D01*
X114750000Y-47891000D01*
X114750000Y-45253000D01*
X114768907Y-45194809D01*
X114818407Y-45158845D01*
X114849000Y-45154000D01*
X121901000Y-45154000D01*
X121959191Y-45172907D01*
G37*
%TD.AperFunction*%
%TA.AperFunction,Conductor*%
G36*
X113327680Y-50008907D02*
G01*
X113363644Y-50058407D01*
X113368489Y-50089000D01*
X113368489Y-51517010D01*
X113349582Y-51575201D01*
X113339493Y-51587013D01*
X113192993Y-51733514D01*
X113138476Y-51761292D01*
X113122989Y-51762511D01*
X112371378Y-51762511D01*
X112313187Y-51743604D01*
X112301374Y-51733515D01*
X111803335Y-51235477D01*
X111795805Y-51226053D01*
X111795727Y-51226119D01*
X111791155Y-51220747D01*
X111787392Y-51214783D01*
X111749028Y-51180901D01*
X111744559Y-51176701D01*
X111731435Y-51163577D01*
X111721239Y-51155935D01*
X111715096Y-51150933D01*
X111684401Y-51123824D01*
X111684399Y-51123823D01*
X111679115Y-51119156D01*
X111672732Y-51116159D01*
X111672730Y-51116158D01*
X111669691Y-51114731D01*
X111652390Y-51104335D01*
X111649710Y-51102326D01*
X111649704Y-51102323D01*
X111644062Y-51098094D01*
X111637460Y-51095619D01*
X111637458Y-51095618D01*
X111599117Y-51081246D01*
X111591792Y-51078159D01*
X111548351Y-51057763D01*
X111541381Y-51056678D01*
X111541378Y-51056677D01*
X111538069Y-51056162D01*
X111518539Y-51051039D01*
X111508795Y-51047386D01*
X111469964Y-51044500D01*
X111460924Y-51043828D01*
X111453031Y-51042921D01*
X111441268Y-51041089D01*
X111441259Y-51041088D01*
X111437481Y-51040500D01*
X111419823Y-51040500D01*
X111412485Y-51040228D01*
X111364734Y-51036679D01*
X111357839Y-51038151D01*
X111357836Y-51038151D01*
X111357051Y-51038319D01*
X111336384Y-51040500D01*
X110599000Y-51040500D01*
X110540809Y-51021593D01*
X110504845Y-50972093D01*
X110500000Y-50941500D01*
X110500000Y-50089000D01*
X110518907Y-50030809D01*
X110568407Y-49994845D01*
X110599000Y-49990000D01*
X113269489Y-49990000D01*
X113327680Y-50008907D01*
G37*
%TD.AperFunction*%
%TD*%
%TA.AperFunction,Conductor*%
%TO.N,EP*%
G36*
X113692121Y-53379502D02*
G01*
X113738614Y-53433158D01*
X113750000Y-53485500D01*
X113750000Y-54480519D01*
X113729998Y-54548640D01*
X113706245Y-54575975D01*
X113699959Y-54581391D01*
X113692045Y-54587675D01*
X113684134Y-54593454D01*
X113684128Y-54593459D01*
X113680201Y-54596328D01*
X113668425Y-54608104D01*
X113661577Y-54614463D01*
X113632857Y-54639209D01*
X113632855Y-54639211D01*
X113626059Y-54645067D01*
X113621179Y-54652596D01*
X113615275Y-54659364D01*
X113615212Y-54659309D01*
X113606699Y-54669830D01*
X113485699Y-54790830D01*
X113423387Y-54824856D01*
X113360503Y-54822452D01*
X113321614Y-54810822D01*
X113317281Y-54810500D01*
X112715086Y-54810500D01*
X112675518Y-54816167D01*
X112622910Y-54823700D01*
X112622907Y-54823701D01*
X112614017Y-54824974D01*
X112605841Y-54828691D01*
X112605839Y-54828692D01*
X112497138Y-54878116D01*
X112497136Y-54878117D01*
X112488966Y-54881832D01*
X112482167Y-54887690D01*
X112482166Y-54887691D01*
X112430793Y-54931957D01*
X112384899Y-54971502D01*
X112310182Y-55086775D01*
X112307611Y-55095372D01*
X112307610Y-55095374D01*
X112291243Y-55150102D01*
X112252561Y-55209636D01*
X112187834Y-55238806D01*
X112170526Y-55240000D01*
X112072013Y-55240000D01*
X112002011Y-55218765D01*
X111984625Y-55207148D01*
X111974306Y-55200253D01*
X111875000Y-55180500D01*
X111625000Y-55180500D01*
X111525694Y-55200253D01*
X111524859Y-55196056D01*
X111477626Y-55201133D01*
X111474324Y-55200163D01*
X111474306Y-55200253D01*
X111381068Y-55181707D01*
X111375000Y-55180500D01*
X111125000Y-55180500D01*
X111025694Y-55200253D01*
X111015375Y-55207148D01*
X110997989Y-55218765D01*
X110927987Y-55240000D01*
X110572013Y-55240000D01*
X110502011Y-55218765D01*
X110484625Y-55207148D01*
X110474306Y-55200253D01*
X110375000Y-55180500D01*
X110125000Y-55180500D01*
X110025694Y-55200253D01*
X110015375Y-55207148D01*
X109997989Y-55218765D01*
X109927987Y-55240000D01*
X107876000Y-55240000D01*
X107807879Y-55219998D01*
X107761386Y-55166342D01*
X107750000Y-55114000D01*
X107750000Y-53866000D01*
X107770002Y-53797879D01*
X107823658Y-53751386D01*
X107876000Y-53740000D01*
X109124000Y-53740000D01*
X109192121Y-53760002D01*
X109238614Y-53813658D01*
X109250000Y-53866000D01*
X109250000Y-54240000D01*
X109927987Y-54240000D01*
X109997989Y-54261235D01*
X110025694Y-54279747D01*
X110125000Y-54299500D01*
X110375000Y-54299500D01*
X110474306Y-54279747D01*
X110475141Y-54283944D01*
X110522374Y-54278867D01*
X110525676Y-54279837D01*
X110525694Y-54279747D01*
X110625000Y-54299500D01*
X110875000Y-54299500D01*
X110974306Y-54279747D01*
X110975141Y-54283944D01*
X111022374Y-54278867D01*
X111025676Y-54279837D01*
X111025694Y-54279747D01*
X111125000Y-54299500D01*
X111375000Y-54299500D01*
X111474306Y-54279747D01*
X111475141Y-54283944D01*
X111522374Y-54278867D01*
X111525676Y-54279837D01*
X111525694Y-54279747D01*
X111625000Y-54299500D01*
X111875000Y-54299500D01*
X111974306Y-54279747D01*
X112002011Y-54261235D01*
X112072013Y-54240000D01*
X112250000Y-54240000D01*
X112250000Y-53485500D01*
X112270002Y-53417379D01*
X112323658Y-53370886D01*
X112376000Y-53359500D01*
X113624000Y-53359500D01*
X113692121Y-53379502D01*
G37*
%TD.AperFunction*%
%TD*%
%TA.AperFunction,Conductor*%
%TO.N,Net-(C6-Pad1)*%
G36*
X119145474Y-49253733D02*
G01*
X119216548Y-49289947D01*
X119226338Y-49291498D01*
X119226339Y-49291498D01*
X119240969Y-49293815D01*
X119308431Y-49304500D01*
X119651569Y-49304500D01*
X119719031Y-49293815D01*
X119733661Y-49291498D01*
X119733662Y-49291498D01*
X119743452Y-49289947D01*
X119806676Y-49257733D01*
X119863878Y-49244000D01*
X120370000Y-49244000D01*
X120438121Y-49264002D01*
X120484614Y-49317658D01*
X120496000Y-49370000D01*
X120496000Y-50864000D01*
X120475998Y-50932121D01*
X120422342Y-50978614D01*
X120370000Y-50990000D01*
X119406673Y-50990000D01*
X119386963Y-50988449D01*
X119386364Y-50988354D01*
X119371500Y-50986000D01*
X119144252Y-50986000D01*
X119087049Y-50972267D01*
X119043452Y-50950053D01*
X119033662Y-50948502D01*
X119033661Y-50948502D01*
X119008285Y-50944483D01*
X118951569Y-50935500D01*
X118548431Y-50935500D01*
X118491715Y-50944483D01*
X118466339Y-50948502D01*
X118466338Y-50948502D01*
X118456548Y-50950053D01*
X118412951Y-50972267D01*
X118355748Y-50986000D01*
X117370237Y-50986000D01*
X117302116Y-50965998D01*
X117255623Y-50912342D01*
X117245425Y-50877260D01*
X117245058Y-50874610D01*
X117244465Y-50870321D01*
X117229879Y-50818598D01*
X117211737Y-50772238D01*
X117167496Y-50716111D01*
X117154215Y-50699262D01*
X117154212Y-50699259D01*
X117150386Y-50694405D01*
X117145679Y-50690384D01*
X117133663Y-50680120D01*
X117094858Y-50620667D01*
X117089500Y-50584315D01*
X117089500Y-49500500D01*
X117109502Y-49432379D01*
X117163158Y-49385886D01*
X117215500Y-49374500D01*
X117750000Y-49374500D01*
X117756066Y-49373293D01*
X117756070Y-49373293D01*
X117762967Y-49371921D01*
X117787547Y-49369500D01*
X117947235Y-49369500D01*
X117967953Y-49371705D01*
X117971711Y-49371882D01*
X117981887Y-49374073D01*
X118013149Y-49370373D01*
X118019666Y-49369989D01*
X118019661Y-49369928D01*
X118024840Y-49369500D01*
X118030040Y-49369500D01*
X118035168Y-49368646D01*
X118035173Y-49368646D01*
X118050523Y-49366091D01*
X118056400Y-49365254D01*
X118074654Y-49363093D01*
X118107272Y-49359233D01*
X118115520Y-49355272D01*
X118124546Y-49353770D01*
X118169654Y-49329431D01*
X118174912Y-49326753D01*
X118217368Y-49306367D01*
X118291618Y-49295502D01*
X118327638Y-49301207D01*
X118348431Y-49304500D01*
X118691569Y-49304500D01*
X118759031Y-49293815D01*
X118773661Y-49291498D01*
X118773662Y-49291498D01*
X118783452Y-49289947D01*
X118854526Y-49253733D01*
X118911729Y-49240000D01*
X119088271Y-49240000D01*
X119145474Y-49253733D01*
G37*
%TD.AperFunction*%
%TD*%
M02*
