%TF.GenerationSoftware,KiCad,Pcbnew,5.99.0-unknown-b691c18bfc~117~ubuntu20.10.1*%
%TF.CreationDate,2021-03-07T12:14:31-07:00*%
%TF.ProjectId,maam-011132,6d61616d-2d30-4313-9131-33322e6b6963,rev?*%
%TF.SameCoordinates,Original*%
%TF.FileFunction,Legend,Top*%
%TF.FilePolarity,Positive*%
%FSLAX46Y46*%
G04 Gerber Fmt 4.6, Leading zero omitted, Abs format (unit mm)*
G04 Created by KiCad (PCBNEW 5.99.0-unknown-b691c18bfc~117~ubuntu20.10.1) date 2021-03-07 12:14:31*
%MOMM*%
%LPD*%
G01*
G04 APERTURE LIST*
%ADD10C,0.300000*%
%ADD11C,0.225000*%
%ADD12C,0.150000*%
%ADD13C,0.120000*%
G04 APERTURE END LIST*
D10*
X100535714Y-61928571D02*
X100392857Y-61857142D01*
X100321428Y-61785714D01*
X100250000Y-61642857D01*
X100250000Y-61214285D01*
X100321428Y-61071428D01*
X100392857Y-61000000D01*
X100535714Y-60928571D01*
X100750000Y-60928571D01*
X100892857Y-61000000D01*
X100964285Y-61071428D01*
X101035714Y-61214285D01*
X101035714Y-61642857D01*
X100964285Y-61785714D01*
X100892857Y-61857142D01*
X100750000Y-61928571D01*
X100535714Y-61928571D01*
X102321428Y-60928571D02*
X102321428Y-61928571D01*
X101678571Y-60928571D02*
X101678571Y-61714285D01*
X101750000Y-61857142D01*
X101892857Y-61928571D01*
X102107142Y-61928571D01*
X102250000Y-61857142D01*
X102321428Y-61785714D01*
X102821428Y-60928571D02*
X103392857Y-60928571D01*
X103035714Y-60428571D02*
X103035714Y-61714285D01*
X103107142Y-61857142D01*
X103250000Y-61928571D01*
X103392857Y-61928571D01*
X125071428Y-61178571D02*
X125071428Y-60178571D01*
X125071428Y-59678571D02*
X125000000Y-59750000D01*
X125071428Y-59821428D01*
X125142857Y-59750000D01*
X125071428Y-59678571D01*
X125071428Y-59821428D01*
X125785714Y-60178571D02*
X125785714Y-61178571D01*
X125785714Y-60321428D02*
X125857142Y-60250000D01*
X126000000Y-60178571D01*
X126214285Y-60178571D01*
X126357142Y-60250000D01*
X126428571Y-60392857D01*
X126428571Y-61178571D01*
X100178571Y-54882857D02*
X100178571Y-54740000D01*
X100250000Y-54597142D01*
X100321428Y-54525714D01*
X100464285Y-54454285D01*
X100750000Y-54382857D01*
X101107142Y-54382857D01*
X101392857Y-54454285D01*
X101535714Y-54525714D01*
X101607142Y-54597142D01*
X101678571Y-54740000D01*
X101678571Y-54882857D01*
X101607142Y-55025714D01*
X101535714Y-55097142D01*
X101392857Y-55168571D01*
X101107142Y-55240000D01*
X100750000Y-55240000D01*
X100464285Y-55168571D01*
X100321428Y-55097142D01*
X100250000Y-55025714D01*
X100178571Y-54882857D01*
X100678571Y-53882857D02*
X101678571Y-53525714D01*
X100678571Y-53168571D01*
D11*
X116571428Y-78157142D02*
X116571428Y-77557142D01*
X116571428Y-77642857D02*
X116614285Y-77600000D01*
X116700000Y-77557142D01*
X116828571Y-77557142D01*
X116914285Y-77600000D01*
X116957142Y-77685714D01*
X116957142Y-78157142D01*
X116957142Y-77685714D02*
X117000000Y-77600000D01*
X117085714Y-77557142D01*
X117214285Y-77557142D01*
X117300000Y-77600000D01*
X117342857Y-77685714D01*
X117342857Y-78157142D01*
X118157142Y-78157142D02*
X118157142Y-77685714D01*
X118114285Y-77600000D01*
X118028571Y-77557142D01*
X117857142Y-77557142D01*
X117771428Y-77600000D01*
X118157142Y-78114285D02*
X118071428Y-78157142D01*
X117857142Y-78157142D01*
X117771428Y-78114285D01*
X117728571Y-78028571D01*
X117728571Y-77942857D01*
X117771428Y-77857142D01*
X117857142Y-77814285D01*
X118071428Y-77814285D01*
X118157142Y-77771428D01*
X118971428Y-78157142D02*
X118971428Y-77685714D01*
X118928571Y-77600000D01*
X118842857Y-77557142D01*
X118671428Y-77557142D01*
X118585714Y-77600000D01*
X118971428Y-78114285D02*
X118885714Y-78157142D01*
X118671428Y-78157142D01*
X118585714Y-78114285D01*
X118542857Y-78028571D01*
X118542857Y-77942857D01*
X118585714Y-77857142D01*
X118671428Y-77814285D01*
X118885714Y-77814285D01*
X118971428Y-77771428D01*
X119400000Y-78157142D02*
X119400000Y-77557142D01*
X119400000Y-77642857D02*
X119442857Y-77600000D01*
X119528571Y-77557142D01*
X119657142Y-77557142D01*
X119742857Y-77600000D01*
X119785714Y-77685714D01*
X119785714Y-78157142D01*
X119785714Y-77685714D02*
X119828571Y-77600000D01*
X119914285Y-77557142D01*
X120042857Y-77557142D01*
X120128571Y-77600000D01*
X120171428Y-77685714D01*
X120171428Y-78157142D01*
X120600000Y-77814285D02*
X121285714Y-77814285D01*
X121885714Y-77257142D02*
X121971428Y-77257142D01*
X122057142Y-77300000D01*
X122100000Y-77342857D01*
X122142857Y-77428571D01*
X122185714Y-77600000D01*
X122185714Y-77814285D01*
X122142857Y-77985714D01*
X122100000Y-78071428D01*
X122057142Y-78114285D01*
X121971428Y-78157142D01*
X121885714Y-78157142D01*
X121800000Y-78114285D01*
X121757142Y-78071428D01*
X121714285Y-77985714D01*
X121671428Y-77814285D01*
X121671428Y-77600000D01*
X121714285Y-77428571D01*
X121757142Y-77342857D01*
X121800000Y-77300000D01*
X121885714Y-77257142D01*
X123042857Y-78157142D02*
X122528571Y-78157142D01*
X122785714Y-78157142D02*
X122785714Y-77257142D01*
X122700000Y-77385714D01*
X122614285Y-77471428D01*
X122528571Y-77514285D01*
X123900000Y-78157142D02*
X123385714Y-78157142D01*
X123642857Y-78157142D02*
X123642857Y-77257142D01*
X123557142Y-77385714D01*
X123471428Y-77471428D01*
X123385714Y-77514285D01*
X124757142Y-78157142D02*
X124242857Y-78157142D01*
X124500000Y-78157142D02*
X124500000Y-77257142D01*
X124414285Y-77385714D01*
X124328571Y-77471428D01*
X124242857Y-77514285D01*
X125057142Y-77257142D02*
X125614285Y-77257142D01*
X125314285Y-77600000D01*
X125442857Y-77600000D01*
X125528571Y-77642857D01*
X125571428Y-77685714D01*
X125614285Y-77771428D01*
X125614285Y-77985714D01*
X125571428Y-78071428D01*
X125528571Y-78114285D01*
X125442857Y-78157142D01*
X125185714Y-78157142D01*
X125100000Y-78114285D01*
X125057142Y-78071428D01*
X125957142Y-77342857D02*
X126000000Y-77300000D01*
X126085714Y-77257142D01*
X126300000Y-77257142D01*
X126385714Y-77300000D01*
X126428571Y-77342857D01*
X126471428Y-77428571D01*
X126471428Y-77514285D01*
X126428571Y-77642857D01*
X125914285Y-78157142D01*
X126471428Y-78157142D01*
D10*
X103678571Y-56525714D02*
X103678571Y-57240000D01*
X104392857Y-57311428D01*
X104321428Y-57240000D01*
X104250000Y-57097142D01*
X104250000Y-56740000D01*
X104321428Y-56597142D01*
X104392857Y-56525714D01*
X104535714Y-56454285D01*
X104892857Y-56454285D01*
X105035714Y-56525714D01*
X105107142Y-56597142D01*
X105178571Y-56740000D01*
X105178571Y-57097142D01*
X105107142Y-57240000D01*
X105035714Y-57311428D01*
X105035714Y-55811428D02*
X105107142Y-55740000D01*
X105178571Y-55811428D01*
X105107142Y-55882857D01*
X105035714Y-55811428D01*
X105178571Y-55811428D01*
X103678571Y-54382857D02*
X103678571Y-55097142D01*
X104392857Y-55168571D01*
X104321428Y-55097142D01*
X104250000Y-54954285D01*
X104250000Y-54597142D01*
X104321428Y-54454285D01*
X104392857Y-54382857D01*
X104535714Y-54311428D01*
X104892857Y-54311428D01*
X105035714Y-54382857D01*
X105107142Y-54454285D01*
X105178571Y-54597142D01*
X105178571Y-54954285D01*
X105107142Y-55097142D01*
X105035714Y-55168571D01*
X104178571Y-53811428D02*
X105178571Y-53454285D01*
X104178571Y-53097142D01*
D12*
X100676190Y-77388095D02*
X100714285Y-77350000D01*
X100790476Y-77311904D01*
X100980952Y-77311904D01*
X101057142Y-77350000D01*
X101095238Y-77388095D01*
X101133333Y-77464285D01*
X101133333Y-77540476D01*
X101095238Y-77654761D01*
X100638095Y-78111904D01*
X101133333Y-78111904D01*
X101628571Y-77311904D02*
X101704761Y-77311904D01*
X101780952Y-77350000D01*
X101819047Y-77388095D01*
X101857142Y-77464285D01*
X101895238Y-77616666D01*
X101895238Y-77807142D01*
X101857142Y-77959523D01*
X101819047Y-78035714D01*
X101780952Y-78073809D01*
X101704761Y-78111904D01*
X101628571Y-78111904D01*
X101552380Y-78073809D01*
X101514285Y-78035714D01*
X101476190Y-77959523D01*
X101438095Y-77807142D01*
X101438095Y-77616666D01*
X101476190Y-77464285D01*
X101514285Y-77388095D01*
X101552380Y-77350000D01*
X101628571Y-77311904D01*
X102200000Y-77388095D02*
X102238095Y-77350000D01*
X102314285Y-77311904D01*
X102504761Y-77311904D01*
X102580952Y-77350000D01*
X102619047Y-77388095D01*
X102657142Y-77464285D01*
X102657142Y-77540476D01*
X102619047Y-77654761D01*
X102161904Y-78111904D01*
X102657142Y-78111904D01*
X103419047Y-78111904D02*
X102961904Y-78111904D01*
X103190476Y-78111904D02*
X103190476Y-77311904D01*
X103114285Y-77426190D01*
X103038095Y-77502380D01*
X102961904Y-77540476D01*
X103761904Y-78035714D02*
X103800000Y-78073809D01*
X103761904Y-78111904D01*
X103723809Y-78073809D01*
X103761904Y-78035714D01*
X103761904Y-78111904D01*
X104295238Y-77311904D02*
X104371428Y-77311904D01*
X104447619Y-77350000D01*
X104485714Y-77388095D01*
X104523809Y-77464285D01*
X104561904Y-77616666D01*
X104561904Y-77807142D01*
X104523809Y-77959523D01*
X104485714Y-78035714D01*
X104447619Y-78073809D01*
X104371428Y-78111904D01*
X104295238Y-78111904D01*
X104219047Y-78073809D01*
X104180952Y-78035714D01*
X104142857Y-77959523D01*
X104104761Y-77807142D01*
X104104761Y-77616666D01*
X104142857Y-77464285D01*
X104180952Y-77388095D01*
X104219047Y-77350000D01*
X104295238Y-77311904D01*
X104828571Y-77311904D02*
X105323809Y-77311904D01*
X105057142Y-77616666D01*
X105171428Y-77616666D01*
X105247619Y-77654761D01*
X105285714Y-77692857D01*
X105323809Y-77769047D01*
X105323809Y-77959523D01*
X105285714Y-78035714D01*
X105247619Y-78073809D01*
X105171428Y-78111904D01*
X104942857Y-78111904D01*
X104866666Y-78073809D01*
X104828571Y-78035714D01*
%TO.C,J4*%
X99601667Y-76858333D02*
X100101667Y-76858333D01*
X100201667Y-76891666D01*
X100268334Y-76958333D01*
X100301667Y-77058333D01*
X100301667Y-77125000D01*
X99835001Y-76225000D02*
X100301667Y-76225000D01*
X99568334Y-76391666D02*
X100068334Y-76558333D01*
X100068334Y-76125000D01*
%TO.C,R7*%
X118633333Y-54056666D02*
X118400000Y-53723333D01*
X118233333Y-54056666D02*
X118233333Y-53356666D01*
X118500000Y-53356666D01*
X118566666Y-53390000D01*
X118600000Y-53423333D01*
X118633333Y-53490000D01*
X118633333Y-53590000D01*
X118600000Y-53656666D01*
X118566666Y-53690000D01*
X118500000Y-53723333D01*
X118233333Y-53723333D01*
X118866666Y-53356666D02*
X119333333Y-53356666D01*
X119033333Y-54056666D01*
%TO.C,D4*%
X121033333Y-74016666D02*
X121033333Y-73316666D01*
X121200000Y-73316666D01*
X121300000Y-73350000D01*
X121366666Y-73416666D01*
X121400000Y-73483333D01*
X121433333Y-73616666D01*
X121433333Y-73716666D01*
X121400000Y-73850000D01*
X121366666Y-73916666D01*
X121300000Y-73983333D01*
X121200000Y-74016666D01*
X121033333Y-74016666D01*
X122033333Y-73550000D02*
X122033333Y-74016666D01*
X121866666Y-73283333D02*
X121700000Y-73783333D01*
X122133333Y-73783333D01*
%TO.C,R9*%
X121316666Y-59866666D02*
X120983333Y-60100000D01*
X121316666Y-60266666D02*
X120616666Y-60266666D01*
X120616666Y-60000000D01*
X120650000Y-59933333D01*
X120683333Y-59900000D01*
X120750000Y-59866666D01*
X120850000Y-59866666D01*
X120916666Y-59900000D01*
X120950000Y-59933333D01*
X120983333Y-60000000D01*
X120983333Y-60266666D01*
X121316666Y-59533333D02*
X121316666Y-59400000D01*
X121283333Y-59333333D01*
X121250000Y-59300000D01*
X121150000Y-59233333D01*
X121016666Y-59200000D01*
X120750000Y-59200000D01*
X120683333Y-59233333D01*
X120650000Y-59266666D01*
X120616666Y-59333333D01*
X120616666Y-59466666D01*
X120650000Y-59533333D01*
X120683333Y-59566666D01*
X120750000Y-59600000D01*
X120916666Y-59600000D01*
X120983333Y-59566666D01*
X121016666Y-59533333D01*
X121050000Y-59466666D01*
X121050000Y-59333333D01*
X121016666Y-59266666D01*
X120983333Y-59233333D01*
X120916666Y-59200000D01*
%TO.C,R11*%
X120066666Y-59950000D02*
X119733333Y-60183333D01*
X120066666Y-60350000D02*
X119366666Y-60350000D01*
X119366666Y-60083333D01*
X119400000Y-60016666D01*
X119433333Y-59983333D01*
X119500000Y-59950000D01*
X119600000Y-59950000D01*
X119666666Y-59983333D01*
X119700000Y-60016666D01*
X119733333Y-60083333D01*
X119733333Y-60350000D01*
X120066666Y-59283333D02*
X120066666Y-59683333D01*
X120066666Y-59483333D02*
X119366666Y-59483333D01*
X119466666Y-59550000D01*
X119533333Y-59616666D01*
X119566666Y-59683333D01*
X120066666Y-58616666D02*
X120066666Y-59016666D01*
X120066666Y-58816666D02*
X119366666Y-58816666D01*
X119466666Y-58883333D01*
X119533333Y-58950000D01*
X119566666Y-59016666D01*
%TO.C,R14*%
X113066666Y-60200000D02*
X112733333Y-60433333D01*
X113066666Y-60600000D02*
X112366666Y-60600000D01*
X112366666Y-60333333D01*
X112400000Y-60266666D01*
X112433333Y-60233333D01*
X112500000Y-60200000D01*
X112600000Y-60200000D01*
X112666666Y-60233333D01*
X112700000Y-60266666D01*
X112733333Y-60333333D01*
X112733333Y-60600000D01*
X113066666Y-59533333D02*
X113066666Y-59933333D01*
X113066666Y-59733333D02*
X112366666Y-59733333D01*
X112466666Y-59800000D01*
X112533333Y-59866666D01*
X112566666Y-59933333D01*
X112600000Y-58933333D02*
X113066666Y-58933333D01*
X112333333Y-59100000D02*
X112833333Y-59266666D01*
X112833333Y-58833333D01*
%TO.C,R3*%
X117816666Y-53606666D02*
X117483333Y-53840000D01*
X117816666Y-54006666D02*
X117116666Y-54006666D01*
X117116666Y-53740000D01*
X117150000Y-53673333D01*
X117183333Y-53640000D01*
X117250000Y-53606666D01*
X117350000Y-53606666D01*
X117416666Y-53640000D01*
X117450000Y-53673333D01*
X117483333Y-53740000D01*
X117483333Y-54006666D01*
X117116666Y-53373333D02*
X117116666Y-52940000D01*
X117383333Y-53173333D01*
X117383333Y-53073333D01*
X117416666Y-53006666D01*
X117450000Y-52973333D01*
X117516666Y-52940000D01*
X117683333Y-52940000D01*
X117750000Y-52973333D01*
X117783333Y-53006666D01*
X117816666Y-53073333D01*
X117816666Y-53273333D01*
X117783333Y-53340000D01*
X117750000Y-53373333D01*
%TO.C,Q2*%
X124133333Y-49316666D02*
X124100000Y-49383333D01*
X124033333Y-49450000D01*
X123933333Y-49550000D01*
X123900000Y-49616666D01*
X123900000Y-49683333D01*
X124066666Y-49650000D02*
X124033333Y-49716666D01*
X123966666Y-49783333D01*
X123833333Y-49816666D01*
X123600000Y-49816666D01*
X123466666Y-49783333D01*
X123400000Y-49716666D01*
X123366666Y-49650000D01*
X123366666Y-49516666D01*
X123400000Y-49450000D01*
X123466666Y-49383333D01*
X123600000Y-49350000D01*
X123833333Y-49350000D01*
X123966666Y-49383333D01*
X124033333Y-49450000D01*
X124066666Y-49516666D01*
X124066666Y-49650000D01*
X123433333Y-49083333D02*
X123400000Y-49050000D01*
X123366666Y-48983333D01*
X123366666Y-48816666D01*
X123400000Y-48750000D01*
X123433333Y-48716666D01*
X123500000Y-48683333D01*
X123566666Y-48683333D01*
X123666666Y-48716666D01*
X124066666Y-49116666D01*
X124066666Y-48683333D01*
%TO.C,R16*%
X112066666Y-60200000D02*
X111733333Y-60433333D01*
X112066666Y-60600000D02*
X111366666Y-60600000D01*
X111366666Y-60333333D01*
X111400000Y-60266666D01*
X111433333Y-60233333D01*
X111500000Y-60200000D01*
X111600000Y-60200000D01*
X111666666Y-60233333D01*
X111700000Y-60266666D01*
X111733333Y-60333333D01*
X111733333Y-60600000D01*
X112066666Y-59533333D02*
X112066666Y-59933333D01*
X112066666Y-59733333D02*
X111366666Y-59733333D01*
X111466666Y-59800000D01*
X111533333Y-59866666D01*
X111566666Y-59933333D01*
X111366666Y-58933333D02*
X111366666Y-59066666D01*
X111400000Y-59133333D01*
X111433333Y-59166666D01*
X111533333Y-59233333D01*
X111666666Y-59266666D01*
X111933333Y-59266666D01*
X112000000Y-59233333D01*
X112033333Y-59200000D01*
X112066666Y-59133333D01*
X112066666Y-59000000D01*
X112033333Y-58933333D01*
X112000000Y-58900000D01*
X111933333Y-58866666D01*
X111766666Y-58866666D01*
X111700000Y-58900000D01*
X111666666Y-58933333D01*
X111633333Y-59000000D01*
X111633333Y-59133333D01*
X111666666Y-59200000D01*
X111700000Y-59233333D01*
X111766666Y-59266666D01*
%TO.C,C12*%
X119050000Y-72000000D02*
X119016666Y-72033333D01*
X118916666Y-72066666D01*
X118850000Y-72066666D01*
X118750000Y-72033333D01*
X118683333Y-71966666D01*
X118650000Y-71900000D01*
X118616666Y-71766666D01*
X118616666Y-71666666D01*
X118650000Y-71533333D01*
X118683333Y-71466666D01*
X118750000Y-71400000D01*
X118850000Y-71366666D01*
X118916666Y-71366666D01*
X119016666Y-71400000D01*
X119050000Y-71433333D01*
X119716666Y-72066666D02*
X119316666Y-72066666D01*
X119516666Y-72066666D02*
X119516666Y-71366666D01*
X119450000Y-71466666D01*
X119383333Y-71533333D01*
X119316666Y-71566666D01*
X119983333Y-71433333D02*
X120016666Y-71400000D01*
X120083333Y-71366666D01*
X120250000Y-71366666D01*
X120316666Y-71400000D01*
X120350000Y-71433333D01*
X120383333Y-71500000D01*
X120383333Y-71566666D01*
X120350000Y-71666666D01*
X119950000Y-72066666D01*
X120383333Y-72066666D01*
%TO.C,C3*%
X108633333Y-52740000D02*
X108600000Y-52773333D01*
X108500000Y-52806666D01*
X108433333Y-52806666D01*
X108333333Y-52773333D01*
X108266666Y-52706666D01*
X108233333Y-52640000D01*
X108200000Y-52506666D01*
X108200000Y-52406666D01*
X108233333Y-52273333D01*
X108266666Y-52206666D01*
X108333333Y-52140000D01*
X108433333Y-52106666D01*
X108500000Y-52106666D01*
X108600000Y-52140000D01*
X108633333Y-52173333D01*
X108866666Y-52106666D02*
X109300000Y-52106666D01*
X109066666Y-52373333D01*
X109166666Y-52373333D01*
X109233333Y-52406666D01*
X109266666Y-52440000D01*
X109300000Y-52506666D01*
X109300000Y-52673333D01*
X109266666Y-52740000D01*
X109233333Y-52773333D01*
X109166666Y-52806666D01*
X108966666Y-52806666D01*
X108900000Y-52773333D01*
X108866666Y-52740000D01*
%TO.C,C25*%
X105050000Y-60000000D02*
X105016666Y-60033333D01*
X104916666Y-60066666D01*
X104850000Y-60066666D01*
X104750000Y-60033333D01*
X104683333Y-59966666D01*
X104650000Y-59900000D01*
X104616666Y-59766666D01*
X104616666Y-59666666D01*
X104650000Y-59533333D01*
X104683333Y-59466666D01*
X104750000Y-59400000D01*
X104850000Y-59366666D01*
X104916666Y-59366666D01*
X105016666Y-59400000D01*
X105050000Y-59433333D01*
X105316666Y-59433333D02*
X105350000Y-59400000D01*
X105416666Y-59366666D01*
X105583333Y-59366666D01*
X105650000Y-59400000D01*
X105683333Y-59433333D01*
X105716666Y-59500000D01*
X105716666Y-59566666D01*
X105683333Y-59666666D01*
X105283333Y-60066666D01*
X105716666Y-60066666D01*
X106350000Y-59366666D02*
X106016666Y-59366666D01*
X105983333Y-59700000D01*
X106016666Y-59666666D01*
X106083333Y-59633333D01*
X106250000Y-59633333D01*
X106316666Y-59666666D01*
X106350000Y-59700000D01*
X106383333Y-59766666D01*
X106383333Y-59933333D01*
X106350000Y-60000000D01*
X106316666Y-60033333D01*
X106250000Y-60066666D01*
X106083333Y-60066666D01*
X106016666Y-60033333D01*
X105983333Y-60000000D01*
%TO.C,C19*%
X108050000Y-73250000D02*
X108016666Y-73283333D01*
X107916666Y-73316666D01*
X107850000Y-73316666D01*
X107750000Y-73283333D01*
X107683333Y-73216666D01*
X107650000Y-73150000D01*
X107616666Y-73016666D01*
X107616666Y-72916666D01*
X107650000Y-72783333D01*
X107683333Y-72716666D01*
X107750000Y-72650000D01*
X107850000Y-72616666D01*
X107916666Y-72616666D01*
X108016666Y-72650000D01*
X108050000Y-72683333D01*
X108716666Y-73316666D02*
X108316666Y-73316666D01*
X108516666Y-73316666D02*
X108516666Y-72616666D01*
X108450000Y-72716666D01*
X108383333Y-72783333D01*
X108316666Y-72816666D01*
X109050000Y-73316666D02*
X109183333Y-73316666D01*
X109250000Y-73283333D01*
X109283333Y-73250000D01*
X109350000Y-73150000D01*
X109383333Y-73016666D01*
X109383333Y-72750000D01*
X109350000Y-72683333D01*
X109316666Y-72650000D01*
X109250000Y-72616666D01*
X109116666Y-72616666D01*
X109050000Y-72650000D01*
X109016666Y-72683333D01*
X108983333Y-72750000D01*
X108983333Y-72916666D01*
X109016666Y-72983333D01*
X109050000Y-73016666D01*
X109116666Y-73050000D01*
X109250000Y-73050000D01*
X109316666Y-73016666D01*
X109350000Y-72983333D01*
X109383333Y-72916666D01*
%TO.C,C2*%
X112883333Y-52740000D02*
X112850000Y-52773333D01*
X112750000Y-52806666D01*
X112683333Y-52806666D01*
X112583333Y-52773333D01*
X112516666Y-52706666D01*
X112483333Y-52640000D01*
X112450000Y-52506666D01*
X112450000Y-52406666D01*
X112483333Y-52273333D01*
X112516666Y-52206666D01*
X112583333Y-52140000D01*
X112683333Y-52106666D01*
X112750000Y-52106666D01*
X112850000Y-52140000D01*
X112883333Y-52173333D01*
X113150000Y-52173333D02*
X113183333Y-52140000D01*
X113250000Y-52106666D01*
X113416666Y-52106666D01*
X113483333Y-52140000D01*
X113516666Y-52173333D01*
X113550000Y-52240000D01*
X113550000Y-52306666D01*
X113516666Y-52406666D01*
X113116666Y-52806666D01*
X113550000Y-52806666D01*
%TO.C,C15*%
X116050000Y-58000000D02*
X116016666Y-58033333D01*
X115916666Y-58066666D01*
X115850000Y-58066666D01*
X115750000Y-58033333D01*
X115683333Y-57966666D01*
X115650000Y-57900000D01*
X115616666Y-57766666D01*
X115616666Y-57666666D01*
X115650000Y-57533333D01*
X115683333Y-57466666D01*
X115750000Y-57400000D01*
X115850000Y-57366666D01*
X115916666Y-57366666D01*
X116016666Y-57400000D01*
X116050000Y-57433333D01*
X116716666Y-58066666D02*
X116316666Y-58066666D01*
X116516666Y-58066666D02*
X116516666Y-57366666D01*
X116450000Y-57466666D01*
X116383333Y-57533333D01*
X116316666Y-57566666D01*
X117350000Y-57366666D02*
X117016666Y-57366666D01*
X116983333Y-57700000D01*
X117016666Y-57666666D01*
X117083333Y-57633333D01*
X117250000Y-57633333D01*
X117316666Y-57666666D01*
X117350000Y-57700000D01*
X117383333Y-57766666D01*
X117383333Y-57933333D01*
X117350000Y-58000000D01*
X117316666Y-58033333D01*
X117250000Y-58066666D01*
X117083333Y-58066666D01*
X117016666Y-58033333D01*
X116983333Y-58000000D01*
%TO.C,C4*%
X107883333Y-57490000D02*
X107850000Y-57523333D01*
X107750000Y-57556666D01*
X107683333Y-57556666D01*
X107583333Y-57523333D01*
X107516666Y-57456666D01*
X107483333Y-57390000D01*
X107450000Y-57256666D01*
X107450000Y-57156666D01*
X107483333Y-57023333D01*
X107516666Y-56956666D01*
X107583333Y-56890000D01*
X107683333Y-56856666D01*
X107750000Y-56856666D01*
X107850000Y-56890000D01*
X107883333Y-56923333D01*
X108483333Y-57090000D02*
X108483333Y-57556666D01*
X108316666Y-56823333D02*
X108150000Y-57323333D01*
X108583333Y-57323333D01*
%TO.C,R19*%
X117316666Y-67450000D02*
X116983333Y-67683333D01*
X117316666Y-67850000D02*
X116616666Y-67850000D01*
X116616666Y-67583333D01*
X116650000Y-67516666D01*
X116683333Y-67483333D01*
X116750000Y-67450000D01*
X116850000Y-67450000D01*
X116916666Y-67483333D01*
X116950000Y-67516666D01*
X116983333Y-67583333D01*
X116983333Y-67850000D01*
X117316666Y-66783333D02*
X117316666Y-67183333D01*
X117316666Y-66983333D02*
X116616666Y-66983333D01*
X116716666Y-67050000D01*
X116783333Y-67116666D01*
X116816666Y-67183333D01*
X117316666Y-66450000D02*
X117316666Y-66316666D01*
X117283333Y-66250000D01*
X117250000Y-66216666D01*
X117150000Y-66150000D01*
X117016666Y-66116666D01*
X116750000Y-66116666D01*
X116683333Y-66150000D01*
X116650000Y-66183333D01*
X116616666Y-66250000D01*
X116616666Y-66383333D01*
X116650000Y-66450000D01*
X116683333Y-66483333D01*
X116750000Y-66516666D01*
X116916666Y-66516666D01*
X116983333Y-66483333D01*
X117016666Y-66450000D01*
X117050000Y-66383333D01*
X117050000Y-66250000D01*
X117016666Y-66183333D01*
X116983333Y-66150000D01*
X116916666Y-66116666D01*
%TO.C,J3*%
X126266666Y-75591666D02*
X126266666Y-76091666D01*
X126233333Y-76191666D01*
X126166666Y-76258333D01*
X126066666Y-76291666D01*
X126000000Y-76291666D01*
X126533333Y-75591666D02*
X126966666Y-75591666D01*
X126733333Y-75858333D01*
X126833333Y-75858333D01*
X126900000Y-75891666D01*
X126933333Y-75925000D01*
X126966666Y-75991666D01*
X126966666Y-76158333D01*
X126933333Y-76225000D01*
X126900000Y-76258333D01*
X126833333Y-76291666D01*
X126633333Y-76291666D01*
X126566666Y-76258333D01*
X126533333Y-76225000D01*
%TO.C,C18*%
X108050000Y-72250000D02*
X108016666Y-72283333D01*
X107916666Y-72316666D01*
X107850000Y-72316666D01*
X107750000Y-72283333D01*
X107683333Y-72216666D01*
X107650000Y-72150000D01*
X107616666Y-72016666D01*
X107616666Y-71916666D01*
X107650000Y-71783333D01*
X107683333Y-71716666D01*
X107750000Y-71650000D01*
X107850000Y-71616666D01*
X107916666Y-71616666D01*
X108016666Y-71650000D01*
X108050000Y-71683333D01*
X108716666Y-72316666D02*
X108316666Y-72316666D01*
X108516666Y-72316666D02*
X108516666Y-71616666D01*
X108450000Y-71716666D01*
X108383333Y-71783333D01*
X108316666Y-71816666D01*
X109116666Y-71916666D02*
X109050000Y-71883333D01*
X109016666Y-71850000D01*
X108983333Y-71783333D01*
X108983333Y-71750000D01*
X109016666Y-71683333D01*
X109050000Y-71650000D01*
X109116666Y-71616666D01*
X109250000Y-71616666D01*
X109316666Y-71650000D01*
X109350000Y-71683333D01*
X109383333Y-71750000D01*
X109383333Y-71783333D01*
X109350000Y-71850000D01*
X109316666Y-71883333D01*
X109250000Y-71916666D01*
X109116666Y-71916666D01*
X109050000Y-71950000D01*
X109016666Y-71983333D01*
X108983333Y-72050000D01*
X108983333Y-72183333D01*
X109016666Y-72250000D01*
X109050000Y-72283333D01*
X109116666Y-72316666D01*
X109250000Y-72316666D01*
X109316666Y-72283333D01*
X109350000Y-72250000D01*
X109383333Y-72183333D01*
X109383333Y-72050000D01*
X109350000Y-71983333D01*
X109316666Y-71950000D01*
X109250000Y-71916666D01*
%TO.C,TP2*%
X106116666Y-47623333D02*
X106116666Y-47223333D01*
X106816666Y-47423333D02*
X106116666Y-47423333D01*
X106816666Y-46990000D02*
X106116666Y-46990000D01*
X106116666Y-46723333D01*
X106150000Y-46656666D01*
X106183333Y-46623333D01*
X106250000Y-46590000D01*
X106350000Y-46590000D01*
X106416666Y-46623333D01*
X106450000Y-46656666D01*
X106483333Y-46723333D01*
X106483333Y-46990000D01*
X106183333Y-46323333D02*
X106150000Y-46290000D01*
X106116666Y-46223333D01*
X106116666Y-46056666D01*
X106150000Y-45990000D01*
X106183333Y-45956666D01*
X106250000Y-45923333D01*
X106316666Y-45923333D01*
X106416666Y-45956666D01*
X106816666Y-46356666D01*
X106816666Y-45923333D01*
%TO.C,C21*%
X105800000Y-72250000D02*
X105766666Y-72283333D01*
X105666666Y-72316666D01*
X105600000Y-72316666D01*
X105500000Y-72283333D01*
X105433333Y-72216666D01*
X105400000Y-72150000D01*
X105366666Y-72016666D01*
X105366666Y-71916666D01*
X105400000Y-71783333D01*
X105433333Y-71716666D01*
X105500000Y-71650000D01*
X105600000Y-71616666D01*
X105666666Y-71616666D01*
X105766666Y-71650000D01*
X105800000Y-71683333D01*
X106066666Y-71683333D02*
X106100000Y-71650000D01*
X106166666Y-71616666D01*
X106333333Y-71616666D01*
X106400000Y-71650000D01*
X106433333Y-71683333D01*
X106466666Y-71750000D01*
X106466666Y-71816666D01*
X106433333Y-71916666D01*
X106033333Y-72316666D01*
X106466666Y-72316666D01*
X107133333Y-72316666D02*
X106733333Y-72316666D01*
X106933333Y-72316666D02*
X106933333Y-71616666D01*
X106866666Y-71716666D01*
X106800000Y-71783333D01*
X106733333Y-71816666D01*
%TO.C,C14*%
X119050000Y-71000000D02*
X119016666Y-71033333D01*
X118916666Y-71066666D01*
X118850000Y-71066666D01*
X118750000Y-71033333D01*
X118683333Y-70966666D01*
X118650000Y-70900000D01*
X118616666Y-70766666D01*
X118616666Y-70666666D01*
X118650000Y-70533333D01*
X118683333Y-70466666D01*
X118750000Y-70400000D01*
X118850000Y-70366666D01*
X118916666Y-70366666D01*
X119016666Y-70400000D01*
X119050000Y-70433333D01*
X119716666Y-71066666D02*
X119316666Y-71066666D01*
X119516666Y-71066666D02*
X119516666Y-70366666D01*
X119450000Y-70466666D01*
X119383333Y-70533333D01*
X119316666Y-70566666D01*
X120316666Y-70600000D02*
X120316666Y-71066666D01*
X120150000Y-70333333D02*
X119983333Y-70833333D01*
X120416666Y-70833333D01*
%TO.C,R10*%
X113566666Y-64450000D02*
X113233333Y-64683333D01*
X113566666Y-64850000D02*
X112866666Y-64850000D01*
X112866666Y-64583333D01*
X112900000Y-64516666D01*
X112933333Y-64483333D01*
X113000000Y-64450000D01*
X113100000Y-64450000D01*
X113166666Y-64483333D01*
X113200000Y-64516666D01*
X113233333Y-64583333D01*
X113233333Y-64850000D01*
X113566666Y-63783333D02*
X113566666Y-64183333D01*
X113566666Y-63983333D02*
X112866666Y-63983333D01*
X112966666Y-64050000D01*
X113033333Y-64116666D01*
X113066666Y-64183333D01*
X112866666Y-63350000D02*
X112866666Y-63283333D01*
X112900000Y-63216666D01*
X112933333Y-63183333D01*
X113000000Y-63150000D01*
X113133333Y-63116666D01*
X113300000Y-63116666D01*
X113433333Y-63150000D01*
X113500000Y-63183333D01*
X113533333Y-63216666D01*
X113566666Y-63283333D01*
X113566666Y-63350000D01*
X113533333Y-63416666D01*
X113500000Y-63450000D01*
X113433333Y-63483333D01*
X113300000Y-63516666D01*
X113133333Y-63516666D01*
X113000000Y-63483333D01*
X112933333Y-63450000D01*
X112900000Y-63416666D01*
X112866666Y-63350000D01*
%TO.C,R1*%
X124066666Y-47616666D02*
X123733333Y-47850000D01*
X124066666Y-48016666D02*
X123366666Y-48016666D01*
X123366666Y-47750000D01*
X123400000Y-47683333D01*
X123433333Y-47650000D01*
X123500000Y-47616666D01*
X123600000Y-47616666D01*
X123666666Y-47650000D01*
X123700000Y-47683333D01*
X123733333Y-47750000D01*
X123733333Y-48016666D01*
X124066666Y-46950000D02*
X124066666Y-47350000D01*
X124066666Y-47150000D02*
X123366666Y-47150000D01*
X123466666Y-47216666D01*
X123533333Y-47283333D01*
X123566666Y-47350000D01*
%TO.C,C17*%
X118550000Y-57000000D02*
X118516666Y-57033333D01*
X118416666Y-57066666D01*
X118350000Y-57066666D01*
X118250000Y-57033333D01*
X118183333Y-56966666D01*
X118150000Y-56900000D01*
X118116666Y-56766666D01*
X118116666Y-56666666D01*
X118150000Y-56533333D01*
X118183333Y-56466666D01*
X118250000Y-56400000D01*
X118350000Y-56366666D01*
X118416666Y-56366666D01*
X118516666Y-56400000D01*
X118550000Y-56433333D01*
X119216666Y-57066666D02*
X118816666Y-57066666D01*
X119016666Y-57066666D02*
X119016666Y-56366666D01*
X118950000Y-56466666D01*
X118883333Y-56533333D01*
X118816666Y-56566666D01*
X119450000Y-56366666D02*
X119916666Y-56366666D01*
X119616666Y-57066666D01*
%TO.C,R20*%
X118316666Y-67450000D02*
X117983333Y-67683333D01*
X118316666Y-67850000D02*
X117616666Y-67850000D01*
X117616666Y-67583333D01*
X117650000Y-67516666D01*
X117683333Y-67483333D01*
X117750000Y-67450000D01*
X117850000Y-67450000D01*
X117916666Y-67483333D01*
X117950000Y-67516666D01*
X117983333Y-67583333D01*
X117983333Y-67850000D01*
X117683333Y-67183333D02*
X117650000Y-67150000D01*
X117616666Y-67083333D01*
X117616666Y-66916666D01*
X117650000Y-66850000D01*
X117683333Y-66816666D01*
X117750000Y-66783333D01*
X117816666Y-66783333D01*
X117916666Y-66816666D01*
X118316666Y-67216666D01*
X118316666Y-66783333D01*
X117616666Y-66350000D02*
X117616666Y-66283333D01*
X117650000Y-66216666D01*
X117683333Y-66183333D01*
X117750000Y-66150000D01*
X117883333Y-66116666D01*
X118050000Y-66116666D01*
X118183333Y-66150000D01*
X118250000Y-66183333D01*
X118283333Y-66216666D01*
X118316666Y-66283333D01*
X118316666Y-66350000D01*
X118283333Y-66416666D01*
X118250000Y-66450000D01*
X118183333Y-66483333D01*
X118050000Y-66516666D01*
X117883333Y-66516666D01*
X117750000Y-66483333D01*
X117683333Y-66450000D01*
X117650000Y-66416666D01*
X117616666Y-66350000D01*
%TO.C,U4*%
X113966666Y-61616666D02*
X113966666Y-62183333D01*
X114000000Y-62250000D01*
X114033333Y-62283333D01*
X114100000Y-62316666D01*
X114233333Y-62316666D01*
X114300000Y-62283333D01*
X114333333Y-62250000D01*
X114366666Y-62183333D01*
X114366666Y-61616666D01*
X115000000Y-61850000D02*
X115000000Y-62316666D01*
X114833333Y-61583333D02*
X114666666Y-62083333D01*
X115100000Y-62083333D01*
%TO.C,C1*%
X107320000Y-55356666D02*
X107353333Y-55390000D01*
X107386666Y-55490000D01*
X107386666Y-55556666D01*
X107353333Y-55656666D01*
X107286666Y-55723333D01*
X107220000Y-55756666D01*
X107086666Y-55790000D01*
X106986666Y-55790000D01*
X106853333Y-55756666D01*
X106786666Y-55723333D01*
X106720000Y-55656666D01*
X106686666Y-55556666D01*
X106686666Y-55490000D01*
X106720000Y-55390000D01*
X106753333Y-55356666D01*
X107386666Y-54690000D02*
X107386666Y-55090000D01*
X107386666Y-54890000D02*
X106686666Y-54890000D01*
X106786666Y-54956666D01*
X106853333Y-55023333D01*
X106886666Y-55090000D01*
%TO.C,R12*%
X119316666Y-67425000D02*
X118983333Y-67658333D01*
X119316666Y-67825000D02*
X118616666Y-67825000D01*
X118616666Y-67558333D01*
X118650000Y-67491666D01*
X118683333Y-67458333D01*
X118750000Y-67425000D01*
X118850000Y-67425000D01*
X118916666Y-67458333D01*
X118950000Y-67491666D01*
X118983333Y-67558333D01*
X118983333Y-67825000D01*
X119316666Y-66758333D02*
X119316666Y-67158333D01*
X119316666Y-66958333D02*
X118616666Y-66958333D01*
X118716666Y-67025000D01*
X118783333Y-67091666D01*
X118816666Y-67158333D01*
X118683333Y-66491666D02*
X118650000Y-66458333D01*
X118616666Y-66391666D01*
X118616666Y-66225000D01*
X118650000Y-66158333D01*
X118683333Y-66125000D01*
X118750000Y-66091666D01*
X118816666Y-66091666D01*
X118916666Y-66125000D01*
X119316666Y-66525000D01*
X119316666Y-66091666D01*
%TO.C,C13*%
X116050000Y-57000000D02*
X116016666Y-57033333D01*
X115916666Y-57066666D01*
X115850000Y-57066666D01*
X115750000Y-57033333D01*
X115683333Y-56966666D01*
X115650000Y-56900000D01*
X115616666Y-56766666D01*
X115616666Y-56666666D01*
X115650000Y-56533333D01*
X115683333Y-56466666D01*
X115750000Y-56400000D01*
X115850000Y-56366666D01*
X115916666Y-56366666D01*
X116016666Y-56400000D01*
X116050000Y-56433333D01*
X116716666Y-57066666D02*
X116316666Y-57066666D01*
X116516666Y-57066666D02*
X116516666Y-56366666D01*
X116450000Y-56466666D01*
X116383333Y-56533333D01*
X116316666Y-56566666D01*
X116950000Y-56366666D02*
X117383333Y-56366666D01*
X117150000Y-56633333D01*
X117250000Y-56633333D01*
X117316666Y-56666666D01*
X117350000Y-56700000D01*
X117383333Y-56766666D01*
X117383333Y-56933333D01*
X117350000Y-57000000D01*
X117316666Y-57033333D01*
X117250000Y-57066666D01*
X117050000Y-57066666D01*
X116983333Y-57033333D01*
X116950000Y-57000000D01*
%TO.C,R15*%
X107066666Y-67950000D02*
X106733333Y-68183333D01*
X107066666Y-68350000D02*
X106366666Y-68350000D01*
X106366666Y-68083333D01*
X106400000Y-68016666D01*
X106433333Y-67983333D01*
X106500000Y-67950000D01*
X106600000Y-67950000D01*
X106666666Y-67983333D01*
X106700000Y-68016666D01*
X106733333Y-68083333D01*
X106733333Y-68350000D01*
X107066666Y-67283333D02*
X107066666Y-67683333D01*
X107066666Y-67483333D02*
X106366666Y-67483333D01*
X106466666Y-67550000D01*
X106533333Y-67616666D01*
X106566666Y-67683333D01*
X106366666Y-66650000D02*
X106366666Y-66983333D01*
X106700000Y-67016666D01*
X106666666Y-66983333D01*
X106633333Y-66916666D01*
X106633333Y-66750000D01*
X106666666Y-66683333D01*
X106700000Y-66650000D01*
X106766666Y-66616666D01*
X106933333Y-66616666D01*
X107000000Y-66650000D01*
X107033333Y-66683333D01*
X107066666Y-66750000D01*
X107066666Y-66916666D01*
X107033333Y-66983333D01*
X107000000Y-67016666D01*
%TO.C,C7*%
X120133333Y-51990000D02*
X120100000Y-52023333D01*
X120000000Y-52056666D01*
X119933333Y-52056666D01*
X119833333Y-52023333D01*
X119766666Y-51956666D01*
X119733333Y-51890000D01*
X119700000Y-51756666D01*
X119700000Y-51656666D01*
X119733333Y-51523333D01*
X119766666Y-51456666D01*
X119833333Y-51390000D01*
X119933333Y-51356666D01*
X120000000Y-51356666D01*
X120100000Y-51390000D01*
X120133333Y-51423333D01*
X120366666Y-51356666D02*
X120833333Y-51356666D01*
X120533333Y-52056666D01*
%TO.C,Q1*%
X108883333Y-51056666D02*
X108850000Y-51123333D01*
X108783333Y-51190000D01*
X108683333Y-51290000D01*
X108650000Y-51356666D01*
X108650000Y-51423333D01*
X108816666Y-51390000D02*
X108783333Y-51456666D01*
X108716666Y-51523333D01*
X108583333Y-51556666D01*
X108350000Y-51556666D01*
X108216666Y-51523333D01*
X108150000Y-51456666D01*
X108116666Y-51390000D01*
X108116666Y-51256666D01*
X108150000Y-51190000D01*
X108216666Y-51123333D01*
X108350000Y-51090000D01*
X108583333Y-51090000D01*
X108716666Y-51123333D01*
X108783333Y-51190000D01*
X108816666Y-51256666D01*
X108816666Y-51390000D01*
X108816666Y-50423333D02*
X108816666Y-50823333D01*
X108816666Y-50623333D02*
X108116666Y-50623333D01*
X108216666Y-50690000D01*
X108283333Y-50756666D01*
X108316666Y-50823333D01*
%TO.C,R21*%
X108566666Y-67950000D02*
X108233333Y-68183333D01*
X108566666Y-68350000D02*
X107866666Y-68350000D01*
X107866666Y-68083333D01*
X107900000Y-68016666D01*
X107933333Y-67983333D01*
X108000000Y-67950000D01*
X108100000Y-67950000D01*
X108166666Y-67983333D01*
X108200000Y-68016666D01*
X108233333Y-68083333D01*
X108233333Y-68350000D01*
X107933333Y-67683333D02*
X107900000Y-67650000D01*
X107866666Y-67583333D01*
X107866666Y-67416666D01*
X107900000Y-67350000D01*
X107933333Y-67316666D01*
X108000000Y-67283333D01*
X108066666Y-67283333D01*
X108166666Y-67316666D01*
X108566666Y-67716666D01*
X108566666Y-67283333D01*
X108566666Y-66616666D02*
X108566666Y-67016666D01*
X108566666Y-66816666D02*
X107866666Y-66816666D01*
X107966666Y-66883333D01*
X108033333Y-66950000D01*
X108066666Y-67016666D01*
%TO.C,C6*%
X118633333Y-52740000D02*
X118600000Y-52773333D01*
X118500000Y-52806666D01*
X118433333Y-52806666D01*
X118333333Y-52773333D01*
X118266666Y-52706666D01*
X118233333Y-52640000D01*
X118200000Y-52506666D01*
X118200000Y-52406666D01*
X118233333Y-52273333D01*
X118266666Y-52206666D01*
X118333333Y-52140000D01*
X118433333Y-52106666D01*
X118500000Y-52106666D01*
X118600000Y-52140000D01*
X118633333Y-52173333D01*
X119233333Y-52106666D02*
X119100000Y-52106666D01*
X119033333Y-52140000D01*
X119000000Y-52173333D01*
X118933333Y-52273333D01*
X118900000Y-52406666D01*
X118900000Y-52673333D01*
X118933333Y-52740000D01*
X118966666Y-52773333D01*
X119033333Y-52806666D01*
X119166666Y-52806666D01*
X119233333Y-52773333D01*
X119266666Y-52740000D01*
X119300000Y-52673333D01*
X119300000Y-52506666D01*
X119266666Y-52440000D01*
X119233333Y-52406666D01*
X119166666Y-52373333D01*
X119033333Y-52373333D01*
X118966666Y-52406666D01*
X118933333Y-52440000D01*
X118900000Y-52506666D01*
%TO.C,D5*%
X105983333Y-77316666D02*
X105983333Y-76616666D01*
X106150000Y-76616666D01*
X106250000Y-76650000D01*
X106316666Y-76716666D01*
X106350000Y-76783333D01*
X106383333Y-76916666D01*
X106383333Y-77016666D01*
X106350000Y-77150000D01*
X106316666Y-77216666D01*
X106250000Y-77283333D01*
X106150000Y-77316666D01*
X105983333Y-77316666D01*
X107016666Y-76616666D02*
X106683333Y-76616666D01*
X106650000Y-76950000D01*
X106683333Y-76916666D01*
X106750000Y-76883333D01*
X106916666Y-76883333D01*
X106983333Y-76916666D01*
X107016666Y-76950000D01*
X107050000Y-77016666D01*
X107050000Y-77183333D01*
X107016666Y-77250000D01*
X106983333Y-77283333D01*
X106916666Y-77316666D01*
X106750000Y-77316666D01*
X106683333Y-77283333D01*
X106650000Y-77250000D01*
%TO.C,R18*%
X111550000Y-66316666D02*
X111316666Y-65983333D01*
X111150000Y-66316666D02*
X111150000Y-65616666D01*
X111416666Y-65616666D01*
X111483333Y-65650000D01*
X111516666Y-65683333D01*
X111550000Y-65750000D01*
X111550000Y-65850000D01*
X111516666Y-65916666D01*
X111483333Y-65950000D01*
X111416666Y-65983333D01*
X111150000Y-65983333D01*
X112216666Y-66316666D02*
X111816666Y-66316666D01*
X112016666Y-66316666D02*
X112016666Y-65616666D01*
X111950000Y-65716666D01*
X111883333Y-65783333D01*
X111816666Y-65816666D01*
X112616666Y-65916666D02*
X112550000Y-65883333D01*
X112516666Y-65850000D01*
X112483333Y-65783333D01*
X112483333Y-65750000D01*
X112516666Y-65683333D01*
X112550000Y-65650000D01*
X112616666Y-65616666D01*
X112750000Y-65616666D01*
X112816666Y-65650000D01*
X112850000Y-65683333D01*
X112883333Y-65750000D01*
X112883333Y-65783333D01*
X112850000Y-65850000D01*
X112816666Y-65883333D01*
X112750000Y-65916666D01*
X112616666Y-65916666D01*
X112550000Y-65950000D01*
X112516666Y-65983333D01*
X112483333Y-66050000D01*
X112483333Y-66183333D01*
X112516666Y-66250000D01*
X112550000Y-66283333D01*
X112616666Y-66316666D01*
X112750000Y-66316666D01*
X112816666Y-66283333D01*
X112850000Y-66250000D01*
X112883333Y-66183333D01*
X112883333Y-66050000D01*
X112850000Y-65983333D01*
X112816666Y-65950000D01*
X112750000Y-65916666D01*
%TO.C,C16*%
X118550000Y-58000000D02*
X118516666Y-58033333D01*
X118416666Y-58066666D01*
X118350000Y-58066666D01*
X118250000Y-58033333D01*
X118183333Y-57966666D01*
X118150000Y-57900000D01*
X118116666Y-57766666D01*
X118116666Y-57666666D01*
X118150000Y-57533333D01*
X118183333Y-57466666D01*
X118250000Y-57400000D01*
X118350000Y-57366666D01*
X118416666Y-57366666D01*
X118516666Y-57400000D01*
X118550000Y-57433333D01*
X119216666Y-58066666D02*
X118816666Y-58066666D01*
X119016666Y-58066666D02*
X119016666Y-57366666D01*
X118950000Y-57466666D01*
X118883333Y-57533333D01*
X118816666Y-57566666D01*
X119816666Y-57366666D02*
X119683333Y-57366666D01*
X119616666Y-57400000D01*
X119583333Y-57433333D01*
X119516666Y-57533333D01*
X119483333Y-57666666D01*
X119483333Y-57933333D01*
X119516666Y-58000000D01*
X119550000Y-58033333D01*
X119616666Y-58066666D01*
X119750000Y-58066666D01*
X119816666Y-58033333D01*
X119850000Y-58000000D01*
X119883333Y-57933333D01*
X119883333Y-57766666D01*
X119850000Y-57700000D01*
X119816666Y-57666666D01*
X119750000Y-57633333D01*
X119616666Y-57633333D01*
X119550000Y-57666666D01*
X119516666Y-57700000D01*
X119483333Y-57766666D01*
%TO.C,R8*%
X123133333Y-51066666D02*
X122900000Y-50733333D01*
X122733333Y-51066666D02*
X122733333Y-50366666D01*
X123000000Y-50366666D01*
X123066666Y-50400000D01*
X123100000Y-50433333D01*
X123133333Y-50500000D01*
X123133333Y-50600000D01*
X123100000Y-50666666D01*
X123066666Y-50700000D01*
X123000000Y-50733333D01*
X122733333Y-50733333D01*
X123533333Y-50666666D02*
X123466666Y-50633333D01*
X123433333Y-50600000D01*
X123400000Y-50533333D01*
X123400000Y-50500000D01*
X123433333Y-50433333D01*
X123466666Y-50400000D01*
X123533333Y-50366666D01*
X123666666Y-50366666D01*
X123733333Y-50400000D01*
X123766666Y-50433333D01*
X123800000Y-50500000D01*
X123800000Y-50533333D01*
X123766666Y-50600000D01*
X123733333Y-50633333D01*
X123666666Y-50666666D01*
X123533333Y-50666666D01*
X123466666Y-50700000D01*
X123433333Y-50733333D01*
X123400000Y-50800000D01*
X123400000Y-50933333D01*
X123433333Y-51000000D01*
X123466666Y-51033333D01*
X123533333Y-51066666D01*
X123666666Y-51066666D01*
X123733333Y-51033333D01*
X123766666Y-51000000D01*
X123800000Y-50933333D01*
X123800000Y-50800000D01*
X123766666Y-50733333D01*
X123733333Y-50700000D01*
X123666666Y-50666666D01*
%TO.C,C5*%
X121133333Y-48490000D02*
X121100000Y-48523333D01*
X121000000Y-48556666D01*
X120933333Y-48556666D01*
X120833333Y-48523333D01*
X120766666Y-48456666D01*
X120733333Y-48390000D01*
X120700000Y-48256666D01*
X120700000Y-48156666D01*
X120733333Y-48023333D01*
X120766666Y-47956666D01*
X120833333Y-47890000D01*
X120933333Y-47856666D01*
X121000000Y-47856666D01*
X121100000Y-47890000D01*
X121133333Y-47923333D01*
X121766666Y-47856666D02*
X121433333Y-47856666D01*
X121400000Y-48190000D01*
X121433333Y-48156666D01*
X121500000Y-48123333D01*
X121666666Y-48123333D01*
X121733333Y-48156666D01*
X121766666Y-48190000D01*
X121800000Y-48256666D01*
X121800000Y-48423333D01*
X121766666Y-48490000D01*
X121733333Y-48523333D01*
X121666666Y-48556666D01*
X121500000Y-48556666D01*
X121433333Y-48523333D01*
X121400000Y-48490000D01*
%TO.C,C24*%
X102800000Y-60000000D02*
X102766666Y-60033333D01*
X102666666Y-60066666D01*
X102600000Y-60066666D01*
X102500000Y-60033333D01*
X102433333Y-59966666D01*
X102400000Y-59900000D01*
X102366666Y-59766666D01*
X102366666Y-59666666D01*
X102400000Y-59533333D01*
X102433333Y-59466666D01*
X102500000Y-59400000D01*
X102600000Y-59366666D01*
X102666666Y-59366666D01*
X102766666Y-59400000D01*
X102800000Y-59433333D01*
X103066666Y-59433333D02*
X103100000Y-59400000D01*
X103166666Y-59366666D01*
X103333333Y-59366666D01*
X103400000Y-59400000D01*
X103433333Y-59433333D01*
X103466666Y-59500000D01*
X103466666Y-59566666D01*
X103433333Y-59666666D01*
X103033333Y-60066666D01*
X103466666Y-60066666D01*
X104066666Y-59600000D02*
X104066666Y-60066666D01*
X103900000Y-59333333D02*
X103733333Y-59833333D01*
X104166666Y-59833333D01*
%TO.C,U5*%
X106616666Y-61783333D02*
X107183333Y-61783333D01*
X107250000Y-61750000D01*
X107283333Y-61716666D01*
X107316666Y-61650000D01*
X107316666Y-61516666D01*
X107283333Y-61450000D01*
X107250000Y-61416666D01*
X107183333Y-61383333D01*
X106616666Y-61383333D01*
X106616666Y-60716666D02*
X106616666Y-61050000D01*
X106950000Y-61083333D01*
X106916666Y-61050000D01*
X106883333Y-60983333D01*
X106883333Y-60816666D01*
X106916666Y-60750000D01*
X106950000Y-60716666D01*
X107016666Y-60683333D01*
X107183333Y-60683333D01*
X107250000Y-60716666D01*
X107283333Y-60750000D01*
X107316666Y-60816666D01*
X107316666Y-60983333D01*
X107283333Y-61050000D01*
X107250000Y-61083333D01*
%TO.C,C9*%
X116883333Y-71000000D02*
X116850000Y-71033333D01*
X116750000Y-71066666D01*
X116683333Y-71066666D01*
X116583333Y-71033333D01*
X116516666Y-70966666D01*
X116483333Y-70900000D01*
X116450000Y-70766666D01*
X116450000Y-70666666D01*
X116483333Y-70533333D01*
X116516666Y-70466666D01*
X116583333Y-70400000D01*
X116683333Y-70366666D01*
X116750000Y-70366666D01*
X116850000Y-70400000D01*
X116883333Y-70433333D01*
X117216666Y-71066666D02*
X117350000Y-71066666D01*
X117416666Y-71033333D01*
X117450000Y-71000000D01*
X117516666Y-70900000D01*
X117550000Y-70766666D01*
X117550000Y-70500000D01*
X117516666Y-70433333D01*
X117483333Y-70400000D01*
X117416666Y-70366666D01*
X117283333Y-70366666D01*
X117216666Y-70400000D01*
X117183333Y-70433333D01*
X117150000Y-70500000D01*
X117150000Y-70666666D01*
X117183333Y-70733333D01*
X117216666Y-70766666D01*
X117283333Y-70800000D01*
X117416666Y-70800000D01*
X117483333Y-70766666D01*
X117516666Y-70733333D01*
X117550000Y-70666666D01*
%TO.C,C10*%
X116800000Y-72000000D02*
X116766666Y-72033333D01*
X116666666Y-72066666D01*
X116600000Y-72066666D01*
X116500000Y-72033333D01*
X116433333Y-71966666D01*
X116400000Y-71900000D01*
X116366666Y-71766666D01*
X116366666Y-71666666D01*
X116400000Y-71533333D01*
X116433333Y-71466666D01*
X116500000Y-71400000D01*
X116600000Y-71366666D01*
X116666666Y-71366666D01*
X116766666Y-71400000D01*
X116800000Y-71433333D01*
X117466666Y-72066666D02*
X117066666Y-72066666D01*
X117266666Y-72066666D02*
X117266666Y-71366666D01*
X117200000Y-71466666D01*
X117133333Y-71533333D01*
X117066666Y-71566666D01*
X117900000Y-71366666D02*
X117966666Y-71366666D01*
X118033333Y-71400000D01*
X118066666Y-71433333D01*
X118100000Y-71500000D01*
X118133333Y-71633333D01*
X118133333Y-71800000D01*
X118100000Y-71933333D01*
X118066666Y-72000000D01*
X118033333Y-72033333D01*
X117966666Y-72066666D01*
X117900000Y-72066666D01*
X117833333Y-72033333D01*
X117800000Y-72000000D01*
X117766666Y-71933333D01*
X117733333Y-71800000D01*
X117733333Y-71633333D01*
X117766666Y-71500000D01*
X117800000Y-71433333D01*
X117833333Y-71400000D01*
X117900000Y-71366666D01*
%TO.C,R17*%
X111016666Y-67950000D02*
X110683333Y-68183333D01*
X111016666Y-68350000D02*
X110316666Y-68350000D01*
X110316666Y-68083333D01*
X110350000Y-68016666D01*
X110383333Y-67983333D01*
X110450000Y-67950000D01*
X110550000Y-67950000D01*
X110616666Y-67983333D01*
X110650000Y-68016666D01*
X110683333Y-68083333D01*
X110683333Y-68350000D01*
X111016666Y-67283333D02*
X111016666Y-67683333D01*
X111016666Y-67483333D02*
X110316666Y-67483333D01*
X110416666Y-67550000D01*
X110483333Y-67616666D01*
X110516666Y-67683333D01*
X110316666Y-67050000D02*
X110316666Y-66583333D01*
X111016666Y-66883333D01*
%TO.C,TP1*%
X114116666Y-47373333D02*
X114116666Y-46973333D01*
X114816666Y-47173333D02*
X114116666Y-47173333D01*
X114816666Y-46740000D02*
X114116666Y-46740000D01*
X114116666Y-46473333D01*
X114150000Y-46406666D01*
X114183333Y-46373333D01*
X114250000Y-46340000D01*
X114350000Y-46340000D01*
X114416666Y-46373333D01*
X114450000Y-46406666D01*
X114483333Y-46473333D01*
X114483333Y-46740000D01*
X114816666Y-45673333D02*
X114816666Y-46073333D01*
X114816666Y-45873333D02*
X114116666Y-45873333D01*
X114216666Y-45940000D01*
X114283333Y-46006666D01*
X114316666Y-46073333D01*
%TO.C,C26*%
X105050000Y-59000000D02*
X105016666Y-59033333D01*
X104916666Y-59066666D01*
X104850000Y-59066666D01*
X104750000Y-59033333D01*
X104683333Y-58966666D01*
X104650000Y-58900000D01*
X104616666Y-58766666D01*
X104616666Y-58666666D01*
X104650000Y-58533333D01*
X104683333Y-58466666D01*
X104750000Y-58400000D01*
X104850000Y-58366666D01*
X104916666Y-58366666D01*
X105016666Y-58400000D01*
X105050000Y-58433333D01*
X105316666Y-58433333D02*
X105350000Y-58400000D01*
X105416666Y-58366666D01*
X105583333Y-58366666D01*
X105650000Y-58400000D01*
X105683333Y-58433333D01*
X105716666Y-58500000D01*
X105716666Y-58566666D01*
X105683333Y-58666666D01*
X105283333Y-59066666D01*
X105716666Y-59066666D01*
X106316666Y-58366666D02*
X106183333Y-58366666D01*
X106116666Y-58400000D01*
X106083333Y-58433333D01*
X106016666Y-58533333D01*
X105983333Y-58666666D01*
X105983333Y-58933333D01*
X106016666Y-59000000D01*
X106050000Y-59033333D01*
X106116666Y-59066666D01*
X106250000Y-59066666D01*
X106316666Y-59033333D01*
X106350000Y-59000000D01*
X106383333Y-58933333D01*
X106383333Y-58766666D01*
X106350000Y-58700000D01*
X106316666Y-58666666D01*
X106250000Y-58633333D01*
X106116666Y-58633333D01*
X106050000Y-58666666D01*
X106016666Y-58700000D01*
X105983333Y-58766666D01*
%TO.C,R22*%
X109816666Y-67950000D02*
X109483333Y-68183333D01*
X109816666Y-68350000D02*
X109116666Y-68350000D01*
X109116666Y-68083333D01*
X109150000Y-68016666D01*
X109183333Y-67983333D01*
X109250000Y-67950000D01*
X109350000Y-67950000D01*
X109416666Y-67983333D01*
X109450000Y-68016666D01*
X109483333Y-68083333D01*
X109483333Y-68350000D01*
X109183333Y-67683333D02*
X109150000Y-67650000D01*
X109116666Y-67583333D01*
X109116666Y-67416666D01*
X109150000Y-67350000D01*
X109183333Y-67316666D01*
X109250000Y-67283333D01*
X109316666Y-67283333D01*
X109416666Y-67316666D01*
X109816666Y-67716666D01*
X109816666Y-67283333D01*
X109183333Y-67016666D02*
X109150000Y-66983333D01*
X109116666Y-66916666D01*
X109116666Y-66750000D01*
X109150000Y-66683333D01*
X109183333Y-66650000D01*
X109250000Y-66616666D01*
X109316666Y-66616666D01*
X109416666Y-66650000D01*
X109816666Y-67050000D01*
X109816666Y-66616666D01*
%TO.C,C22*%
X102800000Y-59000000D02*
X102766666Y-59033333D01*
X102666666Y-59066666D01*
X102600000Y-59066666D01*
X102500000Y-59033333D01*
X102433333Y-58966666D01*
X102400000Y-58900000D01*
X102366666Y-58766666D01*
X102366666Y-58666666D01*
X102400000Y-58533333D01*
X102433333Y-58466666D01*
X102500000Y-58400000D01*
X102600000Y-58366666D01*
X102666666Y-58366666D01*
X102766666Y-58400000D01*
X102800000Y-58433333D01*
X103066666Y-58433333D02*
X103100000Y-58400000D01*
X103166666Y-58366666D01*
X103333333Y-58366666D01*
X103400000Y-58400000D01*
X103433333Y-58433333D01*
X103466666Y-58500000D01*
X103466666Y-58566666D01*
X103433333Y-58666666D01*
X103033333Y-59066666D01*
X103466666Y-59066666D01*
X103733333Y-58433333D02*
X103766666Y-58400000D01*
X103833333Y-58366666D01*
X104000000Y-58366666D01*
X104066666Y-58400000D01*
X104100000Y-58433333D01*
X104133333Y-58500000D01*
X104133333Y-58566666D01*
X104100000Y-58666666D01*
X103700000Y-59066666D01*
X104133333Y-59066666D01*
%TO.C,C20*%
X111550000Y-77500000D02*
X111516666Y-77533333D01*
X111416666Y-77566666D01*
X111350000Y-77566666D01*
X111250000Y-77533333D01*
X111183333Y-77466666D01*
X111150000Y-77400000D01*
X111116666Y-77266666D01*
X111116666Y-77166666D01*
X111150000Y-77033333D01*
X111183333Y-76966666D01*
X111250000Y-76900000D01*
X111350000Y-76866666D01*
X111416666Y-76866666D01*
X111516666Y-76900000D01*
X111550000Y-76933333D01*
X111816666Y-76933333D02*
X111850000Y-76900000D01*
X111916666Y-76866666D01*
X112083333Y-76866666D01*
X112150000Y-76900000D01*
X112183333Y-76933333D01*
X112216666Y-77000000D01*
X112216666Y-77066666D01*
X112183333Y-77166666D01*
X111783333Y-77566666D01*
X112216666Y-77566666D01*
X112650000Y-76866666D02*
X112716666Y-76866666D01*
X112783333Y-76900000D01*
X112816666Y-76933333D01*
X112850000Y-77000000D01*
X112883333Y-77133333D01*
X112883333Y-77300000D01*
X112850000Y-77433333D01*
X112816666Y-77500000D01*
X112783333Y-77533333D01*
X112716666Y-77566666D01*
X112650000Y-77566666D01*
X112583333Y-77533333D01*
X112550000Y-77500000D01*
X112516666Y-77433333D01*
X112483333Y-77300000D01*
X112483333Y-77133333D01*
X112516666Y-77000000D01*
X112550000Y-76933333D01*
X112583333Y-76900000D01*
X112650000Y-76866666D01*
%TO.C,R13*%
X120566666Y-67450000D02*
X120233333Y-67683333D01*
X120566666Y-67850000D02*
X119866666Y-67850000D01*
X119866666Y-67583333D01*
X119900000Y-67516666D01*
X119933333Y-67483333D01*
X120000000Y-67450000D01*
X120100000Y-67450000D01*
X120166666Y-67483333D01*
X120200000Y-67516666D01*
X120233333Y-67583333D01*
X120233333Y-67850000D01*
X120566666Y-66783333D02*
X120566666Y-67183333D01*
X120566666Y-66983333D02*
X119866666Y-66983333D01*
X119966666Y-67050000D01*
X120033333Y-67116666D01*
X120066666Y-67183333D01*
X119866666Y-66550000D02*
X119866666Y-66116666D01*
X120133333Y-66350000D01*
X120133333Y-66250000D01*
X120166666Y-66183333D01*
X120200000Y-66150000D01*
X120266666Y-66116666D01*
X120433333Y-66116666D01*
X120500000Y-66150000D01*
X120533333Y-66183333D01*
X120566666Y-66250000D01*
X120566666Y-66450000D01*
X120533333Y-66516666D01*
X120500000Y-66550000D01*
%TO.C,C11*%
X114800000Y-77500000D02*
X114766666Y-77533333D01*
X114666666Y-77566666D01*
X114600000Y-77566666D01*
X114500000Y-77533333D01*
X114433333Y-77466666D01*
X114400000Y-77400000D01*
X114366666Y-77266666D01*
X114366666Y-77166666D01*
X114400000Y-77033333D01*
X114433333Y-76966666D01*
X114500000Y-76900000D01*
X114600000Y-76866666D01*
X114666666Y-76866666D01*
X114766666Y-76900000D01*
X114800000Y-76933333D01*
X115466666Y-77566666D02*
X115066666Y-77566666D01*
X115266666Y-77566666D02*
X115266666Y-76866666D01*
X115200000Y-76966666D01*
X115133333Y-77033333D01*
X115066666Y-77066666D01*
X116133333Y-77566666D02*
X115733333Y-77566666D01*
X115933333Y-77566666D02*
X115933333Y-76866666D01*
X115866666Y-76966666D01*
X115800000Y-77033333D01*
X115733333Y-77066666D01*
%TO.C,R2*%
X116816666Y-53606666D02*
X116483333Y-53840000D01*
X116816666Y-54006666D02*
X116116666Y-54006666D01*
X116116666Y-53740000D01*
X116150000Y-53673333D01*
X116183333Y-53640000D01*
X116250000Y-53606666D01*
X116350000Y-53606666D01*
X116416666Y-53640000D01*
X116450000Y-53673333D01*
X116483333Y-53740000D01*
X116483333Y-54006666D01*
X116183333Y-53340000D02*
X116150000Y-53306666D01*
X116116666Y-53240000D01*
X116116666Y-53073333D01*
X116150000Y-53006666D01*
X116183333Y-52973333D01*
X116250000Y-52940000D01*
X116316666Y-52940000D01*
X116416666Y-52973333D01*
X116816666Y-53373333D01*
X116816666Y-52940000D01*
%TO.C,D6*%
X107733333Y-74316666D02*
X107733333Y-73616666D01*
X107900000Y-73616666D01*
X108000000Y-73650000D01*
X108066666Y-73716666D01*
X108100000Y-73783333D01*
X108133333Y-73916666D01*
X108133333Y-74016666D01*
X108100000Y-74150000D01*
X108066666Y-74216666D01*
X108000000Y-74283333D01*
X107900000Y-74316666D01*
X107733333Y-74316666D01*
X108733333Y-73616666D02*
X108600000Y-73616666D01*
X108533333Y-73650000D01*
X108500000Y-73683333D01*
X108433333Y-73783333D01*
X108400000Y-73916666D01*
X108400000Y-74183333D01*
X108433333Y-74250000D01*
X108466666Y-74283333D01*
X108533333Y-74316666D01*
X108666666Y-74316666D01*
X108733333Y-74283333D01*
X108766666Y-74250000D01*
X108800000Y-74183333D01*
X108800000Y-74016666D01*
X108766666Y-73950000D01*
X108733333Y-73916666D01*
X108666666Y-73883333D01*
X108533333Y-73883333D01*
X108466666Y-73916666D01*
X108433333Y-73950000D01*
X108400000Y-74016666D01*
%TO.C,R6*%
X115633333Y-56066666D02*
X115400000Y-55733333D01*
X115233333Y-56066666D02*
X115233333Y-55366666D01*
X115500000Y-55366666D01*
X115566666Y-55400000D01*
X115600000Y-55433333D01*
X115633333Y-55500000D01*
X115633333Y-55600000D01*
X115600000Y-55666666D01*
X115566666Y-55700000D01*
X115500000Y-55733333D01*
X115233333Y-55733333D01*
X116233333Y-55366666D02*
X116100000Y-55366666D01*
X116033333Y-55400000D01*
X116000000Y-55433333D01*
X115933333Y-55533333D01*
X115900000Y-55666666D01*
X115900000Y-55933333D01*
X115933333Y-56000000D01*
X115966666Y-56033333D01*
X116033333Y-56066666D01*
X116166666Y-56066666D01*
X116233333Y-56033333D01*
X116266666Y-56000000D01*
X116300000Y-55933333D01*
X116300000Y-55766666D01*
X116266666Y-55700000D01*
X116233333Y-55666666D01*
X116166666Y-55633333D01*
X116033333Y-55633333D01*
X115966666Y-55666666D01*
X115933333Y-55700000D01*
X115900000Y-55766666D01*
%TO.C,D1*%
X123066666Y-48016666D02*
X122366666Y-48016666D01*
X122366666Y-47850000D01*
X122400000Y-47750000D01*
X122466666Y-47683333D01*
X122533333Y-47650000D01*
X122666666Y-47616666D01*
X122766666Y-47616666D01*
X122900000Y-47650000D01*
X122966666Y-47683333D01*
X123033333Y-47750000D01*
X123066666Y-47850000D01*
X123066666Y-48016666D01*
X123066666Y-46950000D02*
X123066666Y-47350000D01*
X123066666Y-47150000D02*
X122366666Y-47150000D01*
X122466666Y-47216666D01*
X122533333Y-47283333D01*
X122566666Y-47350000D01*
%TO.C,D2*%
X120233333Y-76816666D02*
X120233333Y-76116666D01*
X120400000Y-76116666D01*
X120500000Y-76150000D01*
X120566666Y-76216666D01*
X120600000Y-76283333D01*
X120633333Y-76416666D01*
X120633333Y-76516666D01*
X120600000Y-76650000D01*
X120566666Y-76716666D01*
X120500000Y-76783333D01*
X120400000Y-76816666D01*
X120233333Y-76816666D01*
X120900000Y-76183333D02*
X120933333Y-76150000D01*
X121000000Y-76116666D01*
X121166666Y-76116666D01*
X121233333Y-76150000D01*
X121266666Y-76183333D01*
X121300000Y-76250000D01*
X121300000Y-76316666D01*
X121266666Y-76416666D01*
X120866666Y-76816666D01*
X121300000Y-76816666D01*
%TO.C,D7*%
X104983333Y-74316666D02*
X104983333Y-73616666D01*
X105150000Y-73616666D01*
X105250000Y-73650000D01*
X105316666Y-73716666D01*
X105350000Y-73783333D01*
X105383333Y-73916666D01*
X105383333Y-74016666D01*
X105350000Y-74150000D01*
X105316666Y-74216666D01*
X105250000Y-74283333D01*
X105150000Y-74316666D01*
X104983333Y-74316666D01*
X105616666Y-73616666D02*
X106083333Y-73616666D01*
X105783333Y-74316666D01*
%TO.C,C8*%
X113250000Y-57106666D02*
X113283333Y-57140000D01*
X113316666Y-57240000D01*
X113316666Y-57306666D01*
X113283333Y-57406666D01*
X113216666Y-57473333D01*
X113150000Y-57506666D01*
X113016666Y-57540000D01*
X112916666Y-57540000D01*
X112783333Y-57506666D01*
X112716666Y-57473333D01*
X112650000Y-57406666D01*
X112616666Y-57306666D01*
X112616666Y-57240000D01*
X112650000Y-57140000D01*
X112683333Y-57106666D01*
X112916666Y-56706666D02*
X112883333Y-56773333D01*
X112850000Y-56806666D01*
X112783333Y-56840000D01*
X112750000Y-56840000D01*
X112683333Y-56806666D01*
X112650000Y-56773333D01*
X112616666Y-56706666D01*
X112616666Y-56573333D01*
X112650000Y-56506666D01*
X112683333Y-56473333D01*
X112750000Y-56440000D01*
X112783333Y-56440000D01*
X112850000Y-56473333D01*
X112883333Y-56506666D01*
X112916666Y-56573333D01*
X112916666Y-56706666D01*
X112950000Y-56773333D01*
X112983333Y-56806666D01*
X113050000Y-56840000D01*
X113183333Y-56840000D01*
X113250000Y-56806666D01*
X113283333Y-56773333D01*
X113316666Y-56706666D01*
X113316666Y-56573333D01*
X113283333Y-56506666D01*
X113250000Y-56473333D01*
X113183333Y-56440000D01*
X113050000Y-56440000D01*
X112983333Y-56473333D01*
X112950000Y-56506666D01*
X112916666Y-56573333D01*
%TO.C,R5*%
X126066666Y-55116666D02*
X125733333Y-55350000D01*
X126066666Y-55516666D02*
X125366666Y-55516666D01*
X125366666Y-55250000D01*
X125400000Y-55183333D01*
X125433333Y-55150000D01*
X125500000Y-55116666D01*
X125600000Y-55116666D01*
X125666666Y-55150000D01*
X125700000Y-55183333D01*
X125733333Y-55250000D01*
X125733333Y-55516666D01*
X125366666Y-54483333D02*
X125366666Y-54816666D01*
X125700000Y-54850000D01*
X125666666Y-54816666D01*
X125633333Y-54750000D01*
X125633333Y-54583333D01*
X125666666Y-54516666D01*
X125700000Y-54483333D01*
X125766666Y-54450000D01*
X125933333Y-54450000D01*
X126000000Y-54483333D01*
X126033333Y-54516666D01*
X126066666Y-54583333D01*
X126066666Y-54750000D01*
X126033333Y-54816666D01*
X126000000Y-54850000D01*
%TO.C,Q3*%
X121133333Y-55566666D02*
X121100000Y-55633333D01*
X121033333Y-55700000D01*
X120933333Y-55800000D01*
X120900000Y-55866666D01*
X120900000Y-55933333D01*
X121066666Y-55900000D02*
X121033333Y-55966666D01*
X120966666Y-56033333D01*
X120833333Y-56066666D01*
X120600000Y-56066666D01*
X120466666Y-56033333D01*
X120400000Y-55966666D01*
X120366666Y-55900000D01*
X120366666Y-55766666D01*
X120400000Y-55700000D01*
X120466666Y-55633333D01*
X120600000Y-55600000D01*
X120833333Y-55600000D01*
X120966666Y-55633333D01*
X121033333Y-55700000D01*
X121066666Y-55766666D01*
X121066666Y-55900000D01*
X120366666Y-55366666D02*
X120366666Y-54933333D01*
X120633333Y-55166666D01*
X120633333Y-55066666D01*
X120666666Y-55000000D01*
X120700000Y-54966666D01*
X120766666Y-54933333D01*
X120933333Y-54933333D01*
X121000000Y-54966666D01*
X121033333Y-55000000D01*
X121066666Y-55066666D01*
X121066666Y-55266666D01*
X121033333Y-55333333D01*
X121000000Y-55366666D01*
%TO.C,C23*%
X105800000Y-73250000D02*
X105766666Y-73283333D01*
X105666666Y-73316666D01*
X105600000Y-73316666D01*
X105500000Y-73283333D01*
X105433333Y-73216666D01*
X105400000Y-73150000D01*
X105366666Y-73016666D01*
X105366666Y-72916666D01*
X105400000Y-72783333D01*
X105433333Y-72716666D01*
X105500000Y-72650000D01*
X105600000Y-72616666D01*
X105666666Y-72616666D01*
X105766666Y-72650000D01*
X105800000Y-72683333D01*
X106066666Y-72683333D02*
X106100000Y-72650000D01*
X106166666Y-72616666D01*
X106333333Y-72616666D01*
X106400000Y-72650000D01*
X106433333Y-72683333D01*
X106466666Y-72750000D01*
X106466666Y-72816666D01*
X106433333Y-72916666D01*
X106033333Y-73316666D01*
X106466666Y-73316666D01*
X106700000Y-72616666D02*
X107133333Y-72616666D01*
X106900000Y-72883333D01*
X107000000Y-72883333D01*
X107066666Y-72916666D01*
X107100000Y-72950000D01*
X107133333Y-73016666D01*
X107133333Y-73183333D01*
X107100000Y-73250000D01*
X107066666Y-73283333D01*
X107000000Y-73316666D01*
X106800000Y-73316666D01*
X106733333Y-73283333D01*
X106700000Y-73250000D01*
%TO.C,J1*%
X106266666Y-51106666D02*
X106266666Y-51606666D01*
X106233333Y-51706666D01*
X106166666Y-51773333D01*
X106066666Y-51806666D01*
X106000000Y-51806666D01*
X106966666Y-51806666D02*
X106566666Y-51806666D01*
X106766666Y-51806666D02*
X106766666Y-51106666D01*
X106700000Y-51206666D01*
X106633333Y-51273333D01*
X106566666Y-51306666D01*
%TO.C,D3*%
X118733333Y-74066666D02*
X118733333Y-73366666D01*
X118900000Y-73366666D01*
X119000000Y-73400000D01*
X119066666Y-73466666D01*
X119100000Y-73533333D01*
X119133333Y-73666666D01*
X119133333Y-73766666D01*
X119100000Y-73900000D01*
X119066666Y-73966666D01*
X119000000Y-74033333D01*
X118900000Y-74066666D01*
X118733333Y-74066666D01*
X119366666Y-73366666D02*
X119800000Y-73366666D01*
X119566666Y-73633333D01*
X119666666Y-73633333D01*
X119733333Y-73666666D01*
X119766666Y-73700000D01*
X119800000Y-73766666D01*
X119800000Y-73933333D01*
X119766666Y-74000000D01*
X119733333Y-74033333D01*
X119666666Y-74066666D01*
X119466666Y-74066666D01*
X119400000Y-74033333D01*
X119366666Y-74000000D01*
%TO.C,U1*%
X108216666Y-53106666D02*
X108216666Y-53673333D01*
X108250000Y-53740000D01*
X108283333Y-53773333D01*
X108350000Y-53806666D01*
X108483333Y-53806666D01*
X108550000Y-53773333D01*
X108583333Y-53740000D01*
X108616666Y-53673333D01*
X108616666Y-53106666D01*
X109316666Y-53806666D02*
X108916666Y-53806666D01*
X109116666Y-53806666D02*
X109116666Y-53106666D01*
X109050000Y-53206666D01*
X108983333Y-53273333D01*
X108916666Y-53306666D01*
%TO.C,R4*%
X124736666Y-57866666D02*
X124403333Y-58100000D01*
X124736666Y-58266666D02*
X124036666Y-58266666D01*
X124036666Y-58000000D01*
X124070000Y-57933333D01*
X124103333Y-57900000D01*
X124170000Y-57866666D01*
X124270000Y-57866666D01*
X124336666Y-57900000D01*
X124370000Y-57933333D01*
X124403333Y-58000000D01*
X124403333Y-58266666D01*
X124270000Y-57266666D02*
X124736666Y-57266666D01*
X124003333Y-57433333D02*
X124503333Y-57600000D01*
X124503333Y-57166666D01*
%TO.C,U2*%
X112716666Y-47356666D02*
X112716666Y-47923333D01*
X112750000Y-47990000D01*
X112783333Y-48023333D01*
X112850000Y-48056666D01*
X112983333Y-48056666D01*
X113050000Y-48023333D01*
X113083333Y-47990000D01*
X113116666Y-47923333D01*
X113116666Y-47356666D01*
X113416666Y-47423333D02*
X113450000Y-47390000D01*
X113516666Y-47356666D01*
X113683333Y-47356666D01*
X113750000Y-47390000D01*
X113783333Y-47423333D01*
X113816666Y-47490000D01*
X113816666Y-47556666D01*
X113783333Y-47656666D01*
X113383333Y-48056666D01*
X113816666Y-48056666D01*
%TO.C,U3*%
X109716666Y-70116666D02*
X109716666Y-70683333D01*
X109750000Y-70750000D01*
X109783333Y-70783333D01*
X109850000Y-70816666D01*
X109983333Y-70816666D01*
X110050000Y-70783333D01*
X110083333Y-70750000D01*
X110116666Y-70683333D01*
X110116666Y-70116666D01*
X110383333Y-70116666D02*
X110816666Y-70116666D01*
X110583333Y-70383333D01*
X110683333Y-70383333D01*
X110750000Y-70416666D01*
X110783333Y-70450000D01*
X110816666Y-70516666D01*
X110816666Y-70683333D01*
X110783333Y-70750000D01*
X110750000Y-70783333D01*
X110683333Y-70816666D01*
X110483333Y-70816666D01*
X110416666Y-70783333D01*
X110383333Y-70750000D01*
%TO.C,J4*%
X107435000Y-70125000D02*
X107435000Y-70625000D01*
X99435000Y-75725000D02*
X104435000Y-75725000D01*
X99435000Y-62525000D02*
X104535000Y-62525000D01*
X107435000Y-68125000D02*
X107435000Y-67625000D01*
X104435000Y-75725000D02*
X104535000Y-75725000D01*
D13*
%TO.C,R7*%
X120346359Y-54120000D02*
X120653641Y-54120000D01*
X120346359Y-53360000D02*
X120653641Y-53360000D01*
%TO.C,D4*%
X121500000Y-75600000D02*
X119650000Y-75600000D01*
X121500000Y-74400000D02*
X119650000Y-74400000D01*
X119650000Y-74400000D02*
X119650000Y-75600000D01*
%TO.C,R9*%
X119700000Y-61846359D02*
X119700000Y-62153641D01*
X120460000Y-61846359D02*
X120460000Y-62153641D01*
%TO.C,R11*%
X119290000Y-62153641D02*
X119290000Y-61846359D01*
X118530000Y-62153641D02*
X118530000Y-61846359D01*
%TO.C,R14*%
X111870000Y-61846359D02*
X111870000Y-62153641D01*
X112630000Y-61846359D02*
X112630000Y-62153641D01*
%TO.C,R3*%
X115120000Y-53336359D02*
X115120000Y-53643641D01*
X115880000Y-53336359D02*
X115880000Y-53643641D01*
%TO.C,Q2*%
X124590000Y-49560000D02*
X124590000Y-50970000D01*
X126910000Y-50970000D02*
X126910000Y-48940000D01*
X126910000Y-50970000D02*
X126250000Y-50970000D01*
X125250000Y-50970000D02*
X124590000Y-50970000D01*
%TO.C,R16*%
X111630000Y-62153641D02*
X111630000Y-61846359D01*
X110870000Y-62153641D02*
X110870000Y-61846359D01*
%TO.C,C12*%
X116642164Y-74080000D02*
X116857836Y-74080000D01*
X116642164Y-73360000D02*
X116857836Y-73360000D01*
%TO.C,C3*%
X110392164Y-52850000D02*
X110607836Y-52850000D01*
X110392164Y-52130000D02*
X110607836Y-52130000D01*
%TO.C,C25*%
X109652164Y-60360000D02*
X109867836Y-60360000D01*
X109652164Y-59640000D02*
X109867836Y-59640000D01*
%TO.C,C19*%
X112857836Y-73360000D02*
X112642164Y-73360000D01*
X112857836Y-74080000D02*
X112642164Y-74080000D01*
%TO.C,C2*%
X112490000Y-49599420D02*
X112490000Y-49880580D01*
X113510000Y-49599420D02*
X113510000Y-49880580D01*
%TO.C,C15*%
X115437836Y-59640000D02*
X115222164Y-59640000D01*
X115437836Y-60360000D02*
X115222164Y-60360000D01*
%TO.C,C4*%
X111140580Y-56730000D02*
X110859420Y-56730000D01*
X111140580Y-57750000D02*
X110859420Y-57750000D01*
%TO.C,R19*%
X116290000Y-65153641D02*
X116290000Y-64846359D01*
X115530000Y-65153641D02*
X115530000Y-64846359D01*
D12*
%TO.C,J3*%
X119500000Y-67475000D02*
X119500000Y-66975000D01*
X127500000Y-61875000D02*
X122500000Y-61875000D01*
X127500000Y-75075000D02*
X122400000Y-75075000D01*
X119500000Y-69475000D02*
X119500000Y-69975000D01*
X122500000Y-61875000D02*
X122400000Y-61875000D01*
D13*
%TO.C,C18*%
X112857836Y-72360000D02*
X112642164Y-72360000D01*
X112857836Y-73080000D02*
X112642164Y-73080000D01*
D12*
%TO.C,TP2*%
X107100000Y-47590000D02*
X107100000Y-45390000D01*
X110900000Y-47590000D02*
X107100000Y-47590000D01*
X110900000Y-45390000D02*
X110900000Y-47590000D01*
X107100000Y-45390000D02*
X110900000Y-45390000D01*
D13*
%TO.C,C21*%
X110857836Y-72360000D02*
X110642164Y-72360000D01*
X110857836Y-73080000D02*
X110642164Y-73080000D01*
%TO.C,C14*%
X116642164Y-73080000D02*
X116857836Y-73080000D01*
X116642164Y-72360000D02*
X116857836Y-72360000D01*
%TO.C,R10*%
X113887500Y-64262742D02*
X113887500Y-64737258D01*
X114932500Y-64262742D02*
X114932500Y-64737258D01*
%TO.C,R1*%
X126880000Y-47393641D02*
X126880000Y-47086359D01*
X126120000Y-47393641D02*
X126120000Y-47086359D01*
%TO.C,C17*%
X117472164Y-59360000D02*
X117687836Y-59360000D01*
X117472164Y-58640000D02*
X117687836Y-58640000D01*
%TO.C,R20*%
X117790000Y-65153641D02*
X117790000Y-64846359D01*
X117030000Y-65153641D02*
X117030000Y-64846359D01*
%TO.C,U4*%
X117820000Y-62950000D02*
X117820000Y-61550000D01*
X115500000Y-61550000D02*
X115500000Y-63450000D01*
%TO.C,C1*%
X109010000Y-55380580D02*
X109010000Y-55099420D01*
X107990000Y-55380580D02*
X107990000Y-55099420D01*
%TO.C,R12*%
X119290000Y-64153641D02*
X119290000Y-63846359D01*
X118530000Y-64153641D02*
X118530000Y-63846359D01*
%TO.C,C13*%
X115437836Y-58640000D02*
X115222164Y-58640000D01*
X115437836Y-59360000D02*
X115222164Y-59360000D01*
%TO.C,R15*%
X106257500Y-64262742D02*
X106257500Y-64737258D01*
X107302500Y-64262742D02*
X107302500Y-64737258D01*
%TO.C,C7*%
X120609420Y-51000000D02*
X120890580Y-51000000D01*
X120609420Y-49980000D02*
X120890580Y-49980000D01*
%TO.C,Q1*%
X110000000Y-51300000D02*
X111675000Y-51300000D01*
X110000000Y-51300000D02*
X109350000Y-51300000D01*
X110000000Y-48180000D02*
X110650000Y-48180000D01*
X110000000Y-48180000D02*
X109350000Y-48180000D01*
%TO.C,R21*%
X108660000Y-65143641D02*
X108660000Y-64836359D01*
X107900000Y-65143641D02*
X107900000Y-64836359D01*
%TO.C,C6*%
X118390000Y-50882164D02*
X118390000Y-51097836D01*
X119110000Y-50882164D02*
X119110000Y-51097836D01*
%TO.C,D5*%
X109700000Y-77350000D02*
X107850000Y-77350000D01*
X109700000Y-76150000D02*
X107850000Y-76150000D01*
X107850000Y-76150000D02*
X107850000Y-77350000D01*
%TO.C,R18*%
X111870000Y-63846359D02*
X111870000Y-64153641D01*
X112630000Y-63846359D02*
X112630000Y-64153641D01*
%TO.C,C16*%
X117472164Y-60360000D02*
X117687836Y-60360000D01*
X117472164Y-59640000D02*
X117687836Y-59640000D01*
%TO.C,R8*%
X123403641Y-51360000D02*
X123096359Y-51360000D01*
X123403641Y-52120000D02*
X123096359Y-52120000D01*
%TO.C,C5*%
X118892164Y-49100000D02*
X119107836Y-49100000D01*
X118892164Y-48380000D02*
X119107836Y-48380000D01*
%TO.C,C24*%
X107887836Y-59640000D02*
X107672164Y-59640000D01*
X107887836Y-60360000D02*
X107672164Y-60360000D01*
%TO.C,U5*%
X110190000Y-62950000D02*
X110190000Y-61550000D01*
X107870000Y-61550000D02*
X107870000Y-63450000D01*
%TO.C,C9*%
X114642164Y-73080000D02*
X114857836Y-73080000D01*
X114642164Y-72360000D02*
X114857836Y-72360000D01*
%TO.C,C10*%
X114642164Y-74080000D02*
X114857836Y-74080000D01*
X114642164Y-73360000D02*
X114857836Y-73360000D01*
%TO.C,R17*%
X111630000Y-64153641D02*
X111630000Y-63846359D01*
X110870000Y-64153641D02*
X110870000Y-63846359D01*
D12*
%TO.C,TP1*%
X119150000Y-45390000D02*
X119150000Y-47590000D01*
X115350000Y-45390000D02*
X119150000Y-45390000D01*
X115350000Y-47590000D02*
X115350000Y-45390000D01*
X119150000Y-47590000D02*
X115350000Y-47590000D01*
D13*
%TO.C,C26*%
X109672164Y-59360000D02*
X109887836Y-59360000D01*
X109672164Y-58640000D02*
X109887836Y-58640000D01*
%TO.C,R22*%
X110160000Y-65153641D02*
X110160000Y-64846359D01*
X109400000Y-65153641D02*
X109400000Y-64846359D01*
%TO.C,C22*%
X107887836Y-58640000D02*
X107672164Y-58640000D01*
X107887836Y-59360000D02*
X107672164Y-59360000D01*
%TO.C,C20*%
X112140580Y-74690000D02*
X111859420Y-74690000D01*
X112140580Y-75710000D02*
X111859420Y-75710000D01*
%TO.C,R13*%
X119700000Y-63846359D02*
X119700000Y-64153641D01*
X120460000Y-63846359D02*
X120460000Y-64153641D01*
%TO.C,C11*%
X115134420Y-75710000D02*
X115415580Y-75710000D01*
X115134420Y-74690000D02*
X115415580Y-74690000D01*
%TO.C,R2*%
X114880000Y-53643641D02*
X114880000Y-53336359D01*
X114120000Y-53643641D02*
X114120000Y-53336359D01*
%TO.C,D6*%
X108300000Y-74650000D02*
X110150000Y-74650000D01*
X108300000Y-75850000D02*
X110150000Y-75850000D01*
X110150000Y-75850000D02*
X110150000Y-74650000D01*
%TO.C,R6*%
X114120000Y-55336359D02*
X114120000Y-55643641D01*
X114880000Y-55336359D02*
X114880000Y-55643641D01*
%TO.C,D1*%
X125600000Y-46290000D02*
X125600000Y-48140000D01*
X124400000Y-46290000D02*
X124400000Y-48140000D01*
X124400000Y-48140000D02*
X125600000Y-48140000D01*
%TO.C,D2*%
X117550000Y-75900000D02*
X119400000Y-75900000D01*
X117550000Y-77100000D02*
X119400000Y-77100000D01*
X119400000Y-77100000D02*
X119400000Y-75900000D01*
%TO.C,D7*%
X105550000Y-74650000D02*
X107400000Y-74650000D01*
X105550000Y-75850000D02*
X107400000Y-75850000D01*
X107400000Y-75850000D02*
X107400000Y-74650000D01*
%TO.C,C8*%
X113510000Y-54880580D02*
X113510000Y-54599420D01*
X112490000Y-54880580D02*
X112490000Y-54599420D01*
%TO.C,R5*%
X125370000Y-53076359D02*
X125370000Y-53383641D01*
X126130000Y-53076359D02*
X126130000Y-53383641D01*
%TO.C,Q3*%
X124810000Y-54740000D02*
X124810000Y-53065000D01*
X124810000Y-54740000D02*
X124810000Y-55390000D01*
X121690000Y-54740000D02*
X121690000Y-54090000D01*
X121690000Y-54740000D02*
X121690000Y-55390000D01*
%TO.C,C23*%
X110857836Y-73360000D02*
X110642164Y-73360000D01*
X110857836Y-74080000D02*
X110642164Y-74080000D01*
%TO.C,J1*%
X99700000Y-52140000D02*
X100200000Y-52140000D01*
X99700000Y-51400000D02*
X99700000Y-52140000D01*
X105600000Y-45580000D02*
X105600000Y-51900000D01*
X99940000Y-45580000D02*
X99940000Y-51900000D01*
X104830000Y-51900000D02*
X105600000Y-51900000D01*
X102290000Y-51900000D02*
X103250000Y-51900000D01*
X99940000Y-51900000D02*
X100710000Y-51900000D01*
X99940000Y-45580000D02*
X105600000Y-45580000D01*
X99940000Y-46040000D02*
X105600000Y-46040000D01*
X104830000Y-51340000D02*
X105600000Y-51340000D01*
X102290000Y-51340000D02*
X103250000Y-51340000D01*
X99940000Y-51340000D02*
X100710000Y-51340000D01*
%TO.C,D3*%
X118950000Y-75600000D02*
X117100000Y-75600000D01*
X118950000Y-74400000D02*
X117100000Y-74400000D01*
X117100000Y-74400000D02*
X117100000Y-75600000D01*
%TO.C,U1*%
X109880000Y-56240000D02*
X109880000Y-54240000D01*
X112120000Y-54240000D02*
X112120000Y-55240000D01*
%TO.C,R4*%
X122870000Y-57596359D02*
X122870000Y-57903641D01*
X123630000Y-57596359D02*
X123630000Y-57903641D01*
D12*
%TO.C,U2*%
X116000000Y-51365000D02*
X114500000Y-51365000D01*
X117500000Y-48115000D02*
X114500000Y-48115000D01*
D13*
%TO.C,U3*%
X112315000Y-66690000D02*
X111590000Y-66690000D01*
X115085000Y-66690000D02*
X115810000Y-66690000D01*
X115085000Y-70910000D02*
X115810000Y-70910000D01*
X115810000Y-66690000D02*
X115810000Y-67415000D01*
X111590000Y-70910000D02*
X111590000Y-70185000D01*
X112315000Y-70910000D02*
X111590000Y-70910000D01*
X111590000Y-66690000D02*
X111590000Y-67415000D01*
%TD*%
M02*
