M48
; DRILL file {KiCad 5.99.0-unknown-b691c18bfc~117~ubuntu20.10.1} date Sun Mar  7 12:14:28 2021
; FORMAT={-:-/ absolute / inch / decimal}
; #@! TF.CreationDate,2021-03-07T12:14:28-07:00
; #@! TF.GenerationSoftware,Kicad,Pcbnew,5.99.0-unknown-b691c18bfc~117~ubuntu20.10.1
; #@! TF.FileFunction,Plated,1,4,PTH
FMAT,2
INCH
T1C0.0100
T2C0.0157
T3C0.0433
T4C0.0780
%
G90
G05
T1
X3.9305Y-2.4852
X3.9305Y-2.5246
X3.9305Y-2.564
X3.9305Y-2.6033
X3.9305Y-2.6427
X3.9305Y-2.6821
X3.9305Y-2.753
X3.9305Y-2.7923
X3.9305Y-2.8317
X3.9305Y-2.8711
X3.9305Y-2.9104
X3.9305Y-2.9498
X4.1043Y-2.4803
X4.1043Y-2.5787
X4.1043Y-2.8642
X4.1043Y-2.9626
X4.1535Y-2.9921
X4.2028Y-2.3228
X4.2028Y-2.3622
X4.2028Y-2.5984
X4.2047Y-2.4606
X4.2323Y-3.0217
X4.2618Y-2.2933
X4.3209Y-2.8642
X4.3209Y-2.9035
X4.3425Y-3.0236
X4.3701Y-2.3228
X4.3701Y-2.3622
X4.3799Y-2.5689
X4.3799Y-2.9921
X4.4094Y-2.9232
X4.4193Y-2.5591
X4.4193Y-2.8346
X4.437Y-3.0
X4.4409Y-2.6732
X4.4409Y-2.6969
X4.4409Y-2.7205
X4.4409Y-2.7441
X4.4488Y-2.4606
X4.4587Y-2.5787
X4.4646Y-2.6732
X4.4646Y-2.6969
X4.4646Y-2.7205
X4.4646Y-2.7441
X4.4882Y-2.6732
X4.4882Y-2.6969
X4.4882Y-2.7205
X4.4882Y-2.7441
X4.498Y-2.3228
X4.498Y-2.3622
X4.5039Y-2.4764
X4.5079Y-2.2343
X4.5079Y-3.0
X4.5118Y-2.6732
X4.5118Y-2.6969
X4.5118Y-2.7205
X4.5118Y-2.7441
X4.5374Y-2.8346
X4.5374Y-2.9232
X4.5571Y-2.2933
X4.5669Y-2.9921
X4.5945Y-3.0118
X4.6358Y-2.8642
X4.6358Y-2.9035
X4.6752Y-2.3228
X4.6752Y-2.3622
X4.685Y-2.5689
X4.7146Y-3.0118
X4.7343Y-2.5689
X4.7638Y-2.4606
X4.7835Y-2.9823
X4.8327Y-2.4606
X4.8327Y-2.5591
X4.8327Y-2.8346
X4.8327Y-2.9331
X4.8504Y-2.3346
X4.8622Y-1.8228
X4.9803Y-1.811
X5.0039Y-2.4675
X5.0039Y-2.5069
X5.0039Y-2.5463
X5.0039Y-2.5856
X5.0039Y-2.625
X5.0039Y-2.6644
X5.0039Y-2.7352
X5.0039Y-2.7746
X5.0039Y-2.814
X5.0039Y-2.8533
X5.0039Y-2.8927
X5.0039Y-2.9321
T2
X4.3012Y-2.2535
X4.3209Y-2.1551
X4.3701Y-2.1551
X4.4094Y-1.9976
X4.4193Y-2.1551
X4.4488Y-2.0272
X4.5177Y-2.0469
X4.5472Y-1.8992
X4.5472Y-2.0173
X4.5472Y-2.1551
X4.5669Y-1.9287
X4.5669Y-1.9878
X4.5669Y-2.0469
X4.5866Y-1.8992
X4.5866Y-2.0173
X4.6161Y-1.8303
X4.626Y-2.037
X4.7146Y-1.8008
X4.7146Y-1.8795
X4.7343Y-1.9091
X4.7736Y-1.8008
X4.7835Y-1.9386
X4.7835Y-2.0272
T3
X3.9961Y-1.9189
X4.0961Y-1.9189
T4
X4.0246Y-2.5374
X4.0246Y-2.9055
X4.9098Y-2.5118
X4.9098Y-2.8799
T0
M30
