G04 #@! TF.FileFunction,Copper,L1,Top,Signal*
%FSLAX46Y46*%
G04 Gerber Fmt 4.6, Leading zero omitted, Abs format (unit mm)*
G04 Created by KiCad (PCBNEW 4.0.2-stable) date Tue Apr 26 20:14:23 2016*
%MOMM*%
G01*
G04 APERTURE LIST*
%ADD10C,0.100000*%
%ADD11R,0.400000X0.600000*%
%ADD12R,5.080000X1.290000*%
%ADD13R,5.080000X2.290000*%
%ADD14C,0.600000*%
%ADD15C,0.350000*%
G04 APERTURE END LIST*
D10*
D11*
X159950000Y-105000000D03*
X159050000Y-105000000D03*
X159400000Y-120000000D03*
X158500000Y-120000000D03*
D12*
X150000000Y-75000000D03*
D13*
X150000000Y-79380000D03*
X150000000Y-70620000D03*
D12*
X150000000Y-90000000D03*
D13*
X150000000Y-94380000D03*
X150000000Y-85620000D03*
D12*
X150000000Y-105000000D03*
D13*
X150000000Y-109380000D03*
X150000000Y-100620000D03*
D12*
X150000000Y-120000000D03*
D13*
X150000000Y-124380000D03*
X150000000Y-115620000D03*
D12*
X170000000Y-90000000D03*
D13*
X170000000Y-85620000D03*
X170000000Y-94380000D03*
D14*
X166500000Y-94500000D03*
X166500000Y-85500000D03*
X153500000Y-70500000D03*
X153500000Y-79500000D03*
X153380000Y-85620000D03*
X153500000Y-94500000D03*
X153500000Y-100500000D03*
X153500000Y-109500000D03*
X153500000Y-115500000D03*
X153500000Y-124500000D03*
X160000000Y-120000000D03*
X159500000Y-121000000D03*
X159400000Y-119100000D03*
X159950000Y-105950000D03*
X160000000Y-104000000D03*
X160500000Y-105000000D03*
D15*
X150000000Y-75000000D02*
X160000000Y-75000000D01*
X166990000Y-94500000D02*
X166500000Y-94500000D01*
X170000000Y-94380000D02*
X167110000Y-94380000D01*
X167110000Y-94380000D02*
X166990000Y-94500000D01*
X166500000Y-85500000D02*
X169880000Y-85500000D01*
X169880000Y-85500000D02*
X170000000Y-85620000D01*
X150000000Y-70620000D02*
X153380000Y-70620000D01*
X153380000Y-70620000D02*
X153500000Y-70500000D01*
X153500000Y-79500000D02*
X150120000Y-79500000D01*
X150120000Y-79500000D02*
X150000000Y-79380000D01*
X153380000Y-85620000D02*
X150000000Y-85620000D01*
X153500000Y-94500000D02*
X150120000Y-94500000D01*
X150120000Y-94500000D02*
X150000000Y-94380000D01*
X150000000Y-100620000D02*
X153380000Y-100620000D01*
X153380000Y-100620000D02*
X153500000Y-100500000D01*
X153500000Y-109500000D02*
X150120000Y-109500000D01*
X150120000Y-109500000D02*
X150000000Y-109380000D01*
X153010000Y-115500000D02*
X153500000Y-115500000D01*
X150000000Y-115620000D02*
X152890000Y-115620000D01*
X152890000Y-115620000D02*
X153010000Y-115500000D01*
X153500000Y-124500000D02*
X150120000Y-124500000D01*
X150120000Y-124500000D02*
X150000000Y-124380000D01*
X159400000Y-120000000D02*
X160000000Y-120000000D01*
X159400000Y-120900000D02*
X159500000Y-121000000D01*
X159400000Y-120000000D02*
X159400000Y-120900000D01*
X159400000Y-120000000D02*
X159400000Y-119100000D01*
X159950000Y-105000000D02*
X159950000Y-105950000D01*
X159950000Y-105000000D02*
X159950000Y-104050000D01*
X159950000Y-104050000D02*
X160000000Y-104000000D01*
X159950000Y-105000000D02*
X160500000Y-105000000D01*
X150000000Y-105000000D02*
X158774998Y-105000000D01*
X158774998Y-105000000D02*
X159050000Y-105000000D01*
X158500000Y-120000000D02*
X150000000Y-120000000D01*
X150000000Y-90000000D02*
X170000000Y-90000000D01*
M02*
