G04 #@! TF.FileFunction,Copper,L4,Bot,Signal*
%FSLAX46Y46*%
G04 Gerber Fmt 4.6, Leading zero omitted, Abs format (unit mm)*
G04 Created by KiCad (PCBNEW 4.0.7) date Sun May 20 15:45:54 2018*
%MOMM*%
%LPD*%
G01*
G04 APERTURE LIST*
%ADD10C,0.100000*%
%ADD11C,0.550000*%
%ADD12R,0.400000X0.600000*%
%ADD13C,1.100000*%
%ADD14R,2.290000X5.080000*%
%ADD15C,0.360000*%
%ADD16R,0.600000X0.500000*%
%ADD17R,1.727200X1.727200*%
%ADD18O,1.727200X1.727200*%
%ADD19R,0.600000X0.400000*%
%ADD20C,2.500000*%
%ADD21C,1.440000*%
%ADD22C,0.254000*%
%ADD23C,0.600000*%
%ADD24C,0.510000*%
%ADD25C,1.000000*%
%ADD26C,0.340000*%
%ADD27C,0.250000*%
%ADD28C,0.254000*%
G04 APERTURE END LIST*
D10*
D11*
X188750000Y-28250000D03*
X128000000Y-26000000D03*
X130000000Y-31250000D03*
X124250000Y-28500000D03*
X125500000Y-28500000D03*
X127000000Y-28500000D03*
X127000000Y-29750000D03*
X125500000Y-32500000D03*
X124250000Y-31500000D03*
X185750000Y-29250000D03*
X185750000Y-32500000D03*
X183750000Y-32500000D03*
X183750000Y-31500000D03*
X186250000Y-28500000D03*
X190000000Y-28250000D03*
X133500000Y-52250000D03*
X133250000Y-55000000D03*
X135000000Y-55000000D03*
X133000000Y-57000000D03*
X135000000Y-57000000D03*
X129000000Y-69000000D03*
X121000000Y-69000000D03*
X125000000Y-65000000D03*
X129000000Y-66000000D03*
X127000000Y-63000000D03*
X131000000Y-63000000D03*
X139750000Y-51250000D03*
X137750000Y-52250000D03*
X179250000Y-65500000D03*
X190250000Y-69250000D03*
X182750000Y-69250000D03*
X179000000Y-62500000D03*
X182000000Y-65500000D03*
X186000000Y-64000000D03*
X133500000Y-59000000D03*
X133500000Y-61000000D03*
X181500000Y-61000000D03*
X179750000Y-59000000D03*
X130750000Y-36750000D03*
X130750000Y-38000000D03*
X129500000Y-37250000D03*
X156500000Y-25750000D03*
X156500000Y-29000000D03*
X119500000Y-31000000D03*
X189000000Y-32500000D03*
X191000000Y-32500000D03*
X191000000Y-31000000D03*
X194000000Y-31000000D03*
X156000000Y-49100000D03*
X157300000Y-49100000D03*
X158600000Y-49100000D03*
X186200000Y-44400000D03*
X184100000Y-44500000D03*
X183300000Y-44400000D03*
X183300000Y-41500000D03*
X186200000Y-41500000D03*
X126800000Y-44400000D03*
X129300000Y-44000000D03*
X129700000Y-44500000D03*
X129700000Y-41500000D03*
X126800000Y-41500000D03*
X173000000Y-48500000D03*
X170000000Y-48500000D03*
X170000000Y-41750000D03*
X173000000Y-41750000D03*
X166000000Y-61000000D03*
X162000000Y-61000000D03*
X147000000Y-59000000D03*
X147000000Y-61000000D03*
X143000000Y-61000000D03*
X143000000Y-59000000D03*
X141000000Y-61000000D03*
X141000000Y-59000000D03*
X139000000Y-59000000D03*
X139000000Y-61000000D03*
X137000000Y-61000000D03*
X137000000Y-59000000D03*
X145000000Y-61000000D03*
X145000000Y-59000000D03*
X144000000Y-52000000D03*
X146000000Y-52000000D03*
X146000000Y-40000000D03*
X144000000Y-40000000D03*
X142000000Y-40000000D03*
X142000000Y-42000000D03*
X144000000Y-42000000D03*
X146000000Y-42000000D03*
X146000000Y-44000000D03*
X144000000Y-44000000D03*
X142000000Y-44000000D03*
X142000000Y-46000000D03*
X144000000Y-46000000D03*
X146000000Y-46000000D03*
X146000000Y-48000000D03*
X144000000Y-48000000D03*
X142000000Y-48000000D03*
X144000000Y-50000000D03*
X142000000Y-50000000D03*
X146000000Y-50000000D03*
X146000000Y-54000000D03*
X142000000Y-54000000D03*
X144000000Y-58000000D03*
X144000000Y-56000000D03*
X146000000Y-56000000D03*
X142000000Y-56000000D03*
X142000000Y-58000000D03*
X146000000Y-58000000D03*
X149000000Y-61000000D03*
X151000000Y-59000000D03*
X151000000Y-61000000D03*
X153000000Y-61000000D03*
X153000000Y-59000000D03*
X156000000Y-59000000D03*
X156000000Y-61000000D03*
X158000000Y-61000000D03*
X158000000Y-59000000D03*
X161000000Y-59000000D03*
X165000000Y-59000000D03*
X135000000Y-61000000D03*
X135000000Y-59000000D03*
X132000000Y-61000000D03*
X132000000Y-59000000D03*
X130000000Y-59000000D03*
X130000000Y-61000000D03*
X127000000Y-61000000D03*
X127000000Y-59000000D03*
X126000000Y-59000000D03*
X126000000Y-61000000D03*
X124000000Y-59000000D03*
X124000000Y-63000000D03*
X119000000Y-63000000D03*
X122000000Y-63000000D03*
X122000000Y-58000000D03*
X119000000Y-58000000D03*
X119000000Y-56000000D03*
X122000000Y-56000000D03*
X122000000Y-54000000D03*
X119000000Y-54000000D03*
X119000000Y-52000000D03*
X122000000Y-52000000D03*
X122000000Y-50000000D03*
X119000000Y-50000000D03*
X119000000Y-48000000D03*
X122000000Y-48000000D03*
X122000000Y-46000000D03*
X119000000Y-46000000D03*
X119000000Y-44000000D03*
X122000000Y-44000000D03*
X122000000Y-42000000D03*
X119000000Y-42000000D03*
X119000000Y-40000000D03*
X122000000Y-40000000D03*
X118000000Y-38500000D03*
X121000000Y-38500000D03*
X122500000Y-38500000D03*
X125500000Y-38500000D03*
X127000000Y-38500000D03*
X127000000Y-37250000D03*
X125500000Y-37000000D03*
X124000000Y-36000000D03*
X122500000Y-34500000D03*
X121000000Y-33000000D03*
X118000000Y-33000000D03*
X118000000Y-22000000D03*
X118000000Y-23750000D03*
X156500000Y-33000000D03*
X156500000Y-31500000D03*
X156500000Y-23500000D03*
X157500000Y-23000000D03*
X155000000Y-23000000D03*
X153000000Y-23000000D03*
X153000000Y-21000000D03*
X153000000Y-19000000D03*
X189500000Y-23000000D03*
X189500000Y-21000000D03*
X189500000Y-19000000D03*
X179500000Y-23000000D03*
X179500000Y-21000000D03*
X179500000Y-19000000D03*
X181500000Y-23000000D03*
X181500000Y-21000000D03*
X183500000Y-19000000D03*
X183500000Y-23000000D03*
X183500000Y-21000000D03*
X181500000Y-19000000D03*
X185500000Y-23000000D03*
X187500000Y-21000000D03*
X187500000Y-23000000D03*
X187500000Y-19000000D03*
X185500000Y-19000000D03*
X185500000Y-21000000D03*
X169500000Y-23000000D03*
X169500000Y-21000000D03*
X169500000Y-19000000D03*
X171500000Y-23000000D03*
X171500000Y-21000000D03*
X173500000Y-19000000D03*
X173500000Y-23000000D03*
X173500000Y-21000000D03*
X171500000Y-19000000D03*
X175500000Y-23000000D03*
X177500000Y-21000000D03*
X177500000Y-23000000D03*
X177500000Y-19000000D03*
X175500000Y-19000000D03*
X175500000Y-21000000D03*
X159500000Y-23000000D03*
X159500000Y-21000000D03*
X159500000Y-19000000D03*
X161500000Y-23000000D03*
X161500000Y-21000000D03*
X163500000Y-19000000D03*
X163500000Y-23000000D03*
X163500000Y-21000000D03*
X161500000Y-19000000D03*
X165500000Y-23000000D03*
X167500000Y-21000000D03*
X167500000Y-23000000D03*
X167500000Y-19000000D03*
X165500000Y-19000000D03*
X165500000Y-21000000D03*
X143000000Y-23000000D03*
X143000000Y-21000000D03*
X143000000Y-19000000D03*
X145000000Y-23000000D03*
X145000000Y-21000000D03*
X147000000Y-19000000D03*
X147000000Y-23000000D03*
X147000000Y-21000000D03*
X145000000Y-19000000D03*
X149000000Y-23000000D03*
X151000000Y-21000000D03*
X151000000Y-23000000D03*
X151000000Y-19000000D03*
X149000000Y-19000000D03*
X149000000Y-21000000D03*
X133000000Y-23000000D03*
X133000000Y-21000000D03*
X133000000Y-19000000D03*
X135000000Y-23000000D03*
X135000000Y-21000000D03*
X137000000Y-19000000D03*
X137000000Y-23000000D03*
X137000000Y-21000000D03*
X135000000Y-19000000D03*
X139000000Y-23000000D03*
X141000000Y-21000000D03*
X141000000Y-23000000D03*
X141000000Y-19000000D03*
X139000000Y-19000000D03*
X139000000Y-21000000D03*
X131000000Y-23000000D03*
X129000000Y-23000000D03*
X129000000Y-21000000D03*
X131000000Y-21000000D03*
X131000000Y-19000000D03*
X129000000Y-19000000D03*
X127000000Y-23000000D03*
X125000000Y-23000000D03*
X125000000Y-21000000D03*
X127000000Y-21000000D03*
X127000000Y-19000000D03*
X125000000Y-19000000D03*
X123000000Y-19000000D03*
X123000000Y-21000000D03*
X123000000Y-23000000D03*
X169000000Y-61000000D03*
X171000000Y-59000000D03*
X173000000Y-61000000D03*
X173000000Y-59000000D03*
X194000000Y-39000000D03*
X191000000Y-39000000D03*
X191000000Y-41000000D03*
X194000000Y-41000000D03*
X194000000Y-43000000D03*
X191000000Y-43000000D03*
X191000000Y-45000000D03*
X194000000Y-45000000D03*
X194000000Y-47000000D03*
X191000000Y-47000000D03*
X191000000Y-49000000D03*
X194000000Y-49000000D03*
X194000000Y-51000000D03*
X191000000Y-51000000D03*
X194000000Y-63000000D03*
X191000000Y-53000000D03*
X194000000Y-53000000D03*
X194000000Y-55000000D03*
X191000000Y-55000000D03*
X191000000Y-57000000D03*
X194000000Y-57000000D03*
X194000000Y-59000000D03*
X192000000Y-59000000D03*
X190000000Y-59000000D03*
X190000000Y-61000000D03*
X190000000Y-63000000D03*
X188000000Y-59000000D03*
X188000000Y-61000000D03*
X186000000Y-61000000D03*
X186000000Y-59000000D03*
X179000000Y-61000000D03*
X177000000Y-61000000D03*
X175000000Y-61000000D03*
X183000000Y-61000000D03*
X183000000Y-59000000D03*
X181000000Y-59000000D03*
X177000000Y-59000000D03*
X175000000Y-59000000D03*
X173000000Y-57000000D03*
X170000000Y-57000000D03*
X173000000Y-55000000D03*
X170000000Y-55000000D03*
X170000000Y-53000000D03*
X173000000Y-53000000D03*
X173000000Y-51000000D03*
X170000000Y-51000000D03*
X170000000Y-47000000D03*
X173000000Y-47000000D03*
X173000000Y-45000000D03*
X170000000Y-45000000D03*
X166000000Y-38000000D03*
X164000000Y-38000000D03*
X162000000Y-38000000D03*
X160000000Y-38000000D03*
X158000000Y-38000000D03*
X156000000Y-38000000D03*
X154000000Y-38000000D03*
X152000000Y-38000000D03*
X152000000Y-36000000D03*
X154000000Y-36000000D03*
X156000000Y-36000000D03*
X158000000Y-36000000D03*
X160000000Y-36000000D03*
X162000000Y-36000000D03*
X164000000Y-36000000D03*
X166000000Y-36000000D03*
X168000000Y-36000000D03*
X168000000Y-38000000D03*
X170000000Y-40000000D03*
X170000000Y-38000000D03*
X173000000Y-40000000D03*
X173000000Y-38000000D03*
X175000000Y-38000000D03*
X175000000Y-36000000D03*
X177000000Y-36000000D03*
X177000000Y-38000000D03*
X179000000Y-38000000D03*
X179000000Y-36000000D03*
X181000000Y-36000000D03*
X181000000Y-38000000D03*
X183000000Y-38000000D03*
X183000000Y-36000000D03*
X187000000Y-36000000D03*
X187000000Y-38000000D03*
X189000000Y-38000000D03*
X189000000Y-36000000D03*
X194000000Y-34000000D03*
X191000000Y-34000000D03*
X189000000Y-34000000D03*
X187000000Y-34000000D03*
X183000000Y-34000000D03*
X181000000Y-34000000D03*
X179000000Y-34000000D03*
X177000000Y-34000000D03*
X175000000Y-34000000D03*
X173000000Y-34000000D03*
X170000000Y-34000000D03*
X168000000Y-34000000D03*
X166000000Y-34000000D03*
X164000000Y-34000000D03*
X162000000Y-34000000D03*
X160000000Y-34000000D03*
X158000000Y-34000000D03*
X156000000Y-34000000D03*
X154000000Y-34000000D03*
X152000000Y-34000000D03*
X150000000Y-34000000D03*
X150000000Y-36000000D03*
X150000000Y-38000000D03*
X148000000Y-38000000D03*
X148000000Y-36000000D03*
X148000000Y-34000000D03*
X146000000Y-34000000D03*
X146000000Y-38000000D03*
X142000000Y-38000000D03*
X142000000Y-34000000D03*
X140000000Y-34000000D03*
X140000000Y-36000000D03*
X140000000Y-38000000D03*
X138000000Y-38000000D03*
X138000000Y-36000000D03*
X138000000Y-34000000D03*
X136000000Y-34000000D03*
X136000000Y-36000000D03*
X136000000Y-38000000D03*
X134000000Y-38000000D03*
X134000000Y-36000000D03*
X134000000Y-34000000D03*
X132000000Y-36000000D03*
X132000000Y-38000000D03*
X129500000Y-38500000D03*
X152750000Y-41000000D03*
X151750000Y-41000000D03*
X151750000Y-44500000D03*
X150750000Y-44500000D03*
X150750000Y-46500000D03*
X160250000Y-53500000D03*
X158750000Y-53500000D03*
X155750000Y-53500000D03*
X156500000Y-24750000D03*
X156500000Y-30250000D03*
X121000000Y-31000000D03*
X194000000Y-32500000D03*
X194750000Y-23750000D03*
X121250000Y-23750000D03*
X118000000Y-31000000D03*
X124000000Y-38500000D03*
X124000000Y-61000000D03*
X118000000Y-56000000D03*
X130000000Y-53500000D03*
X131000000Y-53500000D03*
X132000000Y-53500000D03*
X130000000Y-55000000D03*
X131000000Y-55000000D03*
X132000000Y-55000000D03*
X132000000Y-52000000D03*
X131000000Y-52000000D03*
X130000000Y-52000000D03*
X129000000Y-53500000D03*
X128000000Y-53500000D03*
X127000000Y-53500000D03*
X124250000Y-53000000D03*
X124250000Y-54000000D03*
X125250000Y-54000000D03*
X125250000Y-53000000D03*
X126250000Y-53000000D03*
X126250000Y-54000000D03*
X126500000Y-55000000D03*
X125250000Y-55000000D03*
X124000000Y-55000000D03*
X124000000Y-52000000D03*
X125250000Y-52000000D03*
X185500000Y-53500000D03*
X184500000Y-53500000D03*
X183500000Y-53500000D03*
X180500000Y-54000000D03*
X180500000Y-53000000D03*
X181500000Y-54000000D03*
X181500000Y-53000000D03*
X182500000Y-53000000D03*
X182500000Y-54000000D03*
X183000000Y-55000000D03*
X181500000Y-55000000D03*
X180000000Y-55000000D03*
X180000000Y-52000000D03*
X181500000Y-52000000D03*
X183000000Y-52000000D03*
X188500000Y-52000000D03*
X187500000Y-52000000D03*
X186500000Y-52000000D03*
X186500000Y-53500000D03*
X187500000Y-53500000D03*
X188500000Y-53500000D03*
X188500000Y-55000000D03*
X187500000Y-55000000D03*
D12*
X178750000Y-41750000D03*
X177850000Y-41750000D03*
D13*
X125510000Y-57500000D03*
X130990000Y-46750000D03*
X139990000Y-48000000D03*
X182000000Y-57500000D03*
X187490000Y-47000000D03*
X125500000Y-24510000D03*
D14*
X120490000Y-70750000D03*
X129250000Y-70750000D03*
X182120000Y-71000000D03*
X190880000Y-71000000D03*
D15*
X150825000Y-28650000D03*
X150825000Y-25850000D03*
X131625000Y-24500000D03*
X131625000Y-30000000D03*
X130825000Y-24500000D03*
X130425000Y-24500000D03*
X130025000Y-24500000D03*
X130025000Y-24100000D03*
X130425000Y-24100000D03*
X130825000Y-24100000D03*
X131225000Y-24100000D03*
X131225000Y-30000000D03*
X130825000Y-30000000D03*
X130425000Y-30000000D03*
X130025000Y-30000000D03*
X131625000Y-30400000D03*
X131225000Y-30400000D03*
X130825000Y-30400000D03*
X130425000Y-30400000D03*
X130025000Y-30400000D03*
X129625000Y-24500000D03*
X129625000Y-24100000D03*
X151225000Y-28650000D03*
X151625000Y-28650000D03*
X152025000Y-28650000D03*
X152425000Y-28650000D03*
X152825000Y-28650000D03*
X153225000Y-28650000D03*
X153225000Y-29050000D03*
X152825000Y-29050000D03*
X152425000Y-29050000D03*
X152025000Y-29050000D03*
X151625000Y-29050000D03*
X151225000Y-29050000D03*
X150825000Y-29050000D03*
X151225000Y-25850000D03*
X151625000Y-25850000D03*
X152025000Y-25850000D03*
X152425000Y-25850000D03*
X152825000Y-25850000D03*
X153225000Y-25850000D03*
X153225000Y-25450000D03*
X152825000Y-25450000D03*
X152425000Y-25450000D03*
X152025000Y-25450000D03*
X151625000Y-25450000D03*
X151225000Y-25450000D03*
X150825000Y-25450000D03*
X131225000Y-24500000D03*
X132025000Y-24500000D03*
X132025000Y-24100000D03*
X131625000Y-24100000D03*
X132025000Y-30400000D03*
X132025000Y-30000000D03*
D16*
X178450000Y-45250000D03*
X179550000Y-45250000D03*
D17*
X156880000Y-71000000D03*
D18*
X156880000Y-68460000D03*
X159420000Y-71000000D03*
X159420000Y-68460000D03*
X161960000Y-71000000D03*
X161960000Y-68460000D03*
X164500000Y-71000000D03*
X164500000Y-68460000D03*
X167040000Y-71000000D03*
X167040000Y-68460000D03*
D19*
X126000000Y-49250000D03*
X126000000Y-50150000D03*
X124750000Y-49250000D03*
X124750000Y-50150000D03*
D12*
X178400000Y-43500000D03*
X177500000Y-43500000D03*
X176700000Y-41750000D03*
X175800000Y-41750000D03*
X176700000Y-40250000D03*
X175800000Y-40250000D03*
D19*
X126000000Y-47250000D03*
X126000000Y-48150000D03*
X124750000Y-47250000D03*
X124750000Y-48150000D03*
D12*
X178750000Y-40250000D03*
X177850000Y-40250000D03*
X161100000Y-66500000D03*
X162000000Y-66500000D03*
X169950000Y-71000000D03*
X169050000Y-71000000D03*
X169900000Y-68500000D03*
X169000000Y-68500000D03*
D15*
X162175000Y-25850000D03*
X162175000Y-28650000D03*
X181375000Y-30000000D03*
X181375000Y-24500000D03*
X182175000Y-30000000D03*
X182575000Y-30000000D03*
X182975000Y-30000000D03*
X182975000Y-30400000D03*
X182575000Y-30400000D03*
X182175000Y-30400000D03*
X181775000Y-30400000D03*
X181775000Y-24500000D03*
X182175000Y-24500000D03*
X182575000Y-24500000D03*
X182975000Y-24500000D03*
X181375000Y-24100000D03*
X181775000Y-24100000D03*
X182175000Y-24100000D03*
X182575000Y-24100000D03*
X182975000Y-24100000D03*
X183375000Y-30000000D03*
X183375000Y-30400000D03*
X161775000Y-25850000D03*
X161375000Y-25850000D03*
X160975000Y-25850000D03*
X160575000Y-25850000D03*
X160175000Y-25850000D03*
X159775000Y-25850000D03*
X159775000Y-25450000D03*
X160175000Y-25450000D03*
X160575000Y-25450000D03*
X160975000Y-25450000D03*
X161375000Y-25450000D03*
X161775000Y-25450000D03*
X162175000Y-25450000D03*
X161775000Y-28650000D03*
X161375000Y-28650000D03*
X160975000Y-28650000D03*
X160575000Y-28650000D03*
X160175000Y-28650000D03*
X159775000Y-28650000D03*
X159775000Y-29050000D03*
X160175000Y-29050000D03*
X160575000Y-29050000D03*
X160975000Y-29050000D03*
X161375000Y-29050000D03*
X161775000Y-29050000D03*
X162175000Y-29050000D03*
X181775000Y-30000000D03*
X180975000Y-30000000D03*
X180975000Y-30400000D03*
X181375000Y-30400000D03*
X180975000Y-24100000D03*
X180975000Y-24500000D03*
D12*
X163600000Y-66500000D03*
X164500000Y-66500000D03*
D20*
X192500000Y-36250000D03*
X120250000Y-61000000D03*
X192750000Y-61250000D03*
X120000000Y-36000000D03*
X144000000Y-36000000D03*
X171500000Y-36000000D03*
X119750000Y-20750000D03*
X192500000Y-20750000D03*
X156250000Y-20750000D03*
D13*
X178490000Y-56250000D03*
D11*
X186500000Y-55000000D03*
X126500000Y-52000000D03*
D21*
X120985000Y-28685000D03*
X118775000Y-28685000D03*
X118775000Y-25815000D03*
X120985000Y-25815000D03*
D22*
X119046000Y-27885000D03*
X120951000Y-27885000D03*
X121535200Y-27885000D03*
X120316000Y-27885000D03*
X119681000Y-27885000D03*
X118411000Y-27885000D03*
X117776000Y-27885000D03*
X117141000Y-27885000D03*
X117141000Y-26615000D03*
X117776000Y-26615000D03*
X118411000Y-26615000D03*
X119046000Y-26615000D03*
X119681000Y-26615000D03*
X120316000Y-26615000D03*
X120951000Y-26615000D03*
X121535200Y-26615000D03*
X119681000Y-27885000D03*
X119808000Y-28774000D03*
X117776000Y-28774000D03*
X117776000Y-25726000D03*
X119808000Y-25726000D03*
X117268000Y-25218000D03*
X117268000Y-29282000D03*
X117268000Y-29282000D03*
D21*
X191533000Y-25815000D03*
X193743000Y-25815000D03*
X193743000Y-28685000D03*
X191533000Y-28685000D03*
D22*
X193472000Y-26615000D03*
X191567000Y-26615000D03*
X190982800Y-26615000D03*
X192202000Y-26615000D03*
X192837000Y-26615000D03*
X194107000Y-26615000D03*
X194742000Y-26615000D03*
X195377000Y-26615000D03*
X195377000Y-27885000D03*
X194742000Y-27885000D03*
X194107000Y-27885000D03*
X193472000Y-27885000D03*
X192837000Y-27885000D03*
X192202000Y-27885000D03*
X191567000Y-27885000D03*
X190982800Y-27885000D03*
X192837000Y-26615000D03*
X192710000Y-25726000D03*
X194742000Y-25726000D03*
X194742000Y-28774000D03*
X192710000Y-28774000D03*
X195250000Y-29282000D03*
X195250000Y-25218000D03*
X195250000Y-25218000D03*
D21*
X147435000Y-69515000D03*
X147435000Y-71725000D03*
X144565000Y-71725000D03*
X144565000Y-69515000D03*
D22*
X146635000Y-71454000D03*
X146635000Y-69549000D03*
X146635000Y-68964800D03*
X146635000Y-70184000D03*
X146635000Y-70819000D03*
X146635000Y-72089000D03*
X146635000Y-72724000D03*
X146635000Y-73359000D03*
X145365000Y-73359000D03*
X145365000Y-72724000D03*
X145365000Y-72089000D03*
X145365000Y-71454000D03*
X145365000Y-70819000D03*
X145365000Y-70184000D03*
X145365000Y-69549000D03*
X145365000Y-68964800D03*
X146635000Y-70819000D03*
X147524000Y-70692000D03*
X147524000Y-72724000D03*
X144476000Y-72724000D03*
X144476000Y-70692000D03*
X143968000Y-73232000D03*
X148032000Y-73232000D03*
X148032000Y-73232000D03*
D23*
X167450001Y-57450001D03*
X173750000Y-66500000D03*
D24*
X144750000Y-67000000D03*
X147250000Y-67000000D03*
D23*
X124100000Y-42100000D03*
X124299272Y-43549272D03*
X124900000Y-45600000D03*
X125399990Y-46282603D03*
X137750000Y-50500000D03*
X161000000Y-65200000D03*
D24*
X151637500Y-43500000D03*
X150862500Y-43500000D03*
X151637500Y-42600000D03*
X150862500Y-42600000D03*
X150750000Y-45250000D03*
X151750000Y-42000000D03*
X150750000Y-42000000D03*
X150750000Y-41000000D03*
D23*
X151500000Y-45250000D03*
X147500000Y-42500000D03*
X148250000Y-41750000D03*
X154500000Y-41000000D03*
X157500000Y-41500000D03*
X155750000Y-46000000D03*
X154500000Y-46000000D03*
X179500000Y-46000000D03*
X124500000Y-46250000D03*
X124250000Y-40500000D03*
X137000000Y-53000000D03*
X179532950Y-42375010D03*
X180250000Y-42750000D03*
X179547215Y-41023607D03*
X175250000Y-47000000D03*
X178750000Y-67000000D03*
X153750000Y-48250000D03*
X151750000Y-48250000D03*
X156825000Y-51900000D03*
X157675000Y-51900000D03*
X157675000Y-50600000D03*
X156825000Y-50600000D03*
X156750000Y-57500000D03*
X157750000Y-56750000D03*
X159250000Y-51250000D03*
X161500000Y-50500000D03*
X152750000Y-54000000D03*
X152750000Y-52500000D03*
X151750000Y-53250000D03*
X154500000Y-48500000D03*
X152750000Y-47250000D03*
X177000000Y-66000000D03*
X160746454Y-56449991D03*
X166746454Y-56449991D03*
X162746454Y-56449991D03*
X163500000Y-67250000D03*
X165250000Y-45500000D03*
X170500000Y-71000000D03*
X170500000Y-68500000D03*
X134500000Y-71000000D03*
X134500000Y-68500000D03*
X132250000Y-69750000D03*
X182000000Y-68000000D03*
X191000000Y-68000000D03*
X129250000Y-67750000D03*
X120500000Y-67750000D03*
X179500000Y-43500000D03*
X176500000Y-45250000D03*
X182000000Y-46500000D03*
D24*
X184010494Y-47080010D03*
X185500000Y-45419990D03*
X145000000Y-67500000D03*
X144994998Y-66500000D03*
X147000000Y-67500000D03*
X147055002Y-66500000D03*
X128250000Y-32750000D03*
X128250000Y-32250000D03*
X128750000Y-32750000D03*
X127750000Y-32750000D03*
X127500000Y-31000000D03*
X129000000Y-31000000D03*
X127500000Y-34250000D03*
X129000000Y-34250000D03*
X127750000Y-32250000D03*
X128750000Y-32250000D03*
X131000000Y-42750000D03*
X127500000Y-44500000D03*
X127250000Y-40750000D03*
X127500000Y-40250000D03*
X185750000Y-45000000D03*
X185500000Y-44500000D03*
X183500000Y-47500000D03*
X183500000Y-48000000D03*
X184000000Y-48500000D03*
X129250000Y-45000000D03*
X129000000Y-45500000D03*
X129000000Y-44500000D03*
X127000000Y-47250000D03*
X127000000Y-47750000D03*
X127500000Y-48250000D03*
X127500000Y-46750000D03*
X136250000Y-44250000D03*
X185750000Y-44000000D03*
X183768884Y-44056653D03*
X185731116Y-41943347D03*
X183768884Y-41943347D03*
X184000000Y-41250000D03*
X184000000Y-40250000D03*
X183750000Y-40750000D03*
X176250000Y-52500000D03*
X177250000Y-54750000D03*
X177250000Y-52500000D03*
X176750000Y-54250000D03*
X176750000Y-53000000D03*
X185250000Y-43250000D03*
X184250000Y-43250000D03*
X184250000Y-42750000D03*
X185250000Y-42750000D03*
X127750000Y-43250000D03*
X128750000Y-43250000D03*
X128750000Y-42750000D03*
X127750000Y-42750000D03*
X127500000Y-41500000D03*
X129000000Y-41500000D03*
X138750000Y-45000000D03*
X138750000Y-41500000D03*
D23*
X182565694Y-45934306D03*
X187124990Y-43250000D03*
X182565694Y-47065694D03*
X187250000Y-42250000D03*
D24*
X138750000Y-51250000D03*
D23*
X125000000Y-67750000D03*
X175750000Y-55750000D03*
X186500000Y-67750000D03*
X137000000Y-54000000D03*
X151000000Y-49500000D03*
D24*
X178500000Y-55000000D03*
X134500000Y-51500000D03*
D23*
X125250000Y-43250000D03*
X125250000Y-41750000D03*
X181500000Y-44250000D03*
X181250000Y-41750000D03*
X181250000Y-40250000D03*
X158500000Y-44250000D03*
X123500000Y-49000000D03*
X160250000Y-51250000D03*
X161746454Y-56449991D03*
X163500000Y-51000000D03*
X164513883Y-56449991D03*
X126699342Y-50097148D03*
X162101231Y-53851231D03*
X123900000Y-50100000D03*
X164750000Y-48000000D03*
X167800000Y-42500000D03*
X167900000Y-41000000D03*
X157750000Y-47750000D03*
X153500000Y-42000000D03*
X148500000Y-56500000D03*
X140000000Y-71000000D03*
X154250000Y-56500000D03*
D25*
X173750000Y-66500000D02*
X173750000Y-63750000D01*
X173750000Y-63750000D02*
X167450001Y-57450001D01*
D26*
X129250000Y-70750000D02*
X129250000Y-67750000D01*
X161100000Y-66500000D02*
X161100000Y-65300000D01*
X161100000Y-65300000D02*
X161000000Y-65200000D01*
X179550000Y-45250000D02*
X179550000Y-45950000D01*
X179550000Y-45950000D02*
X179500000Y-46000000D01*
D27*
X163600000Y-66500000D02*
X163600000Y-67150000D01*
X163600000Y-67150000D02*
X163500000Y-67250000D01*
X163600000Y-66500000D02*
X163600000Y-66600000D01*
X169950000Y-71000000D02*
X170500000Y-71000000D01*
X169900000Y-68500000D02*
X170500000Y-68500000D01*
D26*
X190880000Y-71000000D02*
X190880000Y-68120000D01*
X190880000Y-68120000D02*
X191000000Y-68000000D01*
X182120000Y-71000000D02*
X182120000Y-68120000D01*
X182120000Y-68120000D02*
X182000000Y-68000000D01*
X120490000Y-70750000D02*
X120490000Y-67760000D01*
X120490000Y-67760000D02*
X120500000Y-67750000D01*
D25*
X151000000Y-49500000D02*
X147500000Y-53000000D01*
X147500000Y-53000000D02*
X139200000Y-53000000D01*
X138200000Y-54000000D02*
X137000000Y-54000000D01*
X139200000Y-53000000D02*
X138200000Y-54000000D01*
D26*
X155460598Y-49900000D02*
X159200000Y-49900000D01*
D25*
X159600000Y-49500000D02*
X159200000Y-49900000D01*
X176250000Y-49500000D02*
X159600000Y-49500000D01*
X154900000Y-49900000D02*
X155460598Y-49900000D01*
X154500000Y-49500000D02*
X154900000Y-49900000D01*
X151000000Y-49500000D02*
X154500000Y-49500000D01*
X176250000Y-49500000D02*
X178500000Y-51750000D01*
X178500000Y-51750000D02*
X178500000Y-55000000D01*
D26*
X126000000Y-44000000D02*
X125250000Y-43250000D01*
X126000000Y-44000000D02*
X126000000Y-47250000D01*
X124650000Y-47250000D02*
X124750000Y-47250000D01*
X123500000Y-46100000D02*
X124650000Y-47250000D01*
X124299999Y-42700001D02*
X123500000Y-43500000D01*
X124724263Y-42700001D02*
X124299999Y-42700001D01*
X125250000Y-42174264D02*
X124724263Y-42700001D01*
X125250000Y-41750000D02*
X125250000Y-42174264D01*
X123500000Y-43500000D02*
X123500000Y-46100000D01*
X178450000Y-45250000D02*
X178450000Y-44190000D01*
X178450000Y-44190000D02*
X178400000Y-44140000D01*
X178510000Y-44250000D02*
X181500000Y-44250000D01*
X178400000Y-43500000D02*
X178400000Y-44140000D01*
X178400000Y-44140000D02*
X178510000Y-44250000D01*
D27*
X178750000Y-41750000D02*
X181250000Y-41750000D01*
X178750000Y-40250000D02*
X181250000Y-40250000D01*
D25*
X162000000Y-43700000D02*
X162000000Y-41600000D01*
X141300000Y-41000000D02*
X140000000Y-39700000D01*
X162000000Y-41600000D02*
X160100000Y-39700000D01*
X147000000Y-41000000D02*
X141300000Y-41000000D01*
X160100000Y-39700000D02*
X148300000Y-39700000D01*
X148300000Y-39700000D02*
X147000000Y-41000000D01*
X140000000Y-39700000D02*
X130400000Y-39700000D01*
D26*
X122900000Y-40600000D02*
X122900000Y-48400000D01*
X122900000Y-48400000D02*
X123500000Y-49000000D01*
X124000000Y-39500000D02*
X122900000Y-40600000D01*
X129000000Y-39500000D02*
X124000000Y-39500000D01*
X129200000Y-39700000D02*
X129000000Y-39500000D01*
X130400000Y-39700000D02*
X129200000Y-39700000D01*
X177500000Y-43500000D02*
X176600000Y-43500000D01*
D25*
X158500000Y-44250000D02*
X161450000Y-44250000D01*
X161450000Y-44250000D02*
X162000000Y-43700000D01*
X162000000Y-43700000D02*
X176400000Y-43700000D01*
X176400000Y-43700000D02*
X176600000Y-43500000D01*
D26*
X159500000Y-60250000D02*
X159500000Y-52000000D01*
X159500000Y-52000000D02*
X160250000Y-51250000D01*
X162000000Y-62750000D02*
X159500000Y-60250000D01*
X162000000Y-66500000D02*
X162000000Y-62750000D01*
X161960000Y-68460000D02*
X161960000Y-66540000D01*
X161960000Y-66540000D02*
X162000000Y-66500000D01*
D27*
X161746454Y-59746454D02*
X161746454Y-56449991D01*
X164500000Y-66500000D02*
X164500000Y-62500000D01*
X164500000Y-62500000D02*
X161746454Y-59746454D01*
X164500000Y-66500000D02*
X164500000Y-68460000D01*
X163500000Y-59750000D02*
X163500000Y-51000000D01*
X167040000Y-71000000D02*
X165750000Y-69710000D01*
X165750000Y-62000000D02*
X163500000Y-59750000D01*
X165750000Y-69710000D02*
X165750000Y-62000000D01*
X169050000Y-71000000D02*
X167040000Y-71000000D01*
X167040000Y-58976108D02*
X164513883Y-56449991D01*
X167040000Y-68460000D02*
X167040000Y-58976108D01*
X167040000Y-68460000D02*
X168960000Y-68460000D01*
X168960000Y-68460000D02*
X169000000Y-68500000D01*
D26*
X126646490Y-50150000D02*
X126699342Y-50097148D01*
X126000000Y-50150000D02*
X126646490Y-50150000D01*
X124750000Y-50150000D02*
X123950000Y-50150000D01*
X123950000Y-50150000D02*
X123900000Y-50100000D01*
D27*
X167800000Y-42500000D02*
X175750000Y-42500000D01*
X175800000Y-41750000D02*
X175800000Y-42450000D01*
X175800000Y-42450000D02*
X175750000Y-42500000D01*
X167900000Y-41000000D02*
X175699998Y-41000000D01*
X175699998Y-41000000D02*
X175800000Y-40899998D01*
X175800000Y-40250000D02*
X175800000Y-40899998D01*
X153200001Y-45950001D02*
X155000000Y-47750000D01*
X155000000Y-47750000D02*
X157750000Y-47750000D01*
X153500000Y-42000000D02*
X153200001Y-42299999D01*
X153200001Y-42299999D02*
X153200001Y-45950001D01*
D25*
X140000000Y-65000000D02*
X140000000Y-71000000D01*
X147000000Y-63000000D02*
X142000000Y-63000000D01*
X142000000Y-63000000D02*
X140000000Y-65000000D01*
X148000000Y-62000000D02*
X147000000Y-63000000D01*
X148000000Y-59250000D02*
X148000000Y-62000000D01*
X148500000Y-58750000D02*
X148000000Y-59250000D01*
X148500000Y-56500000D02*
X148500000Y-58750000D01*
X154250000Y-56500000D02*
X154250000Y-70233600D01*
X154250000Y-70233600D02*
X155016400Y-71000000D01*
X155016400Y-71000000D02*
X156880000Y-71000000D01*
X159420000Y-71000000D02*
X156880000Y-71000000D01*
D26*
X126000000Y-48150000D02*
X126000000Y-49250000D01*
X124750000Y-49250000D02*
X124750000Y-48150000D01*
D27*
X176700000Y-41750000D02*
X177850000Y-41750000D01*
X177850000Y-40250000D02*
X176700000Y-40250000D01*
D28*
G36*
X132123000Y-56623000D02*
X123627000Y-56623000D01*
X123627000Y-51627000D01*
X132123000Y-51627000D01*
X132123000Y-56623000D01*
X132123000Y-56623000D01*
G37*
X132123000Y-56623000D02*
X123627000Y-56623000D01*
X123627000Y-51627000D01*
X132123000Y-51627000D01*
X132123000Y-56623000D01*
G36*
X187873000Y-56123000D02*
X179627000Y-56123000D01*
X179627000Y-55040219D01*
X179635000Y-55000000D01*
X179635000Y-51750000D01*
X179627000Y-51709781D01*
X179627000Y-51127000D01*
X187873000Y-51127000D01*
X187873000Y-56123000D01*
X187873000Y-56123000D01*
G37*
X187873000Y-56123000D02*
X179627000Y-56123000D01*
X179627000Y-55040219D01*
X179635000Y-55000000D01*
X179635000Y-51750000D01*
X179627000Y-51709781D01*
X179627000Y-51127000D01*
X187873000Y-51127000D01*
X187873000Y-56123000D01*
G36*
X154244512Y-50555488D02*
X154545252Y-50756436D01*
X154900000Y-50827000D01*
X155460598Y-50827000D01*
X155815346Y-50756436D01*
X156116086Y-50555488D01*
X156155166Y-50497000D01*
X158505432Y-50497000D01*
X158544512Y-50555488D01*
X158845253Y-50756436D01*
X159200000Y-50827000D01*
X159554747Y-50756436D01*
X159855488Y-50555488D01*
X159983976Y-50427000D01*
X160873000Y-50427000D01*
X160873000Y-50854021D01*
X160866680Y-50838725D01*
X160662350Y-50634039D01*
X160395244Y-50523126D01*
X160106025Y-50522874D01*
X159838725Y-50633320D01*
X159634039Y-50837650D01*
X159523126Y-51104756D01*
X159523102Y-51132612D01*
X159077857Y-51577857D01*
X158948444Y-51771538D01*
X158903000Y-52000000D01*
X158903000Y-58373000D01*
X155177000Y-58373000D01*
X155177000Y-56500000D01*
X155106436Y-56145252D01*
X154905488Y-55844512D01*
X154604748Y-55643564D01*
X154250000Y-55573000D01*
X153895252Y-55643564D01*
X153594512Y-55844512D01*
X153393564Y-56145252D01*
X153323000Y-56500000D01*
X153323000Y-58373000D01*
X149427000Y-58373000D01*
X149427000Y-56500000D01*
X149356436Y-56145252D01*
X149155488Y-55844512D01*
X148854748Y-55643564D01*
X148500000Y-55573000D01*
X148145252Y-55643564D01*
X147844512Y-55844512D01*
X147643564Y-56145252D01*
X147573000Y-56500000D01*
X147573000Y-58366024D01*
X147566024Y-58373000D01*
X146877000Y-58373000D01*
X146877000Y-53927000D01*
X147500000Y-53927000D01*
X147854748Y-53856436D01*
X148155488Y-53655488D01*
X151383976Y-50427000D01*
X154116024Y-50427000D01*
X154244512Y-50555488D01*
X154244512Y-50555488D01*
G37*
X154244512Y-50555488D02*
X154545252Y-50756436D01*
X154900000Y-50827000D01*
X155460598Y-50827000D01*
X155815346Y-50756436D01*
X156116086Y-50555488D01*
X156155166Y-50497000D01*
X158505432Y-50497000D01*
X158544512Y-50555488D01*
X158845253Y-50756436D01*
X159200000Y-50827000D01*
X159554747Y-50756436D01*
X159855488Y-50555488D01*
X159983976Y-50427000D01*
X160873000Y-50427000D01*
X160873000Y-50854021D01*
X160866680Y-50838725D01*
X160662350Y-50634039D01*
X160395244Y-50523126D01*
X160106025Y-50522874D01*
X159838725Y-50633320D01*
X159634039Y-50837650D01*
X159523126Y-51104756D01*
X159523102Y-51132612D01*
X159077857Y-51577857D01*
X158948444Y-51771538D01*
X158903000Y-52000000D01*
X158903000Y-58373000D01*
X155177000Y-58373000D01*
X155177000Y-56500000D01*
X155106436Y-56145252D01*
X154905488Y-55844512D01*
X154604748Y-55643564D01*
X154250000Y-55573000D01*
X153895252Y-55643564D01*
X153594512Y-55844512D01*
X153393564Y-56145252D01*
X153323000Y-56500000D01*
X153323000Y-58373000D01*
X149427000Y-58373000D01*
X149427000Y-56500000D01*
X149356436Y-56145252D01*
X149155488Y-55844512D01*
X148854748Y-55643564D01*
X148500000Y-55573000D01*
X148145252Y-55643564D01*
X147844512Y-55844512D01*
X147643564Y-56145252D01*
X147573000Y-56500000D01*
X147573000Y-58366024D01*
X147566024Y-58373000D01*
X146877000Y-58373000D01*
X146877000Y-53927000D01*
X147500000Y-53927000D01*
X147854748Y-53856436D01*
X148155488Y-53655488D01*
X151383976Y-50427000D01*
X154116024Y-50427000D01*
X154244512Y-50555488D01*
G36*
X160873000Y-58373000D02*
X160097000Y-58373000D01*
X160097000Y-52247286D01*
X160367183Y-51977103D01*
X160393975Y-51977126D01*
X160661275Y-51866680D01*
X160865961Y-51662350D01*
X160873000Y-51645398D01*
X160873000Y-58373000D01*
X160873000Y-58373000D01*
G37*
X160873000Y-58373000D02*
X160097000Y-58373000D01*
X160097000Y-52247286D01*
X160367183Y-51977103D01*
X160393975Y-51977126D01*
X160661275Y-51866680D01*
X160865961Y-51662350D01*
X160873000Y-51645398D01*
X160873000Y-58373000D01*
G36*
X160873000Y-41783976D02*
X160873000Y-43323000D01*
X158500000Y-43323000D01*
X158145252Y-43393564D01*
X157844512Y-43594512D01*
X157643564Y-43895252D01*
X157573000Y-44250000D01*
X157643564Y-44604748D01*
X157844512Y-44905488D01*
X158145252Y-45106436D01*
X158500000Y-45177000D01*
X160873000Y-45177000D01*
X160873000Y-48573000D01*
X159600000Y-48573000D01*
X159245252Y-48643564D01*
X159051726Y-48772874D01*
X158944512Y-48844512D01*
X158544512Y-49244512D01*
X158505432Y-49303000D01*
X156155166Y-49303000D01*
X156116086Y-49244512D01*
X155815346Y-49043564D01*
X155460598Y-48973000D01*
X155283976Y-48973000D01*
X155155488Y-48844512D01*
X155048274Y-48772874D01*
X154854748Y-48643564D01*
X154500000Y-48573000D01*
X151000000Y-48573000D01*
X150645252Y-48643564D01*
X150451726Y-48772874D01*
X150344512Y-48844512D01*
X147116024Y-52073000D01*
X146877000Y-52073000D01*
X146877000Y-42299999D01*
X152648001Y-42299999D01*
X152648001Y-45950001D01*
X152690019Y-46161243D01*
X152809678Y-46340324D01*
X154609677Y-48140323D01*
X154788758Y-48259982D01*
X155000000Y-48302000D01*
X157273800Y-48302000D01*
X157337650Y-48365961D01*
X157604756Y-48476874D01*
X157893975Y-48477126D01*
X158161275Y-48366680D01*
X158365961Y-48162350D01*
X158476874Y-47895244D01*
X158477126Y-47606025D01*
X158366680Y-47338725D01*
X158162350Y-47134039D01*
X157895244Y-47023126D01*
X157606025Y-47022874D01*
X157338725Y-47133320D01*
X157273932Y-47198000D01*
X155228646Y-47198000D01*
X153752001Y-45721355D01*
X153752001Y-42682491D01*
X153911275Y-42616680D01*
X154115961Y-42412350D01*
X154226874Y-42145244D01*
X154227126Y-41856025D01*
X154116680Y-41588725D01*
X153912350Y-41384039D01*
X153645244Y-41273126D01*
X153356025Y-41272874D01*
X153088725Y-41383320D01*
X152884039Y-41587650D01*
X152773126Y-41854756D01*
X152773030Y-41964523D01*
X152690019Y-42088757D01*
X152675381Y-42162350D01*
X152648001Y-42299999D01*
X146877000Y-42299999D01*
X146877000Y-41927000D01*
X147000000Y-41927000D01*
X147354748Y-41856436D01*
X147655488Y-41655488D01*
X148683976Y-40627000D01*
X159716024Y-40627000D01*
X160873000Y-41783976D01*
X160873000Y-41783976D01*
G37*
X160873000Y-41783976D02*
X160873000Y-43323000D01*
X158500000Y-43323000D01*
X158145252Y-43393564D01*
X157844512Y-43594512D01*
X157643564Y-43895252D01*
X157573000Y-44250000D01*
X157643564Y-44604748D01*
X157844512Y-44905488D01*
X158145252Y-45106436D01*
X158500000Y-45177000D01*
X160873000Y-45177000D01*
X160873000Y-48573000D01*
X159600000Y-48573000D01*
X159245252Y-48643564D01*
X159051726Y-48772874D01*
X158944512Y-48844512D01*
X158544512Y-49244512D01*
X158505432Y-49303000D01*
X156155166Y-49303000D01*
X156116086Y-49244512D01*
X155815346Y-49043564D01*
X155460598Y-48973000D01*
X155283976Y-48973000D01*
X155155488Y-48844512D01*
X155048274Y-48772874D01*
X154854748Y-48643564D01*
X154500000Y-48573000D01*
X151000000Y-48573000D01*
X150645252Y-48643564D01*
X150451726Y-48772874D01*
X150344512Y-48844512D01*
X147116024Y-52073000D01*
X146877000Y-52073000D01*
X146877000Y-42299999D01*
X152648001Y-42299999D01*
X152648001Y-45950001D01*
X152690019Y-46161243D01*
X152809678Y-46340324D01*
X154609677Y-48140323D01*
X154788758Y-48259982D01*
X155000000Y-48302000D01*
X157273800Y-48302000D01*
X157337650Y-48365961D01*
X157604756Y-48476874D01*
X157893975Y-48477126D01*
X158161275Y-48366680D01*
X158365961Y-48162350D01*
X158476874Y-47895244D01*
X158477126Y-47606025D01*
X158366680Y-47338725D01*
X158162350Y-47134039D01*
X157895244Y-47023126D01*
X157606025Y-47022874D01*
X157338725Y-47133320D01*
X157273932Y-47198000D01*
X155228646Y-47198000D01*
X153752001Y-45721355D01*
X153752001Y-42682491D01*
X153911275Y-42616680D01*
X154115961Y-42412350D01*
X154226874Y-42145244D01*
X154227126Y-41856025D01*
X154116680Y-41588725D01*
X153912350Y-41384039D01*
X153645244Y-41273126D01*
X153356025Y-41272874D01*
X153088725Y-41383320D01*
X152884039Y-41587650D01*
X152773126Y-41854756D01*
X152773030Y-41964523D01*
X152690019Y-42088757D01*
X152675381Y-42162350D01*
X152648001Y-42299999D01*
X146877000Y-42299999D01*
X146877000Y-41927000D01*
X147000000Y-41927000D01*
X147354748Y-41856436D01*
X147655488Y-41655488D01*
X148683976Y-40627000D01*
X159716024Y-40627000D01*
X160873000Y-41783976D01*
G36*
X194841142Y-18529963D02*
X194918408Y-18581592D01*
X194970037Y-18658858D01*
X194998000Y-18799441D01*
X194998000Y-38623000D01*
X161000000Y-38623000D01*
X160950590Y-38633006D01*
X160908965Y-38661447D01*
X160881685Y-38703841D01*
X160873000Y-38750000D01*
X160873000Y-39162024D01*
X160755488Y-39044512D01*
X160543700Y-38903000D01*
X160454748Y-38843564D01*
X160100000Y-38773000D01*
X148300000Y-38773000D01*
X147945253Y-38843563D01*
X147644512Y-39044512D01*
X146877000Y-39812024D01*
X146877000Y-38750000D01*
X146866994Y-38700590D01*
X146838553Y-38658965D01*
X146796159Y-38631685D01*
X146750000Y-38623000D01*
X117502000Y-38623000D01*
X117502000Y-36332112D01*
X118322710Y-36332112D01*
X118577480Y-36948703D01*
X119048816Y-37420862D01*
X119664961Y-37676708D01*
X120332112Y-37677290D01*
X120948703Y-37422520D01*
X121420862Y-36951184D01*
X121676708Y-36335039D01*
X121676710Y-36332112D01*
X142322710Y-36332112D01*
X142577480Y-36948703D01*
X143048816Y-37420862D01*
X143664961Y-37676708D01*
X144332112Y-37677290D01*
X144948703Y-37422520D01*
X145420862Y-36951184D01*
X145676708Y-36335039D01*
X145676710Y-36332112D01*
X169822710Y-36332112D01*
X170077480Y-36948703D01*
X170548816Y-37420862D01*
X171164961Y-37676708D01*
X171832112Y-37677290D01*
X172448703Y-37422520D01*
X172920862Y-36951184D01*
X173074114Y-36582112D01*
X190822710Y-36582112D01*
X191077480Y-37198703D01*
X191548816Y-37670862D01*
X192164961Y-37926708D01*
X192832112Y-37927290D01*
X193448703Y-37672520D01*
X193920862Y-37201184D01*
X194176708Y-36585039D01*
X194177290Y-35917888D01*
X193922520Y-35301297D01*
X193451184Y-34829138D01*
X192835039Y-34573292D01*
X192167888Y-34572710D01*
X191551297Y-34827480D01*
X191079138Y-35298816D01*
X190823292Y-35914961D01*
X190822710Y-36582112D01*
X173074114Y-36582112D01*
X173176708Y-36335039D01*
X173177290Y-35667888D01*
X172922520Y-35051297D01*
X172451184Y-34579138D01*
X171835039Y-34323292D01*
X171167888Y-34322710D01*
X170551297Y-34577480D01*
X170079138Y-35048816D01*
X169823292Y-35664961D01*
X169822710Y-36332112D01*
X145676710Y-36332112D01*
X145677290Y-35667888D01*
X145422520Y-35051297D01*
X144951184Y-34579138D01*
X144335039Y-34323292D01*
X143667888Y-34322710D01*
X143051297Y-34577480D01*
X142579138Y-35048816D01*
X142323292Y-35664961D01*
X142322710Y-36332112D01*
X121676710Y-36332112D01*
X121677290Y-35667888D01*
X121422520Y-35051297D01*
X120951184Y-34579138D01*
X120335039Y-34323292D01*
X119667888Y-34322710D01*
X119051297Y-34577480D01*
X118579138Y-35048816D01*
X118323292Y-35664961D01*
X118322710Y-36332112D01*
X117502000Y-36332112D01*
X117502000Y-26150000D01*
X128948000Y-26150000D01*
X128948000Y-28350000D01*
X128986212Y-28542107D01*
X129095032Y-28704968D01*
X129257893Y-28813788D01*
X129450000Y-28852000D01*
X131948000Y-28852000D01*
X131948000Y-30500000D01*
X131986212Y-30692107D01*
X132095032Y-30854968D01*
X132257893Y-30963788D01*
X132450000Y-31002000D01*
X150400000Y-31002000D01*
X150592107Y-30963788D01*
X150754968Y-30854968D01*
X150863788Y-30692107D01*
X150902000Y-30500000D01*
X150902000Y-28852000D01*
X153400000Y-28852000D01*
X153592107Y-28813788D01*
X153754968Y-28704968D01*
X153863788Y-28542107D01*
X153902000Y-28350000D01*
X153902000Y-26150000D01*
X159098000Y-26150000D01*
X159098000Y-28350000D01*
X159136212Y-28542107D01*
X159245032Y-28704968D01*
X159407893Y-28813788D01*
X159600000Y-28852000D01*
X162098000Y-28852000D01*
X162098000Y-30500000D01*
X162136212Y-30692107D01*
X162245032Y-30854968D01*
X162407893Y-30963788D01*
X162600000Y-31002000D01*
X180600000Y-31002000D01*
X180792107Y-30963788D01*
X180954968Y-30854968D01*
X181063788Y-30692107D01*
X181102000Y-30500000D01*
X181102000Y-28852000D01*
X183550000Y-28852000D01*
X183742107Y-28813788D01*
X183904968Y-28704968D01*
X184013788Y-28542107D01*
X184052000Y-28350000D01*
X184052000Y-26150000D01*
X184013788Y-25957893D01*
X183904968Y-25795032D01*
X183742107Y-25686212D01*
X183550000Y-25648000D01*
X181052000Y-25648000D01*
X181052000Y-24000000D01*
X181013788Y-23807893D01*
X180904968Y-23645032D01*
X180742107Y-23536212D01*
X180550000Y-23498000D01*
X162600000Y-23498000D01*
X162407893Y-23536212D01*
X162245032Y-23645032D01*
X162136212Y-23807893D01*
X162098000Y-24000000D01*
X162098000Y-25648000D01*
X159600000Y-25648000D01*
X159407893Y-25686212D01*
X159245032Y-25795032D01*
X159136212Y-25957893D01*
X159098000Y-26150000D01*
X153902000Y-26150000D01*
X153863788Y-25957893D01*
X153754968Y-25795032D01*
X153592107Y-25686212D01*
X153400000Y-25648000D01*
X150902000Y-25648000D01*
X150902000Y-24000000D01*
X150863788Y-23807893D01*
X150754968Y-23645032D01*
X150592107Y-23536212D01*
X150400000Y-23498000D01*
X132450000Y-23498000D01*
X132257893Y-23536212D01*
X132095032Y-23645032D01*
X131986212Y-23807893D01*
X131948000Y-24000000D01*
X131948000Y-25648000D01*
X129450000Y-25648000D01*
X129257893Y-25686212D01*
X129095032Y-25795032D01*
X128986212Y-25957893D01*
X128948000Y-26150000D01*
X117502000Y-26150000D01*
X117502000Y-21082112D01*
X118072710Y-21082112D01*
X118327480Y-21698703D01*
X118798816Y-22170862D01*
X119414961Y-22426708D01*
X120082112Y-22427290D01*
X120698703Y-22172520D01*
X121170862Y-21701184D01*
X121426708Y-21085039D01*
X121426710Y-21082112D01*
X154572710Y-21082112D01*
X154827480Y-21698703D01*
X155298816Y-22170862D01*
X155914961Y-22426708D01*
X156582112Y-22427290D01*
X157198703Y-22172520D01*
X157670862Y-21701184D01*
X157926708Y-21085039D01*
X157926710Y-21082112D01*
X190822710Y-21082112D01*
X191077480Y-21698703D01*
X191548816Y-22170862D01*
X192164961Y-22426708D01*
X192832112Y-22427290D01*
X193448703Y-22172520D01*
X193920862Y-21701184D01*
X194176708Y-21085039D01*
X194177290Y-20417888D01*
X193922520Y-19801297D01*
X193451184Y-19329138D01*
X192835039Y-19073292D01*
X192167888Y-19072710D01*
X191551297Y-19327480D01*
X191079138Y-19798816D01*
X190823292Y-20414961D01*
X190822710Y-21082112D01*
X157926710Y-21082112D01*
X157927290Y-20417888D01*
X157672520Y-19801297D01*
X157201184Y-19329138D01*
X156585039Y-19073292D01*
X155917888Y-19072710D01*
X155301297Y-19327480D01*
X154829138Y-19798816D01*
X154573292Y-20414961D01*
X154572710Y-21082112D01*
X121426710Y-21082112D01*
X121427290Y-20417888D01*
X121172520Y-19801297D01*
X120701184Y-19329138D01*
X120085039Y-19073292D01*
X119417888Y-19072710D01*
X118801297Y-19327480D01*
X118329138Y-19798816D01*
X118073292Y-20414961D01*
X118072710Y-21082112D01*
X117502000Y-21082112D01*
X117502000Y-18799441D01*
X117529963Y-18658858D01*
X117581592Y-18581592D01*
X117658858Y-18529963D01*
X117799441Y-18502000D01*
X194700559Y-18502000D01*
X194841142Y-18529963D01*
X194841142Y-18529963D01*
G37*
X194841142Y-18529963D02*
X194918408Y-18581592D01*
X194970037Y-18658858D01*
X194998000Y-18799441D01*
X194998000Y-38623000D01*
X161000000Y-38623000D01*
X160950590Y-38633006D01*
X160908965Y-38661447D01*
X160881685Y-38703841D01*
X160873000Y-38750000D01*
X160873000Y-39162024D01*
X160755488Y-39044512D01*
X160543700Y-38903000D01*
X160454748Y-38843564D01*
X160100000Y-38773000D01*
X148300000Y-38773000D01*
X147945253Y-38843563D01*
X147644512Y-39044512D01*
X146877000Y-39812024D01*
X146877000Y-38750000D01*
X146866994Y-38700590D01*
X146838553Y-38658965D01*
X146796159Y-38631685D01*
X146750000Y-38623000D01*
X117502000Y-38623000D01*
X117502000Y-36332112D01*
X118322710Y-36332112D01*
X118577480Y-36948703D01*
X119048816Y-37420862D01*
X119664961Y-37676708D01*
X120332112Y-37677290D01*
X120948703Y-37422520D01*
X121420862Y-36951184D01*
X121676708Y-36335039D01*
X121676710Y-36332112D01*
X142322710Y-36332112D01*
X142577480Y-36948703D01*
X143048816Y-37420862D01*
X143664961Y-37676708D01*
X144332112Y-37677290D01*
X144948703Y-37422520D01*
X145420862Y-36951184D01*
X145676708Y-36335039D01*
X145676710Y-36332112D01*
X169822710Y-36332112D01*
X170077480Y-36948703D01*
X170548816Y-37420862D01*
X171164961Y-37676708D01*
X171832112Y-37677290D01*
X172448703Y-37422520D01*
X172920862Y-36951184D01*
X173074114Y-36582112D01*
X190822710Y-36582112D01*
X191077480Y-37198703D01*
X191548816Y-37670862D01*
X192164961Y-37926708D01*
X192832112Y-37927290D01*
X193448703Y-37672520D01*
X193920862Y-37201184D01*
X194176708Y-36585039D01*
X194177290Y-35917888D01*
X193922520Y-35301297D01*
X193451184Y-34829138D01*
X192835039Y-34573292D01*
X192167888Y-34572710D01*
X191551297Y-34827480D01*
X191079138Y-35298816D01*
X190823292Y-35914961D01*
X190822710Y-36582112D01*
X173074114Y-36582112D01*
X173176708Y-36335039D01*
X173177290Y-35667888D01*
X172922520Y-35051297D01*
X172451184Y-34579138D01*
X171835039Y-34323292D01*
X171167888Y-34322710D01*
X170551297Y-34577480D01*
X170079138Y-35048816D01*
X169823292Y-35664961D01*
X169822710Y-36332112D01*
X145676710Y-36332112D01*
X145677290Y-35667888D01*
X145422520Y-35051297D01*
X144951184Y-34579138D01*
X144335039Y-34323292D01*
X143667888Y-34322710D01*
X143051297Y-34577480D01*
X142579138Y-35048816D01*
X142323292Y-35664961D01*
X142322710Y-36332112D01*
X121676710Y-36332112D01*
X121677290Y-35667888D01*
X121422520Y-35051297D01*
X120951184Y-34579138D01*
X120335039Y-34323292D01*
X119667888Y-34322710D01*
X119051297Y-34577480D01*
X118579138Y-35048816D01*
X118323292Y-35664961D01*
X118322710Y-36332112D01*
X117502000Y-36332112D01*
X117502000Y-26150000D01*
X128948000Y-26150000D01*
X128948000Y-28350000D01*
X128986212Y-28542107D01*
X129095032Y-28704968D01*
X129257893Y-28813788D01*
X129450000Y-28852000D01*
X131948000Y-28852000D01*
X131948000Y-30500000D01*
X131986212Y-30692107D01*
X132095032Y-30854968D01*
X132257893Y-30963788D01*
X132450000Y-31002000D01*
X150400000Y-31002000D01*
X150592107Y-30963788D01*
X150754968Y-30854968D01*
X150863788Y-30692107D01*
X150902000Y-30500000D01*
X150902000Y-28852000D01*
X153400000Y-28852000D01*
X153592107Y-28813788D01*
X153754968Y-28704968D01*
X153863788Y-28542107D01*
X153902000Y-28350000D01*
X153902000Y-26150000D01*
X159098000Y-26150000D01*
X159098000Y-28350000D01*
X159136212Y-28542107D01*
X159245032Y-28704968D01*
X159407893Y-28813788D01*
X159600000Y-28852000D01*
X162098000Y-28852000D01*
X162098000Y-30500000D01*
X162136212Y-30692107D01*
X162245032Y-30854968D01*
X162407893Y-30963788D01*
X162600000Y-31002000D01*
X180600000Y-31002000D01*
X180792107Y-30963788D01*
X180954968Y-30854968D01*
X181063788Y-30692107D01*
X181102000Y-30500000D01*
X181102000Y-28852000D01*
X183550000Y-28852000D01*
X183742107Y-28813788D01*
X183904968Y-28704968D01*
X184013788Y-28542107D01*
X184052000Y-28350000D01*
X184052000Y-26150000D01*
X184013788Y-25957893D01*
X183904968Y-25795032D01*
X183742107Y-25686212D01*
X183550000Y-25648000D01*
X181052000Y-25648000D01*
X181052000Y-24000000D01*
X181013788Y-23807893D01*
X180904968Y-23645032D01*
X180742107Y-23536212D01*
X180550000Y-23498000D01*
X162600000Y-23498000D01*
X162407893Y-23536212D01*
X162245032Y-23645032D01*
X162136212Y-23807893D01*
X162098000Y-24000000D01*
X162098000Y-25648000D01*
X159600000Y-25648000D01*
X159407893Y-25686212D01*
X159245032Y-25795032D01*
X159136212Y-25957893D01*
X159098000Y-26150000D01*
X153902000Y-26150000D01*
X153863788Y-25957893D01*
X153754968Y-25795032D01*
X153592107Y-25686212D01*
X153400000Y-25648000D01*
X150902000Y-25648000D01*
X150902000Y-24000000D01*
X150863788Y-23807893D01*
X150754968Y-23645032D01*
X150592107Y-23536212D01*
X150400000Y-23498000D01*
X132450000Y-23498000D01*
X132257893Y-23536212D01*
X132095032Y-23645032D01*
X131986212Y-23807893D01*
X131948000Y-24000000D01*
X131948000Y-25648000D01*
X129450000Y-25648000D01*
X129257893Y-25686212D01*
X129095032Y-25795032D01*
X128986212Y-25957893D01*
X128948000Y-26150000D01*
X117502000Y-26150000D01*
X117502000Y-21082112D01*
X118072710Y-21082112D01*
X118327480Y-21698703D01*
X118798816Y-22170862D01*
X119414961Y-22426708D01*
X120082112Y-22427290D01*
X120698703Y-22172520D01*
X121170862Y-21701184D01*
X121426708Y-21085039D01*
X121426710Y-21082112D01*
X154572710Y-21082112D01*
X154827480Y-21698703D01*
X155298816Y-22170862D01*
X155914961Y-22426708D01*
X156582112Y-22427290D01*
X157198703Y-22172520D01*
X157670862Y-21701184D01*
X157926708Y-21085039D01*
X157926710Y-21082112D01*
X190822710Y-21082112D01*
X191077480Y-21698703D01*
X191548816Y-22170862D01*
X192164961Y-22426708D01*
X192832112Y-22427290D01*
X193448703Y-22172520D01*
X193920862Y-21701184D01*
X194176708Y-21085039D01*
X194177290Y-20417888D01*
X193922520Y-19801297D01*
X193451184Y-19329138D01*
X192835039Y-19073292D01*
X192167888Y-19072710D01*
X191551297Y-19327480D01*
X191079138Y-19798816D01*
X190823292Y-20414961D01*
X190822710Y-21082112D01*
X157926710Y-21082112D01*
X157927290Y-20417888D01*
X157672520Y-19801297D01*
X157201184Y-19329138D01*
X156585039Y-19073292D01*
X155917888Y-19072710D01*
X155301297Y-19327480D01*
X154829138Y-19798816D01*
X154573292Y-20414961D01*
X154572710Y-21082112D01*
X121426710Y-21082112D01*
X121427290Y-20417888D01*
X121172520Y-19801297D01*
X120701184Y-19329138D01*
X120085039Y-19073292D01*
X119417888Y-19072710D01*
X118801297Y-19327480D01*
X118329138Y-19798816D01*
X118073292Y-20414961D01*
X118072710Y-21082112D01*
X117502000Y-21082112D01*
X117502000Y-18799441D01*
X117529963Y-18658858D01*
X117581592Y-18581592D01*
X117658858Y-18529963D01*
X117799441Y-18502000D01*
X194700559Y-18502000D01*
X194841142Y-18529963D01*
G36*
X175023126Y-55604756D02*
X175022874Y-55893975D01*
X175133320Y-56161275D01*
X175337650Y-56365961D01*
X175604756Y-56476874D01*
X175893975Y-56477126D01*
X176161275Y-56366680D01*
X176365961Y-56162350D01*
X176476874Y-55895244D01*
X176477126Y-55606025D01*
X176382495Y-55377000D01*
X177623000Y-55377000D01*
X177623000Y-57000000D01*
X177633006Y-57049410D01*
X177661447Y-57091035D01*
X177703841Y-57118315D01*
X177750000Y-57127000D01*
X179463018Y-57127000D01*
X182170053Y-58849659D01*
X191873000Y-68552606D01*
X191873000Y-72998000D01*
X181127000Y-72998000D01*
X181127000Y-68500000D01*
X181116994Y-68450590D01*
X181094398Y-68415041D01*
X180625439Y-67893975D01*
X185772874Y-67893975D01*
X185883320Y-68161275D01*
X186087650Y-68365961D01*
X186354756Y-68476874D01*
X186643975Y-68477126D01*
X186911275Y-68366680D01*
X187115961Y-68162350D01*
X187226874Y-67895244D01*
X187227126Y-67606025D01*
X187116680Y-67338725D01*
X186912350Y-67134039D01*
X186645244Y-67023126D01*
X186356025Y-67022874D01*
X186088725Y-67133320D01*
X185884039Y-67337650D01*
X185773126Y-67604756D01*
X185772874Y-67893975D01*
X180625439Y-67893975D01*
X176594398Y-63415041D01*
X176589803Y-63410197D01*
X172627000Y-59447394D01*
X172627000Y-56559483D01*
X174045980Y-55377000D01*
X175117699Y-55377000D01*
X175023126Y-55604756D01*
X175023126Y-55604756D01*
G37*
X175023126Y-55604756D02*
X175022874Y-55893975D01*
X175133320Y-56161275D01*
X175337650Y-56365961D01*
X175604756Y-56476874D01*
X175893975Y-56477126D01*
X176161275Y-56366680D01*
X176365961Y-56162350D01*
X176476874Y-55895244D01*
X176477126Y-55606025D01*
X176382495Y-55377000D01*
X177623000Y-55377000D01*
X177623000Y-57000000D01*
X177633006Y-57049410D01*
X177661447Y-57091035D01*
X177703841Y-57118315D01*
X177750000Y-57127000D01*
X179463018Y-57127000D01*
X182170053Y-58849659D01*
X191873000Y-68552606D01*
X191873000Y-72998000D01*
X181127000Y-72998000D01*
X181127000Y-68500000D01*
X181116994Y-68450590D01*
X181094398Y-68415041D01*
X180625439Y-67893975D01*
X185772874Y-67893975D01*
X185883320Y-68161275D01*
X186087650Y-68365961D01*
X186354756Y-68476874D01*
X186643975Y-68477126D01*
X186911275Y-68366680D01*
X187115961Y-68162350D01*
X187226874Y-67895244D01*
X187227126Y-67606025D01*
X187116680Y-67338725D01*
X186912350Y-67134039D01*
X186645244Y-67023126D01*
X186356025Y-67022874D01*
X186088725Y-67133320D01*
X185884039Y-67337650D01*
X185773126Y-67604756D01*
X185772874Y-67893975D01*
X180625439Y-67893975D01*
X176594398Y-63415041D01*
X176589803Y-63410197D01*
X172627000Y-59447394D01*
X172627000Y-56559483D01*
X174045980Y-55377000D01*
X175117699Y-55377000D01*
X175023126Y-55604756D01*
G36*
X139873000Y-51873000D02*
X139028139Y-51873000D01*
X139135817Y-51828508D01*
X139327834Y-51636826D01*
X139431881Y-51386253D01*
X139432118Y-51114937D01*
X139328508Y-50864183D01*
X139136826Y-50672166D01*
X138886253Y-50568119D01*
X138614937Y-50567882D01*
X138364183Y-50671492D01*
X138172166Y-50863174D01*
X138068119Y-51113747D01*
X138067882Y-51385063D01*
X138171492Y-51635817D01*
X138363174Y-51827834D01*
X138481143Y-51876819D01*
X138450590Y-51883006D01*
X138410197Y-51910197D01*
X137910197Y-52410197D01*
X137899337Y-52422567D01*
X137399004Y-53073000D01*
X137000000Y-53073000D01*
X136645252Y-53143564D01*
X136344512Y-53344512D01*
X136143564Y-53645252D01*
X136073000Y-54000000D01*
X136143564Y-54354748D01*
X136268832Y-54542224D01*
X135399337Y-55672567D01*
X135377142Y-55717831D01*
X135373000Y-55750000D01*
X135373000Y-60697394D01*
X130410197Y-65660197D01*
X130382334Y-65702211D01*
X130373000Y-65750000D01*
X130373000Y-72998000D01*
X119377000Y-72998000D01*
X119377000Y-67893975D01*
X124272874Y-67893975D01*
X124383320Y-68161275D01*
X124587650Y-68365961D01*
X124854756Y-68476874D01*
X125143975Y-68477126D01*
X125411275Y-68366680D01*
X125615961Y-68162350D01*
X125726874Y-67895244D01*
X125727126Y-67606025D01*
X125616680Y-67338725D01*
X125412350Y-67134039D01*
X125145244Y-67023126D01*
X124856025Y-67022874D01*
X124588725Y-67133320D01*
X124384039Y-67337650D01*
X124273126Y-67604756D01*
X124272874Y-67893975D01*
X119377000Y-67893975D01*
X119377000Y-67302606D01*
X129052606Y-57627000D01*
X132000000Y-57627000D01*
X132049410Y-57616994D01*
X132089803Y-57589803D01*
X133089803Y-56589803D01*
X133117666Y-56547789D01*
X133127000Y-56500000D01*
X133127000Y-51807628D01*
X133932844Y-51102514D01*
X133922166Y-51113174D01*
X133818119Y-51363747D01*
X133817882Y-51635063D01*
X133921492Y-51885817D01*
X134113174Y-52077834D01*
X134363747Y-52181881D01*
X134635063Y-52182118D01*
X134885817Y-52078508D01*
X135077834Y-51886826D01*
X135181881Y-51636253D01*
X135182118Y-51364937D01*
X135078508Y-51114183D01*
X134886826Y-50922166D01*
X134636253Y-50818119D01*
X134364937Y-50817882D01*
X134162582Y-50901494D01*
X135047718Y-50127000D01*
X139873000Y-50127000D01*
X139873000Y-51873000D01*
X139873000Y-51873000D01*
G37*
X139873000Y-51873000D02*
X139028139Y-51873000D01*
X139135817Y-51828508D01*
X139327834Y-51636826D01*
X139431881Y-51386253D01*
X139432118Y-51114937D01*
X139328508Y-50864183D01*
X139136826Y-50672166D01*
X138886253Y-50568119D01*
X138614937Y-50567882D01*
X138364183Y-50671492D01*
X138172166Y-50863174D01*
X138068119Y-51113747D01*
X138067882Y-51385063D01*
X138171492Y-51635817D01*
X138363174Y-51827834D01*
X138481143Y-51876819D01*
X138450590Y-51883006D01*
X138410197Y-51910197D01*
X137910197Y-52410197D01*
X137899337Y-52422567D01*
X137399004Y-53073000D01*
X137000000Y-53073000D01*
X136645252Y-53143564D01*
X136344512Y-53344512D01*
X136143564Y-53645252D01*
X136073000Y-54000000D01*
X136143564Y-54354748D01*
X136268832Y-54542224D01*
X135399337Y-55672567D01*
X135377142Y-55717831D01*
X135373000Y-55750000D01*
X135373000Y-60697394D01*
X130410197Y-65660197D01*
X130382334Y-65702211D01*
X130373000Y-65750000D01*
X130373000Y-72998000D01*
X119377000Y-72998000D01*
X119377000Y-67893975D01*
X124272874Y-67893975D01*
X124383320Y-68161275D01*
X124587650Y-68365961D01*
X124854756Y-68476874D01*
X125143975Y-68477126D01*
X125411275Y-68366680D01*
X125615961Y-68162350D01*
X125726874Y-67895244D01*
X125727126Y-67606025D01*
X125616680Y-67338725D01*
X125412350Y-67134039D01*
X125145244Y-67023126D01*
X124856025Y-67022874D01*
X124588725Y-67133320D01*
X124384039Y-67337650D01*
X124273126Y-67604756D01*
X124272874Y-67893975D01*
X119377000Y-67893975D01*
X119377000Y-67302606D01*
X129052606Y-57627000D01*
X132000000Y-57627000D01*
X132049410Y-57616994D01*
X132089803Y-57589803D01*
X133089803Y-56589803D01*
X133117666Y-56547789D01*
X133127000Y-56500000D01*
X133127000Y-51807628D01*
X133932844Y-51102514D01*
X133922166Y-51113174D01*
X133818119Y-51363747D01*
X133817882Y-51635063D01*
X133921492Y-51885817D01*
X134113174Y-52077834D01*
X134363747Y-52181881D01*
X134635063Y-52182118D01*
X134885817Y-52078508D01*
X135077834Y-51886826D01*
X135181881Y-51636253D01*
X135182118Y-51364937D01*
X135078508Y-51114183D01*
X134886826Y-50922166D01*
X134636253Y-50818119D01*
X134364937Y-50817882D01*
X134162582Y-50901494D01*
X135047718Y-50127000D01*
X139873000Y-50127000D01*
X139873000Y-51873000D01*
G36*
X188623000Y-48623000D02*
X180377000Y-48623000D01*
X180377000Y-46078281D01*
X181838568Y-46078281D01*
X181949014Y-46345581D01*
X182103254Y-46500090D01*
X181949733Y-46653344D01*
X181838820Y-46920450D01*
X181838568Y-47209669D01*
X181949014Y-47476969D01*
X182153344Y-47681655D01*
X182420450Y-47792568D01*
X182709669Y-47792820D01*
X182976969Y-47682374D01*
X183181655Y-47478044D01*
X183292568Y-47210938D01*
X183292820Y-46921719D01*
X183182374Y-46654419D01*
X183028134Y-46499910D01*
X183181655Y-46346656D01*
X183292568Y-46079550D01*
X183292820Y-45790331D01*
X183182374Y-45523031D01*
X182978044Y-45318345D01*
X182710938Y-45207432D01*
X182421719Y-45207180D01*
X182154419Y-45317626D01*
X181949733Y-45521956D01*
X181838820Y-45789062D01*
X181838568Y-46078281D01*
X180377000Y-46078281D01*
X180377000Y-44877000D01*
X181114235Y-44877000D01*
X181354756Y-44976874D01*
X181643975Y-44977126D01*
X181886299Y-44877000D01*
X183000000Y-44877000D01*
X183049410Y-44866994D01*
X183091035Y-44838553D01*
X183118315Y-44796159D01*
X183127000Y-44750000D01*
X183127000Y-43393975D01*
X186397864Y-43393975D01*
X186508310Y-43661275D01*
X186712640Y-43865961D01*
X186979746Y-43976874D01*
X187268965Y-43977126D01*
X187536265Y-43866680D01*
X187740951Y-43662350D01*
X187851864Y-43395244D01*
X187852116Y-43106025D01*
X187741670Y-42838725D01*
X187715520Y-42812529D01*
X187865961Y-42662350D01*
X187976874Y-42395244D01*
X187977126Y-42106025D01*
X187866680Y-41838725D01*
X187662350Y-41634039D01*
X187395244Y-41523126D01*
X187106025Y-41522874D01*
X186838725Y-41633320D01*
X186634039Y-41837650D01*
X186523126Y-42104756D01*
X186522874Y-42393975D01*
X186633320Y-42661275D01*
X186659470Y-42687471D01*
X186509029Y-42837650D01*
X186398116Y-43104756D01*
X186397864Y-43393975D01*
X183127000Y-43393975D01*
X183127000Y-39877000D01*
X188623000Y-39877000D01*
X188623000Y-48623000D01*
X188623000Y-48623000D01*
G37*
X188623000Y-48623000D02*
X180377000Y-48623000D01*
X180377000Y-46078281D01*
X181838568Y-46078281D01*
X181949014Y-46345581D01*
X182103254Y-46500090D01*
X181949733Y-46653344D01*
X181838820Y-46920450D01*
X181838568Y-47209669D01*
X181949014Y-47476969D01*
X182153344Y-47681655D01*
X182420450Y-47792568D01*
X182709669Y-47792820D01*
X182976969Y-47682374D01*
X183181655Y-47478044D01*
X183292568Y-47210938D01*
X183292820Y-46921719D01*
X183182374Y-46654419D01*
X183028134Y-46499910D01*
X183181655Y-46346656D01*
X183292568Y-46079550D01*
X183292820Y-45790331D01*
X183182374Y-45523031D01*
X182978044Y-45318345D01*
X182710938Y-45207432D01*
X182421719Y-45207180D01*
X182154419Y-45317626D01*
X181949733Y-45521956D01*
X181838820Y-45789062D01*
X181838568Y-46078281D01*
X180377000Y-46078281D01*
X180377000Y-44877000D01*
X181114235Y-44877000D01*
X181354756Y-44976874D01*
X181643975Y-44977126D01*
X181886299Y-44877000D01*
X183000000Y-44877000D01*
X183049410Y-44866994D01*
X183091035Y-44838553D01*
X183118315Y-44796159D01*
X183127000Y-44750000D01*
X183127000Y-43393975D01*
X186397864Y-43393975D01*
X186508310Y-43661275D01*
X186712640Y-43865961D01*
X186979746Y-43976874D01*
X187268965Y-43977126D01*
X187536265Y-43866680D01*
X187740951Y-43662350D01*
X187851864Y-43395244D01*
X187852116Y-43106025D01*
X187741670Y-42838725D01*
X187715520Y-42812529D01*
X187865961Y-42662350D01*
X187976874Y-42395244D01*
X187977126Y-42106025D01*
X187866680Y-41838725D01*
X187662350Y-41634039D01*
X187395244Y-41523126D01*
X187106025Y-41522874D01*
X186838725Y-41633320D01*
X186634039Y-41837650D01*
X186523126Y-42104756D01*
X186522874Y-42393975D01*
X186633320Y-42661275D01*
X186659470Y-42687471D01*
X186509029Y-42837650D01*
X186398116Y-43104756D01*
X186397864Y-43393975D01*
X183127000Y-43393975D01*
X183127000Y-39877000D01*
X188623000Y-39877000D01*
X188623000Y-48623000D01*
G36*
X128160197Y-40589803D02*
X128202211Y-40617666D01*
X128250000Y-40627000D01*
X132373000Y-40627000D01*
X132373000Y-45623000D01*
X126597000Y-45623000D01*
X126597000Y-44000000D01*
X126551556Y-43771538D01*
X126422143Y-43577857D01*
X126377000Y-43532714D01*
X126377000Y-40377000D01*
X127947394Y-40377000D01*
X128160197Y-40589803D01*
X128160197Y-40589803D01*
G37*
X128160197Y-40589803D02*
X128202211Y-40617666D01*
X128250000Y-40627000D01*
X132373000Y-40627000D01*
X132373000Y-45623000D01*
X126597000Y-45623000D01*
X126597000Y-44000000D01*
X126551556Y-43771538D01*
X126422143Y-43577857D01*
X126377000Y-43532714D01*
X126377000Y-40377000D01*
X127947394Y-40377000D01*
X128160197Y-40589803D01*
M02*
