<?xml version="1.0" standalone="no"?>
 <!DOCTYPE svg PUBLIC "-//W3C//DTD SVG 1.1//EN" 
 "http://www.w3.org/Graphics/SVG/1.1/DTD/svg11.dtd"> 
<svg xmlns="http://www.w3.org/2000/svg" version="1.1" 
    width="8.6614cm" height="6.1087cm" viewBox="0 0 34100 24050 ">
<title>SVG Picture created as vna_r1_demod-Edge.Cuts.svg date 2018/05/20 15:43:41 </title>
  <desc>Picture generated by PCBNEW </desc>
<g style="fill:#000000; fill-opacity:1;stroke:#000000; stroke-opacity:1;
stroke-linecap:round; stroke-linejoin:round; "
 transform="translate(0 0) scale(1 1)">
</g>
<g style="fill:#C2C200; fill-opacity:0.0; 
stroke:#C2C200; stroke-width:-0.000393701; stroke-opacity:1; 
stroke-linecap:round; stroke-linejoin:round;">
</g>
<g style="fill:#C2C200; fill-opacity:0.0; 
stroke:#C2C200; stroke-width:59.0551; stroke-opacity:1; 
stroke-linecap:round; stroke-linejoin:round;">
<path d="M19505 4059
L18324 4059
" />
<path d="M19505 3212
L19505 4059
" />
<path d="M26572 3212
L19505 3212
" />
<path d="M26572 4059
L26572 3212
" />
<path d="M27753 4059
L26572 4059
" />
<path d="M27753 4925
L27753 4059
" />
<path d="M26591 4925
L27753 4925
" />
<path d="M26591 5771
L26591 4925
" />
<path d="M26572 5771
L26591 5771
" />
<path d="M19505 5771
L26572 5771
" />
<path d="M19505 4925
L19505 5771
" />
<path d="M18324 4925
L19505 4925
" />
<path d="M18324 4905
L18324 4925
" />
<path d="M18324 4059
L18324 4905
" />
<path d="M7635 4059
L7635 3212
" />
<path d="M6453 4059
L7635 4059
" />
<path d="M6453 4078
L6453 4059
" />
<path d="M6453 4925
L6453 4078
" />
<path d="M7635 4925
L6453 4925
" />
<path d="M7635 5771
L7635 4925
" />
<path d="M14702 5771
L7635 5771
" />
<path d="M14702 4925
L14702 5771
" />
<path d="M15883 4925
L14702 4925
" />
<path d="M15883 4059
L15883 4925
" />
<path d="M14702 4059
L15883 4059
" />
<path d="M14702 3212
L14702 4059
" />
<path d="M7635 3212
L14702 3212
" />
<path d="M32162 850
L1847 850
" />
<path d="M32457 22405
L32457 1145
" />
<path d="M1847 22700
L32162 22700
" />
<path d="M1552 1145
L1552 22405
" />
<path d="M32457.9 1145.67 A295.276 295.276 0.0 0 0 32162.6 850.394 " />
<path d="M32162.6 22700.8 A295.276 295.276 0.0 0 0 32457.9 22405.5 " />
<path d="M1552.4 22405.5 A295.276 295.276 0.0 0 0 1847.68 22700.8 " />
<path d="M1847.68 850.394 A295.276 295.276 0.0 0 0 1552.4 1145.67 " />
</g> 
</svg>
