G04 #@! TF.FileFunction,Copper,L4,Bot,Signal*
%FSLAX46Y46*%
G04 Gerber Fmt 4.6, Leading zero omitted, Abs format (unit mm)*
G04 Created by KiCad (PCBNEW 4.0.4-stable) date Sun Sep 18 14:28:13 2016*
%MOMM*%
%LPD*%
G01*
G04 APERTURE LIST*
%ADD10C,0.100000*%
%ADD11C,0.381000*%
%ADD12C,2.400000*%
%ADD13R,2.400000X2.400000*%
%ADD14C,0.925000*%
%ADD15R,3.000000X8.000000*%
%ADD16C,0.600000*%
%ADD17C,0.350000*%
%ADD18C,0.200000*%
%ADD19C,0.254000*%
G04 APERTURE END LIST*
D10*
D11*
X256000000Y-99000000D03*
X253000000Y-99000000D03*
X250000000Y-99000000D03*
X248000000Y-99000000D03*
X246000000Y-99000000D03*
X244000000Y-99000000D03*
X244000000Y-93000000D03*
X246000000Y-91000000D03*
X246000000Y-92000000D03*
X246000000Y-93000000D03*
X247000000Y-93000000D03*
X249000000Y-93000000D03*
X248000000Y-93000000D03*
X250000000Y-93000000D03*
X251000000Y-93000000D03*
X252000000Y-93000000D03*
X253000000Y-93000000D03*
X254000000Y-93000000D03*
X256000000Y-92000000D03*
X254000000Y-92000000D03*
X253000000Y-92000000D03*
X252000000Y-92000000D03*
X251000000Y-92000000D03*
X250000000Y-92000000D03*
X249000000Y-92000000D03*
X248000000Y-92000000D03*
X247000000Y-92000000D03*
X247000000Y-91000000D03*
X248000000Y-91000000D03*
X249000000Y-91000000D03*
X250000000Y-91000000D03*
X251000000Y-91000000D03*
X253000000Y-91000000D03*
X252000000Y-91000000D03*
X254000000Y-91000000D03*
X255000000Y-91000000D03*
X256000000Y-91000000D03*
X257000000Y-91000000D03*
X257000000Y-92000000D03*
X257000000Y-93000000D03*
X256000000Y-93000000D03*
X255000000Y-93000000D03*
X255000000Y-96000000D03*
X257000000Y-96000000D03*
X256000000Y-96000000D03*
X256000000Y-97000000D03*
X257000000Y-97000000D03*
X257000000Y-98000000D03*
X256000000Y-98000000D03*
X255000000Y-98000000D03*
X254000000Y-98000000D03*
X254000000Y-97000000D03*
X254000000Y-96000000D03*
X253000000Y-96000000D03*
X253000000Y-97000000D03*
X253000000Y-98000000D03*
X252000000Y-98000000D03*
X252000000Y-97000000D03*
X252000000Y-96000000D03*
X251000000Y-96000000D03*
X251000000Y-97000000D03*
X251000000Y-98000000D03*
X250000000Y-98000000D03*
X250000000Y-97000000D03*
X250000000Y-96000000D03*
X249000000Y-96000000D03*
X249000000Y-97000000D03*
X249000000Y-98000000D03*
X248000000Y-98000000D03*
X248000000Y-97000000D03*
X248000000Y-96000000D03*
X247000000Y-96000000D03*
X247000000Y-97000000D03*
X247000000Y-98000000D03*
X246000000Y-98000000D03*
X246000000Y-97000000D03*
X246000000Y-96000000D03*
X257500000Y-93600000D03*
X256750000Y-93600000D03*
X256000000Y-93600000D03*
X255250000Y-93600000D03*
X251500000Y-93600000D03*
X250750000Y-93600000D03*
X253750000Y-93600000D03*
X253000000Y-93600000D03*
X252250000Y-93600000D03*
X254500000Y-93600000D03*
X250000000Y-93600000D03*
X249250000Y-93600000D03*
X248500000Y-93600000D03*
X247750000Y-93600000D03*
X257500000Y-95400000D03*
X256750000Y-95400000D03*
X256000000Y-95400000D03*
X255250000Y-95400000D03*
X254500000Y-95400000D03*
X253750000Y-95400000D03*
X253000000Y-95400000D03*
X252250000Y-95400000D03*
X251500000Y-95400000D03*
X250750000Y-95400000D03*
X250000000Y-95400000D03*
X249250000Y-95400000D03*
X248500000Y-95400000D03*
X247750000Y-95400000D03*
X247000000Y-95400000D03*
X247000000Y-93600000D03*
X246600000Y-95400000D03*
X246600000Y-93600000D03*
X245900000Y-93850000D03*
X245900000Y-95200000D03*
X245300000Y-95200000D03*
X245300000Y-93850000D03*
D12*
X254950000Y-110450000D03*
D13*
X254950000Y-113950000D03*
D14*
X164180000Y-88450000D03*
X165450000Y-88450000D03*
X164180000Y-89720000D03*
X165450000Y-89720000D03*
X164180000Y-90990000D03*
X165450000Y-90990000D03*
X164180000Y-92260000D03*
X165450000Y-92260000D03*
X164180000Y-93530000D03*
X165450000Y-93530000D03*
X164180000Y-94800000D03*
X165450000Y-94800000D03*
X164180000Y-96070000D03*
X165450000Y-96070000D03*
X164180000Y-97340000D03*
X165450000Y-97340000D03*
X164180000Y-98610000D03*
X165450000Y-98610000D03*
X164180000Y-99880000D03*
X165450000Y-99880000D03*
X164180000Y-101150000D03*
X165450000Y-101150000D03*
X164180000Y-102420000D03*
X165450000Y-102420000D03*
X164180000Y-103690000D03*
X165450000Y-103690000D03*
X164180000Y-104960000D03*
X165450000Y-104960000D03*
X164180000Y-106230000D03*
X165450000Y-106230000D03*
X164180000Y-107500000D03*
X165450000Y-107500000D03*
X164180000Y-108770000D03*
X165450000Y-108770000D03*
X164180000Y-110040000D03*
X165450000Y-110040000D03*
X164180000Y-111310000D03*
X165450000Y-111310000D03*
X164180000Y-112580000D03*
X165450000Y-112580000D03*
D15*
X256400000Y-94500000D03*
D11*
X244300000Y-93950000D03*
D16*
X195700000Y-115150000D03*
X254900000Y-97200000D03*
X254900000Y-91800000D03*
X203400000Y-109300000D03*
X203950000Y-111350000D03*
X200250000Y-105750000D03*
X197750000Y-103250000D03*
X202500000Y-103250000D03*
X223760000Y-113160000D03*
X224750000Y-113150000D03*
X225740000Y-113210000D03*
X224750000Y-110950000D03*
X180600000Y-103600000D03*
X187000000Y-104250000D03*
X190325000Y-90000000D03*
X187848126Y-89888232D03*
X181200000Y-103800000D03*
X181200000Y-93600000D03*
X174300000Y-94500000D03*
X174900000Y-95900000D03*
X174900000Y-97200000D03*
X171100000Y-104100000D03*
X173000000Y-106000000D03*
X172200000Y-105000000D03*
X176900000Y-115200000D03*
X178400000Y-111700000D03*
X175425000Y-111725000D03*
X178650000Y-96650000D03*
X181950000Y-101250000D03*
X180300000Y-115500000D03*
X184100000Y-109400000D03*
X186100000Y-115000000D03*
X187200000Y-115000000D03*
X188100000Y-110800000D03*
X187300000Y-110800000D03*
X188100000Y-112110000D03*
X187270000Y-112110000D03*
X187270000Y-113300000D03*
X188100000Y-113300000D03*
X188000000Y-115000000D03*
X191500000Y-114000000D03*
X195250000Y-84950000D03*
X209300000Y-96300000D03*
X255400000Y-104700000D03*
X181500000Y-102300000D03*
X182750000Y-92750000D03*
X181250000Y-105500000D03*
X187000000Y-102000000D03*
X195600000Y-103200000D03*
X194000000Y-102600000D03*
X190300000Y-89000000D03*
X183900000Y-88700000D03*
X184500000Y-90200000D03*
X186700000Y-99150000D03*
X187850000Y-99150000D03*
X189000000Y-99150000D03*
X190150000Y-99150000D03*
X190150000Y-98000000D03*
X189000000Y-98000000D03*
X187850000Y-98000000D03*
X186700000Y-98000000D03*
X186700000Y-96850000D03*
X187850000Y-96850000D03*
X189000000Y-96850000D03*
X190150000Y-96850000D03*
X190150000Y-95700000D03*
X189000000Y-95700000D03*
X187850000Y-95700000D03*
X186700000Y-95700000D03*
X221700000Y-95200000D03*
X193600000Y-90700000D03*
X192100000Y-90700000D03*
X190700000Y-90700000D03*
X185000000Y-91600000D03*
X193700000Y-94600000D03*
X199100000Y-94600000D03*
X193700000Y-90100000D03*
X193000000Y-87000000D03*
X197500000Y-87000000D03*
X198350000Y-97150000D03*
X210750000Y-110250000D03*
X203950000Y-97300000D03*
X205250000Y-97300000D03*
X205250000Y-96000000D03*
X203950000Y-96000000D03*
X206000000Y-108700000D03*
X206250000Y-110250000D03*
X208550000Y-112350000D03*
X207750000Y-115050000D03*
X230000000Y-97600000D03*
X231500000Y-97200000D03*
X229650000Y-104750000D03*
X239050000Y-91750000D03*
X243900000Y-91700000D03*
X239350000Y-87400000D03*
X251000000Y-101250000D03*
X244250000Y-101000000D03*
X247200000Y-100500000D03*
X238500000Y-99750000D03*
X241600000Y-95250000D03*
X242500000Y-95250000D03*
X242500000Y-94350000D03*
X241600000Y-94350000D03*
X234050000Y-95200000D03*
X234950000Y-95200000D03*
X234950000Y-94300000D03*
X234050000Y-94300000D03*
X225450000Y-93800000D03*
X226750000Y-93800000D03*
X226750000Y-92500000D03*
X225450000Y-92500000D03*
X250000000Y-105000000D03*
X249000000Y-103750000D03*
X216250000Y-86572500D03*
X216250000Y-113500000D03*
X216250000Y-111750000D03*
X216250000Y-108250000D03*
X216250000Y-104750000D03*
X216250000Y-101250000D03*
X216250000Y-97750000D03*
X216250000Y-89250000D03*
X216250000Y-87500000D03*
X216250000Y-91000000D03*
X216250000Y-92750000D03*
X216250000Y-94500000D03*
X216250000Y-96250000D03*
X216250000Y-99500000D03*
X216250000Y-103000000D03*
X216250000Y-106500000D03*
X216250000Y-110000000D03*
X183000000Y-106600000D03*
X187500000Y-89250000D03*
X188500000Y-86000000D03*
X251000000Y-102750000D03*
X191500000Y-110900000D03*
X209300000Y-97027003D03*
X255400000Y-102800000D03*
X223000000Y-91800000D03*
X230000000Y-94700000D03*
X233600000Y-87400000D03*
X243500000Y-103500000D03*
X244800000Y-91300000D03*
X189750000Y-104500000D03*
X191500000Y-101000000D03*
X235900000Y-100200000D03*
X228900000Y-107400000D03*
X235650000Y-101100000D03*
X231300000Y-107450000D03*
X236252010Y-102500000D03*
X233800000Y-107450000D03*
X238000000Y-100500000D03*
X241050000Y-107450000D03*
X237250000Y-101750000D03*
X238800000Y-107450000D03*
X236250000Y-105000000D03*
X236300000Y-107450000D03*
X201450000Y-109900000D03*
X188000000Y-103400000D03*
X177350000Y-92950000D03*
X173600000Y-108400000D03*
X173100000Y-96200000D03*
X180600000Y-95350000D03*
X183150000Y-111850000D03*
X183250000Y-104500000D03*
X196600000Y-101000000D03*
X186400000Y-87800000D03*
X183800000Y-90900000D03*
X193000000Y-96500000D03*
X196550000Y-95550000D03*
X190500000Y-104500000D03*
X192600000Y-97800000D03*
X244150000Y-96750000D03*
X229500000Y-100500000D03*
X243800000Y-97600000D03*
X229500000Y-102000000D03*
X243172652Y-98127348D03*
X229500000Y-103500000D03*
X191400000Y-115172981D03*
X174200000Y-114400000D03*
X190055000Y-112455000D03*
X229600000Y-114000000D03*
X232200000Y-114000000D03*
X234600000Y-113800000D03*
X242200000Y-113800000D03*
X239700000Y-113800000D03*
X237200000Y-113800000D03*
X196600000Y-103400000D03*
X179200000Y-86000000D03*
X191200000Y-107783929D03*
X194600000Y-103400000D03*
X179200000Y-85200000D03*
X189600000Y-107783929D03*
X167400000Y-87000000D03*
X180000000Y-106600000D03*
X188300000Y-107700000D03*
X168000000Y-87760499D03*
X181400000Y-106600000D03*
X186800000Y-107783929D03*
X168530000Y-93530000D03*
X172200000Y-97200000D03*
X175800000Y-106600000D03*
X169600000Y-97400000D03*
X171379962Y-95600000D03*
X168600000Y-90400000D03*
X162130000Y-93530000D03*
X207600000Y-97100000D03*
X207600000Y-96372997D03*
X207600000Y-95645994D03*
X222900000Y-92927010D03*
X222900000Y-93654013D03*
X222900000Y-94381016D03*
X177400000Y-85800000D03*
X231600000Y-94200000D03*
D17*
X256400000Y-94500000D02*
X256400000Y-95700000D01*
X256400000Y-95700000D02*
X254900000Y-97200000D01*
X256400000Y-94500000D02*
X256400000Y-93300000D01*
X256400000Y-93300000D02*
X254900000Y-91800000D01*
D18*
X183000000Y-106600000D02*
X183299999Y-106300001D01*
X183299999Y-106300001D02*
X184199999Y-106300001D01*
X184199999Y-106300001D02*
X186000000Y-104500000D01*
X186000000Y-104500000D02*
X186000000Y-90750000D01*
X186000000Y-90750000D02*
X187500000Y-89250000D01*
D17*
X244800000Y-91300000D02*
X244800000Y-100400000D01*
X244800000Y-100400000D02*
X244852001Y-100452001D01*
X244852001Y-100452001D02*
X244852001Y-102147999D01*
X244852001Y-102147999D02*
X243799999Y-103200001D01*
X243799999Y-103200001D02*
X243500000Y-103500000D01*
D18*
X189750000Y-104500000D02*
X189750000Y-102750000D01*
X189750000Y-102750000D02*
X191500000Y-101000000D01*
D17*
X235659038Y-100200000D02*
X235900000Y-100200000D01*
X235000000Y-102500000D02*
X235000000Y-100859038D01*
X235000000Y-100859038D02*
X235659038Y-100200000D01*
X235000000Y-102500000D02*
X230100000Y-107400000D01*
X230100000Y-107400000D02*
X228900000Y-107400000D01*
X235650000Y-101100000D02*
X235650000Y-103100000D01*
X235650000Y-103100000D02*
X231300000Y-107450000D01*
X236252010Y-103497990D02*
X233800000Y-105950000D01*
X233800000Y-105950000D02*
X233800000Y-107450000D01*
X236252010Y-102500000D02*
X236252010Y-103497990D01*
X238000000Y-100500000D02*
X238000000Y-104400000D01*
X238000000Y-104400000D02*
X241050000Y-107450000D01*
X237250000Y-105900000D02*
X237250000Y-101750000D01*
X238800000Y-107450000D02*
X237250000Y-105900000D01*
X236250000Y-106975736D02*
X236250000Y-105000000D01*
X236300000Y-107450000D02*
X236300000Y-107025736D01*
X236300000Y-107025736D02*
X236250000Y-106975736D01*
D18*
X190500000Y-102779962D02*
X190500000Y-104500000D01*
X192600000Y-97800000D02*
X192600000Y-100679962D01*
X192600000Y-100679962D02*
X190500000Y-102779962D01*
X232900000Y-100500000D02*
X229500000Y-100500000D01*
X234600000Y-98800000D02*
X232900000Y-100500000D01*
X236800000Y-98800000D02*
X234600000Y-98800000D01*
X238400000Y-97200000D02*
X236800000Y-98800000D01*
X243275736Y-97200000D02*
X238400000Y-97200000D01*
X244150000Y-96750000D02*
X243725736Y-96750000D01*
X243725736Y-96750000D02*
X243275736Y-97200000D01*
X238800000Y-97600000D02*
X243800000Y-97600000D01*
X237200000Y-99200000D02*
X238800000Y-97600000D01*
X234900000Y-99200000D02*
X237200000Y-99200000D01*
X232100000Y-102000000D02*
X234900000Y-99200000D01*
X229924264Y-102000000D02*
X232100000Y-102000000D01*
X229500000Y-102000000D02*
X229924264Y-102000000D01*
X238900000Y-98200000D02*
X243100000Y-98200000D01*
X243100000Y-98200000D02*
X243172652Y-98127348D01*
X237427001Y-99672999D02*
X238900000Y-98200000D01*
X231400000Y-103500000D02*
X235227001Y-99672999D01*
X235227001Y-99672999D02*
X237427001Y-99672999D01*
X229924264Y-103500000D02*
X231400000Y-103500000D01*
X229500000Y-103500000D02*
X229924264Y-103500000D01*
X164180000Y-110040000D02*
X163360000Y-110040000D01*
X163360000Y-110040000D02*
X163000000Y-110400000D01*
X166337540Y-114200000D02*
X170464549Y-110072990D01*
X163000000Y-110400000D02*
X163000000Y-114000000D01*
X163000000Y-114000000D02*
X163200000Y-114200000D01*
X206658031Y-113541969D02*
X209004430Y-113541969D01*
X163200000Y-114200000D02*
X166337540Y-114200000D01*
X170464549Y-110072990D02*
X185202090Y-110072990D01*
X185202090Y-110072990D02*
X185656101Y-109618979D01*
X209489462Y-114027001D02*
X229572999Y-114027001D01*
X185656101Y-109618979D02*
X192606361Y-109618979D01*
X192606361Y-109618979D02*
X197260371Y-114272990D01*
X197260371Y-114272990D02*
X205927010Y-114272990D01*
X229572999Y-114027001D02*
X229600000Y-114000000D01*
X205927010Y-114272990D02*
X206658031Y-113541969D01*
X209004430Y-113541969D02*
X209489462Y-114027001D01*
X192470910Y-109945989D02*
X185791551Y-109945989D01*
X232200000Y-114000000D02*
X231600000Y-114600000D01*
X206931021Y-113868979D02*
X206200000Y-114600000D01*
X231600000Y-114600000D02*
X209600000Y-114600000D01*
X209600000Y-114600000D02*
X208868979Y-113868979D01*
X208868979Y-113868979D02*
X206931021Y-113868979D01*
X162600000Y-114400000D02*
X162600000Y-109600000D01*
X197124921Y-114600000D02*
X192470910Y-109945989D01*
X206200000Y-114600000D02*
X197124921Y-114600000D01*
X185791551Y-109945989D02*
X185337540Y-110400000D01*
X185337540Y-110400000D02*
X170600000Y-110400000D01*
X166400000Y-114600000D02*
X163180462Y-114600000D01*
X170600000Y-110400000D02*
X166400000Y-114600000D01*
X163180462Y-114600000D02*
X163061501Y-114718961D01*
X163061501Y-114718961D02*
X162918961Y-114718961D01*
X162600000Y-109600000D02*
X163430000Y-108770000D01*
X162918961Y-114718961D02*
X162600000Y-114400000D01*
X163430000Y-108770000D02*
X164180000Y-108770000D01*
X209462460Y-115000000D02*
X208658450Y-114195989D01*
X234600000Y-113800000D02*
X234600000Y-114600000D01*
X234600000Y-114600000D02*
X234200000Y-115000000D01*
X234200000Y-115000000D02*
X209462460Y-115000000D01*
X175154029Y-115045971D02*
X162600000Y-115045971D01*
X185927001Y-110272999D02*
X182181021Y-114018979D01*
X206337540Y-115000000D02*
X197062460Y-115000000D01*
X208658450Y-114195989D02*
X207141551Y-114195989D01*
X176181021Y-114018979D02*
X175154029Y-115045971D01*
X207141551Y-114195989D02*
X206337540Y-115000000D01*
X162600000Y-115000000D02*
X162200000Y-114600000D01*
X182181021Y-114018979D02*
X176181021Y-114018979D01*
X197062460Y-115000000D02*
X192335459Y-110272999D01*
X192335459Y-110272999D02*
X185927001Y-110272999D01*
X162600000Y-115045971D02*
X162600000Y-115000000D01*
X162200000Y-114600000D02*
X162200000Y-109480000D01*
X162200000Y-109480000D02*
X164180000Y-107500000D01*
X242200000Y-114600000D02*
X242200000Y-113800000D01*
X240772999Y-116027001D02*
X242200000Y-114600000D01*
X161200000Y-115400000D02*
X161827001Y-116027001D01*
X161827001Y-116027001D02*
X240772999Y-116027001D01*
X161200000Y-106015927D02*
X161200000Y-115400000D01*
X164180000Y-103690000D02*
X163525927Y-103690000D01*
X163525927Y-103690000D02*
X161200000Y-106015927D01*
X239700000Y-114600000D02*
X239700000Y-113800000D01*
X238600000Y-115700000D02*
X239700000Y-114600000D01*
X238200000Y-115700000D02*
X238600000Y-115700000D01*
X238037539Y-115700000D02*
X238200000Y-115700000D01*
X192150000Y-115700000D02*
X192300000Y-115700000D01*
X181279962Y-115700000D02*
X192150000Y-115700000D01*
X192150000Y-115700000D02*
X238037539Y-115700000D01*
X169672990Y-115699991D02*
X175620047Y-115699991D01*
X175620047Y-115699991D02*
X176647039Y-114672999D01*
X176647039Y-114672999D02*
X180252961Y-114672999D01*
X180252961Y-114672999D02*
X181279962Y-115700000D01*
X164180000Y-104960000D02*
X161527010Y-107612990D01*
X161527010Y-107612990D02*
X161527010Y-115264550D01*
X161527010Y-115264550D02*
X161962451Y-115699991D01*
X161962451Y-115699991D02*
X169672990Y-115699991D01*
X237200000Y-114600000D02*
X237200000Y-113800000D01*
X236427019Y-115372981D02*
X237200000Y-114600000D01*
X209372981Y-115372981D02*
X236427019Y-115372981D01*
X206427019Y-115372981D02*
X207277001Y-114522999D01*
X207277001Y-114522999D02*
X208522999Y-114522999D01*
X208522999Y-114522999D02*
X209372981Y-115372981D01*
X196972981Y-115372981D02*
X206427019Y-115372981D01*
X192627001Y-111427001D02*
X193027001Y-111427001D01*
X193027001Y-111427001D02*
X196972981Y-115372981D01*
X181400000Y-115357578D02*
X185330577Y-111427001D01*
X185330577Y-111427001D02*
X192627001Y-111427001D01*
X175364559Y-115372981D02*
X176391550Y-114345989D01*
X176391550Y-114345989D02*
X180388412Y-114345989D01*
X180388412Y-114345989D02*
X181400000Y-115357578D01*
X162172981Y-115372981D02*
X175364559Y-115372981D01*
X164180000Y-106230000D02*
X161854020Y-108555980D01*
X161854020Y-108555980D02*
X161854020Y-115054020D01*
X161854020Y-115054020D02*
X162172981Y-115372981D01*
X196600000Y-103400000D02*
X196072999Y-103927001D01*
X194347039Y-103927001D02*
X193472999Y-103052961D01*
X196072999Y-103927001D02*
X194347039Y-103927001D01*
X193472999Y-103052961D02*
X193472999Y-102127001D01*
X193472999Y-102127001D02*
X194745989Y-100854011D01*
X179499999Y-85700001D02*
X179200000Y-86000000D01*
X194745989Y-100854011D02*
X194745989Y-87345989D01*
X194745989Y-87345989D02*
X192852961Y-85452961D01*
X192852961Y-85452961D02*
X179747039Y-85452961D01*
X179747039Y-85452961D02*
X179499999Y-85700001D01*
X195072999Y-102927001D02*
X194600000Y-103400000D01*
X192727010Y-84727010D02*
X195072999Y-87072999D01*
X195072999Y-87072999D02*
X195072999Y-102927001D01*
X179200000Y-85200000D02*
X179672990Y-84727010D01*
X179672990Y-84727010D02*
X192727010Y-84727010D01*
X167400000Y-88600000D02*
X167400000Y-87000000D01*
X167600000Y-88800000D02*
X167400000Y-88600000D01*
X167600000Y-94200000D02*
X167600000Y-88800000D01*
X180000000Y-106600000D02*
X167600000Y-94200000D01*
X181400000Y-106600000D02*
X180800000Y-106600000D01*
X180800000Y-106600000D02*
X168002999Y-93802999D01*
X168002999Y-93802999D02*
X168002999Y-87763498D01*
X168002999Y-87763498D02*
X168000000Y-87760499D01*
X168530000Y-93530000D02*
X172200000Y-97200000D01*
X175800000Y-103600000D02*
X175800000Y-106600000D01*
X174800000Y-102600000D02*
X175800000Y-103600000D01*
X169600000Y-97400000D02*
X174800000Y-102600000D01*
X168600000Y-90824264D02*
X168600000Y-92820038D01*
X168600000Y-92820038D02*
X171379962Y-95600000D01*
X168600000Y-90400000D02*
X168600000Y-90824264D01*
X164180000Y-93530000D02*
X162130000Y-93530000D01*
X165450000Y-108770000D02*
X168567540Y-108770000D01*
X209472990Y-98972990D02*
X207600000Y-97100000D01*
X191197911Y-105272990D02*
X198070901Y-112145980D01*
X168567540Y-108770000D02*
X169991559Y-107345980D01*
X169991559Y-107345980D02*
X171866639Y-107345980D01*
X175600000Y-107200000D02*
X184337540Y-107200000D01*
X171866639Y-107345980D02*
X172666638Y-106545980D01*
X174945980Y-106545980D02*
X175600000Y-107200000D01*
X172666638Y-106545980D02*
X174945980Y-106545980D01*
X184337540Y-107200000D02*
X186264549Y-105272990D01*
X186264549Y-105272990D02*
X191197911Y-105272990D01*
X209075080Y-110800000D02*
X209472990Y-110402090D01*
X198070901Y-112145980D02*
X205279255Y-112145980D01*
X206600000Y-110800000D02*
X209075080Y-110800000D01*
X205279255Y-112145980D02*
X205512617Y-111912619D01*
X205512617Y-111912619D02*
X205512617Y-111887383D01*
X205512617Y-111887383D02*
X206600000Y-110800000D01*
X209472990Y-110402090D02*
X209472990Y-98972990D01*
X209168561Y-111168979D02*
X206718717Y-111168979D01*
X207600000Y-96372997D02*
X207652959Y-96372997D01*
X207652959Y-96372997D02*
X209800000Y-98520038D01*
X172002089Y-107672990D02*
X170127010Y-107672990D01*
X170127010Y-107672990D02*
X167760000Y-110040000D01*
X209800000Y-98520038D02*
X209800000Y-110537540D01*
X209800000Y-110537540D02*
X209168561Y-111168979D01*
X206718717Y-111168979D02*
X205414707Y-112472990D01*
X191062460Y-105600000D02*
X186400000Y-105600000D01*
X205414707Y-112472990D02*
X197935450Y-112472990D01*
X197935450Y-112472990D02*
X191062460Y-105600000D01*
X174535451Y-106872990D02*
X172802089Y-106872990D01*
X186400000Y-105600000D02*
X184454020Y-107545980D01*
X184454020Y-107545980D02*
X175208440Y-107545980D01*
X172802089Y-106872990D02*
X172002089Y-107672990D01*
X175208440Y-107545980D02*
X174535451Y-106872990D01*
X167760000Y-110040000D02*
X165450000Y-110040000D01*
X165450000Y-111310000D02*
X167090000Y-111310000D01*
X206854168Y-111495989D02*
X209304011Y-111495989D01*
X209304011Y-111495989D02*
X210200000Y-110600000D01*
X167090000Y-111310000D02*
X170400000Y-108000000D01*
X170400000Y-108000000D02*
X172137540Y-108000000D01*
X205550157Y-112800000D02*
X206854168Y-111495989D01*
X185397911Y-107872990D02*
X185835860Y-108310939D01*
X172137540Y-108000000D02*
X172937540Y-107200000D01*
X210200000Y-110600000D02*
X210200000Y-96420038D01*
X172937540Y-107200000D02*
X174400000Y-107200000D01*
X174400000Y-107200000D02*
X175072990Y-107872990D01*
X197800000Y-112800000D02*
X205550157Y-112800000D01*
X175072990Y-107872990D02*
X185397911Y-107872990D01*
X185835860Y-108310939D02*
X193310939Y-108310939D01*
X193310939Y-108310939D02*
X197800000Y-112800000D01*
X210200000Y-96420038D02*
X209425956Y-95645994D01*
X209425956Y-95645994D02*
X208024264Y-95645994D01*
X208024264Y-95645994D02*
X207600000Y-95645994D01*
X221102536Y-104367502D02*
X221070038Y-104400000D01*
X221070038Y-104400000D02*
X215395989Y-110074049D01*
X222200000Y-96800000D02*
X222200000Y-103270038D01*
X222200000Y-103270038D02*
X221070038Y-104400000D01*
X222900000Y-92927010D02*
X222475736Y-92927010D01*
X209540901Y-112560939D02*
X208802961Y-111822999D01*
X222475736Y-92927010D02*
X221172999Y-94229747D01*
X170591559Y-108345980D02*
X166357540Y-112580000D01*
X221172999Y-94229747D02*
X221172999Y-95772999D01*
X172254020Y-108345980D02*
X170591559Y-108345980D01*
X215395989Y-110074049D02*
X215395989Y-112341551D01*
X221172999Y-95772999D02*
X222200000Y-96800000D01*
X197574764Y-113200000D02*
X193012714Y-108637949D01*
X208297039Y-111822999D02*
X208022999Y-112097039D01*
X215176601Y-112560939D02*
X209540901Y-112560939D01*
X208022999Y-112097039D02*
X208022999Y-112377001D01*
X174145989Y-107545989D02*
X173054011Y-107545989D01*
X215395989Y-112341551D02*
X215176601Y-112560939D01*
X208802961Y-111822999D02*
X208297039Y-111822999D01*
X207839061Y-112560939D02*
X206251678Y-112560939D01*
X208022999Y-112377001D02*
X207839061Y-112560939D01*
X206251678Y-112560939D02*
X205612617Y-113200000D01*
X205612617Y-113200000D02*
X197574764Y-113200000D01*
X193012714Y-108637949D02*
X185700409Y-108637949D01*
X185700409Y-108637949D02*
X185262460Y-108200000D01*
X174800000Y-108200000D02*
X174145989Y-107545989D01*
X185262460Y-108200000D02*
X174800000Y-108200000D01*
X173054011Y-107545989D02*
X172254020Y-108345980D01*
X166357540Y-112580000D02*
X165450000Y-112580000D01*
X165854020Y-113545980D02*
X170727010Y-108672990D01*
X164180000Y-112580000D02*
X164180000Y-113234073D01*
X164180000Y-113234073D02*
X164491907Y-113545980D01*
X173347039Y-107872999D02*
X173872999Y-107872999D01*
X164491907Y-113545980D02*
X165854020Y-113545980D01*
X185564959Y-108964959D02*
X192877263Y-108964959D01*
X172547048Y-108672990D02*
X173347039Y-107872999D01*
X170727010Y-108672990D02*
X172547048Y-108672990D01*
X173872999Y-107872999D02*
X174672990Y-108672990D01*
X215722999Y-112477001D02*
X215722999Y-111306963D01*
X192877263Y-108964959D02*
X197512304Y-113600000D01*
X174672990Y-108672990D02*
X183584587Y-108672990D01*
X183584587Y-108672990D02*
X183711588Y-108545989D01*
X205675078Y-113600000D02*
X206387129Y-112887949D01*
X215312051Y-112887949D02*
X215722999Y-112477001D01*
X215722999Y-111306963D02*
X222572990Y-104456972D01*
X222372999Y-95093037D02*
X222372999Y-93756750D01*
X222372999Y-93756750D02*
X222475736Y-93654013D01*
X183711588Y-108545989D02*
X185145989Y-108545989D01*
X185145989Y-108545989D02*
X185564959Y-108964959D01*
X197512304Y-113600000D02*
X205675078Y-113600000D01*
X206387129Y-112887949D02*
X215312051Y-112887949D01*
X222572990Y-104456972D02*
X222572990Y-95293028D01*
X222572990Y-95293028D02*
X222372999Y-95093037D01*
X222475736Y-93654013D02*
X222900000Y-93654013D01*
X164180000Y-111310000D02*
X163525927Y-111310000D01*
X163525927Y-111310000D02*
X163327010Y-111508917D01*
X183720038Y-109000000D02*
X183847039Y-108872999D01*
X170275078Y-109800000D02*
X171075078Y-109000000D01*
X163327010Y-111508917D02*
X163327010Y-113727010D01*
X222900000Y-105879962D02*
X222900000Y-94805280D01*
X163327010Y-113727010D02*
X163472990Y-113872990D01*
X185291969Y-109291969D02*
X192741812Y-109291969D01*
X171075078Y-109000000D02*
X183720038Y-109000000D01*
X163472990Y-113872990D02*
X166127010Y-113872990D01*
X197395823Y-113945980D02*
X205791560Y-113945980D01*
X166127010Y-113872990D02*
X170200000Y-109800000D01*
X170200000Y-109800000D02*
X170275078Y-109800000D01*
X183847039Y-108872999D02*
X184872999Y-108872999D01*
X184872999Y-108872999D02*
X185291969Y-109291969D01*
X192741812Y-109291969D02*
X197395823Y-113945980D01*
X205791560Y-113945980D02*
X206522580Y-113214959D01*
X206522580Y-113214959D02*
X215565003Y-113214959D01*
X215565003Y-113214959D02*
X222900000Y-105879962D01*
X222900000Y-94805280D02*
X222900000Y-94381016D01*
X178600000Y-84400000D02*
X177400000Y-85600000D01*
X177400000Y-85600000D02*
X177400000Y-85800000D01*
X178800000Y-84400000D02*
X178600000Y-84400000D01*
X231600000Y-94200000D02*
X231600000Y-88000000D01*
X231600000Y-88000000D02*
X228000000Y-84400000D01*
X228000000Y-84400000D02*
X178800000Y-84400000D01*
D19*
G36*
X188373000Y-114400000D02*
X188383006Y-114449410D01*
X188411447Y-114491035D01*
X188453841Y-114518315D01*
X188500000Y-114527000D01*
X189073000Y-114527000D01*
X189073000Y-115073000D01*
X183927000Y-115073000D01*
X183927000Y-114127000D01*
X186900000Y-114127000D01*
X186949410Y-114116994D01*
X186991035Y-114088553D01*
X187018315Y-114046159D01*
X187027000Y-114000000D01*
X187027000Y-112054001D01*
X188373000Y-112054001D01*
X188373000Y-114400000D01*
X188373000Y-114400000D01*
G37*
X188373000Y-114400000D02*
X188383006Y-114449410D01*
X188411447Y-114491035D01*
X188453841Y-114518315D01*
X188500000Y-114527000D01*
X189073000Y-114527000D01*
X189073000Y-115073000D01*
X183927000Y-115073000D01*
X183927000Y-114127000D01*
X186900000Y-114127000D01*
X186949410Y-114116994D01*
X186991035Y-114088553D01*
X187018315Y-114046159D01*
X187027000Y-114000000D01*
X187027000Y-112054001D01*
X188373000Y-112054001D01*
X188373000Y-114400000D01*
M02*
