G04 #@! TF.FileFunction,Legend,Bot*
%FSLAX46Y46*%
G04 Gerber Fmt 4.6, Leading zero omitted, Abs format (unit mm)*
G04 Created by KiCad (PCBNEW 4.0.2-stable) date Sun May 15 21:38:53 2016*
%MOMM*%
G01*
G04 APERTURE LIST*
%ADD10C,0.100000*%
%ADD11C,0.010000*%
G04 APERTURE END LIST*
D10*
D11*
G36*
X193388921Y-109063993D02*
X193361124Y-109216190D01*
X193339636Y-109429915D01*
X193339309Y-109434625D01*
X193325529Y-109692848D01*
X193326102Y-109846259D01*
X193340238Y-109888370D01*
X193367145Y-109812692D01*
X193378929Y-109759617D01*
X193413373Y-109550274D01*
X193435052Y-109335035D01*
X193442142Y-109149899D01*
X193432822Y-109030868D01*
X193417098Y-109006000D01*
X193388921Y-109063993D01*
X193388921Y-109063993D01*
G37*
X193388921Y-109063993D02*
X193361124Y-109216190D01*
X193339636Y-109429915D01*
X193339309Y-109434625D01*
X193325529Y-109692848D01*
X193326102Y-109846259D01*
X193340238Y-109888370D01*
X193367145Y-109812692D01*
X193378929Y-109759617D01*
X193413373Y-109550274D01*
X193435052Y-109335035D01*
X193442142Y-109149899D01*
X193432822Y-109030868D01*
X193417098Y-109006000D01*
X193388921Y-109063993D01*
G36*
X192283602Y-109163434D02*
X192282623Y-109228250D01*
X192294809Y-109372286D01*
X192325945Y-109566883D01*
X192334358Y-109609250D01*
X192386896Y-109863250D01*
X192389735Y-109609250D01*
X192378095Y-109411005D01*
X192345767Y-109248993D01*
X192338000Y-109228250D01*
X192295686Y-109137500D01*
X192283602Y-109163434D01*
X192283602Y-109163434D01*
G37*
X192283602Y-109163434D02*
X192282623Y-109228250D01*
X192294809Y-109372286D01*
X192325945Y-109566883D01*
X192334358Y-109609250D01*
X192386896Y-109863250D01*
X192389735Y-109609250D01*
X192378095Y-109411005D01*
X192345767Y-109248993D01*
X192338000Y-109228250D01*
X192295686Y-109137500D01*
X192283602Y-109163434D01*
G36*
X192855125Y-109189379D02*
X192846656Y-109349976D01*
X192846000Y-109439916D01*
X192857926Y-109632826D01*
X192889372Y-109748621D01*
X192913391Y-109768000D01*
X192950684Y-109708840D01*
X192945879Y-109534634D01*
X192937005Y-109466375D01*
X192900549Y-109247651D01*
X192873173Y-109155294D01*
X192855125Y-109189379D01*
X192855125Y-109189379D01*
G37*
X192855125Y-109189379D02*
X192846656Y-109349976D01*
X192846000Y-109439916D01*
X192857926Y-109632826D01*
X192889372Y-109748621D01*
X192913391Y-109768000D01*
X192950684Y-109708840D01*
X192945879Y-109534634D01*
X192937005Y-109466375D01*
X192900549Y-109247651D01*
X192873173Y-109155294D01*
X192855125Y-109189379D01*
G36*
X209825568Y-108645079D02*
X209775113Y-108750055D01*
X209709393Y-108936079D01*
X209681617Y-109026077D01*
X209607436Y-109295796D01*
X209571092Y-109470767D01*
X209570286Y-109544840D01*
X209602720Y-109511868D01*
X209666098Y-109365700D01*
X209735321Y-109169798D01*
X209802457Y-108943195D01*
X209844200Y-108752680D01*
X209851594Y-108641866D01*
X209825568Y-108645079D01*
X209825568Y-108645079D01*
G37*
X209825568Y-108645079D02*
X209775113Y-108750055D01*
X209709393Y-108936079D01*
X209681617Y-109026077D01*
X209607436Y-109295796D01*
X209571092Y-109470767D01*
X209570286Y-109544840D01*
X209602720Y-109511868D01*
X209666098Y-109365700D01*
X209735321Y-109169798D01*
X209802457Y-108943195D01*
X209844200Y-108752680D01*
X209851594Y-108641866D01*
X209825568Y-108645079D01*
G36*
X209209751Y-108491748D02*
X209178941Y-108638878D01*
X209149577Y-108838967D01*
X209125904Y-109055093D01*
X209112169Y-109250334D01*
X209112620Y-109387766D01*
X209123322Y-109429487D01*
X209147314Y-109387247D01*
X209183087Y-109249600D01*
X209221879Y-109051885D01*
X209269023Y-108759362D01*
X209288435Y-108571702D01*
X209280603Y-108469944D01*
X209246016Y-108435126D01*
X209237759Y-108434500D01*
X209209751Y-108491748D01*
X209209751Y-108491748D01*
G37*
X209209751Y-108491748D02*
X209178941Y-108638878D01*
X209149577Y-108838967D01*
X209125904Y-109055093D01*
X209112169Y-109250334D01*
X209112620Y-109387766D01*
X209123322Y-109429487D01*
X209147314Y-109387247D01*
X209183087Y-109249600D01*
X209221879Y-109051885D01*
X209269023Y-108759362D01*
X209288435Y-108571702D01*
X209280603Y-108469944D01*
X209246016Y-108435126D01*
X209237759Y-108434500D01*
X209209751Y-108491748D01*
G36*
X208733912Y-108402750D02*
X208699692Y-108493939D01*
X208667221Y-108674430D01*
X208643116Y-108906619D01*
X208641725Y-108926625D01*
X208628100Y-109189710D01*
X208629004Y-109343507D01*
X208643749Y-109382918D01*
X208671644Y-109302843D01*
X208684701Y-109244125D01*
X208722291Y-109025873D01*
X208748765Y-108801872D01*
X208762351Y-108602418D01*
X208761277Y-108457811D01*
X208743770Y-108398347D01*
X208733912Y-108402750D01*
X208733912Y-108402750D01*
G37*
X208733912Y-108402750D02*
X208699692Y-108493939D01*
X208667221Y-108674430D01*
X208643116Y-108906619D01*
X208641725Y-108926625D01*
X208628100Y-109189710D01*
X208629004Y-109343507D01*
X208643749Y-109382918D01*
X208671644Y-109302843D01*
X208684701Y-109244125D01*
X208722291Y-109025873D01*
X208748765Y-108801872D01*
X208762351Y-108602418D01*
X208761277Y-108457811D01*
X208743770Y-108398347D01*
X208733912Y-108402750D01*
G36*
X195015048Y-88533996D02*
X194656566Y-88653807D01*
X194384940Y-88861415D01*
X194192293Y-89163301D01*
X194070746Y-89565949D01*
X194054303Y-89658967D01*
X194023375Y-89904095D01*
X194026248Y-90102102D01*
X194067894Y-90314003D01*
X194123191Y-90504616D01*
X194409247Y-91228424D01*
X194796417Y-91884127D01*
X195276638Y-92462198D01*
X195841849Y-92953109D01*
X196483987Y-93347331D01*
X196560750Y-93385241D01*
X197042199Y-93584217D01*
X197518740Y-93705679D01*
X198039561Y-93760339D01*
X198309452Y-93766000D01*
X198796578Y-93766000D01*
X199115354Y-94103058D01*
X199291701Y-94302229D01*
X199444402Y-94496960D01*
X199538157Y-94641283D01*
X199592713Y-94780713D01*
X199667152Y-95017667D01*
X199755061Y-95326564D01*
X199850026Y-95681824D01*
X199945634Y-96057866D01*
X200035472Y-96429108D01*
X200113126Y-96769970D01*
X200172183Y-97054870D01*
X200206230Y-97258228D01*
X200211990Y-97328990D01*
X200199923Y-97496545D01*
X200168098Y-97739365D01*
X200123058Y-98008468D01*
X200116740Y-98041960D01*
X200017839Y-98875850D01*
X200041664Y-99688227D01*
X200185645Y-100471160D01*
X200447214Y-101216715D01*
X200823799Y-101916961D01*
X201312832Y-102563965D01*
X201714889Y-102975583D01*
X202224050Y-103368139D01*
X202830310Y-103700687D01*
X203516582Y-103968816D01*
X204265780Y-104168112D01*
X205060818Y-104294165D01*
X205884610Y-104342561D01*
X206720069Y-104308889D01*
X206834562Y-104297632D01*
X207362830Y-104220414D01*
X207926782Y-104100935D01*
X208485607Y-103950187D01*
X208998496Y-103779162D01*
X209419500Y-103601370D01*
X209696148Y-103455706D01*
X209930554Y-103303176D01*
X210160192Y-103115512D01*
X210422538Y-102864443D01*
X210499000Y-102787055D01*
X211037685Y-102149585D01*
X211466892Y-101450514D01*
X211784078Y-100696757D01*
X211986698Y-99895229D01*
X212072207Y-99052845D01*
X212071141Y-98960884D01*
X211764078Y-98960884D01*
X211744460Y-99393675D01*
X211704906Y-99781276D01*
X211679530Y-99935789D01*
X211506789Y-100601441D01*
X211255169Y-101239041D01*
X210936735Y-101829404D01*
X210563554Y-102353343D01*
X210147691Y-102791674D01*
X209701211Y-103125209D01*
X209657684Y-103150723D01*
X208826783Y-103553973D01*
X207941850Y-103846374D01*
X207621849Y-103921388D01*
X207200687Y-103986934D01*
X206694294Y-104029786D01*
X206142480Y-104049464D01*
X205585056Y-104045486D01*
X205061834Y-104017370D01*
X204612623Y-103964635D01*
X204574741Y-103958239D01*
X203765908Y-103759501D01*
X203017958Y-103459123D01*
X202339689Y-103063323D01*
X201739901Y-102578321D01*
X201227391Y-102010333D01*
X200810958Y-101365578D01*
X200755491Y-101259000D01*
X200530612Y-100761543D01*
X200382380Y-100298586D01*
X200294928Y-99817619D01*
X200280587Y-99687221D01*
X200266270Y-99016237D01*
X200344758Y-98322495D01*
X200508042Y-97639966D01*
X200748113Y-97002622D01*
X201038513Y-96472217D01*
X201479980Y-95903108D01*
X202007243Y-95413512D01*
X202628764Y-94996915D01*
X203353010Y-94646802D01*
X203472437Y-94599068D01*
X204293969Y-94315319D01*
X204333722Y-94305750D01*
X203253483Y-94305750D01*
X202754496Y-94542607D01*
X202322641Y-94782377D01*
X201892871Y-95083875D01*
X201486787Y-95426586D01*
X201125989Y-95789998D01*
X200832078Y-96153599D01*
X200626656Y-96496875D01*
X200579955Y-96607625D01*
X200506121Y-96766423D01*
X200445742Y-96799512D01*
X200395890Y-96706452D01*
X200367359Y-96575875D01*
X200300001Y-96242582D01*
X200202726Y-95838229D01*
X200087701Y-95411579D01*
X200016440Y-95169156D01*
X199954067Y-94935856D01*
X199941043Y-94759851D01*
X199988866Y-94607165D01*
X200109033Y-94443823D01*
X200313042Y-94235847D01*
X200341609Y-94208292D01*
X200640616Y-93976454D01*
X201032127Y-93754475D01*
X201481712Y-93556272D01*
X201954938Y-93395762D01*
X202417377Y-93286863D01*
X202715213Y-93248868D01*
X203027676Y-93226250D01*
X203101446Y-93512000D01*
X203158112Y-93755635D01*
X203206109Y-94001409D01*
X203214350Y-94051750D01*
X203253483Y-94305750D01*
X204333722Y-94305750D01*
X205062734Y-94130272D01*
X205803571Y-94042099D01*
X206541319Y-94048971D01*
X207300817Y-94149061D01*
X207866520Y-94275616D01*
X208623192Y-94511129D01*
X209282770Y-94806223D01*
X209864850Y-95170354D01*
X210099469Y-95353223D01*
X210549424Y-95780712D01*
X210952208Y-96268783D01*
X211290147Y-96790215D01*
X211545564Y-97317786D01*
X211699343Y-97817250D01*
X211741918Y-98130083D01*
X211763364Y-98525491D01*
X211764078Y-98960884D01*
X212071141Y-98960884D01*
X212066126Y-98528500D01*
X211983762Y-97822516D01*
X211809616Y-97186113D01*
X211534746Y-96599868D01*
X211150211Y-96044356D01*
X210692169Y-95544000D01*
X210023755Y-94976442D01*
X209282918Y-94510091D01*
X208481093Y-94150769D01*
X207629711Y-93904305D01*
X207377741Y-93855218D01*
X206792857Y-93787256D01*
X206145669Y-93770121D01*
X205471873Y-93800783D01*
X204807164Y-93876214D01*
X204187236Y-93993386D01*
X203647784Y-94149269D01*
X203569407Y-94178338D01*
X203502836Y-94179212D01*
X203458917Y-94102419D01*
X203424363Y-93923893D01*
X203422759Y-93912682D01*
X203284603Y-93252996D01*
X203203251Y-93011067D01*
X202940649Y-93011067D01*
X202882858Y-93031804D01*
X202726757Y-93054321D01*
X202500920Y-93074935D01*
X202386875Y-93082450D01*
X201952544Y-93129705D01*
X201582684Y-93222545D01*
X201419525Y-93283344D01*
X200991704Y-93479193D01*
X200602645Y-93697169D01*
X200277801Y-93921004D01*
X200042627Y-94134429D01*
X199992107Y-94195669D01*
X199803964Y-94446924D01*
X199534246Y-94154087D01*
X199381903Y-93963427D01*
X199267215Y-93773584D01*
X199224039Y-93659364D01*
X199215241Y-93406336D01*
X199264880Y-93096085D01*
X199361816Y-92777633D01*
X199482930Y-92520008D01*
X199755426Y-92172600D01*
X200127200Y-91872773D01*
X200575984Y-91631293D01*
X201079510Y-91458923D01*
X201615509Y-91366430D01*
X201895968Y-91353479D01*
X202032177Y-91359175D01*
X202127501Y-91393039D01*
X202211174Y-91479300D01*
X202312428Y-91642186D01*
X202372218Y-91748192D01*
X202480623Y-91953604D01*
X202601622Y-92200783D01*
X202721626Y-92459542D01*
X202827047Y-92699691D01*
X202904297Y-92891041D01*
X202939788Y-93003405D01*
X202940649Y-93011067D01*
X203203251Y-93011067D01*
X203063741Y-92596188D01*
X202772011Y-91960833D01*
X202421254Y-91365505D01*
X202241904Y-91123605D01*
X201863000Y-91123605D01*
X201804668Y-91137335D01*
X201649895Y-91155228D01*
X201429021Y-91173935D01*
X201366968Y-91178351D01*
X201043720Y-91214052D01*
X200775843Y-91282743D01*
X200492435Y-91403828D01*
X200430343Y-91434680D01*
X199910151Y-91749411D01*
X199508723Y-92108801D01*
X199225819Y-92513157D01*
X199061197Y-92962784D01*
X199020742Y-93232514D01*
X198999585Y-93450945D01*
X198972886Y-93568663D01*
X198928976Y-93611810D01*
X198856186Y-93606525D01*
X198854008Y-93606024D01*
X198702409Y-93573073D01*
X198504955Y-93532613D01*
X198473698Y-93526411D01*
X198322887Y-93484655D01*
X198225881Y-93410485D01*
X198146317Y-93268188D01*
X198102199Y-93161558D01*
X198009749Y-92765639D01*
X198019327Y-92334058D01*
X198121422Y-91891886D01*
X198306525Y-91464194D01*
X198565126Y-91076053D01*
X198887716Y-90752532D01*
X199063693Y-90626804D01*
X199424197Y-90441783D01*
X199846790Y-90288643D01*
X200266903Y-90189947D01*
X200346503Y-90178532D01*
X200631227Y-90170703D01*
X200885310Y-90232738D01*
X201134949Y-90377174D01*
X201406343Y-90616553D01*
X201529985Y-90745054D01*
X201687831Y-90917145D01*
X201805223Y-91049884D01*
X201861067Y-91119292D01*
X201863000Y-91123605D01*
X202241904Y-91123605D01*
X202023310Y-90828776D01*
X201590018Y-90369220D01*
X201133218Y-90005411D01*
X201019682Y-89939995D01*
X200061749Y-89939995D01*
X200057799Y-89948640D01*
X199963875Y-90008508D01*
X199892038Y-90019500D01*
X199698658Y-90055518D01*
X199437782Y-90153907D01*
X199143004Y-90300163D01*
X198889154Y-90452414D01*
X198494219Y-90782997D01*
X198179974Y-91193968D01*
X197954826Y-91662394D01*
X197827181Y-92165339D01*
X197805446Y-92679871D01*
X197893563Y-93168532D01*
X197947304Y-93348101D01*
X197981886Y-93468280D01*
X197988813Y-93496125D01*
X197942461Y-93510777D01*
X197794876Y-93494797D01*
X197537107Y-93447014D01*
X197408858Y-93420372D01*
X197140257Y-93350820D01*
X196877495Y-93262432D01*
X196717504Y-93193481D01*
X196448044Y-93056013D01*
X196483845Y-92628977D01*
X196582090Y-92057488D01*
X196771626Y-91546179D01*
X197044719Y-91109806D01*
X197393638Y-90763125D01*
X197502558Y-90685007D01*
X197860808Y-90477734D01*
X198280786Y-90283058D01*
X198513281Y-90194940D01*
X197886959Y-90194940D01*
X197629209Y-90326435D01*
X197262039Y-90557254D01*
X196952698Y-90855300D01*
X196706489Y-91190333D01*
X196443828Y-91691554D01*
X196300209Y-92206303D01*
X196266740Y-92574213D01*
X196258357Y-92937848D01*
X196083915Y-92834803D01*
X195945744Y-92739166D01*
X195756995Y-92591081D01*
X195575619Y-92437412D01*
X195241765Y-92143067D01*
X195250784Y-91732158D01*
X195306233Y-91232013D01*
X195442683Y-90773980D01*
X195649270Y-90373574D01*
X195915130Y-90046306D01*
X196229400Y-89807689D01*
X196581214Y-89673236D01*
X196706098Y-89654137D01*
X197002928Y-89661145D01*
X197280894Y-89751631D01*
X197573858Y-89938249D01*
X197668355Y-90013728D01*
X197886959Y-90194940D01*
X198513281Y-90194940D01*
X198724229Y-90114989D01*
X199152873Y-89987533D01*
X199528455Y-89914698D01*
X199632921Y-89905113D01*
X199886618Y-89896376D01*
X200025851Y-89907623D01*
X200061749Y-89939995D01*
X201019682Y-89939995D01*
X200815250Y-89822209D01*
X200605510Y-89724550D01*
X200435488Y-89661903D01*
X200265273Y-89626545D01*
X200054959Y-89610752D01*
X199764635Y-89606800D01*
X199702000Y-89606750D01*
X199391517Y-89609628D01*
X199169509Y-89622988D01*
X198997494Y-89653912D01*
X198836992Y-89709483D01*
X198649522Y-89796787D01*
X198637563Y-89802700D01*
X198491337Y-89876981D01*
X198377926Y-89927863D01*
X198278521Y-89948333D01*
X198174314Y-89931381D01*
X198046497Y-89869994D01*
X197876263Y-89757160D01*
X197644802Y-89585868D01*
X197357172Y-89367243D01*
X196800283Y-89367243D01*
X196453492Y-89476323D01*
X196054673Y-89665749D01*
X195706243Y-89956962D01*
X195421210Y-90330371D01*
X195212585Y-90766386D01*
X195093378Y-91245419D01*
X195070053Y-91559375D01*
X195056740Y-91712516D01*
X195025680Y-91793618D01*
X195016264Y-91797500D01*
X194965741Y-91744592D01*
X194877622Y-91603976D01*
X194768482Y-91402809D01*
X194735317Y-91337125D01*
X194535596Y-90907806D01*
X194404125Y-90553022D01*
X194333428Y-90245356D01*
X194316030Y-89957386D01*
X194323592Y-89826982D01*
X194402898Y-89429260D01*
X194561517Y-89130134D01*
X194802361Y-88926752D01*
X195128344Y-88816261D01*
X195379184Y-88793052D01*
X195865672Y-88834317D01*
X196282802Y-88978438D01*
X196553517Y-89158452D01*
X196800283Y-89367243D01*
X197357172Y-89367243D01*
X197333308Y-89349105D01*
X197248726Y-89284924D01*
X196876158Y-89008625D01*
X196576338Y-88804411D01*
X196325546Y-88661767D01*
X196100063Y-88570177D01*
X195876171Y-88519123D01*
X195630150Y-88498088D01*
X195468264Y-88495500D01*
X195015048Y-88533996D01*
X195015048Y-88533996D01*
G37*
X195015048Y-88533996D02*
X194656566Y-88653807D01*
X194384940Y-88861415D01*
X194192293Y-89163301D01*
X194070746Y-89565949D01*
X194054303Y-89658967D01*
X194023375Y-89904095D01*
X194026248Y-90102102D01*
X194067894Y-90314003D01*
X194123191Y-90504616D01*
X194409247Y-91228424D01*
X194796417Y-91884127D01*
X195276638Y-92462198D01*
X195841849Y-92953109D01*
X196483987Y-93347331D01*
X196560750Y-93385241D01*
X197042199Y-93584217D01*
X197518740Y-93705679D01*
X198039561Y-93760339D01*
X198309452Y-93766000D01*
X198796578Y-93766000D01*
X199115354Y-94103058D01*
X199291701Y-94302229D01*
X199444402Y-94496960D01*
X199538157Y-94641283D01*
X199592713Y-94780713D01*
X199667152Y-95017667D01*
X199755061Y-95326564D01*
X199850026Y-95681824D01*
X199945634Y-96057866D01*
X200035472Y-96429108D01*
X200113126Y-96769970D01*
X200172183Y-97054870D01*
X200206230Y-97258228D01*
X200211990Y-97328990D01*
X200199923Y-97496545D01*
X200168098Y-97739365D01*
X200123058Y-98008468D01*
X200116740Y-98041960D01*
X200017839Y-98875850D01*
X200041664Y-99688227D01*
X200185645Y-100471160D01*
X200447214Y-101216715D01*
X200823799Y-101916961D01*
X201312832Y-102563965D01*
X201714889Y-102975583D01*
X202224050Y-103368139D01*
X202830310Y-103700687D01*
X203516582Y-103968816D01*
X204265780Y-104168112D01*
X205060818Y-104294165D01*
X205884610Y-104342561D01*
X206720069Y-104308889D01*
X206834562Y-104297632D01*
X207362830Y-104220414D01*
X207926782Y-104100935D01*
X208485607Y-103950187D01*
X208998496Y-103779162D01*
X209419500Y-103601370D01*
X209696148Y-103455706D01*
X209930554Y-103303176D01*
X210160192Y-103115512D01*
X210422538Y-102864443D01*
X210499000Y-102787055D01*
X211037685Y-102149585D01*
X211466892Y-101450514D01*
X211784078Y-100696757D01*
X211986698Y-99895229D01*
X212072207Y-99052845D01*
X212071141Y-98960884D01*
X211764078Y-98960884D01*
X211744460Y-99393675D01*
X211704906Y-99781276D01*
X211679530Y-99935789D01*
X211506789Y-100601441D01*
X211255169Y-101239041D01*
X210936735Y-101829404D01*
X210563554Y-102353343D01*
X210147691Y-102791674D01*
X209701211Y-103125209D01*
X209657684Y-103150723D01*
X208826783Y-103553973D01*
X207941850Y-103846374D01*
X207621849Y-103921388D01*
X207200687Y-103986934D01*
X206694294Y-104029786D01*
X206142480Y-104049464D01*
X205585056Y-104045486D01*
X205061834Y-104017370D01*
X204612623Y-103964635D01*
X204574741Y-103958239D01*
X203765908Y-103759501D01*
X203017958Y-103459123D01*
X202339689Y-103063323D01*
X201739901Y-102578321D01*
X201227391Y-102010333D01*
X200810958Y-101365578D01*
X200755491Y-101259000D01*
X200530612Y-100761543D01*
X200382380Y-100298586D01*
X200294928Y-99817619D01*
X200280587Y-99687221D01*
X200266270Y-99016237D01*
X200344758Y-98322495D01*
X200508042Y-97639966D01*
X200748113Y-97002622D01*
X201038513Y-96472217D01*
X201479980Y-95903108D01*
X202007243Y-95413512D01*
X202628764Y-94996915D01*
X203353010Y-94646802D01*
X203472437Y-94599068D01*
X204293969Y-94315319D01*
X204333722Y-94305750D01*
X203253483Y-94305750D01*
X202754496Y-94542607D01*
X202322641Y-94782377D01*
X201892871Y-95083875D01*
X201486787Y-95426586D01*
X201125989Y-95789998D01*
X200832078Y-96153599D01*
X200626656Y-96496875D01*
X200579955Y-96607625D01*
X200506121Y-96766423D01*
X200445742Y-96799512D01*
X200395890Y-96706452D01*
X200367359Y-96575875D01*
X200300001Y-96242582D01*
X200202726Y-95838229D01*
X200087701Y-95411579D01*
X200016440Y-95169156D01*
X199954067Y-94935856D01*
X199941043Y-94759851D01*
X199988866Y-94607165D01*
X200109033Y-94443823D01*
X200313042Y-94235847D01*
X200341609Y-94208292D01*
X200640616Y-93976454D01*
X201032127Y-93754475D01*
X201481712Y-93556272D01*
X201954938Y-93395762D01*
X202417377Y-93286863D01*
X202715213Y-93248868D01*
X203027676Y-93226250D01*
X203101446Y-93512000D01*
X203158112Y-93755635D01*
X203206109Y-94001409D01*
X203214350Y-94051750D01*
X203253483Y-94305750D01*
X204333722Y-94305750D01*
X205062734Y-94130272D01*
X205803571Y-94042099D01*
X206541319Y-94048971D01*
X207300817Y-94149061D01*
X207866520Y-94275616D01*
X208623192Y-94511129D01*
X209282770Y-94806223D01*
X209864850Y-95170354D01*
X210099469Y-95353223D01*
X210549424Y-95780712D01*
X210952208Y-96268783D01*
X211290147Y-96790215D01*
X211545564Y-97317786D01*
X211699343Y-97817250D01*
X211741918Y-98130083D01*
X211763364Y-98525491D01*
X211764078Y-98960884D01*
X212071141Y-98960884D01*
X212066126Y-98528500D01*
X211983762Y-97822516D01*
X211809616Y-97186113D01*
X211534746Y-96599868D01*
X211150211Y-96044356D01*
X210692169Y-95544000D01*
X210023755Y-94976442D01*
X209282918Y-94510091D01*
X208481093Y-94150769D01*
X207629711Y-93904305D01*
X207377741Y-93855218D01*
X206792857Y-93787256D01*
X206145669Y-93770121D01*
X205471873Y-93800783D01*
X204807164Y-93876214D01*
X204187236Y-93993386D01*
X203647784Y-94149269D01*
X203569407Y-94178338D01*
X203502836Y-94179212D01*
X203458917Y-94102419D01*
X203424363Y-93923893D01*
X203422759Y-93912682D01*
X203284603Y-93252996D01*
X203203251Y-93011067D01*
X202940649Y-93011067D01*
X202882858Y-93031804D01*
X202726757Y-93054321D01*
X202500920Y-93074935D01*
X202386875Y-93082450D01*
X201952544Y-93129705D01*
X201582684Y-93222545D01*
X201419525Y-93283344D01*
X200991704Y-93479193D01*
X200602645Y-93697169D01*
X200277801Y-93921004D01*
X200042627Y-94134429D01*
X199992107Y-94195669D01*
X199803964Y-94446924D01*
X199534246Y-94154087D01*
X199381903Y-93963427D01*
X199267215Y-93773584D01*
X199224039Y-93659364D01*
X199215241Y-93406336D01*
X199264880Y-93096085D01*
X199361816Y-92777633D01*
X199482930Y-92520008D01*
X199755426Y-92172600D01*
X200127200Y-91872773D01*
X200575984Y-91631293D01*
X201079510Y-91458923D01*
X201615509Y-91366430D01*
X201895968Y-91353479D01*
X202032177Y-91359175D01*
X202127501Y-91393039D01*
X202211174Y-91479300D01*
X202312428Y-91642186D01*
X202372218Y-91748192D01*
X202480623Y-91953604D01*
X202601622Y-92200783D01*
X202721626Y-92459542D01*
X202827047Y-92699691D01*
X202904297Y-92891041D01*
X202939788Y-93003405D01*
X202940649Y-93011067D01*
X203203251Y-93011067D01*
X203063741Y-92596188D01*
X202772011Y-91960833D01*
X202421254Y-91365505D01*
X202241904Y-91123605D01*
X201863000Y-91123605D01*
X201804668Y-91137335D01*
X201649895Y-91155228D01*
X201429021Y-91173935D01*
X201366968Y-91178351D01*
X201043720Y-91214052D01*
X200775843Y-91282743D01*
X200492435Y-91403828D01*
X200430343Y-91434680D01*
X199910151Y-91749411D01*
X199508723Y-92108801D01*
X199225819Y-92513157D01*
X199061197Y-92962784D01*
X199020742Y-93232514D01*
X198999585Y-93450945D01*
X198972886Y-93568663D01*
X198928976Y-93611810D01*
X198856186Y-93606525D01*
X198854008Y-93606024D01*
X198702409Y-93573073D01*
X198504955Y-93532613D01*
X198473698Y-93526411D01*
X198322887Y-93484655D01*
X198225881Y-93410485D01*
X198146317Y-93268188D01*
X198102199Y-93161558D01*
X198009749Y-92765639D01*
X198019327Y-92334058D01*
X198121422Y-91891886D01*
X198306525Y-91464194D01*
X198565126Y-91076053D01*
X198887716Y-90752532D01*
X199063693Y-90626804D01*
X199424197Y-90441783D01*
X199846790Y-90288643D01*
X200266903Y-90189947D01*
X200346503Y-90178532D01*
X200631227Y-90170703D01*
X200885310Y-90232738D01*
X201134949Y-90377174D01*
X201406343Y-90616553D01*
X201529985Y-90745054D01*
X201687831Y-90917145D01*
X201805223Y-91049884D01*
X201861067Y-91119292D01*
X201863000Y-91123605D01*
X202241904Y-91123605D01*
X202023310Y-90828776D01*
X201590018Y-90369220D01*
X201133218Y-90005411D01*
X201019682Y-89939995D01*
X200061749Y-89939995D01*
X200057799Y-89948640D01*
X199963875Y-90008508D01*
X199892038Y-90019500D01*
X199698658Y-90055518D01*
X199437782Y-90153907D01*
X199143004Y-90300163D01*
X198889154Y-90452414D01*
X198494219Y-90782997D01*
X198179974Y-91193968D01*
X197954826Y-91662394D01*
X197827181Y-92165339D01*
X197805446Y-92679871D01*
X197893563Y-93168532D01*
X197947304Y-93348101D01*
X197981886Y-93468280D01*
X197988813Y-93496125D01*
X197942461Y-93510777D01*
X197794876Y-93494797D01*
X197537107Y-93447014D01*
X197408858Y-93420372D01*
X197140257Y-93350820D01*
X196877495Y-93262432D01*
X196717504Y-93193481D01*
X196448044Y-93056013D01*
X196483845Y-92628977D01*
X196582090Y-92057488D01*
X196771626Y-91546179D01*
X197044719Y-91109806D01*
X197393638Y-90763125D01*
X197502558Y-90685007D01*
X197860808Y-90477734D01*
X198280786Y-90283058D01*
X198513281Y-90194940D01*
X197886959Y-90194940D01*
X197629209Y-90326435D01*
X197262039Y-90557254D01*
X196952698Y-90855300D01*
X196706489Y-91190333D01*
X196443828Y-91691554D01*
X196300209Y-92206303D01*
X196266740Y-92574213D01*
X196258357Y-92937848D01*
X196083915Y-92834803D01*
X195945744Y-92739166D01*
X195756995Y-92591081D01*
X195575619Y-92437412D01*
X195241765Y-92143067D01*
X195250784Y-91732158D01*
X195306233Y-91232013D01*
X195442683Y-90773980D01*
X195649270Y-90373574D01*
X195915130Y-90046306D01*
X196229400Y-89807689D01*
X196581214Y-89673236D01*
X196706098Y-89654137D01*
X197002928Y-89661145D01*
X197280894Y-89751631D01*
X197573858Y-89938249D01*
X197668355Y-90013728D01*
X197886959Y-90194940D01*
X198513281Y-90194940D01*
X198724229Y-90114989D01*
X199152873Y-89987533D01*
X199528455Y-89914698D01*
X199632921Y-89905113D01*
X199886618Y-89896376D01*
X200025851Y-89907623D01*
X200061749Y-89939995D01*
X201019682Y-89939995D01*
X200815250Y-89822209D01*
X200605510Y-89724550D01*
X200435488Y-89661903D01*
X200265273Y-89626545D01*
X200054959Y-89610752D01*
X199764635Y-89606800D01*
X199702000Y-89606750D01*
X199391517Y-89609628D01*
X199169509Y-89622988D01*
X198997494Y-89653912D01*
X198836992Y-89709483D01*
X198649522Y-89796787D01*
X198637563Y-89802700D01*
X198491337Y-89876981D01*
X198377926Y-89927863D01*
X198278521Y-89948333D01*
X198174314Y-89931381D01*
X198046497Y-89869994D01*
X197876263Y-89757160D01*
X197644802Y-89585868D01*
X197357172Y-89367243D01*
X196800283Y-89367243D01*
X196453492Y-89476323D01*
X196054673Y-89665749D01*
X195706243Y-89956962D01*
X195421210Y-90330371D01*
X195212585Y-90766386D01*
X195093378Y-91245419D01*
X195070053Y-91559375D01*
X195056740Y-91712516D01*
X195025680Y-91793618D01*
X195016264Y-91797500D01*
X194965741Y-91744592D01*
X194877622Y-91603976D01*
X194768482Y-91402809D01*
X194735317Y-91337125D01*
X194535596Y-90907806D01*
X194404125Y-90553022D01*
X194333428Y-90245356D01*
X194316030Y-89957386D01*
X194323592Y-89826982D01*
X194402898Y-89429260D01*
X194561517Y-89130134D01*
X194802361Y-88926752D01*
X195128344Y-88816261D01*
X195379184Y-88793052D01*
X195865672Y-88834317D01*
X196282802Y-88978438D01*
X196553517Y-89158452D01*
X196800283Y-89367243D01*
X197357172Y-89367243D01*
X197333308Y-89349105D01*
X197248726Y-89284924D01*
X196876158Y-89008625D01*
X196576338Y-88804411D01*
X196325546Y-88661767D01*
X196100063Y-88570177D01*
X195876171Y-88519123D01*
X195630150Y-88498088D01*
X195468264Y-88495500D01*
X195015048Y-88533996D01*
G36*
X198255185Y-100611206D02*
X198255477Y-100687500D01*
X198274061Y-100870099D01*
X198307000Y-101036750D01*
X198355475Y-101227250D01*
X198358524Y-101005000D01*
X198345114Y-100813919D01*
X198308505Y-100659336D01*
X198307000Y-100655750D01*
X198267455Y-100576384D01*
X198255185Y-100611206D01*
X198255185Y-100611206D01*
G37*
X198255185Y-100611206D02*
X198255477Y-100687500D01*
X198274061Y-100870099D01*
X198307000Y-101036750D01*
X198355475Y-101227250D01*
X198358524Y-101005000D01*
X198345114Y-100813919D01*
X198308505Y-100659336D01*
X198307000Y-100655750D01*
X198267455Y-100576384D01*
X198255185Y-100611206D01*
G36*
X199286777Y-100554110D02*
X199263786Y-100700131D01*
X199259500Y-100814500D01*
X199270923Y-100995615D01*
X199300127Y-101110573D01*
X199323000Y-101132000D01*
X199359224Y-101074889D01*
X199382215Y-100928868D01*
X199386500Y-100814500D01*
X199375078Y-100633384D01*
X199345874Y-100518426D01*
X199323000Y-100497000D01*
X199286777Y-100554110D01*
X199286777Y-100554110D01*
G37*
X199286777Y-100554110D02*
X199263786Y-100700131D01*
X199259500Y-100814500D01*
X199270923Y-100995615D01*
X199300127Y-101110573D01*
X199323000Y-101132000D01*
X199359224Y-101074889D01*
X199382215Y-100928868D01*
X199386500Y-100814500D01*
X199375078Y-100633384D01*
X199345874Y-100518426D01*
X199323000Y-100497000D01*
X199286777Y-100554110D01*
G36*
X198759976Y-100467069D02*
X198756249Y-100577183D01*
X198767483Y-100732432D01*
X198790978Y-100892706D01*
X198819282Y-101005000D01*
X198847544Y-101059461D01*
X198855043Y-100996546D01*
X198842820Y-100817909D01*
X198820280Y-100621235D01*
X198795846Y-100482682D01*
X198781368Y-100442201D01*
X198759976Y-100467069D01*
X198759976Y-100467069D01*
G37*
X198759976Y-100467069D02*
X198756249Y-100577183D01*
X198767483Y-100732432D01*
X198790978Y-100892706D01*
X198819282Y-101005000D01*
X198847544Y-101059461D01*
X198855043Y-100996546D01*
X198842820Y-100817909D01*
X198820280Y-100621235D01*
X198795846Y-100482682D01*
X198781368Y-100442201D01*
X198759976Y-100467069D01*
G36*
X215941474Y-98840319D02*
X215902921Y-98961434D01*
X215857409Y-99149748D01*
X215810724Y-99376041D01*
X215768656Y-99611092D01*
X215736990Y-99825680D01*
X215721514Y-99990586D01*
X215722295Y-100052500D01*
X215739882Y-100060279D01*
X215774765Y-99961138D01*
X215821708Y-99773137D01*
X215869622Y-99544500D01*
X215920219Y-99265376D01*
X215955241Y-99031274D01*
X215970852Y-98870839D01*
X215967279Y-98815624D01*
X215941474Y-98840319D01*
X215941474Y-98840319D01*
G37*
X215941474Y-98840319D02*
X215902921Y-98961434D01*
X215857409Y-99149748D01*
X215810724Y-99376041D01*
X215768656Y-99611092D01*
X215736990Y-99825680D01*
X215721514Y-99990586D01*
X215722295Y-100052500D01*
X215739882Y-100060279D01*
X215774765Y-99961138D01*
X215821708Y-99773137D01*
X215869622Y-99544500D01*
X215920219Y-99265376D01*
X215955241Y-99031274D01*
X215970852Y-98870839D01*
X215967279Y-98815624D01*
X215941474Y-98840319D01*
G36*
X215414726Y-99095699D02*
X215390609Y-99197227D01*
X215366889Y-99361986D01*
X215346991Y-99558171D01*
X215334341Y-99753979D01*
X215332364Y-99917608D01*
X215338541Y-99992356D01*
X215355988Y-100009073D01*
X215380068Y-99918020D01*
X215406452Y-99737954D01*
X215415082Y-99660703D01*
X215435785Y-99416458D01*
X215443955Y-99216393D01*
X215438224Y-99098286D01*
X215435814Y-99089203D01*
X215414726Y-99095699D01*
X215414726Y-99095699D01*
G37*
X215414726Y-99095699D02*
X215390609Y-99197227D01*
X215366889Y-99361986D01*
X215346991Y-99558171D01*
X215334341Y-99753979D01*
X215332364Y-99917608D01*
X215338541Y-99992356D01*
X215355988Y-100009073D01*
X215380068Y-99918020D01*
X215406452Y-99737954D01*
X215415082Y-99660703D01*
X215435785Y-99416458D01*
X215443955Y-99216393D01*
X215438224Y-99098286D01*
X215435814Y-99089203D01*
X215414726Y-99095699D01*
G36*
X214912378Y-98858983D02*
X214884591Y-98939071D01*
X214852165Y-99112855D01*
X214820884Y-99347462D01*
X214812250Y-99428133D01*
X214787120Y-99714253D01*
X214778815Y-99899903D01*
X214786937Y-99978121D01*
X214811087Y-99941943D01*
X214836311Y-99849082D01*
X214866842Y-99683745D01*
X214893850Y-99474944D01*
X214914830Y-99255279D01*
X214927276Y-99057351D01*
X214928685Y-98913760D01*
X214916551Y-98857107D01*
X214912378Y-98858983D01*
X214912378Y-98858983D01*
G37*
X214912378Y-98858983D02*
X214884591Y-98939071D01*
X214852165Y-99112855D01*
X214820884Y-99347462D01*
X214812250Y-99428133D01*
X214787120Y-99714253D01*
X214778815Y-99899903D01*
X214786937Y-99978121D01*
X214811087Y-99941943D01*
X214836311Y-99849082D01*
X214866842Y-99683745D01*
X214893850Y-99474944D01*
X214914830Y-99255279D01*
X214927276Y-99057351D01*
X214928685Y-98913760D01*
X214916551Y-98857107D01*
X214912378Y-98858983D01*
G36*
X190186512Y-96329002D02*
X190195105Y-96343271D01*
X190199552Y-96420080D01*
X190170594Y-96576622D01*
X190137868Y-96698784D01*
X190082878Y-96912624D01*
X190070322Y-97024493D01*
X190094750Y-97028123D01*
X190150711Y-96917246D01*
X190203609Y-96774379D01*
X190278829Y-96529697D01*
X190301255Y-96382502D01*
X190271945Y-96315267D01*
X190231917Y-96306000D01*
X190186512Y-96329002D01*
X190186512Y-96329002D01*
G37*
X190186512Y-96329002D02*
X190195105Y-96343271D01*
X190199552Y-96420080D01*
X190170594Y-96576622D01*
X190137868Y-96698784D01*
X190082878Y-96912624D01*
X190070322Y-97024493D01*
X190094750Y-97028123D01*
X190150711Y-96917246D01*
X190203609Y-96774379D01*
X190278829Y-96529697D01*
X190301255Y-96382502D01*
X190271945Y-96315267D01*
X190231917Y-96306000D01*
X190186512Y-96329002D01*
G36*
X189297385Y-96453048D02*
X189298486Y-96496500D01*
X189319700Y-96679243D01*
X189353500Y-96845750D01*
X189384456Y-96958291D01*
X189399584Y-96964711D01*
X189406464Y-96856259D01*
X189408515Y-96782250D01*
X189397976Y-96594725D01*
X189363628Y-96452335D01*
X189353500Y-96433000D01*
X189309597Y-96387465D01*
X189297385Y-96453048D01*
X189297385Y-96453048D01*
G37*
X189297385Y-96453048D02*
X189298486Y-96496500D01*
X189319700Y-96679243D01*
X189353500Y-96845750D01*
X189384456Y-96958291D01*
X189399584Y-96964711D01*
X189406464Y-96856259D01*
X189408515Y-96782250D01*
X189397976Y-96594725D01*
X189363628Y-96452335D01*
X189353500Y-96433000D01*
X189309597Y-96387465D01*
X189297385Y-96453048D01*
G36*
X189794373Y-96560000D02*
X189761645Y-96757873D01*
X189754925Y-96893117D01*
X189773404Y-96943744D01*
X189807102Y-96906122D01*
X189828272Y-96809918D01*
X189843448Y-96638889D01*
X189846538Y-96560000D01*
X189853622Y-96274250D01*
X189794373Y-96560000D01*
X189794373Y-96560000D01*
G37*
X189794373Y-96560000D02*
X189761645Y-96757873D01*
X189754925Y-96893117D01*
X189773404Y-96943744D01*
X189807102Y-96906122D01*
X189828272Y-96809918D01*
X189843448Y-96638889D01*
X189846538Y-96560000D01*
X189853622Y-96274250D01*
X189794373Y-96560000D01*
G36*
X190058962Y-87966796D02*
X190079147Y-88086710D01*
X190134013Y-88307989D01*
X190149960Y-88368500D01*
X190242538Y-88717750D01*
X190212457Y-88373362D01*
X190184270Y-88168802D01*
X190144339Y-88014833D01*
X190117188Y-87963787D01*
X190072096Y-87931428D01*
X190058962Y-87966796D01*
X190058962Y-87966796D01*
G37*
X190058962Y-87966796D02*
X190079147Y-88086710D01*
X190134013Y-88307989D01*
X190149960Y-88368500D01*
X190242538Y-88717750D01*
X190212457Y-88373362D01*
X190184270Y-88168802D01*
X190144339Y-88014833D01*
X190117188Y-87963787D01*
X190072096Y-87931428D01*
X190058962Y-87966796D01*
G36*
X189696582Y-88229221D02*
X189709147Y-88336750D01*
X189749780Y-88514050D01*
X189799875Y-88637711D01*
X189812392Y-88654250D01*
X189846443Y-88651955D01*
X189836460Y-88533054D01*
X189829153Y-88495500D01*
X189782748Y-88312397D01*
X189738094Y-88197603D01*
X189705827Y-88165189D01*
X189696582Y-88229221D01*
X189696582Y-88229221D01*
G37*
X189696582Y-88229221D02*
X189709147Y-88336750D01*
X189749780Y-88514050D01*
X189799875Y-88637711D01*
X189812392Y-88654250D01*
X189846443Y-88651955D01*
X189836460Y-88533054D01*
X189829153Y-88495500D01*
X189782748Y-88312397D01*
X189738094Y-88197603D01*
X189705827Y-88165189D01*
X189696582Y-88229221D01*
G36*
X190554148Y-88131743D02*
X190513385Y-88273705D01*
X190508454Y-88449243D01*
X190527357Y-88574079D01*
X190553581Y-88582843D01*
X190575875Y-88537931D01*
X190609790Y-88390693D01*
X190621570Y-88220431D01*
X190614247Y-88094197D01*
X190588807Y-88080792D01*
X190554148Y-88131743D01*
X190554148Y-88131743D01*
G37*
X190554148Y-88131743D02*
X190513385Y-88273705D01*
X190508454Y-88449243D01*
X190527357Y-88574079D01*
X190553581Y-88582843D01*
X190575875Y-88537931D01*
X190609790Y-88390693D01*
X190621570Y-88220431D01*
X190614247Y-88094197D01*
X190588807Y-88080792D01*
X190554148Y-88131743D01*
G36*
X209461472Y-100609798D02*
X209251533Y-100709264D01*
X208950173Y-100775449D01*
X208588888Y-100807018D01*
X208199175Y-100802633D01*
X207812528Y-100760960D01*
X207501701Y-100692919D01*
X207268395Y-100631163D01*
X207125245Y-100609338D01*
X207042581Y-100625291D01*
X207005529Y-100656921D01*
X206992959Y-100750200D01*
X207093662Y-100846802D01*
X207294495Y-100937871D01*
X207514500Y-100999894D01*
X207733451Y-101032180D01*
X208028060Y-101051981D01*
X208359163Y-101059289D01*
X208687598Y-101054098D01*
X208974200Y-101036399D01*
X209179805Y-101006184D01*
X209202415Y-101000232D01*
X209378940Y-100920290D01*
X209516749Y-100808020D01*
X209586549Y-100692628D01*
X209578818Y-100624917D01*
X209499839Y-100590819D01*
X209461472Y-100609798D01*
X209461472Y-100609798D01*
G37*
X209461472Y-100609798D02*
X209251533Y-100709264D01*
X208950173Y-100775449D01*
X208588888Y-100807018D01*
X208199175Y-100802633D01*
X207812528Y-100760960D01*
X207501701Y-100692919D01*
X207268395Y-100631163D01*
X207125245Y-100609338D01*
X207042581Y-100625291D01*
X207005529Y-100656921D01*
X206992959Y-100750200D01*
X207093662Y-100846802D01*
X207294495Y-100937871D01*
X207514500Y-100999894D01*
X207733451Y-101032180D01*
X208028060Y-101051981D01*
X208359163Y-101059289D01*
X208687598Y-101054098D01*
X208974200Y-101036399D01*
X209179805Y-101006184D01*
X209202415Y-101000232D01*
X209378940Y-100920290D01*
X209516749Y-100808020D01*
X209586549Y-100692628D01*
X209578818Y-100624917D01*
X209499839Y-100590819D01*
X209461472Y-100609798D01*
G36*
X205060275Y-99908989D02*
X205000426Y-100020083D01*
X205040396Y-100150475D01*
X205044680Y-100155798D01*
X205134461Y-100232910D01*
X205231382Y-100216759D01*
X205315070Y-100161949D01*
X205390023Y-100050596D01*
X205363633Y-99938023D01*
X205253246Y-99868202D01*
X205196750Y-99862000D01*
X205060275Y-99908989D01*
X205060275Y-99908989D01*
G37*
X205060275Y-99908989D02*
X205000426Y-100020083D01*
X205040396Y-100150475D01*
X205044680Y-100155798D01*
X205134461Y-100232910D01*
X205231382Y-100216759D01*
X205315070Y-100161949D01*
X205390023Y-100050596D01*
X205363633Y-99938023D01*
X205253246Y-99868202D01*
X205196750Y-99862000D01*
X205060275Y-99908989D01*
G36*
X210577184Y-99584247D02*
X210485471Y-99696172D01*
X210467250Y-99773670D01*
X210517517Y-99872112D01*
X210632567Y-99917664D01*
X210758782Y-99903360D01*
X210842472Y-99822411D01*
X210841973Y-99688714D01*
X210761008Y-99589335D01*
X210640090Y-99560642D01*
X210577184Y-99584247D01*
X210577184Y-99584247D01*
G37*
X210577184Y-99584247D02*
X210485471Y-99696172D01*
X210467250Y-99773670D01*
X210517517Y-99872112D01*
X210632567Y-99917664D01*
X210758782Y-99903360D01*
X210842472Y-99822411D01*
X210841973Y-99688714D01*
X210761008Y-99589335D01*
X210640090Y-99560642D01*
X210577184Y-99584247D01*
M02*
