G04 #@! TF.FileFunction,Soldermask,Bot*
%FSLAX46Y46*%
G04 Gerber Fmt 4.6, Leading zero omitted, Abs format (unit mm)*
G04 Created by KiCad (PCBNEW 4.0.2-stable) date Sun May 15 21:38:53 2016*
%MOMM*%
G01*
G04 APERTURE LIST*
%ADD10C,0.100000*%
%ADD11C,2.800000*%
%ADD12R,2.800000X2.800000*%
%ADD13C,1.325000*%
G04 APERTURE END LIST*
D10*
D11*
X269750000Y-106250000D03*
D12*
X269750000Y-109750000D03*
D13*
X164180000Y-88450000D03*
X165450000Y-88450000D03*
X164180000Y-89720000D03*
X165450000Y-89720000D03*
X164180000Y-90990000D03*
X165450000Y-90990000D03*
X164180000Y-92260000D03*
X165450000Y-92260000D03*
X164180000Y-93530000D03*
X165450000Y-93530000D03*
X164180000Y-94800000D03*
X165450000Y-94800000D03*
X164180000Y-96070000D03*
X165450000Y-96070000D03*
X164180000Y-97340000D03*
X165450000Y-97340000D03*
X164180000Y-98610000D03*
X165450000Y-98610000D03*
X164180000Y-99880000D03*
X165450000Y-99880000D03*
X164180000Y-101150000D03*
X165450000Y-101150000D03*
X164180000Y-102420000D03*
X165450000Y-102420000D03*
X164180000Y-103690000D03*
X165450000Y-103690000D03*
X164180000Y-104960000D03*
X165450000Y-104960000D03*
X164180000Y-106230000D03*
X165450000Y-106230000D03*
X164180000Y-107500000D03*
X165450000Y-107500000D03*
X164180000Y-108770000D03*
X165450000Y-108770000D03*
X164180000Y-110040000D03*
X165450000Y-110040000D03*
X164180000Y-111310000D03*
X165450000Y-111310000D03*
X164180000Y-112580000D03*
X165450000Y-112580000D03*
M02*
