G04 #@! TF.FileFunction,Soldermask,Top*
%FSLAX46Y46*%
G04 Gerber Fmt 4.6, Leading zero omitted, Abs format (unit mm)*
G04 Created by KiCad (PCBNEW 4.0.2-stable) date Sun May 15 21:38:53 2016*
%MOMM*%
G01*
G04 APERTURE LIST*
%ADD10C,0.100000*%
%ADD11R,1.000000X0.800000*%
%ADD12R,1.197560X1.197560*%
%ADD13R,1.000000X0.900000*%
%ADD14R,1.200000X1.150000*%
%ADD15R,1.150000X1.200000*%
%ADD16R,0.900000X1.000000*%
%ADD17R,1.620000X1.310000*%
%ADD18R,1.440000X2.200000*%
%ADD19R,1.010000X1.645000*%
%ADD20R,2.200000X1.440000*%
%ADD21R,1.645000X1.010000*%
%ADD22R,1.300000X0.900000*%
%ADD23C,2.800000*%
%ADD24R,2.800000X2.800000*%
%ADD25R,0.800000X1.000000*%
%ADD26R,1.400000X1.400000*%
%ADD27R,1.450000X2.600000*%
%ADD28R,0.900000X0.700000*%
%ADD29R,0.700000X0.900000*%
%ADD30R,1.550000X1.550000*%
%ADD31R,0.700000X1.250000*%
%ADD32R,1.250000X0.700000*%
%ADD33R,1.700000X1.700000*%
%ADD34R,1.460000X1.050000*%
%ADD35O,1.150000X0.700000*%
%ADD36O,0.700000X1.150000*%
%ADD37R,1.300000X1.300000*%
%ADD38R,1.850000X0.850000*%
%ADD39R,1.149300X0.798780*%
%ADD40R,1.200000X0.750000*%
%ADD41R,0.750000X1.200000*%
%ADD42R,1.650000X1.650000*%
%ADD43R,1.400000X1.800000*%
%ADD44R,1.200000X1.200000*%
%ADD45R,6.750000X2.310000*%
%ADD46R,6.400000X0.780000*%
%ADD47R,1.100000X0.650000*%
%ADD48R,1.230000X1.590000*%
%ADD49R,1.300000X2.100000*%
%ADD50C,1.325000*%
%ADD51R,1.200100X1.200100*%
G04 APERTURE END LIST*
D10*
D11*
X181300000Y-114550000D03*
X181300000Y-115450000D03*
D12*
X181300000Y-111501400D03*
X181300000Y-113000000D03*
D13*
X254550000Y-109250000D03*
X253450000Y-109250000D03*
D14*
X186350000Y-88700000D03*
X184850000Y-88700000D03*
X183500000Y-103750000D03*
X182000000Y-103750000D03*
D15*
X195600000Y-100950000D03*
X195600000Y-102450000D03*
D13*
X183050000Y-98000000D03*
X181950000Y-98000000D03*
X181950000Y-99250000D03*
X183050000Y-99250000D03*
D15*
X182750000Y-95250000D03*
X182750000Y-93750000D03*
D16*
X181250000Y-94250000D03*
X181250000Y-95350000D03*
D13*
X181950000Y-100500000D03*
X183050000Y-100500000D03*
X185300000Y-105600000D03*
X184200000Y-105600000D03*
X182450000Y-102300000D03*
X183550000Y-102300000D03*
X185200000Y-104250000D03*
X186300000Y-104250000D03*
X186350000Y-90200000D03*
X185250000Y-90200000D03*
D16*
X185900000Y-91600000D03*
X185900000Y-92700000D03*
D13*
X186650000Y-102750000D03*
X187750000Y-102750000D03*
D15*
X187800000Y-91950000D03*
X187800000Y-90450000D03*
X189300000Y-91950000D03*
X189300000Y-90450000D03*
D16*
X189750000Y-87850000D03*
X189750000Y-86750000D03*
D13*
X189650000Y-89000000D03*
X188550000Y-89000000D03*
D16*
X194000000Y-100850000D03*
X194000000Y-101950000D03*
D15*
X192100000Y-92950000D03*
X192100000Y-91450000D03*
X193600000Y-92950000D03*
X193600000Y-91450000D03*
D16*
X193700000Y-95350000D03*
X193700000Y-96450000D03*
D13*
X202600000Y-111250000D03*
X201500000Y-111250000D03*
X202600000Y-110000000D03*
X201500000Y-110000000D03*
X202550000Y-107250000D03*
X201450000Y-107250000D03*
X204100000Y-113500000D03*
X203000000Y-113500000D03*
X197650000Y-97150000D03*
X196550000Y-97150000D03*
X198500000Y-94600000D03*
X197400000Y-94600000D03*
D16*
X195250000Y-91450000D03*
X195250000Y-92550000D03*
X196250000Y-91450000D03*
X196250000Y-92550000D03*
D13*
X198950000Y-99300000D03*
X197850000Y-99300000D03*
D16*
X200250000Y-98050000D03*
X200250000Y-96950000D03*
X221700000Y-94550000D03*
X221700000Y-93450000D03*
D13*
X213050000Y-108250000D03*
X211950000Y-108250000D03*
X213050000Y-104750000D03*
X211950000Y-104750000D03*
X212250000Y-101250000D03*
X211150000Y-101250000D03*
X212550000Y-97750000D03*
X211450000Y-97750000D03*
X212550000Y-94500000D03*
X211450000Y-94500000D03*
X212300000Y-91000000D03*
X211200000Y-91000000D03*
X211750000Y-87500000D03*
X210650000Y-87500000D03*
D16*
X228000000Y-89100000D03*
X228000000Y-88000000D03*
D13*
X221050000Y-108250000D03*
X219950000Y-108250000D03*
X221000000Y-104750000D03*
X219900000Y-104750000D03*
X221250000Y-101250000D03*
X220150000Y-101250000D03*
X221300000Y-98000000D03*
X220200000Y-98000000D03*
D16*
X220250000Y-93450000D03*
X220250000Y-94550000D03*
X220250000Y-89950000D03*
X220250000Y-91050000D03*
D13*
X220800000Y-87500000D03*
X219700000Y-87500000D03*
X234300000Y-91750000D03*
X233200000Y-91750000D03*
X247050000Y-101250000D03*
X245950000Y-101250000D03*
X250050000Y-101250000D03*
X248950000Y-101250000D03*
D15*
X250000000Y-102750000D03*
X250000000Y-104250000D03*
X244250000Y-103500000D03*
X244250000Y-102000000D03*
D13*
X247750000Y-106000000D03*
X246650000Y-106000000D03*
X238800000Y-94500000D03*
X237700000Y-94500000D03*
X239700000Y-91750000D03*
X240800000Y-91750000D03*
X243300000Y-91750000D03*
X242200000Y-91750000D03*
X246300000Y-94500000D03*
X245200000Y-94500000D03*
X230450000Y-104750000D03*
X231550000Y-104750000D03*
D16*
X249500000Y-98550000D03*
X249500000Y-97450000D03*
D15*
X246750000Y-99000000D03*
X246750000Y-97500000D03*
D13*
X253800000Y-97500000D03*
X252700000Y-97500000D03*
D16*
X248250000Y-98550000D03*
X248250000Y-97450000D03*
D13*
X253750000Y-96250000D03*
X252650000Y-96250000D03*
X253800000Y-93250000D03*
X252700000Y-93250000D03*
D16*
X225750000Y-106750000D03*
X225750000Y-105650000D03*
X231500000Y-95500000D03*
X231500000Y-96600000D03*
D15*
X230000000Y-95500000D03*
X230000000Y-97000000D03*
D16*
X251750000Y-105500000D03*
X251750000Y-106600000D03*
X253000000Y-105500000D03*
X253000000Y-106600000D03*
D13*
X255500000Y-100750000D03*
X254400000Y-100750000D03*
X255550000Y-99750000D03*
X254450000Y-99750000D03*
D16*
X256750000Y-100800000D03*
X256750000Y-99700000D03*
X257500000Y-100800000D03*
X257500000Y-99700000D03*
X260000000Y-105750000D03*
X260000000Y-106850000D03*
X261500000Y-105950000D03*
X261500000Y-107050000D03*
D13*
X221050000Y-111750000D03*
X219950000Y-111750000D03*
X176750000Y-97200000D03*
X175650000Y-97200000D03*
X176750000Y-95900000D03*
X175650000Y-95900000D03*
D14*
X176750000Y-94500000D03*
X175250000Y-94500000D03*
D12*
X194000000Y-110750700D03*
X194000000Y-112249300D03*
D17*
X229750000Y-112385000D03*
X229750000Y-109115000D03*
X232250000Y-112385000D03*
X232250000Y-109115000D03*
X234750000Y-112385000D03*
X234750000Y-109115000D03*
X242250000Y-112385000D03*
X242250000Y-109115000D03*
X239750000Y-112385000D03*
X239750000Y-109115000D03*
X237250000Y-112385000D03*
X237250000Y-109115000D03*
D12*
X257500700Y-88750000D03*
X258999300Y-88750000D03*
D18*
X214625000Y-108250000D03*
X217875000Y-108250000D03*
D19*
X216250000Y-109177500D03*
X216250000Y-107322500D03*
D18*
X214625000Y-104750000D03*
X217875000Y-104750000D03*
D19*
X216250000Y-105677500D03*
X216250000Y-103822500D03*
D18*
X214625000Y-101250000D03*
X217875000Y-101250000D03*
D19*
X216250000Y-102177500D03*
X216250000Y-100322500D03*
D18*
X214625000Y-97750000D03*
X217875000Y-97750000D03*
D19*
X216250000Y-98677500D03*
X216250000Y-96822500D03*
D18*
X214625000Y-94500000D03*
X217875000Y-94500000D03*
D19*
X216250000Y-95427500D03*
X216250000Y-93572500D03*
D18*
X214625000Y-91000000D03*
X217875000Y-91000000D03*
D19*
X216250000Y-91927500D03*
X216250000Y-90072500D03*
D18*
X214625000Y-87500000D03*
X217875000Y-87500000D03*
D19*
X216250000Y-88427500D03*
X216250000Y-86572500D03*
D18*
X214625000Y-111750000D03*
X217875000Y-111750000D03*
D19*
X216250000Y-112677500D03*
X216250000Y-110822500D03*
D20*
X225750000Y-111750000D03*
X225750000Y-108500000D03*
D21*
X226677500Y-110125000D03*
X224822500Y-110125000D03*
D11*
X200000000Y-107300000D03*
X200000000Y-108200000D03*
X201500000Y-112550000D03*
X201500000Y-113450000D03*
X251250000Y-96200000D03*
X251250000Y-95300000D03*
X251250000Y-94150000D03*
X251250000Y-93250000D03*
D22*
X178400000Y-92950000D03*
X178400000Y-94450000D03*
D23*
X269750000Y-106250000D03*
D24*
X269750000Y-109750000D03*
D11*
X179600000Y-105250000D03*
X179600000Y-104350000D03*
X178600000Y-100150000D03*
X178600000Y-99250000D03*
D25*
X179800000Y-100550000D03*
X180700000Y-100550000D03*
D11*
X180400000Y-101950000D03*
X180400000Y-102850000D03*
X178600000Y-98000000D03*
X178600000Y-97100000D03*
D25*
X180700000Y-98000000D03*
X179800000Y-98000000D03*
X180700000Y-99250000D03*
X179800000Y-99250000D03*
D11*
X194000000Y-114850000D03*
X194000000Y-113950000D03*
D25*
X182000000Y-105600000D03*
X182900000Y-105600000D03*
X185200000Y-107000000D03*
X184300000Y-107000000D03*
D11*
X188500000Y-86850000D03*
X188500000Y-87750000D03*
X183800000Y-91550000D03*
X183800000Y-92450000D03*
X191100000Y-106050000D03*
X191100000Y-106950000D03*
X189750000Y-106050000D03*
X189750000Y-106950000D03*
X188300000Y-106000000D03*
X188300000Y-106900000D03*
X186900000Y-106050000D03*
X186900000Y-106950000D03*
X190700000Y-91250000D03*
X190700000Y-92150000D03*
D25*
X196200000Y-94650000D03*
X195300000Y-94650000D03*
D11*
X196600000Y-99250000D03*
X196600000Y-98350000D03*
D25*
X203800000Y-107250000D03*
X204700000Y-107250000D03*
X205550000Y-113500000D03*
X206450000Y-113500000D03*
D11*
X206000000Y-108150000D03*
X206000000Y-107250000D03*
X207750000Y-114400000D03*
X207750000Y-113500000D03*
D25*
X207550000Y-107000000D03*
X208450000Y-107000000D03*
X209050000Y-113500000D03*
X209950000Y-113500000D03*
X194350000Y-90100000D03*
X195250000Y-90100000D03*
D11*
X200250000Y-100150000D03*
X200250000Y-99250000D03*
X229750000Y-107400000D03*
X229750000Y-106500000D03*
X232250000Y-107450000D03*
X232250000Y-106550000D03*
X234750000Y-107450000D03*
X234750000Y-106550000D03*
D25*
X231200000Y-100500000D03*
X230300000Y-100500000D03*
X231150000Y-102000000D03*
X230250000Y-102000000D03*
X231200000Y-103500000D03*
X230300000Y-103500000D03*
X242200000Y-100750000D03*
X241300000Y-100750000D03*
X242200000Y-102000000D03*
X241300000Y-102000000D03*
X242200000Y-103250000D03*
X241300000Y-103250000D03*
D11*
X237250000Y-107450000D03*
X237250000Y-106550000D03*
X239750000Y-107450000D03*
X239750000Y-106550000D03*
X242250000Y-107450000D03*
X242250000Y-106550000D03*
X251250000Y-97500000D03*
X251250000Y-98400000D03*
D25*
X257300000Y-98500000D03*
X258200000Y-98500000D03*
X255950000Y-93250000D03*
X255050000Y-93250000D03*
X258200000Y-95500000D03*
X257300000Y-95500000D03*
D11*
X257250000Y-94450000D03*
X257250000Y-93550000D03*
X257250000Y-97450000D03*
X257250000Y-96550000D03*
D25*
X259450000Y-93250000D03*
X258550000Y-93250000D03*
D11*
X260000000Y-103550000D03*
X260000000Y-104450000D03*
X260000000Y-101550000D03*
X260000000Y-102450000D03*
X262250000Y-102350000D03*
X262250000Y-103250000D03*
D25*
X262200000Y-104500000D03*
X261300000Y-104500000D03*
X255800000Y-109250000D03*
X256700000Y-109250000D03*
D11*
X171100000Y-102450000D03*
X171100000Y-103350000D03*
X173800000Y-96250000D03*
X173800000Y-97150000D03*
D25*
X173650000Y-107500000D03*
X174550000Y-107500000D03*
X260500000Y-88750000D03*
X261400000Y-88750000D03*
D26*
X176900000Y-111350000D03*
D27*
X178375000Y-112850000D03*
X175425000Y-112850000D03*
D26*
X176900000Y-114350000D03*
D28*
X185425000Y-95175000D03*
X185425000Y-95675000D03*
X185425000Y-96175000D03*
X185425000Y-96675000D03*
X185425000Y-97175000D03*
X185425000Y-97675000D03*
X185425000Y-98175000D03*
X185425000Y-98675000D03*
X185425000Y-99175000D03*
X185425000Y-99675000D03*
D29*
X186175000Y-100425000D03*
X186675000Y-100425000D03*
X187175000Y-100425000D03*
X187675000Y-100425000D03*
X188175000Y-100425000D03*
X188675000Y-100425000D03*
X189175000Y-100425000D03*
X189675000Y-100425000D03*
X190175000Y-100425000D03*
X190675000Y-100425000D03*
D28*
X191425000Y-99675000D03*
X191425000Y-99175000D03*
X191425000Y-98675000D03*
X191425000Y-98175000D03*
X191425000Y-97675000D03*
X191425000Y-97175000D03*
X191425000Y-96675000D03*
X191425000Y-96175000D03*
X191425000Y-95675000D03*
X191425000Y-95175000D03*
D29*
X190675000Y-94425000D03*
X190175000Y-94425000D03*
X189675000Y-94425000D03*
X189175000Y-94425000D03*
X188675000Y-94425000D03*
X188175000Y-94425000D03*
X187675000Y-94425000D03*
X187175000Y-94425000D03*
X186675000Y-94425000D03*
X186175000Y-94425000D03*
D30*
X190150000Y-99150000D03*
X190150000Y-98000000D03*
X190150000Y-96850000D03*
X190150000Y-95700000D03*
X189000000Y-99150000D03*
X189000000Y-98000000D03*
X189000000Y-96850000D03*
X189000000Y-95700000D03*
X187850000Y-99150000D03*
X187850000Y-98000000D03*
X187850000Y-96850000D03*
X187850000Y-95700000D03*
X186700000Y-99150000D03*
X186700000Y-98000000D03*
X186700000Y-96850000D03*
X186700000Y-95700000D03*
D26*
X208500000Y-108750000D03*
D27*
X209975000Y-110250000D03*
X207025000Y-110250000D03*
D26*
X208500000Y-111750000D03*
X195250000Y-88700000D03*
D27*
X193775000Y-87200000D03*
X196725000Y-87200000D03*
D26*
X195250000Y-85700000D03*
D31*
X203350000Y-98600000D03*
X203850000Y-98600000D03*
X204350000Y-98600000D03*
X204850000Y-98600000D03*
X205350000Y-98600000D03*
X205850000Y-98600000D03*
D32*
X206550000Y-97900000D03*
X206550000Y-97400000D03*
X206550000Y-96900000D03*
X206550000Y-96400000D03*
X206550000Y-95900000D03*
X206550000Y-95400000D03*
D31*
X205850000Y-94700000D03*
X205350000Y-94700000D03*
X204850000Y-94700000D03*
X204350000Y-94700000D03*
X203850000Y-94700000D03*
X203350000Y-94700000D03*
D32*
X202650000Y-95400000D03*
X202650000Y-95900000D03*
X202650000Y-96400000D03*
X202650000Y-96900000D03*
X202650000Y-97400000D03*
X202650000Y-97900000D03*
D33*
X205250000Y-96000000D03*
X203950000Y-96000000D03*
X205250000Y-97300000D03*
X203950000Y-97300000D03*
D31*
X227350000Y-91200000D03*
X226850000Y-91200000D03*
X226350000Y-91200000D03*
X225850000Y-91200000D03*
X225350000Y-91200000D03*
X224850000Y-91200000D03*
D32*
X224150000Y-91900000D03*
X224150000Y-92400000D03*
X224150000Y-92900000D03*
X224150000Y-93400000D03*
X224150000Y-93900000D03*
X224150000Y-94400000D03*
D31*
X224850000Y-95100000D03*
X225350000Y-95100000D03*
X225850000Y-95100000D03*
X226350000Y-95100000D03*
X226850000Y-95100000D03*
X227350000Y-95100000D03*
D32*
X228050000Y-94400000D03*
X228050000Y-93900000D03*
X228050000Y-93400000D03*
X228050000Y-92900000D03*
X228050000Y-92400000D03*
X228050000Y-91900000D03*
D33*
X225450000Y-93800000D03*
X226750000Y-93800000D03*
X225450000Y-92500000D03*
X226750000Y-92500000D03*
D34*
X245900000Y-102690000D03*
X245900000Y-103640000D03*
X245900000Y-104590000D03*
X248100000Y-104590000D03*
X248100000Y-102690000D03*
X248100000Y-103640000D03*
D35*
X240575000Y-94050000D03*
X240575000Y-94550000D03*
X240575000Y-95050000D03*
X240575000Y-95550000D03*
D36*
X241300000Y-96275000D03*
X241800000Y-96275000D03*
X242300000Y-96275000D03*
X242800000Y-96275000D03*
D35*
X243525000Y-95550000D03*
X243525000Y-95050000D03*
X243525000Y-94550000D03*
X243525000Y-94050000D03*
D36*
X242800000Y-93325000D03*
X242300000Y-93325000D03*
X241800000Y-93325000D03*
X241300000Y-93325000D03*
D37*
X242500000Y-95250000D03*
X242500000Y-94350000D03*
X241600000Y-95250000D03*
X241600000Y-94350000D03*
D38*
X233550000Y-99800000D03*
X233550000Y-100450000D03*
X233550000Y-101100000D03*
X233550000Y-101750000D03*
X233550000Y-102400000D03*
X233550000Y-103050000D03*
X233550000Y-103700000D03*
X239450000Y-103700000D03*
X239450000Y-103050000D03*
X239450000Y-102400000D03*
X239450000Y-101750000D03*
X239450000Y-101100000D03*
X239450000Y-100450000D03*
X239450000Y-99800000D03*
D39*
X247850080Y-93199520D03*
X247850080Y-93849760D03*
X247850080Y-94500000D03*
X249750000Y-94500000D03*
X249750000Y-93849760D03*
X249750000Y-93199520D03*
D36*
X233750000Y-96225000D03*
X234250000Y-96225000D03*
X234750000Y-96225000D03*
X235250000Y-96225000D03*
D35*
X235975000Y-95500000D03*
X235975000Y-95000000D03*
X235975000Y-94500000D03*
X235975000Y-94000000D03*
D36*
X235250000Y-93275000D03*
X234750000Y-93275000D03*
X234250000Y-93275000D03*
X233750000Y-93275000D03*
D35*
X233025000Y-94000000D03*
X233025000Y-94500000D03*
X233025000Y-95000000D03*
X233025000Y-95500000D03*
D37*
X234950000Y-94300000D03*
X234050000Y-94300000D03*
X234950000Y-95200000D03*
X234050000Y-95200000D03*
D40*
X254500000Y-104025000D03*
X254500000Y-104675000D03*
X254500000Y-105325000D03*
X254500000Y-105975000D03*
D41*
X255525000Y-107000000D03*
X256175000Y-107000000D03*
X256825000Y-107000000D03*
X257475000Y-107000000D03*
D40*
X258500000Y-105975000D03*
X258500000Y-105325000D03*
X258500000Y-104675000D03*
X258500000Y-104025000D03*
D41*
X257475000Y-103000000D03*
X256825000Y-103000000D03*
X256175000Y-103000000D03*
X255525000Y-103000000D03*
D42*
X257125000Y-105625000D03*
X257125000Y-104375000D03*
X255875000Y-105625000D03*
X255875000Y-104375000D03*
D43*
X173000000Y-99860000D03*
X173000000Y-102400000D03*
X173000000Y-104940000D03*
X176700000Y-104940000D03*
X176700000Y-102400000D03*
X176700000Y-99860000D03*
D44*
X174850000Y-99535000D03*
X174850000Y-105265000D03*
D45*
X269750000Y-97770000D03*
X269750000Y-88730000D03*
D46*
X263575000Y-93250000D03*
D15*
X251750000Y-104000000D03*
X251750000Y-102500000D03*
X191500000Y-113250000D03*
X191500000Y-111750000D03*
D13*
X188900000Y-115300000D03*
X190000000Y-115300000D03*
D16*
X184900000Y-114400000D03*
X184900000Y-113300000D03*
D14*
X187350000Y-109600000D03*
X185850000Y-109600000D03*
D15*
X184100000Y-110350000D03*
X184100000Y-111850000D03*
D47*
X186285000Y-111955000D03*
X186285000Y-112455000D03*
X186285000Y-112955000D03*
X186285000Y-113455000D03*
X189085000Y-113455000D03*
X189085000Y-112955000D03*
X189085000Y-112455000D03*
X189085000Y-111955000D03*
D48*
X188100000Y-113300000D03*
X188100000Y-112110000D03*
X187270000Y-113300000D03*
X187270000Y-112110000D03*
D49*
X261550000Y-113000000D03*
X264450000Y-113000000D03*
D16*
X208500000Y-96300000D03*
X208500000Y-97400000D03*
D50*
X164180000Y-88450000D03*
X165450000Y-88450000D03*
X164180000Y-89720000D03*
X165450000Y-89720000D03*
X164180000Y-90990000D03*
X165450000Y-90990000D03*
X164180000Y-92260000D03*
X165450000Y-92260000D03*
X164180000Y-93530000D03*
X165450000Y-93530000D03*
X164180000Y-94800000D03*
X165450000Y-94800000D03*
X164180000Y-96070000D03*
X165450000Y-96070000D03*
X164180000Y-97340000D03*
X165450000Y-97340000D03*
X164180000Y-98610000D03*
X165450000Y-98610000D03*
X164180000Y-99880000D03*
X165450000Y-99880000D03*
X164180000Y-101150000D03*
X165450000Y-101150000D03*
X164180000Y-102420000D03*
X165450000Y-102420000D03*
X164180000Y-103690000D03*
X165450000Y-103690000D03*
X164180000Y-104960000D03*
X165450000Y-104960000D03*
X164180000Y-106230000D03*
X165450000Y-106230000D03*
X164180000Y-107500000D03*
X165450000Y-107500000D03*
X164180000Y-108770000D03*
X165450000Y-108770000D03*
X164180000Y-110040000D03*
X165450000Y-110040000D03*
X164180000Y-111310000D03*
X165450000Y-111310000D03*
X164180000Y-112580000D03*
X165450000Y-112580000D03*
D51*
X256799240Y-112050000D03*
X256799240Y-113950000D03*
X258798220Y-113000000D03*
M02*
