<?xml version="1.0" standalone="no"?>
 <!DOCTYPE svg PUBLIC "-//W3C//DTD SVG 1.1//EN" 
 "http://www.w3.org/Graphics/SVG/1.1/DTD/svg11.dtd"> 
<svg xmlns="http://www.w3.org/2000/svg" version="1.1" 
    width="12.1234cm" height="14.2342cm" viewBox="0 0 47730 56040 ">
<title>SVG Picture created as vna_r1-Eco1.User.svg date 2018/05/20 15:45:27 </title>
  <desc>Picture generated by PCBNEW </desc>
<g style="fill:#000000; fill-opacity:1;stroke:#000000; stroke-opacity:1;
stroke-linecap:round; stroke-linejoin:round; "
 transform="translate(0 0) scale(1 1)">
</g>
<g style="fill:#008400; fill-opacity:0.0; 
stroke:#008400; stroke-width:-0.000393701; stroke-opacity:1; 
stroke-linecap:round; stroke-linejoin:round;">
</g>
<g style="fill:#008400; fill-opacity:0.0; 
stroke:#008400; stroke-width:78.7402; stroke-opacity:1; 
stroke-linecap:round; stroke-linejoin:round;">
<circle cx="45192.2" cy="49867.1" r="492.52" /> 
<circle cx="37908.7" cy="37957.6" r="492.126" /> 
<circle cx="37219.7" cy="26737.2" r="492.126" /> 
<circle cx="45192.2" cy="13449.8" r="492.52" /> 
<circle cx="38204" cy="1934.02" r="492.52" /> 
<circle cx="19207.9" cy="9906.46" r="492.126" /> 
<circle cx="19444.1" cy="16678.1" r="492.52" /> 
<circle cx="33538.6" cy="16953.7" r="492.52" /> 
<path d="M24227 10398
L20881 10398
" />
<path d="M24326 10497
L24227 10398
" />
<path d="M24818 10497
L24326 10497
" />
<path d="M24916 10398
L24818 10497
" />
<path d="M35841 10398
L24916 10398
" />
<path d="M35841 2327
L35841 10398
" />
<path d="M20881 2327
L35841 2327
" />
<path d="M20881 2426
L20881 2327
" />
<path d="M20881 10398
L20881 2426
" />
<path d="M20881 11087
L20881 11185
" />
<path d="M29444 11087
L20881 11087
" />
<path d="M35841 11087
L29444 11087
" />
<path d="M35841 11185
L35841 11087
" />
<path d="M35841 15910
L35841 11185
" />
<path d="M20881 15910
L35841 15910
" />
<path d="M20881 11185
L20881 15910
" />
<path d="M46373 42878
L46373 50851
" />
<path d="M45487 42878
L46373 42878
" />
<path d="M45487 48882
L45487 42878
" />
<path d="M44404 48882
L45487 48882
" />
<path d="M43912 49374
L44404 48882
" />
<path d="M37514 49374
L43912 49374
" />
<path d="M37416 49473
L37514 49374
" />
<path d="M37121 49473
L37416 49473
" />
<path d="M37022 49374
L37121 49473
" />
<path d="M36629 49374
L37022 49374
" />
<path d="M36629 39040
L36629 49374
" />
<path d="M40664 39040
L36629 39040
" />
<path d="M41550 38154
L40664 39040
" />
<path d="M46373 38154
L41550 38154
" />
<path d="M46373 30969
L46373 38154
" />
<path d="M45389 30969
L46373 30969
" />
<path d="M45389 32248
L45389 30969
" />
<path d="M45487 32347
L45389 32248
" />
<path d="M45487 32937
L45487 32347
" />
<path d="M45389 33036
L45487 32937
" />
<path d="M45389 36874
L45389 33036
" />
<path d="M43026 36874
L45389 36874
" />
<path d="M42829 37071
L43026 36874
" />
<path d="M42534 37071
L42829 37071
" />
<path d="M41255 37071
L42534 37071
" />
<path d="M41058 36874
L41255 37071
" />
<path d="M36629 36874
L41058 36874
" />
<path d="M36629 27918
L36629 36874
" />
<path d="M37908 27918
L36629 27918
" />
<path d="M38794 27032
L37908 27918
" />
<path d="M40467 27032
L38794 27032
" />
<path d="M41353 26146
L40467 27032
" />
<path d="M46373 26146
L41353 26146
" />
<path d="M46373 19355
L46373 26146
" />
<path d="M45389 19355
L46373 19355
" />
<path d="M45389 20831
L45389 19355
" />
<path d="M45487 20930
L45389 20831
" />
<path d="M45487 21422
L45487 20930
" />
<path d="M45389 21520
L45487 21422
" />
<path d="M45389 25654
L45389 21520
" />
<path d="M36629 25654
L45389 25654
" />
<path d="M36629 14630
L36629 25654
" />
<path d="M46373 14630
L36629 14630
" />
<path d="M46373 6953
L46373 14630
" />
<path d="M45389 6953
L46373 6953
" />
<path d="M45389 11579
L45389 6953
" />
<path d="M43814 13154
L45389 11579
" />
<path d="M36629 13154
L43814 13154
" />
<path d="M36629 13056
L36629 13154
" />
<path d="M36629 3213
L36629 13056
" />
<path d="M38892 3213
L36629 3213
" />
<path d="M39877 2229
L38892 3213
" />
<path d="M46373 2229
L39877 2229
" />
<path d="M46373 1245
L46373 2229
" />
<path d="M46373.3 1245.04 A787.402 787.402 0.0 0 0 45585.9 457.638 " />
<path d="M19109 457
L45585 457
" />
<path d="M19109 3607
L19109 457
" />
<path d="M17829 3607
L19109 3607
" />
<path d="M17829 16500
L17829 3607
" />
<path d="M19109 17780
L17829 16500
" />
<path d="M27180 17780
L19109 17780
" />
<path d="M27574 18174
L27180 17780
" />
<path d="M35841 18174
L27574 18174
" />
<path d="M35841 50851
L35841 18174
" />
<path d="M46373 50851
L35841 50851
" />
</g> 
</svg>
