<?xml version="1.0" standalone="no"?>
 <!DOCTYPE svg PUBLIC "-//W3C//DTD SVG 1.1//EN" 
 "http://www.w3.org/Graphics/SVG/1.1/DTD/svg11.dtd"> 
<svg xmlns="http://www.w3.org/2000/svg" version="1.1" 
    width="12.1234cm" height="14.2342cm" viewBox="0 0 47730 56040 ">
<title>SVG Picture created as vna_r1-B.Fab.svg date 2018/05/20 15:45:27 </title>
  <desc>Picture generated by PCBNEW </desc>
<g style="fill:#000000; fill-opacity:1;stroke:#000000; stroke-opacity:1;
stroke-linecap:round; stroke-linejoin:round; "
 transform="translate(0 0) scale(1 1)">
</g>
<g style="fill:#840000; fill-opacity:0.0; 
stroke:#840000; stroke-width:-0.000393701; stroke-opacity:1; 
stroke-linecap:round; stroke-linejoin:round;">
</g>
<g style="fill:#840000; fill-opacity:0.0; 
stroke:#840000; stroke-width:43.3071; stroke-opacity:1; 
stroke-linecap:round; stroke-linejoin:round;">
<path d="M24327 7463
L24473 7463
" />
<path d="M24400 7463
L24400 7207
L24424 7243
L24449 7268
L24473 7280
" />
<path d="M24169 7207
L24144 7207
L24120 7219
L24108 7231
L24095 7256
L24083 7304
L24083 7365
L24095 7414
L24108 7438
L24120 7450
L24144 7463
L24169 7463
L24193 7450
L24205 7438
L24217 7414
L24229 7365
L24229 7304
L24217 7256
L24205 7231
L24193 7219
L24169 7207
" />
<path d="M23925 7207
L23900 7207
L23876 7219
L23864 7231
L23852 7256
L23839 7304
L23839 7365
L23852 7414
L23864 7438
L23876 7450
L23900 7463
L23925 7463
L23949 7450
L23961 7438
L23974 7414
L23986 7365
L23986 7304
L23974 7256
L23961 7231
L23949 7219
L23925 7207
" />
<path d="M23535 7292
L23535 7463
" />
<path d="M23535 7316
L23523 7304
L23498 7292
L23462 7292
L23437 7304
L23425 7329
L23425 7463
" />
<path d="M23218 7329
L23303 7329
" />
<path d="M23303 7463
L23303 7207
L23181 7207
" />
<path d="M24327 6951
L24473 6951
" />
<path d="M24400 6951
L24400 6695
L24424 6732
L24449 6756
L24473 6768
" />
<path d="M24169 6695
L24144 6695
L24120 6707
L24108 6719
L24095 6744
L24083 6792
L24083 6853
L24095 6902
L24108 6926
L24120 6939
L24144 6951
L24169 6951
L24193 6939
L24205 6926
L24217 6902
L24229 6853
L24229 6792
L24217 6744
L24205 6719
L24193 6707
L24169 6695
" />
<path d="M23925 6695
L23900 6695
L23876 6707
L23864 6719
L23852 6744
L23839 6792
L23839 6853
L23852 6902
L23864 6926
L23876 6939
L23900 6951
L23925 6951
L23949 6939
L23961 6926
L23974 6902
L23986 6853
L23986 6792
L23974 6744
L23961 6719
L23949 6707
L23925 6695
" />
<path d="M23535 6780
L23535 6951
" />
<path d="M23535 6805
L23523 6792
L23498 6780
L23462 6780
L23437 6792
L23425 6817
L23425 6951
" />
<path d="M23218 6817
L23303 6817
" />
<path d="M23303 6951
L23303 6695
L23181 6695
" />
<path d="M24327 6439
L24473 6439
" />
<path d="M24400 6439
L24400 6183
L24424 6220
L24449 6244
L24473 6256
" />
<path d="M24169 6183
L24144 6183
L24120 6195
L24108 6208
L24095 6232
L24083 6281
L24083 6342
L24095 6390
L24108 6415
L24120 6427
L24144 6439
L24169 6439
L24193 6427
L24205 6415
L24217 6390
L24229 6342
L24229 6281
L24217 6232
L24205 6208
L24193 6195
L24169 6183
" />
<path d="M23925 6183
L23900 6183
L23876 6195
L23864 6208
L23852 6232
L23839 6281
L23839 6342
L23852 6390
L23864 6415
L23876 6427
L23900 6439
L23925 6439
L23949 6427
L23961 6415
L23974 6390
L23986 6342
L23986 6281
L23974 6232
L23961 6208
L23949 6195
L23925 6183
" />
<path d="M23535 6268
L23535 6439
" />
<path d="M23535 6293
L23523 6281
L23498 6268
L23462 6268
L23437 6281
L23425 6305
L23425 6439
" />
<path d="M23218 6305
L23303 6305
" />
<path d="M23303 6439
L23303 6183
L23181 6183
" />
<path d="M24327 5927
L24473 5927
" />
<path d="M24400 5927
L24400 5671
L24424 5708
L24449 5732
L24473 5744
" />
<path d="M24169 5671
L24144 5671
L24120 5684
L24108 5696
L24095 5720
L24083 5769
L24083 5830
L24095 5878
L24108 5903
L24120 5915
L24144 5927
L24169 5927
L24193 5915
L24205 5903
L24217 5878
L24229 5830
L24229 5769
L24217 5720
L24205 5696
L24193 5684
L24169 5671
" />
<path d="M23925 5671
L23900 5671
L23876 5684
L23864 5696
L23852 5720
L23839 5769
L23839 5830
L23852 5878
L23864 5903
L23876 5915
L23900 5927
L23925 5927
L23949 5915
L23961 5903
L23974 5878
L23986 5830
L23986 5769
L23974 5720
L23961 5696
L23949 5684
L23925 5671
" />
<path d="M23535 5757
L23535 5927
" />
<path d="M23535 5781
L23523 5769
L23498 5757
L23462 5757
L23437 5769
L23425 5793
L23425 5927
" />
<path d="M23218 5793
L23303 5793
" />
<path d="M23303 5927
L23303 5671
L23181 5671
" />
<path d="M28303 5415
L28450 5415
" />
<path d="M28376 5415
L28376 5160
L28401 5196
L28425 5220
L28450 5233
" />
<path d="M28145 5160
L28121 5160
L28096 5172
L28084 5184
L28072 5208
L28060 5257
L28060 5318
L28072 5367
L28084 5391
L28096 5403
L28121 5415
L28145 5415
L28169 5403
L28181 5391
L28194 5367
L28206 5318
L28206 5257
L28194 5208
L28181 5184
L28169 5172
L28145 5160
" />
<path d="M27901 5160
L27877 5160
L27852 5172
L27840 5184
L27828 5208
L27816 5257
L27816 5318
L27828 5367
L27840 5391
L27852 5403
L27877 5415
L27901 5415
L27926 5403
L27938 5391
L27950 5367
L27962 5318
L27962 5257
L27950 5208
L27938 5184
L27926 5172
L27901 5160
" />
<path d="M27511 5245
L27511 5415
" />
<path d="M27511 5269
L27499 5257
L27475 5245
L27438 5245
L27414 5257
L27402 5281
L27402 5415
" />
<path d="M27194 5281
L27280 5281
" />
<path d="M27280 5415
L27280 5160
L27158 5160
" />
<path d="M28303 5908
L28450 5908
" />
<path d="M28376 5908
L28376 5652
L28401 5688
L28425 5713
L28450 5725
" />
<path d="M28145 5652
L28121 5652
L28096 5664
L28084 5676
L28072 5700
L28060 5749
L28060 5810
L28072 5859
L28084 5883
L28096 5895
L28121 5908
L28145 5908
L28169 5895
L28181 5883
L28194 5859
L28206 5810
L28206 5749
L28194 5700
L28181 5676
L28169 5664
L28145 5652
" />
<path d="M27901 5652
L27877 5652
L27852 5664
L27840 5676
L27828 5700
L27816 5749
L27816 5810
L27828 5859
L27840 5883
L27852 5895
L27877 5908
L27901 5908
L27926 5895
L27938 5883
L27950 5859
L27962 5810
L27962 5749
L27950 5700
L27938 5676
L27926 5664
L27901 5652
" />
<path d="M27511 5737
L27511 5908
" />
<path d="M27511 5761
L27499 5749
L27475 5737
L27438 5737
L27414 5749
L27402 5774
L27402 5908
" />
<path d="M27194 5774
L27280 5774
" />
<path d="M27280 5908
L27280 5652
L27158 5652
" />
<path d="M28303 6400
L28450 6400
" />
<path d="M28376 6400
L28376 6144
L28401 6180
L28425 6205
L28450 6217
" />
<path d="M28145 6144
L28121 6144
L28096 6156
L28084 6168
L28072 6193
L28060 6241
L28060 6302
L28072 6351
L28084 6375
L28096 6387
L28121 6400
L28145 6400
L28169 6387
L28181 6375
L28194 6351
L28206 6302
L28206 6241
L28194 6193
L28181 6168
L28169 6156
L28145 6144
" />
<path d="M27901 6144
L27877 6144
L27852 6156
L27840 6168
L27828 6193
L27816 6241
L27816 6302
L27828 6351
L27840 6375
L27852 6387
L27877 6400
L27901 6400
L27926 6387
L27938 6375
L27950 6351
L27962 6302
L27962 6241
L27950 6193
L27938 6168
L27926 6156
L27901 6144
" />
<path d="M27511 6229
L27511 6400
" />
<path d="M27511 6253
L27499 6241
L27475 6229
L27438 6229
L27414 6241
L27402 6266
L27402 6400
" />
<path d="M27194 6266
L27280 6266
" />
<path d="M27280 6400
L27280 6144
L27158 6144
" />
<path d="M20071 21754
L20217 21754
" />
<path d="M20144 21754
L20144 21498
L20169 21535
L20193 21559
L20217 21571
" />
<path d="M19925 21608
L19949 21596
L19962 21583
L19974 21559
L19974 21547
L19962 21522
L19949 21510
L19925 21498
L19876 21498
L19852 21510
L19840 21522
L19827 21547
L19827 21559
L19840 21583
L19852 21596
L19876 21608
L19925 21608
L19949 21620
L19962 21632
L19974 21657
L19974 21705
L19962 21730
L19949 21742
L19925 21754
L19876 21754
L19852 21742
L19840 21730
L19827 21705
L19827 21657
L19840 21632
L19852 21620
L19876 21608
" />
<path d="M19523 21583
L19523 21839
" />
<path d="M19523 21596
L19498 21583
L19450 21583
L19425 21596
L19413 21608
L19401 21632
L19401 21705
L19413 21730
L19425 21742
L19450 21754
L19498 21754
L19523 21742
" />
<path d="M19206 21620
L19291 21620
" />
<path d="M19291 21754
L19291 21498
L19169 21498
" />
<path d="M20071 24707
L20217 24707
" />
<path d="M20144 24707
L20144 24451
L20169 24487
L20193 24512
L20217 24524
" />
<path d="M19925 24561
L19949 24548
L19962 24536
L19974 24512
L19974 24500
L19962 24475
L19949 24463
L19925 24451
L19876 24451
L19852 24463
L19840 24475
L19827 24500
L19827 24512
L19840 24536
L19852 24548
L19876 24561
L19925 24561
L19949 24573
L19962 24585
L19974 24609
L19974 24658
L19962 24682
L19949 24695
L19925 24707
L19876 24707
L19852 24695
L19840 24682
L19827 24658
L19827 24609
L19840 24585
L19852 24573
L19876 24561
" />
<path d="M19523 24536
L19523 24792
" />
<path d="M19523 24548
L19498 24536
L19450 24536
L19425 24548
L19413 24561
L19401 24585
L19401 24658
L19413 24682
L19425 24695
L19450 24707
L19498 24707
L19523 24695
" />
<path d="M19206 24573
L19291 24573
" />
<path d="M19291 24707
L19291 24451
L19169 24451
" />
<path d="M17181 24628
L17327 24628
" />
<path d="M17254 24628
L17254 24372
L17279 24409
L17303 24433
L17327 24445
" />
<path d="M17023 24372
L16998 24372
L16974 24384
L16962 24396
L16950 24421
L16938 24470
L16938 24531
L16950 24579
L16962 24604
L16974 24616
L16998 24628
L17023 24628
L17047 24616
L17059 24604
L17072 24579
L17084 24531
L17084 24470
L17072 24421
L17059 24396
L17047 24384
L17023 24372
" />
<path d="M16779 24372
L16755 24372
L16730 24384
L16718 24396
L16706 24421
L16694 24470
L16694 24531
L16706 24579
L16718 24604
L16730 24616
L16755 24628
L16779 24628
L16803 24616
L16816 24604
L16828 24579
L16840 24531
L16840 24470
L16828 24421
L16816 24396
L16803 24384
L16779 24372
" />
<path d="M16389 24457
L16389 24628
" />
<path d="M16389 24482
L16377 24470
L16353 24457
L16316 24457
L16292 24470
L16279 24494
L16279 24628
" />
<path d="M16072 24494
L16158 24494
" />
<path d="M16158 24628
L16158 24372
L16036 24372
" />
<path d="M13874 18309
L14020 18309
" />
<path d="M13947 18309
L13947 18053
L13972 18090
L13996 18114
L14020 18126
" />
<path d="M13716 18053
L13691 18053
L13667 18065
L13655 18078
L13643 18102
L13630 18151
L13630 18212
L13643 18260
L13655 18285
L13667 18297
L13691 18309
L13716 18309
L13740 18297
L13752 18285
L13764 18260
L13777 18212
L13777 18151
L13764 18102
L13752 18078
L13740 18065
L13716 18053
" />
<path d="M13472 18053
L13448 18053
L13423 18065
L13411 18078
L13399 18102
L13387 18151
L13387 18212
L13399 18260
L13411 18285
L13423 18297
L13448 18309
L13472 18309
L13496 18297
L13509 18285
L13521 18260
L13533 18212
L13533 18151
L13521 18102
L13509 18078
L13496 18065
L13472 18053
" />
<path d="M13082 18139
L13082 18309
" />
<path d="M13082 18163
L13070 18151
L13046 18139
L13009 18139
L12985 18151
L12972 18175
L12972 18309
" />
<path d="M12765 18175
L12851 18175
" />
<path d="M12851 18309
L12851 18053
L12729 18053
" />
<path d="M25856 5534
L26002 5534
" />
<path d="M25929 5534
L25929 5278
L25953 5314
L25978 5339
L26002 5351
" />
<path d="M25697 5278
L25673 5278
L25649 5290
L25636 5302
L25624 5326
L25612 5375
L25612 5436
L25624 5485
L25636 5509
L25649 5521
L25673 5534
L25697 5534
L25722 5521
L25734 5509
L25746 5485
L25758 5436
L25758 5375
L25746 5326
L25734 5302
L25722 5290
L25697 5278
" />
<path d="M25502 5534
L25502 5278
" />
<path d="M25478 5436
L25405 5534
" />
<path d="M25405 5363
L25502 5460
" />
<path d="M27709 4419
L27709 4273
" />
<path d="M27709 4346
L27453 4346
L27490 4321
L27514 4297
L27526 4273
" />
<path d="M27453 4577
L27453 4602
L27465 4626
L27477 4638
L27502 4651
L27551 4663
L27612 4663
L27660 4651
L27685 4638
L27697 4626
L27709 4602
L27709 4577
L27697 4553
L27685 4541
L27660 4529
L27612 4516
L27551 4516
L27502 4529
L27477 4541
L27465 4553
L27453 4577
" />
<path d="M27709 4772
L27453 4772
" />
<path d="M27612 4797
L27709 4870
" />
<path d="M27538 4870
L27636 4772
" />
<path d="M19638 23753
L19638 23607
" />
<path d="M19638 23680
L19382 23680
L19419 23656
L19443 23632
L19455 23607
" />
<path d="M19638 23863
L19382 23863
" />
<path d="M19541 23887
L19638 23961
" />
<path d="M19468 23961
L19565 23863
" />
<path d="M32536 25986
L32536 26169
L32548 26206
L32572 26230
L32609 26242
L32633 26242
" />
<path d="M32414 26242
L32414 25986
L32328 26169
L32243 25986
L32243 26242
" />
<path d="M32121 26242
L32121 25986
L32024 25986
L31999 25998
L31987 26011
L31975 26035
L31975 26072
L31987 26096
L31999 26108
L32024 26120
L32121 26120
" />
<path d="M14537 15415
L14683 15415
" />
<path d="M14610 15415
L14610 15160
L14634 15196
L14659 15220
L14683 15233
" />
<path d="M14378 15160
L14354 15160
L14330 15172
L14318 15184
L14305 15208
L14293 15257
L14293 15318
L14305 15367
L14318 15391
L14330 15403
L14354 15415
L14378 15415
L14403 15403
L14415 15391
L14427 15367
L14439 15318
L14439 15257
L14427 15208
L14415 15184
L14403 15172
L14378 15160
" />
<path d="M14184 15415
L14184 15160
" />
<path d="M14159 15318
L14086 15415
" />
<path d="M14086 15245
L14184 15342
" />
<path d="M14146 16281
L14146 16427
" />
<path d="M14402 16354
L14146 16354
" />
<path d="M14402 16512
L14146 16512
L14146 16610
L14158 16634
L14170 16646
L14195 16658
L14231 16658
L14256 16646
L14268 16634
L14280 16610
L14280 16512
" />
<path d="M14390 16756
L14402 16792
L14402 16853
L14390 16878
L14378 16890
L14353 16902
L14329 16902
L14304 16890
L14292 16878
L14280 16853
L14268 16805
L14256 16780
L14243 16768
L14219 16756
L14195 16756
L14170 16768
L14158 16780
L14146 16805
L14146 16866
L14158 16902
" />
<path d="M14170 17000
L14158 17012
L14146 17036
L14146 17097
L14158 17121
L14170 17134
L14195 17146
L14219 17146
L14256 17134
L14402 16987
L14402 17146
" />
<path d="M14146 17304
L14146 17329
L14158 17353
L14170 17365
L14195 17377
L14243 17390
L14304 17390
L14353 17377
L14378 17365
L14390 17353
L14402 17329
L14402 17304
L14390 17280
L14378 17268
L14353 17256
L14304 17243
L14243 17243
L14195 17256
L14170 17268
L14158 17280
L14146 17304
" />
<path d="M14146 17621
L14146 17499
L14268 17487
L14256 17499
L14243 17524
L14243 17585
L14256 17609
L14268 17621
L14292 17633
L14353 17633
L14378 17621
L14390 17609
L14402 17585
L14402 17524
L14390 17499
L14378 17487
" />
<path d="M14402 17877
L14402 17731
" />
<path d="M14402 17804
L14146 17804
L14183 17780
L14207 17755
L14219 17731
" />
<path d="M10879 42758
L10867 42770
L10855 42795
L10855 42856
L10867 42880
L10879 42892
L10903 42904
L10928 42904
L10964 42892
L11111 42746
L11111 42904
" />
<path d="M10879 43002
L10867 43014
L10855 43039
L10855 43099
L10867 43124
L10879 43136
L10903 43148
L10928 43148
L10964 43136
L11111 42990
L11111 43148
" />
<path d="M9879 43058
L9867 43070
L9855 43095
L9855 43156
L9867 43180
L9879 43192
L9903 43204
L9928 43204
L9964 43192
L10111 43046
L10111 43204
" />
<path d="M9879 43302
L9867 43314
L9855 43339
L9855 43399
L9867 43424
L9879 43436
L9903 43448
L9928 43448
L9964 43436
L10111 43290
L10111 43448
" />
<path d="M9279 43081
L9267 43093
L9255 43118
L9255 43179
L9267 43203
L9279 43215
L9303 43227
L9328 43227
L9364 43215
L9511 43069
L9511 43227
" />
<path d="M9279 43325
L9267 43337
L9255 43361
L9255 43422
L9267 43447
L9279 43459
L9303 43471
L9328 43471
L9364 43459
L9511 43313
L9511 43471
" />
</g> 
</svg>
