%TF.GenerationSoftware,KiCad,Pcbnew,(5.1.0-1157-gc8cd95a71)*%
%TF.CreationDate,2019-06-29T21:36:28-07:00*%
%TF.ProjectId,adc344x,61646333-3434-4782-9e6b-696361645f70,rev?*%
%TF.SameCoordinates,Original*%
%TF.FileFunction,Legend,Bot*%
%TF.FilePolarity,Positive*%
%FSLAX46Y46*%
G04 Gerber Fmt 4.6, Leading zero omitted, Abs format (unit mm)*
G04 Created by KiCad (PCBNEW (5.1.0-1157-gc8cd95a71)) date 2019-06-29 21:36:28*
%MOMM*%
%LPD*%
G04 APERTURE LIST*
%ADD10C,0.010000*%
%ADD11C,0.150000*%
%ADD12C,0.175000*%
%ADD13C,0.200000*%
G04 APERTURE END LIST*
D10*
G36*
X176512826Y-71199374D02*
G01*
X176054964Y-71264064D01*
X175669004Y-71399089D01*
X175356358Y-71603148D01*
X175118439Y-71874939D01*
X174956660Y-72213159D01*
X174872434Y-72616506D01*
X174864142Y-72718996D01*
X174874066Y-73144036D01*
X174955064Y-73514145D01*
X175104033Y-73821512D01*
X175317870Y-74058328D01*
X175426637Y-74135091D01*
X175649024Y-74215302D01*
X175901382Y-74219093D01*
X176155979Y-74153670D01*
X176385082Y-74026237D01*
X176560961Y-73843999D01*
X176563879Y-73839643D01*
X176685399Y-73587048D01*
X176743988Y-73307601D01*
X176743198Y-73022503D01*
X176686582Y-72752956D01*
X176577692Y-72520161D01*
X176420082Y-72345319D01*
X176301920Y-72276343D01*
X176041613Y-72212009D01*
X175809048Y-72238217D01*
X175618106Y-72345902D01*
X175482668Y-72525998D01*
X175416617Y-72769442D01*
X175412401Y-72857179D01*
X175444034Y-73047713D01*
X175526844Y-73203362D01*
X175642695Y-73312021D01*
X175773448Y-73361588D01*
X175900968Y-73339959D01*
X175998736Y-73248470D01*
X176048070Y-73156321D01*
X176047010Y-73074073D01*
X175997394Y-72956370D01*
X175915375Y-72787400D01*
X176019488Y-72907327D01*
X176110035Y-73059652D01*
X176102189Y-73205587D01*
X176031631Y-73321522D01*
X175897269Y-73419692D01*
X175738031Y-73424949D01*
X175567409Y-73338453D01*
X175495927Y-73275373D01*
X175399588Y-73165008D01*
X175352001Y-73056646D01*
X175336858Y-72905933D01*
X175336200Y-72840948D01*
X175376064Y-72576329D01*
X175484707Y-72369822D01*
X175645714Y-72224191D01*
X175842665Y-72142195D01*
X176059142Y-72126599D01*
X176278728Y-72180163D01*
X176485004Y-72305649D01*
X176661551Y-72505819D01*
X176720500Y-72608074D01*
X176805648Y-72866156D01*
X176836018Y-73167100D01*
X176810839Y-73467709D01*
X176740059Y-73702235D01*
X176574797Y-73953750D01*
X176342493Y-74154482D01*
X176068600Y-74287660D01*
X175778570Y-74336513D01*
X175777418Y-74336516D01*
X175663183Y-74316894D01*
X175503623Y-74266607D01*
X175413747Y-74230935D01*
X175252420Y-74170006D01*
X175144937Y-74155882D01*
X175058346Y-74183572D01*
X174971413Y-74271000D01*
X174972799Y-74377899D01*
X175057074Y-74484570D01*
X175158400Y-74546663D01*
X175334385Y-74608622D01*
X175579525Y-74667102D01*
X175873016Y-74719918D01*
X176194056Y-74764889D01*
X176521843Y-74799831D01*
X176835572Y-74822561D01*
X177114442Y-74830895D01*
X177337649Y-74822651D01*
X177484391Y-74795646D01*
X177494156Y-74791788D01*
X177705045Y-74656436D01*
X177868238Y-74447484D01*
X177988640Y-74156928D01*
X178054435Y-73877202D01*
X178107587Y-73628567D01*
X178165450Y-73432042D01*
X178222724Y-73300590D01*
X178274106Y-73247171D01*
X178304907Y-73264994D01*
X178354098Y-73289470D01*
X178406982Y-73225568D01*
X178456664Y-73085959D01*
X178490031Y-72924793D01*
X178522897Y-72719261D01*
X178351949Y-72757971D01*
X178064624Y-72855367D01*
X177835565Y-73011767D01*
X177646988Y-73242499D01*
X177521260Y-73473894D01*
X177451296Y-73618600D01*
X177415698Y-73677184D01*
X177407588Y-73656381D01*
X177418193Y-73574800D01*
X177509282Y-73299661D01*
X177681216Y-73046738D01*
X177913403Y-72843946D01*
X177992067Y-72796875D01*
X178145898Y-72703842D01*
X178230899Y-72613301D01*
X178254463Y-72499679D01*
X178223981Y-72337400D01*
X178172065Y-72174149D01*
X178052901Y-71937148D01*
X177848868Y-71687761D01*
X177803765Y-71641828D01*
X177550104Y-71425957D01*
X177287200Y-71284960D01*
X176990623Y-71210466D01*
X176635941Y-71194100D01*
X176512826Y-71199374D01*
X176512826Y-71199374D01*
G37*
X176512826Y-71199374D02*
X176054964Y-71264064D01*
X175669004Y-71399089D01*
X175356358Y-71603148D01*
X175118439Y-71874939D01*
X174956660Y-72213159D01*
X174872434Y-72616506D01*
X174864142Y-72718996D01*
X174874066Y-73144036D01*
X174955064Y-73514145D01*
X175104033Y-73821512D01*
X175317870Y-74058328D01*
X175426637Y-74135091D01*
X175649024Y-74215302D01*
X175901382Y-74219093D01*
X176155979Y-74153670D01*
X176385082Y-74026237D01*
X176560961Y-73843999D01*
X176563879Y-73839643D01*
X176685399Y-73587048D01*
X176743988Y-73307601D01*
X176743198Y-73022503D01*
X176686582Y-72752956D01*
X176577692Y-72520161D01*
X176420082Y-72345319D01*
X176301920Y-72276343D01*
X176041613Y-72212009D01*
X175809048Y-72238217D01*
X175618106Y-72345902D01*
X175482668Y-72525998D01*
X175416617Y-72769442D01*
X175412401Y-72857179D01*
X175444034Y-73047713D01*
X175526844Y-73203362D01*
X175642695Y-73312021D01*
X175773448Y-73361588D01*
X175900968Y-73339959D01*
X175998736Y-73248470D01*
X176048070Y-73156321D01*
X176047010Y-73074073D01*
X175997394Y-72956370D01*
X175915375Y-72787400D01*
X176019488Y-72907327D01*
X176110035Y-73059652D01*
X176102189Y-73205587D01*
X176031631Y-73321522D01*
X175897269Y-73419692D01*
X175738031Y-73424949D01*
X175567409Y-73338453D01*
X175495927Y-73275373D01*
X175399588Y-73165008D01*
X175352001Y-73056646D01*
X175336858Y-72905933D01*
X175336200Y-72840948D01*
X175376064Y-72576329D01*
X175484707Y-72369822D01*
X175645714Y-72224191D01*
X175842665Y-72142195D01*
X176059142Y-72126599D01*
X176278728Y-72180163D01*
X176485004Y-72305649D01*
X176661551Y-72505819D01*
X176720500Y-72608074D01*
X176805648Y-72866156D01*
X176836018Y-73167100D01*
X176810839Y-73467709D01*
X176740059Y-73702235D01*
X176574797Y-73953750D01*
X176342493Y-74154482D01*
X176068600Y-74287660D01*
X175778570Y-74336513D01*
X175777418Y-74336516D01*
X175663183Y-74316894D01*
X175503623Y-74266607D01*
X175413747Y-74230935D01*
X175252420Y-74170006D01*
X175144937Y-74155882D01*
X175058346Y-74183572D01*
X174971413Y-74271000D01*
X174972799Y-74377899D01*
X175057074Y-74484570D01*
X175158400Y-74546663D01*
X175334385Y-74608622D01*
X175579525Y-74667102D01*
X175873016Y-74719918D01*
X176194056Y-74764889D01*
X176521843Y-74799831D01*
X176835572Y-74822561D01*
X177114442Y-74830895D01*
X177337649Y-74822651D01*
X177484391Y-74795646D01*
X177494156Y-74791788D01*
X177705045Y-74656436D01*
X177868238Y-74447484D01*
X177988640Y-74156928D01*
X178054435Y-73877202D01*
X178107587Y-73628567D01*
X178165450Y-73432042D01*
X178222724Y-73300590D01*
X178274106Y-73247171D01*
X178304907Y-73264994D01*
X178354098Y-73289470D01*
X178406982Y-73225568D01*
X178456664Y-73085959D01*
X178490031Y-72924793D01*
X178522897Y-72719261D01*
X178351949Y-72757971D01*
X178064624Y-72855367D01*
X177835565Y-73011767D01*
X177646988Y-73242499D01*
X177521260Y-73473894D01*
X177451296Y-73618600D01*
X177415698Y-73677184D01*
X177407588Y-73656381D01*
X177418193Y-73574800D01*
X177509282Y-73299661D01*
X177681216Y-73046738D01*
X177913403Y-72843946D01*
X177992067Y-72796875D01*
X178145898Y-72703842D01*
X178230899Y-72613301D01*
X178254463Y-72499679D01*
X178223981Y-72337400D01*
X178172065Y-72174149D01*
X178052901Y-71937148D01*
X177848868Y-71687761D01*
X177803765Y-71641828D01*
X177550104Y-71425957D01*
X177287200Y-71284960D01*
X176990623Y-71210466D01*
X176635941Y-71194100D01*
X176512826Y-71199374D01*
G36*
X179092968Y-69276104D02*
G01*
X179036747Y-69330619D01*
X179019653Y-69406507D01*
X179048618Y-69456863D01*
X179065791Y-69460000D01*
X179101390Y-69505191D01*
X179143226Y-69621390D01*
X179169389Y-69725817D01*
X179207561Y-69900273D01*
X179241419Y-70049142D01*
X179254481Y-70103532D01*
X179261740Y-70178878D01*
X179214212Y-70206777D01*
X179112783Y-70206719D01*
X178946445Y-70212265D01*
X178805379Y-70235850D01*
X178717795Y-70251195D01*
X178665668Y-70220221D01*
X178624488Y-70121030D01*
X178605590Y-70057346D01*
X178564995Y-69860983D01*
X178545269Y-69656738D01*
X178544883Y-69625099D01*
X178532991Y-69474202D01*
X178492593Y-69412026D01*
X178476377Y-69409200D01*
X178399139Y-69449862D01*
X178369075Y-69540272D01*
X178397224Y-69625746D01*
X178431508Y-69705657D01*
X178472469Y-69853121D01*
X178509071Y-70025198D01*
X178540057Y-70218137D01*
X178544966Y-70347338D01*
X178522477Y-70447603D01*
X178490364Y-70517975D01*
X178440811Y-70684381D01*
X178415660Y-70935593D01*
X178414952Y-71257781D01*
X178438729Y-71637116D01*
X178485800Y-72050800D01*
X178517257Y-72303275D01*
X178542263Y-72546706D01*
X178557430Y-72745785D01*
X178560391Y-72828022D01*
X178545164Y-72996364D01*
X178504353Y-73162359D01*
X178448417Y-73296065D01*
X178387819Y-73367543D01*
X178370196Y-73372377D01*
X178291895Y-73400886D01*
X178228744Y-73492050D01*
X178173742Y-73659922D01*
X178132797Y-73848952D01*
X178078567Y-74075416D01*
X178007847Y-74295280D01*
X177935485Y-74462691D01*
X177932038Y-74468956D01*
X177807153Y-74692400D01*
X178451277Y-74688820D01*
X178823376Y-74678955D01*
X179103241Y-74654238D01*
X179286791Y-74615040D01*
X179293991Y-74612478D01*
X179601866Y-74451985D01*
X179838848Y-74219714D01*
X179977838Y-73986633D01*
X180035163Y-73855487D01*
X180073343Y-73735509D01*
X180096199Y-73600750D01*
X180107552Y-73425261D01*
X180111223Y-73183092D01*
X180111400Y-73079534D01*
X180111400Y-72727239D01*
X179110577Y-72727239D01*
X179109443Y-72941553D01*
X179097573Y-73125519D01*
X179077298Y-73249090D01*
X179068213Y-73273339D01*
X178979297Y-73358913D01*
X178872971Y-73360228D01*
X178782935Y-73280834D01*
X178763943Y-73241292D01*
X178726476Y-73086112D01*
X178718411Y-72974592D01*
X178726127Y-72890676D01*
X178742214Y-72902197D01*
X178767632Y-73011279D01*
X178788742Y-73130300D01*
X178825558Y-73263293D01*
X178885705Y-73316788D01*
X178918935Y-73320800D01*
X178979578Y-73306740D01*
X179022368Y-73254246D01*
X179051353Y-73147845D01*
X179070582Y-72972068D01*
X179084102Y-72711440D01*
X179085083Y-72685800D01*
X179100354Y-72279400D01*
X179110577Y-72727239D01*
X180111400Y-72727239D01*
X180111400Y-72457268D01*
X180258966Y-72457234D01*
X180419118Y-72410906D01*
X180573597Y-72288881D01*
X180705936Y-72116486D01*
X180799669Y-71919048D01*
X180838330Y-71721896D01*
X180821896Y-71591379D01*
X180766864Y-71503589D01*
X180691161Y-71511969D01*
X180598741Y-71614115D01*
X180504603Y-71784100D01*
X180415781Y-71953042D01*
X180340205Y-72046931D01*
X180258880Y-72087060D01*
X180230061Y-72091853D01*
X180151872Y-72093739D01*
X180099639Y-72065111D01*
X180063593Y-71987302D01*
X180033963Y-71841648D01*
X180009139Y-71669800D01*
X179956548Y-71394158D01*
X179876385Y-71106101D01*
X179862207Y-71066566D01*
X179178650Y-71066566D01*
X179111176Y-71075361D01*
X179095400Y-71075696D01*
X179008643Y-71070205D01*
X179001005Y-71054302D01*
X179005534Y-71052278D01*
X179106381Y-71042229D01*
X179157934Y-71050396D01*
X179178650Y-71066566D01*
X179862207Y-71066566D01*
X179814081Y-70932371D01*
X179501288Y-70932371D01*
X179490251Y-70976549D01*
X179453999Y-70984000D01*
X179384330Y-70972219D01*
X179374800Y-70961598D01*
X179397744Y-70932371D01*
X178790088Y-70932371D01*
X178779051Y-70976549D01*
X178742799Y-70984000D01*
X178673130Y-70972219D01*
X178663600Y-70961598D01*
X178700825Y-70914180D01*
X178767806Y-70913123D01*
X178790088Y-70932371D01*
X179397744Y-70932371D01*
X179412025Y-70914180D01*
X179479006Y-70913123D01*
X179501288Y-70932371D01*
X179814081Y-70932371D01*
X179778823Y-70834061D01*
X179674038Y-70606473D01*
X179574077Y-70453892D01*
X179487737Y-70325257D01*
X179400753Y-70145871D01*
X179321316Y-69940943D01*
X179257621Y-69735681D01*
X179217860Y-69555293D01*
X179210226Y-69424986D01*
X179225188Y-69380441D01*
X179244203Y-69309173D01*
X179190436Y-69266927D01*
X179092968Y-69276104D01*
X179092968Y-69276104D01*
G37*
X179092968Y-69276104D02*
X179036747Y-69330619D01*
X179019653Y-69406507D01*
X179048618Y-69456863D01*
X179065791Y-69460000D01*
X179101390Y-69505191D01*
X179143226Y-69621390D01*
X179169389Y-69725817D01*
X179207561Y-69900273D01*
X179241419Y-70049142D01*
X179254481Y-70103532D01*
X179261740Y-70178878D01*
X179214212Y-70206777D01*
X179112783Y-70206719D01*
X178946445Y-70212265D01*
X178805379Y-70235850D01*
X178717795Y-70251195D01*
X178665668Y-70220221D01*
X178624488Y-70121030D01*
X178605590Y-70057346D01*
X178564995Y-69860983D01*
X178545269Y-69656738D01*
X178544883Y-69625099D01*
X178532991Y-69474202D01*
X178492593Y-69412026D01*
X178476377Y-69409200D01*
X178399139Y-69449862D01*
X178369075Y-69540272D01*
X178397224Y-69625746D01*
X178431508Y-69705657D01*
X178472469Y-69853121D01*
X178509071Y-70025198D01*
X178540057Y-70218137D01*
X178544966Y-70347338D01*
X178522477Y-70447603D01*
X178490364Y-70517975D01*
X178440811Y-70684381D01*
X178415660Y-70935593D01*
X178414952Y-71257781D01*
X178438729Y-71637116D01*
X178485800Y-72050800D01*
X178517257Y-72303275D01*
X178542263Y-72546706D01*
X178557430Y-72745785D01*
X178560391Y-72828022D01*
X178545164Y-72996364D01*
X178504353Y-73162359D01*
X178448417Y-73296065D01*
X178387819Y-73367543D01*
X178370196Y-73372377D01*
X178291895Y-73400886D01*
X178228744Y-73492050D01*
X178173742Y-73659922D01*
X178132797Y-73848952D01*
X178078567Y-74075416D01*
X178007847Y-74295280D01*
X177935485Y-74462691D01*
X177932038Y-74468956D01*
X177807153Y-74692400D01*
X178451277Y-74688820D01*
X178823376Y-74678955D01*
X179103241Y-74654238D01*
X179286791Y-74615040D01*
X179293991Y-74612478D01*
X179601866Y-74451985D01*
X179838848Y-74219714D01*
X179977838Y-73986633D01*
X180035163Y-73855487D01*
X180073343Y-73735509D01*
X180096199Y-73600750D01*
X180107552Y-73425261D01*
X180111223Y-73183092D01*
X180111400Y-73079534D01*
X180111400Y-72727239D01*
X179110577Y-72727239D01*
X179109443Y-72941553D01*
X179097573Y-73125519D01*
X179077298Y-73249090D01*
X179068213Y-73273339D01*
X178979297Y-73358913D01*
X178872971Y-73360228D01*
X178782935Y-73280834D01*
X178763943Y-73241292D01*
X178726476Y-73086112D01*
X178718411Y-72974592D01*
X178726127Y-72890676D01*
X178742214Y-72902197D01*
X178767632Y-73011279D01*
X178788742Y-73130300D01*
X178825558Y-73263293D01*
X178885705Y-73316788D01*
X178918935Y-73320800D01*
X178979578Y-73306740D01*
X179022368Y-73254246D01*
X179051353Y-73147845D01*
X179070582Y-72972068D01*
X179084102Y-72711440D01*
X179085083Y-72685800D01*
X179100354Y-72279400D01*
X179110577Y-72727239D01*
X180111400Y-72727239D01*
X180111400Y-72457268D01*
X180258966Y-72457234D01*
X180419118Y-72410906D01*
X180573597Y-72288881D01*
X180705936Y-72116486D01*
X180799669Y-71919048D01*
X180838330Y-71721896D01*
X180821896Y-71591379D01*
X180766864Y-71503589D01*
X180691161Y-71511969D01*
X180598741Y-71614115D01*
X180504603Y-71784100D01*
X180415781Y-71953042D01*
X180340205Y-72046931D01*
X180258880Y-72087060D01*
X180230061Y-72091853D01*
X180151872Y-72093739D01*
X180099639Y-72065111D01*
X180063593Y-71987302D01*
X180033963Y-71841648D01*
X180009139Y-71669800D01*
X179956548Y-71394158D01*
X179876385Y-71106101D01*
X179862207Y-71066566D01*
X179178650Y-71066566D01*
X179111176Y-71075361D01*
X179095400Y-71075696D01*
X179008643Y-71070205D01*
X179001005Y-71054302D01*
X179005534Y-71052278D01*
X179106381Y-71042229D01*
X179157934Y-71050396D01*
X179178650Y-71066566D01*
X179862207Y-71066566D01*
X179814081Y-70932371D01*
X179501288Y-70932371D01*
X179490251Y-70976549D01*
X179453999Y-70984000D01*
X179384330Y-70972219D01*
X179374800Y-70961598D01*
X179397744Y-70932371D01*
X178790088Y-70932371D01*
X178779051Y-70976549D01*
X178742799Y-70984000D01*
X178673130Y-70972219D01*
X178663600Y-70961598D01*
X178700825Y-70914180D01*
X178767806Y-70913123D01*
X178790088Y-70932371D01*
X179397744Y-70932371D01*
X179412025Y-70914180D01*
X179479006Y-70913123D01*
X179501288Y-70932371D01*
X179814081Y-70932371D01*
X179778823Y-70834061D01*
X179674038Y-70606473D01*
X179574077Y-70453892D01*
X179487737Y-70325257D01*
X179400753Y-70145871D01*
X179321316Y-69940943D01*
X179257621Y-69735681D01*
X179217860Y-69555293D01*
X179210226Y-69424986D01*
X179225188Y-69380441D01*
X179244203Y-69309173D01*
X179190436Y-69266927D01*
X179092968Y-69276104D01*
D11*
X134250000Y-70525000D02*
X134750000Y-70525000D01*
X134750000Y-71475000D02*
X134250000Y-71475000D01*
X141650000Y-72975000D02*
X141150000Y-72975000D01*
X141150000Y-72025000D02*
X141650000Y-72025000D01*
X137675000Y-74250000D02*
X137675000Y-74750000D01*
X136725000Y-74750000D02*
X136725000Y-74250000D01*
X141550000Y-71275000D02*
X141050000Y-71275000D01*
X141050000Y-70325000D02*
X141550000Y-70325000D01*
X134750000Y-73475000D02*
X134250000Y-73475000D01*
X134250000Y-72525000D02*
X134750000Y-72525000D01*
X138325000Y-74750000D02*
X138325000Y-74250000D01*
X139275000Y-74250000D02*
X139275000Y-74750000D01*
X134250000Y-71425000D02*
X134750000Y-71425000D01*
X134750000Y-72375000D02*
X134250000Y-72375000D01*
X132650000Y-70275000D02*
X132150000Y-70275000D01*
X132150000Y-69325000D02*
X132650000Y-69325000D01*
X138875000Y-77050000D02*
X138875000Y-76550000D01*
X139925000Y-76550000D02*
X139925000Y-77050000D01*
X126225000Y-91150000D02*
X126225000Y-91650000D01*
X125175000Y-91650000D02*
X125175000Y-91150000D01*
D12*
X136183333Y-69650000D02*
X136216666Y-69683333D01*
X136316666Y-69716666D01*
X136383333Y-69716666D01*
X136483333Y-69683333D01*
X136550000Y-69616666D01*
X136583333Y-69550000D01*
X136616666Y-69416666D01*
X136616666Y-69316666D01*
X136583333Y-69183333D01*
X136550000Y-69116666D01*
X136483333Y-69050000D01*
X136383333Y-69016666D01*
X136316666Y-69016666D01*
X136216666Y-69050000D01*
X136183333Y-69083333D01*
X135516666Y-69716666D02*
X135916666Y-69716666D01*
X135716666Y-69716666D02*
X135716666Y-69016666D01*
X135783333Y-69116666D01*
X135850000Y-69183333D01*
X135916666Y-69216666D01*
X135083333Y-69016666D02*
X135016666Y-69016666D01*
X134950000Y-69050000D01*
X134916666Y-69083333D01*
X134883333Y-69150000D01*
X134850000Y-69283333D01*
X134850000Y-69450000D01*
X134883333Y-69583333D01*
X134916666Y-69650000D01*
X134950000Y-69683333D01*
X135016666Y-69716666D01*
X135083333Y-69716666D01*
X135150000Y-69683333D01*
X135183333Y-69650000D01*
X135216666Y-69583333D01*
X135250000Y-69450000D01*
X135250000Y-69283333D01*
X135216666Y-69150000D01*
X135183333Y-69083333D01*
X135150000Y-69050000D01*
X135083333Y-69016666D01*
X134450000Y-69316666D02*
X134516666Y-69283333D01*
X134550000Y-69250000D01*
X134583333Y-69183333D01*
X134583333Y-69150000D01*
X134550000Y-69083333D01*
X134516666Y-69050000D01*
X134450000Y-69016666D01*
X134316666Y-69016666D01*
X134250000Y-69050000D01*
X134216666Y-69083333D01*
X134183333Y-69150000D01*
X134183333Y-69183333D01*
X134216666Y-69250000D01*
X134250000Y-69283333D01*
X134316666Y-69316666D01*
X134450000Y-69316666D01*
X134516666Y-69350000D01*
X134550000Y-69383333D01*
X134583333Y-69450000D01*
X134583333Y-69583333D01*
X134550000Y-69650000D01*
X134516666Y-69683333D01*
X134450000Y-69716666D01*
X134316666Y-69716666D01*
X134250000Y-69683333D01*
X134216666Y-69650000D01*
X134183333Y-69583333D01*
X134183333Y-69450000D01*
X134216666Y-69383333D01*
X134250000Y-69350000D01*
X134316666Y-69316666D01*
D13*
D12*
X143183333Y-73850000D02*
X143216666Y-73883333D01*
X143316666Y-73916666D01*
X143383333Y-73916666D01*
X143483333Y-73883333D01*
X143550000Y-73816666D01*
X143583333Y-73750000D01*
X143616666Y-73616666D01*
X143616666Y-73516666D01*
X143583333Y-73383333D01*
X143550000Y-73316666D01*
X143483333Y-73250000D01*
X143383333Y-73216666D01*
X143316666Y-73216666D01*
X143216666Y-73250000D01*
X143183333Y-73283333D01*
X142516666Y-73916666D02*
X142916666Y-73916666D01*
X142716666Y-73916666D02*
X142716666Y-73216666D01*
X142783333Y-73316666D01*
X142850000Y-73383333D01*
X142916666Y-73416666D01*
X141850000Y-73916666D02*
X142250000Y-73916666D01*
X142050000Y-73916666D02*
X142050000Y-73216666D01*
X142116666Y-73316666D01*
X142183333Y-73383333D01*
X142250000Y-73416666D01*
X141416666Y-73216666D02*
X141350000Y-73216666D01*
X141283333Y-73250000D01*
X141250000Y-73283333D01*
X141216666Y-73350000D01*
X141183333Y-73483333D01*
X141183333Y-73650000D01*
X141216666Y-73783333D01*
X141250000Y-73850000D01*
X141283333Y-73883333D01*
X141350000Y-73916666D01*
X141416666Y-73916666D01*
X141483333Y-73883333D01*
X141516666Y-73850000D01*
X141550000Y-73783333D01*
X141583333Y-73650000D01*
X141583333Y-73483333D01*
X141550000Y-73350000D01*
X141516666Y-73283333D01*
X141483333Y-73250000D01*
X141416666Y-73216666D01*
D13*
D12*
X137983333Y-72850000D02*
X138016666Y-72883333D01*
X138116666Y-72916666D01*
X138183333Y-72916666D01*
X138283333Y-72883333D01*
X138350000Y-72816666D01*
X138383333Y-72750000D01*
X138416666Y-72616666D01*
X138416666Y-72516666D01*
X138383333Y-72383333D01*
X138350000Y-72316666D01*
X138283333Y-72250000D01*
X138183333Y-72216666D01*
X138116666Y-72216666D01*
X138016666Y-72250000D01*
X137983333Y-72283333D01*
X137316666Y-72916666D02*
X137716666Y-72916666D01*
X137516666Y-72916666D02*
X137516666Y-72216666D01*
X137583333Y-72316666D01*
X137650000Y-72383333D01*
X137716666Y-72416666D01*
X136650000Y-72916666D02*
X137050000Y-72916666D01*
X136850000Y-72916666D02*
X136850000Y-72216666D01*
X136916666Y-72316666D01*
X136983333Y-72383333D01*
X137050000Y-72416666D01*
X136383333Y-72283333D02*
X136350000Y-72250000D01*
X136283333Y-72216666D01*
X136116666Y-72216666D01*
X136050000Y-72250000D01*
X136016666Y-72283333D01*
X135983333Y-72350000D01*
X135983333Y-72416666D01*
X136016666Y-72516666D01*
X136416666Y-72916666D01*
X135983333Y-72916666D01*
D13*
D12*
X142983333Y-69850000D02*
X143016666Y-69883333D01*
X143116666Y-69916666D01*
X143183333Y-69916666D01*
X143283333Y-69883333D01*
X143350000Y-69816666D01*
X143383333Y-69750000D01*
X143416666Y-69616666D01*
X143416666Y-69516666D01*
X143383333Y-69383333D01*
X143350000Y-69316666D01*
X143283333Y-69250000D01*
X143183333Y-69216666D01*
X143116666Y-69216666D01*
X143016666Y-69250000D01*
X142983333Y-69283333D01*
X142316666Y-69916666D02*
X142716666Y-69916666D01*
X142516666Y-69916666D02*
X142516666Y-69216666D01*
X142583333Y-69316666D01*
X142650000Y-69383333D01*
X142716666Y-69416666D01*
X141650000Y-69916666D02*
X142050000Y-69916666D01*
X141850000Y-69916666D02*
X141850000Y-69216666D01*
X141916666Y-69316666D01*
X141983333Y-69383333D01*
X142050000Y-69416666D01*
X141050000Y-69216666D02*
X141183333Y-69216666D01*
X141250000Y-69250000D01*
X141283333Y-69283333D01*
X141350000Y-69383333D01*
X141383333Y-69516666D01*
X141383333Y-69783333D01*
X141350000Y-69850000D01*
X141316666Y-69883333D01*
X141250000Y-69916666D01*
X141116666Y-69916666D01*
X141050000Y-69883333D01*
X141016666Y-69850000D01*
X140983333Y-69783333D01*
X140983333Y-69616666D01*
X141016666Y-69550000D01*
X141050000Y-69516666D01*
X141116666Y-69483333D01*
X141250000Y-69483333D01*
X141316666Y-69516666D01*
X141350000Y-69550000D01*
X141383333Y-69616666D01*
D13*
D12*
X135383333Y-74650000D02*
X135416666Y-74683333D01*
X135516666Y-74716666D01*
X135583333Y-74716666D01*
X135683333Y-74683333D01*
X135750000Y-74616666D01*
X135783333Y-74550000D01*
X135816666Y-74416666D01*
X135816666Y-74316666D01*
X135783333Y-74183333D01*
X135750000Y-74116666D01*
X135683333Y-74050000D01*
X135583333Y-74016666D01*
X135516666Y-74016666D01*
X135416666Y-74050000D01*
X135383333Y-74083333D01*
X134716666Y-74716666D02*
X135116666Y-74716666D01*
X134916666Y-74716666D02*
X134916666Y-74016666D01*
X134983333Y-74116666D01*
X135050000Y-74183333D01*
X135116666Y-74216666D01*
X134050000Y-74716666D02*
X134450000Y-74716666D01*
X134250000Y-74716666D02*
X134250000Y-74016666D01*
X134316666Y-74116666D01*
X134383333Y-74183333D01*
X134450000Y-74216666D01*
X133650000Y-74316666D02*
X133716666Y-74283333D01*
X133750000Y-74250000D01*
X133783333Y-74183333D01*
X133783333Y-74150000D01*
X133750000Y-74083333D01*
X133716666Y-74050000D01*
X133650000Y-74016666D01*
X133516666Y-74016666D01*
X133450000Y-74050000D01*
X133416666Y-74083333D01*
X133383333Y-74150000D01*
X133383333Y-74183333D01*
X133416666Y-74250000D01*
X133450000Y-74283333D01*
X133516666Y-74316666D01*
X133650000Y-74316666D01*
X133716666Y-74350000D01*
X133750000Y-74383333D01*
X133783333Y-74450000D01*
X133783333Y-74583333D01*
X133750000Y-74650000D01*
X133716666Y-74683333D01*
X133650000Y-74716666D01*
X133516666Y-74716666D01*
X133450000Y-74683333D01*
X133416666Y-74650000D01*
X133383333Y-74583333D01*
X133383333Y-74450000D01*
X133416666Y-74383333D01*
X133450000Y-74350000D01*
X133516666Y-74316666D01*
D13*
D12*
X140250000Y-74016666D02*
X140283333Y-73983333D01*
X140316666Y-73883333D01*
X140316666Y-73816666D01*
X140283333Y-73716666D01*
X140216666Y-73650000D01*
X140150000Y-73616666D01*
X140016666Y-73583333D01*
X139916666Y-73583333D01*
X139783333Y-73616666D01*
X139716666Y-73650000D01*
X139650000Y-73716666D01*
X139616666Y-73816666D01*
X139616666Y-73883333D01*
X139650000Y-73983333D01*
X139683333Y-74016666D01*
X140316666Y-74683333D02*
X140316666Y-74283333D01*
X140316666Y-74483333D02*
X139616666Y-74483333D01*
X139716666Y-74416666D01*
X139783333Y-74350000D01*
X139816666Y-74283333D01*
X140316666Y-75350000D02*
X140316666Y-74950000D01*
X140316666Y-75150000D02*
X139616666Y-75150000D01*
X139716666Y-75083333D01*
X139783333Y-75016666D01*
X139816666Y-74950000D01*
X140316666Y-75683333D02*
X140316666Y-75816666D01*
X140283333Y-75883333D01*
X140250000Y-75916666D01*
X140150000Y-75983333D01*
X140016666Y-76016666D01*
X139750000Y-76016666D01*
X139683333Y-75983333D01*
X139650000Y-75950000D01*
X139616666Y-75883333D01*
X139616666Y-75750000D01*
X139650000Y-75683333D01*
X139683333Y-75650000D01*
X139750000Y-75616666D01*
X139916666Y-75616666D01*
X139983333Y-75650000D01*
X140016666Y-75683333D01*
X140050000Y-75750000D01*
X140050000Y-75883333D01*
X140016666Y-75950000D01*
X139983333Y-75983333D01*
X139916666Y-76016666D01*
D13*
D12*
X131583333Y-72850000D02*
X131616666Y-72883333D01*
X131716666Y-72916666D01*
X131783333Y-72916666D01*
X131883333Y-72883333D01*
X131950000Y-72816666D01*
X131983333Y-72750000D01*
X132016666Y-72616666D01*
X132016666Y-72516666D01*
X131983333Y-72383333D01*
X131950000Y-72316666D01*
X131883333Y-72250000D01*
X131783333Y-72216666D01*
X131716666Y-72216666D01*
X131616666Y-72250000D01*
X131583333Y-72283333D01*
X130916666Y-72916666D02*
X131316666Y-72916666D01*
X131116666Y-72916666D02*
X131116666Y-72216666D01*
X131183333Y-72316666D01*
X131250000Y-72383333D01*
X131316666Y-72416666D01*
X130650000Y-72283333D02*
X130616666Y-72250000D01*
X130550000Y-72216666D01*
X130383333Y-72216666D01*
X130316666Y-72250000D01*
X130283333Y-72283333D01*
X130250000Y-72350000D01*
X130250000Y-72416666D01*
X130283333Y-72516666D01*
X130683333Y-72916666D01*
X130250000Y-72916666D01*
X129583333Y-72916666D02*
X129983333Y-72916666D01*
X129783333Y-72916666D02*
X129783333Y-72216666D01*
X129850000Y-72316666D01*
X129916666Y-72383333D01*
X129983333Y-72416666D01*
D13*
D12*
X133183333Y-68850000D02*
X133216666Y-68883333D01*
X133316666Y-68916666D01*
X133383333Y-68916666D01*
X133483333Y-68883333D01*
X133550000Y-68816666D01*
X133583333Y-68750000D01*
X133616666Y-68616666D01*
X133616666Y-68516666D01*
X133583333Y-68383333D01*
X133550000Y-68316666D01*
X133483333Y-68250000D01*
X133383333Y-68216666D01*
X133316666Y-68216666D01*
X133216666Y-68250000D01*
X133183333Y-68283333D01*
X132516666Y-68916666D02*
X132916666Y-68916666D01*
X132716666Y-68916666D02*
X132716666Y-68216666D01*
X132783333Y-68316666D01*
X132850000Y-68383333D01*
X132916666Y-68416666D01*
X132250000Y-68283333D02*
X132216666Y-68250000D01*
X132150000Y-68216666D01*
X131983333Y-68216666D01*
X131916666Y-68250000D01*
X131883333Y-68283333D01*
X131850000Y-68350000D01*
X131850000Y-68416666D01*
X131883333Y-68516666D01*
X132283333Y-68916666D01*
X131850000Y-68916666D01*
X131250000Y-68216666D02*
X131383333Y-68216666D01*
X131450000Y-68250000D01*
X131483333Y-68283333D01*
X131550000Y-68383333D01*
X131583333Y-68516666D01*
X131583333Y-68783333D01*
X131550000Y-68850000D01*
X131516666Y-68883333D01*
X131450000Y-68916666D01*
X131316666Y-68916666D01*
X131250000Y-68883333D01*
X131216666Y-68850000D01*
X131183333Y-68783333D01*
X131183333Y-68616666D01*
X131216666Y-68550000D01*
X131250000Y-68516666D01*
X131316666Y-68483333D01*
X131450000Y-68483333D01*
X131516666Y-68516666D01*
X131550000Y-68550000D01*
X131583333Y-68616666D01*
D13*
D12*
X141116666Y-76616666D02*
X140783333Y-76383333D01*
X141116666Y-76216666D02*
X140416666Y-76216666D01*
X140416666Y-76483333D01*
X140450000Y-76550000D01*
X140483333Y-76583333D01*
X140550000Y-76616666D01*
X140650000Y-76616666D01*
X140716666Y-76583333D01*
X140750000Y-76550000D01*
X140783333Y-76483333D01*
X140783333Y-76216666D01*
X141116666Y-77283333D02*
X141116666Y-76883333D01*
X141116666Y-77083333D02*
X140416666Y-77083333D01*
X140516666Y-77016666D01*
X140583333Y-76950000D01*
X140616666Y-76883333D01*
X141116666Y-77950000D02*
X141116666Y-77550000D01*
X141116666Y-77750000D02*
X140416666Y-77750000D01*
X140516666Y-77683333D01*
X140583333Y-77616666D01*
X140616666Y-77550000D01*
X140483333Y-78216666D02*
X140450000Y-78250000D01*
X140416666Y-78316666D01*
X140416666Y-78483333D01*
X140450000Y-78550000D01*
X140483333Y-78583333D01*
X140550000Y-78616666D01*
X140616666Y-78616666D01*
X140716666Y-78583333D01*
X141116666Y-78183333D01*
X141116666Y-78616666D01*
D13*
D12*
X124216666Y-90616666D02*
X123883333Y-90383333D01*
X124216666Y-90216666D02*
X123516666Y-90216666D01*
X123516666Y-90483333D01*
X123550000Y-90550000D01*
X123583333Y-90583333D01*
X123650000Y-90616666D01*
X123750000Y-90616666D01*
X123816666Y-90583333D01*
X123850000Y-90550000D01*
X123883333Y-90483333D01*
X123883333Y-90216666D01*
X124216666Y-91283333D02*
X124216666Y-90883333D01*
X124216666Y-91083333D02*
X123516666Y-91083333D01*
X123616666Y-91016666D01*
X123683333Y-90950000D01*
X123716666Y-90883333D01*
X124216666Y-91950000D02*
X124216666Y-91550000D01*
X124216666Y-91750000D02*
X123516666Y-91750000D01*
X123616666Y-91683333D01*
X123683333Y-91616666D01*
X123716666Y-91550000D01*
X123516666Y-92583333D02*
X123516666Y-92250000D01*
X123850000Y-92216666D01*
X123816666Y-92250000D01*
X123783333Y-92316666D01*
X123783333Y-92483333D01*
X123816666Y-92550000D01*
X123850000Y-92583333D01*
X123916666Y-92616666D01*
X124083333Y-92616666D01*
X124150000Y-92583333D01*
X124183333Y-92550000D01*
X124216666Y-92483333D01*
X124216666Y-92316666D01*
X124183333Y-92250000D01*
X124150000Y-92216666D01*
D13*
M02*
