%TF.GenerationSoftware,KiCad,Pcbnew,(5.1.0-1157-gc8cd95a71)*%
%TF.CreationDate,2019-06-29T21:36:28-07:00*%
%TF.ProjectId,adc344x,61646333-3434-4782-9e6b-696361645f70,rev?*%
%TF.SameCoordinates,Original*%
%TF.FileFunction,Paste,Top*%
%TF.FilePolarity,Positive*%
%FSLAX46Y46*%
G04 Gerber Fmt 4.6, Leading zero omitted, Abs format (unit mm)*
G04 Created by KiCad (PCBNEW (5.1.0-1157-gc8cd95a71)) date 2019-06-29 21:36:28*
%MOMM*%
%LPD*%
G04 APERTURE LIST*
%ADD10R,3.599180X1.600200*%
%ADD11R,0.750000X0.800000*%
%ADD12R,0.600000X0.500000*%
%ADD13R,0.500000X0.600000*%
%ADD14R,0.797560X0.797560*%
%ADD15R,0.500000X0.900000*%
%ADD16R,0.900000X0.500000*%
%ADD17R,0.400000X0.600000*%
%ADD18R,0.600000X0.400000*%
%ADD19R,1.400000X0.760000*%
%ADD20C,0.100000*%
%ADD21C,0.240000*%
%ADD22R,0.600000X0.240000*%
%ADD23R,0.240000X0.600000*%
%ADD24R,0.150000X0.150000*%
G04 APERTURE END LIST*
D10*
X119750000Y-47750000D03*
X114248360Y-47750000D03*
X166000820Y-47750000D03*
X160499180Y-47750000D03*
D11*
X145600000Y-74750000D03*
X145600000Y-76250000D03*
D12*
X121550000Y-64500000D03*
X120450000Y-64500000D03*
X121550000Y-78000000D03*
X120450000Y-78000000D03*
D11*
X147800000Y-68550000D03*
X147800000Y-70050000D03*
D12*
X142850000Y-76100000D03*
X141750000Y-76100000D03*
D13*
X124750000Y-68250000D03*
X124750000Y-67150000D03*
D12*
X142750000Y-72500000D03*
X143850000Y-72500000D03*
D13*
X134200000Y-77050000D03*
X134200000Y-75950000D03*
D12*
X141750000Y-77300000D03*
X142850000Y-77300000D03*
X129150000Y-71250000D03*
X130250000Y-71250000D03*
D13*
X144200000Y-75750000D03*
X144200000Y-74650000D03*
X133000000Y-75850000D03*
X133000000Y-74750000D03*
D12*
X137400000Y-64000000D03*
X136300000Y-64000000D03*
D13*
X138600000Y-64250000D03*
X138600000Y-63150000D03*
X146300000Y-69050000D03*
X146300000Y-70150000D03*
D12*
X191750000Y-53000000D03*
X190650000Y-53000000D03*
X189350000Y-53000000D03*
X188250000Y-53000000D03*
X183300000Y-50000000D03*
X182200000Y-50000000D03*
X182150000Y-55750000D03*
X183250000Y-55750000D03*
X178800000Y-53750000D03*
X177700000Y-53750000D03*
X177700000Y-52250000D03*
X178800000Y-52250000D03*
D13*
X173500000Y-52450000D03*
X173500000Y-53550000D03*
D14*
X150501400Y-49000000D03*
X152000000Y-49000000D03*
X127309300Y-50500000D03*
X125810700Y-50500000D03*
D15*
X154500000Y-49000000D03*
X156000000Y-49000000D03*
D16*
X129000000Y-48750000D03*
X129000000Y-47250000D03*
D17*
X180050000Y-51500000D03*
X180950000Y-51500000D03*
X180050000Y-54250000D03*
X180950000Y-54250000D03*
D18*
X174750000Y-53450000D03*
X174750000Y-52550000D03*
X122900000Y-64450000D03*
X122900000Y-63550000D03*
X123100000Y-78050000D03*
X123100000Y-78950000D03*
X123190000Y-92525000D03*
X123190000Y-91625000D03*
X129250000Y-91550000D03*
X129250000Y-92450000D03*
X128000000Y-69800000D03*
X128000000Y-70700000D03*
X128000000Y-71800000D03*
X128000000Y-72700000D03*
X133350000Y-92525000D03*
X133350000Y-91625000D03*
X135890000Y-91625000D03*
X135890000Y-92525000D03*
X138430000Y-92525000D03*
X138430000Y-91625000D03*
X140970000Y-91625000D03*
X140970000Y-92525000D03*
X140800000Y-79050000D03*
X140800000Y-78150000D03*
D17*
X148450000Y-49000000D03*
X147550000Y-49000000D03*
X123500000Y-50500000D03*
X124400000Y-50500000D03*
X198250000Y-51750000D03*
X199150000Y-51750000D03*
X199200000Y-54250000D03*
X198300000Y-54250000D03*
X180950000Y-50000000D03*
X180050000Y-50000000D03*
X180050000Y-55750000D03*
X180950000Y-55750000D03*
D18*
X178750000Y-50050000D03*
X178750000Y-50950000D03*
X178750000Y-55900000D03*
X178750000Y-55000000D03*
D17*
X176300000Y-50000000D03*
X177200000Y-50000000D03*
X177200000Y-55750000D03*
X176300000Y-55750000D03*
D18*
X176250000Y-51300000D03*
X176250000Y-52200000D03*
X176250000Y-54450000D03*
X176250000Y-53550000D03*
D17*
X174950000Y-50000000D03*
X174050000Y-50000000D03*
X174050000Y-55750000D03*
X174950000Y-55750000D03*
D19*
X126365000Y-69850000D03*
X126365000Y-69850000D03*
X126365000Y-71120000D03*
X126365000Y-72390000D03*
X122935000Y-72390000D03*
X122935000Y-69850000D03*
X196750000Y-54270000D03*
X196750000Y-51730000D03*
X193320000Y-51730000D03*
X193320000Y-53000000D03*
X193320000Y-54270000D03*
X193320000Y-54270000D03*
X186750000Y-51730000D03*
X186750000Y-51730000D03*
X186750000Y-53000000D03*
X186750000Y-54270000D03*
X183320000Y-54270000D03*
X183320000Y-51730000D03*
D20*
G36*
X134362961Y-67634567D02*
G01*
X134382426Y-67647574D01*
X134395433Y-67667039D01*
X134400000Y-67690000D01*
X134400000Y-67810000D01*
X134395433Y-67832961D01*
X134382426Y-67852426D01*
X134362961Y-67865433D01*
X134340000Y-67870000D01*
X133860000Y-67870000D01*
X133837039Y-67865433D01*
X133817574Y-67852426D01*
X133804567Y-67832961D01*
X133800000Y-67810000D01*
X133800000Y-67690000D01*
X133804567Y-67667039D01*
X133817574Y-67647574D01*
X133837039Y-67634567D01*
X133860000Y-67630000D01*
X134340000Y-67630000D01*
X134362961Y-67634567D01*
X134362961Y-67634567D01*
G37*
D21*
X134100000Y-67750000D03*
D22*
X134100000Y-68250000D03*
X134100000Y-68750000D03*
X134100000Y-69250000D03*
X134100000Y-69750000D03*
X134100000Y-70250000D03*
X134100000Y-70750000D03*
X134100000Y-71250000D03*
X134100000Y-71750000D03*
X134100000Y-72250000D03*
X134100000Y-72750000D03*
X134100000Y-73250000D03*
X134100000Y-73750000D03*
X134100000Y-74250000D03*
D23*
X134750000Y-74900000D03*
X135250000Y-74900000D03*
X135750000Y-74900000D03*
X136250000Y-74900000D03*
X136750000Y-74900000D03*
X137250000Y-74900000D03*
X137750000Y-74900000D03*
X138250000Y-74900000D03*
X138750000Y-74900000D03*
X139250000Y-74900000D03*
X139750000Y-74900000D03*
X140250000Y-74900000D03*
X140750000Y-74900000D03*
X141250000Y-74900000D03*
D22*
X141900000Y-74250000D03*
X141900000Y-73750000D03*
X141900000Y-73250000D03*
X141900000Y-72750000D03*
X141900000Y-72250000D03*
X141900000Y-71750000D03*
X141900000Y-71250000D03*
X141900000Y-70750000D03*
X141900000Y-70250000D03*
X141900000Y-69750000D03*
X141900000Y-69250000D03*
X141900000Y-68750000D03*
X141900000Y-68250000D03*
X141900000Y-67750000D03*
D23*
X141250000Y-67100000D03*
X140750000Y-67100000D03*
X140250000Y-67100000D03*
X139750000Y-67100000D03*
X139250000Y-67100000D03*
X138750000Y-67100000D03*
X138250000Y-67100000D03*
X137750000Y-67100000D03*
X137250000Y-67100000D03*
X136750000Y-67100000D03*
X136250000Y-67100000D03*
X135750000Y-67100000D03*
X135250000Y-67100000D03*
X134750000Y-67100000D03*
D24*
X135525000Y-68525000D03*
X135525000Y-70175000D03*
X135525000Y-71825000D03*
X135525000Y-73475000D03*
X137175000Y-68525000D03*
X137175000Y-70175000D03*
X137175000Y-71825000D03*
X137175000Y-73475000D03*
X138825000Y-68525000D03*
X138825000Y-70175000D03*
X138825000Y-71825000D03*
X138825000Y-73475000D03*
X140475000Y-68525000D03*
X140475000Y-70175000D03*
X140475000Y-71825000D03*
X140475000Y-73475000D03*
D12*
X191965000Y-92000000D03*
X190865000Y-92000000D03*
X188465000Y-92000000D03*
X189565000Y-92000000D03*
X183515000Y-89000000D03*
X182415000Y-89000000D03*
X182365000Y-94750000D03*
X183465000Y-94750000D03*
X179015000Y-92750000D03*
X177915000Y-92750000D03*
X177915000Y-91250000D03*
X179015000Y-91250000D03*
D13*
X173715000Y-91450000D03*
X173715000Y-92550000D03*
D12*
X190865000Y-78750000D03*
X191965000Y-78750000D03*
X188465000Y-78750000D03*
X189565000Y-78750000D03*
X183515000Y-75750000D03*
X182415000Y-75750000D03*
X182365000Y-81500000D03*
X183465000Y-81500000D03*
X179015000Y-79500000D03*
X177915000Y-79500000D03*
X177915000Y-78000000D03*
X179015000Y-78000000D03*
D13*
X173715000Y-78200000D03*
X173715000Y-79300000D03*
D12*
X191680000Y-65480000D03*
X190580000Y-65480000D03*
X189280000Y-65480000D03*
X188180000Y-65480000D03*
X182130000Y-62480000D03*
X183230000Y-62480000D03*
X182080000Y-68230000D03*
X183180000Y-68230000D03*
X177630000Y-66230000D03*
X178730000Y-66230000D03*
X178730000Y-64730000D03*
X177630000Y-64730000D03*
D13*
X173430000Y-64930000D03*
X173430000Y-66030000D03*
D17*
X181165000Y-90500000D03*
X180265000Y-90500000D03*
X180265000Y-93250000D03*
X181165000Y-93250000D03*
D18*
X174965000Y-91550000D03*
X174965000Y-92450000D03*
D17*
X181165000Y-77250000D03*
X180265000Y-77250000D03*
X180265000Y-80000000D03*
X181165000Y-80000000D03*
D18*
X174965000Y-78300000D03*
X174965000Y-79200000D03*
D17*
X179980000Y-63980000D03*
X180880000Y-63980000D03*
X180880000Y-66730000D03*
X179980000Y-66730000D03*
D18*
X174680000Y-65930000D03*
X174680000Y-65030000D03*
D17*
X199365000Y-90750000D03*
X198465000Y-90750000D03*
X198515000Y-93250000D03*
X199415000Y-93250000D03*
X180265000Y-89000000D03*
X181165000Y-89000000D03*
X181165000Y-94750000D03*
X180265000Y-94750000D03*
D18*
X178965000Y-89950000D03*
X178965000Y-89050000D03*
X178965000Y-94000000D03*
X178965000Y-94900000D03*
D17*
X177415000Y-89000000D03*
X176515000Y-89000000D03*
X176515000Y-94750000D03*
X177415000Y-94750000D03*
D18*
X176465000Y-91200000D03*
X176465000Y-90300000D03*
X176465000Y-92550000D03*
X176465000Y-93450000D03*
D17*
X174265000Y-89000000D03*
X175165000Y-89000000D03*
X175165000Y-94750000D03*
X174265000Y-94750000D03*
X199365000Y-77500000D03*
X198465000Y-77500000D03*
X198515000Y-80000000D03*
X199415000Y-80000000D03*
X180265000Y-75750000D03*
X181165000Y-75750000D03*
X181165000Y-81500000D03*
X180265000Y-81500000D03*
D18*
X178965000Y-76700000D03*
X178965000Y-75800000D03*
X178965000Y-80750000D03*
X178965000Y-81650000D03*
D17*
X176515000Y-75750000D03*
X177415000Y-75750000D03*
X177415000Y-81500000D03*
X176515000Y-81500000D03*
D18*
X176465000Y-77050000D03*
X176465000Y-77950000D03*
X176465000Y-80200000D03*
X176465000Y-79300000D03*
D17*
X174265000Y-75750000D03*
X175165000Y-75750000D03*
X175165000Y-81500000D03*
X174265000Y-81500000D03*
X198180000Y-64230000D03*
X199080000Y-64230000D03*
X199130000Y-66730000D03*
X198230000Y-66730000D03*
X180880000Y-62480000D03*
X179980000Y-62480000D03*
X179980000Y-68230000D03*
X180880000Y-68230000D03*
D18*
X178680000Y-62530000D03*
X178680000Y-63430000D03*
X178680000Y-68380000D03*
X178680000Y-67480000D03*
D17*
X177130000Y-62480000D03*
X176230000Y-62480000D03*
X176230000Y-68230000D03*
X177130000Y-68230000D03*
D18*
X176180000Y-63780000D03*
X176180000Y-64680000D03*
X176180000Y-66930000D03*
X176180000Y-66030000D03*
D17*
X174880000Y-62480000D03*
X173980000Y-62480000D03*
X173980000Y-68230000D03*
X174880000Y-68230000D03*
D19*
X196965000Y-93270000D03*
X196965000Y-90730000D03*
X193535000Y-90730000D03*
X193535000Y-92000000D03*
X193535000Y-93270000D03*
X193535000Y-93270000D03*
X186965000Y-90730000D03*
X186965000Y-90730000D03*
X186965000Y-92000000D03*
X186965000Y-93270000D03*
X183535000Y-93270000D03*
X183535000Y-90730000D03*
X196965000Y-80020000D03*
X196965000Y-77480000D03*
X193535000Y-77480000D03*
X193535000Y-78750000D03*
X193535000Y-80020000D03*
X193535000Y-80020000D03*
X186965000Y-77480000D03*
X186965000Y-77480000D03*
X186965000Y-78750000D03*
X186965000Y-80020000D03*
X183535000Y-80020000D03*
X183535000Y-77480000D03*
X193250000Y-66750000D03*
X193250000Y-66750000D03*
X193250000Y-65480000D03*
X193250000Y-64210000D03*
X196680000Y-64210000D03*
X196680000Y-66750000D03*
X183250000Y-64210000D03*
X183250000Y-66750000D03*
X186680000Y-66750000D03*
X186680000Y-65480000D03*
X186680000Y-64210000D03*
X186680000Y-64210000D03*
M02*
