M48
; DRILL file {KiCad (5.1.0-1157-gc8cd95a71)} date Sat Jun 29 21:36:25 2019
; FORMAT={-:-/ absolute / inch / decimal}
; #@! TF.CreationDate,2019-06-29T21:36:25-07:00
; #@! TF.GenerationSoftware,Kicad,Pcbnew,(5.1.0-1157-gc8cd95a71)
FMAT,2
INCH
T1C0.0118
T2C0.0400
T3C0.0531
T4C0.0591
%
G90
G05
T1
X4.4094Y-1.8898
X4.4882Y-1.811
X4.4882Y-1.9291
X4.811Y-1.878
X4.8346Y-1.9882
X4.8386Y-2.4803
X4.8465Y-3.1339
X4.8819Y-2.6476
X5.0236Y-3.5984
X5.0984Y-3.5728
X5.16Y-2.8046
X5.1732Y-2.748
X5.2008Y-3.1258
X5.2008Y-3.1577
X5.2126Y-2.799
X5.2126Y-2.8309
X5.2126Y-2.9409
X5.2168Y-2.8796
X5.2205Y-2.9096
X5.2461Y-3.6713
X5.248Y-2.7835
X5.248Y-2.8622
X5.2559Y-2.748
X5.2559Y-2.9882
X5.2638Y-3.0236
X5.2717Y-2.9646
X5.3237Y-3.013
X5.3346Y-2.7008
X5.3346Y-2.7638
X5.3346Y-2.8268
X5.3386Y-2.8937
X5.3429Y-2.9921
X5.3445Y-3.6713
X5.3661Y-2.4961
X5.3873Y-3.0031
X5.3976Y-2.5802
X5.4016Y-2.6969
X5.4016Y-2.7638
X5.4016Y-2.8268
X5.4016Y-2.8937
X5.402Y-2.9734
X5.4094Y-2.4961
X5.4134Y-3.0217
X5.4153Y-2.5569
X5.4386Y-2.5276
X5.4402Y-2.578
X5.4429Y-3.6713
X5.4567Y-2.4646
X5.4636Y-2.9766
X5.4646Y-2.8268
X5.4646Y-2.8937
X5.4656Y-2.7628
X5.4685Y-2.6969
X5.4685Y-2.5783
X5.5039Y-3.0709
X5.5305Y-2.8278
X5.5315Y-2.7559
X5.5315Y-2.8937
X5.5354Y-2.6969
X5.5413Y-3.6713
X5.5669Y-3.1102
X5.5827Y-3.0157
X5.6218Y-2.7822
X5.622Y-3.0157
X5.6343Y-2.8543
X5.6457Y-3.0433
X5.6575Y-2.7638
X5.6772Y-3.0039
X5.689Y-2.8543
X5.7323Y-3.0276
X5.7446Y-3.2554
X5.7598Y-2.6929
X5.7638Y-2.9449
X5.7672Y-3.2328
X5.7795Y-1.9291
X5.8189Y-2.6693
X5.8583Y-2.7559
X5.935Y-3.0512
X6.185Y-1.9291
X6.6339Y-1.8799
X6.9894Y-2.5189
X6.9894Y-2.637
X6.9921Y-2.0276
X6.9921Y-2.1457
X7.0006Y-3.0413
X7.0006Y-3.1594
X7.0006Y-3.563
X7.0006Y-3.6811
X7.0571Y-2.5787
X7.0669Y-2.0866
X7.0669Y-3.1004
X7.0768Y-3.622
X7.4539Y-2.5583
X7.4539Y-2.5976
X7.4567Y-2.0669
X7.4567Y-2.1063
X7.4652Y-3.0807
X7.4652Y-3.1201
X7.4652Y-3.6024
X7.4652Y-3.6417
X7.5012Y-2.5583
X7.5012Y-2.5976
X7.5039Y-2.0669
X7.5039Y-2.1063
X7.5124Y-3.0807
X7.5124Y-3.1201
X7.5124Y-3.6024
X7.5124Y-3.6417
X7.8622Y-2.626
X7.8701Y-3.6693
X7.874Y-2.1358
X7.874Y-3.1496
T2
X5.2461Y-3.8189
X5.3461Y-3.8189
X5.4461Y-3.8189
X5.5461Y-3.8189
X5.6461Y-3.8189
X6.25Y-2.3524
X6.35Y-2.3524
X6.45Y-2.3524
X6.55Y-2.3524
X6.65Y-2.3524
X4.65Y-2.1
X4.65Y-2.2
X4.75Y-2.1
X4.75Y-2.2
X4.85Y-2.1
X4.85Y-2.2
X4.95Y-2.1
X4.95Y-2.2
X5.05Y-2.1
X5.05Y-2.2
X5.15Y-2.1
X5.15Y-2.2
X5.25Y-2.1
X5.25Y-2.2
X5.35Y-2.1
X5.35Y-2.2
X5.45Y-2.1
X5.45Y-2.2
X5.55Y-2.1
X5.55Y-2.2
X5.65Y-2.1
X5.65Y-2.2
X5.75Y-2.1
X5.75Y-2.2
X5.85Y-2.1
X5.85Y-2.2
X5.95Y-2.1
X5.95Y-2.2
X6.05Y-2.1
X6.05Y-2.2
X6.15Y-2.1
X6.15Y-2.2
X6.25Y-2.1
X6.25Y-2.2
X6.35Y-2.1
X6.35Y-2.2
X6.45Y-2.1
X6.45Y-2.2
X6.55Y-2.1
X6.55Y-2.2
X6.252Y-3.6535
X6.352Y-3.6535
X6.452Y-3.6535
X6.552Y-3.6535
X6.652Y-3.6535
X5.2512Y-1.9528
X5.3512Y-1.9528
X5.4512Y-1.9528
X5.5512Y-1.9528
X5.6512Y-1.9528
X4.65Y-3.4
X4.65Y-3.5
X4.75Y-3.4
X4.75Y-3.5
X4.85Y-3.4
X4.85Y-3.5
X4.95Y-3.4
X4.95Y-3.5
X5.05Y-3.4
X5.05Y-3.5
X5.15Y-3.4
X5.15Y-3.5
X5.25Y-3.4
X5.25Y-3.5
X5.75Y-3.65
X5.85Y-3.65
X5.45Y-3.4
X5.95Y-3.4
X5.95Y-3.5
X6.05Y-3.4
X6.05Y-3.5
X6.15Y-3.4
X6.15Y-3.5
X6.25Y-3.4
X6.25Y-3.5
X6.35Y-3.4
X6.35Y-3.5
X6.45Y-3.4
X6.45Y-3.5
X6.55Y-3.4
X6.55Y-3.5
X5.25Y-3.26
X5.35Y-3.26
X5.45Y-3.26
X5.55Y-3.26
X5.65Y-3.26
X5.35Y-3.4
X5.35Y-3.5
X5.45Y-3.5
X5.55Y-3.4
X5.55Y-3.5
X5.65Y-3.4
X5.65Y-3.5
X5.75Y-3.4
X5.75Y-3.5
X5.85Y-3.4
X5.85Y-3.5
X5.95Y-3.65
X6.05Y-3.65
T3
X4.65Y-3.7
X6.0827Y-1.811
X4.9213Y-1.811
X5.8268Y-1.811
X5.2559Y-1.811
T4
X7.9709Y-3.0102
X7.9709Y-3.2102
X8.0709Y-3.1102
X8.1709Y-3.0102
X8.1709Y-3.2102
X7.9709Y-2.4984
X7.9709Y-2.6984
X8.0709Y-2.5984
X8.1709Y-2.4984
X8.1709Y-2.6984
X7.9709Y-3.5614
X7.9709Y-3.7614
X8.0709Y-3.6614
X4.65Y-3.1709
X8.1709Y-3.5614
X4.45Y-2.4394
X4.65Y-2.4394
X4.65Y-2.6394
X4.45Y-2.9709
X4.45Y-3.1709
X4.55Y-3.0709
X4.65Y-2.9709
X8.1709Y-3.7614
X4.45Y-2.6394
X4.55Y-2.5394
X7.9709Y-1.9866
X7.9709Y-2.1866
X8.0709Y-2.0866
X8.1709Y-1.9866
X8.1709Y-2.1866
T0
M30
