%TF.GenerationSoftware,KiCad,Pcbnew,(5.1.0-1157-gc8cd95a71)*%
%TF.CreationDate,2019-06-29T21:36:28-07:00*%
%TF.ProjectId,adc344x,61646333-3434-4782-9e6b-696361645f70,rev?*%
%TF.SameCoordinates,Original*%
%TF.FileFunction,Copper,L3,Inr*%
%TF.FilePolarity,Positive*%
%FSLAX46Y46*%
G04 Gerber Fmt 4.6, Leading zero omitted, Abs format (unit mm)*
G04 Created by KiCad (PCBNEW (5.1.0-1157-gc8cd95a71)) date 2019-06-29 21:36:28*
%MOMM*%
%LPD*%
G04 APERTURE LIST*
%ADD10C,2.000000*%
%ADD11O,1.727200X2.032000*%
%ADD12R,1.727200X2.032000*%
%ADD13R,1.727200X1.727200*%
%ADD14O,1.727200X1.727200*%
%ADD15C,0.560000*%
%ADD16C,0.200000*%
%ADD17C,0.250000*%
%ADD18C,0.800000*%
%ADD19C,0.400000*%
G04 APERTURE END LIST*
D10*
X205000000Y-93000000D03*
X207540000Y-90460000D03*
X207540000Y-95540000D03*
X202460000Y-95540000D03*
X202460000Y-90460000D03*
X205000000Y-53000000D03*
X207540000Y-50460000D03*
X207540000Y-55540000D03*
X202460000Y-55540000D03*
X202460000Y-50460000D03*
X115570000Y-64500000D03*
X113030000Y-67040000D03*
X113030000Y-61960000D03*
X118110000Y-61960000D03*
X118110000Y-67040000D03*
X115570000Y-78000000D03*
X113030000Y-80540000D03*
X113030000Y-75460000D03*
X118110000Y-75460000D03*
X118110000Y-80540000D03*
X205000000Y-79000000D03*
X207540000Y-76460000D03*
X207540000Y-81540000D03*
X202460000Y-81540000D03*
X202460000Y-76460000D03*
X205000000Y-66000000D03*
X207540000Y-63460000D03*
X207540000Y-68540000D03*
X202460000Y-68540000D03*
X202460000Y-63460000D03*
D11*
X143410000Y-97000000D03*
X140870000Y-97000000D03*
X138330000Y-97000000D03*
X135790000Y-97000000D03*
D12*
X133250000Y-97000000D03*
D11*
X143540000Y-49600000D03*
X141000000Y-49600000D03*
X138460000Y-49600000D03*
X135920000Y-49600000D03*
D12*
X133380000Y-49600000D03*
D11*
X143510000Y-82804000D03*
X140970000Y-82804000D03*
X138430000Y-82804000D03*
X135890000Y-82804000D03*
D12*
X133350000Y-82804000D03*
D11*
X168960000Y-92800000D03*
X166420000Y-92800000D03*
X163880000Y-92800000D03*
X161340000Y-92800000D03*
D12*
X158800000Y-92800000D03*
D11*
X168910000Y-59750000D03*
X166370000Y-59750000D03*
X163830000Y-59750000D03*
X161290000Y-59750000D03*
D12*
X158750000Y-59750000D03*
D10*
X154500000Y-46000000D03*
X125000000Y-46000000D03*
X118110000Y-93980000D03*
X148000000Y-46000000D03*
X133500000Y-46000000D03*
D11*
X153670000Y-92710000D03*
X151130000Y-92710000D03*
X148590000Y-92710000D03*
D12*
X146050000Y-92710000D03*
D13*
X118110000Y-88900000D03*
D14*
X118110000Y-86360000D03*
X120650000Y-88900000D03*
X120650000Y-86360000D03*
X123190000Y-88900000D03*
X123190000Y-86360000D03*
X125730000Y-88900000D03*
X125730000Y-86360000D03*
X128270000Y-88900000D03*
X128270000Y-86360000D03*
X130810000Y-88900000D03*
X130810000Y-86360000D03*
X133350000Y-88900000D03*
X133350000Y-86360000D03*
X135890000Y-88900000D03*
X135890000Y-86360000D03*
X138430000Y-88900000D03*
X138430000Y-86360000D03*
X140970000Y-88900000D03*
X140970000Y-86360000D03*
X143510000Y-88900000D03*
X143510000Y-86360000D03*
X146050000Y-88900000D03*
X146050000Y-86360000D03*
X148590000Y-88900000D03*
X148590000Y-86360000D03*
X151130000Y-88900000D03*
X151130000Y-86360000D03*
X153670000Y-88900000D03*
X153670000Y-86360000D03*
X156210000Y-88900000D03*
X156210000Y-86360000D03*
X158750000Y-88900000D03*
X158750000Y-86360000D03*
X161290000Y-88900000D03*
X161290000Y-86360000D03*
X163830000Y-88900000D03*
X163830000Y-86360000D03*
X166370000Y-88900000D03*
X166370000Y-86360000D03*
X166370000Y-53340000D03*
X166370000Y-55880000D03*
X163830000Y-53340000D03*
X163830000Y-55880000D03*
X161290000Y-53340000D03*
X161290000Y-55880000D03*
X158750000Y-53340000D03*
X158750000Y-55880000D03*
X156210000Y-53340000D03*
X156210000Y-55880000D03*
X153670000Y-53340000D03*
X153670000Y-55880000D03*
X151130000Y-53340000D03*
X151130000Y-55880000D03*
X148590000Y-53340000D03*
X148590000Y-55880000D03*
X146050000Y-53340000D03*
X146050000Y-55880000D03*
X143510000Y-53340000D03*
X143510000Y-55880000D03*
X140970000Y-53340000D03*
X140970000Y-55880000D03*
X138430000Y-53340000D03*
X138430000Y-55880000D03*
X135890000Y-53340000D03*
X135890000Y-55880000D03*
X133350000Y-53340000D03*
X133350000Y-55880000D03*
X130810000Y-53340000D03*
X130810000Y-55880000D03*
X128270000Y-53340000D03*
X128270000Y-55880000D03*
X125730000Y-53340000D03*
X125730000Y-55880000D03*
X123190000Y-53340000D03*
X123190000Y-55880000D03*
X120650000Y-53340000D03*
X120650000Y-55880000D03*
X118110000Y-53340000D03*
D13*
X118110000Y-55880000D03*
D15*
X127600000Y-91400000D03*
X146486379Y-82113621D03*
X145913621Y-82686379D03*
X132400000Y-71905000D03*
X132400000Y-71095000D03*
X139800000Y-78000000D03*
X141400000Y-79000000D03*
X129500000Y-90750000D03*
X150750000Y-77500000D03*
X179500000Y-53000000D03*
X179250000Y-65500000D03*
X179500000Y-78750000D03*
X179750000Y-92000000D03*
X132506688Y-73141286D03*
X136837211Y-76278294D03*
X168500000Y-47750000D03*
X143109998Y-72500000D03*
X144500000Y-72500000D03*
X122800000Y-50500000D03*
X122200000Y-47700000D03*
X146800000Y-49000000D03*
X157100000Y-49000000D03*
X199900000Y-93200000D03*
X200000000Y-80000000D03*
X199700000Y-66700000D03*
X132100000Y-79395000D03*
X132100000Y-80205000D03*
X131065010Y-71236795D03*
X143700000Y-70200000D03*
X142792998Y-70667089D03*
X146300000Y-68400000D03*
X147800000Y-67800000D03*
X148800000Y-70000000D03*
X145600000Y-76900000D03*
X144200000Y-76300000D03*
X146400000Y-74800000D03*
X142800000Y-76600000D03*
X141800000Y-76600000D03*
X143400000Y-77300000D03*
X122900000Y-63000000D03*
X123100000Y-79600000D03*
X190600000Y-53500000D03*
X190600000Y-52500000D03*
X189400000Y-53500000D03*
X189400000Y-52500000D03*
X177600000Y-54500000D03*
X177600000Y-51500000D03*
X200000000Y-54250000D03*
X177815000Y-90500000D03*
X177815000Y-93500000D03*
X189615000Y-91500000D03*
X189615000Y-92500000D03*
X190815000Y-91500000D03*
X190815000Y-92500000D03*
X177815000Y-77250000D03*
X177815000Y-80250000D03*
X189615000Y-78250000D03*
X189615000Y-79250000D03*
X190815000Y-78250000D03*
X190815000Y-79250000D03*
X177530000Y-63980000D03*
X177530000Y-66980000D03*
X189330000Y-64980000D03*
X189330000Y-65980000D03*
X190530000Y-64980000D03*
X190530000Y-65980000D03*
X114000000Y-46000000D03*
X114000000Y-49000000D03*
X112000000Y-48000000D03*
X140750000Y-93250000D03*
X133250000Y-93250000D03*
X135750000Y-93250000D03*
X138250000Y-93250000D03*
X135222096Y-76529506D03*
X135709990Y-76000000D03*
X137500000Y-76750000D03*
X124000000Y-67250000D03*
X135500000Y-68600000D03*
X137200000Y-68500000D03*
X138900000Y-68500000D03*
X140600000Y-68500000D03*
X140500000Y-70000000D03*
X138825000Y-70175000D03*
X137200000Y-70200000D03*
X135500000Y-70200000D03*
X135500000Y-71800000D03*
X137200000Y-71800000D03*
X138800000Y-71800000D03*
X140475000Y-71825000D03*
X140500000Y-73500000D03*
X138800000Y-73500000D03*
X137200000Y-73500000D03*
X135600000Y-73500000D03*
X131400000Y-69800000D03*
X132600000Y-73905000D03*
X137549739Y-64944316D03*
X136300000Y-63400000D03*
X137400000Y-63400000D03*
X138600000Y-62600000D03*
X138180208Y-65481930D03*
X137100196Y-65536379D03*
X138900196Y-65487785D03*
X138140002Y-64200000D03*
X133700000Y-76800000D03*
X133500000Y-75900000D03*
X132400000Y-74700000D03*
X133900000Y-75300000D03*
X133300000Y-72700000D03*
X133300000Y-70700000D03*
X133499446Y-69798613D03*
X137209990Y-75525530D03*
X138774399Y-75605764D03*
D16*
X131825000Y-72093200D02*
X131825000Y-77106800D01*
X132220000Y-71725000D02*
X132193200Y-71725000D01*
X131375000Y-77293200D02*
X133306800Y-79225000D01*
X132400000Y-71905000D02*
X132220000Y-71725000D01*
X133306800Y-79225000D02*
X135706800Y-79225000D01*
X144293199Y-80175000D02*
X146231820Y-82113621D01*
X133493200Y-78775000D02*
X135893200Y-78775000D01*
X131825000Y-77106800D02*
X133493200Y-78775000D01*
X132193200Y-71725000D02*
X131825000Y-72093200D01*
X135893200Y-78775000D02*
X137293200Y-80175000D01*
X137293200Y-80175000D02*
X144293199Y-80175000D01*
X132220000Y-71275000D02*
X132006800Y-71275000D01*
X146231820Y-82113621D02*
X146486379Y-82113621D01*
X132400000Y-71095000D02*
X132220000Y-71275000D01*
X132006800Y-71275000D02*
X131375000Y-71906800D01*
X145913621Y-82431820D02*
X145913621Y-82686379D01*
X131375000Y-71906800D02*
X131375000Y-77293200D01*
X135706800Y-79225000D02*
X137106800Y-80625000D01*
X137106800Y-80625000D02*
X144106801Y-80625000D01*
X144106801Y-80625000D02*
X145913621Y-82431820D01*
D17*
X132201399Y-84298601D02*
X132250000Y-84250000D01*
X131250000Y-90750000D02*
X132201399Y-89798601D01*
X132201399Y-89798601D02*
X132201399Y-84298601D01*
X129500000Y-90750000D02*
X131250000Y-90750000D01*
D18*
X166750000Y-73250000D02*
X166750000Y-72500000D01*
X155000000Y-73250000D02*
X150750000Y-77500000D01*
X166750000Y-73250000D02*
X166750000Y-76500000D01*
X166750000Y-73250000D02*
X155000000Y-73250000D01*
X166750000Y-69000000D02*
X166750000Y-73250000D01*
D19*
X179750000Y-89500000D02*
X179750000Y-92000000D01*
D18*
X166750000Y-76500000D02*
X179750000Y-89500000D01*
D19*
X179500000Y-53000000D02*
X179500000Y-56250000D01*
D18*
X179500000Y-56250000D02*
X166750000Y-69000000D01*
X168750000Y-72500000D02*
X166750000Y-72500000D01*
X175750000Y-65500000D02*
X168750000Y-72500000D01*
D19*
X179250000Y-65500000D02*
X175750000Y-65500000D01*
D18*
X168500000Y-74500000D02*
X166750000Y-74500000D01*
X172470001Y-78470001D02*
X168500000Y-74500000D01*
D19*
X179500000Y-78750000D02*
X179220001Y-78470001D01*
X179220001Y-78470001D02*
X172470001Y-78470001D01*
D18*
X133600000Y-72400000D02*
X133250000Y-72750000D01*
X133600000Y-71000000D02*
X133600000Y-72400000D01*
X133300000Y-70700000D02*
X133600000Y-71000000D01*
X137209990Y-74540010D02*
X137250000Y-74500000D01*
X137209990Y-75525530D02*
X137209990Y-74540010D01*
X166250000Y-49000000D02*
X157000000Y-49000000D01*
X168500000Y-51250000D02*
X166250000Y-49000000D01*
X168500000Y-55856930D02*
X168500000Y-51250000D01*
X155000000Y-57500000D02*
X166856930Y-57500000D01*
X166856930Y-57500000D02*
X168500000Y-55856930D01*
X149079999Y-63420001D02*
X155000000Y-57500000D01*
X148800000Y-70000000D02*
X149079999Y-69720001D01*
X149079999Y-69720001D02*
X149079999Y-63420001D01*
D19*
X136250000Y-63500000D02*
X136250000Y-63250000D01*
X136250000Y-62500000D02*
X136250000Y-63500000D01*
X136579999Y-62829999D02*
X136250000Y-62500000D01*
X136300000Y-63400000D02*
X136579999Y-63120001D01*
X136579999Y-63120001D02*
X136579999Y-62829999D01*
X138250000Y-63250000D02*
X137500000Y-62500000D01*
X138250000Y-63694023D02*
X138250000Y-63250000D01*
X138140002Y-64200000D02*
X138140002Y-63804021D01*
X138140002Y-63804021D02*
X138250000Y-63694023D01*
X132000000Y-68750000D02*
X130000000Y-68750000D01*
X133048613Y-69798613D02*
X132000000Y-68750000D01*
X133499446Y-69798613D02*
X133048613Y-69798613D01*
X139746390Y-84246390D02*
X139750000Y-84250000D01*
X139750000Y-81650000D02*
X139746390Y-81653610D01*
X139746390Y-81653610D02*
X139746390Y-84246390D01*
D18*
X141800000Y-75300000D02*
X141750000Y-75250000D01*
X141800000Y-76600000D02*
X141800000Y-75300000D01*
X138774399Y-74524399D02*
X138750000Y-74500000D01*
X138774399Y-75605764D02*
X138774399Y-74524399D01*
X135000000Y-62500000D02*
X137500000Y-62500000D01*
X130000000Y-67500000D02*
X135000000Y-62500000D01*
X130000000Y-72750000D02*
X130000000Y-67500000D01*
X130500000Y-73250000D02*
X130000000Y-72750000D01*
X130500000Y-82841602D02*
X130500000Y-73250000D01*
X135619990Y-84380010D02*
X132038408Y-84380010D01*
X132038408Y-84380010D02*
X130500000Y-82841602D01*
X148750000Y-81500000D02*
X145869990Y-84380010D01*
X145869990Y-84380010D02*
X135619990Y-84380010D01*
X148750000Y-75250000D02*
X148750000Y-81500000D01*
X148800000Y-75200000D02*
X148750000Y-75250000D01*
X148800000Y-70000000D02*
X148800000Y-75200000D01*
X121750000Y-47750000D02*
X122000000Y-47750000D01*
X119000000Y-47750000D02*
X121750000Y-47750000D01*
X114750000Y-52000000D02*
X119000000Y-47750000D01*
X114750000Y-57000000D02*
X114750000Y-52000000D01*
X117000000Y-59250000D02*
X114750000Y-57000000D01*
X138500000Y-59250000D02*
X117000000Y-59250000D01*
X142750000Y-63500000D02*
X138500000Y-59250000D01*
X142750000Y-70228112D02*
X142750000Y-63500000D01*
X142792998Y-70667089D02*
X142792998Y-70271110D01*
X142792998Y-70271110D02*
X142750000Y-70228112D01*
D19*
X133450000Y-74700000D02*
X133500000Y-74750000D01*
X132400000Y-74700000D02*
X133450000Y-74700000D01*
D16*
X133750000Y-74500000D02*
X134000000Y-74500000D01*
D18*
X141500000Y-75250000D02*
X140500000Y-75250000D01*
X140400000Y-74600000D02*
X140500000Y-74500000D01*
X142792998Y-75207002D02*
X142750000Y-75250000D01*
X142792998Y-70667089D02*
X142792998Y-75207002D01*
X146350000Y-74750000D02*
X146500000Y-74750000D01*
X146300000Y-74800000D02*
X146350000Y-74750000D01*
X146400000Y-74800000D02*
X146300000Y-74800000D01*
X146000000Y-75250000D02*
X146500000Y-74750000D01*
X141500000Y-75250000D02*
X146000000Y-75250000D01*
X140750000Y-74500000D02*
X141500000Y-75250000D01*
X133750000Y-74500000D02*
X133750000Y-75000000D01*
X133750000Y-73250000D02*
X133750000Y-74500000D01*
X133750000Y-74500000D02*
X140750000Y-74500000D01*
X133300000Y-72800000D02*
X133750000Y-73250000D01*
X133300000Y-72700000D02*
X133300000Y-72800000D01*
M02*
