G04 #@! TF.FileFunction,Copper,L1,Top,Signal*
%FSLAX46Y46*%
G04 Gerber Fmt 4.6, Leading zero omitted, Abs format (unit mm)*
G04 Created by KiCad (PCBNEW 4.0.2-stable) date Sun 06 Mar 2016 06:46:27 PM HST*
%MOMM*%
G01*
G04 APERTURE LIST*
%ADD10C,0.100000*%
%ADD11R,0.600000X0.500000*%
%ADD12R,0.600000X0.400000*%
%ADD13R,1.000000X1.250000*%
%ADD14R,0.500000X0.600000*%
%ADD15R,0.400000X0.600000*%
%ADD16R,2.032000X2.032000*%
%ADD17O,2.032000X2.032000*%
%ADD18R,1.727200X2.032000*%
%ADD19O,1.727200X2.032000*%
%ADD20C,1.800000*%
%ADD21R,0.700000X0.250000*%
%ADD22R,0.830000X1.190000*%
%ADD23R,1.650000X0.760000*%
%ADD24R,0.760000X1.650000*%
%ADD25R,0.300000X0.700000*%
%ADD26R,0.700000X0.300000*%
%ADD27R,3.600000X3.600000*%
%ADD28R,1.400000X1.200000*%
%ADD29C,0.600000*%
%ADD30C,0.250000*%
%ADD31C,0.350000*%
G04 APERTURE END LIST*
D10*
D11*
X134900000Y-107600000D03*
X136000000Y-107600000D03*
X143800000Y-89750000D03*
X142700000Y-89750000D03*
D12*
X153550000Y-102050000D03*
X153550000Y-102950000D03*
D11*
X156100000Y-103000000D03*
X155000000Y-103000000D03*
D13*
X144050000Y-88000000D03*
X142050000Y-88000000D03*
D11*
X145500000Y-91750000D03*
X146600000Y-91750000D03*
D14*
X151050000Y-90950000D03*
X151050000Y-92050000D03*
X151050000Y-88250000D03*
X151050000Y-89350000D03*
D11*
X156100000Y-104500000D03*
X155000000Y-104500000D03*
D14*
X159750000Y-95700000D03*
X159750000Y-96800000D03*
X158250000Y-95700000D03*
X158250000Y-96800000D03*
X161250000Y-101550000D03*
X161250000Y-100450000D03*
D11*
X149500000Y-95500000D03*
X150600000Y-95500000D03*
D14*
X158500000Y-88800000D03*
X158500000Y-87700000D03*
D11*
X142700000Y-102250000D03*
X143800000Y-102250000D03*
X142200000Y-99000000D03*
X143300000Y-99000000D03*
D14*
X142750000Y-96450000D03*
X142750000Y-97550000D03*
X141250000Y-96450000D03*
X141250000Y-97550000D03*
D11*
X144950000Y-96000000D03*
X146050000Y-96000000D03*
X144950000Y-94500000D03*
X146050000Y-94500000D03*
D12*
X153550000Y-105450000D03*
X153550000Y-104550000D03*
D15*
X160700000Y-98250000D03*
X159800000Y-98250000D03*
X157300000Y-98250000D03*
X158200000Y-98250000D03*
D16*
X154050000Y-91290000D03*
D17*
X154050000Y-88750000D03*
D18*
X153500000Y-108500000D03*
D19*
X150960000Y-108500000D03*
X148420000Y-108500000D03*
X145880000Y-108500000D03*
X143340000Y-108500000D03*
X140800000Y-108500000D03*
D20*
X166750000Y-105750000D03*
X169290000Y-108290000D03*
X164210000Y-108290000D03*
X164210000Y-103210000D03*
X169290000Y-103210000D03*
X166750000Y-90750000D03*
X164210000Y-88210000D03*
X169290000Y-88210000D03*
X169290000Y-93290000D03*
X164210000Y-93290000D03*
D12*
X147500000Y-95050000D03*
X147500000Y-95950000D03*
D21*
X146400000Y-88345000D03*
X146400000Y-88845000D03*
X146400000Y-89345000D03*
X146400000Y-89845000D03*
X149200000Y-89845000D03*
X149200000Y-89345000D03*
X149200000Y-88845000D03*
X149200000Y-88345000D03*
D22*
X148215000Y-89690000D03*
X148215000Y-88500000D03*
X147385000Y-89690000D03*
X147385000Y-88500000D03*
D23*
X158160000Y-104500000D03*
X158160000Y-103230000D03*
X161340000Y-103230000D03*
X161340000Y-104500000D03*
X161340000Y-105770000D03*
X158160000Y-105770000D03*
D24*
X159750000Y-93840000D03*
X158480000Y-93840000D03*
X158480000Y-90660000D03*
X159750000Y-90660000D03*
X161020000Y-90660000D03*
X161020000Y-93840000D03*
D25*
X146000000Y-102650000D03*
X146500000Y-102650000D03*
X147000000Y-102650000D03*
X147500000Y-102650000D03*
X148000000Y-102650000D03*
X148500000Y-102650000D03*
X149000000Y-102650000D03*
X149500000Y-102650000D03*
D26*
X150150000Y-102000000D03*
X150150000Y-101500000D03*
X150150000Y-101000000D03*
X150150000Y-100500000D03*
X150150000Y-100000000D03*
X150150000Y-99500000D03*
X150150000Y-99000000D03*
X150150000Y-98500000D03*
D25*
X149500000Y-97850000D03*
X149000000Y-97850000D03*
X148500000Y-97850000D03*
X148000000Y-97850000D03*
X147500000Y-97850000D03*
X147000000Y-97850000D03*
X146500000Y-97850000D03*
X146000000Y-97850000D03*
D26*
X145350000Y-98500000D03*
X145350000Y-99000000D03*
X145350000Y-99500000D03*
X145350000Y-100000000D03*
X145350000Y-100500000D03*
X145350000Y-101000000D03*
X145350000Y-101500000D03*
X145350000Y-102000000D03*
D27*
X147750000Y-100250000D03*
D11*
X149700000Y-94000000D03*
X150800000Y-94000000D03*
X135800000Y-102250000D03*
X134700000Y-102250000D03*
D14*
X139050000Y-104150000D03*
X139050000Y-103050000D03*
D11*
X136050000Y-100750000D03*
X137150000Y-100750000D03*
D20*
X136550000Y-90750000D03*
X134010000Y-88210000D03*
X139090000Y-88210000D03*
X139090000Y-93290000D03*
X134010000Y-93290000D03*
D14*
X139800000Y-99550000D03*
X139800000Y-98450000D03*
X153300000Y-97550000D03*
X153300000Y-96450000D03*
X138300000Y-99550000D03*
X138300000Y-98450000D03*
X151800000Y-97550000D03*
X151800000Y-96450000D03*
D12*
X154800000Y-97450000D03*
X154800000Y-96550000D03*
X136800000Y-99650000D03*
X136800000Y-98750000D03*
D28*
X134950000Y-105800000D03*
X137150000Y-105800000D03*
X134950000Y-104200000D03*
X137150000Y-104200000D03*
D29*
X134900000Y-108750000D03*
X143800000Y-90750000D03*
X161800000Y-98250000D03*
X156550000Y-98000000D03*
X143983052Y-104933052D03*
X149700000Y-93100000D03*
X154800000Y-95750000D03*
X151050000Y-102000000D03*
X154500000Y-102050000D03*
X154250000Y-105450000D03*
X136800000Y-97750000D03*
X149018104Y-104074178D03*
X147800000Y-99000000D03*
X147800000Y-101500000D03*
X149050000Y-100250000D03*
X146550000Y-100250000D03*
X146550000Y-101500000D03*
X149050000Y-101500000D03*
X149000000Y-99000000D03*
X146550000Y-99000000D03*
X141550000Y-89375000D03*
X142550000Y-90750000D03*
X138450000Y-105800000D03*
X136850000Y-107600000D03*
X151300000Y-106500000D03*
X151050000Y-105250000D03*
X151350000Y-104250000D03*
X147550000Y-91750000D03*
X148215000Y-88500000D03*
X147385000Y-88500000D03*
X147385000Y-89690000D03*
X148215000Y-89690000D03*
X151800000Y-92000000D03*
X152050000Y-89500000D03*
X147750000Y-100250000D03*
X144550000Y-107250000D03*
X145616948Y-105066948D03*
X147550000Y-94250000D03*
X151550000Y-94000000D03*
X150350000Y-96450000D03*
X152300000Y-95500000D03*
X153300000Y-95750000D03*
X155050000Y-101000000D03*
X135050000Y-100750000D03*
X139800000Y-97500000D03*
X138300000Y-97500000D03*
X141300000Y-99000000D03*
X141800000Y-104750000D03*
X159300000Y-87750000D03*
X162050000Y-100500000D03*
X141300000Y-95500000D03*
X142800000Y-95500000D03*
X144050000Y-94500000D03*
X144050000Y-96000000D03*
X142000000Y-102250000D03*
X149800000Y-103500000D03*
X148550000Y-96500000D03*
X148125010Y-104250000D03*
D30*
X134950000Y-105800000D02*
X134950000Y-104200000D01*
X134900000Y-107600000D02*
X134900000Y-108750000D01*
X134950000Y-105800000D02*
X134950000Y-107550000D01*
X134950000Y-107550000D02*
X134900000Y-107600000D01*
X143800000Y-89750000D02*
X143800000Y-90750000D01*
X143800000Y-89750000D02*
X144550000Y-89750000D01*
X145705000Y-88845000D02*
X144800000Y-89750000D01*
X144800000Y-89750000D02*
X144550000Y-89750000D01*
X146400000Y-88845000D02*
X145705000Y-88845000D01*
X160700000Y-98250000D02*
X161800000Y-98250000D01*
X157300000Y-98250000D02*
X156800000Y-98250000D01*
X156800000Y-98250000D02*
X156550000Y-98000000D01*
X149018104Y-104074178D02*
X148500000Y-103556074D01*
X148500000Y-103556074D02*
X148500000Y-102650000D01*
X149700000Y-94000000D02*
X149700000Y-93100000D01*
X149700000Y-94000000D02*
X149700000Y-94800000D01*
X149500000Y-95000000D02*
X149500000Y-95500000D01*
X149700000Y-94800000D02*
X149500000Y-95000000D01*
X149225002Y-96750000D02*
X149550000Y-96425002D01*
X149550000Y-96425002D02*
X149550000Y-95550000D01*
X149550000Y-95550000D02*
X149500000Y-95500000D01*
X148850001Y-97125001D02*
X149225002Y-96750000D01*
X149500000Y-97850000D02*
X149500000Y-97024998D01*
X149500000Y-97024998D02*
X149225002Y-96750000D01*
X148500000Y-97850000D02*
X148500000Y-97186410D01*
X148500000Y-97186410D02*
X148561409Y-97125001D01*
X148561409Y-97125001D02*
X148850001Y-97125001D01*
X154800000Y-96550000D02*
X154800000Y-95750000D01*
X150999980Y-101699980D02*
X150999980Y-101949980D01*
X150999980Y-101949980D02*
X151050000Y-102000000D01*
D31*
X153550000Y-102050000D02*
X154500000Y-102050000D01*
X153550000Y-105450000D02*
X154250000Y-105450000D01*
D30*
X150150000Y-101500000D02*
X150800000Y-101500000D01*
X150800000Y-101500000D02*
X150999980Y-101699980D01*
X136800000Y-98300000D02*
X136800000Y-97750000D01*
X136800000Y-98750000D02*
X136800000Y-98300000D01*
X149050000Y-104042282D02*
X149018104Y-104074178D01*
X142050000Y-88000000D02*
X142050000Y-88875000D01*
X142050000Y-88875000D02*
X141550000Y-89375000D01*
X142700000Y-90600000D02*
X142550000Y-90750000D01*
X142700000Y-89750000D02*
X142700000Y-90600000D01*
X137150000Y-105800000D02*
X138450000Y-105800000D01*
X136550000Y-107600000D02*
X136850000Y-107600000D01*
X136000000Y-107600000D02*
X136550000Y-107600000D01*
X146600000Y-91750000D02*
X147550000Y-91750000D01*
X146400000Y-89845000D02*
X147230000Y-89845000D01*
X147230000Y-89845000D02*
X147385000Y-89690000D01*
X151050000Y-92050000D02*
X151750000Y-92050000D01*
X151750000Y-92050000D02*
X151800000Y-92000000D01*
D31*
X151050000Y-89350000D02*
X151900000Y-89350000D01*
X151900000Y-89350000D02*
X152050000Y-89500000D01*
D30*
X145350000Y-101500000D02*
X146500000Y-101500000D01*
X146500000Y-101500000D02*
X147750000Y-100250000D01*
X147550000Y-94550000D02*
X147550000Y-94250000D01*
X147500000Y-95050000D02*
X147500000Y-94600000D01*
X147500000Y-94600000D02*
X147550000Y-94550000D01*
X150800000Y-94000000D02*
X151550000Y-94000000D01*
X150350000Y-96250000D02*
X150350000Y-96450000D01*
X150600000Y-95500000D02*
X150600000Y-96000000D01*
X150600000Y-96000000D02*
X150350000Y-96250000D01*
X151800000Y-96000000D02*
X152300000Y-95500000D01*
X151800000Y-96400000D02*
X151800000Y-96000000D01*
X151800000Y-96450000D02*
X151800000Y-96400000D01*
X153300000Y-96450000D02*
X153300000Y-95750000D01*
X136050000Y-100750000D02*
X135050000Y-100750000D01*
X139800000Y-98450000D02*
X139800000Y-97500000D01*
X138300000Y-98450000D02*
X138300000Y-97500000D01*
X142200000Y-99000000D02*
X141300000Y-99000000D01*
X150150000Y-100000000D02*
X148000000Y-100000000D01*
X148000000Y-100000000D02*
X147750000Y-100250000D01*
D31*
X158500000Y-87700000D02*
X159250000Y-87700000D01*
X159250000Y-87700000D02*
X159300000Y-87750000D01*
D30*
X161250000Y-100450000D02*
X162000000Y-100450000D01*
X162000000Y-100450000D02*
X162050000Y-100500000D01*
X141250000Y-96450000D02*
X141250000Y-95550000D01*
X141250000Y-95550000D02*
X141300000Y-95500000D01*
X142750000Y-96450000D02*
X142750000Y-95550000D01*
X142750000Y-95550000D02*
X142800000Y-95500000D01*
X144950000Y-94500000D02*
X144050000Y-94500000D01*
X144950000Y-96000000D02*
X144050000Y-96000000D01*
X142700000Y-102250000D02*
X142000000Y-102250000D01*
X147500000Y-97850000D02*
X147500000Y-100000000D01*
X147500000Y-100000000D02*
X147750000Y-100250000D01*
X149000000Y-97850000D02*
X149000000Y-99000000D01*
X149000000Y-99000000D02*
X147750000Y-100250000D01*
X149500000Y-102650000D02*
X149500000Y-102000000D01*
X149500000Y-102000000D02*
X147750000Y-100250000D01*
X150150000Y-102000000D02*
X149500000Y-102000000D01*
X149500000Y-102000000D02*
X147750000Y-100250000D01*
X145050000Y-88000000D02*
X145395000Y-88345000D01*
X145395000Y-88345000D02*
X146400000Y-88345000D01*
X144050000Y-88000000D02*
X145050000Y-88000000D01*
X146400000Y-89345000D02*
X145800000Y-89345000D01*
X145500000Y-89645000D02*
X145500000Y-91250000D01*
X145800000Y-89345000D02*
X145500000Y-89645000D01*
X145500000Y-91250000D02*
X145500000Y-91750000D01*
X149895000Y-89345000D02*
X149995000Y-89445000D01*
X149995000Y-89445000D02*
X149995000Y-89845000D01*
X149200000Y-89345000D02*
X149895000Y-89345000D01*
X149200000Y-89845000D02*
X149995000Y-89845000D01*
X149995000Y-89845000D02*
X151050000Y-90900000D01*
X151050000Y-90900000D02*
X151050000Y-90950000D01*
D31*
X151050000Y-88250000D02*
X154050000Y-88250000D01*
X154050000Y-88250000D02*
X154550000Y-88750000D01*
D30*
X149200000Y-88345000D02*
X150300000Y-88345000D01*
X150300000Y-88345000D02*
X150955000Y-88345000D01*
X150205000Y-88845000D02*
X150300000Y-88750000D01*
X150300000Y-88750000D02*
X150300000Y-88345000D01*
X149200000Y-88845000D02*
X150205000Y-88845000D01*
X150955000Y-88345000D02*
X151050000Y-88250000D01*
D31*
X156100000Y-104500000D02*
X158160000Y-104500000D01*
X153550000Y-104550000D02*
X152900000Y-104550000D01*
X152900000Y-104550000D02*
X151999990Y-103649990D01*
X151999990Y-103649990D02*
X151999990Y-101449990D01*
X151999990Y-101449990D02*
X151550000Y-101000000D01*
X151550000Y-101000000D02*
X151300000Y-101000000D01*
X153550000Y-104550000D02*
X154950000Y-104550000D01*
X154950000Y-104550000D02*
X155000000Y-104500000D01*
D30*
X150800000Y-101000000D02*
X151300000Y-101000000D01*
X150150000Y-101000000D02*
X150800000Y-101000000D01*
D31*
X158160000Y-103230000D02*
X156985000Y-103230000D01*
X156985000Y-103230000D02*
X156755000Y-103000000D01*
X156755000Y-103000000D02*
X156100000Y-103000000D01*
D30*
X150150000Y-100500000D02*
X151249990Y-100500000D01*
X151249990Y-100500000D02*
X151300000Y-100449990D01*
D31*
X151777821Y-100449990D02*
X151300000Y-100449990D01*
X151827831Y-100500000D02*
X151777821Y-100449990D01*
X152550000Y-101250000D02*
X152550000Y-101222169D01*
X152550000Y-101222169D02*
X151827831Y-100500000D01*
X152550000Y-102600000D02*
X152550000Y-101250000D01*
X153550000Y-102950000D02*
X152900000Y-102950000D01*
X152900000Y-102950000D02*
X152550000Y-102600000D01*
X155000000Y-103000000D02*
X153600000Y-103000000D01*
X153600000Y-103000000D02*
X153550000Y-102950000D01*
X159750000Y-93840000D02*
X159750000Y-95700000D01*
X159750000Y-96800000D02*
X159750000Y-97500000D01*
X158027821Y-99800010D02*
X158577831Y-99250000D01*
X159750000Y-97500000D02*
X159750000Y-98200000D01*
X151300000Y-99500000D02*
X152522169Y-99500000D01*
X152522169Y-99500000D02*
X152822179Y-99800010D01*
X152822179Y-99800010D02*
X158027821Y-99800010D01*
X159800000Y-97550000D02*
X159750000Y-97500000D01*
X158577831Y-99250000D02*
X159550000Y-99250000D01*
X159550000Y-99250000D02*
X159800000Y-99000000D01*
X159800000Y-99000000D02*
X159800000Y-97550000D01*
D30*
X150150000Y-99500000D02*
X151300000Y-99500000D01*
D31*
X159750000Y-98200000D02*
X159800000Y-98250000D01*
X158480000Y-93840000D02*
X158480000Y-94820000D01*
X158250000Y-95050000D02*
X158250000Y-95700000D01*
X158480000Y-94820000D02*
X158250000Y-95050000D01*
D30*
X150150000Y-99000000D02*
X150800000Y-99000000D01*
X151050000Y-98750000D02*
X151550000Y-98750000D01*
X150800000Y-99000000D02*
X151050000Y-98750000D01*
D31*
X158200000Y-98250000D02*
X158200000Y-98850000D01*
X152550000Y-98750000D02*
X151550000Y-98750000D01*
X151550000Y-98750000D02*
X151300000Y-98750000D01*
X153050000Y-99250000D02*
X152550000Y-98750000D01*
X157800000Y-99250000D02*
X153050000Y-99250000D01*
X158200000Y-98850000D02*
X157800000Y-99250000D01*
X158250000Y-96800000D02*
X158250000Y-98200000D01*
X158250000Y-98200000D02*
X158200000Y-98250000D01*
D30*
X161340000Y-103230000D02*
X161340000Y-101640000D01*
X161340000Y-101640000D02*
X161250000Y-101550000D01*
D31*
X158480000Y-90660000D02*
X158480000Y-88820000D01*
X158480000Y-88820000D02*
X158500000Y-88800000D01*
D30*
X145350000Y-102000000D02*
X144750000Y-102000000D01*
X144500000Y-102250000D02*
X143800000Y-102250000D01*
X144750000Y-102000000D02*
X144500000Y-102250000D01*
X143300000Y-99000000D02*
X143750000Y-99000000D01*
X144250000Y-98500000D02*
X145350000Y-98500000D01*
X143750000Y-99000000D02*
X144250000Y-98500000D01*
X141250000Y-97550000D02*
X142750000Y-97550000D01*
X142750000Y-97550000D02*
X144950000Y-97550000D01*
X146000000Y-97250000D02*
X146000000Y-97850000D01*
X145750000Y-97000000D02*
X146000000Y-97250000D01*
X145500000Y-97000000D02*
X145750000Y-97000000D01*
X144950000Y-97550000D02*
X145500000Y-97000000D01*
X146050000Y-94500000D02*
X146050000Y-96000000D01*
X146500000Y-97850000D02*
X146500000Y-97000000D01*
X146050000Y-96550000D02*
X146050000Y-96000000D01*
X146500000Y-97000000D02*
X146050000Y-96550000D01*
X147500000Y-102650000D02*
X147500000Y-106450000D01*
X149210000Y-106750000D02*
X150960000Y-108500000D01*
X147800000Y-106750000D02*
X149210000Y-106750000D01*
X147500000Y-106450000D02*
X147800000Y-106750000D01*
X147000000Y-102650000D02*
X147000000Y-107080000D01*
X147000000Y-107080000D02*
X148420000Y-108500000D01*
X146500000Y-102650000D02*
X146500000Y-105300000D01*
X145880000Y-105920000D02*
X145880000Y-108500000D01*
X146500000Y-105300000D02*
X145880000Y-105920000D01*
X146000000Y-102650000D02*
X146000000Y-103800000D01*
X143340000Y-106460000D02*
X143340000Y-108500000D01*
X146000000Y-103800000D02*
X143340000Y-106460000D01*
X145350000Y-101000000D02*
X144550000Y-101000000D01*
X140800000Y-102000000D02*
X140800000Y-108500000D01*
X141550000Y-101250000D02*
X140800000Y-102000000D01*
X144300000Y-101250000D02*
X141550000Y-101250000D01*
X144550000Y-101000000D02*
X144300000Y-101250000D01*
D31*
X161340000Y-105770000D02*
X166730000Y-105770000D01*
X166730000Y-105770000D02*
X166750000Y-105750000D01*
X161020000Y-90660000D02*
X166660000Y-90660000D01*
X166660000Y-90660000D02*
X166750000Y-90750000D01*
D30*
X147000000Y-97850000D02*
X147000000Y-97050000D01*
X147500000Y-96550000D02*
X147500000Y-95950000D01*
X147000000Y-97050000D02*
X147500000Y-96550000D01*
X149264998Y-103500000D02*
X149800000Y-103500000D01*
X149000000Y-102650000D02*
X149000000Y-103235002D01*
X149000000Y-103235002D02*
X149264998Y-103500000D01*
X148024999Y-97025001D02*
X148550000Y-96500000D01*
X148000000Y-97850000D02*
X148000000Y-97550000D01*
X148024999Y-97525001D02*
X148024999Y-97025001D01*
X148000000Y-97550000D02*
X148024999Y-97525001D01*
X140050000Y-101750000D02*
X139050000Y-101750000D01*
X139050000Y-101750000D02*
X138300000Y-101750000D01*
X139050000Y-103050000D02*
X139050000Y-101750000D01*
X136750000Y-101800000D02*
X136750000Y-101850000D01*
X136750000Y-101850000D02*
X136350000Y-102250000D01*
X136350000Y-102250000D02*
X135800000Y-102250000D01*
X138350000Y-101800000D02*
X136750000Y-101800000D01*
X138350000Y-101800000D02*
X138300000Y-101750000D01*
X141050000Y-100750000D02*
X140050000Y-101750000D01*
X144163590Y-100750000D02*
X141050000Y-100750000D01*
X145350000Y-100500000D02*
X144413590Y-100500000D01*
X144413590Y-100500000D02*
X144163590Y-100750000D01*
X134424999Y-97125001D02*
X136550000Y-95000000D01*
X136550000Y-95000000D02*
X136550000Y-90750000D01*
X134700000Y-102250000D02*
X134700000Y-101750000D01*
X134700000Y-101750000D02*
X134424999Y-101474999D01*
X134424999Y-101474999D02*
X134424999Y-97125001D01*
X137150000Y-104200000D02*
X139000000Y-104200000D01*
X139000000Y-104200000D02*
X139050000Y-104150000D01*
X140800000Y-100250000D02*
X140300000Y-100750000D01*
X140300000Y-100750000D02*
X137150000Y-100750000D01*
X143821412Y-100250000D02*
X140800000Y-100250000D01*
X145350000Y-100000000D02*
X144071412Y-100000000D01*
X144071412Y-100000000D02*
X143821412Y-100250000D01*
X148000000Y-103950000D02*
X148125010Y-104075010D01*
X148125010Y-104075010D02*
X148125010Y-104250000D01*
X148000000Y-102650000D02*
X148000000Y-103950000D01*
X137750000Y-99550000D02*
X137650000Y-99650000D01*
X137650000Y-99650000D02*
X136800000Y-99650000D01*
X138300000Y-99550000D02*
X137750000Y-99550000D01*
X139800000Y-99550000D02*
X138300000Y-99550000D01*
X140800000Y-99750000D02*
X140600000Y-99550000D01*
X140600000Y-99550000D02*
X139800000Y-99550000D01*
X143685002Y-99750000D02*
X140800000Y-99750000D01*
X144435002Y-99000000D02*
X144185002Y-99250000D01*
X144185002Y-99250000D02*
X143685002Y-99750000D01*
X145350000Y-99500000D02*
X144435002Y-99500000D01*
X144435002Y-99500000D02*
X144185002Y-99250000D01*
X145350000Y-99000000D02*
X144435002Y-99000000D01*
X154250000Y-97550000D02*
X154350000Y-97450000D01*
X154350000Y-97450000D02*
X154800000Y-97450000D01*
X153300000Y-97550000D02*
X154250000Y-97550000D01*
X151800000Y-97550000D02*
X153300000Y-97550000D01*
X151050000Y-97750000D02*
X151250000Y-97550000D01*
X151250000Y-97550000D02*
X151800000Y-97550000D01*
X151050000Y-98113590D02*
X151050000Y-97750000D01*
X150663590Y-98500000D02*
X151050000Y-98113590D01*
X150150000Y-98500000D02*
X150663590Y-98500000D01*
M02*
