G04 #@! TF.FileFunction,Legend,Bot*
%FSLAX46Y46*%
G04 Gerber Fmt 4.6, Leading zero omitted, Abs format (unit mm)*
G04 Created by KiCad (PCBNEW 4.0.2-stable) date Sun 06 Mar 2016 06:46:28 PM HST*
%MOMM*%
G01*
G04 APERTURE LIST*
%ADD10C,0.100000*%
%ADD11C,0.300000*%
%ADD12C,0.150000*%
G04 APERTURE END LIST*
D10*
D11*
X170457143Y-97802857D02*
X170457143Y-97002857D01*
X170457143Y-97231429D02*
X170400000Y-97117143D01*
X170342857Y-97060000D01*
X170228571Y-97002857D01*
X170114286Y-97002857D01*
X169885714Y-97002857D02*
X169428571Y-97002857D01*
X169714286Y-97802857D02*
X169714286Y-96774286D01*
X169657143Y-96660000D01*
X169542857Y-96602857D01*
X169428571Y-96602857D01*
X168171429Y-97745714D02*
X168057143Y-97802857D01*
X167828571Y-97802857D01*
X167714286Y-97745714D01*
X167657143Y-97631429D01*
X167657143Y-97574286D01*
X167714286Y-97460000D01*
X167828571Y-97402857D01*
X168000000Y-97402857D01*
X168114286Y-97345714D01*
X168171429Y-97231429D01*
X168171429Y-97174286D01*
X168114286Y-97060000D01*
X168000000Y-97002857D01*
X167828571Y-97002857D01*
X167714286Y-97060000D01*
X167257142Y-97002857D02*
X166971428Y-97802857D01*
X166685714Y-97002857D02*
X166971428Y-97802857D01*
X167085714Y-98088571D01*
X167142857Y-98145714D01*
X167257142Y-98202857D01*
X166228571Y-97002857D02*
X166228571Y-97802857D01*
X166228571Y-97117143D02*
X166171428Y-97060000D01*
X166057142Y-97002857D01*
X165885714Y-97002857D01*
X165771428Y-97060000D01*
X165714285Y-97174286D01*
X165714285Y-97802857D01*
X165314285Y-97002857D02*
X164857142Y-97002857D01*
X165142857Y-96602857D02*
X165142857Y-97631429D01*
X165085714Y-97745714D01*
X164971428Y-97802857D01*
X164857142Y-97802857D01*
X164457143Y-97802857D02*
X164457143Y-96602857D01*
X163942857Y-97802857D02*
X163942857Y-97174286D01*
X164000000Y-97060000D01*
X164114286Y-97002857D01*
X164285714Y-97002857D01*
X164400000Y-97060000D01*
X164457143Y-97117143D01*
X162457143Y-97802857D02*
X162457143Y-97002857D01*
X162457143Y-97231429D02*
X162400000Y-97117143D01*
X162342857Y-97060000D01*
X162228571Y-97002857D01*
X162114286Y-97002857D01*
X161485714Y-96602857D02*
X161371429Y-96602857D01*
X161257143Y-96660000D01*
X161200000Y-96717143D01*
X161142857Y-96831429D01*
X161085714Y-97060000D01*
X161085714Y-97345714D01*
X161142857Y-97574286D01*
X161200000Y-97688571D01*
X161257143Y-97745714D01*
X161371429Y-97802857D01*
X161485714Y-97802857D01*
X161600000Y-97745714D01*
X161657143Y-97688571D01*
X161714286Y-97574286D01*
X161771429Y-97345714D01*
X161771429Y-97060000D01*
X161714286Y-96831429D01*
X161657143Y-96717143D01*
X161600000Y-96660000D01*
X161485714Y-96602857D01*
X169285714Y-98697143D02*
X169228571Y-98640000D01*
X169114285Y-98582857D01*
X168828571Y-98582857D01*
X168714285Y-98640000D01*
X168657142Y-98697143D01*
X168599999Y-98811429D01*
X168599999Y-98925714D01*
X168657142Y-99097143D01*
X169342856Y-99782857D01*
X168599999Y-99782857D01*
X167857142Y-98582857D02*
X167742857Y-98582857D01*
X167628571Y-98640000D01*
X167571428Y-98697143D01*
X167514285Y-98811429D01*
X167457142Y-99040000D01*
X167457142Y-99325714D01*
X167514285Y-99554286D01*
X167571428Y-99668571D01*
X167628571Y-99725714D01*
X167742857Y-99782857D01*
X167857142Y-99782857D01*
X167971428Y-99725714D01*
X168028571Y-99668571D01*
X168085714Y-99554286D01*
X168142857Y-99325714D01*
X168142857Y-99040000D01*
X168085714Y-98811429D01*
X168028571Y-98697143D01*
X167971428Y-98640000D01*
X167857142Y-98582857D01*
X166314285Y-99782857D02*
X167000000Y-99782857D01*
X166657142Y-99782857D02*
X166657142Y-98582857D01*
X166771428Y-98754286D01*
X166885714Y-98868571D01*
X167000000Y-98925714D01*
X165285714Y-98582857D02*
X165514285Y-98582857D01*
X165628571Y-98640000D01*
X165685714Y-98697143D01*
X165800000Y-98868571D01*
X165857143Y-99097143D01*
X165857143Y-99554286D01*
X165800000Y-99668571D01*
X165742857Y-99725714D01*
X165628571Y-99782857D01*
X165400000Y-99782857D01*
X165285714Y-99725714D01*
X165228571Y-99668571D01*
X165171428Y-99554286D01*
X165171428Y-99268571D01*
X165228571Y-99154286D01*
X165285714Y-99097143D01*
X165400000Y-99040000D01*
X165628571Y-99040000D01*
X165742857Y-99097143D01*
X165800000Y-99154286D01*
X165857143Y-99268571D01*
X164657143Y-99668571D02*
X164600000Y-99725714D01*
X164657143Y-99782857D01*
X164714286Y-99725714D01*
X164657143Y-99668571D01*
X164657143Y-99782857D01*
X163857142Y-98582857D02*
X163742857Y-98582857D01*
X163628571Y-98640000D01*
X163571428Y-98697143D01*
X163514285Y-98811429D01*
X163457142Y-99040000D01*
X163457142Y-99325714D01*
X163514285Y-99554286D01*
X163571428Y-99668571D01*
X163628571Y-99725714D01*
X163742857Y-99782857D01*
X163857142Y-99782857D01*
X163971428Y-99725714D01*
X164028571Y-99668571D01*
X164085714Y-99554286D01*
X164142857Y-99325714D01*
X164142857Y-99040000D01*
X164085714Y-98811429D01*
X164028571Y-98697143D01*
X163971428Y-98640000D01*
X163857142Y-98582857D01*
X163057142Y-98582857D02*
X162314285Y-98582857D01*
X162714285Y-99040000D01*
X162542857Y-99040000D01*
X162428571Y-99097143D01*
X162371428Y-99154286D01*
X162314285Y-99268571D01*
X162314285Y-99554286D01*
X162371428Y-99668571D01*
X162428571Y-99725714D01*
X162542857Y-99782857D01*
X162885714Y-99782857D01*
X163000000Y-99725714D01*
X163057142Y-99668571D01*
D12*
X144250000Y-103275000D02*
X144750000Y-103275000D01*
X144750000Y-104225000D02*
X144250000Y-104225000D01*
X152525000Y-101050000D02*
X152525000Y-101550000D01*
X151575000Y-101550000D02*
X151575000Y-101050000D01*
X148025000Y-95500000D02*
X148025000Y-96000000D01*
X147075000Y-96000000D02*
X147075000Y-95500000D01*
X151550000Y-103725000D02*
X151050000Y-103725000D01*
X151050000Y-102775000D02*
X151550000Y-102775000D01*
X146075000Y-100450000D02*
X146075000Y-100950000D01*
X145025000Y-100950000D02*
X145025000Y-100450000D01*
X142250000Y-104275000D02*
X141750000Y-104275000D01*
X141750000Y-103225000D02*
X142250000Y-103225000D01*
X154025000Y-101050000D02*
X154025000Y-101550000D01*
X153075000Y-101550000D02*
X153075000Y-101050000D01*
X150100000Y-106975000D02*
X149600000Y-106975000D01*
X149600000Y-106025000D02*
X150100000Y-106025000D01*
X150000000Y-105725000D02*
X149500000Y-105725000D01*
X149500000Y-104775000D02*
X150000000Y-104775000D01*
X147000000Y-106025000D02*
X147500000Y-106025000D01*
X147500000Y-106975000D02*
X147000000Y-106975000D01*
X147000000Y-104775000D02*
X147500000Y-104775000D01*
X147500000Y-105725000D02*
X147000000Y-105725000D01*
X144600000Y-106525000D02*
X144100000Y-106525000D01*
X144100000Y-105475000D02*
X144600000Y-105475000D01*
X144950000Y-102750000D02*
X144983334Y-102783333D01*
X145083334Y-102816667D01*
X145150000Y-102816667D01*
X145250000Y-102783333D01*
X145316667Y-102716667D01*
X145350000Y-102650000D01*
X145383334Y-102516667D01*
X145383334Y-102416667D01*
X145350000Y-102283333D01*
X145316667Y-102216667D01*
X145250000Y-102150000D01*
X145150000Y-102116667D01*
X145083334Y-102116667D01*
X144983334Y-102150000D01*
X144950000Y-102183333D01*
X144683334Y-102183333D02*
X144650000Y-102150000D01*
X144583334Y-102116667D01*
X144416667Y-102116667D01*
X144350000Y-102150000D01*
X144316667Y-102183333D01*
X144283334Y-102250000D01*
X144283334Y-102316667D01*
X144316667Y-102416667D01*
X144716667Y-102816667D01*
X144283334Y-102816667D01*
X143616667Y-102816667D02*
X144016667Y-102816667D01*
X143816667Y-102816667D02*
X143816667Y-102116667D01*
X143883333Y-102216667D01*
X143950000Y-102283333D01*
X144016667Y-102316667D01*
X152300000Y-98550000D02*
X152333333Y-98516666D01*
X152366667Y-98416666D01*
X152366667Y-98350000D01*
X152333333Y-98250000D01*
X152266667Y-98183333D01*
X152200000Y-98150000D01*
X152066667Y-98116666D01*
X151966667Y-98116666D01*
X151833333Y-98150000D01*
X151766667Y-98183333D01*
X151700000Y-98250000D01*
X151666667Y-98350000D01*
X151666667Y-98416666D01*
X151700000Y-98516666D01*
X151733333Y-98550000D01*
X152366667Y-99216666D02*
X152366667Y-98816666D01*
X152366667Y-99016666D02*
X151666667Y-99016666D01*
X151766667Y-98950000D01*
X151833333Y-98883333D01*
X151866667Y-98816666D01*
X151666667Y-99450000D02*
X151666667Y-99883333D01*
X151933333Y-99650000D01*
X151933333Y-99750000D01*
X151966667Y-99816667D01*
X152000000Y-99850000D01*
X152066667Y-99883333D01*
X152233333Y-99883333D01*
X152300000Y-99850000D01*
X152333333Y-99816667D01*
X152366667Y-99750000D01*
X152366667Y-99550000D01*
X152333333Y-99483333D01*
X152300000Y-99450000D01*
X146300000Y-95300000D02*
X146333333Y-95266666D01*
X146366667Y-95166666D01*
X146366667Y-95100000D01*
X146333333Y-95000000D01*
X146266667Y-94933333D01*
X146200000Y-94900000D01*
X146066667Y-94866666D01*
X145966667Y-94866666D01*
X145833333Y-94900000D01*
X145766667Y-94933333D01*
X145700000Y-95000000D01*
X145666667Y-95100000D01*
X145666667Y-95166666D01*
X145700000Y-95266666D01*
X145733333Y-95300000D01*
X145733333Y-95566666D02*
X145700000Y-95600000D01*
X145666667Y-95666666D01*
X145666667Y-95833333D01*
X145700000Y-95900000D01*
X145733333Y-95933333D01*
X145800000Y-95966666D01*
X145866667Y-95966666D01*
X145966667Y-95933333D01*
X146366667Y-95533333D01*
X146366667Y-95966666D01*
X145666667Y-96400000D02*
X145666667Y-96466667D01*
X145700000Y-96533333D01*
X145733333Y-96566667D01*
X145800000Y-96600000D01*
X145933333Y-96633333D01*
X146100000Y-96633333D01*
X146233333Y-96600000D01*
X146300000Y-96566667D01*
X146333333Y-96533333D01*
X146366667Y-96466667D01*
X146366667Y-96400000D01*
X146333333Y-96333333D01*
X146300000Y-96300000D01*
X146233333Y-96266667D01*
X146100000Y-96233333D01*
X145933333Y-96233333D01*
X145800000Y-96266667D01*
X145733333Y-96300000D01*
X145700000Y-96333333D01*
X145666667Y-96400000D01*
X154100000Y-103650000D02*
X154133334Y-103683333D01*
X154233334Y-103716667D01*
X154300000Y-103716667D01*
X154400000Y-103683333D01*
X154466667Y-103616667D01*
X154500000Y-103550000D01*
X154533334Y-103416667D01*
X154533334Y-103316667D01*
X154500000Y-103183333D01*
X154466667Y-103116667D01*
X154400000Y-103050000D01*
X154300000Y-103016667D01*
X154233334Y-103016667D01*
X154133334Y-103050000D01*
X154100000Y-103083333D01*
X153833334Y-103083333D02*
X153800000Y-103050000D01*
X153733334Y-103016667D01*
X153566667Y-103016667D01*
X153500000Y-103050000D01*
X153466667Y-103083333D01*
X153433334Y-103150000D01*
X153433334Y-103216667D01*
X153466667Y-103316667D01*
X153866667Y-103716667D01*
X153433334Y-103716667D01*
X153166667Y-103083333D02*
X153133333Y-103050000D01*
X153066667Y-103016667D01*
X152900000Y-103016667D01*
X152833333Y-103050000D01*
X152800000Y-103083333D01*
X152766667Y-103150000D01*
X152766667Y-103216667D01*
X152800000Y-103316667D01*
X153200000Y-103716667D01*
X152766667Y-103716667D01*
X144566667Y-100583334D02*
X144233333Y-100350000D01*
X144566667Y-100183334D02*
X143866667Y-100183334D01*
X143866667Y-100450000D01*
X143900000Y-100516667D01*
X143933333Y-100550000D01*
X144000000Y-100583334D01*
X144100000Y-100583334D01*
X144166667Y-100550000D01*
X144200000Y-100516667D01*
X144233333Y-100450000D01*
X144233333Y-100183334D01*
X143933333Y-100850000D02*
X143900000Y-100883334D01*
X143866667Y-100950000D01*
X143866667Y-101116667D01*
X143900000Y-101183334D01*
X143933333Y-101216667D01*
X144000000Y-101250000D01*
X144066667Y-101250000D01*
X144166667Y-101216667D01*
X144566667Y-100816667D01*
X144566667Y-101250000D01*
X140366666Y-104116667D02*
X140600000Y-103783333D01*
X140766666Y-104116667D02*
X140766666Y-103416667D01*
X140500000Y-103416667D01*
X140433333Y-103450000D01*
X140400000Y-103483333D01*
X140366666Y-103550000D01*
X140366666Y-103650000D01*
X140400000Y-103716667D01*
X140433333Y-103750000D01*
X140500000Y-103783333D01*
X140766666Y-103783333D01*
X140133333Y-103416667D02*
X139700000Y-103416667D01*
X139933333Y-103683333D01*
X139833333Y-103683333D01*
X139766666Y-103716667D01*
X139733333Y-103750000D01*
X139700000Y-103816667D01*
X139700000Y-103983333D01*
X139733333Y-104050000D01*
X139766666Y-104083333D01*
X139833333Y-104116667D01*
X140033333Y-104116667D01*
X140100000Y-104083333D01*
X140133333Y-104050000D01*
X153800000Y-98550000D02*
X153833333Y-98516666D01*
X153866667Y-98416666D01*
X153866667Y-98350000D01*
X153833333Y-98250000D01*
X153766667Y-98183333D01*
X153700000Y-98150000D01*
X153566667Y-98116666D01*
X153466667Y-98116666D01*
X153333333Y-98150000D01*
X153266667Y-98183333D01*
X153200000Y-98250000D01*
X153166667Y-98350000D01*
X153166667Y-98416666D01*
X153200000Y-98516666D01*
X153233333Y-98550000D01*
X153233333Y-98816666D02*
X153200000Y-98850000D01*
X153166667Y-98916666D01*
X153166667Y-99083333D01*
X153200000Y-99150000D01*
X153233333Y-99183333D01*
X153300000Y-99216666D01*
X153366667Y-99216666D01*
X153466667Y-99183333D01*
X153866667Y-98783333D01*
X153866667Y-99216666D01*
X153166667Y-99450000D02*
X153166667Y-99883333D01*
X153433333Y-99650000D01*
X153433333Y-99750000D01*
X153466667Y-99816667D01*
X153500000Y-99850000D01*
X153566667Y-99883333D01*
X153733333Y-99883333D01*
X153800000Y-99850000D01*
X153833333Y-99816667D01*
X153866667Y-99750000D01*
X153866667Y-99550000D01*
X153833333Y-99483333D01*
X153800000Y-99450000D01*
X153200000Y-106750000D02*
X153233334Y-106783333D01*
X153333334Y-106816667D01*
X153400000Y-106816667D01*
X153500000Y-106783333D01*
X153566667Y-106716667D01*
X153600000Y-106650000D01*
X153633334Y-106516667D01*
X153633334Y-106416667D01*
X153600000Y-106283333D01*
X153566667Y-106216667D01*
X153500000Y-106150000D01*
X153400000Y-106116667D01*
X153333334Y-106116667D01*
X153233334Y-106150000D01*
X153200000Y-106183333D01*
X152933334Y-106183333D02*
X152900000Y-106150000D01*
X152833334Y-106116667D01*
X152666667Y-106116667D01*
X152600000Y-106150000D01*
X152566667Y-106183333D01*
X152533334Y-106250000D01*
X152533334Y-106316667D01*
X152566667Y-106416667D01*
X152966667Y-106816667D01*
X152533334Y-106816667D01*
X151933333Y-106350000D02*
X151933333Y-106816667D01*
X152100000Y-106083333D02*
X152266667Y-106583333D01*
X151833333Y-106583333D01*
X153250000Y-105500000D02*
X153283334Y-105533333D01*
X153383334Y-105566667D01*
X153450000Y-105566667D01*
X153550000Y-105533333D01*
X153616667Y-105466667D01*
X153650000Y-105400000D01*
X153683334Y-105266667D01*
X153683334Y-105166667D01*
X153650000Y-105033333D01*
X153616667Y-104966667D01*
X153550000Y-104900000D01*
X153450000Y-104866667D01*
X153383334Y-104866667D01*
X153283334Y-104900000D01*
X153250000Y-104933333D01*
X152983334Y-104933333D02*
X152950000Y-104900000D01*
X152883334Y-104866667D01*
X152716667Y-104866667D01*
X152650000Y-104900000D01*
X152616667Y-104933333D01*
X152583334Y-105000000D01*
X152583334Y-105066667D01*
X152616667Y-105166667D01*
X153016667Y-105566667D01*
X152583334Y-105566667D01*
X151950000Y-104866667D02*
X152283333Y-104866667D01*
X152316667Y-105200000D01*
X152283333Y-105166667D01*
X152216667Y-105133333D01*
X152050000Y-105133333D01*
X151983333Y-105166667D01*
X151950000Y-105200000D01*
X151916667Y-105266667D01*
X151916667Y-105433333D01*
X151950000Y-105500000D01*
X151983333Y-105533333D01*
X152050000Y-105566667D01*
X152216667Y-105566667D01*
X152283333Y-105533333D01*
X152316667Y-105500000D01*
X146050000Y-105950000D02*
X146083333Y-105916666D01*
X146116667Y-105816666D01*
X146116667Y-105750000D01*
X146083333Y-105650000D01*
X146016667Y-105583333D01*
X145950000Y-105550000D01*
X145816667Y-105516666D01*
X145716667Y-105516666D01*
X145583333Y-105550000D01*
X145516667Y-105583333D01*
X145450000Y-105650000D01*
X145416667Y-105750000D01*
X145416667Y-105816666D01*
X145450000Y-105916666D01*
X145483333Y-105950000D01*
X145416667Y-106183333D02*
X145416667Y-106616666D01*
X145683333Y-106383333D01*
X145683333Y-106483333D01*
X145716667Y-106550000D01*
X145750000Y-106583333D01*
X145816667Y-106616666D01*
X145983333Y-106616666D01*
X146050000Y-106583333D01*
X146083333Y-106550000D01*
X146116667Y-106483333D01*
X146116667Y-106283333D01*
X146083333Y-106216666D01*
X146050000Y-106183333D01*
X146116667Y-107283333D02*
X146116667Y-106883333D01*
X146116667Y-107083333D02*
X145416667Y-107083333D01*
X145516667Y-107016667D01*
X145583333Y-106950000D01*
X145616667Y-106883333D01*
X147250000Y-104450000D02*
X147283334Y-104483333D01*
X147383334Y-104516667D01*
X147450000Y-104516667D01*
X147550000Y-104483333D01*
X147616667Y-104416667D01*
X147650000Y-104350000D01*
X147683334Y-104216667D01*
X147683334Y-104116667D01*
X147650000Y-103983333D01*
X147616667Y-103916667D01*
X147550000Y-103850000D01*
X147450000Y-103816667D01*
X147383334Y-103816667D01*
X147283334Y-103850000D01*
X147250000Y-103883333D01*
X147016667Y-103816667D02*
X146583334Y-103816667D01*
X146816667Y-104083333D01*
X146716667Y-104083333D01*
X146650000Y-104116667D01*
X146616667Y-104150000D01*
X146583334Y-104216667D01*
X146583334Y-104383333D01*
X146616667Y-104450000D01*
X146650000Y-104483333D01*
X146716667Y-104516667D01*
X146916667Y-104516667D01*
X146983334Y-104483333D01*
X147016667Y-104450000D01*
X146316667Y-103883333D02*
X146283333Y-103850000D01*
X146216667Y-103816667D01*
X146050000Y-103816667D01*
X145983333Y-103850000D01*
X145950000Y-103883333D01*
X145916667Y-103950000D01*
X145916667Y-104016667D01*
X145950000Y-104116667D01*
X146350000Y-104516667D01*
X145916667Y-104516667D01*
X142766667Y-106316667D02*
X143100000Y-106316667D01*
X143100000Y-105616667D01*
X142200000Y-105616667D02*
X142533333Y-105616667D01*
X142566667Y-105950000D01*
X142533333Y-105916667D01*
X142466667Y-105883333D01*
X142300000Y-105883333D01*
X142233333Y-105916667D01*
X142200000Y-105950000D01*
X142166667Y-106016667D01*
X142166667Y-106183333D01*
X142200000Y-106250000D01*
X142233333Y-106283333D01*
X142300000Y-106316667D01*
X142466667Y-106316667D01*
X142533333Y-106283333D01*
X142566667Y-106250000D01*
M02*
