M48
;DRILL file {KiCad 4.0.2-stable} date Sun 06 Mar 2016 06:46:29 PM HST
;FORMAT={-:-/ absolute / inch / decimal}
FMAT,2
INCH,TZ
T1C0.016
T2C0.040
T3C0.059
%
G90
G05
M72
T1
X5.311Y-4.2815
X5.3169Y-3.9665
X5.3858Y-3.8484
X5.3878Y-4.2362
X5.4449Y-3.8386
X5.4508Y-4.1654
X5.5039Y-3.8386
X5.563Y-3.7598
X5.563Y-3.8976
X5.5728Y-3.5187
X5.5827Y-4.124
X5.5906Y-4.0256
X5.6122Y-3.5728
X5.622Y-3.7598
X5.6614Y-3.5728
X5.6686Y-4.1312
X5.6713Y-3.7205
X5.6713Y-3.7795
X5.6909Y-4.2224
X5.733Y-4.1365
X5.7697Y-3.8976
X5.7697Y-3.9469
X5.7697Y-3.9961
X5.8026Y-3.4843
X5.8026Y-3.5311
X5.8091Y-3.6122
X5.8091Y-3.7106
X5.8169Y-3.9469
X5.8189Y-3.8976
X5.8189Y-3.9961
X5.8317Y-4.1043
X5.8352Y-3.4843
X5.8352Y-3.5311
X5.8484Y-3.7992
X5.8661Y-3.8976
X5.8669Y-4.0974
X5.8681Y-3.9469
X5.8681Y-3.9961
X5.8937Y-3.6654
X5.8976Y-4.0748
X5.9193Y-3.7972
X5.9469Y-4.0157
X5.9469Y-4.1437
X5.9567Y-4.1929
X5.9587Y-4.1043
X5.9665Y-3.7008
X5.9764Y-3.622
X5.9862Y-3.5236
X5.9961Y-3.7598
X6.0354Y-3.7697
X6.0728Y-4.1516
X6.0827Y-4.0177
X6.0945Y-3.7697
X6.1043Y-3.9764
X6.1634Y-3.8583
X6.2717Y-3.4547
X6.3701Y-3.8681
X6.3799Y-3.9567
T2
X5.5433Y-4.2717
X5.6433Y-4.2717
X5.7433Y-4.2717
X5.8433Y-4.2717
X5.9433Y-4.2717
X6.0433Y-4.2717
X6.065Y-3.4941
X6.065Y-3.5941
T3
X5.276Y-3.4728
X5.276Y-3.6728
X5.376Y-3.5728
X5.476Y-3.4728
X5.476Y-3.6728
X6.465Y-3.4728
X6.465Y-3.6728
X6.465Y-4.0634
X6.465Y-4.2634
X6.565Y-3.5728
X6.565Y-4.1634
X6.665Y-3.4728
X6.665Y-3.6728
X6.665Y-4.0634
X6.665Y-4.2634
T0
M30
