G04 #@! TF.FileFunction,Legend,Bot*
%FSLAX46Y46*%
G04 Gerber Fmt 4.6, Leading zero omitted, Abs format (unit mm)*
G04 Created by KiCad (PCBNEW 4.0.2-stable) date Tue Mar  8 23:23:17 2016*
%MOMM*%
G01*
G04 APERTURE LIST*
%ADD10C,0.100000*%
%ADD11C,0.300000*%
%ADD12C,0.150000*%
G04 APERTURE END LIST*
D10*
D11*
X157152857Y-87942857D02*
X156352857Y-87942857D01*
X156581429Y-87942857D02*
X156467143Y-88000000D01*
X156410000Y-88057143D01*
X156352857Y-88171429D01*
X156352857Y-88285714D01*
X156352857Y-88514286D02*
X156352857Y-88971429D01*
X157152857Y-88685714D02*
X156124286Y-88685714D01*
X156010000Y-88742857D01*
X155952857Y-88857143D01*
X155952857Y-88971429D01*
X157095714Y-90228571D02*
X157152857Y-90342857D01*
X157152857Y-90571429D01*
X157095714Y-90685714D01*
X156981429Y-90742857D01*
X156924286Y-90742857D01*
X156810000Y-90685714D01*
X156752857Y-90571429D01*
X156752857Y-90400000D01*
X156695714Y-90285714D01*
X156581429Y-90228571D01*
X156524286Y-90228571D01*
X156410000Y-90285714D01*
X156352857Y-90400000D01*
X156352857Y-90571429D01*
X156410000Y-90685714D01*
X156352857Y-91142858D02*
X157152857Y-91428572D01*
X156352857Y-91714286D02*
X157152857Y-91428572D01*
X157438571Y-91314286D01*
X157495714Y-91257143D01*
X157552857Y-91142858D01*
X156352857Y-92171429D02*
X157152857Y-92171429D01*
X156467143Y-92171429D02*
X156410000Y-92228572D01*
X156352857Y-92342858D01*
X156352857Y-92514286D01*
X156410000Y-92628572D01*
X156524286Y-92685715D01*
X157152857Y-92685715D01*
X156352857Y-93085715D02*
X156352857Y-93542858D01*
X155952857Y-93257143D02*
X156981429Y-93257143D01*
X157095714Y-93314286D01*
X157152857Y-93428572D01*
X157152857Y-93542858D01*
X157152857Y-93942857D02*
X155952857Y-93942857D01*
X157152857Y-94457143D02*
X156524286Y-94457143D01*
X156410000Y-94400000D01*
X156352857Y-94285714D01*
X156352857Y-94114286D01*
X156410000Y-94000000D01*
X156467143Y-93942857D01*
X157152857Y-95942857D02*
X156352857Y-95942857D01*
X156581429Y-95942857D02*
X156467143Y-96000000D01*
X156410000Y-96057143D01*
X156352857Y-96171429D01*
X156352857Y-96285714D01*
X155952857Y-96914286D02*
X155952857Y-97028571D01*
X156010000Y-97142857D01*
X156067143Y-97200000D01*
X156181429Y-97257143D01*
X156410000Y-97314286D01*
X156695714Y-97314286D01*
X156924286Y-97257143D01*
X157038571Y-97200000D01*
X157095714Y-97142857D01*
X157152857Y-97028571D01*
X157152857Y-96914286D01*
X157095714Y-96800000D01*
X157038571Y-96742857D01*
X156924286Y-96685714D01*
X156695714Y-96628571D01*
X156410000Y-96628571D01*
X156181429Y-96685714D01*
X156067143Y-96742857D01*
X156010000Y-96800000D01*
X155952857Y-96914286D01*
X158047143Y-89114286D02*
X157990000Y-89171429D01*
X157932857Y-89285715D01*
X157932857Y-89571429D01*
X157990000Y-89685715D01*
X158047143Y-89742858D01*
X158161429Y-89800001D01*
X158275714Y-89800001D01*
X158447143Y-89742858D01*
X159132857Y-89057144D01*
X159132857Y-89800001D01*
X157932857Y-90542858D02*
X157932857Y-90657143D01*
X157990000Y-90771429D01*
X158047143Y-90828572D01*
X158161429Y-90885715D01*
X158390000Y-90942858D01*
X158675714Y-90942858D01*
X158904286Y-90885715D01*
X159018571Y-90828572D01*
X159075714Y-90771429D01*
X159132857Y-90657143D01*
X159132857Y-90542858D01*
X159075714Y-90428572D01*
X159018571Y-90371429D01*
X158904286Y-90314286D01*
X158675714Y-90257143D01*
X158390000Y-90257143D01*
X158161429Y-90314286D01*
X158047143Y-90371429D01*
X157990000Y-90428572D01*
X157932857Y-90542858D01*
X159132857Y-92085715D02*
X159132857Y-91400000D01*
X159132857Y-91742858D02*
X157932857Y-91742858D01*
X158104286Y-91628572D01*
X158218571Y-91514286D01*
X158275714Y-91400000D01*
X157932857Y-93114286D02*
X157932857Y-92885715D01*
X157990000Y-92771429D01*
X158047143Y-92714286D01*
X158218571Y-92600000D01*
X158447143Y-92542857D01*
X158904286Y-92542857D01*
X159018571Y-92600000D01*
X159075714Y-92657143D01*
X159132857Y-92771429D01*
X159132857Y-93000000D01*
X159075714Y-93114286D01*
X159018571Y-93171429D01*
X158904286Y-93228572D01*
X158618571Y-93228572D01*
X158504286Y-93171429D01*
X158447143Y-93114286D01*
X158390000Y-93000000D01*
X158390000Y-92771429D01*
X158447143Y-92657143D01*
X158504286Y-92600000D01*
X158618571Y-92542857D01*
X159018571Y-93742857D02*
X159075714Y-93800000D01*
X159132857Y-93742857D01*
X159075714Y-93685714D01*
X159018571Y-93742857D01*
X159132857Y-93742857D01*
X157932857Y-94542858D02*
X157932857Y-94657143D01*
X157990000Y-94771429D01*
X158047143Y-94828572D01*
X158161429Y-94885715D01*
X158390000Y-94942858D01*
X158675714Y-94942858D01*
X158904286Y-94885715D01*
X159018571Y-94828572D01*
X159075714Y-94771429D01*
X159132857Y-94657143D01*
X159132857Y-94542858D01*
X159075714Y-94428572D01*
X159018571Y-94371429D01*
X158904286Y-94314286D01*
X158675714Y-94257143D01*
X158390000Y-94257143D01*
X158161429Y-94314286D01*
X158047143Y-94371429D01*
X157990000Y-94428572D01*
X157932857Y-94542858D01*
X157932857Y-95342858D02*
X157932857Y-96085715D01*
X158390000Y-95685715D01*
X158390000Y-95857143D01*
X158447143Y-95971429D01*
X158504286Y-96028572D01*
X158618571Y-96085715D01*
X158904286Y-96085715D01*
X159018571Y-96028572D01*
X159075714Y-95971429D01*
X159132857Y-95857143D01*
X159132857Y-95514286D01*
X159075714Y-95400000D01*
X159018571Y-95342858D01*
D12*
X144250000Y-103275000D02*
X144750000Y-103275000D01*
X144750000Y-104225000D02*
X144250000Y-104225000D01*
X152525000Y-101050000D02*
X152525000Y-101550000D01*
X151575000Y-101550000D02*
X151575000Y-101050000D01*
X148025000Y-95500000D02*
X148025000Y-96000000D01*
X147075000Y-96000000D02*
X147075000Y-95500000D01*
X151550000Y-103725000D02*
X151050000Y-103725000D01*
X151050000Y-102775000D02*
X151550000Y-102775000D01*
X146075000Y-100450000D02*
X146075000Y-100950000D01*
X145025000Y-100950000D02*
X145025000Y-100450000D01*
X142250000Y-104275000D02*
X141750000Y-104275000D01*
X141750000Y-103225000D02*
X142250000Y-103225000D01*
X154025000Y-101050000D02*
X154025000Y-101550000D01*
X153075000Y-101550000D02*
X153075000Y-101050000D01*
X150100000Y-106975000D02*
X149600000Y-106975000D01*
X149600000Y-106025000D02*
X150100000Y-106025000D01*
X150000000Y-105725000D02*
X149500000Y-105725000D01*
X149500000Y-104775000D02*
X150000000Y-104775000D01*
X147000000Y-106025000D02*
X147500000Y-106025000D01*
X147500000Y-106975000D02*
X147000000Y-106975000D01*
X147000000Y-104775000D02*
X147500000Y-104775000D01*
X147500000Y-105725000D02*
X147000000Y-105725000D01*
X144600000Y-106525000D02*
X144100000Y-106525000D01*
X144100000Y-105475000D02*
X144600000Y-105475000D01*
X139275000Y-106250000D02*
X139275000Y-105750000D01*
X140325000Y-105750000D02*
X140325000Y-106250000D01*
X144950000Y-102750000D02*
X144983334Y-102783333D01*
X145083334Y-102816667D01*
X145150000Y-102816667D01*
X145250000Y-102783333D01*
X145316667Y-102716667D01*
X145350000Y-102650000D01*
X145383334Y-102516667D01*
X145383334Y-102416667D01*
X145350000Y-102283333D01*
X145316667Y-102216667D01*
X145250000Y-102150000D01*
X145150000Y-102116667D01*
X145083334Y-102116667D01*
X144983334Y-102150000D01*
X144950000Y-102183333D01*
X144683334Y-102183333D02*
X144650000Y-102150000D01*
X144583334Y-102116667D01*
X144416667Y-102116667D01*
X144350000Y-102150000D01*
X144316667Y-102183333D01*
X144283334Y-102250000D01*
X144283334Y-102316667D01*
X144316667Y-102416667D01*
X144716667Y-102816667D01*
X144283334Y-102816667D01*
X143616667Y-102816667D02*
X144016667Y-102816667D01*
X143816667Y-102816667D02*
X143816667Y-102116667D01*
X143883333Y-102216667D01*
X143950000Y-102283333D01*
X144016667Y-102316667D01*
X152300000Y-98550000D02*
X152333333Y-98516666D01*
X152366667Y-98416666D01*
X152366667Y-98350000D01*
X152333333Y-98250000D01*
X152266667Y-98183333D01*
X152200000Y-98150000D01*
X152066667Y-98116666D01*
X151966667Y-98116666D01*
X151833333Y-98150000D01*
X151766667Y-98183333D01*
X151700000Y-98250000D01*
X151666667Y-98350000D01*
X151666667Y-98416666D01*
X151700000Y-98516666D01*
X151733333Y-98550000D01*
X152366667Y-99216666D02*
X152366667Y-98816666D01*
X152366667Y-99016666D02*
X151666667Y-99016666D01*
X151766667Y-98950000D01*
X151833333Y-98883333D01*
X151866667Y-98816666D01*
X151666667Y-99450000D02*
X151666667Y-99883333D01*
X151933333Y-99650000D01*
X151933333Y-99750000D01*
X151966667Y-99816667D01*
X152000000Y-99850000D01*
X152066667Y-99883333D01*
X152233333Y-99883333D01*
X152300000Y-99850000D01*
X152333333Y-99816667D01*
X152366667Y-99750000D01*
X152366667Y-99550000D01*
X152333333Y-99483333D01*
X152300000Y-99450000D01*
X146300000Y-95300000D02*
X146333333Y-95266666D01*
X146366667Y-95166666D01*
X146366667Y-95100000D01*
X146333333Y-95000000D01*
X146266667Y-94933333D01*
X146200000Y-94900000D01*
X146066667Y-94866666D01*
X145966667Y-94866666D01*
X145833333Y-94900000D01*
X145766667Y-94933333D01*
X145700000Y-95000000D01*
X145666667Y-95100000D01*
X145666667Y-95166666D01*
X145700000Y-95266666D01*
X145733333Y-95300000D01*
X145733333Y-95566666D02*
X145700000Y-95600000D01*
X145666667Y-95666666D01*
X145666667Y-95833333D01*
X145700000Y-95900000D01*
X145733333Y-95933333D01*
X145800000Y-95966666D01*
X145866667Y-95966666D01*
X145966667Y-95933333D01*
X146366667Y-95533333D01*
X146366667Y-95966666D01*
X145666667Y-96400000D02*
X145666667Y-96466667D01*
X145700000Y-96533333D01*
X145733333Y-96566667D01*
X145800000Y-96600000D01*
X145933333Y-96633333D01*
X146100000Y-96633333D01*
X146233333Y-96600000D01*
X146300000Y-96566667D01*
X146333333Y-96533333D01*
X146366667Y-96466667D01*
X146366667Y-96400000D01*
X146333333Y-96333333D01*
X146300000Y-96300000D01*
X146233333Y-96266667D01*
X146100000Y-96233333D01*
X145933333Y-96233333D01*
X145800000Y-96266667D01*
X145733333Y-96300000D01*
X145700000Y-96333333D01*
X145666667Y-96400000D01*
X154100000Y-103650000D02*
X154133334Y-103683333D01*
X154233334Y-103716667D01*
X154300000Y-103716667D01*
X154400000Y-103683333D01*
X154466667Y-103616667D01*
X154500000Y-103550000D01*
X154533334Y-103416667D01*
X154533334Y-103316667D01*
X154500000Y-103183333D01*
X154466667Y-103116667D01*
X154400000Y-103050000D01*
X154300000Y-103016667D01*
X154233334Y-103016667D01*
X154133334Y-103050000D01*
X154100000Y-103083333D01*
X153833334Y-103083333D02*
X153800000Y-103050000D01*
X153733334Y-103016667D01*
X153566667Y-103016667D01*
X153500000Y-103050000D01*
X153466667Y-103083333D01*
X153433334Y-103150000D01*
X153433334Y-103216667D01*
X153466667Y-103316667D01*
X153866667Y-103716667D01*
X153433334Y-103716667D01*
X153166667Y-103083333D02*
X153133333Y-103050000D01*
X153066667Y-103016667D01*
X152900000Y-103016667D01*
X152833333Y-103050000D01*
X152800000Y-103083333D01*
X152766667Y-103150000D01*
X152766667Y-103216667D01*
X152800000Y-103316667D01*
X153200000Y-103716667D01*
X152766667Y-103716667D01*
X144566667Y-100583334D02*
X144233333Y-100350000D01*
X144566667Y-100183334D02*
X143866667Y-100183334D01*
X143866667Y-100450000D01*
X143900000Y-100516667D01*
X143933333Y-100550000D01*
X144000000Y-100583334D01*
X144100000Y-100583334D01*
X144166667Y-100550000D01*
X144200000Y-100516667D01*
X144233333Y-100450000D01*
X144233333Y-100183334D01*
X143933333Y-100850000D02*
X143900000Y-100883334D01*
X143866667Y-100950000D01*
X143866667Y-101116667D01*
X143900000Y-101183334D01*
X143933333Y-101216667D01*
X144000000Y-101250000D01*
X144066667Y-101250000D01*
X144166667Y-101216667D01*
X144566667Y-100816667D01*
X144566667Y-101250000D01*
X140366666Y-104116667D02*
X140600000Y-103783333D01*
X140766666Y-104116667D02*
X140766666Y-103416667D01*
X140500000Y-103416667D01*
X140433333Y-103450000D01*
X140400000Y-103483333D01*
X140366666Y-103550000D01*
X140366666Y-103650000D01*
X140400000Y-103716667D01*
X140433333Y-103750000D01*
X140500000Y-103783333D01*
X140766666Y-103783333D01*
X140133333Y-103416667D02*
X139700000Y-103416667D01*
X139933333Y-103683333D01*
X139833333Y-103683333D01*
X139766666Y-103716667D01*
X139733333Y-103750000D01*
X139700000Y-103816667D01*
X139700000Y-103983333D01*
X139733333Y-104050000D01*
X139766666Y-104083333D01*
X139833333Y-104116667D01*
X140033333Y-104116667D01*
X140100000Y-104083333D01*
X140133333Y-104050000D01*
X153800000Y-98550000D02*
X153833333Y-98516666D01*
X153866667Y-98416666D01*
X153866667Y-98350000D01*
X153833333Y-98250000D01*
X153766667Y-98183333D01*
X153700000Y-98150000D01*
X153566667Y-98116666D01*
X153466667Y-98116666D01*
X153333333Y-98150000D01*
X153266667Y-98183333D01*
X153200000Y-98250000D01*
X153166667Y-98350000D01*
X153166667Y-98416666D01*
X153200000Y-98516666D01*
X153233333Y-98550000D01*
X153233333Y-98816666D02*
X153200000Y-98850000D01*
X153166667Y-98916666D01*
X153166667Y-99083333D01*
X153200000Y-99150000D01*
X153233333Y-99183333D01*
X153300000Y-99216666D01*
X153366667Y-99216666D01*
X153466667Y-99183333D01*
X153866667Y-98783333D01*
X153866667Y-99216666D01*
X153166667Y-99450000D02*
X153166667Y-99883333D01*
X153433333Y-99650000D01*
X153433333Y-99750000D01*
X153466667Y-99816667D01*
X153500000Y-99850000D01*
X153566667Y-99883333D01*
X153733333Y-99883333D01*
X153800000Y-99850000D01*
X153833333Y-99816667D01*
X153866667Y-99750000D01*
X153866667Y-99550000D01*
X153833333Y-99483333D01*
X153800000Y-99450000D01*
X153200000Y-106750000D02*
X153233334Y-106783333D01*
X153333334Y-106816667D01*
X153400000Y-106816667D01*
X153500000Y-106783333D01*
X153566667Y-106716667D01*
X153600000Y-106650000D01*
X153633334Y-106516667D01*
X153633334Y-106416667D01*
X153600000Y-106283333D01*
X153566667Y-106216667D01*
X153500000Y-106150000D01*
X153400000Y-106116667D01*
X153333334Y-106116667D01*
X153233334Y-106150000D01*
X153200000Y-106183333D01*
X152933334Y-106183333D02*
X152900000Y-106150000D01*
X152833334Y-106116667D01*
X152666667Y-106116667D01*
X152600000Y-106150000D01*
X152566667Y-106183333D01*
X152533334Y-106250000D01*
X152533334Y-106316667D01*
X152566667Y-106416667D01*
X152966667Y-106816667D01*
X152533334Y-106816667D01*
X151933333Y-106350000D02*
X151933333Y-106816667D01*
X152100000Y-106083333D02*
X152266667Y-106583333D01*
X151833333Y-106583333D01*
X153250000Y-105500000D02*
X153283334Y-105533333D01*
X153383334Y-105566667D01*
X153450000Y-105566667D01*
X153550000Y-105533333D01*
X153616667Y-105466667D01*
X153650000Y-105400000D01*
X153683334Y-105266667D01*
X153683334Y-105166667D01*
X153650000Y-105033333D01*
X153616667Y-104966667D01*
X153550000Y-104900000D01*
X153450000Y-104866667D01*
X153383334Y-104866667D01*
X153283334Y-104900000D01*
X153250000Y-104933333D01*
X152983334Y-104933333D02*
X152950000Y-104900000D01*
X152883334Y-104866667D01*
X152716667Y-104866667D01*
X152650000Y-104900000D01*
X152616667Y-104933333D01*
X152583334Y-105000000D01*
X152583334Y-105066667D01*
X152616667Y-105166667D01*
X153016667Y-105566667D01*
X152583334Y-105566667D01*
X151950000Y-104866667D02*
X152283333Y-104866667D01*
X152316667Y-105200000D01*
X152283333Y-105166667D01*
X152216667Y-105133333D01*
X152050000Y-105133333D01*
X151983333Y-105166667D01*
X151950000Y-105200000D01*
X151916667Y-105266667D01*
X151916667Y-105433333D01*
X151950000Y-105500000D01*
X151983333Y-105533333D01*
X152050000Y-105566667D01*
X152216667Y-105566667D01*
X152283333Y-105533333D01*
X152316667Y-105500000D01*
X146050000Y-105950000D02*
X146083333Y-105916666D01*
X146116667Y-105816666D01*
X146116667Y-105750000D01*
X146083333Y-105650000D01*
X146016667Y-105583333D01*
X145950000Y-105550000D01*
X145816667Y-105516666D01*
X145716667Y-105516666D01*
X145583333Y-105550000D01*
X145516667Y-105583333D01*
X145450000Y-105650000D01*
X145416667Y-105750000D01*
X145416667Y-105816666D01*
X145450000Y-105916666D01*
X145483333Y-105950000D01*
X145416667Y-106183333D02*
X145416667Y-106616666D01*
X145683333Y-106383333D01*
X145683333Y-106483333D01*
X145716667Y-106550000D01*
X145750000Y-106583333D01*
X145816667Y-106616666D01*
X145983333Y-106616666D01*
X146050000Y-106583333D01*
X146083333Y-106550000D01*
X146116667Y-106483333D01*
X146116667Y-106283333D01*
X146083333Y-106216666D01*
X146050000Y-106183333D01*
X146116667Y-107283333D02*
X146116667Y-106883333D01*
X146116667Y-107083333D02*
X145416667Y-107083333D01*
X145516667Y-107016667D01*
X145583333Y-106950000D01*
X145616667Y-106883333D01*
X147250000Y-104450000D02*
X147283334Y-104483333D01*
X147383334Y-104516667D01*
X147450000Y-104516667D01*
X147550000Y-104483333D01*
X147616667Y-104416667D01*
X147650000Y-104350000D01*
X147683334Y-104216667D01*
X147683334Y-104116667D01*
X147650000Y-103983333D01*
X147616667Y-103916667D01*
X147550000Y-103850000D01*
X147450000Y-103816667D01*
X147383334Y-103816667D01*
X147283334Y-103850000D01*
X147250000Y-103883333D01*
X147016667Y-103816667D02*
X146583334Y-103816667D01*
X146816667Y-104083333D01*
X146716667Y-104083333D01*
X146650000Y-104116667D01*
X146616667Y-104150000D01*
X146583334Y-104216667D01*
X146583334Y-104383333D01*
X146616667Y-104450000D01*
X146650000Y-104483333D01*
X146716667Y-104516667D01*
X146916667Y-104516667D01*
X146983334Y-104483333D01*
X147016667Y-104450000D01*
X146316667Y-103883333D02*
X146283333Y-103850000D01*
X146216667Y-103816667D01*
X146050000Y-103816667D01*
X145983333Y-103850000D01*
X145950000Y-103883333D01*
X145916667Y-103950000D01*
X145916667Y-104016667D01*
X145950000Y-104116667D01*
X146350000Y-104516667D01*
X145916667Y-104516667D01*
X142766667Y-106316667D02*
X143100000Y-106316667D01*
X143100000Y-105616667D01*
X142200000Y-105616667D02*
X142533333Y-105616667D01*
X142566667Y-105950000D01*
X142533333Y-105916667D01*
X142466667Y-105883333D01*
X142300000Y-105883333D01*
X142233333Y-105916667D01*
X142200000Y-105950000D01*
X142166667Y-106016667D01*
X142166667Y-106183333D01*
X142200000Y-106250000D01*
X142233333Y-106283333D01*
X142300000Y-106316667D01*
X142466667Y-106316667D01*
X142533333Y-106283333D01*
X142566667Y-106250000D01*
X138316667Y-105883334D02*
X137983333Y-105650000D01*
X138316667Y-105483334D02*
X137616667Y-105483334D01*
X137616667Y-105750000D01*
X137650000Y-105816667D01*
X137683333Y-105850000D01*
X137750000Y-105883334D01*
X137850000Y-105883334D01*
X137916667Y-105850000D01*
X137950000Y-105816667D01*
X137983333Y-105750000D01*
X137983333Y-105483334D01*
X137616667Y-106516667D02*
X137616667Y-106183334D01*
X137950000Y-106150000D01*
X137916667Y-106183334D01*
X137883333Y-106250000D01*
X137883333Y-106416667D01*
X137916667Y-106483334D01*
X137950000Y-106516667D01*
X138016667Y-106550000D01*
X138183333Y-106550000D01*
X138250000Y-106516667D01*
X138283333Y-106483334D01*
X138316667Y-106416667D01*
X138316667Y-106250000D01*
X138283333Y-106183334D01*
X138250000Y-106150000D01*
M02*
