G04 #@! TF.FileFunction,Copper,L4,Bot,Signal*
%FSLAX46Y46*%
G04 Gerber Fmt 4.6, Leading zero omitted, Abs format (unit mm)*
G04 Created by KiCad (PCBNEW 4.0.2-stable) date Tue Mar  8 23:23:17 2016*
%MOMM*%
G01*
G04 APERTURE LIST*
%ADD10C,0.100000*%
%ADD11R,0.600000X0.500000*%
%ADD12R,0.500000X0.600000*%
%ADD13R,2.032000X2.032000*%
%ADD14O,2.032000X2.032000*%
%ADD15R,1.727200X2.032000*%
%ADD16O,1.727200X2.032000*%
%ADD17C,1.800000*%
%ADD18R,0.600000X0.400000*%
%ADD19R,0.400000X0.600000*%
%ADD20C,0.600000*%
%ADD21C,0.250000*%
G04 APERTURE END LIST*
D10*
D11*
X145050000Y-103750000D03*
X143950000Y-103750000D03*
D12*
X152050000Y-101850000D03*
X152050000Y-100750000D03*
D13*
X154050000Y-91290000D03*
D14*
X154050000Y-88750000D03*
D15*
X153500000Y-108500000D03*
D16*
X150960000Y-108500000D03*
X148420000Y-108500000D03*
X145880000Y-108500000D03*
X143340000Y-108500000D03*
X140800000Y-108500000D03*
D17*
X166750000Y-105750000D03*
X169290000Y-108290000D03*
X164210000Y-108290000D03*
X164210000Y-103210000D03*
X169290000Y-103210000D03*
X166750000Y-90750000D03*
X164210000Y-88210000D03*
X169290000Y-88210000D03*
X169290000Y-93290000D03*
X164210000Y-93290000D03*
D12*
X147550000Y-96300000D03*
X147550000Y-95200000D03*
D11*
X150750000Y-103250000D03*
X151850000Y-103250000D03*
D18*
X145550000Y-101150000D03*
X145550000Y-100250000D03*
D19*
X141550000Y-103750000D03*
X142450000Y-103750000D03*
D12*
X153550000Y-101850000D03*
X153550000Y-100750000D03*
D11*
X149300000Y-106500000D03*
X150400000Y-106500000D03*
X149200000Y-105250000D03*
X150300000Y-105250000D03*
D17*
X136550000Y-90750000D03*
X134010000Y-88210000D03*
X139090000Y-88210000D03*
X139090000Y-93290000D03*
X134010000Y-93290000D03*
D11*
X147800000Y-106500000D03*
X146700000Y-106500000D03*
X147800000Y-105250000D03*
X146700000Y-105250000D03*
D19*
X143900000Y-106000000D03*
X144800000Y-106000000D03*
D18*
X139800000Y-105550000D03*
X139800000Y-106450000D03*
D20*
X169300000Y-98250000D03*
X134900000Y-108750000D03*
X143800000Y-90750000D03*
X161800000Y-98250000D03*
X156550000Y-98000000D03*
X143983052Y-104933052D03*
X149700000Y-93100000D03*
X154800000Y-95750000D03*
X151050000Y-102000000D03*
X154500000Y-102050000D03*
X154250000Y-105450000D03*
X136800000Y-97750000D03*
X149018104Y-104074178D03*
X159512000Y-87884000D03*
X140050000Y-104750000D03*
X163300000Y-98250000D03*
X147800000Y-99000000D03*
X147800000Y-101500000D03*
X149050000Y-100250000D03*
X146550000Y-100250000D03*
X146550000Y-101500000D03*
X149050000Y-101500000D03*
X149000000Y-99000000D03*
X146550000Y-99000000D03*
X141550000Y-89375000D03*
X142550000Y-90750000D03*
X138450000Y-105800000D03*
X136850000Y-107600000D03*
X151300000Y-106500000D03*
X151050000Y-105250000D03*
X151350000Y-104250000D03*
X147550000Y-91750000D03*
X148215000Y-88500000D03*
X147385000Y-88500000D03*
X147385000Y-89690000D03*
X148215000Y-89690000D03*
X151800000Y-92000000D03*
X152050000Y-89500000D03*
X147750000Y-100250000D03*
X144550000Y-107250000D03*
X145616948Y-105066948D03*
X147550000Y-94250000D03*
X151550000Y-94000000D03*
X150350000Y-96450000D03*
X152300000Y-95500000D03*
X153300000Y-95750000D03*
X155050000Y-101000000D03*
X135050000Y-100750000D03*
X139800000Y-97500000D03*
X138300000Y-97500000D03*
X141300000Y-99000000D03*
X141800000Y-104750000D03*
X162050000Y-100500000D03*
X141300000Y-95500000D03*
X142800000Y-95500000D03*
X144050000Y-94500000D03*
X144050000Y-96000000D03*
X142000000Y-102250000D03*
X149800000Y-103500000D03*
X148550000Y-96500000D03*
X148125010Y-104250000D03*
X138800000Y-107250000D03*
D21*
X143983052Y-104933052D02*
X143983052Y-105916948D01*
X143983052Y-105916948D02*
X143900000Y-106000000D01*
X144050000Y-105000000D02*
X143983052Y-104933052D01*
X149200000Y-104500000D02*
X149019662Y-104500000D01*
X149019662Y-104500000D02*
X149018104Y-104498442D01*
X149018104Y-104498442D02*
X149018104Y-104074178D01*
X152050000Y-101850000D02*
X153550000Y-101850000D01*
X151050000Y-102000000D02*
X151900000Y-102000000D01*
X151900000Y-102000000D02*
X152050000Y-101850000D01*
X149200000Y-105250000D02*
X149200000Y-106400000D01*
X149200000Y-106400000D02*
X149300000Y-106500000D01*
X149200000Y-104500000D02*
X149200000Y-105250000D01*
X139800000Y-105550000D02*
X139800000Y-105000000D01*
X139800000Y-105000000D02*
X140050000Y-104750000D01*
X150400000Y-106500000D02*
X151300000Y-106500000D01*
X150850000Y-105250000D02*
X151050000Y-105250000D01*
X151850000Y-103250000D02*
X151850000Y-103750000D01*
X151850000Y-103750000D02*
X151350000Y-104250000D01*
X150300000Y-105250000D02*
X150850000Y-105250000D01*
X145300000Y-106500000D02*
X144550000Y-107250000D01*
X146700000Y-106500000D02*
X145300000Y-106500000D01*
X146700000Y-105250000D02*
X145800000Y-105250000D01*
X145800000Y-105250000D02*
X145616948Y-105066948D01*
X147550000Y-95200000D02*
X147550000Y-94250000D01*
X153550000Y-100750000D02*
X152050000Y-100750000D01*
X154800000Y-100750000D02*
X155050000Y-101000000D01*
X153550000Y-100750000D02*
X154800000Y-100750000D01*
X141800000Y-104550000D02*
X141800000Y-104750000D01*
X141550000Y-103750000D02*
X141550000Y-104300000D01*
X141550000Y-104300000D02*
X141800000Y-104550000D01*
X146425001Y-102875001D02*
X145550000Y-102000000D01*
X145550000Y-102000000D02*
X145550000Y-101150000D01*
X146425001Y-103124999D02*
X146425001Y-102875001D01*
X145800000Y-103750000D02*
X145050000Y-103750000D01*
X146425001Y-103124999D02*
X145800000Y-103750000D01*
X149800000Y-103500000D02*
X149368928Y-103500000D01*
X149368928Y-103500000D02*
X148993927Y-103124999D01*
X148993927Y-103124999D02*
X146425001Y-103124999D01*
X150250001Y-103200001D02*
X150300000Y-103250000D01*
X150300000Y-103250000D02*
X150750000Y-103250000D01*
X149800000Y-103500000D02*
X150099999Y-103200001D01*
X150099999Y-103200001D02*
X150250001Y-103200001D01*
X148550000Y-96500000D02*
X147750000Y-96500000D01*
X147750000Y-96500000D02*
X147550000Y-96300000D01*
X145550000Y-100250000D02*
X145550000Y-98250000D01*
X145550000Y-98250000D02*
X146300000Y-97500000D01*
X146300000Y-97500000D02*
X147050000Y-97500000D01*
X147050000Y-97500000D02*
X147550000Y-97000000D01*
X147550000Y-97000000D02*
X147550000Y-96300000D01*
X143950000Y-103750000D02*
X142450000Y-103750000D01*
X147800000Y-105750000D02*
X147724999Y-105825001D01*
X147724999Y-105825001D02*
X144974999Y-105825001D01*
X144974999Y-105825001D02*
X144800000Y-106000000D01*
X147800000Y-106500000D02*
X147800000Y-105750000D01*
X147800000Y-105750000D02*
X147800000Y-105250000D01*
X147800000Y-104500000D02*
X148125010Y-104250000D01*
X148125010Y-104250000D02*
X148050000Y-104250000D01*
X147800000Y-105250000D02*
X147800000Y-104500000D01*
X139550000Y-107250000D02*
X139800000Y-107000000D01*
X139800000Y-107000000D02*
X139800000Y-106450000D01*
X138800000Y-107250000D02*
X139550000Y-107250000D01*
M02*
