M48
;DRILL file {KiCad 4.0.2-stable} date Tue Mar  8 23:23:18 2016
;FORMAT={3:3/ absolute / metric / keep zeros}
FMAT,2
METRIC,TZ
T1C0.400
T2C1.016
T3C1.500
%
G90
G05
M71
T1
X134900Y-108750
X135050Y-100750
X136800Y-097750
X136850Y-107600
X138300Y-097500
X138450Y-105800
X138800Y-107250
X139800Y-097500
X140050Y-104750
X141300Y-095500
X141300Y-099000
X141550Y-089375
X141800Y-104750
X142000Y-102250
X142550Y-090750
X142800Y-095500
X143800Y-090750
X143983Y-104933
X144050Y-094500
X144050Y-096000
X144550Y-107250
X145617Y-105067
X146550Y-099000
X146550Y-100250
X146550Y-101500
X147385Y-088500
X147385Y-089690
X147550Y-091750
X147550Y-094250
X147750Y-100250
X147800Y-099000
X147800Y-101500
X148125Y-104250
X148215Y-088500
X148215Y-089690
X148550Y-096500
X149000Y-099000
X149018Y-104074
X149050Y-100250
X149050Y-101500
X149700Y-093100
X149800Y-103500
X150350Y-096450
X151050Y-102000
X151050Y-105250
X151300Y-106500
X151350Y-104250
X151550Y-094000
X151800Y-092000
X152050Y-089500
X152300Y-095500
X153300Y-095750
X154250Y-105450
X154500Y-102050
X154800Y-095750
X155050Y-101000
X156550Y-098000
X159512Y-087884
X161800Y-098250
X162050Y-100500
X163300Y-098250
X169300Y-098250
T2
X140800Y-108500
X143340Y-108500
X145880Y-108500
X148420Y-108500
X150960Y-108500
X153500Y-108500
X154050Y-088750
X154050Y-091290
T3
X134010Y-088210
X134010Y-093290
X136550Y-090750
X139090Y-088210
X139090Y-093290
X164210Y-088210
X164210Y-093290
X164210Y-103210
X164210Y-108290
X166750Y-090750
X166750Y-105750
X169290Y-088210
X169290Y-093290
X169290Y-103210
X169290Y-108290
T0
M30
