G04 #@! TF.FileFunction,Copper,L3,Inr,Signal*
%FSLAX46Y46*%
G04 Gerber Fmt 4.6, Leading zero omitted, Abs format (unit mm)*
G04 Created by KiCad (PCBNEW 4.0.4-stable) date Tue Sep 20 22:55:43 2016*
%MOMM*%
%LPD*%
G01*
G04 APERTURE LIST*
%ADD10C,0.100000*%
%ADD11C,0.381000*%
%ADD12C,2.400000*%
%ADD13R,2.400000X2.400000*%
%ADD14C,0.925000*%
%ADD15C,0.600000*%
%ADD16C,0.350000*%
%ADD17C,1.000000*%
%ADD18C,0.200000*%
%ADD19C,0.254000*%
G04 APERTURE END LIST*
D10*
D11*
X256000000Y-99000000D03*
X253000000Y-99000000D03*
X250000000Y-99000000D03*
X248000000Y-99000000D03*
X246000000Y-99000000D03*
X244000000Y-99000000D03*
X244000000Y-93000000D03*
X246000000Y-91000000D03*
X246000000Y-92000000D03*
X246000000Y-93000000D03*
X247000000Y-93000000D03*
X249000000Y-93000000D03*
X248000000Y-93000000D03*
X250000000Y-93000000D03*
X251000000Y-93000000D03*
X252000000Y-93000000D03*
X253000000Y-93000000D03*
X254000000Y-93000000D03*
X256000000Y-92000000D03*
X254000000Y-92000000D03*
X253000000Y-92000000D03*
X252000000Y-92000000D03*
X251000000Y-92000000D03*
X250000000Y-92000000D03*
X249000000Y-92000000D03*
X248000000Y-92000000D03*
X247000000Y-92000000D03*
X247000000Y-91000000D03*
X248000000Y-91000000D03*
X249000000Y-91000000D03*
X250000000Y-91000000D03*
X251000000Y-91000000D03*
X253000000Y-91000000D03*
X252000000Y-91000000D03*
X254000000Y-91000000D03*
X255000000Y-91000000D03*
X256000000Y-91000000D03*
X257000000Y-91000000D03*
X257000000Y-92000000D03*
X257000000Y-93000000D03*
X256000000Y-93000000D03*
X255000000Y-93000000D03*
X255000000Y-96000000D03*
X257000000Y-96000000D03*
X256000000Y-96000000D03*
X256000000Y-97000000D03*
X257000000Y-97000000D03*
X257000000Y-98000000D03*
X256000000Y-98000000D03*
X255000000Y-98000000D03*
X254000000Y-98000000D03*
X254000000Y-97000000D03*
X254000000Y-96000000D03*
X253000000Y-96000000D03*
X253000000Y-97000000D03*
X253000000Y-98000000D03*
X252000000Y-98000000D03*
X252000000Y-97000000D03*
X252000000Y-96000000D03*
X251000000Y-96000000D03*
X251000000Y-97000000D03*
X251000000Y-98000000D03*
X250000000Y-98000000D03*
X250000000Y-97000000D03*
X250000000Y-96000000D03*
X249000000Y-96000000D03*
X249000000Y-97000000D03*
X249000000Y-98000000D03*
X248000000Y-98000000D03*
X248000000Y-97000000D03*
X248000000Y-96000000D03*
X247000000Y-96000000D03*
X247000000Y-97000000D03*
X247000000Y-98000000D03*
X246000000Y-98000000D03*
X246000000Y-97000000D03*
X246000000Y-96000000D03*
X257500000Y-93600000D03*
X256750000Y-93600000D03*
X256000000Y-93600000D03*
X255250000Y-93600000D03*
X251500000Y-93600000D03*
X250750000Y-93600000D03*
X253750000Y-93600000D03*
X253000000Y-93600000D03*
X252250000Y-93600000D03*
X254500000Y-93600000D03*
X250000000Y-93600000D03*
X249250000Y-93600000D03*
X248500000Y-93600000D03*
X247750000Y-93600000D03*
X257500000Y-95400000D03*
X256750000Y-95400000D03*
X256000000Y-95400000D03*
X255250000Y-95400000D03*
X254500000Y-95400000D03*
X253750000Y-95400000D03*
X253000000Y-95400000D03*
X252250000Y-95400000D03*
X251500000Y-95400000D03*
X250750000Y-95400000D03*
X250000000Y-95400000D03*
X249250000Y-95400000D03*
X248500000Y-95400000D03*
X247750000Y-95400000D03*
X247000000Y-95400000D03*
X247000000Y-93600000D03*
X246600000Y-95400000D03*
X246600000Y-93600000D03*
X245900000Y-93850000D03*
X245900000Y-95200000D03*
X245300000Y-95200000D03*
X245300000Y-93850000D03*
D12*
X254950000Y-110450000D03*
D13*
X254950000Y-113950000D03*
D14*
X164180000Y-88450000D03*
X165450000Y-88450000D03*
X164180000Y-89720000D03*
X165450000Y-89720000D03*
X164180000Y-90990000D03*
X165450000Y-90990000D03*
X164180000Y-92260000D03*
X165450000Y-92260000D03*
X164180000Y-93530000D03*
X165450000Y-93530000D03*
X164180000Y-94800000D03*
X165450000Y-94800000D03*
X164180000Y-96070000D03*
X165450000Y-96070000D03*
X164180000Y-97340000D03*
X165450000Y-97340000D03*
X164180000Y-98610000D03*
X165450000Y-98610000D03*
X164180000Y-99880000D03*
X165450000Y-99880000D03*
X164180000Y-101150000D03*
X165450000Y-101150000D03*
X164180000Y-102420000D03*
X165450000Y-102420000D03*
X164180000Y-103690000D03*
X165450000Y-103690000D03*
X164180000Y-104960000D03*
X165450000Y-104960000D03*
X164180000Y-106230000D03*
X165450000Y-106230000D03*
X164180000Y-107500000D03*
X165450000Y-107500000D03*
X164180000Y-108770000D03*
X165450000Y-108770000D03*
X164180000Y-110040000D03*
X165450000Y-110040000D03*
X164180000Y-111310000D03*
X165450000Y-111310000D03*
X164180000Y-112580000D03*
X165450000Y-112580000D03*
D11*
X244300000Y-93950000D03*
D15*
X195700000Y-115150000D03*
X254900000Y-97200000D03*
X254900000Y-91800000D03*
X203400000Y-109300000D03*
X203950000Y-111350000D03*
X200250000Y-105750000D03*
X197750000Y-103250000D03*
X202500000Y-103250000D03*
X223760000Y-113160000D03*
X224750000Y-113150000D03*
X225740000Y-113210000D03*
X224750000Y-110950000D03*
X180600000Y-103600000D03*
X187000000Y-104250000D03*
X190325000Y-90000000D03*
X187848126Y-89888232D03*
X181200000Y-103800000D03*
X181200000Y-93600000D03*
X174300000Y-94500000D03*
X174900000Y-95900000D03*
X174900000Y-97200000D03*
X171100000Y-104100000D03*
X173000000Y-106000000D03*
X172200000Y-105000000D03*
X176900000Y-115200000D03*
X178400000Y-111700000D03*
X175425000Y-111725000D03*
X178650000Y-96650000D03*
X181950000Y-101250000D03*
X180300000Y-115500000D03*
X184100000Y-109400000D03*
X186100000Y-115000000D03*
X187200000Y-115000000D03*
X188100000Y-110800000D03*
X187300000Y-110800000D03*
X188100000Y-112110000D03*
X187270000Y-112110000D03*
X187270000Y-113300000D03*
X188100000Y-113300000D03*
X188000000Y-115000000D03*
X191500000Y-114000000D03*
X195250000Y-84950000D03*
X209300000Y-96300000D03*
X255400000Y-104700000D03*
X181500000Y-102300000D03*
X182750000Y-92750000D03*
X181250000Y-105500000D03*
X187000000Y-102000000D03*
X195600000Y-103200000D03*
X194000000Y-102600000D03*
X190300000Y-89000000D03*
X183900000Y-88700000D03*
X184500000Y-90200000D03*
X186700000Y-99150000D03*
X187850000Y-99150000D03*
X189000000Y-99150000D03*
X190150000Y-99150000D03*
X190150000Y-98000000D03*
X189000000Y-98000000D03*
X187850000Y-98000000D03*
X186700000Y-98000000D03*
X186700000Y-96850000D03*
X187850000Y-96850000D03*
X189000000Y-96850000D03*
X190150000Y-96850000D03*
X190150000Y-95700000D03*
X189000000Y-95700000D03*
X187850000Y-95700000D03*
X186700000Y-95700000D03*
X221700000Y-95200000D03*
X193600000Y-90700000D03*
X192100000Y-90700000D03*
X190700000Y-90700000D03*
X185000000Y-91600000D03*
X193700000Y-94600000D03*
X199100000Y-94600000D03*
X193700000Y-90100000D03*
X193000000Y-87000000D03*
X197500000Y-87000000D03*
X198350000Y-97150000D03*
X210750000Y-110250000D03*
X203950000Y-97300000D03*
X205250000Y-97300000D03*
X205250000Y-96000000D03*
X203950000Y-96000000D03*
X206000000Y-108700000D03*
X206250000Y-110250000D03*
X208550000Y-112350000D03*
X207750000Y-115050000D03*
X230000000Y-97600000D03*
X231500000Y-97200000D03*
X229650000Y-104750000D03*
X239050000Y-91750000D03*
X243900000Y-91700000D03*
X239350000Y-87400000D03*
X251000000Y-101250000D03*
X244250000Y-101000000D03*
X247200000Y-100500000D03*
X238500000Y-99750000D03*
X241600000Y-95250000D03*
X242500000Y-95250000D03*
X242500000Y-94350000D03*
X241600000Y-94350000D03*
X234050000Y-95200000D03*
X234950000Y-95200000D03*
X234950000Y-94300000D03*
X234050000Y-94300000D03*
X225450000Y-93800000D03*
X226750000Y-93800000D03*
X226750000Y-92500000D03*
X225450000Y-92500000D03*
X250000000Y-105000000D03*
X249000000Y-103750000D03*
X216250000Y-86572500D03*
X216250000Y-113500000D03*
X216250000Y-111750000D03*
X216250000Y-108250000D03*
X216250000Y-104750000D03*
X216250000Y-101250000D03*
X216250000Y-97750000D03*
X216250000Y-89250000D03*
X216250000Y-87500000D03*
X216250000Y-91000000D03*
X216250000Y-92750000D03*
X216250000Y-94500000D03*
X216250000Y-96250000D03*
X216250000Y-99500000D03*
X216250000Y-103000000D03*
X216250000Y-106500000D03*
X216250000Y-110000000D03*
X183000000Y-106600000D03*
X187500000Y-89250000D03*
X188500000Y-86000000D03*
X251000000Y-102750000D03*
X191500000Y-110900000D03*
X209300000Y-97027003D03*
X255400000Y-102800000D03*
X223000000Y-91800000D03*
X230000000Y-94700000D03*
X233600000Y-87400000D03*
X243500000Y-103500000D03*
X244800000Y-91300000D03*
X189750000Y-104500000D03*
X191500000Y-101000000D03*
X235900000Y-100200000D03*
X228900000Y-107400000D03*
X235650000Y-101100000D03*
X231300000Y-107450000D03*
X236252010Y-102500000D03*
X233800000Y-107450000D03*
X238000000Y-100500000D03*
X241050000Y-107450000D03*
X237250000Y-101750000D03*
X238800000Y-107450000D03*
X236250000Y-105000000D03*
X236300000Y-107450000D03*
X201450000Y-109900000D03*
X188000000Y-103400000D03*
X177350000Y-92950000D03*
X173600000Y-108400000D03*
X173100000Y-96200000D03*
X180600000Y-95350000D03*
X183150000Y-111850000D03*
X183250000Y-104500000D03*
X196600000Y-101000000D03*
X186400000Y-87800000D03*
X183800000Y-90900000D03*
X193000000Y-96500000D03*
X196550000Y-95550000D03*
X190500000Y-104500000D03*
X192600000Y-97800000D03*
X244150000Y-96750000D03*
X229500000Y-100500000D03*
X243800000Y-97600000D03*
X229500000Y-102000000D03*
X243172652Y-98127348D03*
X229500000Y-103500000D03*
X191400000Y-115172981D03*
X174200000Y-114400000D03*
X190055000Y-112455000D03*
X229600000Y-114000000D03*
X232200000Y-114000000D03*
X234600000Y-113800000D03*
X242200000Y-113800000D03*
X239700000Y-113800000D03*
X237200000Y-113800000D03*
X196600000Y-103400000D03*
X179200000Y-86000000D03*
X191200000Y-107783929D03*
X194600000Y-103400000D03*
X179200000Y-85200000D03*
X189600000Y-107783929D03*
X167400000Y-87000000D03*
X180000000Y-106600000D03*
X188300000Y-107700000D03*
X168000000Y-87760499D03*
X181400000Y-106600000D03*
X186800000Y-107783929D03*
X168530000Y-93530000D03*
X172200000Y-97200000D03*
X175800000Y-106600000D03*
X169600000Y-97400000D03*
X171379962Y-95600000D03*
X168600000Y-90400000D03*
X162130000Y-93530000D03*
X207600000Y-97100000D03*
X207600000Y-96372997D03*
X207600000Y-95645994D03*
X222900000Y-92927010D03*
X222900000Y-93654013D03*
X222900000Y-94381016D03*
X177400000Y-85800000D03*
X231600000Y-94200000D03*
D16*
X209300000Y-97027003D02*
X209300000Y-97500000D01*
D17*
X195024264Y-114000000D02*
X209000000Y-114000000D01*
X191500000Y-110900000D02*
X191924264Y-110900000D01*
X191924264Y-110900000D02*
X195024264Y-114000000D01*
D18*
X190572999Y-116027001D02*
X191400000Y-115200000D01*
X191400000Y-115200000D02*
X191400000Y-115172981D01*
X179000000Y-116000000D02*
X180020038Y-116000000D01*
X180020038Y-116000000D02*
X180047039Y-116027001D01*
X180047039Y-116027001D02*
X190572999Y-116027001D01*
X175800000Y-116000000D02*
X179000000Y-116000000D01*
X175400000Y-115600000D02*
X175800000Y-116000000D01*
X174200000Y-114400000D02*
X175400000Y-115600000D01*
X196272999Y-103727001D02*
X196600000Y-103400000D01*
X191200000Y-107783929D02*
X195256928Y-103727001D01*
X195256928Y-103727001D02*
X196272999Y-103727001D01*
X194600000Y-103400000D02*
X193983929Y-103400000D01*
X193983929Y-103400000D02*
X189600000Y-107783929D01*
D19*
G36*
X239972575Y-85176802D02*
X239967497Y-86695130D01*
X239880327Y-86607808D01*
X239536799Y-86465162D01*
X239164833Y-86464838D01*
X238821057Y-86606883D01*
X238557808Y-86869673D01*
X238415162Y-87213201D01*
X238414838Y-87585167D01*
X238556883Y-87928943D01*
X238819673Y-88192192D01*
X239163201Y-88334838D01*
X239535167Y-88335162D01*
X239878943Y-88193117D01*
X239962767Y-88109439D01*
X239951483Y-91483324D01*
X239843117Y-91221057D01*
X239580327Y-90957808D01*
X239236799Y-90815162D01*
X238864833Y-90814838D01*
X238521057Y-90956883D01*
X238257808Y-91219673D01*
X238115162Y-91563201D01*
X238114838Y-91935167D01*
X238256883Y-92278943D01*
X238519673Y-92542192D01*
X238863201Y-92684838D01*
X239235167Y-92685162D01*
X239578943Y-92543117D01*
X239842192Y-92280327D01*
X239949683Y-92021460D01*
X239923001Y-99999575D01*
X239932841Y-100049019D01*
X239961143Y-100090738D01*
X240003445Y-100118160D01*
X240050000Y-100127000D01*
X243914389Y-100127000D01*
X243721057Y-100206883D01*
X243457808Y-100469673D01*
X243315162Y-100813201D01*
X243314838Y-101185167D01*
X243456883Y-101528943D01*
X243719673Y-101792192D01*
X244063201Y-101934838D01*
X244435167Y-101935162D01*
X244778943Y-101793117D01*
X245042192Y-101530327D01*
X245081706Y-101435167D01*
X250064838Y-101435167D01*
X250206883Y-101778943D01*
X250469673Y-102042192D01*
X250813201Y-102184838D01*
X251185167Y-102185162D01*
X251528943Y-102043117D01*
X251792192Y-101780327D01*
X251934838Y-101436799D01*
X251935162Y-101064833D01*
X251793117Y-100721057D01*
X251530327Y-100457808D01*
X251186799Y-100315162D01*
X250814833Y-100314838D01*
X250471057Y-100456883D01*
X250207808Y-100719673D01*
X250065162Y-101063201D01*
X250064838Y-101435167D01*
X245081706Y-101435167D01*
X245184838Y-101186799D01*
X245185162Y-100814833D01*
X245043117Y-100471057D01*
X244780327Y-100207808D01*
X244585721Y-100127000D01*
X246342480Y-100127000D01*
X246265162Y-100313201D01*
X246264838Y-100685167D01*
X246406883Y-101028943D01*
X246669673Y-101292192D01*
X247013201Y-101434838D01*
X247385167Y-101435162D01*
X247728943Y-101293117D01*
X247992192Y-101030327D01*
X248134838Y-100686799D01*
X248135162Y-100314833D01*
X248057551Y-100127000D01*
X256873397Y-100127000D01*
X256922603Y-115873000D01*
X240100000Y-115873000D01*
X240050590Y-115883006D01*
X240040354Y-115890000D01*
X218914092Y-115890000D01*
X208205844Y-115873321D01*
X208278943Y-115843117D01*
X208542192Y-115580327D01*
X208684838Y-115236799D01*
X208685162Y-114864833D01*
X208543117Y-114521057D01*
X208280327Y-114257808D01*
X208127000Y-114194141D01*
X208127000Y-113186758D01*
X208363201Y-113284838D01*
X208735167Y-113285162D01*
X209078943Y-113143117D01*
X209342192Y-112880327D01*
X209484838Y-112536799D01*
X209485162Y-112164833D01*
X209343117Y-111821057D01*
X209080327Y-111557808D01*
X208736799Y-111415162D01*
X208364833Y-111414838D01*
X208127000Y-111513108D01*
X208127000Y-110435167D01*
X209814838Y-110435167D01*
X209956883Y-110778943D01*
X210219673Y-111042192D01*
X210563201Y-111184838D01*
X210935167Y-111185162D01*
X211278943Y-111043117D01*
X211542192Y-110780327D01*
X211684838Y-110436799D01*
X211685162Y-110064833D01*
X211543117Y-109721057D01*
X211280327Y-109457808D01*
X210936799Y-109315162D01*
X210564833Y-109314838D01*
X210221057Y-109456883D01*
X209957808Y-109719673D01*
X209815162Y-110063201D01*
X209814838Y-110435167D01*
X208127000Y-110435167D01*
X208127000Y-97893920D01*
X208128943Y-97893117D01*
X208392192Y-97630327D01*
X208534838Y-97286799D01*
X208535162Y-96914833D01*
X208461470Y-96736485D01*
X208465084Y-96727781D01*
X208506883Y-96828943D01*
X208769673Y-97092192D01*
X209113201Y-97234838D01*
X209485167Y-97235162D01*
X209828943Y-97093117D01*
X210092192Y-96830327D01*
X210234838Y-96486799D01*
X210235162Y-96114833D01*
X210093117Y-95771057D01*
X209830327Y-95507808D01*
X209486799Y-95365162D01*
X209114833Y-95364838D01*
X208771057Y-95506883D01*
X208534917Y-95742612D01*
X208535162Y-95460827D01*
X208393117Y-95117051D01*
X208130327Y-94853802D01*
X208127000Y-94852421D01*
X208127000Y-86757667D01*
X215314838Y-86757667D01*
X215430054Y-87036512D01*
X215315162Y-87313201D01*
X215314838Y-87685167D01*
X215456883Y-88028943D01*
X215719673Y-88292192D01*
X215919162Y-88375028D01*
X215721057Y-88456883D01*
X215457808Y-88719673D01*
X215315162Y-89063201D01*
X215314838Y-89435167D01*
X215456883Y-89778943D01*
X215719673Y-90042192D01*
X215919162Y-90125028D01*
X215721057Y-90206883D01*
X215457808Y-90469673D01*
X215315162Y-90813201D01*
X215314838Y-91185167D01*
X215456883Y-91528943D01*
X215719673Y-91792192D01*
X215919162Y-91875028D01*
X215721057Y-91956883D01*
X215457808Y-92219673D01*
X215315162Y-92563201D01*
X215314838Y-92935167D01*
X215456883Y-93278943D01*
X215719673Y-93542192D01*
X215919162Y-93625028D01*
X215721057Y-93706883D01*
X215457808Y-93969673D01*
X215315162Y-94313201D01*
X215314838Y-94685167D01*
X215456883Y-95028943D01*
X215719673Y-95292192D01*
X215919162Y-95375028D01*
X215721057Y-95456883D01*
X215457808Y-95719673D01*
X215315162Y-96063201D01*
X215314838Y-96435167D01*
X215456883Y-96778943D01*
X215677709Y-97000155D01*
X215457808Y-97219673D01*
X215315162Y-97563201D01*
X215314838Y-97935167D01*
X215456883Y-98278943D01*
X215719673Y-98542192D01*
X215919162Y-98625028D01*
X215721057Y-98706883D01*
X215457808Y-98969673D01*
X215315162Y-99313201D01*
X215314838Y-99685167D01*
X215456883Y-100028943D01*
X215719673Y-100292192D01*
X215919162Y-100375028D01*
X215721057Y-100456883D01*
X215457808Y-100719673D01*
X215315162Y-101063201D01*
X215314838Y-101435167D01*
X215456883Y-101778943D01*
X215719673Y-102042192D01*
X215919162Y-102125028D01*
X215721057Y-102206883D01*
X215457808Y-102469673D01*
X215315162Y-102813201D01*
X215314838Y-103185167D01*
X215456883Y-103528943D01*
X215719673Y-103792192D01*
X215919162Y-103875028D01*
X215721057Y-103956883D01*
X215457808Y-104219673D01*
X215315162Y-104563201D01*
X215314838Y-104935167D01*
X215456883Y-105278943D01*
X215719673Y-105542192D01*
X215919162Y-105625028D01*
X215721057Y-105706883D01*
X215457808Y-105969673D01*
X215315162Y-106313201D01*
X215314838Y-106685167D01*
X215456883Y-107028943D01*
X215719673Y-107292192D01*
X215919162Y-107375028D01*
X215721057Y-107456883D01*
X215457808Y-107719673D01*
X215315162Y-108063201D01*
X215314838Y-108435167D01*
X215456883Y-108778943D01*
X215719673Y-109042192D01*
X215919162Y-109125028D01*
X215721057Y-109206883D01*
X215457808Y-109469673D01*
X215315162Y-109813201D01*
X215314838Y-110185167D01*
X215456883Y-110528943D01*
X215719673Y-110792192D01*
X215919162Y-110875028D01*
X215721057Y-110956883D01*
X215457808Y-111219673D01*
X215315162Y-111563201D01*
X215314838Y-111935167D01*
X215456883Y-112278943D01*
X215719673Y-112542192D01*
X215919162Y-112625028D01*
X215721057Y-112706883D01*
X215457808Y-112969673D01*
X215315162Y-113313201D01*
X215314838Y-113685167D01*
X215456883Y-114028943D01*
X215719673Y-114292192D01*
X216063201Y-114434838D01*
X216435167Y-114435162D01*
X216778943Y-114293117D01*
X216887081Y-114185167D01*
X228664838Y-114185167D01*
X228806883Y-114528943D01*
X229069673Y-114792192D01*
X229413201Y-114934838D01*
X229785167Y-114935162D01*
X230128943Y-114793117D01*
X230392192Y-114530327D01*
X230534838Y-114186799D01*
X230534839Y-114185167D01*
X231264838Y-114185167D01*
X231406883Y-114528943D01*
X231669673Y-114792192D01*
X232013201Y-114934838D01*
X232385167Y-114935162D01*
X232728943Y-114793117D01*
X232992192Y-114530327D01*
X233134838Y-114186799D01*
X233135013Y-113985167D01*
X233664838Y-113985167D01*
X233806883Y-114328943D01*
X234069673Y-114592192D01*
X234413201Y-114734838D01*
X234785167Y-114735162D01*
X235128943Y-114593117D01*
X235392192Y-114330327D01*
X235534838Y-113986799D01*
X235534839Y-113985167D01*
X236264838Y-113985167D01*
X236406883Y-114328943D01*
X236669673Y-114592192D01*
X237013201Y-114734838D01*
X237385167Y-114735162D01*
X237728943Y-114593117D01*
X237992192Y-114330327D01*
X238134838Y-113986799D01*
X238134839Y-113985167D01*
X238764838Y-113985167D01*
X238906883Y-114328943D01*
X239169673Y-114592192D01*
X239513201Y-114734838D01*
X239885167Y-114735162D01*
X240228943Y-114593117D01*
X240492192Y-114330327D01*
X240634838Y-113986799D01*
X240634839Y-113985167D01*
X241264838Y-113985167D01*
X241406883Y-114328943D01*
X241669673Y-114592192D01*
X242013201Y-114734838D01*
X242385167Y-114735162D01*
X242728943Y-114593117D01*
X242992192Y-114330327D01*
X243134838Y-113986799D01*
X243135162Y-113614833D01*
X243043548Y-113393109D01*
X244474657Y-113393109D01*
X244776218Y-114122943D01*
X245334120Y-114681819D01*
X246063427Y-114984654D01*
X246853109Y-114985343D01*
X247582943Y-114683782D01*
X248141819Y-114125880D01*
X248444654Y-113396573D01*
X248445218Y-112750000D01*
X253102560Y-112750000D01*
X253102560Y-115150000D01*
X253146838Y-115385317D01*
X253285910Y-115601441D01*
X253498110Y-115746431D01*
X253750000Y-115797440D01*
X256150000Y-115797440D01*
X256385317Y-115753162D01*
X256601441Y-115614090D01*
X256746431Y-115401890D01*
X256797440Y-115150000D01*
X256797440Y-112750000D01*
X256753162Y-112514683D01*
X256614090Y-112298559D01*
X256401890Y-112153569D01*
X256150000Y-112102560D01*
X255755712Y-112102560D01*
X255988086Y-112006545D01*
X256504730Y-111490801D01*
X256784681Y-110816605D01*
X256785318Y-110086597D01*
X256506545Y-109411914D01*
X255990801Y-108895270D01*
X255316605Y-108615319D01*
X254586597Y-108614682D01*
X253911914Y-108893455D01*
X253395270Y-109409199D01*
X253115319Y-110083395D01*
X253114682Y-110813403D01*
X253393455Y-111488086D01*
X253909199Y-112004730D01*
X254144799Y-112102560D01*
X253750000Y-112102560D01*
X253514683Y-112146838D01*
X253298559Y-112285910D01*
X253153569Y-112498110D01*
X253102560Y-112750000D01*
X248445218Y-112750000D01*
X248445343Y-112606891D01*
X248143782Y-111877057D01*
X247585880Y-111318181D01*
X246856573Y-111015346D01*
X246066891Y-111014657D01*
X245337057Y-111316218D01*
X244778181Y-111874120D01*
X244475346Y-112603427D01*
X244474657Y-113393109D01*
X243043548Y-113393109D01*
X242993117Y-113271057D01*
X242730327Y-113007808D01*
X242386799Y-112865162D01*
X242014833Y-112864838D01*
X241671057Y-113006883D01*
X241407808Y-113269673D01*
X241265162Y-113613201D01*
X241264838Y-113985167D01*
X240634839Y-113985167D01*
X240635162Y-113614833D01*
X240493117Y-113271057D01*
X240230327Y-113007808D01*
X239886799Y-112865162D01*
X239514833Y-112864838D01*
X239171057Y-113006883D01*
X238907808Y-113269673D01*
X238765162Y-113613201D01*
X238764838Y-113985167D01*
X238134839Y-113985167D01*
X238135162Y-113614833D01*
X237993117Y-113271057D01*
X237730327Y-113007808D01*
X237386799Y-112865162D01*
X237014833Y-112864838D01*
X236671057Y-113006883D01*
X236407808Y-113269673D01*
X236265162Y-113613201D01*
X236264838Y-113985167D01*
X235534839Y-113985167D01*
X235535162Y-113614833D01*
X235393117Y-113271057D01*
X235130327Y-113007808D01*
X234786799Y-112865162D01*
X234414833Y-112864838D01*
X234071057Y-113006883D01*
X233807808Y-113269673D01*
X233665162Y-113613201D01*
X233664838Y-113985167D01*
X233135013Y-113985167D01*
X233135162Y-113814833D01*
X232993117Y-113471057D01*
X232730327Y-113207808D01*
X232386799Y-113065162D01*
X232014833Y-113064838D01*
X231671057Y-113206883D01*
X231407808Y-113469673D01*
X231265162Y-113813201D01*
X231264838Y-114185167D01*
X230534839Y-114185167D01*
X230535162Y-113814833D01*
X230393117Y-113471057D01*
X230130327Y-113207808D01*
X229786799Y-113065162D01*
X229414833Y-113064838D01*
X229071057Y-113206883D01*
X228807808Y-113469673D01*
X228665162Y-113813201D01*
X228664838Y-114185167D01*
X216887081Y-114185167D01*
X217042192Y-114030327D01*
X217184838Y-113686799D01*
X217185135Y-113345167D01*
X222824838Y-113345167D01*
X222966883Y-113688943D01*
X223229673Y-113952192D01*
X223573201Y-114094838D01*
X223945167Y-114095162D01*
X224267410Y-113962014D01*
X224563201Y-114084838D01*
X224935167Y-114085162D01*
X225188150Y-113980632D01*
X225209673Y-114002192D01*
X225553201Y-114144838D01*
X225925167Y-114145162D01*
X226268943Y-114003117D01*
X226532192Y-113740327D01*
X226674838Y-113396799D01*
X226675162Y-113024833D01*
X226533117Y-112681057D01*
X226270327Y-112417808D01*
X225926799Y-112275162D01*
X225554833Y-112274838D01*
X225301850Y-112379368D01*
X225280327Y-112357808D01*
X224936799Y-112215162D01*
X224564833Y-112214838D01*
X224242590Y-112347986D01*
X223946799Y-112225162D01*
X223574833Y-112224838D01*
X223231057Y-112366883D01*
X222967808Y-112629673D01*
X222825162Y-112973201D01*
X222824838Y-113345167D01*
X217185135Y-113345167D01*
X217185162Y-113314833D01*
X217043117Y-112971057D01*
X216780327Y-112707808D01*
X216580838Y-112624972D01*
X216778943Y-112543117D01*
X217042192Y-112280327D01*
X217184838Y-111936799D01*
X217185162Y-111564833D01*
X217043117Y-111221057D01*
X216957377Y-111135167D01*
X223814838Y-111135167D01*
X223956883Y-111478943D01*
X224219673Y-111742192D01*
X224563201Y-111884838D01*
X224935167Y-111885162D01*
X225278943Y-111743117D01*
X225542192Y-111480327D01*
X225684838Y-111136799D01*
X225685162Y-110764833D01*
X225543117Y-110421057D01*
X225280327Y-110157808D01*
X224936799Y-110015162D01*
X224564833Y-110014838D01*
X224221057Y-110156883D01*
X223957808Y-110419673D01*
X223815162Y-110763201D01*
X223814838Y-111135167D01*
X216957377Y-111135167D01*
X216780327Y-110957808D01*
X216580838Y-110874972D01*
X216778943Y-110793117D01*
X217042192Y-110530327D01*
X217184838Y-110186799D01*
X217185162Y-109814833D01*
X217043117Y-109471057D01*
X216780327Y-109207808D01*
X216580838Y-109124972D01*
X216778943Y-109043117D01*
X217042192Y-108780327D01*
X217184838Y-108436799D01*
X217185162Y-108064833D01*
X217043117Y-107721057D01*
X216907464Y-107585167D01*
X227964838Y-107585167D01*
X228106883Y-107928943D01*
X228369673Y-108192192D01*
X228713201Y-108334838D01*
X229085167Y-108335162D01*
X229428943Y-108193117D01*
X229692192Y-107930327D01*
X229814753Y-107635167D01*
X230364838Y-107635167D01*
X230506883Y-107978943D01*
X230769673Y-108242192D01*
X231113201Y-108384838D01*
X231485167Y-108385162D01*
X231828943Y-108243117D01*
X232092192Y-107980327D01*
X232234838Y-107636799D01*
X232234839Y-107635167D01*
X232864838Y-107635167D01*
X233006883Y-107978943D01*
X233269673Y-108242192D01*
X233613201Y-108384838D01*
X233985167Y-108385162D01*
X234328943Y-108243117D01*
X234592192Y-107980327D01*
X234734838Y-107636799D01*
X234734839Y-107635167D01*
X235364838Y-107635167D01*
X235506883Y-107978943D01*
X235769673Y-108242192D01*
X236113201Y-108384838D01*
X236485167Y-108385162D01*
X236828943Y-108243117D01*
X237092192Y-107980327D01*
X237234838Y-107636799D01*
X237234839Y-107635167D01*
X237864838Y-107635167D01*
X238006883Y-107978943D01*
X238269673Y-108242192D01*
X238613201Y-108384838D01*
X238985167Y-108385162D01*
X239328943Y-108243117D01*
X239592192Y-107980327D01*
X239734838Y-107636799D01*
X239734839Y-107635167D01*
X240114838Y-107635167D01*
X240256883Y-107978943D01*
X240519673Y-108242192D01*
X240863201Y-108384838D01*
X241235167Y-108385162D01*
X241578943Y-108243117D01*
X241842192Y-107980327D01*
X241984838Y-107636799D01*
X241985162Y-107264833D01*
X241843117Y-106921057D01*
X241580327Y-106657808D01*
X241236799Y-106515162D01*
X240864833Y-106514838D01*
X240521057Y-106656883D01*
X240257808Y-106919673D01*
X240115162Y-107263201D01*
X240114838Y-107635167D01*
X239734839Y-107635167D01*
X239735162Y-107264833D01*
X239593117Y-106921057D01*
X239330327Y-106657808D01*
X238986799Y-106515162D01*
X238614833Y-106514838D01*
X238271057Y-106656883D01*
X238007808Y-106919673D01*
X237865162Y-107263201D01*
X237864838Y-107635167D01*
X237234839Y-107635167D01*
X237235162Y-107264833D01*
X237093117Y-106921057D01*
X236830327Y-106657808D01*
X236486799Y-106515162D01*
X236114833Y-106514838D01*
X235771057Y-106656883D01*
X235507808Y-106919673D01*
X235365162Y-107263201D01*
X235364838Y-107635167D01*
X234734839Y-107635167D01*
X234735162Y-107264833D01*
X234593117Y-106921057D01*
X234330327Y-106657808D01*
X233986799Y-106515162D01*
X233614833Y-106514838D01*
X233271057Y-106656883D01*
X233007808Y-106919673D01*
X232865162Y-107263201D01*
X232864838Y-107635167D01*
X232234839Y-107635167D01*
X232235162Y-107264833D01*
X232093117Y-106921057D01*
X231830327Y-106657808D01*
X231486799Y-106515162D01*
X231114833Y-106514838D01*
X230771057Y-106656883D01*
X230507808Y-106919673D01*
X230365162Y-107263201D01*
X230364838Y-107635167D01*
X229814753Y-107635167D01*
X229834838Y-107586799D01*
X229835162Y-107214833D01*
X229693117Y-106871057D01*
X229430327Y-106607808D01*
X229086799Y-106465162D01*
X228714833Y-106464838D01*
X228371057Y-106606883D01*
X228107808Y-106869673D01*
X227965162Y-107213201D01*
X227964838Y-107585167D01*
X216907464Y-107585167D01*
X216780327Y-107457808D01*
X216580838Y-107374972D01*
X216778943Y-107293117D01*
X217042192Y-107030327D01*
X217184838Y-106686799D01*
X217185162Y-106314833D01*
X217043117Y-105971057D01*
X216780327Y-105707808D01*
X216580838Y-105624972D01*
X216778943Y-105543117D01*
X217042192Y-105280327D01*
X217184838Y-104936799D01*
X217185162Y-104564833D01*
X217043117Y-104221057D01*
X216780327Y-103957808D01*
X216580838Y-103874972D01*
X216778943Y-103793117D01*
X217042192Y-103530327D01*
X217184838Y-103186799D01*
X217185162Y-102814833D01*
X217043117Y-102471057D01*
X216780327Y-102207808D01*
X216580838Y-102124972D01*
X216778943Y-102043117D01*
X217042192Y-101780327D01*
X217184838Y-101436799D01*
X217185162Y-101064833D01*
X217043117Y-100721057D01*
X217007290Y-100685167D01*
X228564838Y-100685167D01*
X228706883Y-101028943D01*
X228927709Y-101250155D01*
X228707808Y-101469673D01*
X228565162Y-101813201D01*
X228564838Y-102185167D01*
X228706883Y-102528943D01*
X228927709Y-102750155D01*
X228707808Y-102969673D01*
X228565162Y-103313201D01*
X228564838Y-103685167D01*
X228706883Y-104028943D01*
X228877579Y-104199937D01*
X228857808Y-104219673D01*
X228715162Y-104563201D01*
X228714838Y-104935167D01*
X228856883Y-105278943D01*
X229119673Y-105542192D01*
X229463201Y-105684838D01*
X229835167Y-105685162D01*
X230178943Y-105543117D01*
X230442192Y-105280327D01*
X230481706Y-105185167D01*
X235314838Y-105185167D01*
X235456883Y-105528943D01*
X235719673Y-105792192D01*
X236063201Y-105934838D01*
X236435167Y-105935162D01*
X236778943Y-105793117D01*
X237042192Y-105530327D01*
X237184838Y-105186799D01*
X237185162Y-104814833D01*
X237043117Y-104471057D01*
X236780327Y-104207808D01*
X236436799Y-104065162D01*
X236064833Y-104064838D01*
X235721057Y-104206883D01*
X235457808Y-104469673D01*
X235315162Y-104813201D01*
X235314838Y-105185167D01*
X230481706Y-105185167D01*
X230584838Y-104936799D01*
X230585162Y-104564833D01*
X230443117Y-104221057D01*
X230272421Y-104050063D01*
X230292192Y-104030327D01*
X230434838Y-103686799D01*
X230434839Y-103685167D01*
X242564838Y-103685167D01*
X242706883Y-104028943D01*
X242969673Y-104292192D01*
X243313201Y-104434838D01*
X243685167Y-104435162D01*
X244028943Y-104293117D01*
X244292192Y-104030327D01*
X244331706Y-103935167D01*
X248064838Y-103935167D01*
X248206883Y-104278943D01*
X248469673Y-104542192D01*
X248813201Y-104684838D01*
X249118353Y-104685104D01*
X249065162Y-104813201D01*
X249064838Y-105185167D01*
X249206883Y-105528943D01*
X249469673Y-105792192D01*
X249813201Y-105934838D01*
X250185167Y-105935162D01*
X250528943Y-105793117D01*
X250792192Y-105530327D01*
X250934838Y-105186799D01*
X250935100Y-104885167D01*
X254464838Y-104885167D01*
X254606883Y-105228943D01*
X254869673Y-105492192D01*
X255213201Y-105634838D01*
X255585167Y-105635162D01*
X255928943Y-105493117D01*
X256192192Y-105230327D01*
X256334838Y-104886799D01*
X256335162Y-104514833D01*
X256193117Y-104171057D01*
X255930327Y-103907808D01*
X255586799Y-103765162D01*
X255214833Y-103764838D01*
X254871057Y-103906883D01*
X254607808Y-104169673D01*
X254465162Y-104513201D01*
X254464838Y-104885167D01*
X250935100Y-104885167D01*
X250935162Y-104814833D01*
X250793117Y-104471057D01*
X250530327Y-104207808D01*
X250186799Y-104065162D01*
X249881647Y-104064896D01*
X249934838Y-103936799D01*
X249935162Y-103564833D01*
X249793117Y-103221057D01*
X249530327Y-102957808D01*
X249186799Y-102815162D01*
X248814833Y-102814838D01*
X248471057Y-102956883D01*
X248207808Y-103219673D01*
X248065162Y-103563201D01*
X248064838Y-103935167D01*
X244331706Y-103935167D01*
X244434838Y-103686799D01*
X244435162Y-103314833D01*
X244293117Y-102971057D01*
X244030327Y-102707808D01*
X243686799Y-102565162D01*
X243314833Y-102564838D01*
X242971057Y-102706883D01*
X242707808Y-102969673D01*
X242565162Y-103313201D01*
X242564838Y-103685167D01*
X230434839Y-103685167D01*
X230435162Y-103314833D01*
X230293117Y-102971057D01*
X230072291Y-102749845D01*
X230292192Y-102530327D01*
X230434838Y-102186799D01*
X230435162Y-101814833D01*
X230293117Y-101471057D01*
X230107552Y-101285167D01*
X234714838Y-101285167D01*
X234856883Y-101628943D01*
X235119673Y-101892192D01*
X235437236Y-102024056D01*
X235317172Y-102313201D01*
X235316848Y-102685167D01*
X235458893Y-103028943D01*
X235721683Y-103292192D01*
X236065211Y-103434838D01*
X236437177Y-103435162D01*
X236780953Y-103293117D01*
X237044202Y-103030327D01*
X237186848Y-102686799D01*
X237186850Y-102684946D01*
X237435167Y-102685162D01*
X237778943Y-102543117D01*
X238042192Y-102280327D01*
X238184838Y-101936799D01*
X238185162Y-101564833D01*
X238131564Y-101435115D01*
X238185167Y-101435162D01*
X238528943Y-101293117D01*
X238792192Y-101030327D01*
X238934838Y-100686799D01*
X238934929Y-100581963D01*
X239028943Y-100543117D01*
X239292192Y-100280327D01*
X239434838Y-99936799D01*
X239435162Y-99564833D01*
X239293117Y-99221057D01*
X239030327Y-98957808D01*
X238686799Y-98815162D01*
X238314833Y-98814838D01*
X237971057Y-98956883D01*
X237707808Y-99219673D01*
X237565162Y-99563201D01*
X237565071Y-99668037D01*
X237471057Y-99706883D01*
X237207808Y-99969673D01*
X237065162Y-100313201D01*
X237064838Y-100685167D01*
X237118436Y-100814885D01*
X237064833Y-100814838D01*
X236721057Y-100956883D01*
X236585007Y-101092696D01*
X236585162Y-100914833D01*
X236562443Y-100859849D01*
X236692192Y-100730327D01*
X236834838Y-100386799D01*
X236835162Y-100014833D01*
X236693117Y-99671057D01*
X236430327Y-99407808D01*
X236086799Y-99265162D01*
X235714833Y-99264838D01*
X235371057Y-99406883D01*
X235107808Y-99669673D01*
X234965162Y-100013201D01*
X234964838Y-100385167D01*
X234987557Y-100440151D01*
X234857808Y-100569673D01*
X234715162Y-100913201D01*
X234714838Y-101285167D01*
X230107552Y-101285167D01*
X230072291Y-101249845D01*
X230292192Y-101030327D01*
X230434838Y-100686799D01*
X230435162Y-100314833D01*
X230293117Y-99971057D01*
X230030327Y-99707808D01*
X229686799Y-99565162D01*
X229314833Y-99564838D01*
X228971057Y-99706883D01*
X228707808Y-99969673D01*
X228565162Y-100313201D01*
X228564838Y-100685167D01*
X217007290Y-100685167D01*
X216780327Y-100457808D01*
X216580838Y-100374972D01*
X216778943Y-100293117D01*
X217042192Y-100030327D01*
X217184838Y-99686799D01*
X217185162Y-99314833D01*
X217043117Y-98971057D01*
X216780327Y-98707808D01*
X216580838Y-98624972D01*
X216778943Y-98543117D01*
X217042192Y-98280327D01*
X217184838Y-97936799D01*
X217184970Y-97785167D01*
X229064838Y-97785167D01*
X229206883Y-98128943D01*
X229469673Y-98392192D01*
X229813201Y-98534838D01*
X230185167Y-98535162D01*
X230528943Y-98393117D01*
X230792192Y-98130327D01*
X230884839Y-97907210D01*
X230969673Y-97992192D01*
X231313201Y-98134838D01*
X231685167Y-98135162D01*
X232028943Y-97993117D01*
X232292192Y-97730327D01*
X232434838Y-97386799D01*
X232435162Y-97014833D01*
X232293117Y-96671057D01*
X232030327Y-96407808D01*
X231686799Y-96265162D01*
X231314833Y-96264838D01*
X230971057Y-96406883D01*
X230707808Y-96669673D01*
X230615161Y-96892790D01*
X230530327Y-96807808D01*
X230186799Y-96665162D01*
X229814833Y-96664838D01*
X229471057Y-96806883D01*
X229207808Y-97069673D01*
X229065162Y-97413201D01*
X229064838Y-97785167D01*
X217184970Y-97785167D01*
X217185162Y-97564833D01*
X217043117Y-97221057D01*
X216822291Y-96999845D01*
X217042192Y-96780327D01*
X217184838Y-96436799D01*
X217185162Y-96064833D01*
X217043117Y-95721057D01*
X216780327Y-95457808D01*
X216605391Y-95385167D01*
X220764838Y-95385167D01*
X220906883Y-95728943D01*
X221169673Y-95992192D01*
X221513201Y-96134838D01*
X221885167Y-96135162D01*
X222228943Y-95993117D01*
X222492192Y-95730327D01*
X222634838Y-95386799D01*
X222634928Y-95283352D01*
X222713201Y-95315854D01*
X223085167Y-95316178D01*
X223428943Y-95174133D01*
X223692192Y-94911343D01*
X223834838Y-94567815D01*
X223835162Y-94195849D01*
X223761470Y-94017501D01*
X223834838Y-93840812D01*
X223835162Y-93468846D01*
X223761470Y-93290498D01*
X223834838Y-93113809D01*
X223835162Y-92741843D01*
X223811745Y-92685167D01*
X224514838Y-92685167D01*
X224656883Y-93028943D01*
X224777710Y-93149981D01*
X224657808Y-93269673D01*
X224515162Y-93613201D01*
X224514838Y-93985167D01*
X224656883Y-94328943D01*
X224919673Y-94592192D01*
X225263201Y-94734838D01*
X225635167Y-94735162D01*
X225978943Y-94593117D01*
X226099981Y-94472290D01*
X226219673Y-94592192D01*
X226563201Y-94734838D01*
X226935167Y-94735162D01*
X227278943Y-94593117D01*
X227487256Y-94385167D01*
X230664838Y-94385167D01*
X230806883Y-94728943D01*
X231069673Y-94992192D01*
X231413201Y-95134838D01*
X231785167Y-95135162D01*
X232128943Y-94993117D01*
X232392192Y-94730327D01*
X232493991Y-94485167D01*
X233114838Y-94485167D01*
X233224359Y-94750228D01*
X233115162Y-95013201D01*
X233114838Y-95385167D01*
X233256883Y-95728943D01*
X233519673Y-95992192D01*
X233863201Y-96134838D01*
X234235167Y-96135162D01*
X234500228Y-96025641D01*
X234763201Y-96134838D01*
X235135167Y-96135162D01*
X235478943Y-95993117D01*
X235742192Y-95730327D01*
X235884838Y-95386799D01*
X235885162Y-95014833D01*
X235775641Y-94749772D01*
X235884838Y-94486799D01*
X235885162Y-94114833D01*
X235743117Y-93771057D01*
X235480327Y-93507808D01*
X235136799Y-93365162D01*
X234764833Y-93364838D01*
X234499772Y-93474359D01*
X234236799Y-93365162D01*
X233864833Y-93364838D01*
X233521057Y-93506883D01*
X233257808Y-93769673D01*
X233115162Y-94113201D01*
X233114838Y-94485167D01*
X232493991Y-94485167D01*
X232534838Y-94386799D01*
X232535162Y-94014833D01*
X232393117Y-93671057D01*
X232130327Y-93407808D01*
X231786799Y-93265162D01*
X231414833Y-93264838D01*
X231071057Y-93406883D01*
X230807808Y-93669673D01*
X230665162Y-94013201D01*
X230664838Y-94385167D01*
X227487256Y-94385167D01*
X227542192Y-94330327D01*
X227684838Y-93986799D01*
X227685162Y-93614833D01*
X227543117Y-93271057D01*
X227422290Y-93150019D01*
X227542192Y-93030327D01*
X227684838Y-92686799D01*
X227685162Y-92314833D01*
X227543117Y-91971057D01*
X227280327Y-91707808D01*
X226936799Y-91565162D01*
X226564833Y-91564838D01*
X226221057Y-91706883D01*
X226100019Y-91827710D01*
X225980327Y-91707808D01*
X225636799Y-91565162D01*
X225264833Y-91564838D01*
X224921057Y-91706883D01*
X224657808Y-91969673D01*
X224515162Y-92313201D01*
X224514838Y-92685167D01*
X223811745Y-92685167D01*
X223693117Y-92398067D01*
X223430327Y-92134818D01*
X223086799Y-91992172D01*
X222714833Y-91991848D01*
X222371057Y-92133893D01*
X222107808Y-92396683D01*
X221965162Y-92740211D01*
X221964838Y-93112177D01*
X222038530Y-93290525D01*
X221965162Y-93467214D01*
X221964838Y-93839180D01*
X222038530Y-94017528D01*
X221965162Y-94194217D01*
X221965072Y-94297664D01*
X221886799Y-94265162D01*
X221514833Y-94264838D01*
X221171057Y-94406883D01*
X220907808Y-94669673D01*
X220765162Y-95013201D01*
X220764838Y-95385167D01*
X216605391Y-95385167D01*
X216580838Y-95374972D01*
X216778943Y-95293117D01*
X217042192Y-95030327D01*
X217184838Y-94686799D01*
X217185162Y-94314833D01*
X217043117Y-93971057D01*
X216780327Y-93707808D01*
X216580838Y-93624972D01*
X216778943Y-93543117D01*
X217042192Y-93280327D01*
X217184838Y-92936799D01*
X217185162Y-92564833D01*
X217043117Y-92221057D01*
X216780327Y-91957808D01*
X216580838Y-91874972D01*
X216778943Y-91793117D01*
X217042192Y-91530327D01*
X217184838Y-91186799D01*
X217185162Y-90814833D01*
X217043117Y-90471057D01*
X216780327Y-90207808D01*
X216580838Y-90124972D01*
X216778943Y-90043117D01*
X217042192Y-89780327D01*
X217184838Y-89436799D01*
X217185162Y-89064833D01*
X217043117Y-88721057D01*
X216780327Y-88457808D01*
X216580838Y-88374972D01*
X216778943Y-88293117D01*
X217042192Y-88030327D01*
X217184838Y-87686799D01*
X217185162Y-87314833D01*
X217069946Y-87035988D01*
X217184838Y-86759299D01*
X217185162Y-86387333D01*
X217043117Y-86043557D01*
X216780327Y-85780308D01*
X216436799Y-85637662D01*
X216064833Y-85637338D01*
X215721057Y-85779383D01*
X215457808Y-86042173D01*
X215315162Y-86385701D01*
X215314838Y-86757667D01*
X208127000Y-86757667D01*
X208127000Y-85127198D01*
X239972575Y-85176802D01*
X239972575Y-85176802D01*
G37*
X239972575Y-85176802D02*
X239967497Y-86695130D01*
X239880327Y-86607808D01*
X239536799Y-86465162D01*
X239164833Y-86464838D01*
X238821057Y-86606883D01*
X238557808Y-86869673D01*
X238415162Y-87213201D01*
X238414838Y-87585167D01*
X238556883Y-87928943D01*
X238819673Y-88192192D01*
X239163201Y-88334838D01*
X239535167Y-88335162D01*
X239878943Y-88193117D01*
X239962767Y-88109439D01*
X239951483Y-91483324D01*
X239843117Y-91221057D01*
X239580327Y-90957808D01*
X239236799Y-90815162D01*
X238864833Y-90814838D01*
X238521057Y-90956883D01*
X238257808Y-91219673D01*
X238115162Y-91563201D01*
X238114838Y-91935167D01*
X238256883Y-92278943D01*
X238519673Y-92542192D01*
X238863201Y-92684838D01*
X239235167Y-92685162D01*
X239578943Y-92543117D01*
X239842192Y-92280327D01*
X239949683Y-92021460D01*
X239923001Y-99999575D01*
X239932841Y-100049019D01*
X239961143Y-100090738D01*
X240003445Y-100118160D01*
X240050000Y-100127000D01*
X243914389Y-100127000D01*
X243721057Y-100206883D01*
X243457808Y-100469673D01*
X243315162Y-100813201D01*
X243314838Y-101185167D01*
X243456883Y-101528943D01*
X243719673Y-101792192D01*
X244063201Y-101934838D01*
X244435167Y-101935162D01*
X244778943Y-101793117D01*
X245042192Y-101530327D01*
X245081706Y-101435167D01*
X250064838Y-101435167D01*
X250206883Y-101778943D01*
X250469673Y-102042192D01*
X250813201Y-102184838D01*
X251185167Y-102185162D01*
X251528943Y-102043117D01*
X251792192Y-101780327D01*
X251934838Y-101436799D01*
X251935162Y-101064833D01*
X251793117Y-100721057D01*
X251530327Y-100457808D01*
X251186799Y-100315162D01*
X250814833Y-100314838D01*
X250471057Y-100456883D01*
X250207808Y-100719673D01*
X250065162Y-101063201D01*
X250064838Y-101435167D01*
X245081706Y-101435167D01*
X245184838Y-101186799D01*
X245185162Y-100814833D01*
X245043117Y-100471057D01*
X244780327Y-100207808D01*
X244585721Y-100127000D01*
X246342480Y-100127000D01*
X246265162Y-100313201D01*
X246264838Y-100685167D01*
X246406883Y-101028943D01*
X246669673Y-101292192D01*
X247013201Y-101434838D01*
X247385167Y-101435162D01*
X247728943Y-101293117D01*
X247992192Y-101030327D01*
X248134838Y-100686799D01*
X248135162Y-100314833D01*
X248057551Y-100127000D01*
X256873397Y-100127000D01*
X256922603Y-115873000D01*
X240100000Y-115873000D01*
X240050590Y-115883006D01*
X240040354Y-115890000D01*
X218914092Y-115890000D01*
X208205844Y-115873321D01*
X208278943Y-115843117D01*
X208542192Y-115580327D01*
X208684838Y-115236799D01*
X208685162Y-114864833D01*
X208543117Y-114521057D01*
X208280327Y-114257808D01*
X208127000Y-114194141D01*
X208127000Y-113186758D01*
X208363201Y-113284838D01*
X208735167Y-113285162D01*
X209078943Y-113143117D01*
X209342192Y-112880327D01*
X209484838Y-112536799D01*
X209485162Y-112164833D01*
X209343117Y-111821057D01*
X209080327Y-111557808D01*
X208736799Y-111415162D01*
X208364833Y-111414838D01*
X208127000Y-111513108D01*
X208127000Y-110435167D01*
X209814838Y-110435167D01*
X209956883Y-110778943D01*
X210219673Y-111042192D01*
X210563201Y-111184838D01*
X210935167Y-111185162D01*
X211278943Y-111043117D01*
X211542192Y-110780327D01*
X211684838Y-110436799D01*
X211685162Y-110064833D01*
X211543117Y-109721057D01*
X211280327Y-109457808D01*
X210936799Y-109315162D01*
X210564833Y-109314838D01*
X210221057Y-109456883D01*
X209957808Y-109719673D01*
X209815162Y-110063201D01*
X209814838Y-110435167D01*
X208127000Y-110435167D01*
X208127000Y-97893920D01*
X208128943Y-97893117D01*
X208392192Y-97630327D01*
X208534838Y-97286799D01*
X208535162Y-96914833D01*
X208461470Y-96736485D01*
X208465084Y-96727781D01*
X208506883Y-96828943D01*
X208769673Y-97092192D01*
X209113201Y-97234838D01*
X209485167Y-97235162D01*
X209828943Y-97093117D01*
X210092192Y-96830327D01*
X210234838Y-96486799D01*
X210235162Y-96114833D01*
X210093117Y-95771057D01*
X209830327Y-95507808D01*
X209486799Y-95365162D01*
X209114833Y-95364838D01*
X208771057Y-95506883D01*
X208534917Y-95742612D01*
X208535162Y-95460827D01*
X208393117Y-95117051D01*
X208130327Y-94853802D01*
X208127000Y-94852421D01*
X208127000Y-86757667D01*
X215314838Y-86757667D01*
X215430054Y-87036512D01*
X215315162Y-87313201D01*
X215314838Y-87685167D01*
X215456883Y-88028943D01*
X215719673Y-88292192D01*
X215919162Y-88375028D01*
X215721057Y-88456883D01*
X215457808Y-88719673D01*
X215315162Y-89063201D01*
X215314838Y-89435167D01*
X215456883Y-89778943D01*
X215719673Y-90042192D01*
X215919162Y-90125028D01*
X215721057Y-90206883D01*
X215457808Y-90469673D01*
X215315162Y-90813201D01*
X215314838Y-91185167D01*
X215456883Y-91528943D01*
X215719673Y-91792192D01*
X215919162Y-91875028D01*
X215721057Y-91956883D01*
X215457808Y-92219673D01*
X215315162Y-92563201D01*
X215314838Y-92935167D01*
X215456883Y-93278943D01*
X215719673Y-93542192D01*
X215919162Y-93625028D01*
X215721057Y-93706883D01*
X215457808Y-93969673D01*
X215315162Y-94313201D01*
X215314838Y-94685167D01*
X215456883Y-95028943D01*
X215719673Y-95292192D01*
X215919162Y-95375028D01*
X215721057Y-95456883D01*
X215457808Y-95719673D01*
X215315162Y-96063201D01*
X215314838Y-96435167D01*
X215456883Y-96778943D01*
X215677709Y-97000155D01*
X215457808Y-97219673D01*
X215315162Y-97563201D01*
X215314838Y-97935167D01*
X215456883Y-98278943D01*
X215719673Y-98542192D01*
X215919162Y-98625028D01*
X215721057Y-98706883D01*
X215457808Y-98969673D01*
X215315162Y-99313201D01*
X215314838Y-99685167D01*
X215456883Y-100028943D01*
X215719673Y-100292192D01*
X215919162Y-100375028D01*
X215721057Y-100456883D01*
X215457808Y-100719673D01*
X215315162Y-101063201D01*
X215314838Y-101435167D01*
X215456883Y-101778943D01*
X215719673Y-102042192D01*
X215919162Y-102125028D01*
X215721057Y-102206883D01*
X215457808Y-102469673D01*
X215315162Y-102813201D01*
X215314838Y-103185167D01*
X215456883Y-103528943D01*
X215719673Y-103792192D01*
X215919162Y-103875028D01*
X215721057Y-103956883D01*
X215457808Y-104219673D01*
X215315162Y-104563201D01*
X215314838Y-104935167D01*
X215456883Y-105278943D01*
X215719673Y-105542192D01*
X215919162Y-105625028D01*
X215721057Y-105706883D01*
X215457808Y-105969673D01*
X215315162Y-106313201D01*
X215314838Y-106685167D01*
X215456883Y-107028943D01*
X215719673Y-107292192D01*
X215919162Y-107375028D01*
X215721057Y-107456883D01*
X215457808Y-107719673D01*
X215315162Y-108063201D01*
X215314838Y-108435167D01*
X215456883Y-108778943D01*
X215719673Y-109042192D01*
X215919162Y-109125028D01*
X215721057Y-109206883D01*
X215457808Y-109469673D01*
X215315162Y-109813201D01*
X215314838Y-110185167D01*
X215456883Y-110528943D01*
X215719673Y-110792192D01*
X215919162Y-110875028D01*
X215721057Y-110956883D01*
X215457808Y-111219673D01*
X215315162Y-111563201D01*
X215314838Y-111935167D01*
X215456883Y-112278943D01*
X215719673Y-112542192D01*
X215919162Y-112625028D01*
X215721057Y-112706883D01*
X215457808Y-112969673D01*
X215315162Y-113313201D01*
X215314838Y-113685167D01*
X215456883Y-114028943D01*
X215719673Y-114292192D01*
X216063201Y-114434838D01*
X216435167Y-114435162D01*
X216778943Y-114293117D01*
X216887081Y-114185167D01*
X228664838Y-114185167D01*
X228806883Y-114528943D01*
X229069673Y-114792192D01*
X229413201Y-114934838D01*
X229785167Y-114935162D01*
X230128943Y-114793117D01*
X230392192Y-114530327D01*
X230534838Y-114186799D01*
X230534839Y-114185167D01*
X231264838Y-114185167D01*
X231406883Y-114528943D01*
X231669673Y-114792192D01*
X232013201Y-114934838D01*
X232385167Y-114935162D01*
X232728943Y-114793117D01*
X232992192Y-114530327D01*
X233134838Y-114186799D01*
X233135013Y-113985167D01*
X233664838Y-113985167D01*
X233806883Y-114328943D01*
X234069673Y-114592192D01*
X234413201Y-114734838D01*
X234785167Y-114735162D01*
X235128943Y-114593117D01*
X235392192Y-114330327D01*
X235534838Y-113986799D01*
X235534839Y-113985167D01*
X236264838Y-113985167D01*
X236406883Y-114328943D01*
X236669673Y-114592192D01*
X237013201Y-114734838D01*
X237385167Y-114735162D01*
X237728943Y-114593117D01*
X237992192Y-114330327D01*
X238134838Y-113986799D01*
X238134839Y-113985167D01*
X238764838Y-113985167D01*
X238906883Y-114328943D01*
X239169673Y-114592192D01*
X239513201Y-114734838D01*
X239885167Y-114735162D01*
X240228943Y-114593117D01*
X240492192Y-114330327D01*
X240634838Y-113986799D01*
X240634839Y-113985167D01*
X241264838Y-113985167D01*
X241406883Y-114328943D01*
X241669673Y-114592192D01*
X242013201Y-114734838D01*
X242385167Y-114735162D01*
X242728943Y-114593117D01*
X242992192Y-114330327D01*
X243134838Y-113986799D01*
X243135162Y-113614833D01*
X243043548Y-113393109D01*
X244474657Y-113393109D01*
X244776218Y-114122943D01*
X245334120Y-114681819D01*
X246063427Y-114984654D01*
X246853109Y-114985343D01*
X247582943Y-114683782D01*
X248141819Y-114125880D01*
X248444654Y-113396573D01*
X248445218Y-112750000D01*
X253102560Y-112750000D01*
X253102560Y-115150000D01*
X253146838Y-115385317D01*
X253285910Y-115601441D01*
X253498110Y-115746431D01*
X253750000Y-115797440D01*
X256150000Y-115797440D01*
X256385317Y-115753162D01*
X256601441Y-115614090D01*
X256746431Y-115401890D01*
X256797440Y-115150000D01*
X256797440Y-112750000D01*
X256753162Y-112514683D01*
X256614090Y-112298559D01*
X256401890Y-112153569D01*
X256150000Y-112102560D01*
X255755712Y-112102560D01*
X255988086Y-112006545D01*
X256504730Y-111490801D01*
X256784681Y-110816605D01*
X256785318Y-110086597D01*
X256506545Y-109411914D01*
X255990801Y-108895270D01*
X255316605Y-108615319D01*
X254586597Y-108614682D01*
X253911914Y-108893455D01*
X253395270Y-109409199D01*
X253115319Y-110083395D01*
X253114682Y-110813403D01*
X253393455Y-111488086D01*
X253909199Y-112004730D01*
X254144799Y-112102560D01*
X253750000Y-112102560D01*
X253514683Y-112146838D01*
X253298559Y-112285910D01*
X253153569Y-112498110D01*
X253102560Y-112750000D01*
X248445218Y-112750000D01*
X248445343Y-112606891D01*
X248143782Y-111877057D01*
X247585880Y-111318181D01*
X246856573Y-111015346D01*
X246066891Y-111014657D01*
X245337057Y-111316218D01*
X244778181Y-111874120D01*
X244475346Y-112603427D01*
X244474657Y-113393109D01*
X243043548Y-113393109D01*
X242993117Y-113271057D01*
X242730327Y-113007808D01*
X242386799Y-112865162D01*
X242014833Y-112864838D01*
X241671057Y-113006883D01*
X241407808Y-113269673D01*
X241265162Y-113613201D01*
X241264838Y-113985167D01*
X240634839Y-113985167D01*
X240635162Y-113614833D01*
X240493117Y-113271057D01*
X240230327Y-113007808D01*
X239886799Y-112865162D01*
X239514833Y-112864838D01*
X239171057Y-113006883D01*
X238907808Y-113269673D01*
X238765162Y-113613201D01*
X238764838Y-113985167D01*
X238134839Y-113985167D01*
X238135162Y-113614833D01*
X237993117Y-113271057D01*
X237730327Y-113007808D01*
X237386799Y-112865162D01*
X237014833Y-112864838D01*
X236671057Y-113006883D01*
X236407808Y-113269673D01*
X236265162Y-113613201D01*
X236264838Y-113985167D01*
X235534839Y-113985167D01*
X235535162Y-113614833D01*
X235393117Y-113271057D01*
X235130327Y-113007808D01*
X234786799Y-112865162D01*
X234414833Y-112864838D01*
X234071057Y-113006883D01*
X233807808Y-113269673D01*
X233665162Y-113613201D01*
X233664838Y-113985167D01*
X233135013Y-113985167D01*
X233135162Y-113814833D01*
X232993117Y-113471057D01*
X232730327Y-113207808D01*
X232386799Y-113065162D01*
X232014833Y-113064838D01*
X231671057Y-113206883D01*
X231407808Y-113469673D01*
X231265162Y-113813201D01*
X231264838Y-114185167D01*
X230534839Y-114185167D01*
X230535162Y-113814833D01*
X230393117Y-113471057D01*
X230130327Y-113207808D01*
X229786799Y-113065162D01*
X229414833Y-113064838D01*
X229071057Y-113206883D01*
X228807808Y-113469673D01*
X228665162Y-113813201D01*
X228664838Y-114185167D01*
X216887081Y-114185167D01*
X217042192Y-114030327D01*
X217184838Y-113686799D01*
X217185135Y-113345167D01*
X222824838Y-113345167D01*
X222966883Y-113688943D01*
X223229673Y-113952192D01*
X223573201Y-114094838D01*
X223945167Y-114095162D01*
X224267410Y-113962014D01*
X224563201Y-114084838D01*
X224935167Y-114085162D01*
X225188150Y-113980632D01*
X225209673Y-114002192D01*
X225553201Y-114144838D01*
X225925167Y-114145162D01*
X226268943Y-114003117D01*
X226532192Y-113740327D01*
X226674838Y-113396799D01*
X226675162Y-113024833D01*
X226533117Y-112681057D01*
X226270327Y-112417808D01*
X225926799Y-112275162D01*
X225554833Y-112274838D01*
X225301850Y-112379368D01*
X225280327Y-112357808D01*
X224936799Y-112215162D01*
X224564833Y-112214838D01*
X224242590Y-112347986D01*
X223946799Y-112225162D01*
X223574833Y-112224838D01*
X223231057Y-112366883D01*
X222967808Y-112629673D01*
X222825162Y-112973201D01*
X222824838Y-113345167D01*
X217185135Y-113345167D01*
X217185162Y-113314833D01*
X217043117Y-112971057D01*
X216780327Y-112707808D01*
X216580838Y-112624972D01*
X216778943Y-112543117D01*
X217042192Y-112280327D01*
X217184838Y-111936799D01*
X217185162Y-111564833D01*
X217043117Y-111221057D01*
X216957377Y-111135167D01*
X223814838Y-111135167D01*
X223956883Y-111478943D01*
X224219673Y-111742192D01*
X224563201Y-111884838D01*
X224935167Y-111885162D01*
X225278943Y-111743117D01*
X225542192Y-111480327D01*
X225684838Y-111136799D01*
X225685162Y-110764833D01*
X225543117Y-110421057D01*
X225280327Y-110157808D01*
X224936799Y-110015162D01*
X224564833Y-110014838D01*
X224221057Y-110156883D01*
X223957808Y-110419673D01*
X223815162Y-110763201D01*
X223814838Y-111135167D01*
X216957377Y-111135167D01*
X216780327Y-110957808D01*
X216580838Y-110874972D01*
X216778943Y-110793117D01*
X217042192Y-110530327D01*
X217184838Y-110186799D01*
X217185162Y-109814833D01*
X217043117Y-109471057D01*
X216780327Y-109207808D01*
X216580838Y-109124972D01*
X216778943Y-109043117D01*
X217042192Y-108780327D01*
X217184838Y-108436799D01*
X217185162Y-108064833D01*
X217043117Y-107721057D01*
X216907464Y-107585167D01*
X227964838Y-107585167D01*
X228106883Y-107928943D01*
X228369673Y-108192192D01*
X228713201Y-108334838D01*
X229085167Y-108335162D01*
X229428943Y-108193117D01*
X229692192Y-107930327D01*
X229814753Y-107635167D01*
X230364838Y-107635167D01*
X230506883Y-107978943D01*
X230769673Y-108242192D01*
X231113201Y-108384838D01*
X231485167Y-108385162D01*
X231828943Y-108243117D01*
X232092192Y-107980327D01*
X232234838Y-107636799D01*
X232234839Y-107635167D01*
X232864838Y-107635167D01*
X233006883Y-107978943D01*
X233269673Y-108242192D01*
X233613201Y-108384838D01*
X233985167Y-108385162D01*
X234328943Y-108243117D01*
X234592192Y-107980327D01*
X234734838Y-107636799D01*
X234734839Y-107635167D01*
X235364838Y-107635167D01*
X235506883Y-107978943D01*
X235769673Y-108242192D01*
X236113201Y-108384838D01*
X236485167Y-108385162D01*
X236828943Y-108243117D01*
X237092192Y-107980327D01*
X237234838Y-107636799D01*
X237234839Y-107635167D01*
X237864838Y-107635167D01*
X238006883Y-107978943D01*
X238269673Y-108242192D01*
X238613201Y-108384838D01*
X238985167Y-108385162D01*
X239328943Y-108243117D01*
X239592192Y-107980327D01*
X239734838Y-107636799D01*
X239734839Y-107635167D01*
X240114838Y-107635167D01*
X240256883Y-107978943D01*
X240519673Y-108242192D01*
X240863201Y-108384838D01*
X241235167Y-108385162D01*
X241578943Y-108243117D01*
X241842192Y-107980327D01*
X241984838Y-107636799D01*
X241985162Y-107264833D01*
X241843117Y-106921057D01*
X241580327Y-106657808D01*
X241236799Y-106515162D01*
X240864833Y-106514838D01*
X240521057Y-106656883D01*
X240257808Y-106919673D01*
X240115162Y-107263201D01*
X240114838Y-107635167D01*
X239734839Y-107635167D01*
X239735162Y-107264833D01*
X239593117Y-106921057D01*
X239330327Y-106657808D01*
X238986799Y-106515162D01*
X238614833Y-106514838D01*
X238271057Y-106656883D01*
X238007808Y-106919673D01*
X237865162Y-107263201D01*
X237864838Y-107635167D01*
X237234839Y-107635167D01*
X237235162Y-107264833D01*
X237093117Y-106921057D01*
X236830327Y-106657808D01*
X236486799Y-106515162D01*
X236114833Y-106514838D01*
X235771057Y-106656883D01*
X235507808Y-106919673D01*
X235365162Y-107263201D01*
X235364838Y-107635167D01*
X234734839Y-107635167D01*
X234735162Y-107264833D01*
X234593117Y-106921057D01*
X234330327Y-106657808D01*
X233986799Y-106515162D01*
X233614833Y-106514838D01*
X233271057Y-106656883D01*
X233007808Y-106919673D01*
X232865162Y-107263201D01*
X232864838Y-107635167D01*
X232234839Y-107635167D01*
X232235162Y-107264833D01*
X232093117Y-106921057D01*
X231830327Y-106657808D01*
X231486799Y-106515162D01*
X231114833Y-106514838D01*
X230771057Y-106656883D01*
X230507808Y-106919673D01*
X230365162Y-107263201D01*
X230364838Y-107635167D01*
X229814753Y-107635167D01*
X229834838Y-107586799D01*
X229835162Y-107214833D01*
X229693117Y-106871057D01*
X229430327Y-106607808D01*
X229086799Y-106465162D01*
X228714833Y-106464838D01*
X228371057Y-106606883D01*
X228107808Y-106869673D01*
X227965162Y-107213201D01*
X227964838Y-107585167D01*
X216907464Y-107585167D01*
X216780327Y-107457808D01*
X216580838Y-107374972D01*
X216778943Y-107293117D01*
X217042192Y-107030327D01*
X217184838Y-106686799D01*
X217185162Y-106314833D01*
X217043117Y-105971057D01*
X216780327Y-105707808D01*
X216580838Y-105624972D01*
X216778943Y-105543117D01*
X217042192Y-105280327D01*
X217184838Y-104936799D01*
X217185162Y-104564833D01*
X217043117Y-104221057D01*
X216780327Y-103957808D01*
X216580838Y-103874972D01*
X216778943Y-103793117D01*
X217042192Y-103530327D01*
X217184838Y-103186799D01*
X217185162Y-102814833D01*
X217043117Y-102471057D01*
X216780327Y-102207808D01*
X216580838Y-102124972D01*
X216778943Y-102043117D01*
X217042192Y-101780327D01*
X217184838Y-101436799D01*
X217185162Y-101064833D01*
X217043117Y-100721057D01*
X217007290Y-100685167D01*
X228564838Y-100685167D01*
X228706883Y-101028943D01*
X228927709Y-101250155D01*
X228707808Y-101469673D01*
X228565162Y-101813201D01*
X228564838Y-102185167D01*
X228706883Y-102528943D01*
X228927709Y-102750155D01*
X228707808Y-102969673D01*
X228565162Y-103313201D01*
X228564838Y-103685167D01*
X228706883Y-104028943D01*
X228877579Y-104199937D01*
X228857808Y-104219673D01*
X228715162Y-104563201D01*
X228714838Y-104935167D01*
X228856883Y-105278943D01*
X229119673Y-105542192D01*
X229463201Y-105684838D01*
X229835167Y-105685162D01*
X230178943Y-105543117D01*
X230442192Y-105280327D01*
X230481706Y-105185167D01*
X235314838Y-105185167D01*
X235456883Y-105528943D01*
X235719673Y-105792192D01*
X236063201Y-105934838D01*
X236435167Y-105935162D01*
X236778943Y-105793117D01*
X237042192Y-105530327D01*
X237184838Y-105186799D01*
X237185162Y-104814833D01*
X237043117Y-104471057D01*
X236780327Y-104207808D01*
X236436799Y-104065162D01*
X236064833Y-104064838D01*
X235721057Y-104206883D01*
X235457808Y-104469673D01*
X235315162Y-104813201D01*
X235314838Y-105185167D01*
X230481706Y-105185167D01*
X230584838Y-104936799D01*
X230585162Y-104564833D01*
X230443117Y-104221057D01*
X230272421Y-104050063D01*
X230292192Y-104030327D01*
X230434838Y-103686799D01*
X230434839Y-103685167D01*
X242564838Y-103685167D01*
X242706883Y-104028943D01*
X242969673Y-104292192D01*
X243313201Y-104434838D01*
X243685167Y-104435162D01*
X244028943Y-104293117D01*
X244292192Y-104030327D01*
X244331706Y-103935167D01*
X248064838Y-103935167D01*
X248206883Y-104278943D01*
X248469673Y-104542192D01*
X248813201Y-104684838D01*
X249118353Y-104685104D01*
X249065162Y-104813201D01*
X249064838Y-105185167D01*
X249206883Y-105528943D01*
X249469673Y-105792192D01*
X249813201Y-105934838D01*
X250185167Y-105935162D01*
X250528943Y-105793117D01*
X250792192Y-105530327D01*
X250934838Y-105186799D01*
X250935100Y-104885167D01*
X254464838Y-104885167D01*
X254606883Y-105228943D01*
X254869673Y-105492192D01*
X255213201Y-105634838D01*
X255585167Y-105635162D01*
X255928943Y-105493117D01*
X256192192Y-105230327D01*
X256334838Y-104886799D01*
X256335162Y-104514833D01*
X256193117Y-104171057D01*
X255930327Y-103907808D01*
X255586799Y-103765162D01*
X255214833Y-103764838D01*
X254871057Y-103906883D01*
X254607808Y-104169673D01*
X254465162Y-104513201D01*
X254464838Y-104885167D01*
X250935100Y-104885167D01*
X250935162Y-104814833D01*
X250793117Y-104471057D01*
X250530327Y-104207808D01*
X250186799Y-104065162D01*
X249881647Y-104064896D01*
X249934838Y-103936799D01*
X249935162Y-103564833D01*
X249793117Y-103221057D01*
X249530327Y-102957808D01*
X249186799Y-102815162D01*
X248814833Y-102814838D01*
X248471057Y-102956883D01*
X248207808Y-103219673D01*
X248065162Y-103563201D01*
X248064838Y-103935167D01*
X244331706Y-103935167D01*
X244434838Y-103686799D01*
X244435162Y-103314833D01*
X244293117Y-102971057D01*
X244030327Y-102707808D01*
X243686799Y-102565162D01*
X243314833Y-102564838D01*
X242971057Y-102706883D01*
X242707808Y-102969673D01*
X242565162Y-103313201D01*
X242564838Y-103685167D01*
X230434839Y-103685167D01*
X230435162Y-103314833D01*
X230293117Y-102971057D01*
X230072291Y-102749845D01*
X230292192Y-102530327D01*
X230434838Y-102186799D01*
X230435162Y-101814833D01*
X230293117Y-101471057D01*
X230107552Y-101285167D01*
X234714838Y-101285167D01*
X234856883Y-101628943D01*
X235119673Y-101892192D01*
X235437236Y-102024056D01*
X235317172Y-102313201D01*
X235316848Y-102685167D01*
X235458893Y-103028943D01*
X235721683Y-103292192D01*
X236065211Y-103434838D01*
X236437177Y-103435162D01*
X236780953Y-103293117D01*
X237044202Y-103030327D01*
X237186848Y-102686799D01*
X237186850Y-102684946D01*
X237435167Y-102685162D01*
X237778943Y-102543117D01*
X238042192Y-102280327D01*
X238184838Y-101936799D01*
X238185162Y-101564833D01*
X238131564Y-101435115D01*
X238185167Y-101435162D01*
X238528943Y-101293117D01*
X238792192Y-101030327D01*
X238934838Y-100686799D01*
X238934929Y-100581963D01*
X239028943Y-100543117D01*
X239292192Y-100280327D01*
X239434838Y-99936799D01*
X239435162Y-99564833D01*
X239293117Y-99221057D01*
X239030327Y-98957808D01*
X238686799Y-98815162D01*
X238314833Y-98814838D01*
X237971057Y-98956883D01*
X237707808Y-99219673D01*
X237565162Y-99563201D01*
X237565071Y-99668037D01*
X237471057Y-99706883D01*
X237207808Y-99969673D01*
X237065162Y-100313201D01*
X237064838Y-100685167D01*
X237118436Y-100814885D01*
X237064833Y-100814838D01*
X236721057Y-100956883D01*
X236585007Y-101092696D01*
X236585162Y-100914833D01*
X236562443Y-100859849D01*
X236692192Y-100730327D01*
X236834838Y-100386799D01*
X236835162Y-100014833D01*
X236693117Y-99671057D01*
X236430327Y-99407808D01*
X236086799Y-99265162D01*
X235714833Y-99264838D01*
X235371057Y-99406883D01*
X235107808Y-99669673D01*
X234965162Y-100013201D01*
X234964838Y-100385167D01*
X234987557Y-100440151D01*
X234857808Y-100569673D01*
X234715162Y-100913201D01*
X234714838Y-101285167D01*
X230107552Y-101285167D01*
X230072291Y-101249845D01*
X230292192Y-101030327D01*
X230434838Y-100686799D01*
X230435162Y-100314833D01*
X230293117Y-99971057D01*
X230030327Y-99707808D01*
X229686799Y-99565162D01*
X229314833Y-99564838D01*
X228971057Y-99706883D01*
X228707808Y-99969673D01*
X228565162Y-100313201D01*
X228564838Y-100685167D01*
X217007290Y-100685167D01*
X216780327Y-100457808D01*
X216580838Y-100374972D01*
X216778943Y-100293117D01*
X217042192Y-100030327D01*
X217184838Y-99686799D01*
X217185162Y-99314833D01*
X217043117Y-98971057D01*
X216780327Y-98707808D01*
X216580838Y-98624972D01*
X216778943Y-98543117D01*
X217042192Y-98280327D01*
X217184838Y-97936799D01*
X217184970Y-97785167D01*
X229064838Y-97785167D01*
X229206883Y-98128943D01*
X229469673Y-98392192D01*
X229813201Y-98534838D01*
X230185167Y-98535162D01*
X230528943Y-98393117D01*
X230792192Y-98130327D01*
X230884839Y-97907210D01*
X230969673Y-97992192D01*
X231313201Y-98134838D01*
X231685167Y-98135162D01*
X232028943Y-97993117D01*
X232292192Y-97730327D01*
X232434838Y-97386799D01*
X232435162Y-97014833D01*
X232293117Y-96671057D01*
X232030327Y-96407808D01*
X231686799Y-96265162D01*
X231314833Y-96264838D01*
X230971057Y-96406883D01*
X230707808Y-96669673D01*
X230615161Y-96892790D01*
X230530327Y-96807808D01*
X230186799Y-96665162D01*
X229814833Y-96664838D01*
X229471057Y-96806883D01*
X229207808Y-97069673D01*
X229065162Y-97413201D01*
X229064838Y-97785167D01*
X217184970Y-97785167D01*
X217185162Y-97564833D01*
X217043117Y-97221057D01*
X216822291Y-96999845D01*
X217042192Y-96780327D01*
X217184838Y-96436799D01*
X217185162Y-96064833D01*
X217043117Y-95721057D01*
X216780327Y-95457808D01*
X216605391Y-95385167D01*
X220764838Y-95385167D01*
X220906883Y-95728943D01*
X221169673Y-95992192D01*
X221513201Y-96134838D01*
X221885167Y-96135162D01*
X222228943Y-95993117D01*
X222492192Y-95730327D01*
X222634838Y-95386799D01*
X222634928Y-95283352D01*
X222713201Y-95315854D01*
X223085167Y-95316178D01*
X223428943Y-95174133D01*
X223692192Y-94911343D01*
X223834838Y-94567815D01*
X223835162Y-94195849D01*
X223761470Y-94017501D01*
X223834838Y-93840812D01*
X223835162Y-93468846D01*
X223761470Y-93290498D01*
X223834838Y-93113809D01*
X223835162Y-92741843D01*
X223811745Y-92685167D01*
X224514838Y-92685167D01*
X224656883Y-93028943D01*
X224777710Y-93149981D01*
X224657808Y-93269673D01*
X224515162Y-93613201D01*
X224514838Y-93985167D01*
X224656883Y-94328943D01*
X224919673Y-94592192D01*
X225263201Y-94734838D01*
X225635167Y-94735162D01*
X225978943Y-94593117D01*
X226099981Y-94472290D01*
X226219673Y-94592192D01*
X226563201Y-94734838D01*
X226935167Y-94735162D01*
X227278943Y-94593117D01*
X227487256Y-94385167D01*
X230664838Y-94385167D01*
X230806883Y-94728943D01*
X231069673Y-94992192D01*
X231413201Y-95134838D01*
X231785167Y-95135162D01*
X232128943Y-94993117D01*
X232392192Y-94730327D01*
X232493991Y-94485167D01*
X233114838Y-94485167D01*
X233224359Y-94750228D01*
X233115162Y-95013201D01*
X233114838Y-95385167D01*
X233256883Y-95728943D01*
X233519673Y-95992192D01*
X233863201Y-96134838D01*
X234235167Y-96135162D01*
X234500228Y-96025641D01*
X234763201Y-96134838D01*
X235135167Y-96135162D01*
X235478943Y-95993117D01*
X235742192Y-95730327D01*
X235884838Y-95386799D01*
X235885162Y-95014833D01*
X235775641Y-94749772D01*
X235884838Y-94486799D01*
X235885162Y-94114833D01*
X235743117Y-93771057D01*
X235480327Y-93507808D01*
X235136799Y-93365162D01*
X234764833Y-93364838D01*
X234499772Y-93474359D01*
X234236799Y-93365162D01*
X233864833Y-93364838D01*
X233521057Y-93506883D01*
X233257808Y-93769673D01*
X233115162Y-94113201D01*
X233114838Y-94485167D01*
X232493991Y-94485167D01*
X232534838Y-94386799D01*
X232535162Y-94014833D01*
X232393117Y-93671057D01*
X232130327Y-93407808D01*
X231786799Y-93265162D01*
X231414833Y-93264838D01*
X231071057Y-93406883D01*
X230807808Y-93669673D01*
X230665162Y-94013201D01*
X230664838Y-94385167D01*
X227487256Y-94385167D01*
X227542192Y-94330327D01*
X227684838Y-93986799D01*
X227685162Y-93614833D01*
X227543117Y-93271057D01*
X227422290Y-93150019D01*
X227542192Y-93030327D01*
X227684838Y-92686799D01*
X227685162Y-92314833D01*
X227543117Y-91971057D01*
X227280327Y-91707808D01*
X226936799Y-91565162D01*
X226564833Y-91564838D01*
X226221057Y-91706883D01*
X226100019Y-91827710D01*
X225980327Y-91707808D01*
X225636799Y-91565162D01*
X225264833Y-91564838D01*
X224921057Y-91706883D01*
X224657808Y-91969673D01*
X224515162Y-92313201D01*
X224514838Y-92685167D01*
X223811745Y-92685167D01*
X223693117Y-92398067D01*
X223430327Y-92134818D01*
X223086799Y-91992172D01*
X222714833Y-91991848D01*
X222371057Y-92133893D01*
X222107808Y-92396683D01*
X221965162Y-92740211D01*
X221964838Y-93112177D01*
X222038530Y-93290525D01*
X221965162Y-93467214D01*
X221964838Y-93839180D01*
X222038530Y-94017528D01*
X221965162Y-94194217D01*
X221965072Y-94297664D01*
X221886799Y-94265162D01*
X221514833Y-94264838D01*
X221171057Y-94406883D01*
X220907808Y-94669673D01*
X220765162Y-95013201D01*
X220764838Y-95385167D01*
X216605391Y-95385167D01*
X216580838Y-95374972D01*
X216778943Y-95293117D01*
X217042192Y-95030327D01*
X217184838Y-94686799D01*
X217185162Y-94314833D01*
X217043117Y-93971057D01*
X216780327Y-93707808D01*
X216580838Y-93624972D01*
X216778943Y-93543117D01*
X217042192Y-93280327D01*
X217184838Y-92936799D01*
X217185162Y-92564833D01*
X217043117Y-92221057D01*
X216780327Y-91957808D01*
X216580838Y-91874972D01*
X216778943Y-91793117D01*
X217042192Y-91530327D01*
X217184838Y-91186799D01*
X217185162Y-90814833D01*
X217043117Y-90471057D01*
X216780327Y-90207808D01*
X216580838Y-90124972D01*
X216778943Y-90043117D01*
X217042192Y-89780327D01*
X217184838Y-89436799D01*
X217185162Y-89064833D01*
X217043117Y-88721057D01*
X216780327Y-88457808D01*
X216580838Y-88374972D01*
X216778943Y-88293117D01*
X217042192Y-88030327D01*
X217184838Y-87686799D01*
X217185162Y-87314833D01*
X217069946Y-87035988D01*
X217184838Y-86759299D01*
X217185162Y-86387333D01*
X217043117Y-86043557D01*
X216780327Y-85780308D01*
X216436799Y-85637662D01*
X216064833Y-85637338D01*
X215721057Y-85779383D01*
X215457808Y-86042173D01*
X215315162Y-86385701D01*
X215314838Y-86757667D01*
X208127000Y-86757667D01*
X208127000Y-85127198D01*
X239972575Y-85176802D01*
G36*
X176699312Y-85330930D02*
X176573144Y-85634778D01*
X176572857Y-85963779D01*
X176698495Y-86267846D01*
X176930930Y-86500688D01*
X177234778Y-86626856D01*
X177563779Y-86627143D01*
X177867846Y-86501505D01*
X178100688Y-86269070D01*
X178226856Y-85965222D01*
X178227143Y-85636221D01*
X178101505Y-85332154D01*
X177896710Y-85127000D01*
X178373064Y-85127000D01*
X178372857Y-85363779D01*
X178470546Y-85600205D01*
X178373144Y-85834778D01*
X178372857Y-86163779D01*
X178498495Y-86467846D01*
X178730930Y-86700688D01*
X179034778Y-86826856D01*
X179363779Y-86827143D01*
X179667846Y-86701505D01*
X179900688Y-86469070D01*
X180026856Y-86165222D01*
X180026857Y-86163779D01*
X187672857Y-86163779D01*
X187798495Y-86467846D01*
X188030930Y-86700688D01*
X188334778Y-86826856D01*
X188663779Y-86827143D01*
X188967846Y-86701505D01*
X189200688Y-86469070D01*
X189326856Y-86165222D01*
X189327143Y-85836221D01*
X189201505Y-85532154D01*
X188969070Y-85299312D01*
X188665222Y-85173144D01*
X188336221Y-85172857D01*
X188032154Y-85298495D01*
X187799312Y-85530930D01*
X187673144Y-85834778D01*
X187672857Y-86163779D01*
X180026857Y-86163779D01*
X180027143Y-85836221D01*
X179929454Y-85599795D01*
X180026856Y-85365222D01*
X180027064Y-85127000D01*
X194428320Y-85127000D01*
X194548495Y-85417846D01*
X194780930Y-85650688D01*
X195084778Y-85776856D01*
X195413779Y-85777143D01*
X195717846Y-85651505D01*
X195950688Y-85419070D01*
X196071965Y-85127000D01*
X200873000Y-85127000D01*
X200873000Y-105203512D01*
X200719070Y-105049312D01*
X200415222Y-104923144D01*
X200086221Y-104922857D01*
X199782154Y-105048495D01*
X199549312Y-105280930D01*
X199423144Y-105584778D01*
X199422857Y-105913779D01*
X199548495Y-106217846D01*
X199780930Y-106450688D01*
X200084778Y-106576856D01*
X200413779Y-106577143D01*
X200717846Y-106451505D01*
X200950688Y-106219070D01*
X200989722Y-106125066D01*
X201000000Y-106127000D01*
X206873000Y-106127000D01*
X206873000Y-109703512D01*
X206719070Y-109549312D01*
X206415349Y-109423197D01*
X206467846Y-109401505D01*
X206700688Y-109169070D01*
X206826856Y-108865222D01*
X206827143Y-108536221D01*
X206701505Y-108232154D01*
X206469070Y-107999312D01*
X206165222Y-107873144D01*
X205836221Y-107872857D01*
X205532154Y-107998495D01*
X205299312Y-108230930D01*
X205173144Y-108534778D01*
X205172857Y-108863779D01*
X205298495Y-109167846D01*
X205530930Y-109400688D01*
X205834651Y-109526803D01*
X205782154Y-109548495D01*
X205549312Y-109780930D01*
X205423144Y-110084778D01*
X205422857Y-110413779D01*
X205548495Y-110717846D01*
X205780930Y-110950688D01*
X206084778Y-111076856D01*
X206413779Y-111077143D01*
X206717846Y-110951505D01*
X206873000Y-110796622D01*
X206873000Y-112973000D01*
X195449662Y-112973000D01*
X193990441Y-111513779D01*
X203122857Y-111513779D01*
X203248495Y-111817846D01*
X203480930Y-112050688D01*
X203784778Y-112176856D01*
X204113779Y-112177143D01*
X204417846Y-112051505D01*
X204650688Y-111819070D01*
X204776856Y-111515222D01*
X204777143Y-111186221D01*
X204651505Y-110882154D01*
X204419070Y-110649312D01*
X204115222Y-110523144D01*
X203786221Y-110522857D01*
X203482154Y-110648495D01*
X203249312Y-110880930D01*
X203123144Y-111184778D01*
X203122857Y-111513779D01*
X193990441Y-111513779D01*
X192650463Y-110173801D01*
X192317280Y-109951176D01*
X191924264Y-109873000D01*
X191500000Y-109873000D01*
X191106984Y-109951176D01*
X190773801Y-110173801D01*
X190551176Y-110506984D01*
X190473000Y-110900000D01*
X190551176Y-111293016D01*
X190773801Y-111626199D01*
X191106984Y-111848824D01*
X191498584Y-111926718D01*
X194298065Y-114726199D01*
X194631248Y-114948824D01*
X194873133Y-114996938D01*
X194872857Y-115313779D01*
X194998495Y-115617846D01*
X195230930Y-115850688D01*
X195284664Y-115873000D01*
X191869335Y-115873000D01*
X192100688Y-115642051D01*
X192226856Y-115338203D01*
X192227143Y-115009202D01*
X192101505Y-114705135D01*
X192032977Y-114636487D01*
X192200688Y-114469070D01*
X192326856Y-114165222D01*
X192327143Y-113836221D01*
X192201505Y-113532154D01*
X191969070Y-113299312D01*
X191665222Y-113173144D01*
X191336221Y-113172857D01*
X191032154Y-113298495D01*
X190799312Y-113530930D01*
X190673144Y-113834778D01*
X190672857Y-114163779D01*
X190798495Y-114467846D01*
X190867023Y-114536494D01*
X190699312Y-114703911D01*
X190573144Y-115007759D01*
X190573028Y-115140260D01*
X190313287Y-115400001D01*
X188729368Y-115400001D01*
X188826856Y-115165222D01*
X188827143Y-114836221D01*
X188701505Y-114532154D01*
X188469070Y-114299312D01*
X188165222Y-114173144D01*
X187836221Y-114172857D01*
X187599795Y-114270546D01*
X187365222Y-114173144D01*
X187036221Y-114172857D01*
X186732154Y-114298495D01*
X186650061Y-114380445D01*
X186569070Y-114299312D01*
X186265222Y-114173144D01*
X185936221Y-114172857D01*
X185632154Y-114298495D01*
X185399312Y-114530930D01*
X185273144Y-114834778D01*
X185272857Y-115163779D01*
X185370462Y-115400001D01*
X181127087Y-115400001D01*
X181127143Y-115336221D01*
X181001505Y-115032154D01*
X180769070Y-114799312D01*
X180465222Y-114673144D01*
X180136221Y-114672857D01*
X179832154Y-114798495D01*
X179599312Y-115030930D01*
X179473144Y-115334778D01*
X179473111Y-115373000D01*
X177723626Y-115373000D01*
X177726856Y-115365222D01*
X177727143Y-115036221D01*
X177601505Y-114732154D01*
X177369070Y-114499312D01*
X177065222Y-114373144D01*
X176736221Y-114372857D01*
X176432154Y-114498495D01*
X176199312Y-114730930D01*
X176073144Y-115034778D01*
X176072857Y-115363779D01*
X176076667Y-115373000D01*
X176059712Y-115373000D01*
X175027052Y-114340340D01*
X175027143Y-114236221D01*
X174901505Y-113932154D01*
X174669070Y-113699312D01*
X174365222Y-113573144D01*
X174036221Y-113572857D01*
X173732154Y-113698495D01*
X173499312Y-113930930D01*
X173373144Y-114234778D01*
X173372857Y-114563779D01*
X173498495Y-114867846D01*
X173730930Y-115100688D01*
X174034778Y-115226856D01*
X174140236Y-115226948D01*
X174786288Y-115873000D01*
X162127000Y-115873000D01*
X162127000Y-94356998D01*
X162293779Y-94357143D01*
X162597846Y-94231505D01*
X162830688Y-93999070D01*
X162956856Y-93695222D01*
X162957143Y-93366221D01*
X162831505Y-93062154D01*
X162599070Y-92829312D01*
X162295222Y-92703144D01*
X162127000Y-92702997D01*
X162127000Y-88645960D01*
X163190329Y-88645960D01*
X163340654Y-89009774D01*
X163415636Y-89084887D01*
X163341632Y-89158762D01*
X163190673Y-89522313D01*
X163190329Y-89915960D01*
X163340654Y-90279774D01*
X163415636Y-90354887D01*
X163341632Y-90428762D01*
X163190673Y-90792313D01*
X163190329Y-91185960D01*
X163340654Y-91549774D01*
X163415636Y-91624887D01*
X163341632Y-91698762D01*
X163190673Y-92062313D01*
X163190329Y-92455960D01*
X163340654Y-92819774D01*
X163415636Y-92894887D01*
X163341632Y-92968762D01*
X163190673Y-93332313D01*
X163190329Y-93725960D01*
X163340654Y-94089774D01*
X163415636Y-94164887D01*
X163341632Y-94238762D01*
X163190673Y-94602313D01*
X163190329Y-94995960D01*
X163340654Y-95359774D01*
X163415636Y-95434887D01*
X163341632Y-95508762D01*
X163190673Y-95872313D01*
X163190329Y-96265960D01*
X163340654Y-96629774D01*
X163415636Y-96704887D01*
X163341632Y-96778762D01*
X163190673Y-97142313D01*
X163190329Y-97535960D01*
X163340654Y-97899774D01*
X163415636Y-97974887D01*
X163341632Y-98048762D01*
X163190673Y-98412313D01*
X163190329Y-98805960D01*
X163340654Y-99169774D01*
X163415636Y-99244887D01*
X163341632Y-99318762D01*
X163190673Y-99682313D01*
X163190329Y-100075960D01*
X163340654Y-100439774D01*
X163415636Y-100514887D01*
X163341632Y-100588762D01*
X163190673Y-100952313D01*
X163190329Y-101345960D01*
X163340654Y-101709774D01*
X163415636Y-101784887D01*
X163341632Y-101858762D01*
X163190673Y-102222313D01*
X163190329Y-102615960D01*
X163340654Y-102979774D01*
X163415636Y-103054887D01*
X163341632Y-103128762D01*
X163190673Y-103492313D01*
X163190329Y-103885960D01*
X163340654Y-104249774D01*
X163415636Y-104324887D01*
X163341632Y-104398762D01*
X163190673Y-104762313D01*
X163190329Y-105155960D01*
X163340654Y-105519774D01*
X163415636Y-105594887D01*
X163341632Y-105668762D01*
X163190673Y-106032313D01*
X163190329Y-106425960D01*
X163340654Y-106789774D01*
X163415636Y-106864887D01*
X163341632Y-106938762D01*
X163190673Y-107302313D01*
X163190329Y-107695960D01*
X163340654Y-108059774D01*
X163415636Y-108134887D01*
X163341632Y-108208762D01*
X163190673Y-108572313D01*
X163190329Y-108965960D01*
X163340654Y-109329774D01*
X163415636Y-109404887D01*
X163341632Y-109478762D01*
X163190673Y-109842313D01*
X163190329Y-110235960D01*
X163340654Y-110599774D01*
X163415636Y-110674887D01*
X163341632Y-110748762D01*
X163190673Y-111112313D01*
X163190329Y-111505960D01*
X163340654Y-111869774D01*
X163415636Y-111944887D01*
X163341632Y-112018762D01*
X163190673Y-112382313D01*
X163190329Y-112775960D01*
X163340654Y-113139774D01*
X163618762Y-113418368D01*
X163982313Y-113569327D01*
X164375960Y-113569671D01*
X164739774Y-113419346D01*
X164814887Y-113344364D01*
X164888762Y-113418368D01*
X165252313Y-113569327D01*
X165645960Y-113569671D01*
X166009774Y-113419346D01*
X166057483Y-113371720D01*
X169122675Y-113371720D01*
X169407829Y-114061846D01*
X169935376Y-114590316D01*
X170625004Y-114876674D01*
X171371720Y-114877325D01*
X172061846Y-114592171D01*
X172590316Y-114064624D01*
X172876674Y-113374996D01*
X172877325Y-112628280D01*
X172592171Y-111938154D01*
X172542883Y-111888779D01*
X174597857Y-111888779D01*
X174723495Y-112192846D01*
X174955930Y-112425688D01*
X175259778Y-112551856D01*
X175588779Y-112552143D01*
X175892846Y-112426505D01*
X176125688Y-112194070D01*
X176251856Y-111890222D01*
X176251879Y-111863779D01*
X177572857Y-111863779D01*
X177698495Y-112167846D01*
X177930930Y-112400688D01*
X178234778Y-112526856D01*
X178563779Y-112527143D01*
X178867846Y-112401505D01*
X178995795Y-112273779D01*
X186442857Y-112273779D01*
X186568495Y-112577846D01*
X186695445Y-112705018D01*
X186569312Y-112830930D01*
X186443144Y-113134778D01*
X186442857Y-113463779D01*
X186568495Y-113767846D01*
X186800930Y-114000688D01*
X187104778Y-114126856D01*
X187433779Y-114127143D01*
X187685242Y-114023240D01*
X187934778Y-114126856D01*
X188263779Y-114127143D01*
X188567846Y-114001505D01*
X188800688Y-113769070D01*
X188926856Y-113465222D01*
X188927143Y-113136221D01*
X188801505Y-112832154D01*
X188674555Y-112704982D01*
X188760909Y-112618779D01*
X189227857Y-112618779D01*
X189353495Y-112922846D01*
X189585930Y-113155688D01*
X189889778Y-113281856D01*
X190218779Y-113282143D01*
X190522846Y-113156505D01*
X190755688Y-112924070D01*
X190881856Y-112620222D01*
X190882143Y-112291221D01*
X190756505Y-111987154D01*
X190524070Y-111754312D01*
X190220222Y-111628144D01*
X189891221Y-111627857D01*
X189587154Y-111753495D01*
X189354312Y-111985930D01*
X189228144Y-112289778D01*
X189227857Y-112618779D01*
X188760909Y-112618779D01*
X188800688Y-112579070D01*
X188926856Y-112275222D01*
X188927143Y-111946221D01*
X188801505Y-111642154D01*
X188614556Y-111454877D01*
X188800688Y-111269070D01*
X188926856Y-110965222D01*
X188927143Y-110636221D01*
X188801505Y-110332154D01*
X188569070Y-110099312D01*
X188265222Y-109973144D01*
X187936221Y-109972857D01*
X187699795Y-110070546D01*
X187465222Y-109973144D01*
X187136221Y-109972857D01*
X186832154Y-110098495D01*
X186599312Y-110330930D01*
X186473144Y-110634778D01*
X186472857Y-110963779D01*
X186598495Y-111267846D01*
X186770471Y-111440123D01*
X186569312Y-111640930D01*
X186443144Y-111944778D01*
X186442857Y-112273779D01*
X178995795Y-112273779D01*
X179100688Y-112169070D01*
X179226856Y-111865222D01*
X179227143Y-111536221D01*
X179101505Y-111232154D01*
X178869070Y-110999312D01*
X178565222Y-110873144D01*
X178236221Y-110872857D01*
X177932154Y-110998495D01*
X177699312Y-111230930D01*
X177573144Y-111534778D01*
X177572857Y-111863779D01*
X176251879Y-111863779D01*
X176252143Y-111561221D01*
X176126505Y-111257154D01*
X175894070Y-111024312D01*
X175590222Y-110898144D01*
X175261221Y-110897857D01*
X174957154Y-111023495D01*
X174724312Y-111255930D01*
X174598144Y-111559778D01*
X174597857Y-111888779D01*
X172542883Y-111888779D01*
X172064624Y-111409684D01*
X171374996Y-111123326D01*
X170628280Y-111122675D01*
X169938154Y-111407829D01*
X169409684Y-111935376D01*
X169123326Y-112625004D01*
X169122675Y-113371720D01*
X166057483Y-113371720D01*
X166288368Y-113141238D01*
X166439327Y-112777687D01*
X166439671Y-112384040D01*
X166289346Y-112020226D01*
X166214364Y-111945113D01*
X166288368Y-111871238D01*
X166439327Y-111507687D01*
X166439671Y-111114040D01*
X166289346Y-110750226D01*
X166214364Y-110675113D01*
X166288368Y-110601238D01*
X166439327Y-110237687D01*
X166439671Y-109844040D01*
X166323870Y-109563779D01*
X183272857Y-109563779D01*
X183398495Y-109867846D01*
X183630930Y-110100688D01*
X183934778Y-110226856D01*
X184263779Y-110227143D01*
X184567846Y-110101505D01*
X184800688Y-109869070D01*
X184926856Y-109565222D01*
X184926944Y-109463779D01*
X202572857Y-109463779D01*
X202698495Y-109767846D01*
X202930930Y-110000688D01*
X203234778Y-110126856D01*
X203563779Y-110127143D01*
X203867846Y-110001505D01*
X204100688Y-109769070D01*
X204226856Y-109465222D01*
X204227143Y-109136221D01*
X204101505Y-108832154D01*
X203869070Y-108599312D01*
X203565222Y-108473144D01*
X203236221Y-108472857D01*
X202932154Y-108598495D01*
X202699312Y-108830930D01*
X202573144Y-109134778D01*
X202572857Y-109463779D01*
X184926944Y-109463779D01*
X184927143Y-109236221D01*
X184801505Y-108932154D01*
X184569070Y-108699312D01*
X184265222Y-108573144D01*
X183936221Y-108572857D01*
X183632154Y-108698495D01*
X183399312Y-108930930D01*
X183273144Y-109234778D01*
X183272857Y-109563779D01*
X166323870Y-109563779D01*
X166289346Y-109480226D01*
X166214364Y-109405113D01*
X166288368Y-109331238D01*
X166439327Y-108967687D01*
X166439671Y-108574040D01*
X166289346Y-108210226D01*
X166214364Y-108135113D01*
X166288368Y-108061238D01*
X166335509Y-107947708D01*
X185972857Y-107947708D01*
X186098495Y-108251775D01*
X186330930Y-108484617D01*
X186634778Y-108610785D01*
X186963779Y-108611072D01*
X187267846Y-108485434D01*
X187500688Y-108252999D01*
X187567348Y-108092464D01*
X187598495Y-108167846D01*
X187830930Y-108400688D01*
X188134778Y-108526856D01*
X188463779Y-108527143D01*
X188767846Y-108401505D01*
X188908150Y-108261447D01*
X189130930Y-108484617D01*
X189434778Y-108610785D01*
X189763779Y-108611072D01*
X190067846Y-108485434D01*
X190300688Y-108252999D01*
X190400089Y-108013614D01*
X190498495Y-108251775D01*
X190730930Y-108484617D01*
X191034778Y-108610785D01*
X191363779Y-108611072D01*
X191667846Y-108485434D01*
X191900688Y-108252999D01*
X192026856Y-107949151D01*
X192026948Y-107843693D01*
X195516640Y-104354001D01*
X196272999Y-104354001D01*
X196512942Y-104306273D01*
X196631541Y-104227028D01*
X196763779Y-104227143D01*
X197067846Y-104101505D01*
X197249983Y-103919687D01*
X197280930Y-103950688D01*
X197584778Y-104076856D01*
X197913779Y-104077143D01*
X198217846Y-103951505D01*
X198450688Y-103719070D01*
X198576856Y-103415222D01*
X198577143Y-103086221D01*
X198451505Y-102782154D01*
X198219070Y-102549312D01*
X197915222Y-102423144D01*
X197586221Y-102422857D01*
X197282154Y-102548495D01*
X197100017Y-102730313D01*
X197069070Y-102699312D01*
X196765222Y-102573144D01*
X196436221Y-102572857D01*
X196228263Y-102658784D01*
X196069070Y-102499312D01*
X195765222Y-102373144D01*
X195436221Y-102372857D01*
X195132154Y-102498495D01*
X194971550Y-102658818D01*
X194827001Y-102598797D01*
X194827143Y-102436221D01*
X194701505Y-102132154D01*
X194469070Y-101899312D01*
X194165222Y-101773144D01*
X193836221Y-101772857D01*
X193532154Y-101898495D01*
X193299312Y-102130930D01*
X193173144Y-102434778D01*
X193172857Y-102763779D01*
X193298495Y-103067846D01*
X193363876Y-103133341D01*
X189540340Y-106956877D01*
X189436221Y-106956786D01*
X189132154Y-107082424D01*
X188991850Y-107222482D01*
X188769070Y-106999312D01*
X188465222Y-106873144D01*
X188136221Y-106872857D01*
X187832154Y-106998495D01*
X187599312Y-107230930D01*
X187532652Y-107391465D01*
X187501505Y-107316083D01*
X187269070Y-107083241D01*
X186965222Y-106957073D01*
X186636221Y-106956786D01*
X186332154Y-107082424D01*
X186099312Y-107314859D01*
X185973144Y-107618707D01*
X185972857Y-107947708D01*
X166335509Y-107947708D01*
X166439327Y-107697687D01*
X166439671Y-107304040D01*
X166289346Y-106940226D01*
X166214364Y-106865113D01*
X166288368Y-106791238D01*
X166439327Y-106427687D01*
X166439671Y-106034040D01*
X166289346Y-105670226D01*
X166214364Y-105595113D01*
X166288368Y-105521238D01*
X166439327Y-105157687D01*
X166439671Y-104764040D01*
X166289346Y-104400226D01*
X166214364Y-104325113D01*
X166275805Y-104263779D01*
X170272857Y-104263779D01*
X170398495Y-104567846D01*
X170630930Y-104800688D01*
X170934778Y-104926856D01*
X171263779Y-104927143D01*
X171373103Y-104881971D01*
X171372857Y-105163779D01*
X171498495Y-105467846D01*
X171730930Y-105700688D01*
X172034778Y-105826856D01*
X172176382Y-105826980D01*
X172173144Y-105834778D01*
X172172857Y-106163779D01*
X172298495Y-106467846D01*
X172530930Y-106700688D01*
X172834778Y-106826856D01*
X173163779Y-106827143D01*
X173317131Y-106763779D01*
X174972857Y-106763779D01*
X175098495Y-107067846D01*
X175330930Y-107300688D01*
X175634778Y-107426856D01*
X175963779Y-107427143D01*
X176267846Y-107301505D01*
X176500688Y-107069070D01*
X176626856Y-106765222D01*
X176626857Y-106763779D01*
X179172857Y-106763779D01*
X179298495Y-107067846D01*
X179530930Y-107300688D01*
X179834778Y-107426856D01*
X180163779Y-107427143D01*
X180467846Y-107301505D01*
X180700202Y-107069556D01*
X180930930Y-107300688D01*
X181234778Y-107426856D01*
X181563779Y-107427143D01*
X181867846Y-107301505D01*
X182100688Y-107069070D01*
X182200089Y-106829685D01*
X182298495Y-107067846D01*
X182530930Y-107300688D01*
X182834778Y-107426856D01*
X183163779Y-107427143D01*
X183467846Y-107301505D01*
X183700688Y-107069070D01*
X183826856Y-106765222D01*
X183827143Y-106436221D01*
X183701505Y-106132154D01*
X183469070Y-105899312D01*
X183165222Y-105773144D01*
X182836221Y-105772857D01*
X182532154Y-105898495D01*
X182299312Y-106130930D01*
X182199911Y-106370315D01*
X182101505Y-106132154D01*
X181944687Y-105975061D01*
X181950688Y-105969070D01*
X182076856Y-105665222D01*
X182077143Y-105336221D01*
X181951505Y-105032154D01*
X181719070Y-104799312D01*
X181415222Y-104673144D01*
X181086221Y-104672857D01*
X180782154Y-104798495D01*
X180549312Y-105030930D01*
X180423144Y-105334778D01*
X180422857Y-105663779D01*
X180548495Y-105967846D01*
X180705313Y-106124939D01*
X180699798Y-106130444D01*
X180469070Y-105899312D01*
X180165222Y-105773144D01*
X179836221Y-105772857D01*
X179532154Y-105898495D01*
X179299312Y-106130930D01*
X179173144Y-106434778D01*
X179172857Y-106763779D01*
X176626857Y-106763779D01*
X176627143Y-106436221D01*
X176501505Y-106132154D01*
X176269070Y-105899312D01*
X175965222Y-105773144D01*
X175636221Y-105772857D01*
X175332154Y-105898495D01*
X175099312Y-106130930D01*
X174973144Y-106434778D01*
X174972857Y-106763779D01*
X173317131Y-106763779D01*
X173467846Y-106701505D01*
X173700688Y-106469070D01*
X173826856Y-106165222D01*
X173827143Y-105836221D01*
X173701505Y-105532154D01*
X173469070Y-105299312D01*
X173165222Y-105173144D01*
X173023618Y-105173020D01*
X173026856Y-105165222D01*
X173027143Y-104836221D01*
X172901505Y-104532154D01*
X172669070Y-104299312D01*
X172365222Y-104173144D01*
X172036221Y-104172857D01*
X171926897Y-104218029D01*
X171927143Y-103936221D01*
X171855892Y-103763779D01*
X179772857Y-103763779D01*
X179898495Y-104067846D01*
X180130930Y-104300688D01*
X180434778Y-104426856D01*
X180657421Y-104427050D01*
X180730930Y-104500688D01*
X181034778Y-104626856D01*
X181363779Y-104627143D01*
X181667846Y-104501505D01*
X181755725Y-104413779D01*
X186172857Y-104413779D01*
X186298495Y-104717846D01*
X186530930Y-104950688D01*
X186834778Y-105076856D01*
X187163779Y-105077143D01*
X187467846Y-104951505D01*
X187700688Y-104719070D01*
X187723646Y-104663779D01*
X188922857Y-104663779D01*
X189048495Y-104967846D01*
X189280930Y-105200688D01*
X189584778Y-105326856D01*
X189913779Y-105327143D01*
X190125144Y-105239809D01*
X190334778Y-105326856D01*
X190663779Y-105327143D01*
X190967846Y-105201505D01*
X191200688Y-104969070D01*
X191326856Y-104665222D01*
X191327143Y-104336221D01*
X191201505Y-104032154D01*
X190969070Y-103799312D01*
X190665222Y-103673144D01*
X190336221Y-103672857D01*
X190124856Y-103760191D01*
X189915222Y-103673144D01*
X189586221Y-103672857D01*
X189282154Y-103798495D01*
X189049312Y-104030930D01*
X188923144Y-104334778D01*
X188922857Y-104663779D01*
X187723646Y-104663779D01*
X187826856Y-104415222D01*
X187827143Y-104086221D01*
X187701505Y-103782154D01*
X187469070Y-103549312D01*
X187165222Y-103423144D01*
X186836221Y-103422857D01*
X186532154Y-103548495D01*
X186299312Y-103780930D01*
X186173144Y-104084778D01*
X186172857Y-104413779D01*
X181755725Y-104413779D01*
X181900688Y-104269070D01*
X182026856Y-103965222D01*
X182027143Y-103636221D01*
X181901505Y-103332154D01*
X181687194Y-103117468D01*
X181967846Y-103001505D01*
X182200688Y-102769070D01*
X182326856Y-102465222D01*
X182327118Y-102163779D01*
X186172857Y-102163779D01*
X186298495Y-102467846D01*
X186530930Y-102700688D01*
X186834778Y-102826856D01*
X187163779Y-102827143D01*
X187467846Y-102701505D01*
X187700688Y-102469070D01*
X187826856Y-102165222D01*
X187827143Y-101836221D01*
X187701505Y-101532154D01*
X187469070Y-101299312D01*
X187165222Y-101173144D01*
X186836221Y-101172857D01*
X186532154Y-101298495D01*
X186299312Y-101530930D01*
X186173144Y-101834778D01*
X186172857Y-102163779D01*
X182327118Y-102163779D01*
X182327143Y-102136221D01*
X182275177Y-102010455D01*
X182417846Y-101951505D01*
X182650688Y-101719070D01*
X182776856Y-101415222D01*
X182777075Y-101163779D01*
X190672857Y-101163779D01*
X190798495Y-101467846D01*
X191030930Y-101700688D01*
X191334778Y-101826856D01*
X191663779Y-101827143D01*
X191967846Y-101701505D01*
X192200688Y-101469070D01*
X192326856Y-101165222D01*
X192327143Y-100836221D01*
X192201505Y-100532154D01*
X191969070Y-100299312D01*
X191665222Y-100173144D01*
X191336221Y-100172857D01*
X191032154Y-100298495D01*
X190799312Y-100530930D01*
X190673144Y-100834778D01*
X190672857Y-101163779D01*
X182777075Y-101163779D01*
X182777143Y-101086221D01*
X182651505Y-100782154D01*
X182419070Y-100549312D01*
X182115222Y-100423144D01*
X181786221Y-100422857D01*
X181482154Y-100548495D01*
X181249312Y-100780930D01*
X181123144Y-101084778D01*
X181122857Y-101413779D01*
X181174823Y-101539545D01*
X181032154Y-101598495D01*
X180799312Y-101830930D01*
X180673144Y-102134778D01*
X180672857Y-102463779D01*
X180798495Y-102767846D01*
X180831084Y-102800492D01*
X180765222Y-102773144D01*
X180436221Y-102772857D01*
X180132154Y-102898495D01*
X179899312Y-103130930D01*
X179773144Y-103434778D01*
X179772857Y-103763779D01*
X171855892Y-103763779D01*
X171801505Y-103632154D01*
X171569070Y-103399312D01*
X171265222Y-103273144D01*
X170936221Y-103272857D01*
X170632154Y-103398495D01*
X170399312Y-103630930D01*
X170273144Y-103934778D01*
X170272857Y-104263779D01*
X166275805Y-104263779D01*
X166288368Y-104251238D01*
X166439327Y-103887687D01*
X166439671Y-103494040D01*
X166289346Y-103130226D01*
X166214364Y-103055113D01*
X166288368Y-102981238D01*
X166439327Y-102617687D01*
X166439671Y-102224040D01*
X166289346Y-101860226D01*
X166214364Y-101785113D01*
X166288368Y-101711238D01*
X166439327Y-101347687D01*
X166439671Y-100954040D01*
X166289346Y-100590226D01*
X166214364Y-100515113D01*
X166288368Y-100441238D01*
X166439327Y-100077687D01*
X166439671Y-99684040D01*
X166289346Y-99320226D01*
X166214364Y-99245113D01*
X166288368Y-99171238D01*
X166439327Y-98807687D01*
X166439671Y-98414040D01*
X166289346Y-98050226D01*
X166214364Y-97975113D01*
X166288368Y-97901238D01*
X166428492Y-97563779D01*
X168772857Y-97563779D01*
X168898495Y-97867846D01*
X169130930Y-98100688D01*
X169434778Y-98226856D01*
X169763779Y-98227143D01*
X170067846Y-98101505D01*
X170300688Y-97869070D01*
X170426856Y-97565222D01*
X170427031Y-97363779D01*
X171372857Y-97363779D01*
X171498495Y-97667846D01*
X171730930Y-97900688D01*
X172034778Y-98026856D01*
X172363779Y-98027143D01*
X172667846Y-97901505D01*
X172900688Y-97669070D01*
X173026856Y-97365222D01*
X173027143Y-97036221D01*
X172901505Y-96732154D01*
X172669070Y-96499312D01*
X172365222Y-96373144D01*
X172036221Y-96372857D01*
X171732154Y-96498495D01*
X171499312Y-96730930D01*
X171373144Y-97034778D01*
X171372857Y-97363779D01*
X170427031Y-97363779D01*
X170427143Y-97236221D01*
X170301505Y-96932154D01*
X170069070Y-96699312D01*
X169765222Y-96573144D01*
X169436221Y-96572857D01*
X169132154Y-96698495D01*
X168899312Y-96930930D01*
X168773144Y-97234778D01*
X168772857Y-97563779D01*
X166428492Y-97563779D01*
X166439327Y-97537687D01*
X166439671Y-97144040D01*
X166289346Y-96780226D01*
X166214364Y-96705113D01*
X166288368Y-96631238D01*
X166439327Y-96267687D01*
X166439671Y-95874040D01*
X166394113Y-95763779D01*
X170552819Y-95763779D01*
X170678457Y-96067846D01*
X170910892Y-96300688D01*
X171214740Y-96426856D01*
X171543741Y-96427143D01*
X171847808Y-96301505D01*
X172080650Y-96069070D01*
X172206818Y-95765222D01*
X172207105Y-95436221D01*
X172081467Y-95132154D01*
X171849032Y-94899312D01*
X171545184Y-94773144D01*
X171216183Y-94772857D01*
X170912116Y-94898495D01*
X170679274Y-95130930D01*
X170553106Y-95434778D01*
X170552819Y-95763779D01*
X166394113Y-95763779D01*
X166289346Y-95510226D01*
X166214364Y-95435113D01*
X166288368Y-95361238D01*
X166439327Y-94997687D01*
X166439618Y-94663779D01*
X173472857Y-94663779D01*
X173598495Y-94967846D01*
X173830930Y-95200688D01*
X174134778Y-95326856D01*
X174303421Y-95327003D01*
X174199312Y-95430930D01*
X174073144Y-95734778D01*
X174072857Y-96063779D01*
X174198495Y-96367846D01*
X174380445Y-96550114D01*
X174199312Y-96730930D01*
X174073144Y-97034778D01*
X174072857Y-97363779D01*
X174198495Y-97667846D01*
X174430930Y-97900688D01*
X174734778Y-98026856D01*
X175063779Y-98027143D01*
X175367846Y-97901505D01*
X175600688Y-97669070D01*
X175726856Y-97365222D01*
X175727143Y-97036221D01*
X175635232Y-96813779D01*
X177822857Y-96813779D01*
X177948495Y-97117846D01*
X178180930Y-97350688D01*
X178484778Y-97476856D01*
X178813779Y-97477143D01*
X179117846Y-97351505D01*
X179350688Y-97119070D01*
X179476856Y-96815222D01*
X179477143Y-96486221D01*
X179351505Y-96182154D01*
X179119070Y-95949312D01*
X178913083Y-95863779D01*
X185872857Y-95863779D01*
X185998495Y-96167846D01*
X186105445Y-96274983D01*
X185999312Y-96380930D01*
X185873144Y-96684778D01*
X185872857Y-97013779D01*
X185998495Y-97317846D01*
X186105445Y-97424983D01*
X185999312Y-97530930D01*
X185873144Y-97834778D01*
X185872857Y-98163779D01*
X185998495Y-98467846D01*
X186105445Y-98574983D01*
X185999312Y-98680930D01*
X185873144Y-98984778D01*
X185872857Y-99313779D01*
X185998495Y-99617846D01*
X186230930Y-99850688D01*
X186534778Y-99976856D01*
X186863779Y-99977143D01*
X187167846Y-99851505D01*
X187274983Y-99744555D01*
X187380930Y-99850688D01*
X187684778Y-99976856D01*
X188013779Y-99977143D01*
X188317846Y-99851505D01*
X188424983Y-99744555D01*
X188530930Y-99850688D01*
X188834778Y-99976856D01*
X189163779Y-99977143D01*
X189467846Y-99851505D01*
X189574983Y-99744555D01*
X189680930Y-99850688D01*
X189984778Y-99976856D01*
X190313779Y-99977143D01*
X190617846Y-99851505D01*
X190850688Y-99619070D01*
X190976856Y-99315222D01*
X190977143Y-98986221D01*
X190851505Y-98682154D01*
X190744555Y-98575017D01*
X190850688Y-98469070D01*
X190976856Y-98165222D01*
X190977031Y-97963779D01*
X191772857Y-97963779D01*
X191898495Y-98267846D01*
X192130930Y-98500688D01*
X192434778Y-98626856D01*
X192763779Y-98627143D01*
X193067846Y-98501505D01*
X193300688Y-98269070D01*
X193426856Y-97965222D01*
X193427143Y-97636221D01*
X193301505Y-97332154D01*
X193283163Y-97313779D01*
X197522857Y-97313779D01*
X197648495Y-97617846D01*
X197880930Y-97850688D01*
X198184778Y-97976856D01*
X198513779Y-97977143D01*
X198817846Y-97851505D01*
X199050688Y-97619070D01*
X199176856Y-97315222D01*
X199177143Y-96986221D01*
X199051505Y-96682154D01*
X198819070Y-96449312D01*
X198515222Y-96323144D01*
X198186221Y-96322857D01*
X197882154Y-96448495D01*
X197649312Y-96680930D01*
X197523144Y-96984778D01*
X197522857Y-97313779D01*
X193283163Y-97313779D01*
X193069070Y-97099312D01*
X192765222Y-96973144D01*
X192436221Y-96972857D01*
X192132154Y-97098495D01*
X191899312Y-97330930D01*
X191773144Y-97634778D01*
X191772857Y-97963779D01*
X190977031Y-97963779D01*
X190977143Y-97836221D01*
X190851505Y-97532154D01*
X190744555Y-97425017D01*
X190850688Y-97319070D01*
X190976856Y-97015222D01*
X190977143Y-96686221D01*
X190851505Y-96382154D01*
X190744555Y-96275017D01*
X190850688Y-96169070D01*
X190976856Y-95865222D01*
X190977143Y-95536221D01*
X190851505Y-95232154D01*
X190619070Y-94999312D01*
X190315222Y-94873144D01*
X189986221Y-94872857D01*
X189682154Y-94998495D01*
X189575017Y-95105445D01*
X189469070Y-94999312D01*
X189165222Y-94873144D01*
X188836221Y-94872857D01*
X188532154Y-94998495D01*
X188425017Y-95105445D01*
X188319070Y-94999312D01*
X188015222Y-94873144D01*
X187686221Y-94872857D01*
X187382154Y-94998495D01*
X187275017Y-95105445D01*
X187169070Y-94999312D01*
X186865222Y-94873144D01*
X186536221Y-94872857D01*
X186232154Y-94998495D01*
X185999312Y-95230930D01*
X185873144Y-95534778D01*
X185872857Y-95863779D01*
X178913083Y-95863779D01*
X178815222Y-95823144D01*
X178486221Y-95822857D01*
X178182154Y-95948495D01*
X177949312Y-96180930D01*
X177823144Y-96484778D01*
X177822857Y-96813779D01*
X175635232Y-96813779D01*
X175601505Y-96732154D01*
X175419555Y-96549886D01*
X175600688Y-96369070D01*
X175726856Y-96065222D01*
X175727143Y-95736221D01*
X175601505Y-95432154D01*
X175369070Y-95199312D01*
X175065222Y-95073144D01*
X174896579Y-95072997D01*
X175000688Y-94969070D01*
X175085931Y-94763779D01*
X192872857Y-94763779D01*
X192998495Y-95067846D01*
X193230930Y-95300688D01*
X193534778Y-95426856D01*
X193863779Y-95427143D01*
X194167846Y-95301505D01*
X194400688Y-95069070D01*
X194526856Y-94765222D01*
X194526857Y-94763779D01*
X198272857Y-94763779D01*
X198398495Y-95067846D01*
X198630930Y-95300688D01*
X198934778Y-95426856D01*
X199263779Y-95427143D01*
X199567846Y-95301505D01*
X199800688Y-95069070D01*
X199926856Y-94765222D01*
X199927143Y-94436221D01*
X199801505Y-94132154D01*
X199569070Y-93899312D01*
X199265222Y-93773144D01*
X198936221Y-93772857D01*
X198632154Y-93898495D01*
X198399312Y-94130930D01*
X198273144Y-94434778D01*
X198272857Y-94763779D01*
X194526857Y-94763779D01*
X194527143Y-94436221D01*
X194401505Y-94132154D01*
X194169070Y-93899312D01*
X193865222Y-93773144D01*
X193536221Y-93772857D01*
X193232154Y-93898495D01*
X192999312Y-94130930D01*
X192873144Y-94434778D01*
X192872857Y-94763779D01*
X175085931Y-94763779D01*
X175126856Y-94665222D01*
X175127143Y-94336221D01*
X175001505Y-94032154D01*
X174769070Y-93799312D01*
X174683497Y-93763779D01*
X180372857Y-93763779D01*
X180498495Y-94067846D01*
X180730930Y-94300688D01*
X181034778Y-94426856D01*
X181363779Y-94427143D01*
X181667846Y-94301505D01*
X181900688Y-94069070D01*
X182026856Y-93765222D01*
X182027143Y-93436221D01*
X181901505Y-93132154D01*
X181683512Y-92913779D01*
X181922857Y-92913779D01*
X182048495Y-93217846D01*
X182280930Y-93450688D01*
X182584778Y-93576856D01*
X182913779Y-93577143D01*
X183217846Y-93451505D01*
X183450688Y-93219070D01*
X183576856Y-92915222D01*
X183577143Y-92586221D01*
X183451505Y-92282154D01*
X183219070Y-92049312D01*
X182915222Y-91923144D01*
X182586221Y-91922857D01*
X182282154Y-92048495D01*
X182049312Y-92280930D01*
X181923144Y-92584778D01*
X181922857Y-92913779D01*
X181683512Y-92913779D01*
X181669070Y-92899312D01*
X181365222Y-92773144D01*
X181036221Y-92772857D01*
X180732154Y-92898495D01*
X180499312Y-93130930D01*
X180373144Y-93434778D01*
X180372857Y-93763779D01*
X174683497Y-93763779D01*
X174465222Y-93673144D01*
X174136221Y-93672857D01*
X173832154Y-93798495D01*
X173599312Y-94030930D01*
X173473144Y-94334778D01*
X173472857Y-94663779D01*
X166439618Y-94663779D01*
X166439671Y-94604040D01*
X166289346Y-94240226D01*
X166214364Y-94165113D01*
X166288368Y-94091238D01*
X166439327Y-93727687D01*
X166439356Y-93693779D01*
X167702857Y-93693779D01*
X167828495Y-93997846D01*
X168060930Y-94230688D01*
X168364778Y-94356856D01*
X168693779Y-94357143D01*
X168997846Y-94231505D01*
X169230688Y-93999070D01*
X169356856Y-93695222D01*
X169357143Y-93366221D01*
X169231505Y-93062154D01*
X168999070Y-92829312D01*
X168695222Y-92703144D01*
X168366221Y-92702857D01*
X168062154Y-92828495D01*
X167829312Y-93060930D01*
X167703144Y-93364778D01*
X167702857Y-93693779D01*
X166439356Y-93693779D01*
X166439671Y-93334040D01*
X166289346Y-92970226D01*
X166214364Y-92895113D01*
X166288368Y-92821238D01*
X166439327Y-92457687D01*
X166439671Y-92064040D01*
X166289346Y-91700226D01*
X166214364Y-91625113D01*
X166288368Y-91551238D01*
X166439327Y-91187687D01*
X166439671Y-90794040D01*
X166344530Y-90563779D01*
X167772857Y-90563779D01*
X167898495Y-90867846D01*
X168130930Y-91100688D01*
X168434778Y-91226856D01*
X168763779Y-91227143D01*
X169067846Y-91101505D01*
X169300688Y-90869070D01*
X169426856Y-90565222D01*
X169427143Y-90236221D01*
X169301505Y-89932154D01*
X169069070Y-89699312D01*
X168765222Y-89573144D01*
X168436221Y-89572857D01*
X168132154Y-89698495D01*
X167899312Y-89930930D01*
X167773144Y-90234778D01*
X167772857Y-90563779D01*
X166344530Y-90563779D01*
X166289346Y-90430226D01*
X166214364Y-90355113D01*
X166288368Y-90281238D01*
X166439327Y-89917687D01*
X166439671Y-89524040D01*
X166289346Y-89160226D01*
X166214364Y-89085113D01*
X166288368Y-89011238D01*
X166439327Y-88647687D01*
X166439671Y-88254040D01*
X166289346Y-87890226D01*
X166011238Y-87611632D01*
X165647687Y-87460673D01*
X165254040Y-87460329D01*
X164890226Y-87610654D01*
X164815113Y-87685636D01*
X164741238Y-87611632D01*
X164377687Y-87460673D01*
X163984040Y-87460329D01*
X163620226Y-87610654D01*
X163341632Y-87888762D01*
X163190673Y-88252313D01*
X163190329Y-88645960D01*
X162127000Y-88645960D01*
X162127000Y-87163779D01*
X166572857Y-87163779D01*
X166698495Y-87467846D01*
X166930930Y-87700688D01*
X167172964Y-87801189D01*
X167172857Y-87924278D01*
X167298495Y-88228345D01*
X167530930Y-88461187D01*
X167834778Y-88587355D01*
X168163779Y-88587642D01*
X168467846Y-88462004D01*
X168558288Y-88371720D01*
X169122675Y-88371720D01*
X169407829Y-89061846D01*
X169935376Y-89590316D01*
X170625004Y-89876674D01*
X171371720Y-89877325D01*
X172061846Y-89592171D01*
X172590316Y-89064624D01*
X172673713Y-88863779D01*
X183072857Y-88863779D01*
X183198495Y-89167846D01*
X183430930Y-89400688D01*
X183734778Y-89526856D01*
X184003509Y-89527090D01*
X183799312Y-89730930D01*
X183673144Y-90034778D01*
X183672857Y-90363779D01*
X183798495Y-90667846D01*
X184030930Y-90900688D01*
X184334778Y-91026856D01*
X184403508Y-91026916D01*
X184299312Y-91130930D01*
X184173144Y-91434778D01*
X184172857Y-91763779D01*
X184298495Y-92067846D01*
X184530930Y-92300688D01*
X184834778Y-92426856D01*
X185163779Y-92427143D01*
X185467846Y-92301505D01*
X185700688Y-92069070D01*
X185826856Y-91765222D01*
X185827143Y-91436221D01*
X185701505Y-91132154D01*
X185469070Y-90899312D01*
X185165222Y-90773144D01*
X185096492Y-90773084D01*
X185200688Y-90669070D01*
X185326856Y-90365222D01*
X185327143Y-90036221D01*
X185201505Y-89732154D01*
X184969070Y-89499312D01*
X184763083Y-89413779D01*
X186672857Y-89413779D01*
X186798495Y-89717846D01*
X187021080Y-89940821D01*
X187020983Y-90052011D01*
X187146621Y-90356078D01*
X187379056Y-90588920D01*
X187682904Y-90715088D01*
X188011905Y-90715375D01*
X188315972Y-90589737D01*
X188548814Y-90357302D01*
X188674982Y-90053454D01*
X188675269Y-89724453D01*
X188549631Y-89420386D01*
X188327046Y-89197411D01*
X188327075Y-89163779D01*
X189472857Y-89163779D01*
X189598495Y-89467846D01*
X189642923Y-89512352D01*
X189624312Y-89530930D01*
X189498144Y-89834778D01*
X189497857Y-90163779D01*
X189623495Y-90467846D01*
X189855930Y-90700688D01*
X189872993Y-90707773D01*
X189872857Y-90863779D01*
X189998495Y-91167846D01*
X190230930Y-91400688D01*
X190534778Y-91526856D01*
X190863779Y-91527143D01*
X191167846Y-91401505D01*
X191400202Y-91169556D01*
X191630930Y-91400688D01*
X191934778Y-91526856D01*
X192263779Y-91527143D01*
X192567846Y-91401505D01*
X192800688Y-91169070D01*
X192849966Y-91050396D01*
X192898495Y-91167846D01*
X193130930Y-91400688D01*
X193434778Y-91526856D01*
X193763779Y-91527143D01*
X194067846Y-91401505D01*
X194300688Y-91169070D01*
X194426856Y-90865222D01*
X194427143Y-90536221D01*
X194420751Y-90520752D01*
X194526856Y-90265222D01*
X194527143Y-89936221D01*
X194401505Y-89632154D01*
X194169070Y-89399312D01*
X193865222Y-89273144D01*
X193536221Y-89272857D01*
X193232154Y-89398495D01*
X192999312Y-89630930D01*
X192873144Y-89934778D01*
X192872857Y-90263779D01*
X192879249Y-90279248D01*
X192850034Y-90349604D01*
X192801505Y-90232154D01*
X192569070Y-89999312D01*
X192265222Y-89873144D01*
X191936221Y-89872857D01*
X191632154Y-89998495D01*
X191399798Y-90230444D01*
X191169070Y-89999312D01*
X191152007Y-89992227D01*
X191152143Y-89836221D01*
X191026505Y-89532154D01*
X190982077Y-89487648D01*
X191000688Y-89469070D01*
X191126856Y-89165222D01*
X191127143Y-88836221D01*
X191001505Y-88532154D01*
X190769070Y-88299312D01*
X190465222Y-88173144D01*
X190136221Y-88172857D01*
X189832154Y-88298495D01*
X189599312Y-88530930D01*
X189473144Y-88834778D01*
X189472857Y-89163779D01*
X188327075Y-89163779D01*
X188327143Y-89086221D01*
X188201505Y-88782154D01*
X187969070Y-88549312D01*
X187665222Y-88423144D01*
X187336221Y-88422857D01*
X187032154Y-88548495D01*
X186799312Y-88780930D01*
X186673144Y-89084778D01*
X186672857Y-89413779D01*
X184763083Y-89413779D01*
X184665222Y-89373144D01*
X184396491Y-89372910D01*
X184600688Y-89169070D01*
X184726856Y-88865222D01*
X184727143Y-88536221D01*
X184601505Y-88232154D01*
X184369070Y-87999312D01*
X184065222Y-87873144D01*
X183736221Y-87872857D01*
X183432154Y-87998495D01*
X183199312Y-88230930D01*
X183073144Y-88534778D01*
X183072857Y-88863779D01*
X172673713Y-88863779D01*
X172876674Y-88374996D01*
X172877325Y-87628280D01*
X172685398Y-87163779D01*
X192172857Y-87163779D01*
X192298495Y-87467846D01*
X192530930Y-87700688D01*
X192834778Y-87826856D01*
X193163779Y-87827143D01*
X193467846Y-87701505D01*
X193700688Y-87469070D01*
X193826856Y-87165222D01*
X193826857Y-87163779D01*
X196672857Y-87163779D01*
X196798495Y-87467846D01*
X197030930Y-87700688D01*
X197334778Y-87826856D01*
X197663779Y-87827143D01*
X197967846Y-87701505D01*
X198200688Y-87469070D01*
X198326856Y-87165222D01*
X198327143Y-86836221D01*
X198201505Y-86532154D01*
X197969070Y-86299312D01*
X197665222Y-86173144D01*
X197336221Y-86172857D01*
X197032154Y-86298495D01*
X196799312Y-86530930D01*
X196673144Y-86834778D01*
X196672857Y-87163779D01*
X193826857Y-87163779D01*
X193827143Y-86836221D01*
X193701505Y-86532154D01*
X193469070Y-86299312D01*
X193165222Y-86173144D01*
X192836221Y-86172857D01*
X192532154Y-86298495D01*
X192299312Y-86530930D01*
X192173144Y-86834778D01*
X192172857Y-87163779D01*
X172685398Y-87163779D01*
X172592171Y-86938154D01*
X172064624Y-86409684D01*
X171374996Y-86123326D01*
X170628280Y-86122675D01*
X169938154Y-86407829D01*
X169409684Y-86935376D01*
X169123326Y-87625004D01*
X169122675Y-88371720D01*
X168558288Y-88371720D01*
X168700688Y-88229569D01*
X168826856Y-87925721D01*
X168827143Y-87596720D01*
X168701505Y-87292653D01*
X168469070Y-87059811D01*
X168227036Y-86959310D01*
X168227143Y-86836221D01*
X168101505Y-86532154D01*
X167869070Y-86299312D01*
X167565222Y-86173144D01*
X167236221Y-86172857D01*
X166932154Y-86298495D01*
X166699312Y-86530930D01*
X166573144Y-86834778D01*
X166572857Y-87163779D01*
X162127000Y-87163779D01*
X162127000Y-85127000D01*
X176903599Y-85127000D01*
X176699312Y-85330930D01*
X176699312Y-85330930D01*
G37*
X176699312Y-85330930D02*
X176573144Y-85634778D01*
X176572857Y-85963779D01*
X176698495Y-86267846D01*
X176930930Y-86500688D01*
X177234778Y-86626856D01*
X177563779Y-86627143D01*
X177867846Y-86501505D01*
X178100688Y-86269070D01*
X178226856Y-85965222D01*
X178227143Y-85636221D01*
X178101505Y-85332154D01*
X177896710Y-85127000D01*
X178373064Y-85127000D01*
X178372857Y-85363779D01*
X178470546Y-85600205D01*
X178373144Y-85834778D01*
X178372857Y-86163779D01*
X178498495Y-86467846D01*
X178730930Y-86700688D01*
X179034778Y-86826856D01*
X179363779Y-86827143D01*
X179667846Y-86701505D01*
X179900688Y-86469070D01*
X180026856Y-86165222D01*
X180026857Y-86163779D01*
X187672857Y-86163779D01*
X187798495Y-86467846D01*
X188030930Y-86700688D01*
X188334778Y-86826856D01*
X188663779Y-86827143D01*
X188967846Y-86701505D01*
X189200688Y-86469070D01*
X189326856Y-86165222D01*
X189327143Y-85836221D01*
X189201505Y-85532154D01*
X188969070Y-85299312D01*
X188665222Y-85173144D01*
X188336221Y-85172857D01*
X188032154Y-85298495D01*
X187799312Y-85530930D01*
X187673144Y-85834778D01*
X187672857Y-86163779D01*
X180026857Y-86163779D01*
X180027143Y-85836221D01*
X179929454Y-85599795D01*
X180026856Y-85365222D01*
X180027064Y-85127000D01*
X194428320Y-85127000D01*
X194548495Y-85417846D01*
X194780930Y-85650688D01*
X195084778Y-85776856D01*
X195413779Y-85777143D01*
X195717846Y-85651505D01*
X195950688Y-85419070D01*
X196071965Y-85127000D01*
X200873000Y-85127000D01*
X200873000Y-105203512D01*
X200719070Y-105049312D01*
X200415222Y-104923144D01*
X200086221Y-104922857D01*
X199782154Y-105048495D01*
X199549312Y-105280930D01*
X199423144Y-105584778D01*
X199422857Y-105913779D01*
X199548495Y-106217846D01*
X199780930Y-106450688D01*
X200084778Y-106576856D01*
X200413779Y-106577143D01*
X200717846Y-106451505D01*
X200950688Y-106219070D01*
X200989722Y-106125066D01*
X201000000Y-106127000D01*
X206873000Y-106127000D01*
X206873000Y-109703512D01*
X206719070Y-109549312D01*
X206415349Y-109423197D01*
X206467846Y-109401505D01*
X206700688Y-109169070D01*
X206826856Y-108865222D01*
X206827143Y-108536221D01*
X206701505Y-108232154D01*
X206469070Y-107999312D01*
X206165222Y-107873144D01*
X205836221Y-107872857D01*
X205532154Y-107998495D01*
X205299312Y-108230930D01*
X205173144Y-108534778D01*
X205172857Y-108863779D01*
X205298495Y-109167846D01*
X205530930Y-109400688D01*
X205834651Y-109526803D01*
X205782154Y-109548495D01*
X205549312Y-109780930D01*
X205423144Y-110084778D01*
X205422857Y-110413779D01*
X205548495Y-110717846D01*
X205780930Y-110950688D01*
X206084778Y-111076856D01*
X206413779Y-111077143D01*
X206717846Y-110951505D01*
X206873000Y-110796622D01*
X206873000Y-112973000D01*
X195449662Y-112973000D01*
X193990441Y-111513779D01*
X203122857Y-111513779D01*
X203248495Y-111817846D01*
X203480930Y-112050688D01*
X203784778Y-112176856D01*
X204113779Y-112177143D01*
X204417846Y-112051505D01*
X204650688Y-111819070D01*
X204776856Y-111515222D01*
X204777143Y-111186221D01*
X204651505Y-110882154D01*
X204419070Y-110649312D01*
X204115222Y-110523144D01*
X203786221Y-110522857D01*
X203482154Y-110648495D01*
X203249312Y-110880930D01*
X203123144Y-111184778D01*
X203122857Y-111513779D01*
X193990441Y-111513779D01*
X192650463Y-110173801D01*
X192317280Y-109951176D01*
X191924264Y-109873000D01*
X191500000Y-109873000D01*
X191106984Y-109951176D01*
X190773801Y-110173801D01*
X190551176Y-110506984D01*
X190473000Y-110900000D01*
X190551176Y-111293016D01*
X190773801Y-111626199D01*
X191106984Y-111848824D01*
X191498584Y-111926718D01*
X194298065Y-114726199D01*
X194631248Y-114948824D01*
X194873133Y-114996938D01*
X194872857Y-115313779D01*
X194998495Y-115617846D01*
X195230930Y-115850688D01*
X195284664Y-115873000D01*
X191869335Y-115873000D01*
X192100688Y-115642051D01*
X192226856Y-115338203D01*
X192227143Y-115009202D01*
X192101505Y-114705135D01*
X192032977Y-114636487D01*
X192200688Y-114469070D01*
X192326856Y-114165222D01*
X192327143Y-113836221D01*
X192201505Y-113532154D01*
X191969070Y-113299312D01*
X191665222Y-113173144D01*
X191336221Y-113172857D01*
X191032154Y-113298495D01*
X190799312Y-113530930D01*
X190673144Y-113834778D01*
X190672857Y-114163779D01*
X190798495Y-114467846D01*
X190867023Y-114536494D01*
X190699312Y-114703911D01*
X190573144Y-115007759D01*
X190573028Y-115140260D01*
X190313287Y-115400001D01*
X188729368Y-115400001D01*
X188826856Y-115165222D01*
X188827143Y-114836221D01*
X188701505Y-114532154D01*
X188469070Y-114299312D01*
X188165222Y-114173144D01*
X187836221Y-114172857D01*
X187599795Y-114270546D01*
X187365222Y-114173144D01*
X187036221Y-114172857D01*
X186732154Y-114298495D01*
X186650061Y-114380445D01*
X186569070Y-114299312D01*
X186265222Y-114173144D01*
X185936221Y-114172857D01*
X185632154Y-114298495D01*
X185399312Y-114530930D01*
X185273144Y-114834778D01*
X185272857Y-115163779D01*
X185370462Y-115400001D01*
X181127087Y-115400001D01*
X181127143Y-115336221D01*
X181001505Y-115032154D01*
X180769070Y-114799312D01*
X180465222Y-114673144D01*
X180136221Y-114672857D01*
X179832154Y-114798495D01*
X179599312Y-115030930D01*
X179473144Y-115334778D01*
X179473111Y-115373000D01*
X177723626Y-115373000D01*
X177726856Y-115365222D01*
X177727143Y-115036221D01*
X177601505Y-114732154D01*
X177369070Y-114499312D01*
X177065222Y-114373144D01*
X176736221Y-114372857D01*
X176432154Y-114498495D01*
X176199312Y-114730930D01*
X176073144Y-115034778D01*
X176072857Y-115363779D01*
X176076667Y-115373000D01*
X176059712Y-115373000D01*
X175027052Y-114340340D01*
X175027143Y-114236221D01*
X174901505Y-113932154D01*
X174669070Y-113699312D01*
X174365222Y-113573144D01*
X174036221Y-113572857D01*
X173732154Y-113698495D01*
X173499312Y-113930930D01*
X173373144Y-114234778D01*
X173372857Y-114563779D01*
X173498495Y-114867846D01*
X173730930Y-115100688D01*
X174034778Y-115226856D01*
X174140236Y-115226948D01*
X174786288Y-115873000D01*
X162127000Y-115873000D01*
X162127000Y-94356998D01*
X162293779Y-94357143D01*
X162597846Y-94231505D01*
X162830688Y-93999070D01*
X162956856Y-93695222D01*
X162957143Y-93366221D01*
X162831505Y-93062154D01*
X162599070Y-92829312D01*
X162295222Y-92703144D01*
X162127000Y-92702997D01*
X162127000Y-88645960D01*
X163190329Y-88645960D01*
X163340654Y-89009774D01*
X163415636Y-89084887D01*
X163341632Y-89158762D01*
X163190673Y-89522313D01*
X163190329Y-89915960D01*
X163340654Y-90279774D01*
X163415636Y-90354887D01*
X163341632Y-90428762D01*
X163190673Y-90792313D01*
X163190329Y-91185960D01*
X163340654Y-91549774D01*
X163415636Y-91624887D01*
X163341632Y-91698762D01*
X163190673Y-92062313D01*
X163190329Y-92455960D01*
X163340654Y-92819774D01*
X163415636Y-92894887D01*
X163341632Y-92968762D01*
X163190673Y-93332313D01*
X163190329Y-93725960D01*
X163340654Y-94089774D01*
X163415636Y-94164887D01*
X163341632Y-94238762D01*
X163190673Y-94602313D01*
X163190329Y-94995960D01*
X163340654Y-95359774D01*
X163415636Y-95434887D01*
X163341632Y-95508762D01*
X163190673Y-95872313D01*
X163190329Y-96265960D01*
X163340654Y-96629774D01*
X163415636Y-96704887D01*
X163341632Y-96778762D01*
X163190673Y-97142313D01*
X163190329Y-97535960D01*
X163340654Y-97899774D01*
X163415636Y-97974887D01*
X163341632Y-98048762D01*
X163190673Y-98412313D01*
X163190329Y-98805960D01*
X163340654Y-99169774D01*
X163415636Y-99244887D01*
X163341632Y-99318762D01*
X163190673Y-99682313D01*
X163190329Y-100075960D01*
X163340654Y-100439774D01*
X163415636Y-100514887D01*
X163341632Y-100588762D01*
X163190673Y-100952313D01*
X163190329Y-101345960D01*
X163340654Y-101709774D01*
X163415636Y-101784887D01*
X163341632Y-101858762D01*
X163190673Y-102222313D01*
X163190329Y-102615960D01*
X163340654Y-102979774D01*
X163415636Y-103054887D01*
X163341632Y-103128762D01*
X163190673Y-103492313D01*
X163190329Y-103885960D01*
X163340654Y-104249774D01*
X163415636Y-104324887D01*
X163341632Y-104398762D01*
X163190673Y-104762313D01*
X163190329Y-105155960D01*
X163340654Y-105519774D01*
X163415636Y-105594887D01*
X163341632Y-105668762D01*
X163190673Y-106032313D01*
X163190329Y-106425960D01*
X163340654Y-106789774D01*
X163415636Y-106864887D01*
X163341632Y-106938762D01*
X163190673Y-107302313D01*
X163190329Y-107695960D01*
X163340654Y-108059774D01*
X163415636Y-108134887D01*
X163341632Y-108208762D01*
X163190673Y-108572313D01*
X163190329Y-108965960D01*
X163340654Y-109329774D01*
X163415636Y-109404887D01*
X163341632Y-109478762D01*
X163190673Y-109842313D01*
X163190329Y-110235960D01*
X163340654Y-110599774D01*
X163415636Y-110674887D01*
X163341632Y-110748762D01*
X163190673Y-111112313D01*
X163190329Y-111505960D01*
X163340654Y-111869774D01*
X163415636Y-111944887D01*
X163341632Y-112018762D01*
X163190673Y-112382313D01*
X163190329Y-112775960D01*
X163340654Y-113139774D01*
X163618762Y-113418368D01*
X163982313Y-113569327D01*
X164375960Y-113569671D01*
X164739774Y-113419346D01*
X164814887Y-113344364D01*
X164888762Y-113418368D01*
X165252313Y-113569327D01*
X165645960Y-113569671D01*
X166009774Y-113419346D01*
X166057483Y-113371720D01*
X169122675Y-113371720D01*
X169407829Y-114061846D01*
X169935376Y-114590316D01*
X170625004Y-114876674D01*
X171371720Y-114877325D01*
X172061846Y-114592171D01*
X172590316Y-114064624D01*
X172876674Y-113374996D01*
X172877325Y-112628280D01*
X172592171Y-111938154D01*
X172542883Y-111888779D01*
X174597857Y-111888779D01*
X174723495Y-112192846D01*
X174955930Y-112425688D01*
X175259778Y-112551856D01*
X175588779Y-112552143D01*
X175892846Y-112426505D01*
X176125688Y-112194070D01*
X176251856Y-111890222D01*
X176251879Y-111863779D01*
X177572857Y-111863779D01*
X177698495Y-112167846D01*
X177930930Y-112400688D01*
X178234778Y-112526856D01*
X178563779Y-112527143D01*
X178867846Y-112401505D01*
X178995795Y-112273779D01*
X186442857Y-112273779D01*
X186568495Y-112577846D01*
X186695445Y-112705018D01*
X186569312Y-112830930D01*
X186443144Y-113134778D01*
X186442857Y-113463779D01*
X186568495Y-113767846D01*
X186800930Y-114000688D01*
X187104778Y-114126856D01*
X187433779Y-114127143D01*
X187685242Y-114023240D01*
X187934778Y-114126856D01*
X188263779Y-114127143D01*
X188567846Y-114001505D01*
X188800688Y-113769070D01*
X188926856Y-113465222D01*
X188927143Y-113136221D01*
X188801505Y-112832154D01*
X188674555Y-112704982D01*
X188760909Y-112618779D01*
X189227857Y-112618779D01*
X189353495Y-112922846D01*
X189585930Y-113155688D01*
X189889778Y-113281856D01*
X190218779Y-113282143D01*
X190522846Y-113156505D01*
X190755688Y-112924070D01*
X190881856Y-112620222D01*
X190882143Y-112291221D01*
X190756505Y-111987154D01*
X190524070Y-111754312D01*
X190220222Y-111628144D01*
X189891221Y-111627857D01*
X189587154Y-111753495D01*
X189354312Y-111985930D01*
X189228144Y-112289778D01*
X189227857Y-112618779D01*
X188760909Y-112618779D01*
X188800688Y-112579070D01*
X188926856Y-112275222D01*
X188927143Y-111946221D01*
X188801505Y-111642154D01*
X188614556Y-111454877D01*
X188800688Y-111269070D01*
X188926856Y-110965222D01*
X188927143Y-110636221D01*
X188801505Y-110332154D01*
X188569070Y-110099312D01*
X188265222Y-109973144D01*
X187936221Y-109972857D01*
X187699795Y-110070546D01*
X187465222Y-109973144D01*
X187136221Y-109972857D01*
X186832154Y-110098495D01*
X186599312Y-110330930D01*
X186473144Y-110634778D01*
X186472857Y-110963779D01*
X186598495Y-111267846D01*
X186770471Y-111440123D01*
X186569312Y-111640930D01*
X186443144Y-111944778D01*
X186442857Y-112273779D01*
X178995795Y-112273779D01*
X179100688Y-112169070D01*
X179226856Y-111865222D01*
X179227143Y-111536221D01*
X179101505Y-111232154D01*
X178869070Y-110999312D01*
X178565222Y-110873144D01*
X178236221Y-110872857D01*
X177932154Y-110998495D01*
X177699312Y-111230930D01*
X177573144Y-111534778D01*
X177572857Y-111863779D01*
X176251879Y-111863779D01*
X176252143Y-111561221D01*
X176126505Y-111257154D01*
X175894070Y-111024312D01*
X175590222Y-110898144D01*
X175261221Y-110897857D01*
X174957154Y-111023495D01*
X174724312Y-111255930D01*
X174598144Y-111559778D01*
X174597857Y-111888779D01*
X172542883Y-111888779D01*
X172064624Y-111409684D01*
X171374996Y-111123326D01*
X170628280Y-111122675D01*
X169938154Y-111407829D01*
X169409684Y-111935376D01*
X169123326Y-112625004D01*
X169122675Y-113371720D01*
X166057483Y-113371720D01*
X166288368Y-113141238D01*
X166439327Y-112777687D01*
X166439671Y-112384040D01*
X166289346Y-112020226D01*
X166214364Y-111945113D01*
X166288368Y-111871238D01*
X166439327Y-111507687D01*
X166439671Y-111114040D01*
X166289346Y-110750226D01*
X166214364Y-110675113D01*
X166288368Y-110601238D01*
X166439327Y-110237687D01*
X166439671Y-109844040D01*
X166323870Y-109563779D01*
X183272857Y-109563779D01*
X183398495Y-109867846D01*
X183630930Y-110100688D01*
X183934778Y-110226856D01*
X184263779Y-110227143D01*
X184567846Y-110101505D01*
X184800688Y-109869070D01*
X184926856Y-109565222D01*
X184926944Y-109463779D01*
X202572857Y-109463779D01*
X202698495Y-109767846D01*
X202930930Y-110000688D01*
X203234778Y-110126856D01*
X203563779Y-110127143D01*
X203867846Y-110001505D01*
X204100688Y-109769070D01*
X204226856Y-109465222D01*
X204227143Y-109136221D01*
X204101505Y-108832154D01*
X203869070Y-108599312D01*
X203565222Y-108473144D01*
X203236221Y-108472857D01*
X202932154Y-108598495D01*
X202699312Y-108830930D01*
X202573144Y-109134778D01*
X202572857Y-109463779D01*
X184926944Y-109463779D01*
X184927143Y-109236221D01*
X184801505Y-108932154D01*
X184569070Y-108699312D01*
X184265222Y-108573144D01*
X183936221Y-108572857D01*
X183632154Y-108698495D01*
X183399312Y-108930930D01*
X183273144Y-109234778D01*
X183272857Y-109563779D01*
X166323870Y-109563779D01*
X166289346Y-109480226D01*
X166214364Y-109405113D01*
X166288368Y-109331238D01*
X166439327Y-108967687D01*
X166439671Y-108574040D01*
X166289346Y-108210226D01*
X166214364Y-108135113D01*
X166288368Y-108061238D01*
X166335509Y-107947708D01*
X185972857Y-107947708D01*
X186098495Y-108251775D01*
X186330930Y-108484617D01*
X186634778Y-108610785D01*
X186963779Y-108611072D01*
X187267846Y-108485434D01*
X187500688Y-108252999D01*
X187567348Y-108092464D01*
X187598495Y-108167846D01*
X187830930Y-108400688D01*
X188134778Y-108526856D01*
X188463779Y-108527143D01*
X188767846Y-108401505D01*
X188908150Y-108261447D01*
X189130930Y-108484617D01*
X189434778Y-108610785D01*
X189763779Y-108611072D01*
X190067846Y-108485434D01*
X190300688Y-108252999D01*
X190400089Y-108013614D01*
X190498495Y-108251775D01*
X190730930Y-108484617D01*
X191034778Y-108610785D01*
X191363779Y-108611072D01*
X191667846Y-108485434D01*
X191900688Y-108252999D01*
X192026856Y-107949151D01*
X192026948Y-107843693D01*
X195516640Y-104354001D01*
X196272999Y-104354001D01*
X196512942Y-104306273D01*
X196631541Y-104227028D01*
X196763779Y-104227143D01*
X197067846Y-104101505D01*
X197249983Y-103919687D01*
X197280930Y-103950688D01*
X197584778Y-104076856D01*
X197913779Y-104077143D01*
X198217846Y-103951505D01*
X198450688Y-103719070D01*
X198576856Y-103415222D01*
X198577143Y-103086221D01*
X198451505Y-102782154D01*
X198219070Y-102549312D01*
X197915222Y-102423144D01*
X197586221Y-102422857D01*
X197282154Y-102548495D01*
X197100017Y-102730313D01*
X197069070Y-102699312D01*
X196765222Y-102573144D01*
X196436221Y-102572857D01*
X196228263Y-102658784D01*
X196069070Y-102499312D01*
X195765222Y-102373144D01*
X195436221Y-102372857D01*
X195132154Y-102498495D01*
X194971550Y-102658818D01*
X194827001Y-102598797D01*
X194827143Y-102436221D01*
X194701505Y-102132154D01*
X194469070Y-101899312D01*
X194165222Y-101773144D01*
X193836221Y-101772857D01*
X193532154Y-101898495D01*
X193299312Y-102130930D01*
X193173144Y-102434778D01*
X193172857Y-102763779D01*
X193298495Y-103067846D01*
X193363876Y-103133341D01*
X189540340Y-106956877D01*
X189436221Y-106956786D01*
X189132154Y-107082424D01*
X188991850Y-107222482D01*
X188769070Y-106999312D01*
X188465222Y-106873144D01*
X188136221Y-106872857D01*
X187832154Y-106998495D01*
X187599312Y-107230930D01*
X187532652Y-107391465D01*
X187501505Y-107316083D01*
X187269070Y-107083241D01*
X186965222Y-106957073D01*
X186636221Y-106956786D01*
X186332154Y-107082424D01*
X186099312Y-107314859D01*
X185973144Y-107618707D01*
X185972857Y-107947708D01*
X166335509Y-107947708D01*
X166439327Y-107697687D01*
X166439671Y-107304040D01*
X166289346Y-106940226D01*
X166214364Y-106865113D01*
X166288368Y-106791238D01*
X166439327Y-106427687D01*
X166439671Y-106034040D01*
X166289346Y-105670226D01*
X166214364Y-105595113D01*
X166288368Y-105521238D01*
X166439327Y-105157687D01*
X166439671Y-104764040D01*
X166289346Y-104400226D01*
X166214364Y-104325113D01*
X166275805Y-104263779D01*
X170272857Y-104263779D01*
X170398495Y-104567846D01*
X170630930Y-104800688D01*
X170934778Y-104926856D01*
X171263779Y-104927143D01*
X171373103Y-104881971D01*
X171372857Y-105163779D01*
X171498495Y-105467846D01*
X171730930Y-105700688D01*
X172034778Y-105826856D01*
X172176382Y-105826980D01*
X172173144Y-105834778D01*
X172172857Y-106163779D01*
X172298495Y-106467846D01*
X172530930Y-106700688D01*
X172834778Y-106826856D01*
X173163779Y-106827143D01*
X173317131Y-106763779D01*
X174972857Y-106763779D01*
X175098495Y-107067846D01*
X175330930Y-107300688D01*
X175634778Y-107426856D01*
X175963779Y-107427143D01*
X176267846Y-107301505D01*
X176500688Y-107069070D01*
X176626856Y-106765222D01*
X176626857Y-106763779D01*
X179172857Y-106763779D01*
X179298495Y-107067846D01*
X179530930Y-107300688D01*
X179834778Y-107426856D01*
X180163779Y-107427143D01*
X180467846Y-107301505D01*
X180700202Y-107069556D01*
X180930930Y-107300688D01*
X181234778Y-107426856D01*
X181563779Y-107427143D01*
X181867846Y-107301505D01*
X182100688Y-107069070D01*
X182200089Y-106829685D01*
X182298495Y-107067846D01*
X182530930Y-107300688D01*
X182834778Y-107426856D01*
X183163779Y-107427143D01*
X183467846Y-107301505D01*
X183700688Y-107069070D01*
X183826856Y-106765222D01*
X183827143Y-106436221D01*
X183701505Y-106132154D01*
X183469070Y-105899312D01*
X183165222Y-105773144D01*
X182836221Y-105772857D01*
X182532154Y-105898495D01*
X182299312Y-106130930D01*
X182199911Y-106370315D01*
X182101505Y-106132154D01*
X181944687Y-105975061D01*
X181950688Y-105969070D01*
X182076856Y-105665222D01*
X182077143Y-105336221D01*
X181951505Y-105032154D01*
X181719070Y-104799312D01*
X181415222Y-104673144D01*
X181086221Y-104672857D01*
X180782154Y-104798495D01*
X180549312Y-105030930D01*
X180423144Y-105334778D01*
X180422857Y-105663779D01*
X180548495Y-105967846D01*
X180705313Y-106124939D01*
X180699798Y-106130444D01*
X180469070Y-105899312D01*
X180165222Y-105773144D01*
X179836221Y-105772857D01*
X179532154Y-105898495D01*
X179299312Y-106130930D01*
X179173144Y-106434778D01*
X179172857Y-106763779D01*
X176626857Y-106763779D01*
X176627143Y-106436221D01*
X176501505Y-106132154D01*
X176269070Y-105899312D01*
X175965222Y-105773144D01*
X175636221Y-105772857D01*
X175332154Y-105898495D01*
X175099312Y-106130930D01*
X174973144Y-106434778D01*
X174972857Y-106763779D01*
X173317131Y-106763779D01*
X173467846Y-106701505D01*
X173700688Y-106469070D01*
X173826856Y-106165222D01*
X173827143Y-105836221D01*
X173701505Y-105532154D01*
X173469070Y-105299312D01*
X173165222Y-105173144D01*
X173023618Y-105173020D01*
X173026856Y-105165222D01*
X173027143Y-104836221D01*
X172901505Y-104532154D01*
X172669070Y-104299312D01*
X172365222Y-104173144D01*
X172036221Y-104172857D01*
X171926897Y-104218029D01*
X171927143Y-103936221D01*
X171855892Y-103763779D01*
X179772857Y-103763779D01*
X179898495Y-104067846D01*
X180130930Y-104300688D01*
X180434778Y-104426856D01*
X180657421Y-104427050D01*
X180730930Y-104500688D01*
X181034778Y-104626856D01*
X181363779Y-104627143D01*
X181667846Y-104501505D01*
X181755725Y-104413779D01*
X186172857Y-104413779D01*
X186298495Y-104717846D01*
X186530930Y-104950688D01*
X186834778Y-105076856D01*
X187163779Y-105077143D01*
X187467846Y-104951505D01*
X187700688Y-104719070D01*
X187723646Y-104663779D01*
X188922857Y-104663779D01*
X189048495Y-104967846D01*
X189280930Y-105200688D01*
X189584778Y-105326856D01*
X189913779Y-105327143D01*
X190125144Y-105239809D01*
X190334778Y-105326856D01*
X190663779Y-105327143D01*
X190967846Y-105201505D01*
X191200688Y-104969070D01*
X191326856Y-104665222D01*
X191327143Y-104336221D01*
X191201505Y-104032154D01*
X190969070Y-103799312D01*
X190665222Y-103673144D01*
X190336221Y-103672857D01*
X190124856Y-103760191D01*
X189915222Y-103673144D01*
X189586221Y-103672857D01*
X189282154Y-103798495D01*
X189049312Y-104030930D01*
X188923144Y-104334778D01*
X188922857Y-104663779D01*
X187723646Y-104663779D01*
X187826856Y-104415222D01*
X187827143Y-104086221D01*
X187701505Y-103782154D01*
X187469070Y-103549312D01*
X187165222Y-103423144D01*
X186836221Y-103422857D01*
X186532154Y-103548495D01*
X186299312Y-103780930D01*
X186173144Y-104084778D01*
X186172857Y-104413779D01*
X181755725Y-104413779D01*
X181900688Y-104269070D01*
X182026856Y-103965222D01*
X182027143Y-103636221D01*
X181901505Y-103332154D01*
X181687194Y-103117468D01*
X181967846Y-103001505D01*
X182200688Y-102769070D01*
X182326856Y-102465222D01*
X182327118Y-102163779D01*
X186172857Y-102163779D01*
X186298495Y-102467846D01*
X186530930Y-102700688D01*
X186834778Y-102826856D01*
X187163779Y-102827143D01*
X187467846Y-102701505D01*
X187700688Y-102469070D01*
X187826856Y-102165222D01*
X187827143Y-101836221D01*
X187701505Y-101532154D01*
X187469070Y-101299312D01*
X187165222Y-101173144D01*
X186836221Y-101172857D01*
X186532154Y-101298495D01*
X186299312Y-101530930D01*
X186173144Y-101834778D01*
X186172857Y-102163779D01*
X182327118Y-102163779D01*
X182327143Y-102136221D01*
X182275177Y-102010455D01*
X182417846Y-101951505D01*
X182650688Y-101719070D01*
X182776856Y-101415222D01*
X182777075Y-101163779D01*
X190672857Y-101163779D01*
X190798495Y-101467846D01*
X191030930Y-101700688D01*
X191334778Y-101826856D01*
X191663779Y-101827143D01*
X191967846Y-101701505D01*
X192200688Y-101469070D01*
X192326856Y-101165222D01*
X192327143Y-100836221D01*
X192201505Y-100532154D01*
X191969070Y-100299312D01*
X191665222Y-100173144D01*
X191336221Y-100172857D01*
X191032154Y-100298495D01*
X190799312Y-100530930D01*
X190673144Y-100834778D01*
X190672857Y-101163779D01*
X182777075Y-101163779D01*
X182777143Y-101086221D01*
X182651505Y-100782154D01*
X182419070Y-100549312D01*
X182115222Y-100423144D01*
X181786221Y-100422857D01*
X181482154Y-100548495D01*
X181249312Y-100780930D01*
X181123144Y-101084778D01*
X181122857Y-101413779D01*
X181174823Y-101539545D01*
X181032154Y-101598495D01*
X180799312Y-101830930D01*
X180673144Y-102134778D01*
X180672857Y-102463779D01*
X180798495Y-102767846D01*
X180831084Y-102800492D01*
X180765222Y-102773144D01*
X180436221Y-102772857D01*
X180132154Y-102898495D01*
X179899312Y-103130930D01*
X179773144Y-103434778D01*
X179772857Y-103763779D01*
X171855892Y-103763779D01*
X171801505Y-103632154D01*
X171569070Y-103399312D01*
X171265222Y-103273144D01*
X170936221Y-103272857D01*
X170632154Y-103398495D01*
X170399312Y-103630930D01*
X170273144Y-103934778D01*
X170272857Y-104263779D01*
X166275805Y-104263779D01*
X166288368Y-104251238D01*
X166439327Y-103887687D01*
X166439671Y-103494040D01*
X166289346Y-103130226D01*
X166214364Y-103055113D01*
X166288368Y-102981238D01*
X166439327Y-102617687D01*
X166439671Y-102224040D01*
X166289346Y-101860226D01*
X166214364Y-101785113D01*
X166288368Y-101711238D01*
X166439327Y-101347687D01*
X166439671Y-100954040D01*
X166289346Y-100590226D01*
X166214364Y-100515113D01*
X166288368Y-100441238D01*
X166439327Y-100077687D01*
X166439671Y-99684040D01*
X166289346Y-99320226D01*
X166214364Y-99245113D01*
X166288368Y-99171238D01*
X166439327Y-98807687D01*
X166439671Y-98414040D01*
X166289346Y-98050226D01*
X166214364Y-97975113D01*
X166288368Y-97901238D01*
X166428492Y-97563779D01*
X168772857Y-97563779D01*
X168898495Y-97867846D01*
X169130930Y-98100688D01*
X169434778Y-98226856D01*
X169763779Y-98227143D01*
X170067846Y-98101505D01*
X170300688Y-97869070D01*
X170426856Y-97565222D01*
X170427031Y-97363779D01*
X171372857Y-97363779D01*
X171498495Y-97667846D01*
X171730930Y-97900688D01*
X172034778Y-98026856D01*
X172363779Y-98027143D01*
X172667846Y-97901505D01*
X172900688Y-97669070D01*
X173026856Y-97365222D01*
X173027143Y-97036221D01*
X172901505Y-96732154D01*
X172669070Y-96499312D01*
X172365222Y-96373144D01*
X172036221Y-96372857D01*
X171732154Y-96498495D01*
X171499312Y-96730930D01*
X171373144Y-97034778D01*
X171372857Y-97363779D01*
X170427031Y-97363779D01*
X170427143Y-97236221D01*
X170301505Y-96932154D01*
X170069070Y-96699312D01*
X169765222Y-96573144D01*
X169436221Y-96572857D01*
X169132154Y-96698495D01*
X168899312Y-96930930D01*
X168773144Y-97234778D01*
X168772857Y-97563779D01*
X166428492Y-97563779D01*
X166439327Y-97537687D01*
X166439671Y-97144040D01*
X166289346Y-96780226D01*
X166214364Y-96705113D01*
X166288368Y-96631238D01*
X166439327Y-96267687D01*
X166439671Y-95874040D01*
X166394113Y-95763779D01*
X170552819Y-95763779D01*
X170678457Y-96067846D01*
X170910892Y-96300688D01*
X171214740Y-96426856D01*
X171543741Y-96427143D01*
X171847808Y-96301505D01*
X172080650Y-96069070D01*
X172206818Y-95765222D01*
X172207105Y-95436221D01*
X172081467Y-95132154D01*
X171849032Y-94899312D01*
X171545184Y-94773144D01*
X171216183Y-94772857D01*
X170912116Y-94898495D01*
X170679274Y-95130930D01*
X170553106Y-95434778D01*
X170552819Y-95763779D01*
X166394113Y-95763779D01*
X166289346Y-95510226D01*
X166214364Y-95435113D01*
X166288368Y-95361238D01*
X166439327Y-94997687D01*
X166439618Y-94663779D01*
X173472857Y-94663779D01*
X173598495Y-94967846D01*
X173830930Y-95200688D01*
X174134778Y-95326856D01*
X174303421Y-95327003D01*
X174199312Y-95430930D01*
X174073144Y-95734778D01*
X174072857Y-96063779D01*
X174198495Y-96367846D01*
X174380445Y-96550114D01*
X174199312Y-96730930D01*
X174073144Y-97034778D01*
X174072857Y-97363779D01*
X174198495Y-97667846D01*
X174430930Y-97900688D01*
X174734778Y-98026856D01*
X175063779Y-98027143D01*
X175367846Y-97901505D01*
X175600688Y-97669070D01*
X175726856Y-97365222D01*
X175727143Y-97036221D01*
X175635232Y-96813779D01*
X177822857Y-96813779D01*
X177948495Y-97117846D01*
X178180930Y-97350688D01*
X178484778Y-97476856D01*
X178813779Y-97477143D01*
X179117846Y-97351505D01*
X179350688Y-97119070D01*
X179476856Y-96815222D01*
X179477143Y-96486221D01*
X179351505Y-96182154D01*
X179119070Y-95949312D01*
X178913083Y-95863779D01*
X185872857Y-95863779D01*
X185998495Y-96167846D01*
X186105445Y-96274983D01*
X185999312Y-96380930D01*
X185873144Y-96684778D01*
X185872857Y-97013779D01*
X185998495Y-97317846D01*
X186105445Y-97424983D01*
X185999312Y-97530930D01*
X185873144Y-97834778D01*
X185872857Y-98163779D01*
X185998495Y-98467846D01*
X186105445Y-98574983D01*
X185999312Y-98680930D01*
X185873144Y-98984778D01*
X185872857Y-99313779D01*
X185998495Y-99617846D01*
X186230930Y-99850688D01*
X186534778Y-99976856D01*
X186863779Y-99977143D01*
X187167846Y-99851505D01*
X187274983Y-99744555D01*
X187380930Y-99850688D01*
X187684778Y-99976856D01*
X188013779Y-99977143D01*
X188317846Y-99851505D01*
X188424983Y-99744555D01*
X188530930Y-99850688D01*
X188834778Y-99976856D01*
X189163779Y-99977143D01*
X189467846Y-99851505D01*
X189574983Y-99744555D01*
X189680930Y-99850688D01*
X189984778Y-99976856D01*
X190313779Y-99977143D01*
X190617846Y-99851505D01*
X190850688Y-99619070D01*
X190976856Y-99315222D01*
X190977143Y-98986221D01*
X190851505Y-98682154D01*
X190744555Y-98575017D01*
X190850688Y-98469070D01*
X190976856Y-98165222D01*
X190977031Y-97963779D01*
X191772857Y-97963779D01*
X191898495Y-98267846D01*
X192130930Y-98500688D01*
X192434778Y-98626856D01*
X192763779Y-98627143D01*
X193067846Y-98501505D01*
X193300688Y-98269070D01*
X193426856Y-97965222D01*
X193427143Y-97636221D01*
X193301505Y-97332154D01*
X193283163Y-97313779D01*
X197522857Y-97313779D01*
X197648495Y-97617846D01*
X197880930Y-97850688D01*
X198184778Y-97976856D01*
X198513779Y-97977143D01*
X198817846Y-97851505D01*
X199050688Y-97619070D01*
X199176856Y-97315222D01*
X199177143Y-96986221D01*
X199051505Y-96682154D01*
X198819070Y-96449312D01*
X198515222Y-96323144D01*
X198186221Y-96322857D01*
X197882154Y-96448495D01*
X197649312Y-96680930D01*
X197523144Y-96984778D01*
X197522857Y-97313779D01*
X193283163Y-97313779D01*
X193069070Y-97099312D01*
X192765222Y-96973144D01*
X192436221Y-96972857D01*
X192132154Y-97098495D01*
X191899312Y-97330930D01*
X191773144Y-97634778D01*
X191772857Y-97963779D01*
X190977031Y-97963779D01*
X190977143Y-97836221D01*
X190851505Y-97532154D01*
X190744555Y-97425017D01*
X190850688Y-97319070D01*
X190976856Y-97015222D01*
X190977143Y-96686221D01*
X190851505Y-96382154D01*
X190744555Y-96275017D01*
X190850688Y-96169070D01*
X190976856Y-95865222D01*
X190977143Y-95536221D01*
X190851505Y-95232154D01*
X190619070Y-94999312D01*
X190315222Y-94873144D01*
X189986221Y-94872857D01*
X189682154Y-94998495D01*
X189575017Y-95105445D01*
X189469070Y-94999312D01*
X189165222Y-94873144D01*
X188836221Y-94872857D01*
X188532154Y-94998495D01*
X188425017Y-95105445D01*
X188319070Y-94999312D01*
X188015222Y-94873144D01*
X187686221Y-94872857D01*
X187382154Y-94998495D01*
X187275017Y-95105445D01*
X187169070Y-94999312D01*
X186865222Y-94873144D01*
X186536221Y-94872857D01*
X186232154Y-94998495D01*
X185999312Y-95230930D01*
X185873144Y-95534778D01*
X185872857Y-95863779D01*
X178913083Y-95863779D01*
X178815222Y-95823144D01*
X178486221Y-95822857D01*
X178182154Y-95948495D01*
X177949312Y-96180930D01*
X177823144Y-96484778D01*
X177822857Y-96813779D01*
X175635232Y-96813779D01*
X175601505Y-96732154D01*
X175419555Y-96549886D01*
X175600688Y-96369070D01*
X175726856Y-96065222D01*
X175727143Y-95736221D01*
X175601505Y-95432154D01*
X175369070Y-95199312D01*
X175065222Y-95073144D01*
X174896579Y-95072997D01*
X175000688Y-94969070D01*
X175085931Y-94763779D01*
X192872857Y-94763779D01*
X192998495Y-95067846D01*
X193230930Y-95300688D01*
X193534778Y-95426856D01*
X193863779Y-95427143D01*
X194167846Y-95301505D01*
X194400688Y-95069070D01*
X194526856Y-94765222D01*
X194526857Y-94763779D01*
X198272857Y-94763779D01*
X198398495Y-95067846D01*
X198630930Y-95300688D01*
X198934778Y-95426856D01*
X199263779Y-95427143D01*
X199567846Y-95301505D01*
X199800688Y-95069070D01*
X199926856Y-94765222D01*
X199927143Y-94436221D01*
X199801505Y-94132154D01*
X199569070Y-93899312D01*
X199265222Y-93773144D01*
X198936221Y-93772857D01*
X198632154Y-93898495D01*
X198399312Y-94130930D01*
X198273144Y-94434778D01*
X198272857Y-94763779D01*
X194526857Y-94763779D01*
X194527143Y-94436221D01*
X194401505Y-94132154D01*
X194169070Y-93899312D01*
X193865222Y-93773144D01*
X193536221Y-93772857D01*
X193232154Y-93898495D01*
X192999312Y-94130930D01*
X192873144Y-94434778D01*
X192872857Y-94763779D01*
X175085931Y-94763779D01*
X175126856Y-94665222D01*
X175127143Y-94336221D01*
X175001505Y-94032154D01*
X174769070Y-93799312D01*
X174683497Y-93763779D01*
X180372857Y-93763779D01*
X180498495Y-94067846D01*
X180730930Y-94300688D01*
X181034778Y-94426856D01*
X181363779Y-94427143D01*
X181667846Y-94301505D01*
X181900688Y-94069070D01*
X182026856Y-93765222D01*
X182027143Y-93436221D01*
X181901505Y-93132154D01*
X181683512Y-92913779D01*
X181922857Y-92913779D01*
X182048495Y-93217846D01*
X182280930Y-93450688D01*
X182584778Y-93576856D01*
X182913779Y-93577143D01*
X183217846Y-93451505D01*
X183450688Y-93219070D01*
X183576856Y-92915222D01*
X183577143Y-92586221D01*
X183451505Y-92282154D01*
X183219070Y-92049312D01*
X182915222Y-91923144D01*
X182586221Y-91922857D01*
X182282154Y-92048495D01*
X182049312Y-92280930D01*
X181923144Y-92584778D01*
X181922857Y-92913779D01*
X181683512Y-92913779D01*
X181669070Y-92899312D01*
X181365222Y-92773144D01*
X181036221Y-92772857D01*
X180732154Y-92898495D01*
X180499312Y-93130930D01*
X180373144Y-93434778D01*
X180372857Y-93763779D01*
X174683497Y-93763779D01*
X174465222Y-93673144D01*
X174136221Y-93672857D01*
X173832154Y-93798495D01*
X173599312Y-94030930D01*
X173473144Y-94334778D01*
X173472857Y-94663779D01*
X166439618Y-94663779D01*
X166439671Y-94604040D01*
X166289346Y-94240226D01*
X166214364Y-94165113D01*
X166288368Y-94091238D01*
X166439327Y-93727687D01*
X166439356Y-93693779D01*
X167702857Y-93693779D01*
X167828495Y-93997846D01*
X168060930Y-94230688D01*
X168364778Y-94356856D01*
X168693779Y-94357143D01*
X168997846Y-94231505D01*
X169230688Y-93999070D01*
X169356856Y-93695222D01*
X169357143Y-93366221D01*
X169231505Y-93062154D01*
X168999070Y-92829312D01*
X168695222Y-92703144D01*
X168366221Y-92702857D01*
X168062154Y-92828495D01*
X167829312Y-93060930D01*
X167703144Y-93364778D01*
X167702857Y-93693779D01*
X166439356Y-93693779D01*
X166439671Y-93334040D01*
X166289346Y-92970226D01*
X166214364Y-92895113D01*
X166288368Y-92821238D01*
X166439327Y-92457687D01*
X166439671Y-92064040D01*
X166289346Y-91700226D01*
X166214364Y-91625113D01*
X166288368Y-91551238D01*
X166439327Y-91187687D01*
X166439671Y-90794040D01*
X166344530Y-90563779D01*
X167772857Y-90563779D01*
X167898495Y-90867846D01*
X168130930Y-91100688D01*
X168434778Y-91226856D01*
X168763779Y-91227143D01*
X169067846Y-91101505D01*
X169300688Y-90869070D01*
X169426856Y-90565222D01*
X169427143Y-90236221D01*
X169301505Y-89932154D01*
X169069070Y-89699312D01*
X168765222Y-89573144D01*
X168436221Y-89572857D01*
X168132154Y-89698495D01*
X167899312Y-89930930D01*
X167773144Y-90234778D01*
X167772857Y-90563779D01*
X166344530Y-90563779D01*
X166289346Y-90430226D01*
X166214364Y-90355113D01*
X166288368Y-90281238D01*
X166439327Y-89917687D01*
X166439671Y-89524040D01*
X166289346Y-89160226D01*
X166214364Y-89085113D01*
X166288368Y-89011238D01*
X166439327Y-88647687D01*
X166439671Y-88254040D01*
X166289346Y-87890226D01*
X166011238Y-87611632D01*
X165647687Y-87460673D01*
X165254040Y-87460329D01*
X164890226Y-87610654D01*
X164815113Y-87685636D01*
X164741238Y-87611632D01*
X164377687Y-87460673D01*
X163984040Y-87460329D01*
X163620226Y-87610654D01*
X163341632Y-87888762D01*
X163190673Y-88252313D01*
X163190329Y-88645960D01*
X162127000Y-88645960D01*
X162127000Y-87163779D01*
X166572857Y-87163779D01*
X166698495Y-87467846D01*
X166930930Y-87700688D01*
X167172964Y-87801189D01*
X167172857Y-87924278D01*
X167298495Y-88228345D01*
X167530930Y-88461187D01*
X167834778Y-88587355D01*
X168163779Y-88587642D01*
X168467846Y-88462004D01*
X168558288Y-88371720D01*
X169122675Y-88371720D01*
X169407829Y-89061846D01*
X169935376Y-89590316D01*
X170625004Y-89876674D01*
X171371720Y-89877325D01*
X172061846Y-89592171D01*
X172590316Y-89064624D01*
X172673713Y-88863779D01*
X183072857Y-88863779D01*
X183198495Y-89167846D01*
X183430930Y-89400688D01*
X183734778Y-89526856D01*
X184003509Y-89527090D01*
X183799312Y-89730930D01*
X183673144Y-90034778D01*
X183672857Y-90363779D01*
X183798495Y-90667846D01*
X184030930Y-90900688D01*
X184334778Y-91026856D01*
X184403508Y-91026916D01*
X184299312Y-91130930D01*
X184173144Y-91434778D01*
X184172857Y-91763779D01*
X184298495Y-92067846D01*
X184530930Y-92300688D01*
X184834778Y-92426856D01*
X185163779Y-92427143D01*
X185467846Y-92301505D01*
X185700688Y-92069070D01*
X185826856Y-91765222D01*
X185827143Y-91436221D01*
X185701505Y-91132154D01*
X185469070Y-90899312D01*
X185165222Y-90773144D01*
X185096492Y-90773084D01*
X185200688Y-90669070D01*
X185326856Y-90365222D01*
X185327143Y-90036221D01*
X185201505Y-89732154D01*
X184969070Y-89499312D01*
X184763083Y-89413779D01*
X186672857Y-89413779D01*
X186798495Y-89717846D01*
X187021080Y-89940821D01*
X187020983Y-90052011D01*
X187146621Y-90356078D01*
X187379056Y-90588920D01*
X187682904Y-90715088D01*
X188011905Y-90715375D01*
X188315972Y-90589737D01*
X188548814Y-90357302D01*
X188674982Y-90053454D01*
X188675269Y-89724453D01*
X188549631Y-89420386D01*
X188327046Y-89197411D01*
X188327075Y-89163779D01*
X189472857Y-89163779D01*
X189598495Y-89467846D01*
X189642923Y-89512352D01*
X189624312Y-89530930D01*
X189498144Y-89834778D01*
X189497857Y-90163779D01*
X189623495Y-90467846D01*
X189855930Y-90700688D01*
X189872993Y-90707773D01*
X189872857Y-90863779D01*
X189998495Y-91167846D01*
X190230930Y-91400688D01*
X190534778Y-91526856D01*
X190863779Y-91527143D01*
X191167846Y-91401505D01*
X191400202Y-91169556D01*
X191630930Y-91400688D01*
X191934778Y-91526856D01*
X192263779Y-91527143D01*
X192567846Y-91401505D01*
X192800688Y-91169070D01*
X192849966Y-91050396D01*
X192898495Y-91167846D01*
X193130930Y-91400688D01*
X193434778Y-91526856D01*
X193763779Y-91527143D01*
X194067846Y-91401505D01*
X194300688Y-91169070D01*
X194426856Y-90865222D01*
X194427143Y-90536221D01*
X194420751Y-90520752D01*
X194526856Y-90265222D01*
X194527143Y-89936221D01*
X194401505Y-89632154D01*
X194169070Y-89399312D01*
X193865222Y-89273144D01*
X193536221Y-89272857D01*
X193232154Y-89398495D01*
X192999312Y-89630930D01*
X192873144Y-89934778D01*
X192872857Y-90263779D01*
X192879249Y-90279248D01*
X192850034Y-90349604D01*
X192801505Y-90232154D01*
X192569070Y-89999312D01*
X192265222Y-89873144D01*
X191936221Y-89872857D01*
X191632154Y-89998495D01*
X191399798Y-90230444D01*
X191169070Y-89999312D01*
X191152007Y-89992227D01*
X191152143Y-89836221D01*
X191026505Y-89532154D01*
X190982077Y-89487648D01*
X191000688Y-89469070D01*
X191126856Y-89165222D01*
X191127143Y-88836221D01*
X191001505Y-88532154D01*
X190769070Y-88299312D01*
X190465222Y-88173144D01*
X190136221Y-88172857D01*
X189832154Y-88298495D01*
X189599312Y-88530930D01*
X189473144Y-88834778D01*
X189472857Y-89163779D01*
X188327075Y-89163779D01*
X188327143Y-89086221D01*
X188201505Y-88782154D01*
X187969070Y-88549312D01*
X187665222Y-88423144D01*
X187336221Y-88422857D01*
X187032154Y-88548495D01*
X186799312Y-88780930D01*
X186673144Y-89084778D01*
X186672857Y-89413779D01*
X184763083Y-89413779D01*
X184665222Y-89373144D01*
X184396491Y-89372910D01*
X184600688Y-89169070D01*
X184726856Y-88865222D01*
X184727143Y-88536221D01*
X184601505Y-88232154D01*
X184369070Y-87999312D01*
X184065222Y-87873144D01*
X183736221Y-87872857D01*
X183432154Y-87998495D01*
X183199312Y-88230930D01*
X183073144Y-88534778D01*
X183072857Y-88863779D01*
X172673713Y-88863779D01*
X172876674Y-88374996D01*
X172877325Y-87628280D01*
X172685398Y-87163779D01*
X192172857Y-87163779D01*
X192298495Y-87467846D01*
X192530930Y-87700688D01*
X192834778Y-87826856D01*
X193163779Y-87827143D01*
X193467846Y-87701505D01*
X193700688Y-87469070D01*
X193826856Y-87165222D01*
X193826857Y-87163779D01*
X196672857Y-87163779D01*
X196798495Y-87467846D01*
X197030930Y-87700688D01*
X197334778Y-87826856D01*
X197663779Y-87827143D01*
X197967846Y-87701505D01*
X198200688Y-87469070D01*
X198326856Y-87165222D01*
X198327143Y-86836221D01*
X198201505Y-86532154D01*
X197969070Y-86299312D01*
X197665222Y-86173144D01*
X197336221Y-86172857D01*
X197032154Y-86298495D01*
X196799312Y-86530930D01*
X196673144Y-86834778D01*
X196672857Y-87163779D01*
X193826857Y-87163779D01*
X193827143Y-86836221D01*
X193701505Y-86532154D01*
X193469070Y-86299312D01*
X193165222Y-86173144D01*
X192836221Y-86172857D01*
X192532154Y-86298495D01*
X192299312Y-86530930D01*
X192173144Y-86834778D01*
X192172857Y-87163779D01*
X172685398Y-87163779D01*
X172592171Y-86938154D01*
X172064624Y-86409684D01*
X171374996Y-86123326D01*
X170628280Y-86122675D01*
X169938154Y-86407829D01*
X169409684Y-86935376D01*
X169123326Y-87625004D01*
X169122675Y-88371720D01*
X168558288Y-88371720D01*
X168700688Y-88229569D01*
X168826856Y-87925721D01*
X168827143Y-87596720D01*
X168701505Y-87292653D01*
X168469070Y-87059811D01*
X168227036Y-86959310D01*
X168227143Y-86836221D01*
X168101505Y-86532154D01*
X167869070Y-86299312D01*
X167565222Y-86173144D01*
X167236221Y-86172857D01*
X166932154Y-86298495D01*
X166699312Y-86530930D01*
X166573144Y-86834778D01*
X166572857Y-87163779D01*
X162127000Y-87163779D01*
X162127000Y-85127000D01*
X176903599Y-85127000D01*
X176699312Y-85330930D01*
G36*
X257548000Y-99123000D02*
X241077000Y-99123000D01*
X241077000Y-98251519D01*
X242545543Y-98251519D01*
X242640797Y-98482051D01*
X242817021Y-98658583D01*
X243047387Y-98754239D01*
X243296823Y-98754457D01*
X243527355Y-98659203D01*
X243703887Y-98482979D01*
X243799543Y-98252613D01*
X243799565Y-98227000D01*
X243924171Y-98227109D01*
X244154703Y-98131855D01*
X244331235Y-97955631D01*
X244426891Y-97725265D01*
X244427109Y-97475829D01*
X244369964Y-97337528D01*
X244504703Y-97281855D01*
X244681235Y-97105631D01*
X244776891Y-96875265D01*
X244777109Y-96625829D01*
X244681855Y-96395297D01*
X244505631Y-96218765D01*
X244275265Y-96123109D01*
X244025829Y-96122891D01*
X243795297Y-96218145D01*
X243618765Y-96394369D01*
X243523109Y-96624735D01*
X243522891Y-96874171D01*
X243580036Y-97012472D01*
X243445297Y-97068145D01*
X243268765Y-97244369D01*
X243173109Y-97474735D01*
X243173087Y-97500348D01*
X243048481Y-97500239D01*
X242817949Y-97595493D01*
X242641417Y-97771717D01*
X242545761Y-98002083D01*
X242545543Y-98251519D01*
X241077000Y-98251519D01*
X241077000Y-91424171D01*
X244172891Y-91424171D01*
X244268145Y-91654703D01*
X244444369Y-91831235D01*
X244674735Y-91926891D01*
X244924171Y-91927109D01*
X245154703Y-91831855D01*
X245331235Y-91655631D01*
X245426891Y-91425265D01*
X245427109Y-91175829D01*
X245331855Y-90945297D01*
X245155631Y-90768765D01*
X244925265Y-90673109D01*
X244675829Y-90672891D01*
X244445297Y-90768145D01*
X244268765Y-90944369D01*
X244173109Y-91174735D01*
X244172891Y-91424171D01*
X241077000Y-91424171D01*
X241077000Y-89777000D01*
X257548000Y-89777000D01*
X257548000Y-99123000D01*
X257548000Y-99123000D01*
G37*
X257548000Y-99123000D02*
X241077000Y-99123000D01*
X241077000Y-98251519D01*
X242545543Y-98251519D01*
X242640797Y-98482051D01*
X242817021Y-98658583D01*
X243047387Y-98754239D01*
X243296823Y-98754457D01*
X243527355Y-98659203D01*
X243703887Y-98482979D01*
X243799543Y-98252613D01*
X243799565Y-98227000D01*
X243924171Y-98227109D01*
X244154703Y-98131855D01*
X244331235Y-97955631D01*
X244426891Y-97725265D01*
X244427109Y-97475829D01*
X244369964Y-97337528D01*
X244504703Y-97281855D01*
X244681235Y-97105631D01*
X244776891Y-96875265D01*
X244777109Y-96625829D01*
X244681855Y-96395297D01*
X244505631Y-96218765D01*
X244275265Y-96123109D01*
X244025829Y-96122891D01*
X243795297Y-96218145D01*
X243618765Y-96394369D01*
X243523109Y-96624735D01*
X243522891Y-96874171D01*
X243580036Y-97012472D01*
X243445297Y-97068145D01*
X243268765Y-97244369D01*
X243173109Y-97474735D01*
X243173087Y-97500348D01*
X243048481Y-97500239D01*
X242817949Y-97595493D01*
X242641417Y-97771717D01*
X242545761Y-98002083D01*
X242545543Y-98251519D01*
X241077000Y-98251519D01*
X241077000Y-91424171D01*
X244172891Y-91424171D01*
X244268145Y-91654703D01*
X244444369Y-91831235D01*
X244674735Y-91926891D01*
X244924171Y-91927109D01*
X245154703Y-91831855D01*
X245331235Y-91655631D01*
X245426891Y-91425265D01*
X245427109Y-91175829D01*
X245331855Y-90945297D01*
X245155631Y-90768765D01*
X244925265Y-90673109D01*
X244675829Y-90672891D01*
X244445297Y-90768145D01*
X244268765Y-90944369D01*
X244173109Y-91174735D01*
X244172891Y-91424171D01*
X241077000Y-91424171D01*
X241077000Y-89777000D01*
X257548000Y-89777000D01*
X257548000Y-99123000D01*
M02*
