G04 #@! TF.FileFunction,Legend,Bot*
%FSLAX46Y46*%
G04 Gerber Fmt 4.6, Leading zero omitted, Abs format (unit mm)*
G04 Created by KiCad (PCBNEW 4.0.4-stable) date Tue Sep 20 22:55:43 2016*
%MOMM*%
%LPD*%
G01*
G04 APERTURE LIST*
%ADD10C,0.100000*%
%ADD11C,0.010000*%
G04 APERTURE END LIST*
D10*
D11*
G36*
X186463921Y-111713993D02*
X186436124Y-111866190D01*
X186414636Y-112079915D01*
X186414309Y-112084625D01*
X186400529Y-112342848D01*
X186401102Y-112496259D01*
X186415238Y-112538370D01*
X186442145Y-112462692D01*
X186453929Y-112409617D01*
X186488373Y-112200274D01*
X186510052Y-111985035D01*
X186517142Y-111799899D01*
X186507822Y-111680868D01*
X186492098Y-111656000D01*
X186463921Y-111713993D01*
X186463921Y-111713993D01*
G37*
X186463921Y-111713993D02*
X186436124Y-111866190D01*
X186414636Y-112079915D01*
X186414309Y-112084625D01*
X186400529Y-112342848D01*
X186401102Y-112496259D01*
X186415238Y-112538370D01*
X186442145Y-112462692D01*
X186453929Y-112409617D01*
X186488373Y-112200274D01*
X186510052Y-111985035D01*
X186517142Y-111799899D01*
X186507822Y-111680868D01*
X186492098Y-111656000D01*
X186463921Y-111713993D01*
G36*
X185358602Y-111813434D02*
X185357623Y-111878250D01*
X185369809Y-112022286D01*
X185400945Y-112216883D01*
X185409358Y-112259250D01*
X185461896Y-112513250D01*
X185464735Y-112259250D01*
X185453095Y-112061005D01*
X185420767Y-111898993D01*
X185413000Y-111878250D01*
X185370686Y-111787500D01*
X185358602Y-111813434D01*
X185358602Y-111813434D01*
G37*
X185358602Y-111813434D02*
X185357623Y-111878250D01*
X185369809Y-112022286D01*
X185400945Y-112216883D01*
X185409358Y-112259250D01*
X185461896Y-112513250D01*
X185464735Y-112259250D01*
X185453095Y-112061005D01*
X185420767Y-111898993D01*
X185413000Y-111878250D01*
X185370686Y-111787500D01*
X185358602Y-111813434D01*
G36*
X185930125Y-111839379D02*
X185921656Y-111999976D01*
X185921000Y-112089916D01*
X185932926Y-112282826D01*
X185964372Y-112398621D01*
X185988391Y-112418000D01*
X186025684Y-112358840D01*
X186020879Y-112184634D01*
X186012005Y-112116375D01*
X185975549Y-111897651D01*
X185948173Y-111805294D01*
X185930125Y-111839379D01*
X185930125Y-111839379D01*
G37*
X185930125Y-111839379D02*
X185921656Y-111999976D01*
X185921000Y-112089916D01*
X185932926Y-112282826D01*
X185964372Y-112398621D01*
X185988391Y-112418000D01*
X186025684Y-112358840D01*
X186020879Y-112184634D01*
X186012005Y-112116375D01*
X185975549Y-111897651D01*
X185948173Y-111805294D01*
X185930125Y-111839379D01*
G36*
X202900568Y-111295079D02*
X202850113Y-111400055D01*
X202784393Y-111586079D01*
X202756617Y-111676077D01*
X202682436Y-111945796D01*
X202646092Y-112120767D01*
X202645286Y-112194840D01*
X202677720Y-112161868D01*
X202741098Y-112015700D01*
X202810321Y-111819798D01*
X202877457Y-111593195D01*
X202919200Y-111402680D01*
X202926594Y-111291866D01*
X202900568Y-111295079D01*
X202900568Y-111295079D01*
G37*
X202900568Y-111295079D02*
X202850113Y-111400055D01*
X202784393Y-111586079D01*
X202756617Y-111676077D01*
X202682436Y-111945796D01*
X202646092Y-112120767D01*
X202645286Y-112194840D01*
X202677720Y-112161868D01*
X202741098Y-112015700D01*
X202810321Y-111819798D01*
X202877457Y-111593195D01*
X202919200Y-111402680D01*
X202926594Y-111291866D01*
X202900568Y-111295079D01*
G36*
X202284751Y-111141748D02*
X202253941Y-111288878D01*
X202224577Y-111488967D01*
X202200904Y-111705093D01*
X202187169Y-111900334D01*
X202187620Y-112037766D01*
X202198322Y-112079487D01*
X202222314Y-112037247D01*
X202258087Y-111899600D01*
X202296879Y-111701885D01*
X202344023Y-111409362D01*
X202363435Y-111221702D01*
X202355603Y-111119944D01*
X202321016Y-111085126D01*
X202312759Y-111084500D01*
X202284751Y-111141748D01*
X202284751Y-111141748D01*
G37*
X202284751Y-111141748D02*
X202253941Y-111288878D01*
X202224577Y-111488967D01*
X202200904Y-111705093D01*
X202187169Y-111900334D01*
X202187620Y-112037766D01*
X202198322Y-112079487D01*
X202222314Y-112037247D01*
X202258087Y-111899600D01*
X202296879Y-111701885D01*
X202344023Y-111409362D01*
X202363435Y-111221702D01*
X202355603Y-111119944D01*
X202321016Y-111085126D01*
X202312759Y-111084500D01*
X202284751Y-111141748D01*
G36*
X201808912Y-111052750D02*
X201774692Y-111143939D01*
X201742221Y-111324430D01*
X201718116Y-111556619D01*
X201716725Y-111576625D01*
X201703100Y-111839710D01*
X201704004Y-111993507D01*
X201718749Y-112032918D01*
X201746644Y-111952843D01*
X201759701Y-111894125D01*
X201797291Y-111675873D01*
X201823765Y-111451872D01*
X201837351Y-111252418D01*
X201836277Y-111107811D01*
X201818770Y-111048347D01*
X201808912Y-111052750D01*
X201808912Y-111052750D01*
G37*
X201808912Y-111052750D02*
X201774692Y-111143939D01*
X201742221Y-111324430D01*
X201718116Y-111556619D01*
X201716725Y-111576625D01*
X201703100Y-111839710D01*
X201704004Y-111993507D01*
X201718749Y-112032918D01*
X201746644Y-111952843D01*
X201759701Y-111894125D01*
X201797291Y-111675873D01*
X201823765Y-111451872D01*
X201837351Y-111252418D01*
X201836277Y-111107811D01*
X201818770Y-111048347D01*
X201808912Y-111052750D01*
G36*
X188090048Y-91183996D02*
X187731566Y-91303807D01*
X187459940Y-91511415D01*
X187267293Y-91813301D01*
X187145746Y-92215949D01*
X187129303Y-92308967D01*
X187098375Y-92554095D01*
X187101248Y-92752102D01*
X187142894Y-92964003D01*
X187198191Y-93154616D01*
X187484247Y-93878424D01*
X187871417Y-94534127D01*
X188351638Y-95112198D01*
X188916849Y-95603109D01*
X189558987Y-95997331D01*
X189635750Y-96035241D01*
X190117199Y-96234217D01*
X190593740Y-96355679D01*
X191114561Y-96410339D01*
X191384452Y-96416000D01*
X191871578Y-96416000D01*
X192190354Y-96753058D01*
X192366701Y-96952229D01*
X192519402Y-97146960D01*
X192613157Y-97291283D01*
X192667713Y-97430713D01*
X192742152Y-97667667D01*
X192830061Y-97976564D01*
X192925026Y-98331824D01*
X193020634Y-98707866D01*
X193110472Y-99079108D01*
X193188126Y-99419970D01*
X193247183Y-99704870D01*
X193281230Y-99908228D01*
X193286990Y-99978990D01*
X193274923Y-100146545D01*
X193243098Y-100389365D01*
X193198058Y-100658468D01*
X193191740Y-100691960D01*
X193092839Y-101525850D01*
X193116664Y-102338227D01*
X193260645Y-103121160D01*
X193522214Y-103866715D01*
X193898799Y-104566961D01*
X194387832Y-105213965D01*
X194789889Y-105625583D01*
X195299050Y-106018139D01*
X195905310Y-106350687D01*
X196591582Y-106618816D01*
X197340780Y-106818112D01*
X198135818Y-106944165D01*
X198959610Y-106992561D01*
X199795069Y-106958889D01*
X199909562Y-106947632D01*
X200437830Y-106870414D01*
X201001782Y-106750935D01*
X201560607Y-106600187D01*
X202073496Y-106429162D01*
X202494500Y-106251370D01*
X202771148Y-106105706D01*
X203005554Y-105953176D01*
X203235192Y-105765512D01*
X203497538Y-105514443D01*
X203574000Y-105437055D01*
X204112685Y-104799585D01*
X204541892Y-104100514D01*
X204859078Y-103346757D01*
X205061698Y-102545229D01*
X205147207Y-101702845D01*
X205146141Y-101610884D01*
X204839078Y-101610884D01*
X204819460Y-102043675D01*
X204779906Y-102431276D01*
X204754530Y-102585789D01*
X204581789Y-103251441D01*
X204330169Y-103889041D01*
X204011735Y-104479404D01*
X203638554Y-105003343D01*
X203222691Y-105441674D01*
X202776211Y-105775209D01*
X202732684Y-105800723D01*
X201901783Y-106203973D01*
X201016850Y-106496374D01*
X200696849Y-106571388D01*
X200275687Y-106636934D01*
X199769294Y-106679786D01*
X199217480Y-106699464D01*
X198660056Y-106695486D01*
X198136834Y-106667370D01*
X197687623Y-106614635D01*
X197649741Y-106608239D01*
X196840908Y-106409501D01*
X196092958Y-106109123D01*
X195414689Y-105713323D01*
X194814901Y-105228321D01*
X194302391Y-104660333D01*
X193885958Y-104015578D01*
X193830491Y-103909000D01*
X193605612Y-103411543D01*
X193457380Y-102948586D01*
X193369928Y-102467619D01*
X193355587Y-102337221D01*
X193341270Y-101666237D01*
X193419758Y-100972495D01*
X193583042Y-100289966D01*
X193823113Y-99652622D01*
X194113513Y-99122217D01*
X194554980Y-98553108D01*
X195082243Y-98063512D01*
X195703764Y-97646915D01*
X196428010Y-97296802D01*
X196547437Y-97249068D01*
X197368969Y-96965319D01*
X197408722Y-96955750D01*
X196328483Y-96955750D01*
X195829496Y-97192607D01*
X195397641Y-97432377D01*
X194967871Y-97733875D01*
X194561787Y-98076586D01*
X194200989Y-98439998D01*
X193907078Y-98803599D01*
X193701656Y-99146875D01*
X193654955Y-99257625D01*
X193581121Y-99416423D01*
X193520742Y-99449512D01*
X193470890Y-99356452D01*
X193442359Y-99225875D01*
X193375001Y-98892582D01*
X193277726Y-98488229D01*
X193162701Y-98061579D01*
X193091440Y-97819156D01*
X193029067Y-97585856D01*
X193016043Y-97409851D01*
X193063866Y-97257165D01*
X193184033Y-97093823D01*
X193388042Y-96885847D01*
X193416609Y-96858292D01*
X193715616Y-96626454D01*
X194107127Y-96404475D01*
X194556712Y-96206272D01*
X195029938Y-96045762D01*
X195492377Y-95936863D01*
X195790213Y-95898868D01*
X196102676Y-95876250D01*
X196176446Y-96162000D01*
X196233112Y-96405635D01*
X196281109Y-96651409D01*
X196289350Y-96701750D01*
X196328483Y-96955750D01*
X197408722Y-96955750D01*
X198137734Y-96780272D01*
X198878571Y-96692099D01*
X199616319Y-96698971D01*
X200375817Y-96799061D01*
X200941520Y-96925616D01*
X201698192Y-97161129D01*
X202357770Y-97456223D01*
X202939850Y-97820354D01*
X203174469Y-98003223D01*
X203624424Y-98430712D01*
X204027208Y-98918783D01*
X204365147Y-99440215D01*
X204620564Y-99967786D01*
X204774343Y-100467250D01*
X204816918Y-100780083D01*
X204838364Y-101175491D01*
X204839078Y-101610884D01*
X205146141Y-101610884D01*
X205141126Y-101178500D01*
X205058762Y-100472516D01*
X204884616Y-99836113D01*
X204609746Y-99249868D01*
X204225211Y-98694356D01*
X203767169Y-98194000D01*
X203098755Y-97626442D01*
X202357918Y-97160091D01*
X201556093Y-96800769D01*
X200704711Y-96554305D01*
X200452741Y-96505218D01*
X199867857Y-96437256D01*
X199220669Y-96420121D01*
X198546873Y-96450783D01*
X197882164Y-96526214D01*
X197262236Y-96643386D01*
X196722784Y-96799269D01*
X196644407Y-96828338D01*
X196577836Y-96829212D01*
X196533917Y-96752419D01*
X196499363Y-96573893D01*
X196497759Y-96562682D01*
X196359603Y-95902996D01*
X196278251Y-95661067D01*
X196015649Y-95661067D01*
X195957858Y-95681804D01*
X195801757Y-95704321D01*
X195575920Y-95724935D01*
X195461875Y-95732450D01*
X195027544Y-95779705D01*
X194657684Y-95872545D01*
X194494525Y-95933344D01*
X194066704Y-96129193D01*
X193677645Y-96347169D01*
X193352801Y-96571004D01*
X193117627Y-96784429D01*
X193067107Y-96845669D01*
X192878964Y-97096924D01*
X192609246Y-96804087D01*
X192456903Y-96613427D01*
X192342215Y-96423584D01*
X192299039Y-96309364D01*
X192290241Y-96056336D01*
X192339880Y-95746085D01*
X192436816Y-95427633D01*
X192557930Y-95170008D01*
X192830426Y-94822600D01*
X193202200Y-94522773D01*
X193650984Y-94281293D01*
X194154510Y-94108923D01*
X194690509Y-94016430D01*
X194970968Y-94003479D01*
X195107177Y-94009175D01*
X195202501Y-94043039D01*
X195286174Y-94129300D01*
X195387428Y-94292186D01*
X195447218Y-94398192D01*
X195555623Y-94603604D01*
X195676622Y-94850783D01*
X195796626Y-95109542D01*
X195902047Y-95349691D01*
X195979297Y-95541041D01*
X196014788Y-95653405D01*
X196015649Y-95661067D01*
X196278251Y-95661067D01*
X196138741Y-95246188D01*
X195847011Y-94610833D01*
X195496254Y-94015505D01*
X195316904Y-93773605D01*
X194938000Y-93773605D01*
X194879668Y-93787335D01*
X194724895Y-93805228D01*
X194504021Y-93823935D01*
X194441968Y-93828351D01*
X194118720Y-93864052D01*
X193850843Y-93932743D01*
X193567435Y-94053828D01*
X193505343Y-94084680D01*
X192985151Y-94399411D01*
X192583723Y-94758801D01*
X192300819Y-95163157D01*
X192136197Y-95612784D01*
X192095742Y-95882514D01*
X192074585Y-96100945D01*
X192047886Y-96218663D01*
X192003976Y-96261810D01*
X191931186Y-96256525D01*
X191929008Y-96256024D01*
X191777409Y-96223073D01*
X191579955Y-96182613D01*
X191548698Y-96176411D01*
X191397887Y-96134655D01*
X191300881Y-96060485D01*
X191221317Y-95918188D01*
X191177199Y-95811558D01*
X191084749Y-95415639D01*
X191094327Y-94984058D01*
X191196422Y-94541886D01*
X191381525Y-94114194D01*
X191640126Y-93726053D01*
X191962716Y-93402532D01*
X192138693Y-93276804D01*
X192499197Y-93091783D01*
X192921790Y-92938643D01*
X193341903Y-92839947D01*
X193421503Y-92828532D01*
X193706227Y-92820703D01*
X193960310Y-92882738D01*
X194209949Y-93027174D01*
X194481343Y-93266553D01*
X194604985Y-93395054D01*
X194762831Y-93567145D01*
X194880223Y-93699884D01*
X194936067Y-93769292D01*
X194938000Y-93773605D01*
X195316904Y-93773605D01*
X195098310Y-93478776D01*
X194665018Y-93019220D01*
X194208218Y-92655411D01*
X194094682Y-92589995D01*
X193136749Y-92589995D01*
X193132799Y-92598640D01*
X193038875Y-92658508D01*
X192967038Y-92669500D01*
X192773658Y-92705518D01*
X192512782Y-92803907D01*
X192218004Y-92950163D01*
X191964154Y-93102414D01*
X191569219Y-93432997D01*
X191254974Y-93843968D01*
X191029826Y-94312394D01*
X190902181Y-94815339D01*
X190880446Y-95329871D01*
X190968563Y-95818532D01*
X191022304Y-95998101D01*
X191056886Y-96118280D01*
X191063813Y-96146125D01*
X191017461Y-96160777D01*
X190869876Y-96144797D01*
X190612107Y-96097014D01*
X190483858Y-96070372D01*
X190215257Y-96000820D01*
X189952495Y-95912432D01*
X189792504Y-95843481D01*
X189523044Y-95706013D01*
X189558845Y-95278977D01*
X189657090Y-94707488D01*
X189846626Y-94196179D01*
X190119719Y-93759806D01*
X190468638Y-93413125D01*
X190577558Y-93335007D01*
X190935808Y-93127734D01*
X191355786Y-92933058D01*
X191588281Y-92844940D01*
X190961959Y-92844940D01*
X190704209Y-92976435D01*
X190337039Y-93207254D01*
X190027698Y-93505300D01*
X189781489Y-93840333D01*
X189518828Y-94341554D01*
X189375209Y-94856303D01*
X189341740Y-95224213D01*
X189333357Y-95587848D01*
X189158915Y-95484803D01*
X189020744Y-95389166D01*
X188831995Y-95241081D01*
X188650619Y-95087412D01*
X188316765Y-94793067D01*
X188325784Y-94382158D01*
X188381233Y-93882013D01*
X188517683Y-93423980D01*
X188724270Y-93023574D01*
X188990130Y-92696306D01*
X189304400Y-92457689D01*
X189656214Y-92323236D01*
X189781098Y-92304137D01*
X190077928Y-92311145D01*
X190355894Y-92401631D01*
X190648858Y-92588249D01*
X190743355Y-92663728D01*
X190961959Y-92844940D01*
X191588281Y-92844940D01*
X191799229Y-92764989D01*
X192227873Y-92637533D01*
X192603455Y-92564698D01*
X192707921Y-92555113D01*
X192961618Y-92546376D01*
X193100851Y-92557623D01*
X193136749Y-92589995D01*
X194094682Y-92589995D01*
X193890250Y-92472209D01*
X193680510Y-92374550D01*
X193510488Y-92311903D01*
X193340273Y-92276545D01*
X193129959Y-92260752D01*
X192839635Y-92256800D01*
X192777000Y-92256750D01*
X192466517Y-92259628D01*
X192244509Y-92272988D01*
X192072494Y-92303912D01*
X191911992Y-92359483D01*
X191724522Y-92446787D01*
X191712563Y-92452700D01*
X191566337Y-92526981D01*
X191452926Y-92577863D01*
X191353521Y-92598333D01*
X191249314Y-92581381D01*
X191121497Y-92519994D01*
X190951263Y-92407160D01*
X190719802Y-92235868D01*
X190432172Y-92017243D01*
X189875283Y-92017243D01*
X189528492Y-92126323D01*
X189129673Y-92315749D01*
X188781243Y-92606962D01*
X188496210Y-92980371D01*
X188287585Y-93416386D01*
X188168378Y-93895419D01*
X188145053Y-94209375D01*
X188131740Y-94362516D01*
X188100680Y-94443618D01*
X188091264Y-94447500D01*
X188040741Y-94394592D01*
X187952622Y-94253976D01*
X187843482Y-94052809D01*
X187810317Y-93987125D01*
X187610596Y-93557806D01*
X187479125Y-93203022D01*
X187408428Y-92895356D01*
X187391030Y-92607386D01*
X187398592Y-92476982D01*
X187477898Y-92079260D01*
X187636517Y-91780134D01*
X187877361Y-91576752D01*
X188203344Y-91466261D01*
X188454184Y-91443052D01*
X188940672Y-91484317D01*
X189357802Y-91628438D01*
X189628517Y-91808452D01*
X189875283Y-92017243D01*
X190432172Y-92017243D01*
X190408308Y-91999105D01*
X190323726Y-91934924D01*
X189951158Y-91658625D01*
X189651338Y-91454411D01*
X189400546Y-91311767D01*
X189175063Y-91220177D01*
X188951171Y-91169123D01*
X188705150Y-91148088D01*
X188543264Y-91145500D01*
X188090048Y-91183996D01*
X188090048Y-91183996D01*
G37*
X188090048Y-91183996D02*
X187731566Y-91303807D01*
X187459940Y-91511415D01*
X187267293Y-91813301D01*
X187145746Y-92215949D01*
X187129303Y-92308967D01*
X187098375Y-92554095D01*
X187101248Y-92752102D01*
X187142894Y-92964003D01*
X187198191Y-93154616D01*
X187484247Y-93878424D01*
X187871417Y-94534127D01*
X188351638Y-95112198D01*
X188916849Y-95603109D01*
X189558987Y-95997331D01*
X189635750Y-96035241D01*
X190117199Y-96234217D01*
X190593740Y-96355679D01*
X191114561Y-96410339D01*
X191384452Y-96416000D01*
X191871578Y-96416000D01*
X192190354Y-96753058D01*
X192366701Y-96952229D01*
X192519402Y-97146960D01*
X192613157Y-97291283D01*
X192667713Y-97430713D01*
X192742152Y-97667667D01*
X192830061Y-97976564D01*
X192925026Y-98331824D01*
X193020634Y-98707866D01*
X193110472Y-99079108D01*
X193188126Y-99419970D01*
X193247183Y-99704870D01*
X193281230Y-99908228D01*
X193286990Y-99978990D01*
X193274923Y-100146545D01*
X193243098Y-100389365D01*
X193198058Y-100658468D01*
X193191740Y-100691960D01*
X193092839Y-101525850D01*
X193116664Y-102338227D01*
X193260645Y-103121160D01*
X193522214Y-103866715D01*
X193898799Y-104566961D01*
X194387832Y-105213965D01*
X194789889Y-105625583D01*
X195299050Y-106018139D01*
X195905310Y-106350687D01*
X196591582Y-106618816D01*
X197340780Y-106818112D01*
X198135818Y-106944165D01*
X198959610Y-106992561D01*
X199795069Y-106958889D01*
X199909562Y-106947632D01*
X200437830Y-106870414D01*
X201001782Y-106750935D01*
X201560607Y-106600187D01*
X202073496Y-106429162D01*
X202494500Y-106251370D01*
X202771148Y-106105706D01*
X203005554Y-105953176D01*
X203235192Y-105765512D01*
X203497538Y-105514443D01*
X203574000Y-105437055D01*
X204112685Y-104799585D01*
X204541892Y-104100514D01*
X204859078Y-103346757D01*
X205061698Y-102545229D01*
X205147207Y-101702845D01*
X205146141Y-101610884D01*
X204839078Y-101610884D01*
X204819460Y-102043675D01*
X204779906Y-102431276D01*
X204754530Y-102585789D01*
X204581789Y-103251441D01*
X204330169Y-103889041D01*
X204011735Y-104479404D01*
X203638554Y-105003343D01*
X203222691Y-105441674D01*
X202776211Y-105775209D01*
X202732684Y-105800723D01*
X201901783Y-106203973D01*
X201016850Y-106496374D01*
X200696849Y-106571388D01*
X200275687Y-106636934D01*
X199769294Y-106679786D01*
X199217480Y-106699464D01*
X198660056Y-106695486D01*
X198136834Y-106667370D01*
X197687623Y-106614635D01*
X197649741Y-106608239D01*
X196840908Y-106409501D01*
X196092958Y-106109123D01*
X195414689Y-105713323D01*
X194814901Y-105228321D01*
X194302391Y-104660333D01*
X193885958Y-104015578D01*
X193830491Y-103909000D01*
X193605612Y-103411543D01*
X193457380Y-102948586D01*
X193369928Y-102467619D01*
X193355587Y-102337221D01*
X193341270Y-101666237D01*
X193419758Y-100972495D01*
X193583042Y-100289966D01*
X193823113Y-99652622D01*
X194113513Y-99122217D01*
X194554980Y-98553108D01*
X195082243Y-98063512D01*
X195703764Y-97646915D01*
X196428010Y-97296802D01*
X196547437Y-97249068D01*
X197368969Y-96965319D01*
X197408722Y-96955750D01*
X196328483Y-96955750D01*
X195829496Y-97192607D01*
X195397641Y-97432377D01*
X194967871Y-97733875D01*
X194561787Y-98076586D01*
X194200989Y-98439998D01*
X193907078Y-98803599D01*
X193701656Y-99146875D01*
X193654955Y-99257625D01*
X193581121Y-99416423D01*
X193520742Y-99449512D01*
X193470890Y-99356452D01*
X193442359Y-99225875D01*
X193375001Y-98892582D01*
X193277726Y-98488229D01*
X193162701Y-98061579D01*
X193091440Y-97819156D01*
X193029067Y-97585856D01*
X193016043Y-97409851D01*
X193063866Y-97257165D01*
X193184033Y-97093823D01*
X193388042Y-96885847D01*
X193416609Y-96858292D01*
X193715616Y-96626454D01*
X194107127Y-96404475D01*
X194556712Y-96206272D01*
X195029938Y-96045762D01*
X195492377Y-95936863D01*
X195790213Y-95898868D01*
X196102676Y-95876250D01*
X196176446Y-96162000D01*
X196233112Y-96405635D01*
X196281109Y-96651409D01*
X196289350Y-96701750D01*
X196328483Y-96955750D01*
X197408722Y-96955750D01*
X198137734Y-96780272D01*
X198878571Y-96692099D01*
X199616319Y-96698971D01*
X200375817Y-96799061D01*
X200941520Y-96925616D01*
X201698192Y-97161129D01*
X202357770Y-97456223D01*
X202939850Y-97820354D01*
X203174469Y-98003223D01*
X203624424Y-98430712D01*
X204027208Y-98918783D01*
X204365147Y-99440215D01*
X204620564Y-99967786D01*
X204774343Y-100467250D01*
X204816918Y-100780083D01*
X204838364Y-101175491D01*
X204839078Y-101610884D01*
X205146141Y-101610884D01*
X205141126Y-101178500D01*
X205058762Y-100472516D01*
X204884616Y-99836113D01*
X204609746Y-99249868D01*
X204225211Y-98694356D01*
X203767169Y-98194000D01*
X203098755Y-97626442D01*
X202357918Y-97160091D01*
X201556093Y-96800769D01*
X200704711Y-96554305D01*
X200452741Y-96505218D01*
X199867857Y-96437256D01*
X199220669Y-96420121D01*
X198546873Y-96450783D01*
X197882164Y-96526214D01*
X197262236Y-96643386D01*
X196722784Y-96799269D01*
X196644407Y-96828338D01*
X196577836Y-96829212D01*
X196533917Y-96752419D01*
X196499363Y-96573893D01*
X196497759Y-96562682D01*
X196359603Y-95902996D01*
X196278251Y-95661067D01*
X196015649Y-95661067D01*
X195957858Y-95681804D01*
X195801757Y-95704321D01*
X195575920Y-95724935D01*
X195461875Y-95732450D01*
X195027544Y-95779705D01*
X194657684Y-95872545D01*
X194494525Y-95933344D01*
X194066704Y-96129193D01*
X193677645Y-96347169D01*
X193352801Y-96571004D01*
X193117627Y-96784429D01*
X193067107Y-96845669D01*
X192878964Y-97096924D01*
X192609246Y-96804087D01*
X192456903Y-96613427D01*
X192342215Y-96423584D01*
X192299039Y-96309364D01*
X192290241Y-96056336D01*
X192339880Y-95746085D01*
X192436816Y-95427633D01*
X192557930Y-95170008D01*
X192830426Y-94822600D01*
X193202200Y-94522773D01*
X193650984Y-94281293D01*
X194154510Y-94108923D01*
X194690509Y-94016430D01*
X194970968Y-94003479D01*
X195107177Y-94009175D01*
X195202501Y-94043039D01*
X195286174Y-94129300D01*
X195387428Y-94292186D01*
X195447218Y-94398192D01*
X195555623Y-94603604D01*
X195676622Y-94850783D01*
X195796626Y-95109542D01*
X195902047Y-95349691D01*
X195979297Y-95541041D01*
X196014788Y-95653405D01*
X196015649Y-95661067D01*
X196278251Y-95661067D01*
X196138741Y-95246188D01*
X195847011Y-94610833D01*
X195496254Y-94015505D01*
X195316904Y-93773605D01*
X194938000Y-93773605D01*
X194879668Y-93787335D01*
X194724895Y-93805228D01*
X194504021Y-93823935D01*
X194441968Y-93828351D01*
X194118720Y-93864052D01*
X193850843Y-93932743D01*
X193567435Y-94053828D01*
X193505343Y-94084680D01*
X192985151Y-94399411D01*
X192583723Y-94758801D01*
X192300819Y-95163157D01*
X192136197Y-95612784D01*
X192095742Y-95882514D01*
X192074585Y-96100945D01*
X192047886Y-96218663D01*
X192003976Y-96261810D01*
X191931186Y-96256525D01*
X191929008Y-96256024D01*
X191777409Y-96223073D01*
X191579955Y-96182613D01*
X191548698Y-96176411D01*
X191397887Y-96134655D01*
X191300881Y-96060485D01*
X191221317Y-95918188D01*
X191177199Y-95811558D01*
X191084749Y-95415639D01*
X191094327Y-94984058D01*
X191196422Y-94541886D01*
X191381525Y-94114194D01*
X191640126Y-93726053D01*
X191962716Y-93402532D01*
X192138693Y-93276804D01*
X192499197Y-93091783D01*
X192921790Y-92938643D01*
X193341903Y-92839947D01*
X193421503Y-92828532D01*
X193706227Y-92820703D01*
X193960310Y-92882738D01*
X194209949Y-93027174D01*
X194481343Y-93266553D01*
X194604985Y-93395054D01*
X194762831Y-93567145D01*
X194880223Y-93699884D01*
X194936067Y-93769292D01*
X194938000Y-93773605D01*
X195316904Y-93773605D01*
X195098310Y-93478776D01*
X194665018Y-93019220D01*
X194208218Y-92655411D01*
X194094682Y-92589995D01*
X193136749Y-92589995D01*
X193132799Y-92598640D01*
X193038875Y-92658508D01*
X192967038Y-92669500D01*
X192773658Y-92705518D01*
X192512782Y-92803907D01*
X192218004Y-92950163D01*
X191964154Y-93102414D01*
X191569219Y-93432997D01*
X191254974Y-93843968D01*
X191029826Y-94312394D01*
X190902181Y-94815339D01*
X190880446Y-95329871D01*
X190968563Y-95818532D01*
X191022304Y-95998101D01*
X191056886Y-96118280D01*
X191063813Y-96146125D01*
X191017461Y-96160777D01*
X190869876Y-96144797D01*
X190612107Y-96097014D01*
X190483858Y-96070372D01*
X190215257Y-96000820D01*
X189952495Y-95912432D01*
X189792504Y-95843481D01*
X189523044Y-95706013D01*
X189558845Y-95278977D01*
X189657090Y-94707488D01*
X189846626Y-94196179D01*
X190119719Y-93759806D01*
X190468638Y-93413125D01*
X190577558Y-93335007D01*
X190935808Y-93127734D01*
X191355786Y-92933058D01*
X191588281Y-92844940D01*
X190961959Y-92844940D01*
X190704209Y-92976435D01*
X190337039Y-93207254D01*
X190027698Y-93505300D01*
X189781489Y-93840333D01*
X189518828Y-94341554D01*
X189375209Y-94856303D01*
X189341740Y-95224213D01*
X189333357Y-95587848D01*
X189158915Y-95484803D01*
X189020744Y-95389166D01*
X188831995Y-95241081D01*
X188650619Y-95087412D01*
X188316765Y-94793067D01*
X188325784Y-94382158D01*
X188381233Y-93882013D01*
X188517683Y-93423980D01*
X188724270Y-93023574D01*
X188990130Y-92696306D01*
X189304400Y-92457689D01*
X189656214Y-92323236D01*
X189781098Y-92304137D01*
X190077928Y-92311145D01*
X190355894Y-92401631D01*
X190648858Y-92588249D01*
X190743355Y-92663728D01*
X190961959Y-92844940D01*
X191588281Y-92844940D01*
X191799229Y-92764989D01*
X192227873Y-92637533D01*
X192603455Y-92564698D01*
X192707921Y-92555113D01*
X192961618Y-92546376D01*
X193100851Y-92557623D01*
X193136749Y-92589995D01*
X194094682Y-92589995D01*
X193890250Y-92472209D01*
X193680510Y-92374550D01*
X193510488Y-92311903D01*
X193340273Y-92276545D01*
X193129959Y-92260752D01*
X192839635Y-92256800D01*
X192777000Y-92256750D01*
X192466517Y-92259628D01*
X192244509Y-92272988D01*
X192072494Y-92303912D01*
X191911992Y-92359483D01*
X191724522Y-92446787D01*
X191712563Y-92452700D01*
X191566337Y-92526981D01*
X191452926Y-92577863D01*
X191353521Y-92598333D01*
X191249314Y-92581381D01*
X191121497Y-92519994D01*
X190951263Y-92407160D01*
X190719802Y-92235868D01*
X190432172Y-92017243D01*
X189875283Y-92017243D01*
X189528492Y-92126323D01*
X189129673Y-92315749D01*
X188781243Y-92606962D01*
X188496210Y-92980371D01*
X188287585Y-93416386D01*
X188168378Y-93895419D01*
X188145053Y-94209375D01*
X188131740Y-94362516D01*
X188100680Y-94443618D01*
X188091264Y-94447500D01*
X188040741Y-94394592D01*
X187952622Y-94253976D01*
X187843482Y-94052809D01*
X187810317Y-93987125D01*
X187610596Y-93557806D01*
X187479125Y-93203022D01*
X187408428Y-92895356D01*
X187391030Y-92607386D01*
X187398592Y-92476982D01*
X187477898Y-92079260D01*
X187636517Y-91780134D01*
X187877361Y-91576752D01*
X188203344Y-91466261D01*
X188454184Y-91443052D01*
X188940672Y-91484317D01*
X189357802Y-91628438D01*
X189628517Y-91808452D01*
X189875283Y-92017243D01*
X190432172Y-92017243D01*
X190408308Y-91999105D01*
X190323726Y-91934924D01*
X189951158Y-91658625D01*
X189651338Y-91454411D01*
X189400546Y-91311767D01*
X189175063Y-91220177D01*
X188951171Y-91169123D01*
X188705150Y-91148088D01*
X188543264Y-91145500D01*
X188090048Y-91183996D01*
G36*
X191330185Y-103261206D02*
X191330477Y-103337500D01*
X191349061Y-103520099D01*
X191382000Y-103686750D01*
X191430475Y-103877250D01*
X191433524Y-103655000D01*
X191420114Y-103463919D01*
X191383505Y-103309336D01*
X191382000Y-103305750D01*
X191342455Y-103226384D01*
X191330185Y-103261206D01*
X191330185Y-103261206D01*
G37*
X191330185Y-103261206D02*
X191330477Y-103337500D01*
X191349061Y-103520099D01*
X191382000Y-103686750D01*
X191430475Y-103877250D01*
X191433524Y-103655000D01*
X191420114Y-103463919D01*
X191383505Y-103309336D01*
X191382000Y-103305750D01*
X191342455Y-103226384D01*
X191330185Y-103261206D01*
G36*
X192361777Y-103204110D02*
X192338786Y-103350131D01*
X192334500Y-103464500D01*
X192345923Y-103645615D01*
X192375127Y-103760573D01*
X192398000Y-103782000D01*
X192434224Y-103724889D01*
X192457215Y-103578868D01*
X192461500Y-103464500D01*
X192450078Y-103283384D01*
X192420874Y-103168426D01*
X192398000Y-103147000D01*
X192361777Y-103204110D01*
X192361777Y-103204110D01*
G37*
X192361777Y-103204110D02*
X192338786Y-103350131D01*
X192334500Y-103464500D01*
X192345923Y-103645615D01*
X192375127Y-103760573D01*
X192398000Y-103782000D01*
X192434224Y-103724889D01*
X192457215Y-103578868D01*
X192461500Y-103464500D01*
X192450078Y-103283384D01*
X192420874Y-103168426D01*
X192398000Y-103147000D01*
X192361777Y-103204110D01*
G36*
X191834976Y-103117069D02*
X191831249Y-103227183D01*
X191842483Y-103382432D01*
X191865978Y-103542706D01*
X191894282Y-103655000D01*
X191922544Y-103709461D01*
X191930043Y-103646546D01*
X191917820Y-103467909D01*
X191895280Y-103271235D01*
X191870846Y-103132682D01*
X191856368Y-103092201D01*
X191834976Y-103117069D01*
X191834976Y-103117069D01*
G37*
X191834976Y-103117069D02*
X191831249Y-103227183D01*
X191842483Y-103382432D01*
X191865978Y-103542706D01*
X191894282Y-103655000D01*
X191922544Y-103709461D01*
X191930043Y-103646546D01*
X191917820Y-103467909D01*
X191895280Y-103271235D01*
X191870846Y-103132682D01*
X191856368Y-103092201D01*
X191834976Y-103117069D01*
G36*
X209016474Y-101490319D02*
X208977921Y-101611434D01*
X208932409Y-101799748D01*
X208885724Y-102026041D01*
X208843656Y-102261092D01*
X208811990Y-102475680D01*
X208796514Y-102640586D01*
X208797295Y-102702500D01*
X208814882Y-102710279D01*
X208849765Y-102611138D01*
X208896708Y-102423137D01*
X208944622Y-102194500D01*
X208995219Y-101915376D01*
X209030241Y-101681274D01*
X209045852Y-101520839D01*
X209042279Y-101465624D01*
X209016474Y-101490319D01*
X209016474Y-101490319D01*
G37*
X209016474Y-101490319D02*
X208977921Y-101611434D01*
X208932409Y-101799748D01*
X208885724Y-102026041D01*
X208843656Y-102261092D01*
X208811990Y-102475680D01*
X208796514Y-102640586D01*
X208797295Y-102702500D01*
X208814882Y-102710279D01*
X208849765Y-102611138D01*
X208896708Y-102423137D01*
X208944622Y-102194500D01*
X208995219Y-101915376D01*
X209030241Y-101681274D01*
X209045852Y-101520839D01*
X209042279Y-101465624D01*
X209016474Y-101490319D01*
G36*
X208489726Y-101745699D02*
X208465609Y-101847227D01*
X208441889Y-102011986D01*
X208421991Y-102208171D01*
X208409341Y-102403979D01*
X208407364Y-102567608D01*
X208413541Y-102642356D01*
X208430988Y-102659073D01*
X208455068Y-102568020D01*
X208481452Y-102387954D01*
X208490082Y-102310703D01*
X208510785Y-102066458D01*
X208518955Y-101866393D01*
X208513224Y-101748286D01*
X208510814Y-101739203D01*
X208489726Y-101745699D01*
X208489726Y-101745699D01*
G37*
X208489726Y-101745699D02*
X208465609Y-101847227D01*
X208441889Y-102011986D01*
X208421991Y-102208171D01*
X208409341Y-102403979D01*
X208407364Y-102567608D01*
X208413541Y-102642356D01*
X208430988Y-102659073D01*
X208455068Y-102568020D01*
X208481452Y-102387954D01*
X208490082Y-102310703D01*
X208510785Y-102066458D01*
X208518955Y-101866393D01*
X208513224Y-101748286D01*
X208510814Y-101739203D01*
X208489726Y-101745699D01*
G36*
X207987378Y-101508983D02*
X207959591Y-101589071D01*
X207927165Y-101762855D01*
X207895884Y-101997462D01*
X207887250Y-102078133D01*
X207862120Y-102364253D01*
X207853815Y-102549903D01*
X207861937Y-102628121D01*
X207886087Y-102591943D01*
X207911311Y-102499082D01*
X207941842Y-102333745D01*
X207968850Y-102124944D01*
X207989830Y-101905279D01*
X208002276Y-101707351D01*
X208003685Y-101563760D01*
X207991551Y-101507107D01*
X207987378Y-101508983D01*
X207987378Y-101508983D01*
G37*
X207987378Y-101508983D02*
X207959591Y-101589071D01*
X207927165Y-101762855D01*
X207895884Y-101997462D01*
X207887250Y-102078133D01*
X207862120Y-102364253D01*
X207853815Y-102549903D01*
X207861937Y-102628121D01*
X207886087Y-102591943D01*
X207911311Y-102499082D01*
X207941842Y-102333745D01*
X207968850Y-102124944D01*
X207989830Y-101905279D01*
X208002276Y-101707351D01*
X208003685Y-101563760D01*
X207991551Y-101507107D01*
X207987378Y-101508983D01*
G36*
X183261512Y-98979002D02*
X183270105Y-98993271D01*
X183274552Y-99070080D01*
X183245594Y-99226622D01*
X183212868Y-99348784D01*
X183157878Y-99562624D01*
X183145322Y-99674493D01*
X183169750Y-99678123D01*
X183225711Y-99567246D01*
X183278609Y-99424379D01*
X183353829Y-99179697D01*
X183376255Y-99032502D01*
X183346945Y-98965267D01*
X183306917Y-98956000D01*
X183261512Y-98979002D01*
X183261512Y-98979002D01*
G37*
X183261512Y-98979002D02*
X183270105Y-98993271D01*
X183274552Y-99070080D01*
X183245594Y-99226622D01*
X183212868Y-99348784D01*
X183157878Y-99562624D01*
X183145322Y-99674493D01*
X183169750Y-99678123D01*
X183225711Y-99567246D01*
X183278609Y-99424379D01*
X183353829Y-99179697D01*
X183376255Y-99032502D01*
X183346945Y-98965267D01*
X183306917Y-98956000D01*
X183261512Y-98979002D01*
G36*
X182372385Y-99103048D02*
X182373486Y-99146500D01*
X182394700Y-99329243D01*
X182428500Y-99495750D01*
X182459456Y-99608291D01*
X182474584Y-99614711D01*
X182481464Y-99506259D01*
X182483515Y-99432250D01*
X182472976Y-99244725D01*
X182438628Y-99102335D01*
X182428500Y-99083000D01*
X182384597Y-99037465D01*
X182372385Y-99103048D01*
X182372385Y-99103048D01*
G37*
X182372385Y-99103048D02*
X182373486Y-99146500D01*
X182394700Y-99329243D01*
X182428500Y-99495750D01*
X182459456Y-99608291D01*
X182474584Y-99614711D01*
X182481464Y-99506259D01*
X182483515Y-99432250D01*
X182472976Y-99244725D01*
X182438628Y-99102335D01*
X182428500Y-99083000D01*
X182384597Y-99037465D01*
X182372385Y-99103048D01*
G36*
X182869373Y-99210000D02*
X182836645Y-99407873D01*
X182829925Y-99543117D01*
X182848404Y-99593744D01*
X182882102Y-99556122D01*
X182903272Y-99459918D01*
X182918448Y-99288889D01*
X182921538Y-99210000D01*
X182928622Y-98924250D01*
X182869373Y-99210000D01*
X182869373Y-99210000D01*
G37*
X182869373Y-99210000D02*
X182836645Y-99407873D01*
X182829925Y-99543117D01*
X182848404Y-99593744D01*
X182882102Y-99556122D01*
X182903272Y-99459918D01*
X182918448Y-99288889D01*
X182921538Y-99210000D01*
X182928622Y-98924250D01*
X182869373Y-99210000D01*
G36*
X183133962Y-90616796D02*
X183154147Y-90736710D01*
X183209013Y-90957989D01*
X183224960Y-91018500D01*
X183317538Y-91367750D01*
X183287457Y-91023362D01*
X183259270Y-90818802D01*
X183219339Y-90664833D01*
X183192188Y-90613787D01*
X183147096Y-90581428D01*
X183133962Y-90616796D01*
X183133962Y-90616796D01*
G37*
X183133962Y-90616796D02*
X183154147Y-90736710D01*
X183209013Y-90957989D01*
X183224960Y-91018500D01*
X183317538Y-91367750D01*
X183287457Y-91023362D01*
X183259270Y-90818802D01*
X183219339Y-90664833D01*
X183192188Y-90613787D01*
X183147096Y-90581428D01*
X183133962Y-90616796D01*
G36*
X182771582Y-90879221D02*
X182784147Y-90986750D01*
X182824780Y-91164050D01*
X182874875Y-91287711D01*
X182887392Y-91304250D01*
X182921443Y-91301955D01*
X182911460Y-91183054D01*
X182904153Y-91145500D01*
X182857748Y-90962397D01*
X182813094Y-90847603D01*
X182780827Y-90815189D01*
X182771582Y-90879221D01*
X182771582Y-90879221D01*
G37*
X182771582Y-90879221D02*
X182784147Y-90986750D01*
X182824780Y-91164050D01*
X182874875Y-91287711D01*
X182887392Y-91304250D01*
X182921443Y-91301955D01*
X182911460Y-91183054D01*
X182904153Y-91145500D01*
X182857748Y-90962397D01*
X182813094Y-90847603D01*
X182780827Y-90815189D01*
X182771582Y-90879221D01*
G36*
X183629148Y-90781743D02*
X183588385Y-90923705D01*
X183583454Y-91099243D01*
X183602357Y-91224079D01*
X183628581Y-91232843D01*
X183650875Y-91187931D01*
X183684790Y-91040693D01*
X183696570Y-90870431D01*
X183689247Y-90744197D01*
X183663807Y-90730792D01*
X183629148Y-90781743D01*
X183629148Y-90781743D01*
G37*
X183629148Y-90781743D02*
X183588385Y-90923705D01*
X183583454Y-91099243D01*
X183602357Y-91224079D01*
X183628581Y-91232843D01*
X183650875Y-91187931D01*
X183684790Y-91040693D01*
X183696570Y-90870431D01*
X183689247Y-90744197D01*
X183663807Y-90730792D01*
X183629148Y-90781743D01*
G36*
X202536472Y-103259798D02*
X202326533Y-103359264D01*
X202025173Y-103425449D01*
X201663888Y-103457018D01*
X201274175Y-103452633D01*
X200887528Y-103410960D01*
X200576701Y-103342919D01*
X200343395Y-103281163D01*
X200200245Y-103259338D01*
X200117581Y-103275291D01*
X200080529Y-103306921D01*
X200067959Y-103400200D01*
X200168662Y-103496802D01*
X200369495Y-103587871D01*
X200589500Y-103649894D01*
X200808451Y-103682180D01*
X201103060Y-103701981D01*
X201434163Y-103709289D01*
X201762598Y-103704098D01*
X202049200Y-103686399D01*
X202254805Y-103656184D01*
X202277415Y-103650232D01*
X202453940Y-103570290D01*
X202591749Y-103458020D01*
X202661549Y-103342628D01*
X202653818Y-103274917D01*
X202574839Y-103240819D01*
X202536472Y-103259798D01*
X202536472Y-103259798D01*
G37*
X202536472Y-103259798D02*
X202326533Y-103359264D01*
X202025173Y-103425449D01*
X201663888Y-103457018D01*
X201274175Y-103452633D01*
X200887528Y-103410960D01*
X200576701Y-103342919D01*
X200343395Y-103281163D01*
X200200245Y-103259338D01*
X200117581Y-103275291D01*
X200080529Y-103306921D01*
X200067959Y-103400200D01*
X200168662Y-103496802D01*
X200369495Y-103587871D01*
X200589500Y-103649894D01*
X200808451Y-103682180D01*
X201103060Y-103701981D01*
X201434163Y-103709289D01*
X201762598Y-103704098D01*
X202049200Y-103686399D01*
X202254805Y-103656184D01*
X202277415Y-103650232D01*
X202453940Y-103570290D01*
X202591749Y-103458020D01*
X202661549Y-103342628D01*
X202653818Y-103274917D01*
X202574839Y-103240819D01*
X202536472Y-103259798D01*
G36*
X198135275Y-102558989D02*
X198075426Y-102670083D01*
X198115396Y-102800475D01*
X198119680Y-102805798D01*
X198209461Y-102882910D01*
X198306382Y-102866759D01*
X198390070Y-102811949D01*
X198465023Y-102700596D01*
X198438633Y-102588023D01*
X198328246Y-102518202D01*
X198271750Y-102512000D01*
X198135275Y-102558989D01*
X198135275Y-102558989D01*
G37*
X198135275Y-102558989D02*
X198075426Y-102670083D01*
X198115396Y-102800475D01*
X198119680Y-102805798D01*
X198209461Y-102882910D01*
X198306382Y-102866759D01*
X198390070Y-102811949D01*
X198465023Y-102700596D01*
X198438633Y-102588023D01*
X198328246Y-102518202D01*
X198271750Y-102512000D01*
X198135275Y-102558989D01*
G36*
X203652184Y-102234247D02*
X203560471Y-102346172D01*
X203542250Y-102423670D01*
X203592517Y-102522112D01*
X203707567Y-102567664D01*
X203833782Y-102553360D01*
X203917472Y-102472411D01*
X203916973Y-102338714D01*
X203836008Y-102239335D01*
X203715090Y-102210642D01*
X203652184Y-102234247D01*
X203652184Y-102234247D01*
G37*
X203652184Y-102234247D02*
X203560471Y-102346172D01*
X203542250Y-102423670D01*
X203592517Y-102522112D01*
X203707567Y-102567664D01*
X203833782Y-102553360D01*
X203917472Y-102472411D01*
X203916973Y-102338714D01*
X203836008Y-102239335D01*
X203715090Y-102210642D01*
X203652184Y-102234247D01*
M02*
