<?xml version="1.0" standalone="no"?>
 <!DOCTYPE svg PUBLIC "-//W3C//DTD SVG 1.1//EN" 
 "http://www.w3.org/Graphics/SVG/1.1/DTD/svg11.dtd"> 
<svg xmlns="http://www.w3.org/2000/svg" version="1.1" 
    width="12.1234cm" height="14.2342cm" viewBox="0 0 47730 56040 ">
<title>SVG Picture created as vna_r1-Edge.Cuts.svg date 2018/05/20 15:45:27 </title>
  <desc>Picture generated by PCBNEW </desc>
<g style="fill:#000000; fill-opacity:1;stroke:#000000; stroke-opacity:1;
stroke-linecap:round; stroke-linejoin:round; "
 transform="translate(0 0) scale(1 1)">
</g>
<g style="fill:#C2C200; fill-opacity:0.0; 
stroke:#C2C200; stroke-width:-0.000393701; stroke-opacity:1; 
stroke-linecap:round; stroke-linejoin:round;">
</g>
<g style="fill:#C2C200; fill-opacity:0.0; 
stroke:#C2C200; stroke-width:59.0551; stroke-opacity:1; 
stroke-linecap:round; stroke-linejoin:round;">
<path d="M46373 54788
L46373 1245
" />
<path d="M5822 55575
L45585 55575
" />
<path d="M5034 1245
L5034 54788
" />
<path d="M45585 457
L5822 457
" />
<path d="M5034.68 54788.3 A787.402 787.402 0.0 0 0 5822.08 55575.7 " />
<path d="M5822.08 457.638 A787.402 787.402 0.0 0 0 5034.68 1245.04 " />
<path d="M46373.3 1245.04 A787.402 787.402 0.0 0 0 45585.9 457.638 " />
<path d="M45585.9 55575.7 A787.402 787.402 0.0 0 0 46373.3 54788.3 " />
<path d="M7436 38134
L7475 38134
" />
<path d="M7396 38134
L7436 38134
" />
<path d="M7278 38252
L7396 38134
" />
<path d="M7278 38489
L7278 38252
" />
<path d="M7436 38607
L7278 38489
" />
<path d="M8341 38607
L7436 38607
" />
<path d="M8459 38449
L8341 38607
" />
<path d="M8459 38213
L8459 38449
" />
<path d="M8302 38134
L8459 38213
" />
<path d="M7475 38134
L8302 38134
" />
<path d="M6452 36048
L6570 35930
" />
<path d="M6452 36993
L6452 36048
" />
<path d="M6609 37111
L6452 36993
" />
<path d="M6766 37111
L6609 37111
" />
<path d="M6924 36993
L6766 37111
" />
<path d="M6924 36048
L6924 36993
" />
<path d="M6806 35930
L6924 36048
" />
<path d="M6570 35930
L6806 35930
" />
<path d="M8814 35969
L8814 36048
" />
<path d="M8932 35851
L8814 35969
" />
<path d="M9168 35851
L8932 35851
" />
<path d="M9286 36008
L9168 35851
" />
<path d="M9286 37032
L9286 36008
" />
<path d="M9129 37189
L9286 37032
" />
<path d="M8932 37189
L9129 37189
" />
<path d="M8814 37032
L8932 37189
" />
<path d="M8814 36048
L8814 37032
" />
</g> 
</svg>
