G04 #@! TF.FileFunction,Copper,L3,Inr,Signal*
%FSLAX46Y46*%
G04 Gerber Fmt 4.6, Leading zero omitted, Abs format (unit mm)*
G04 Created by KiCad (PCBNEW 4.0.3-stable) date Sun Sep 11 01:23:42 2016*
%MOMM*%
%LPD*%
G01*
G04 APERTURE LIST*
%ADD10C,0.100000*%
%ADD11C,0.381000*%
%ADD12C,2.400000*%
%ADD13R,2.400000X2.400000*%
%ADD14C,0.600000*%
%ADD15C,0.254000*%
G04 APERTURE END LIST*
D10*
D11*
X136850000Y-102500000D03*
X130900000Y-109450000D03*
X132900000Y-109450000D03*
X136900000Y-109450000D03*
X142900000Y-109450000D03*
X140900000Y-109450000D03*
X138900000Y-109450000D03*
X126900000Y-109450000D03*
X128900000Y-109450000D03*
X132900000Y-107700000D03*
X136900000Y-107700000D03*
X142900000Y-107700000D03*
X140900000Y-107700000D03*
X138900000Y-107700000D03*
X126900000Y-107700000D03*
X130900000Y-107700000D03*
X128900000Y-107700000D03*
X142850000Y-103350000D03*
X140850000Y-103350000D03*
X138850000Y-103350000D03*
X136850000Y-103500000D03*
X132850000Y-103350000D03*
X130850000Y-103350000D03*
X128850000Y-103350000D03*
X126850000Y-103350000D03*
X142850000Y-101350000D03*
X140850000Y-101350000D03*
X138850000Y-101350000D03*
X136850000Y-101350000D03*
X132850000Y-101350000D03*
X130850000Y-101350000D03*
X128850000Y-101350000D03*
X126850000Y-101350000D03*
X142850000Y-99350000D03*
X140850000Y-99350000D03*
X138850000Y-99350000D03*
X136850000Y-99350000D03*
X132850000Y-99350000D03*
X130850000Y-99350000D03*
X128850000Y-99350000D03*
X126850000Y-99350000D03*
X126400000Y-106200000D03*
X126400000Y-104400000D03*
X127350000Y-106200000D03*
X128350000Y-106200000D03*
X128350000Y-104400000D03*
X127350000Y-104400000D03*
X130350000Y-106200000D03*
X131350000Y-106200000D03*
X129350000Y-106200000D03*
X130350000Y-104400000D03*
X131350000Y-104400000D03*
X129350000Y-104400000D03*
X143500000Y-106200000D03*
X140500000Y-106200000D03*
X141500000Y-106200000D03*
X142500000Y-106200000D03*
X139500000Y-106200000D03*
X138500000Y-106200000D03*
X143500000Y-104400000D03*
X142500000Y-104400000D03*
X141500000Y-104400000D03*
X140500000Y-104400000D03*
X139500000Y-104400000D03*
X138500000Y-104400000D03*
X132300000Y-104400000D03*
X133100000Y-104400000D03*
X132300000Y-106200000D03*
X133100000Y-106200000D03*
X137500000Y-104400000D03*
X137500000Y-106200000D03*
X136700000Y-106000000D03*
X135900000Y-106000000D03*
X135100000Y-106000000D03*
X136600000Y-104600000D03*
X135800000Y-104600000D03*
X135800000Y-104200000D03*
X134400000Y-104200000D03*
X134400000Y-104600000D03*
X133600000Y-104600000D03*
X134700000Y-106100000D03*
X134300000Y-106100000D03*
X133900000Y-106100000D03*
X133500000Y-106100000D03*
D12*
X131700000Y-96900000D03*
D13*
X135200000Y-96900000D03*
D14*
X136700000Y-103000000D03*
X136700000Y-101800000D03*
D15*
G36*
X133767526Y-95461012D02*
X133692862Y-95570286D01*
X133666594Y-95700000D01*
X133666594Y-98100000D01*
X133689395Y-98221179D01*
X133761012Y-98332474D01*
X133870286Y-98407138D01*
X134000000Y-98433406D01*
X136400000Y-98433406D01*
X136521179Y-98410605D01*
X136632474Y-98338988D01*
X136707138Y-98229714D01*
X136733406Y-98100000D01*
X136733406Y-95700000D01*
X136710605Y-95578821D01*
X136638988Y-95467526D01*
X136543088Y-95402000D01*
X143598000Y-95402000D01*
X143598000Y-109598000D01*
X126502000Y-109598000D01*
X126502000Y-95402000D01*
X133859232Y-95402000D01*
X133767526Y-95461012D01*
X133767526Y-95461012D01*
G37*
X133767526Y-95461012D02*
X133692862Y-95570286D01*
X133666594Y-95700000D01*
X133666594Y-98100000D01*
X133689395Y-98221179D01*
X133761012Y-98332474D01*
X133870286Y-98407138D01*
X134000000Y-98433406D01*
X136400000Y-98433406D01*
X136521179Y-98410605D01*
X136632474Y-98338988D01*
X136707138Y-98229714D01*
X136733406Y-98100000D01*
X136733406Y-95700000D01*
X136710605Y-95578821D01*
X136638988Y-95467526D01*
X136543088Y-95402000D01*
X143598000Y-95402000D01*
X143598000Y-109598000D01*
X126502000Y-109598000D01*
X126502000Y-95402000D01*
X133859232Y-95402000D01*
X133767526Y-95461012D01*
M02*
