M48
;DRILL file {KiCad 4.0.3-stable} date Sun Sep 11 01:23:43 2016
;FORMAT={3:3/ absolute / metric / keep zeros}
FMAT,2
METRIC,TZ
T1C0.254
T2C0.400
T3C1.200
%
G90
G05
M71
T1
X126400Y-104400
X126400Y-106200
X126850Y-099350
X126850Y-101350
X126850Y-103350
X126900Y-107700
X126900Y-109450
X127350Y-104400
X127350Y-106200
X128350Y-104400
X128350Y-106200
X128850Y-099350
X128850Y-101350
X128850Y-103350
X128900Y-107700
X128900Y-109450
X129350Y-104400
X129350Y-106200
X130350Y-104400
X130350Y-106200
X130850Y-099350
X130850Y-101350
X130850Y-103350
X130900Y-107700
X130900Y-109450
X131350Y-104400
X131350Y-106200
X132300Y-104400
X132300Y-106200
X132850Y-099350
X132850Y-101350
X132850Y-103350
X132900Y-107700
X132900Y-109450
X133100Y-104400
X133100Y-106200
X133500Y-106100
X133600Y-104600
X133900Y-106100
X134300Y-106100
X134400Y-104200
X134400Y-104600
X134700Y-106100
X135100Y-106000
X135800Y-104200
X135800Y-104600
X135900Y-106000
X136600Y-104600
X136700Y-106000
X136850Y-099350
X136850Y-101350
X136850Y-102500
X136850Y-103500
X136900Y-107700
X136900Y-109450
X137500Y-104400
X137500Y-106200
X138500Y-104400
X138500Y-106200
X138850Y-099350
X138850Y-101350
X138850Y-103350
X138900Y-107700
X138900Y-109450
X139500Y-104400
X139500Y-106200
X140500Y-104400
X140500Y-106200
X140850Y-099350
X140850Y-101350
X140850Y-103350
X140900Y-107700
X140900Y-109450
X141500Y-104400
X141500Y-106200
X142500Y-104400
X142500Y-106200
X142850Y-099350
X142850Y-101350
X142850Y-103350
X142900Y-107700
X142900Y-109450
X143500Y-104400
X143500Y-106200
T2
X136700Y-101800
X136700Y-103000
T3
X131700Y-096900
X135200Y-096900
T0
M30
