G04 #@! TF.FileFunction,Legend,Top*
%FSLAX46Y46*%
G04 Gerber Fmt 4.6, Leading zero omitted, Abs format (unit mm)*
G04 Created by KiCad (PCBNEW 4.0.3-stable) date Sun Sep 11 01:23:42 2016*
%MOMM*%
%LPD*%
G01*
G04 APERTURE LIST*
%ADD10C,0.100000*%
%ADD11C,0.200000*%
%ADD12C,0.250000*%
%ADD13C,0.150000*%
G04 APERTURE END LIST*
D10*
D11*
X139657143Y-98961905D02*
X139390476Y-98580952D01*
X139200000Y-98961905D02*
X139200000Y-98161905D01*
X139504762Y-98161905D01*
X139580953Y-98200000D01*
X139619048Y-98238095D01*
X139657143Y-98314286D01*
X139657143Y-98428571D01*
X139619048Y-98504762D01*
X139580953Y-98542857D01*
X139504762Y-98580952D01*
X139200000Y-98580952D01*
X140266667Y-98542857D02*
X140000000Y-98542857D01*
X140000000Y-98961905D02*
X140000000Y-98161905D01*
X140380953Y-98161905D01*
X141447619Y-98161905D02*
X141600000Y-98161905D01*
X141676191Y-98200000D01*
X141752381Y-98276190D01*
X141790476Y-98428571D01*
X141790476Y-98695238D01*
X141752381Y-98847619D01*
X141676191Y-98923810D01*
X141600000Y-98961905D01*
X141447619Y-98961905D01*
X141371429Y-98923810D01*
X141295238Y-98847619D01*
X141257143Y-98695238D01*
X141257143Y-98428571D01*
X141295238Y-98276190D01*
X141371429Y-98200000D01*
X141447619Y-98161905D01*
X142133333Y-98161905D02*
X142133333Y-98809524D01*
X142171428Y-98885714D01*
X142209524Y-98923810D01*
X142285714Y-98961905D01*
X142438095Y-98961905D01*
X142514286Y-98923810D01*
X142552381Y-98885714D01*
X142590476Y-98809524D01*
X142590476Y-98161905D01*
X142857142Y-98161905D02*
X143314285Y-98161905D01*
X143085714Y-98961905D02*
X143085714Y-98161905D01*
X126940477Y-98811905D02*
X126673810Y-98430952D01*
X126483334Y-98811905D02*
X126483334Y-98011905D01*
X126788096Y-98011905D01*
X126864287Y-98050000D01*
X126902382Y-98088095D01*
X126940477Y-98164286D01*
X126940477Y-98278571D01*
X126902382Y-98354762D01*
X126864287Y-98392857D01*
X126788096Y-98430952D01*
X126483334Y-98430952D01*
X127550001Y-98392857D02*
X127283334Y-98392857D01*
X127283334Y-98811905D02*
X127283334Y-98011905D01*
X127664287Y-98011905D01*
X128578572Y-98811905D02*
X128578572Y-98011905D01*
X128959524Y-98811905D02*
X128959524Y-98011905D01*
X129416667Y-98811905D01*
X129416667Y-98011905D01*
D12*
X127259524Y-96485714D02*
X127259524Y-97295238D01*
X127211905Y-97390476D01*
X127164286Y-97438095D01*
X127069047Y-97485714D01*
X126926190Y-97485714D01*
X126830952Y-97438095D01*
X127259524Y-97104762D02*
X127164286Y-97152381D01*
X126973809Y-97152381D01*
X126878571Y-97104762D01*
X126830952Y-97057143D01*
X126783333Y-96961905D01*
X126783333Y-96676190D01*
X126830952Y-96580952D01*
X126878571Y-96533333D01*
X126973809Y-96485714D01*
X127164286Y-96485714D01*
X127259524Y-96533333D01*
X127735714Y-96485714D02*
X127735714Y-97152381D01*
X127735714Y-96580952D02*
X127783333Y-96533333D01*
X127878571Y-96485714D01*
X128021429Y-96485714D01*
X128116667Y-96533333D01*
X128164286Y-96628571D01*
X128164286Y-97152381D01*
X129069048Y-97152381D02*
X129069048Y-96152381D01*
X129069048Y-97104762D02*
X128973810Y-97152381D01*
X128783333Y-97152381D01*
X128688095Y-97104762D01*
X128640476Y-97057143D01*
X128592857Y-96961905D01*
X128592857Y-96676190D01*
X128640476Y-96580952D01*
X128688095Y-96533333D01*
X128783333Y-96485714D01*
X128973810Y-96485714D01*
X129069048Y-96533333D01*
X137376191Y-96252381D02*
X137709524Y-97252381D01*
X138042858Y-96252381D01*
X138376191Y-97252381D02*
X138376191Y-96585714D01*
X138376191Y-96252381D02*
X138328572Y-96300000D01*
X138376191Y-96347619D01*
X138423810Y-96300000D01*
X138376191Y-96252381D01*
X138376191Y-96347619D01*
X138852381Y-96585714D02*
X138852381Y-97252381D01*
X138852381Y-96680952D02*
X138900000Y-96633333D01*
X138995238Y-96585714D01*
X139138096Y-96585714D01*
X139233334Y-96633333D01*
X139280953Y-96728571D01*
X139280953Y-97252381D01*
D13*
X134625000Y-104500000D02*
X134625000Y-105000000D01*
X135575000Y-105000000D02*
X135575000Y-104500000D01*
X135900000Y-102525000D02*
X135400000Y-102525000D01*
X135400000Y-103475000D02*
X135900000Y-103475000D01*
X135900000Y-101325000D02*
X135400000Y-101325000D01*
X135400000Y-102275000D02*
X135900000Y-102275000D01*
X136250000Y-105775000D02*
X136750000Y-105775000D01*
X136750000Y-104825000D02*
X136250000Y-104825000D01*
X133450000Y-92800000D02*
X133450000Y-92400000D01*
X136950000Y-93900000D02*
X129950000Y-93900000D01*
X136950000Y-92800000D02*
X129950000Y-92800000D01*
X136950000Y-100000000D02*
X136950000Y-92400000D01*
X129950000Y-92400000D02*
X129950000Y-100000000D01*
X129950000Y-100000000D02*
X136950000Y-100000000D01*
X135100000Y-105150000D02*
X134900000Y-104950000D01*
X133200000Y-105250000D02*
X133200000Y-106850000D01*
X134800000Y-105250000D02*
X134800000Y-106850000D01*
X132566666Y-103766667D02*
X132233333Y-103766667D01*
X132233333Y-103066667D01*
X133166666Y-103766667D02*
X132766666Y-103766667D01*
X132966666Y-103766667D02*
X132966666Y-103066667D01*
X132900000Y-103166667D01*
X132833333Y-103233333D01*
X132766666Y-103266667D01*
X133600000Y-103066667D02*
X133666667Y-103066667D01*
X133733333Y-103100000D01*
X133766667Y-103133333D01*
X133800000Y-103200000D01*
X133833333Y-103333333D01*
X133833333Y-103500000D01*
X133800000Y-103633333D01*
X133766667Y-103700000D01*
X133733333Y-103733333D01*
X133666667Y-103766667D01*
X133600000Y-103766667D01*
X133533333Y-103733333D01*
X133500000Y-103700000D01*
X133466667Y-103633333D01*
X133433333Y-103500000D01*
X133433333Y-103333333D01*
X133466667Y-103200000D01*
X133500000Y-103133333D01*
X133533333Y-103100000D01*
X133600000Y-103066667D01*
X134500000Y-103766667D02*
X134100000Y-103766667D01*
X134300000Y-103766667D02*
X134300000Y-103066667D01*
X134233334Y-103166667D01*
X134166667Y-103233333D01*
X134100000Y-103266667D01*
X132616667Y-102550000D02*
X132583333Y-102583333D01*
X132483333Y-102616667D01*
X132416667Y-102616667D01*
X132316667Y-102583333D01*
X132250000Y-102516667D01*
X132216667Y-102450000D01*
X132183333Y-102316667D01*
X132183333Y-102216667D01*
X132216667Y-102083333D01*
X132250000Y-102016667D01*
X132316667Y-101950000D01*
X132416667Y-101916667D01*
X132483333Y-101916667D01*
X132583333Y-101950000D01*
X132616667Y-101983333D01*
X133283333Y-102616667D02*
X132883333Y-102616667D01*
X133083333Y-102616667D02*
X133083333Y-101916667D01*
X133016667Y-102016667D01*
X132950000Y-102083333D01*
X132883333Y-102116667D01*
X133716667Y-101916667D02*
X133783334Y-101916667D01*
X133850000Y-101950000D01*
X133883334Y-101983333D01*
X133916667Y-102050000D01*
X133950000Y-102183333D01*
X133950000Y-102350000D01*
X133916667Y-102483333D01*
X133883334Y-102550000D01*
X133850000Y-102583333D01*
X133783334Y-102616667D01*
X133716667Y-102616667D01*
X133650000Y-102583333D01*
X133616667Y-102550000D01*
X133583334Y-102483333D01*
X133550000Y-102350000D01*
X133550000Y-102183333D01*
X133583334Y-102050000D01*
X133616667Y-101983333D01*
X133650000Y-101950000D01*
X133716667Y-101916667D01*
X134616667Y-102616667D02*
X134216667Y-102616667D01*
X134416667Y-102616667D02*
X134416667Y-101916667D01*
X134350001Y-102016667D01*
X134283334Y-102083333D01*
X134216667Y-102116667D01*
X132616667Y-101350000D02*
X132583333Y-101383333D01*
X132483333Y-101416667D01*
X132416667Y-101416667D01*
X132316667Y-101383333D01*
X132250000Y-101316667D01*
X132216667Y-101250000D01*
X132183333Y-101116667D01*
X132183333Y-101016667D01*
X132216667Y-100883333D01*
X132250000Y-100816667D01*
X132316667Y-100750000D01*
X132416667Y-100716667D01*
X132483333Y-100716667D01*
X132583333Y-100750000D01*
X132616667Y-100783333D01*
X133283333Y-101416667D02*
X132883333Y-101416667D01*
X133083333Y-101416667D02*
X133083333Y-100716667D01*
X133016667Y-100816667D01*
X132950000Y-100883333D01*
X132883333Y-100916667D01*
X133716667Y-100716667D02*
X133783334Y-100716667D01*
X133850000Y-100750000D01*
X133883334Y-100783333D01*
X133916667Y-100850000D01*
X133950000Y-100983333D01*
X133950000Y-101150000D01*
X133916667Y-101283333D01*
X133883334Y-101350000D01*
X133850000Y-101383333D01*
X133783334Y-101416667D01*
X133716667Y-101416667D01*
X133650000Y-101383333D01*
X133616667Y-101350000D01*
X133583334Y-101283333D01*
X133550000Y-101150000D01*
X133550000Y-100983333D01*
X133583334Y-100850000D01*
X133616667Y-100783333D01*
X133650000Y-100750000D01*
X133716667Y-100716667D01*
X134216667Y-100783333D02*
X134250001Y-100750000D01*
X134316667Y-100716667D01*
X134483334Y-100716667D01*
X134550001Y-100750000D01*
X134583334Y-100783333D01*
X134616667Y-100850000D01*
X134616667Y-100916667D01*
X134583334Y-101016667D01*
X134183334Y-101416667D01*
X134616667Y-101416667D01*
X135716667Y-107250000D02*
X135683333Y-107283333D01*
X135583333Y-107316667D01*
X135516667Y-107316667D01*
X135416667Y-107283333D01*
X135350000Y-107216667D01*
X135316667Y-107150000D01*
X135283333Y-107016667D01*
X135283333Y-106916667D01*
X135316667Y-106783333D01*
X135350000Y-106716667D01*
X135416667Y-106650000D01*
X135516667Y-106616667D01*
X135583333Y-106616667D01*
X135683333Y-106650000D01*
X135716667Y-106683333D01*
X136383333Y-107316667D02*
X135983333Y-107316667D01*
X136183333Y-107316667D02*
X136183333Y-106616667D01*
X136116667Y-106716667D01*
X136050000Y-106783333D01*
X135983333Y-106816667D01*
X136816667Y-106616667D02*
X136883334Y-106616667D01*
X136950000Y-106650000D01*
X136983334Y-106683333D01*
X137016667Y-106750000D01*
X137050000Y-106883333D01*
X137050000Y-107050000D01*
X137016667Y-107183333D01*
X136983334Y-107250000D01*
X136950000Y-107283333D01*
X136883334Y-107316667D01*
X136816667Y-107316667D01*
X136750000Y-107283333D01*
X136716667Y-107250000D01*
X136683334Y-107183333D01*
X136650000Y-107050000D01*
X136650000Y-106883333D01*
X136683334Y-106750000D01*
X136716667Y-106683333D01*
X136750000Y-106650000D01*
X136816667Y-106616667D01*
X137283334Y-106616667D02*
X137716667Y-106616667D01*
X137483334Y-106883333D01*
X137583334Y-106883333D01*
X137650001Y-106916667D01*
X137683334Y-106950000D01*
X137716667Y-107016667D01*
X137716667Y-107183333D01*
X137683334Y-107250000D01*
X137650001Y-107283333D01*
X137583334Y-107316667D01*
X137383334Y-107316667D01*
X137316667Y-107283333D01*
X137283334Y-107250000D01*
X138016667Y-100033333D02*
X137316667Y-100033333D01*
X137316667Y-99766667D01*
X137350000Y-99700000D01*
X137383333Y-99666667D01*
X137450000Y-99633333D01*
X137550000Y-99633333D01*
X137616667Y-99666667D01*
X137650000Y-99700000D01*
X137683333Y-99766667D01*
X137683333Y-100033333D01*
X138016667Y-98966667D02*
X138016667Y-99366667D01*
X138016667Y-99166667D02*
X137316667Y-99166667D01*
X137416667Y-99233333D01*
X137483333Y-99300000D01*
X137516667Y-99366667D01*
X137316667Y-98533333D02*
X137316667Y-98466666D01*
X137350000Y-98400000D01*
X137383333Y-98366666D01*
X137450000Y-98333333D01*
X137583333Y-98300000D01*
X137750000Y-98300000D01*
X137883333Y-98333333D01*
X137950000Y-98366666D01*
X137983333Y-98400000D01*
X138016667Y-98466666D01*
X138016667Y-98533333D01*
X137983333Y-98600000D01*
X137950000Y-98633333D01*
X137883333Y-98666666D01*
X137750000Y-98700000D01*
X137583333Y-98700000D01*
X137450000Y-98666666D01*
X137383333Y-98633333D01*
X137350000Y-98600000D01*
X137316667Y-98533333D01*
X138016667Y-97633333D02*
X138016667Y-98033333D01*
X138016667Y-97833333D02*
X137316667Y-97833333D01*
X137416667Y-97899999D01*
X137483333Y-97966666D01*
X137516667Y-98033333D01*
X133400000Y-108816667D02*
X133400000Y-109383333D01*
X133433333Y-109450000D01*
X133466666Y-109483333D01*
X133533333Y-109516667D01*
X133666666Y-109516667D01*
X133733333Y-109483333D01*
X133766666Y-109450000D01*
X133800000Y-109383333D01*
X133800000Y-108816667D01*
X134499999Y-109516667D02*
X134099999Y-109516667D01*
X134299999Y-109516667D02*
X134299999Y-108816667D01*
X134233333Y-108916667D01*
X134166666Y-108983333D01*
X134099999Y-109016667D01*
X134933333Y-108816667D02*
X135000000Y-108816667D01*
X135066666Y-108850000D01*
X135100000Y-108883333D01*
X135133333Y-108950000D01*
X135166666Y-109083333D01*
X135166666Y-109250000D01*
X135133333Y-109383333D01*
X135100000Y-109450000D01*
X135066666Y-109483333D01*
X135000000Y-109516667D01*
X134933333Y-109516667D01*
X134866666Y-109483333D01*
X134833333Y-109450000D01*
X134800000Y-109383333D01*
X134766666Y-109250000D01*
X134766666Y-109083333D01*
X134800000Y-108950000D01*
X134833333Y-108883333D01*
X134866666Y-108850000D01*
X134933333Y-108816667D01*
X135833333Y-109516667D02*
X135433333Y-109516667D01*
X135633333Y-109516667D02*
X135633333Y-108816667D01*
X135566667Y-108916667D01*
X135500000Y-108983333D01*
X135433333Y-109016667D01*
X133400000Y-107666667D02*
X133400000Y-108233333D01*
X133433333Y-108300000D01*
X133466666Y-108333333D01*
X133533333Y-108366667D01*
X133666666Y-108366667D01*
X133733333Y-108333333D01*
X133766666Y-108300000D01*
X133800000Y-108233333D01*
X133800000Y-107666667D01*
X134499999Y-108366667D02*
X134099999Y-108366667D01*
X134299999Y-108366667D02*
X134299999Y-107666667D01*
X134233333Y-107766667D01*
X134166666Y-107833333D01*
X134099999Y-107866667D01*
X134933333Y-107666667D02*
X135000000Y-107666667D01*
X135066666Y-107700000D01*
X135100000Y-107733333D01*
X135133333Y-107800000D01*
X135166666Y-107933333D01*
X135166666Y-108100000D01*
X135133333Y-108233333D01*
X135100000Y-108300000D01*
X135066666Y-108333333D01*
X135000000Y-108366667D01*
X134933333Y-108366667D01*
X134866666Y-108333333D01*
X134833333Y-108300000D01*
X134800000Y-108233333D01*
X134766666Y-108100000D01*
X134766666Y-107933333D01*
X134800000Y-107800000D01*
X134833333Y-107733333D01*
X134866666Y-107700000D01*
X134933333Y-107666667D01*
X135433333Y-107733333D02*
X135466667Y-107700000D01*
X135533333Y-107666667D01*
X135700000Y-107666667D01*
X135766667Y-107700000D01*
X135800000Y-107733333D01*
X135833333Y-107800000D01*
X135833333Y-107866667D01*
X135800000Y-107966667D01*
X135400000Y-108366667D01*
X135833333Y-108366667D01*
X141300000Y-110316667D02*
X141300000Y-110883333D01*
X141333333Y-110950000D01*
X141366666Y-110983333D01*
X141433333Y-111016667D01*
X141566666Y-111016667D01*
X141633333Y-110983333D01*
X141666666Y-110950000D01*
X141700000Y-110883333D01*
X141700000Y-110316667D01*
X142399999Y-111016667D02*
X141999999Y-111016667D01*
X142199999Y-111016667D02*
X142199999Y-110316667D01*
X142133333Y-110416667D01*
X142066666Y-110483333D01*
X141999999Y-110516667D01*
X142833333Y-110316667D02*
X142900000Y-110316667D01*
X142966666Y-110350000D01*
X143000000Y-110383333D01*
X143033333Y-110450000D01*
X143066666Y-110583333D01*
X143066666Y-110750000D01*
X143033333Y-110883333D01*
X143000000Y-110950000D01*
X142966666Y-110983333D01*
X142900000Y-111016667D01*
X142833333Y-111016667D01*
X142766666Y-110983333D01*
X142733333Y-110950000D01*
X142700000Y-110883333D01*
X142666666Y-110750000D01*
X142666666Y-110583333D01*
X142700000Y-110450000D01*
X142733333Y-110383333D01*
X142766666Y-110350000D01*
X142833333Y-110316667D01*
X143300000Y-110316667D02*
X143733333Y-110316667D01*
X143500000Y-110583333D01*
X143600000Y-110583333D01*
X143666667Y-110616667D01*
X143700000Y-110650000D01*
X143733333Y-110716667D01*
X143733333Y-110883333D01*
X143700000Y-110950000D01*
X143666667Y-110983333D01*
X143600000Y-111016667D01*
X143400000Y-111016667D01*
X143333333Y-110983333D01*
X143300000Y-110950000D01*
M02*
