M48
;DRILL file {KiCad 4.0.2-stable} date Sun 24 Apr 2016 07:43:36 PM AKDT
;FORMAT={-:-/ absolute / inch / decimal}
FMAT,2
INCH,TZ
T1C0.016
T2C0.040
%
G90
G05
M72
T1
X5.5807Y-3.9665
X5.5858Y-4.3063
X5.6693Y-3.8091
X5.6693Y-4.3701
X5.7579Y-4.1043
X5.7579Y-4.1634
X5.7776Y-4.2421
X5.8169Y-4.065
X5.8169Y-4.2028
X5.8267Y-4.1437
X5.8662Y-4.1437
X5.876Y-4.0661
X5.8841Y-4.2028
X5.9154Y-3.937
X5.9843Y-4.0157
X6.0138Y-3.8091
X6.0138Y-4.3701
X6.063Y-3.9961
T2
X6.1909Y-4.052
X6.1909Y-4.152
X6.1909Y-4.252
X6.1909Y-4.352
T0
M30
