G04 #@! TF.FileFunction,Legend,Top*
%FSLAX46Y46*%
G04 Gerber Fmt 4.6, Leading zero omitted, Abs format (unit mm)*
G04 Created by KiCad (PCBNEW 4.0.2-stable) date Sun 24 Apr 2016 07:43:34 PM AKDT*
%MOMM*%
G01*
G04 APERTURE LIST*
%ADD10C,0.100000*%
%ADD11C,0.275000*%
%ADD12C,0.300000*%
%ADD13C,0.150000*%
G04 APERTURE END LIST*
D10*
D11*
X137528572Y-97747619D02*
X137528572Y-96647619D01*
X138419048Y-97171429D02*
X138052382Y-97171429D01*
X138052382Y-97747619D02*
X138052382Y-96647619D01*
X138576191Y-96647619D01*
X156369048Y-115997619D02*
X156002382Y-115473810D01*
X155740477Y-115997619D02*
X155740477Y-114897619D01*
X156159524Y-114897619D01*
X156264286Y-114950000D01*
X156316667Y-115002381D01*
X156369048Y-115107143D01*
X156369048Y-115264286D01*
X156316667Y-115369048D01*
X156264286Y-115421429D01*
X156159524Y-115473810D01*
X155740477Y-115473810D01*
X157207143Y-115421429D02*
X156840477Y-115421429D01*
X156840477Y-115997619D02*
X156840477Y-114897619D01*
X157364286Y-114897619D01*
X158014286Y-93340119D02*
X157490477Y-93340119D01*
X157490477Y-92240119D01*
X158590477Y-92240119D02*
X158800000Y-92240119D01*
X158904762Y-92292500D01*
X159009524Y-92397262D01*
X159061905Y-92606786D01*
X159061905Y-92973452D01*
X159009524Y-93182976D01*
X158904762Y-93287738D01*
X158800000Y-93340119D01*
X158590477Y-93340119D01*
X158485715Y-93287738D01*
X158380953Y-93182976D01*
X158328572Y-92973452D01*
X158328572Y-92606786D01*
X158380953Y-92397262D01*
X158485715Y-92292500D01*
X158590477Y-92240119D01*
X155997620Y-94055119D02*
X156102381Y-94055119D01*
X156207143Y-94107500D01*
X156259524Y-94159881D01*
X156311905Y-94264643D01*
X156364286Y-94474167D01*
X156364286Y-94736071D01*
X156311905Y-94945595D01*
X156259524Y-95050357D01*
X156207143Y-95102738D01*
X156102381Y-95155119D01*
X155997620Y-95155119D01*
X155892858Y-95102738D01*
X155840477Y-95050357D01*
X155788096Y-94945595D01*
X155735715Y-94736071D01*
X155735715Y-94474167D01*
X155788096Y-94264643D01*
X155840477Y-94159881D01*
X155892858Y-94107500D01*
X155997620Y-94055119D01*
X158145238Y-95155119D02*
X158145238Y-94055119D01*
X158145238Y-95102738D02*
X158040476Y-95155119D01*
X157830953Y-95155119D01*
X157726191Y-95102738D01*
X157673810Y-95050357D01*
X157621429Y-94945595D01*
X157621429Y-94631310D01*
X157673810Y-94526548D01*
X157726191Y-94474167D01*
X157830953Y-94421786D01*
X158040476Y-94421786D01*
X158145238Y-94474167D01*
X159035714Y-94578929D02*
X159192857Y-94631310D01*
X159245238Y-94683690D01*
X159297619Y-94788452D01*
X159297619Y-94945595D01*
X159245238Y-95050357D01*
X159192857Y-95102738D01*
X159088095Y-95155119D01*
X158669048Y-95155119D01*
X158669048Y-94055119D01*
X159035714Y-94055119D01*
X159140476Y-94107500D01*
X159192857Y-94159881D01*
X159245238Y-94264643D01*
X159245238Y-94369405D01*
X159192857Y-94474167D01*
X159140476Y-94526548D01*
X159035714Y-94578929D01*
X158669048Y-94578929D01*
X159769048Y-95155119D02*
X159769048Y-94421786D01*
X159769048Y-94526548D02*
X159821429Y-94474167D01*
X159926191Y-94421786D01*
X160083333Y-94421786D01*
X160188095Y-94474167D01*
X160240476Y-94578929D01*
X160240476Y-95155119D01*
X160240476Y-94578929D02*
X160292857Y-94474167D01*
X160397619Y-94421786D01*
X160554762Y-94421786D01*
X160659524Y-94474167D01*
X160711905Y-94578929D01*
X160711905Y-95155119D01*
D12*
X137802857Y-116171429D02*
X137002857Y-116171429D01*
X137117143Y-116171429D02*
X137060000Y-116114286D01*
X137002857Y-116000000D01*
X137002857Y-115828572D01*
X137060000Y-115714286D01*
X137174286Y-115657143D01*
X137802857Y-115657143D01*
X137174286Y-115657143D02*
X137060000Y-115600000D01*
X137002857Y-115485714D01*
X137002857Y-115314286D01*
X137060000Y-115200000D01*
X137174286Y-115142857D01*
X137802857Y-115142857D01*
X137802857Y-114571429D02*
X137002857Y-114571429D01*
X136602857Y-114571429D02*
X136660000Y-114628572D01*
X136717143Y-114571429D01*
X136660000Y-114514286D01*
X136602857Y-114571429D01*
X136717143Y-114571429D01*
X137802857Y-114114285D02*
X137002857Y-113485714D01*
X137002857Y-114114285D02*
X137802857Y-113485714D01*
X137745714Y-112571428D02*
X137802857Y-112685714D01*
X137802857Y-112914285D01*
X137745714Y-113028571D01*
X137631429Y-113085714D01*
X137174286Y-113085714D01*
X137060000Y-113028571D01*
X137002857Y-112914285D01*
X137002857Y-112685714D01*
X137060000Y-112571428D01*
X137174286Y-112514285D01*
X137288571Y-112514285D01*
X137402857Y-113085714D01*
X137802857Y-112000000D02*
X137002857Y-112000000D01*
X137231429Y-112000000D02*
X137117143Y-111942857D01*
X137060000Y-111885714D01*
X137002857Y-111771428D01*
X137002857Y-111657143D01*
X139782857Y-114657143D02*
X138982857Y-114657143D01*
X139211429Y-114657143D02*
X139097143Y-114600000D01*
X139040000Y-114542857D01*
X138982857Y-114428571D01*
X138982857Y-114314286D01*
X138582857Y-113685714D02*
X138582857Y-113571429D01*
X138640000Y-113457143D01*
X138697143Y-113400000D01*
X138811429Y-113342857D01*
X139040000Y-113285714D01*
X139325714Y-113285714D01*
X139554286Y-113342857D01*
X139668571Y-113400000D01*
X139725714Y-113457143D01*
X139782857Y-113571429D01*
X139782857Y-113685714D01*
X139725714Y-113800000D01*
X139668571Y-113857143D01*
X139554286Y-113914286D01*
X139325714Y-113971429D01*
X139040000Y-113971429D01*
X138811429Y-113914286D01*
X138697143Y-113857143D01*
X138640000Y-113800000D01*
X138582857Y-113685714D01*
X161485714Y-112471428D02*
X161542857Y-112585714D01*
X161542857Y-112814285D01*
X161485714Y-112928571D01*
X161371429Y-112985714D01*
X160914286Y-112985714D01*
X160800000Y-112928571D01*
X160742857Y-112814285D01*
X160742857Y-112585714D01*
X160800000Y-112471428D01*
X160914286Y-112414285D01*
X161028571Y-112414285D01*
X161142857Y-112985714D01*
X160742857Y-111900000D02*
X161542857Y-111900000D01*
X160857143Y-111900000D02*
X160800000Y-111842857D01*
X160742857Y-111728571D01*
X160742857Y-111557143D01*
X160800000Y-111442857D01*
X160914286Y-111385714D01*
X161542857Y-111385714D01*
X161542857Y-110014285D02*
X160742857Y-109385714D01*
X160742857Y-110014285D02*
X161542857Y-109385714D01*
X160457143Y-108985714D02*
X160400000Y-108928571D01*
X160342857Y-108814285D01*
X160342857Y-108528571D01*
X160400000Y-108414285D01*
X160457143Y-108357142D01*
X160571429Y-108299999D01*
X160685714Y-108299999D01*
X160857143Y-108357142D01*
X161542857Y-109042856D01*
X161542857Y-108299999D01*
X160742857Y-106357142D02*
X161714286Y-106357142D01*
X161828571Y-106414285D01*
X161885714Y-106471428D01*
X161942857Y-106585713D01*
X161942857Y-106757142D01*
X161885714Y-106871428D01*
X161485714Y-106357142D02*
X161542857Y-106471428D01*
X161542857Y-106699999D01*
X161485714Y-106814285D01*
X161428571Y-106871428D01*
X161314286Y-106928571D01*
X160971429Y-106928571D01*
X160857143Y-106871428D01*
X160800000Y-106814285D01*
X160742857Y-106699999D01*
X160742857Y-106471428D01*
X160800000Y-106357142D01*
X160742857Y-105785714D02*
X161542857Y-105785714D01*
X160857143Y-105785714D02*
X160800000Y-105728571D01*
X160742857Y-105614285D01*
X160742857Y-105442857D01*
X160800000Y-105328571D01*
X160914286Y-105271428D01*
X161542857Y-105271428D01*
X161542857Y-104185714D02*
X160342857Y-104185714D01*
X161485714Y-104185714D02*
X161542857Y-104300000D01*
X161542857Y-104528571D01*
X161485714Y-104642857D01*
X161428571Y-104700000D01*
X161314286Y-104757143D01*
X160971429Y-104757143D01*
X160857143Y-104700000D01*
X160800000Y-104642857D01*
X160742857Y-104528571D01*
X160742857Y-104300000D01*
X160800000Y-104185714D01*
X160342857Y-102814285D02*
X160342857Y-102071428D01*
X160800000Y-102471428D01*
X160800000Y-102300000D01*
X160857143Y-102185714D01*
X160914286Y-102128571D01*
X161028571Y-102071428D01*
X161314286Y-102071428D01*
X161428571Y-102128571D01*
X161485714Y-102185714D01*
X161542857Y-102300000D01*
X161542857Y-102642857D01*
X161485714Y-102757143D01*
X161428571Y-102814285D01*
X160742857Y-101671428D02*
X161542857Y-101385714D01*
X160742857Y-101100000D01*
X160342857Y-100757142D02*
X160342857Y-100014285D01*
X160800000Y-100414285D01*
X160800000Y-100242857D01*
X160857143Y-100128571D01*
X160914286Y-100071428D01*
X161028571Y-100014285D01*
X161314286Y-100014285D01*
X161428571Y-100071428D01*
X161485714Y-100128571D01*
X161542857Y-100242857D01*
X161542857Y-100585714D01*
X161485714Y-100700000D01*
X161428571Y-100757142D01*
D13*
X146400000Y-103603600D02*
G75*
G03X146400000Y-103603600I-100000J0D01*
G01*
X146800000Y-106103600D02*
X146800000Y-105903600D01*
X147600000Y-106103600D02*
X146800000Y-106103600D01*
X150200000Y-106103600D02*
X149400000Y-106103600D01*
X150200000Y-105903600D02*
X150200000Y-106103600D01*
X150200000Y-103803600D02*
X150200000Y-104103600D01*
X149400000Y-103803600D02*
X150200000Y-103803600D01*
X146800000Y-103803600D02*
X147600000Y-103803600D01*
X146800000Y-104103600D02*
X146800000Y-103803600D01*
X143750000Y-104525000D02*
X143250000Y-104525000D01*
X143250000Y-105475000D02*
X143750000Y-105475000D01*
X148025000Y-109800000D02*
X148025000Y-110300000D01*
X148975000Y-110300000D02*
X148975000Y-109800000D01*
X148975000Y-98250000D02*
X148975000Y-97750000D01*
X148025000Y-97750000D02*
X148025000Y-98250000D01*
X149250000Y-99525000D02*
X148750000Y-99525000D01*
X148750000Y-100475000D02*
X149250000Y-100475000D01*
X148250000Y-107275000D02*
X147750000Y-107275000D01*
X147750000Y-108225000D02*
X148250000Y-108225000D01*
X151525000Y-103250000D02*
X151525000Y-103750000D01*
X152475000Y-103750000D02*
X152475000Y-103250000D01*
X153400000Y-103600000D02*
X153400000Y-102900000D01*
X154600000Y-102900000D02*
X154600000Y-103600000D01*
X152200000Y-106025000D02*
X152700000Y-106025000D01*
X152700000Y-104975000D02*
X152200000Y-104975000D01*
X155980000Y-104190000D02*
X155980000Y-111810000D01*
X158520000Y-104190000D02*
X158520000Y-111810000D01*
X158800000Y-101370000D02*
X158800000Y-102920000D01*
X155980000Y-111810000D02*
X158520000Y-111810000D01*
X158520000Y-104190000D02*
X155980000Y-104190000D01*
X155700000Y-102920000D02*
X155700000Y-101370000D01*
X155700000Y-101370000D02*
X158800000Y-101370000D01*
X136000000Y-111000000D02*
X142250000Y-111000000D01*
X136000000Y-99000000D02*
X142250000Y-99000000D01*
X154500000Y-117000000D02*
X154500000Y-110750000D01*
X142500000Y-117000000D02*
X142500000Y-110750000D01*
X142500000Y-91000000D02*
X142500000Y-97250000D01*
X154500000Y-91000000D02*
X154500000Y-97250000D01*
X145564286Y-101757143D02*
X145564286Y-102485714D01*
X145607143Y-102571429D01*
X145650000Y-102614286D01*
X145735714Y-102657143D01*
X145907143Y-102657143D01*
X145992857Y-102614286D01*
X146035714Y-102571429D01*
X146078571Y-102485714D01*
X146078571Y-101757143D01*
X146464286Y-101842857D02*
X146507143Y-101800000D01*
X146592857Y-101757143D01*
X146807143Y-101757143D01*
X146892857Y-101800000D01*
X146935714Y-101842857D01*
X146978571Y-101928571D01*
X146978571Y-102014286D01*
X146935714Y-102142857D01*
X146421428Y-102657143D01*
X146978571Y-102657143D01*
X143350000Y-103621429D02*
X143307143Y-103664286D01*
X143178572Y-103707143D01*
X143092858Y-103707143D01*
X142964286Y-103664286D01*
X142878572Y-103578571D01*
X142835715Y-103492857D01*
X142792858Y-103321429D01*
X142792858Y-103192857D01*
X142835715Y-103021429D01*
X142878572Y-102935714D01*
X142964286Y-102850000D01*
X143092858Y-102807143D01*
X143178572Y-102807143D01*
X143307143Y-102850000D01*
X143350000Y-102892857D01*
X144207143Y-103707143D02*
X143692858Y-103707143D01*
X143950000Y-103707143D02*
X143950000Y-102807143D01*
X143864286Y-102935714D01*
X143778572Y-103021429D01*
X143692858Y-103064286D01*
X150821429Y-110150000D02*
X150864286Y-110192857D01*
X150907143Y-110321428D01*
X150907143Y-110407142D01*
X150864286Y-110535714D01*
X150778571Y-110621428D01*
X150692857Y-110664285D01*
X150521429Y-110707142D01*
X150392857Y-110707142D01*
X150221429Y-110664285D01*
X150135714Y-110621428D01*
X150050000Y-110535714D01*
X150007143Y-110407142D01*
X150007143Y-110321428D01*
X150050000Y-110192857D01*
X150092857Y-110150000D01*
X150092857Y-109807142D02*
X150050000Y-109764285D01*
X150007143Y-109678571D01*
X150007143Y-109464285D01*
X150050000Y-109378571D01*
X150092857Y-109335714D01*
X150178571Y-109292857D01*
X150264286Y-109292857D01*
X150392857Y-109335714D01*
X150907143Y-109850000D01*
X150907143Y-109292857D01*
X147321429Y-98150000D02*
X147364286Y-98192857D01*
X147407143Y-98321428D01*
X147407143Y-98407142D01*
X147364286Y-98535714D01*
X147278571Y-98621428D01*
X147192857Y-98664285D01*
X147021429Y-98707142D01*
X146892857Y-98707142D01*
X146721429Y-98664285D01*
X146635714Y-98621428D01*
X146550000Y-98535714D01*
X146507143Y-98407142D01*
X146507143Y-98321428D01*
X146550000Y-98192857D01*
X146592857Y-98150000D01*
X146507143Y-97850000D02*
X146507143Y-97292857D01*
X146850000Y-97592857D01*
X146850000Y-97464285D01*
X146892857Y-97378571D01*
X146935714Y-97335714D01*
X147021429Y-97292857D01*
X147235714Y-97292857D01*
X147321429Y-97335714D01*
X147364286Y-97378571D01*
X147407143Y-97464285D01*
X147407143Y-97721428D01*
X147364286Y-97807142D01*
X147321429Y-97850000D01*
X147321429Y-100150000D02*
X147364286Y-100192857D01*
X147407143Y-100321428D01*
X147407143Y-100407142D01*
X147364286Y-100535714D01*
X147278571Y-100621428D01*
X147192857Y-100664285D01*
X147021429Y-100707142D01*
X146892857Y-100707142D01*
X146721429Y-100664285D01*
X146635714Y-100621428D01*
X146550000Y-100535714D01*
X146507143Y-100407142D01*
X146507143Y-100321428D01*
X146550000Y-100192857D01*
X146592857Y-100150000D01*
X146807143Y-99378571D02*
X147407143Y-99378571D01*
X146464286Y-99592857D02*
X147107143Y-99807142D01*
X147107143Y-99250000D01*
X150821429Y-107900000D02*
X150864286Y-107942857D01*
X150907143Y-108071428D01*
X150907143Y-108157142D01*
X150864286Y-108285714D01*
X150778571Y-108371428D01*
X150692857Y-108414285D01*
X150521429Y-108457142D01*
X150392857Y-108457142D01*
X150221429Y-108414285D01*
X150135714Y-108371428D01*
X150050000Y-108285714D01*
X150007143Y-108157142D01*
X150007143Y-108071428D01*
X150050000Y-107942857D01*
X150092857Y-107900000D01*
X150007143Y-107085714D02*
X150007143Y-107514285D01*
X150435714Y-107557142D01*
X150392857Y-107514285D01*
X150350000Y-107428571D01*
X150350000Y-107214285D01*
X150392857Y-107128571D01*
X150435714Y-107085714D01*
X150521429Y-107042857D01*
X150735714Y-107042857D01*
X150821429Y-107085714D01*
X150864286Y-107128571D01*
X150907143Y-107214285D01*
X150907143Y-107428571D01*
X150864286Y-107514285D01*
X150821429Y-107557142D01*
X152321429Y-100150000D02*
X152364286Y-100192857D01*
X152407143Y-100321428D01*
X152407143Y-100407142D01*
X152364286Y-100535714D01*
X152278571Y-100621428D01*
X152192857Y-100664285D01*
X152021429Y-100707142D01*
X151892857Y-100707142D01*
X151721429Y-100664285D01*
X151635714Y-100621428D01*
X151550000Y-100535714D01*
X151507143Y-100407142D01*
X151507143Y-100321428D01*
X151550000Y-100192857D01*
X151592857Y-100150000D01*
X151507143Y-99378571D02*
X151507143Y-99550000D01*
X151550000Y-99635714D01*
X151592857Y-99678571D01*
X151721429Y-99764285D01*
X151892857Y-99807142D01*
X152235714Y-99807142D01*
X152321429Y-99764285D01*
X152364286Y-99721428D01*
X152407143Y-99635714D01*
X152407143Y-99464285D01*
X152364286Y-99378571D01*
X152321429Y-99335714D01*
X152235714Y-99292857D01*
X152021429Y-99292857D01*
X151935714Y-99335714D01*
X151892857Y-99378571D01*
X151850000Y-99464285D01*
X151850000Y-99635714D01*
X151892857Y-99721428D01*
X151935714Y-99764285D01*
X152021429Y-99807142D01*
X154321429Y-100150000D02*
X154364286Y-100192857D01*
X154407143Y-100321428D01*
X154407143Y-100407142D01*
X154364286Y-100535714D01*
X154278571Y-100621428D01*
X154192857Y-100664285D01*
X154021429Y-100707142D01*
X153892857Y-100707142D01*
X153721429Y-100664285D01*
X153635714Y-100621428D01*
X153550000Y-100535714D01*
X153507143Y-100407142D01*
X153507143Y-100321428D01*
X153550000Y-100192857D01*
X153592857Y-100150000D01*
X153507143Y-99850000D02*
X153507143Y-99250000D01*
X154407143Y-99635714D01*
X154350000Y-105907143D02*
X153921429Y-105907143D01*
X153921429Y-105007143D01*
X155121428Y-105907143D02*
X154607143Y-105907143D01*
X154864285Y-105907143D02*
X154864285Y-105007143D01*
X154778571Y-105135714D01*
X154692857Y-105221429D01*
X154607143Y-105264286D01*
X156585715Y-100407143D02*
X156585715Y-99507143D01*
X156928572Y-99507143D01*
X157014286Y-99550000D01*
X157057143Y-99592857D01*
X157100000Y-99678571D01*
X157100000Y-99807143D01*
X157057143Y-99892857D01*
X157014286Y-99935714D01*
X156928572Y-99978571D01*
X156585715Y-99978571D01*
X157957143Y-100407143D02*
X157442858Y-100407143D01*
X157700000Y-100407143D02*
X157700000Y-99507143D01*
X157614286Y-99635714D01*
X157528572Y-99721429D01*
X157442858Y-99764286D01*
X142814286Y-108507143D02*
X142814286Y-109235714D01*
X142857143Y-109321429D01*
X142900000Y-109364286D01*
X142985714Y-109407143D01*
X143157143Y-109407143D01*
X143242857Y-109364286D01*
X143285714Y-109321429D01*
X143328571Y-109235714D01*
X143328571Y-108507143D01*
X144228571Y-109407143D02*
X143714286Y-109407143D01*
X143971428Y-109407143D02*
X143971428Y-108507143D01*
X143885714Y-108635714D01*
X143800000Y-108721429D01*
X143714286Y-108764286D01*
X152007143Y-110185714D02*
X152735714Y-110185714D01*
X152821429Y-110142857D01*
X152864286Y-110100000D01*
X152907143Y-110014286D01*
X152907143Y-109842857D01*
X152864286Y-109757143D01*
X152821429Y-109714286D01*
X152735714Y-109671429D01*
X152007143Y-109671429D01*
X152007143Y-109328572D02*
X152007143Y-108771429D01*
X152350000Y-109071429D01*
X152350000Y-108942857D01*
X152392857Y-108857143D01*
X152435714Y-108814286D01*
X152521429Y-108771429D01*
X152735714Y-108771429D01*
X152821429Y-108814286D01*
X152864286Y-108857143D01*
X152907143Y-108942857D01*
X152907143Y-109200000D01*
X152864286Y-109285714D01*
X152821429Y-109328572D01*
X144007143Y-99185714D02*
X144735714Y-99185714D01*
X144821429Y-99142857D01*
X144864286Y-99100000D01*
X144907143Y-99014286D01*
X144907143Y-98842857D01*
X144864286Y-98757143D01*
X144821429Y-98714286D01*
X144735714Y-98671429D01*
X144007143Y-98671429D01*
X144307143Y-97857143D02*
X144907143Y-97857143D01*
X143964286Y-98071429D02*
X144607143Y-98285714D01*
X144607143Y-97728572D01*
M02*
