M48
;DRILL file {KiCad 4.0.2-stable} date Fri Jun 24 00:37:17 2016
;FORMAT={3:3/ absolute / metric / keep zeros}
FMAT,2
METRIC,TZ
T1C0.400
T2C1.016
%
G90
G05
M71
T1
X131000Y-100480
X131000Y-109520
X132925Y-100480
X132925Y-109520
X135000Y-100480
X135000Y-109520
X143980Y-119000
X143980Y-120675
X143980Y-122000
X144000Y-085000
X144000Y-087300
X144000Y-089000
X146250Y-104250
X146250Y-105750
X146750Y-107750
X147750Y-103250
X147750Y-106750
X147999Y-105249
X149001Y-105249
X149250Y-103279
X149457Y-106750
X150250Y-100000
X152000Y-102000
X153000Y-086000
X153000Y-089000
X153000Y-122000
X153020Y-119000
X153020Y-120675
X153040Y-087300
X154000Y-101500
T2
X157250Y-102920
X157250Y-105460
X157250Y-108000
X157250Y-110540
T0
M30
