G04 #@! TF.FileFunction,Legend,Top*
%FSLAX46Y46*%
G04 Gerber Fmt 4.6, Leading zero omitted, Abs format (unit mm)*
G04 Created by KiCad (PCBNEW 4.0.4-stable) date Tue Oct 11 21:32:11 2016*
%MOMM*%
%LPD*%
G01*
G04 APERTURE LIST*
%ADD10C,0.100000*%
%ADD11C,0.200000*%
%ADD12C,0.300000*%
%ADD13C,0.275000*%
%ADD14C,0.150000*%
G04 APERTURE END LIST*
D10*
D11*
X150650000Y-100000000D02*
X150650000Y-100500000D01*
X145850000Y-107600000D02*
X145850000Y-108100000D01*
D12*
X154885714Y-112314286D02*
X154942857Y-112428572D01*
X154942857Y-112657143D01*
X154885714Y-112771429D01*
X154771429Y-112828572D01*
X154314286Y-112828572D01*
X154200000Y-112771429D01*
X154142857Y-112657143D01*
X154142857Y-112428572D01*
X154200000Y-112314286D01*
X154314286Y-112257143D01*
X154428571Y-112257143D01*
X154542857Y-112828572D01*
X154142857Y-111742858D02*
X154942857Y-111742858D01*
X154257143Y-111742858D02*
X154200000Y-111685715D01*
X154142857Y-111571429D01*
X154142857Y-111400001D01*
X154200000Y-111285715D01*
X154314286Y-111228572D01*
X154942857Y-111228572D01*
X154942857Y-109857143D02*
X154142857Y-109228572D01*
X154142857Y-109857143D02*
X154942857Y-109228572D01*
X153857143Y-108828572D02*
X153800000Y-108771429D01*
X153742857Y-108657143D01*
X153742857Y-108371429D01*
X153800000Y-108257143D01*
X153857143Y-108200000D01*
X153971429Y-108142857D01*
X154085714Y-108142857D01*
X154257143Y-108200000D01*
X154942857Y-108885714D01*
X154942857Y-108142857D01*
X153742857Y-106485714D02*
X153742857Y-106371429D01*
X153800000Y-106257143D01*
X153857143Y-106200000D01*
X153971429Y-106142857D01*
X154200000Y-106085714D01*
X154485714Y-106085714D01*
X154714286Y-106142857D01*
X154828571Y-106200000D01*
X154885714Y-106257143D01*
X154942857Y-106371429D01*
X154942857Y-106485714D01*
X154885714Y-106600000D01*
X154828571Y-106657143D01*
X154714286Y-106714286D01*
X154485714Y-106771429D01*
X154200000Y-106771429D01*
X153971429Y-106714286D01*
X153857143Y-106657143D01*
X153800000Y-106600000D01*
X153742857Y-106485714D01*
X154142857Y-105685714D02*
X154942857Y-105400000D01*
X154142857Y-105114286D01*
D13*
X133028572Y-112997619D02*
X133028572Y-111897619D01*
X133919048Y-112421429D02*
X133552382Y-112421429D01*
X133552382Y-112997619D02*
X133552382Y-111897619D01*
X134076191Y-111897619D01*
X155247619Y-116630952D02*
X154723810Y-116997618D01*
X155247619Y-117259523D02*
X154147619Y-117259523D01*
X154147619Y-116840476D01*
X154200000Y-116735714D01*
X154252381Y-116683333D01*
X154357143Y-116630952D01*
X154514286Y-116630952D01*
X154619048Y-116683333D01*
X154671429Y-116735714D01*
X154723810Y-116840476D01*
X154723810Y-117259523D01*
X154671429Y-115792857D02*
X154671429Y-116159523D01*
X155247619Y-116159523D02*
X154147619Y-116159523D01*
X154147619Y-115635714D01*
X139764286Y-92035119D02*
X139240477Y-92035119D01*
X139240477Y-90935119D01*
X140340477Y-90935119D02*
X140550000Y-90935119D01*
X140654762Y-90987500D01*
X140759524Y-91092262D01*
X140811905Y-91301786D01*
X140811905Y-91668452D01*
X140759524Y-91877976D01*
X140654762Y-91982738D01*
X140550000Y-92035119D01*
X140340477Y-92035119D01*
X140235715Y-91982738D01*
X140130953Y-91877976D01*
X140078572Y-91668452D01*
X140078572Y-91301786D01*
X140130953Y-91092262D01*
X140235715Y-90987500D01*
X140340477Y-90935119D01*
X137747620Y-92860119D02*
X137852381Y-92860119D01*
X137957143Y-92912500D01*
X138009524Y-92964881D01*
X138061905Y-93069643D01*
X138114286Y-93279167D01*
X138114286Y-93541071D01*
X138061905Y-93750595D01*
X138009524Y-93855357D01*
X137957143Y-93907738D01*
X137852381Y-93960119D01*
X137747620Y-93960119D01*
X137642858Y-93907738D01*
X137590477Y-93855357D01*
X137538096Y-93750595D01*
X137485715Y-93541071D01*
X137485715Y-93279167D01*
X137538096Y-93069643D01*
X137590477Y-92964881D01*
X137642858Y-92912500D01*
X137747620Y-92860119D01*
X139895238Y-93960119D02*
X139895238Y-92860119D01*
X139895238Y-93907738D02*
X139790476Y-93960119D01*
X139580953Y-93960119D01*
X139476191Y-93907738D01*
X139423810Y-93855357D01*
X139371429Y-93750595D01*
X139371429Y-93436310D01*
X139423810Y-93331548D01*
X139476191Y-93279167D01*
X139580953Y-93226786D01*
X139790476Y-93226786D01*
X139895238Y-93279167D01*
X140785714Y-93383929D02*
X140942857Y-93436310D01*
X140995238Y-93488690D01*
X141047619Y-93593452D01*
X141047619Y-93750595D01*
X140995238Y-93855357D01*
X140942857Y-93907738D01*
X140838095Y-93960119D01*
X140419048Y-93960119D01*
X140419048Y-92860119D01*
X140785714Y-92860119D01*
X140890476Y-92912500D01*
X140942857Y-92964881D01*
X140995238Y-93069643D01*
X140995238Y-93174405D01*
X140942857Y-93279167D01*
X140890476Y-93331548D01*
X140785714Y-93383929D01*
X140419048Y-93383929D01*
X141519048Y-93960119D02*
X141519048Y-93226786D01*
X141519048Y-93331548D02*
X141571429Y-93279167D01*
X141676191Y-93226786D01*
X141833333Y-93226786D01*
X141938095Y-93279167D01*
X141990476Y-93383929D01*
X141990476Y-93960119D01*
X141990476Y-93383929D02*
X142042857Y-93279167D01*
X142147619Y-93226786D01*
X142304762Y-93226786D01*
X142409524Y-93279167D01*
X142461905Y-93383929D01*
X142461905Y-93960119D01*
D12*
X137742857Y-116921429D02*
X136942857Y-116921429D01*
X137057143Y-116921429D02*
X137000000Y-116864286D01*
X136942857Y-116750000D01*
X136942857Y-116578572D01*
X137000000Y-116464286D01*
X137114286Y-116407143D01*
X137742857Y-116407143D01*
X137114286Y-116407143D02*
X137000000Y-116350000D01*
X136942857Y-116235714D01*
X136942857Y-116064286D01*
X137000000Y-115950000D01*
X137114286Y-115892857D01*
X137742857Y-115892857D01*
X137742857Y-115321429D02*
X136942857Y-115321429D01*
X136542857Y-115321429D02*
X136600000Y-115378572D01*
X136657143Y-115321429D01*
X136600000Y-115264286D01*
X136542857Y-115321429D01*
X136657143Y-115321429D01*
X137742857Y-114864285D02*
X136942857Y-114235714D01*
X136942857Y-114864285D02*
X137742857Y-114235714D01*
X137685714Y-113321428D02*
X137742857Y-113435714D01*
X137742857Y-113664285D01*
X137685714Y-113778571D01*
X137571429Y-113835714D01*
X137114286Y-113835714D01*
X137000000Y-113778571D01*
X136942857Y-113664285D01*
X136942857Y-113435714D01*
X137000000Y-113321428D01*
X137114286Y-113264285D01*
X137228571Y-113264285D01*
X137342857Y-113835714D01*
X137742857Y-112750000D02*
X136942857Y-112750000D01*
X137171429Y-112750000D02*
X137057143Y-112692857D01*
X137000000Y-112635714D01*
X136942857Y-112521428D01*
X136942857Y-112407143D01*
X139842857Y-115407143D02*
X139042857Y-115407143D01*
X139271429Y-115407143D02*
X139157143Y-115350000D01*
X139100000Y-115292857D01*
X139042857Y-115178571D01*
X139042857Y-115064286D01*
X139842857Y-114035714D02*
X139842857Y-114721429D01*
X139842857Y-114378571D02*
X138642857Y-114378571D01*
X138814286Y-114492857D01*
X138928571Y-114607143D01*
X138985714Y-114721429D01*
X155571429Y-99142857D02*
X156314286Y-99142857D01*
X155914286Y-99600000D01*
X156085714Y-99600000D01*
X156200000Y-99657143D01*
X156257143Y-99714286D01*
X156314286Y-99828571D01*
X156314286Y-100114286D01*
X156257143Y-100228571D01*
X156200000Y-100285714D01*
X156085714Y-100342857D01*
X155742857Y-100342857D01*
X155628571Y-100285714D01*
X155571429Y-100228571D01*
X156714286Y-99542857D02*
X157000000Y-100342857D01*
X157285714Y-99542857D01*
X157628572Y-99142857D02*
X158371429Y-99142857D01*
X157971429Y-99600000D01*
X158142857Y-99600000D01*
X158257143Y-99657143D01*
X158314286Y-99714286D01*
X158371429Y-99828571D01*
X158371429Y-100114286D01*
X158314286Y-100228571D01*
X158257143Y-100285714D01*
X158142857Y-100342857D01*
X157800000Y-100342857D01*
X157685714Y-100285714D01*
X157628572Y-100228571D01*
D14*
X146400000Y-103603600D02*
G75*
G03X146400000Y-103603600I-100000J0D01*
G01*
X146800000Y-106103600D02*
X146800000Y-105903600D01*
X147600000Y-106103600D02*
X146800000Y-106103600D01*
X150200000Y-106103600D02*
X149400000Y-106103600D01*
X150200000Y-105903600D02*
X150200000Y-106103600D01*
X150200000Y-103803600D02*
X150200000Y-104103600D01*
X149400000Y-103803600D02*
X150200000Y-103803600D01*
X146800000Y-103803600D02*
X147600000Y-103803600D01*
X146800000Y-104103600D02*
X146800000Y-103803600D01*
X148025000Y-109800000D02*
X148025000Y-110300000D01*
X148975000Y-110300000D02*
X148975000Y-109800000D01*
X148975000Y-98250000D02*
X148975000Y-97750000D01*
X148025000Y-97750000D02*
X148025000Y-98250000D01*
X149450000Y-99775000D02*
X148950000Y-99775000D01*
X148950000Y-100725000D02*
X149450000Y-100725000D01*
X148200000Y-107375000D02*
X147700000Y-107375000D01*
X147700000Y-108325000D02*
X148200000Y-108325000D01*
X151525000Y-103250000D02*
X151525000Y-103750000D01*
X152475000Y-103750000D02*
X152475000Y-103250000D01*
X153400000Y-103600000D02*
X153400000Y-102900000D01*
X154600000Y-102900000D02*
X154600000Y-103600000D01*
X152200000Y-106025000D02*
X152700000Y-106025000D01*
X152700000Y-104975000D02*
X152200000Y-104975000D01*
X155980000Y-104190000D02*
X155980000Y-111810000D01*
X158520000Y-104190000D02*
X158520000Y-111810000D01*
X158800000Y-101370000D02*
X158800000Y-102920000D01*
X155980000Y-111810000D02*
X158520000Y-111810000D01*
X158520000Y-104190000D02*
X155980000Y-104190000D01*
X155700000Y-102920000D02*
X155700000Y-101370000D01*
X155700000Y-101370000D02*
X158800000Y-101370000D01*
X146525000Y-106450000D02*
X146525000Y-105950000D01*
X145475000Y-105950000D02*
X145475000Y-106450000D01*
X144600000Y-102770000D02*
G75*
G03X144600000Y-102770000I-100000J0D01*
G01*
X140500000Y-104770000D02*
X140500000Y-105770000D01*
X144500000Y-103270000D02*
X140500000Y-103270000D01*
X144500000Y-107270000D02*
X140500000Y-107270000D01*
X133535714Y-99752381D02*
X133535714Y-100561905D01*
X133583333Y-100657143D01*
X133630952Y-100704762D01*
X133726190Y-100752381D01*
X133916667Y-100752381D01*
X134011905Y-100704762D01*
X134059524Y-100657143D01*
X134107143Y-100561905D01*
X134107143Y-99752381D01*
X135107143Y-100752381D02*
X134535714Y-100752381D01*
X134821428Y-100752381D02*
X134821428Y-99752381D01*
X134726190Y-99895238D01*
X134630952Y-99990476D01*
X134535714Y-100038095D01*
X135726190Y-99752381D02*
X135821429Y-99752381D01*
X135916667Y-99800000D01*
X135964286Y-99847619D01*
X136011905Y-99942857D01*
X136059524Y-100133333D01*
X136059524Y-100371429D01*
X136011905Y-100561905D01*
X135964286Y-100657143D01*
X135916667Y-100704762D01*
X135821429Y-100752381D01*
X135726190Y-100752381D01*
X135630952Y-100704762D01*
X135583333Y-100657143D01*
X135535714Y-100561905D01*
X135488095Y-100371429D01*
X135488095Y-100133333D01*
X135535714Y-99942857D01*
X135583333Y-99847619D01*
X135630952Y-99800000D01*
X135726190Y-99752381D01*
X137011905Y-100752381D02*
X136440476Y-100752381D01*
X136726190Y-100752381D02*
X136726190Y-99752381D01*
X136630952Y-99895238D01*
X136535714Y-99990476D01*
X136440476Y-100038095D01*
X144314286Y-101507143D02*
X144314286Y-102235714D01*
X144357143Y-102321429D01*
X144400000Y-102364286D01*
X144485714Y-102407143D01*
X144657143Y-102407143D01*
X144742857Y-102364286D01*
X144785714Y-102321429D01*
X144828571Y-102235714D01*
X144828571Y-101507143D01*
X145214286Y-101592857D02*
X145257143Y-101550000D01*
X145342857Y-101507143D01*
X145557143Y-101507143D01*
X145642857Y-101550000D01*
X145685714Y-101592857D01*
X145728571Y-101678571D01*
X145728571Y-101764286D01*
X145685714Y-101892857D01*
X145171428Y-102407143D01*
X145728571Y-102407143D01*
X151350000Y-111321429D02*
X151307143Y-111364286D01*
X151178572Y-111407143D01*
X151092858Y-111407143D01*
X150964286Y-111364286D01*
X150878572Y-111278571D01*
X150835715Y-111192857D01*
X150792858Y-111021429D01*
X150792858Y-110892857D01*
X150835715Y-110721429D01*
X150878572Y-110635714D01*
X150964286Y-110550000D01*
X151092858Y-110507143D01*
X151178572Y-110507143D01*
X151307143Y-110550000D01*
X151350000Y-110592857D01*
X151692858Y-110592857D02*
X151735715Y-110550000D01*
X151821429Y-110507143D01*
X152035715Y-110507143D01*
X152121429Y-110550000D01*
X152164286Y-110592857D01*
X152207143Y-110678571D01*
X152207143Y-110764286D01*
X152164286Y-110892857D01*
X151650000Y-111407143D01*
X152207143Y-111407143D01*
X144571429Y-98150000D02*
X144614286Y-98192857D01*
X144657143Y-98321428D01*
X144657143Y-98407142D01*
X144614286Y-98535714D01*
X144528571Y-98621428D01*
X144442857Y-98664285D01*
X144271429Y-98707142D01*
X144142857Y-98707142D01*
X143971429Y-98664285D01*
X143885714Y-98621428D01*
X143800000Y-98535714D01*
X143757143Y-98407142D01*
X143757143Y-98321428D01*
X143800000Y-98192857D01*
X143842857Y-98150000D01*
X143757143Y-97850000D02*
X143757143Y-97292857D01*
X144100000Y-97592857D01*
X144100000Y-97464285D01*
X144142857Y-97378571D01*
X144185714Y-97335714D01*
X144271429Y-97292857D01*
X144485714Y-97292857D01*
X144571429Y-97335714D01*
X144614286Y-97378571D01*
X144657143Y-97464285D01*
X144657143Y-97721428D01*
X144614286Y-97807142D01*
X144571429Y-97850000D01*
X144571429Y-100400000D02*
X144614286Y-100442857D01*
X144657143Y-100571428D01*
X144657143Y-100657142D01*
X144614286Y-100785714D01*
X144528571Y-100871428D01*
X144442857Y-100914285D01*
X144271429Y-100957142D01*
X144142857Y-100957142D01*
X143971429Y-100914285D01*
X143885714Y-100871428D01*
X143800000Y-100785714D01*
X143757143Y-100657142D01*
X143757143Y-100571428D01*
X143800000Y-100442857D01*
X143842857Y-100400000D01*
X144057143Y-99628571D02*
X144657143Y-99628571D01*
X143714286Y-99842857D02*
X144357143Y-100057142D01*
X144357143Y-99500000D01*
X151621429Y-108000000D02*
X151664286Y-108042857D01*
X151707143Y-108171428D01*
X151707143Y-108257142D01*
X151664286Y-108385714D01*
X151578571Y-108471428D01*
X151492857Y-108514285D01*
X151321429Y-108557142D01*
X151192857Y-108557142D01*
X151021429Y-108514285D01*
X150935714Y-108471428D01*
X150850000Y-108385714D01*
X150807143Y-108257142D01*
X150807143Y-108171428D01*
X150850000Y-108042857D01*
X150892857Y-108000000D01*
X150807143Y-107185714D02*
X150807143Y-107614285D01*
X151235714Y-107657142D01*
X151192857Y-107614285D01*
X151150000Y-107528571D01*
X151150000Y-107314285D01*
X151192857Y-107228571D01*
X151235714Y-107185714D01*
X151321429Y-107142857D01*
X151535714Y-107142857D01*
X151621429Y-107185714D01*
X151664286Y-107228571D01*
X151707143Y-107314285D01*
X151707143Y-107528571D01*
X151664286Y-107614285D01*
X151621429Y-107657142D01*
X152321429Y-100150000D02*
X152364286Y-100192857D01*
X152407143Y-100321428D01*
X152407143Y-100407142D01*
X152364286Y-100535714D01*
X152278571Y-100621428D01*
X152192857Y-100664285D01*
X152021429Y-100707142D01*
X151892857Y-100707142D01*
X151721429Y-100664285D01*
X151635714Y-100621428D01*
X151550000Y-100535714D01*
X151507143Y-100407142D01*
X151507143Y-100321428D01*
X151550000Y-100192857D01*
X151592857Y-100150000D01*
X151507143Y-99378571D02*
X151507143Y-99550000D01*
X151550000Y-99635714D01*
X151592857Y-99678571D01*
X151721429Y-99764285D01*
X151892857Y-99807142D01*
X152235714Y-99807142D01*
X152321429Y-99764285D01*
X152364286Y-99721428D01*
X152407143Y-99635714D01*
X152407143Y-99464285D01*
X152364286Y-99378571D01*
X152321429Y-99335714D01*
X152235714Y-99292857D01*
X152021429Y-99292857D01*
X151935714Y-99335714D01*
X151892857Y-99378571D01*
X151850000Y-99464285D01*
X151850000Y-99635714D01*
X151892857Y-99721428D01*
X151935714Y-99764285D01*
X152021429Y-99807142D01*
X154321429Y-100150000D02*
X154364286Y-100192857D01*
X154407143Y-100321428D01*
X154407143Y-100407142D01*
X154364286Y-100535714D01*
X154278571Y-100621428D01*
X154192857Y-100664285D01*
X154021429Y-100707142D01*
X153892857Y-100707142D01*
X153721429Y-100664285D01*
X153635714Y-100621428D01*
X153550000Y-100535714D01*
X153507143Y-100407142D01*
X153507143Y-100321428D01*
X153550000Y-100192857D01*
X153592857Y-100150000D01*
X153507143Y-99850000D02*
X153507143Y-99250000D01*
X154407143Y-99635714D01*
X152550000Y-107407143D02*
X152121429Y-107407143D01*
X152121429Y-106507143D01*
X153321428Y-107407143D02*
X152807143Y-107407143D01*
X153064285Y-107407143D02*
X153064285Y-106507143D01*
X152978571Y-106635714D01*
X152892857Y-106721429D01*
X152807143Y-106764286D01*
X155535715Y-114407143D02*
X155535715Y-113507143D01*
X155878572Y-113507143D01*
X155964286Y-113550000D01*
X156007143Y-113592857D01*
X156050000Y-113678571D01*
X156050000Y-113807143D01*
X156007143Y-113892857D01*
X155964286Y-113935714D01*
X155878572Y-113978571D01*
X155535715Y-113978571D01*
X156907143Y-114407143D02*
X156392858Y-114407143D01*
X156650000Y-114407143D02*
X156650000Y-113507143D01*
X156564286Y-113635714D01*
X156478572Y-113721429D01*
X156392858Y-113764286D01*
X141702381Y-116714286D02*
X142511905Y-116714286D01*
X142607143Y-116666667D01*
X142654762Y-116619048D01*
X142702381Y-116523810D01*
X142702381Y-116333333D01*
X142654762Y-116238095D01*
X142607143Y-116190476D01*
X142511905Y-116142857D01*
X141702381Y-116142857D01*
X142702381Y-115142857D02*
X142702381Y-115714286D01*
X142702381Y-115428572D02*
X141702381Y-115428572D01*
X141845238Y-115523810D01*
X141940476Y-115619048D01*
X141988095Y-115714286D01*
X141702381Y-114523810D02*
X141702381Y-114428571D01*
X141750000Y-114333333D01*
X141797619Y-114285714D01*
X141892857Y-114238095D01*
X142083333Y-114190476D01*
X142321429Y-114190476D01*
X142511905Y-114238095D01*
X142607143Y-114285714D01*
X142654762Y-114333333D01*
X142702381Y-114428571D01*
X142702381Y-114523810D01*
X142654762Y-114619048D01*
X142607143Y-114666667D01*
X142511905Y-114714286D01*
X142321429Y-114761905D01*
X142083333Y-114761905D01*
X141892857Y-114714286D01*
X141797619Y-114666667D01*
X141750000Y-114619048D01*
X141702381Y-114523810D01*
X141797619Y-113809524D02*
X141750000Y-113761905D01*
X141702381Y-113666667D01*
X141702381Y-113428571D01*
X141750000Y-113333333D01*
X141797619Y-113285714D01*
X141892857Y-113238095D01*
X141988095Y-113238095D01*
X142130952Y-113285714D01*
X142702381Y-113857143D01*
X142702381Y-113238095D01*
X154152381Y-94214286D02*
X154961905Y-94214286D01*
X155057143Y-94166667D01*
X155104762Y-94119048D01*
X155152381Y-94023810D01*
X155152381Y-93833333D01*
X155104762Y-93738095D01*
X155057143Y-93690476D01*
X154961905Y-93642857D01*
X154152381Y-93642857D01*
X155152381Y-92642857D02*
X155152381Y-93214286D01*
X155152381Y-92928572D02*
X154152381Y-92928572D01*
X154295238Y-93023810D01*
X154390476Y-93119048D01*
X154438095Y-93214286D01*
X154152381Y-92023810D02*
X154152381Y-91928571D01*
X154200000Y-91833333D01*
X154247619Y-91785714D01*
X154342857Y-91738095D01*
X154533333Y-91690476D01*
X154771429Y-91690476D01*
X154961905Y-91738095D01*
X155057143Y-91785714D01*
X155104762Y-91833333D01*
X155152381Y-91928571D01*
X155152381Y-92023810D01*
X155104762Y-92119048D01*
X155057143Y-92166667D01*
X154961905Y-92214286D01*
X154771429Y-92261905D01*
X154533333Y-92261905D01*
X154342857Y-92214286D01*
X154247619Y-92166667D01*
X154200000Y-92119048D01*
X154152381Y-92023810D01*
X154152381Y-91357143D02*
X154152381Y-90738095D01*
X154533333Y-91071429D01*
X154533333Y-90928571D01*
X154580952Y-90833333D01*
X154628571Y-90785714D01*
X154723810Y-90738095D01*
X154961905Y-90738095D01*
X155057143Y-90785714D01*
X155104762Y-90833333D01*
X155152381Y-90928571D01*
X155152381Y-91214286D01*
X155104762Y-91309524D01*
X155057143Y-91357143D01*
X142380953Y-109452381D02*
X142047619Y-108976190D01*
X141809524Y-109452381D02*
X141809524Y-108452381D01*
X142190477Y-108452381D01*
X142285715Y-108500000D01*
X142333334Y-108547619D01*
X142380953Y-108642857D01*
X142380953Y-108785714D01*
X142333334Y-108880952D01*
X142285715Y-108928571D01*
X142190477Y-108976190D01*
X141809524Y-108976190D01*
X143333334Y-109452381D02*
X142761905Y-109452381D01*
X143047619Y-109452381D02*
X143047619Y-108452381D01*
X142952381Y-108595238D01*
X142857143Y-108690476D01*
X142761905Y-108738095D01*
X143952381Y-108452381D02*
X144047620Y-108452381D01*
X144142858Y-108500000D01*
X144190477Y-108547619D01*
X144238096Y-108642857D01*
X144285715Y-108833333D01*
X144285715Y-109071429D01*
X144238096Y-109261905D01*
X144190477Y-109357143D01*
X144142858Y-109404762D01*
X144047620Y-109452381D01*
X143952381Y-109452381D01*
X143857143Y-109404762D01*
X143809524Y-109357143D01*
X143761905Y-109261905D01*
X143714286Y-109071429D01*
X143714286Y-108833333D01*
X143761905Y-108642857D01*
X143809524Y-108547619D01*
X143857143Y-108500000D01*
X143952381Y-108452381D01*
X145238096Y-109452381D02*
X144666667Y-109452381D01*
X144952381Y-109452381D02*
X144952381Y-108452381D01*
X144857143Y-108595238D01*
X144761905Y-108690476D01*
X144666667Y-108738095D01*
X139785714Y-100952381D02*
X140357143Y-100952381D01*
X140071428Y-101952381D02*
X140071428Y-100952381D01*
X141214286Y-101952381D02*
X140642857Y-101952381D01*
X140928571Y-101952381D02*
X140928571Y-100952381D01*
X140833333Y-101095238D01*
X140738095Y-101190476D01*
X140642857Y-101238095D01*
X141833333Y-100952381D02*
X141928572Y-100952381D01*
X142023810Y-101000000D01*
X142071429Y-101047619D01*
X142119048Y-101142857D01*
X142166667Y-101333333D01*
X142166667Y-101571429D01*
X142119048Y-101761905D01*
X142071429Y-101857143D01*
X142023810Y-101904762D01*
X141928572Y-101952381D01*
X141833333Y-101952381D01*
X141738095Y-101904762D01*
X141690476Y-101857143D01*
X141642857Y-101761905D01*
X141595238Y-101571429D01*
X141595238Y-101333333D01*
X141642857Y-101142857D01*
X141690476Y-101047619D01*
X141738095Y-101000000D01*
X141833333Y-100952381D01*
X143119048Y-101952381D02*
X142547619Y-101952381D01*
X142833333Y-101952381D02*
X142833333Y-100952381D01*
X142738095Y-101095238D01*
X142642857Y-101190476D01*
X142547619Y-101238095D01*
M02*
