G04 #@! TF.FileFunction,Copper,L4,Bot,Signal*
%FSLAX46Y46*%
G04 Gerber Fmt 4.6, Leading zero omitted, Abs format (unit mm)*
G04 Created by KiCad (PCBNEW 4.0.4-stable) date Sun Sep 18 16:30:06 2016*
%MOMM*%
%LPD*%
G01*
G04 APERTURE LIST*
%ADD10C,0.100000*%
%ADD11C,0.381000*%
%ADD12R,2.032000X1.727200*%
%ADD13O,2.032000X1.727200*%
%ADD14R,3.000000X8.000000*%
%ADD15R,8.000000X3.000000*%
%ADD16C,0.600000*%
G04 APERTURE END LIST*
D10*
D11*
X138250000Y-107650000D03*
X145000000Y-92500000D03*
X137500000Y-92500000D03*
X142500000Y-92500000D03*
X151200000Y-92500000D03*
X157500000Y-92500000D03*
X157500000Y-117500000D03*
X155000000Y-107500000D03*
X138250000Y-102250000D03*
X142500000Y-102500000D03*
X142500000Y-107500000D03*
X137500000Y-112500000D03*
X142500000Y-112500000D03*
X152500000Y-112500000D03*
X157500000Y-112500000D03*
X157500000Y-97500000D03*
X152500000Y-97500000D03*
X137500000Y-97500000D03*
X142500000Y-97500000D03*
X145000000Y-100000000D03*
X140000000Y-100000000D03*
X140000000Y-95000000D03*
X145000000Y-95000000D03*
X155000000Y-95000000D03*
X150000000Y-95000000D03*
X150000000Y-100000000D03*
X155000000Y-100000000D03*
X155000000Y-115000000D03*
X151150000Y-110000000D03*
X151150000Y-115000000D03*
X145000000Y-115000000D03*
X140000000Y-115000000D03*
X140000000Y-110000000D03*
X145000000Y-110000000D03*
X147500000Y-106500000D03*
X147500000Y-107500000D03*
X147500000Y-108500000D03*
X147500000Y-109500000D03*
X147500000Y-110500000D03*
X147500000Y-111500000D03*
X147500000Y-112500000D03*
X147500000Y-113500000D03*
X147500000Y-114500000D03*
X147500000Y-115500000D03*
X147500000Y-116500000D03*
X147500000Y-117500000D03*
X149500000Y-117500000D03*
X149500000Y-116500000D03*
X149500000Y-115500000D03*
X149500000Y-114500000D03*
X149500000Y-113500000D03*
X149500000Y-112500000D03*
X149500000Y-111500000D03*
X149500000Y-110500000D03*
X149500000Y-109500000D03*
X149500000Y-108500000D03*
X149500000Y-107500000D03*
X149500000Y-106500000D03*
X147500000Y-103500000D03*
X147500000Y-102500000D03*
X147500000Y-101500000D03*
X147500000Y-100500000D03*
X147500000Y-99500000D03*
X147500000Y-98500000D03*
X147500000Y-97500000D03*
X147500000Y-96500000D03*
X147500000Y-95500000D03*
X147500000Y-94500000D03*
X147500000Y-93500000D03*
X147500000Y-92500000D03*
X147500000Y-91500000D03*
X147500000Y-90500000D03*
X149500000Y-90500000D03*
X149500000Y-91500000D03*
X149500000Y-92500000D03*
X149500000Y-93500000D03*
X149500000Y-94500000D03*
X149500000Y-95500000D03*
X149500000Y-96500000D03*
X149500000Y-97500000D03*
X149500000Y-98500000D03*
X149500000Y-99500000D03*
X149500000Y-100500000D03*
X149500000Y-101500000D03*
X149500000Y-102500000D03*
X149500000Y-103500000D03*
X147000000Y-106000000D03*
X150000000Y-106000000D03*
X150000000Y-104000000D03*
X147000000Y-104000000D03*
X149000000Y-104853600D03*
X149000000Y-105250130D03*
X148000000Y-105250130D03*
X147998947Y-104824813D03*
X136000000Y-106000000D03*
X136000000Y-104000000D03*
X137000000Y-104000000D03*
X138000000Y-104000000D03*
X139000000Y-104000000D03*
X140000000Y-104000000D03*
X140000000Y-104000000D03*
X141000000Y-104000000D03*
X142000000Y-104000000D03*
X144000000Y-104000000D03*
X143000000Y-104000000D03*
X145000000Y-104000000D03*
X146000000Y-104000000D03*
X146000000Y-105900000D03*
X145000000Y-105900000D03*
X144000000Y-105900000D03*
X143000000Y-105900000D03*
X142000000Y-105900000D03*
X141000000Y-105900000D03*
X140000000Y-105900000D03*
X139000000Y-105900000D03*
X138000000Y-105900000D03*
X137000000Y-105900000D03*
D12*
X157250000Y-102920000D03*
D13*
X157250000Y-105460000D03*
X157250000Y-108000000D03*
X157250000Y-110540000D03*
D14*
X136750000Y-104950000D03*
D15*
X148450000Y-116500000D03*
X148500000Y-91000000D03*
D11*
X135600000Y-105900000D03*
D16*
X154000000Y-101500000D03*
X152000000Y-102000000D03*
M02*
