G04 #@! TF.FileFunction,Legend,Top*
%FSLAX46Y46*%
G04 Gerber Fmt 4.6, Leading zero omitted, Abs format (unit mm)*
G04 Created by KiCad (PCBNEW 4.0.2-stable) date Fri Jun 24 00:37:15 2016*
%MOMM*%
G01*
G04 APERTURE LIST*
%ADD10C,0.100000*%
%ADD11C,0.300000*%
%ADD12C,0.275000*%
%ADD13C,0.150000*%
G04 APERTURE END LIST*
D10*
D11*
X154885714Y-112314286D02*
X154942857Y-112428572D01*
X154942857Y-112657143D01*
X154885714Y-112771429D01*
X154771429Y-112828572D01*
X154314286Y-112828572D01*
X154200000Y-112771429D01*
X154142857Y-112657143D01*
X154142857Y-112428572D01*
X154200000Y-112314286D01*
X154314286Y-112257143D01*
X154428571Y-112257143D01*
X154542857Y-112828572D01*
X154142857Y-111742858D02*
X154942857Y-111742858D01*
X154257143Y-111742858D02*
X154200000Y-111685715D01*
X154142857Y-111571429D01*
X154142857Y-111400001D01*
X154200000Y-111285715D01*
X154314286Y-111228572D01*
X154942857Y-111228572D01*
X154942857Y-109857143D02*
X154142857Y-109228572D01*
X154142857Y-109857143D02*
X154942857Y-109228572D01*
X153857143Y-108828572D02*
X153800000Y-108771429D01*
X153742857Y-108657143D01*
X153742857Y-108371429D01*
X153800000Y-108257143D01*
X153857143Y-108200000D01*
X153971429Y-108142857D01*
X154085714Y-108142857D01*
X154257143Y-108200000D01*
X154942857Y-108885714D01*
X154942857Y-108142857D01*
X153742857Y-106485714D02*
X153742857Y-106371429D01*
X153800000Y-106257143D01*
X153857143Y-106200000D01*
X153971429Y-106142857D01*
X154200000Y-106085714D01*
X154485714Y-106085714D01*
X154714286Y-106142857D01*
X154828571Y-106200000D01*
X154885714Y-106257143D01*
X154942857Y-106371429D01*
X154942857Y-106485714D01*
X154885714Y-106600000D01*
X154828571Y-106657143D01*
X154714286Y-106714286D01*
X154485714Y-106771429D01*
X154200000Y-106771429D01*
X153971429Y-106714286D01*
X153857143Y-106657143D01*
X153800000Y-106600000D01*
X153742857Y-106485714D01*
X154142857Y-105685714D02*
X154942857Y-105400000D01*
X154142857Y-105114286D01*
D12*
X137528572Y-110297619D02*
X137528572Y-109197619D01*
X138419048Y-109721429D02*
X138052382Y-109721429D01*
X138052382Y-110297619D02*
X138052382Y-109197619D01*
X138576191Y-109197619D01*
X142097619Y-121730952D02*
X141573810Y-122097618D01*
X142097619Y-122359523D02*
X140997619Y-122359523D01*
X140997619Y-121940476D01*
X141050000Y-121835714D01*
X141102381Y-121783333D01*
X141207143Y-121730952D01*
X141364286Y-121730952D01*
X141469048Y-121783333D01*
X141521429Y-121835714D01*
X141573810Y-121940476D01*
X141573810Y-122359523D01*
X141521429Y-120892857D02*
X141521429Y-121259523D01*
X142097619Y-121259523D02*
X140997619Y-121259523D01*
X140997619Y-120735714D01*
X152564286Y-93390119D02*
X152040477Y-93390119D01*
X152040477Y-92290119D01*
X153140477Y-92290119D02*
X153350000Y-92290119D01*
X153454762Y-92342500D01*
X153559524Y-92447262D01*
X153611905Y-92656786D01*
X153611905Y-93023452D01*
X153559524Y-93232976D01*
X153454762Y-93337738D01*
X153350000Y-93390119D01*
X153140477Y-93390119D01*
X153035715Y-93337738D01*
X152930953Y-93232976D01*
X152878572Y-93023452D01*
X152878572Y-92656786D01*
X152930953Y-92447262D01*
X153035715Y-92342500D01*
X153140477Y-92290119D01*
X150547620Y-94105119D02*
X150652381Y-94105119D01*
X150757143Y-94157500D01*
X150809524Y-94209881D01*
X150861905Y-94314643D01*
X150914286Y-94524167D01*
X150914286Y-94786071D01*
X150861905Y-94995595D01*
X150809524Y-95100357D01*
X150757143Y-95152738D01*
X150652381Y-95205119D01*
X150547620Y-95205119D01*
X150442858Y-95152738D01*
X150390477Y-95100357D01*
X150338096Y-94995595D01*
X150285715Y-94786071D01*
X150285715Y-94524167D01*
X150338096Y-94314643D01*
X150390477Y-94209881D01*
X150442858Y-94157500D01*
X150547620Y-94105119D01*
X152695238Y-95205119D02*
X152695238Y-94105119D01*
X152695238Y-95152738D02*
X152590476Y-95205119D01*
X152380953Y-95205119D01*
X152276191Y-95152738D01*
X152223810Y-95100357D01*
X152171429Y-94995595D01*
X152171429Y-94681310D01*
X152223810Y-94576548D01*
X152276191Y-94524167D01*
X152380953Y-94471786D01*
X152590476Y-94471786D01*
X152695238Y-94524167D01*
X153585714Y-94628929D02*
X153742857Y-94681310D01*
X153795238Y-94733690D01*
X153847619Y-94838452D01*
X153847619Y-94995595D01*
X153795238Y-95100357D01*
X153742857Y-95152738D01*
X153638095Y-95205119D01*
X153219048Y-95205119D01*
X153219048Y-94105119D01*
X153585714Y-94105119D01*
X153690476Y-94157500D01*
X153742857Y-94209881D01*
X153795238Y-94314643D01*
X153795238Y-94419405D01*
X153742857Y-94524167D01*
X153690476Y-94576548D01*
X153585714Y-94628929D01*
X153219048Y-94628929D01*
X154319048Y-95205119D02*
X154319048Y-94471786D01*
X154319048Y-94576548D02*
X154371429Y-94524167D01*
X154476191Y-94471786D01*
X154633333Y-94471786D01*
X154738095Y-94524167D01*
X154790476Y-94628929D01*
X154790476Y-95205119D01*
X154790476Y-94628929D02*
X154842857Y-94524167D01*
X154947619Y-94471786D01*
X155104762Y-94471786D01*
X155209524Y-94524167D01*
X155261905Y-94628929D01*
X155261905Y-95205119D01*
D11*
X135428571Y-116152857D02*
X135428571Y-115352857D01*
X135428571Y-115467143D02*
X135485714Y-115410000D01*
X135600000Y-115352857D01*
X135771428Y-115352857D01*
X135885714Y-115410000D01*
X135942857Y-115524286D01*
X135942857Y-116152857D01*
X135942857Y-115524286D02*
X136000000Y-115410000D01*
X136114286Y-115352857D01*
X136285714Y-115352857D01*
X136400000Y-115410000D01*
X136457143Y-115524286D01*
X136457143Y-116152857D01*
X137028571Y-116152857D02*
X137028571Y-115352857D01*
X137028571Y-114952857D02*
X136971428Y-115010000D01*
X137028571Y-115067143D01*
X137085714Y-115010000D01*
X137028571Y-114952857D01*
X137028571Y-115067143D01*
X137485715Y-116152857D02*
X138114286Y-115352857D01*
X137485715Y-115352857D02*
X138114286Y-116152857D01*
X139028572Y-116095714D02*
X138914286Y-116152857D01*
X138685715Y-116152857D01*
X138571429Y-116095714D01*
X138514286Y-115981429D01*
X138514286Y-115524286D01*
X138571429Y-115410000D01*
X138685715Y-115352857D01*
X138914286Y-115352857D01*
X139028572Y-115410000D01*
X139085715Y-115524286D01*
X139085715Y-115638571D01*
X138514286Y-115752857D01*
X139600000Y-116152857D02*
X139600000Y-115352857D01*
X139600000Y-115581429D02*
X139657143Y-115467143D01*
X139714286Y-115410000D01*
X139828572Y-115352857D01*
X139942857Y-115352857D01*
X136942857Y-118132857D02*
X136942857Y-117332857D01*
X136942857Y-117561429D02*
X137000000Y-117447143D01*
X137057143Y-117390000D01*
X137171429Y-117332857D01*
X137285714Y-117332857D01*
X137914286Y-116932857D02*
X138028571Y-116932857D01*
X138142857Y-116990000D01*
X138200000Y-117047143D01*
X138257143Y-117161429D01*
X138314286Y-117390000D01*
X138314286Y-117675714D01*
X138257143Y-117904286D01*
X138200000Y-118018571D01*
X138142857Y-118075714D01*
X138028571Y-118132857D01*
X137914286Y-118132857D01*
X137800000Y-118075714D01*
X137742857Y-118018571D01*
X137685714Y-117904286D01*
X137628571Y-117675714D01*
X137628571Y-117390000D01*
X137685714Y-117161429D01*
X137742857Y-117047143D01*
X137800000Y-116990000D01*
X137914286Y-116932857D01*
X155571429Y-99142857D02*
X156314286Y-99142857D01*
X155914286Y-99600000D01*
X156085714Y-99600000D01*
X156200000Y-99657143D01*
X156257143Y-99714286D01*
X156314286Y-99828571D01*
X156314286Y-100114286D01*
X156257143Y-100228571D01*
X156200000Y-100285714D01*
X156085714Y-100342857D01*
X155742857Y-100342857D01*
X155628571Y-100285714D01*
X155571429Y-100228571D01*
X156714286Y-99542857D02*
X157000000Y-100342857D01*
X157285714Y-99542857D01*
X157628572Y-99142857D02*
X158371429Y-99142857D01*
X157971429Y-99600000D01*
X158142857Y-99600000D01*
X158257143Y-99657143D01*
X158314286Y-99714286D01*
X158371429Y-99828571D01*
X158371429Y-100114286D01*
X158314286Y-100228571D01*
X158257143Y-100285714D01*
X158142857Y-100342857D01*
X157800000Y-100342857D01*
X157685714Y-100285714D01*
X157628572Y-100228571D01*
D13*
X146400000Y-103603600D02*
G75*
G03X146400000Y-103603600I-100000J0D01*
G01*
X146800000Y-106103600D02*
X146800000Y-105903600D01*
X147600000Y-106103600D02*
X146800000Y-106103600D01*
X150200000Y-106103600D02*
X149400000Y-106103600D01*
X150200000Y-105903600D02*
X150200000Y-106103600D01*
X150200000Y-103803600D02*
X150200000Y-104103600D01*
X149400000Y-103803600D02*
X150200000Y-103803600D01*
X146800000Y-103803600D02*
X147600000Y-103803600D01*
X146800000Y-104103600D02*
X146800000Y-103803600D01*
X143750000Y-104525000D02*
X143250000Y-104525000D01*
X143250000Y-105475000D02*
X143750000Y-105475000D01*
X148025000Y-109800000D02*
X148025000Y-110300000D01*
X148975000Y-110300000D02*
X148975000Y-109800000D01*
X148975000Y-98250000D02*
X148975000Y-97750000D01*
X148025000Y-97750000D02*
X148025000Y-98250000D01*
X149250000Y-99525000D02*
X148750000Y-99525000D01*
X148750000Y-100475000D02*
X149250000Y-100475000D01*
X148250000Y-107275000D02*
X147750000Y-107275000D01*
X147750000Y-108225000D02*
X148250000Y-108225000D01*
X151525000Y-103250000D02*
X151525000Y-103750000D01*
X152475000Y-103750000D02*
X152475000Y-103250000D01*
X153400000Y-103600000D02*
X153400000Y-102900000D01*
X154600000Y-102900000D02*
X154600000Y-103600000D01*
X152200000Y-106025000D02*
X152700000Y-106025000D01*
X152700000Y-104975000D02*
X152200000Y-104975000D01*
X155980000Y-104190000D02*
X155980000Y-111810000D01*
X158520000Y-104190000D02*
X158520000Y-111810000D01*
X158800000Y-101370000D02*
X158800000Y-102920000D01*
X155980000Y-111810000D02*
X158520000Y-111810000D01*
X158520000Y-104190000D02*
X155980000Y-104190000D01*
X155700000Y-102920000D02*
X155700000Y-101370000D01*
X155700000Y-101370000D02*
X158800000Y-101370000D01*
X136325000Y-104500000D02*
X136325000Y-99400000D01*
X136325000Y-110600000D02*
X136325000Y-105500000D01*
X148000000Y-117275000D02*
X142900000Y-117275000D01*
X154100000Y-117275000D02*
X149000000Y-117275000D01*
X149020000Y-90700000D02*
X154120000Y-90700000D01*
X142920000Y-90700000D02*
X148020000Y-90700000D01*
X145564286Y-101757143D02*
X145564286Y-102485714D01*
X145607143Y-102571429D01*
X145650000Y-102614286D01*
X145735714Y-102657143D01*
X145907143Y-102657143D01*
X145992857Y-102614286D01*
X146035714Y-102571429D01*
X146078571Y-102485714D01*
X146078571Y-101757143D01*
X146464286Y-101842857D02*
X146507143Y-101800000D01*
X146592857Y-101757143D01*
X146807143Y-101757143D01*
X146892857Y-101800000D01*
X146935714Y-101842857D01*
X146978571Y-101928571D01*
X146978571Y-102014286D01*
X146935714Y-102142857D01*
X146421428Y-102657143D01*
X146978571Y-102657143D01*
X143350000Y-103621429D02*
X143307143Y-103664286D01*
X143178572Y-103707143D01*
X143092858Y-103707143D01*
X142964286Y-103664286D01*
X142878572Y-103578571D01*
X142835715Y-103492857D01*
X142792858Y-103321429D01*
X142792858Y-103192857D01*
X142835715Y-103021429D01*
X142878572Y-102935714D01*
X142964286Y-102850000D01*
X143092858Y-102807143D01*
X143178572Y-102807143D01*
X143307143Y-102850000D01*
X143350000Y-102892857D01*
X144207143Y-103707143D02*
X143692858Y-103707143D01*
X143950000Y-103707143D02*
X143950000Y-102807143D01*
X143864286Y-102935714D01*
X143778572Y-103021429D01*
X143692858Y-103064286D01*
X150821429Y-110150000D02*
X150864286Y-110192857D01*
X150907143Y-110321428D01*
X150907143Y-110407142D01*
X150864286Y-110535714D01*
X150778571Y-110621428D01*
X150692857Y-110664285D01*
X150521429Y-110707142D01*
X150392857Y-110707142D01*
X150221429Y-110664285D01*
X150135714Y-110621428D01*
X150050000Y-110535714D01*
X150007143Y-110407142D01*
X150007143Y-110321428D01*
X150050000Y-110192857D01*
X150092857Y-110150000D01*
X150092857Y-109807142D02*
X150050000Y-109764285D01*
X150007143Y-109678571D01*
X150007143Y-109464285D01*
X150050000Y-109378571D01*
X150092857Y-109335714D01*
X150178571Y-109292857D01*
X150264286Y-109292857D01*
X150392857Y-109335714D01*
X150907143Y-109850000D01*
X150907143Y-109292857D01*
X147321429Y-98150000D02*
X147364286Y-98192857D01*
X147407143Y-98321428D01*
X147407143Y-98407142D01*
X147364286Y-98535714D01*
X147278571Y-98621428D01*
X147192857Y-98664285D01*
X147021429Y-98707142D01*
X146892857Y-98707142D01*
X146721429Y-98664285D01*
X146635714Y-98621428D01*
X146550000Y-98535714D01*
X146507143Y-98407142D01*
X146507143Y-98321428D01*
X146550000Y-98192857D01*
X146592857Y-98150000D01*
X146507143Y-97850000D02*
X146507143Y-97292857D01*
X146850000Y-97592857D01*
X146850000Y-97464285D01*
X146892857Y-97378571D01*
X146935714Y-97335714D01*
X147021429Y-97292857D01*
X147235714Y-97292857D01*
X147321429Y-97335714D01*
X147364286Y-97378571D01*
X147407143Y-97464285D01*
X147407143Y-97721428D01*
X147364286Y-97807142D01*
X147321429Y-97850000D01*
X147321429Y-100150000D02*
X147364286Y-100192857D01*
X147407143Y-100321428D01*
X147407143Y-100407142D01*
X147364286Y-100535714D01*
X147278571Y-100621428D01*
X147192857Y-100664285D01*
X147021429Y-100707142D01*
X146892857Y-100707142D01*
X146721429Y-100664285D01*
X146635714Y-100621428D01*
X146550000Y-100535714D01*
X146507143Y-100407142D01*
X146507143Y-100321428D01*
X146550000Y-100192857D01*
X146592857Y-100150000D01*
X146807143Y-99378571D02*
X147407143Y-99378571D01*
X146464286Y-99592857D02*
X147107143Y-99807142D01*
X147107143Y-99250000D01*
X150821429Y-107900000D02*
X150864286Y-107942857D01*
X150907143Y-108071428D01*
X150907143Y-108157142D01*
X150864286Y-108285714D01*
X150778571Y-108371428D01*
X150692857Y-108414285D01*
X150521429Y-108457142D01*
X150392857Y-108457142D01*
X150221429Y-108414285D01*
X150135714Y-108371428D01*
X150050000Y-108285714D01*
X150007143Y-108157142D01*
X150007143Y-108071428D01*
X150050000Y-107942857D01*
X150092857Y-107900000D01*
X150007143Y-107085714D02*
X150007143Y-107514285D01*
X150435714Y-107557142D01*
X150392857Y-107514285D01*
X150350000Y-107428571D01*
X150350000Y-107214285D01*
X150392857Y-107128571D01*
X150435714Y-107085714D01*
X150521429Y-107042857D01*
X150735714Y-107042857D01*
X150821429Y-107085714D01*
X150864286Y-107128571D01*
X150907143Y-107214285D01*
X150907143Y-107428571D01*
X150864286Y-107514285D01*
X150821429Y-107557142D01*
X152321429Y-100150000D02*
X152364286Y-100192857D01*
X152407143Y-100321428D01*
X152407143Y-100407142D01*
X152364286Y-100535714D01*
X152278571Y-100621428D01*
X152192857Y-100664285D01*
X152021429Y-100707142D01*
X151892857Y-100707142D01*
X151721429Y-100664285D01*
X151635714Y-100621428D01*
X151550000Y-100535714D01*
X151507143Y-100407142D01*
X151507143Y-100321428D01*
X151550000Y-100192857D01*
X151592857Y-100150000D01*
X151507143Y-99378571D02*
X151507143Y-99550000D01*
X151550000Y-99635714D01*
X151592857Y-99678571D01*
X151721429Y-99764285D01*
X151892857Y-99807142D01*
X152235714Y-99807142D01*
X152321429Y-99764285D01*
X152364286Y-99721428D01*
X152407143Y-99635714D01*
X152407143Y-99464285D01*
X152364286Y-99378571D01*
X152321429Y-99335714D01*
X152235714Y-99292857D01*
X152021429Y-99292857D01*
X151935714Y-99335714D01*
X151892857Y-99378571D01*
X151850000Y-99464285D01*
X151850000Y-99635714D01*
X151892857Y-99721428D01*
X151935714Y-99764285D01*
X152021429Y-99807142D01*
X154321429Y-100150000D02*
X154364286Y-100192857D01*
X154407143Y-100321428D01*
X154407143Y-100407142D01*
X154364286Y-100535714D01*
X154278571Y-100621428D01*
X154192857Y-100664285D01*
X154021429Y-100707142D01*
X153892857Y-100707142D01*
X153721429Y-100664285D01*
X153635714Y-100621428D01*
X153550000Y-100535714D01*
X153507143Y-100407142D01*
X153507143Y-100321428D01*
X153550000Y-100192857D01*
X153592857Y-100150000D01*
X153507143Y-99850000D02*
X153507143Y-99250000D01*
X154407143Y-99635714D01*
X152250000Y-107407143D02*
X151821429Y-107407143D01*
X151821429Y-106507143D01*
X153021428Y-107407143D02*
X152507143Y-107407143D01*
X152764285Y-107407143D02*
X152764285Y-106507143D01*
X152678571Y-106635714D01*
X152592857Y-106721429D01*
X152507143Y-106764286D01*
X155535715Y-114407143D02*
X155535715Y-113507143D01*
X155878572Y-113507143D01*
X155964286Y-113550000D01*
X156007143Y-113592857D01*
X156050000Y-113678571D01*
X156050000Y-113807143D01*
X156007143Y-113892857D01*
X155964286Y-113935714D01*
X155878572Y-113978571D01*
X155535715Y-113978571D01*
X156907143Y-114407143D02*
X156392858Y-114407143D01*
X156650000Y-114407143D02*
X156650000Y-113507143D01*
X156564286Y-113635714D01*
X156478572Y-113721429D01*
X156392858Y-113764286D01*
X137710714Y-99352381D02*
X137710714Y-100161905D01*
X137758333Y-100257143D01*
X137805952Y-100304762D01*
X137901190Y-100352381D01*
X138091667Y-100352381D01*
X138186905Y-100304762D01*
X138234524Y-100257143D01*
X138282143Y-100161905D01*
X138282143Y-99352381D01*
X139282143Y-100352381D02*
X138710714Y-100352381D01*
X138996428Y-100352381D02*
X138996428Y-99352381D01*
X138901190Y-99495238D01*
X138805952Y-99590476D01*
X138710714Y-99638095D01*
X139901190Y-99352381D02*
X139996429Y-99352381D01*
X140091667Y-99400000D01*
X140139286Y-99447619D01*
X140186905Y-99542857D01*
X140234524Y-99733333D01*
X140234524Y-99971429D01*
X140186905Y-100161905D01*
X140139286Y-100257143D01*
X140091667Y-100304762D01*
X139996429Y-100352381D01*
X139901190Y-100352381D01*
X139805952Y-100304762D01*
X139758333Y-100257143D01*
X139710714Y-100161905D01*
X139663095Y-99971429D01*
X139663095Y-99733333D01*
X139710714Y-99542857D01*
X139758333Y-99447619D01*
X139805952Y-99400000D01*
X139901190Y-99352381D01*
X141186905Y-100352381D02*
X140615476Y-100352381D01*
X140901190Y-100352381D02*
X140901190Y-99352381D01*
X140805952Y-99495238D01*
X140710714Y-99590476D01*
X140615476Y-99638095D01*
X155252381Y-122914286D02*
X156061905Y-122914286D01*
X156157143Y-122866667D01*
X156204762Y-122819048D01*
X156252381Y-122723810D01*
X156252381Y-122533333D01*
X156204762Y-122438095D01*
X156157143Y-122390476D01*
X156061905Y-122342857D01*
X155252381Y-122342857D01*
X156252381Y-121342857D02*
X156252381Y-121914286D01*
X156252381Y-121628572D02*
X155252381Y-121628572D01*
X155395238Y-121723810D01*
X155490476Y-121819048D01*
X155538095Y-121914286D01*
X155252381Y-120723810D02*
X155252381Y-120628571D01*
X155300000Y-120533333D01*
X155347619Y-120485714D01*
X155442857Y-120438095D01*
X155633333Y-120390476D01*
X155871429Y-120390476D01*
X156061905Y-120438095D01*
X156157143Y-120485714D01*
X156204762Y-120533333D01*
X156252381Y-120628571D01*
X156252381Y-120723810D01*
X156204762Y-120819048D01*
X156157143Y-120866667D01*
X156061905Y-120914286D01*
X155871429Y-120961905D01*
X155633333Y-120961905D01*
X155442857Y-120914286D01*
X155347619Y-120866667D01*
X155300000Y-120819048D01*
X155252381Y-120723810D01*
X155347619Y-120009524D02*
X155300000Y-119961905D01*
X155252381Y-119866667D01*
X155252381Y-119628571D01*
X155300000Y-119533333D01*
X155347619Y-119485714D01*
X155442857Y-119438095D01*
X155538095Y-119438095D01*
X155680952Y-119485714D01*
X156252381Y-120057143D01*
X156252381Y-119438095D01*
X155052381Y-89114286D02*
X155861905Y-89114286D01*
X155957143Y-89066667D01*
X156004762Y-89019048D01*
X156052381Y-88923810D01*
X156052381Y-88733333D01*
X156004762Y-88638095D01*
X155957143Y-88590476D01*
X155861905Y-88542857D01*
X155052381Y-88542857D01*
X156052381Y-87542857D02*
X156052381Y-88114286D01*
X156052381Y-87828572D02*
X155052381Y-87828572D01*
X155195238Y-87923810D01*
X155290476Y-88019048D01*
X155338095Y-88114286D01*
X155052381Y-86923810D02*
X155052381Y-86828571D01*
X155100000Y-86733333D01*
X155147619Y-86685714D01*
X155242857Y-86638095D01*
X155433333Y-86590476D01*
X155671429Y-86590476D01*
X155861905Y-86638095D01*
X155957143Y-86685714D01*
X156004762Y-86733333D01*
X156052381Y-86828571D01*
X156052381Y-86923810D01*
X156004762Y-87019048D01*
X155957143Y-87066667D01*
X155861905Y-87114286D01*
X155671429Y-87161905D01*
X155433333Y-87161905D01*
X155242857Y-87114286D01*
X155147619Y-87066667D01*
X155100000Y-87019048D01*
X155052381Y-86923810D01*
X155052381Y-86257143D02*
X155052381Y-85638095D01*
X155433333Y-85971429D01*
X155433333Y-85828571D01*
X155480952Y-85733333D01*
X155528571Y-85685714D01*
X155623810Y-85638095D01*
X155861905Y-85638095D01*
X155957143Y-85685714D01*
X156004762Y-85733333D01*
X156052381Y-85828571D01*
X156052381Y-86114286D01*
X156004762Y-86209524D01*
X155957143Y-86257143D01*
M02*
