G04 #@! TF.FileFunction,Copper,L4,Bot,Signal*
%FSLAX46Y46*%
G04 Gerber Fmt 4.6, Leading zero omitted, Abs format (unit mm)*
G04 Created by KiCad (PCBNEW 4.0.2-stable) date Sun 24 Apr 2016 07:43:34 PM AKDT*
%MOMM*%
G01*
G04 APERTURE LIST*
%ADD10C,0.100000*%
%ADD11R,2.032000X1.727200*%
%ADD12O,2.032000X1.727200*%
%ADD13R,5.080000X2.290000*%
%ADD14R,2.290000X5.080000*%
%ADD15C,0.600000*%
%ADD16C,0.250000*%
G04 APERTURE END LIST*
D10*
D11*
X157250000Y-102920000D03*
D12*
X157250000Y-105460000D03*
X157250000Y-108000000D03*
X157250000Y-110540000D03*
D13*
X138500000Y-100620000D03*
X138500000Y-109380000D03*
D14*
X144120000Y-114500000D03*
X152880000Y-114500000D03*
X152880000Y-93500000D03*
X144120000Y-93500000D03*
D15*
X152750000Y-96750000D03*
X144000000Y-96750000D03*
X152750000Y-111000000D03*
X144000000Y-111000000D03*
X141880000Y-109380000D03*
X141750000Y-100750000D03*
X147750000Y-106750000D03*
X149457120Y-106750000D03*
X149250000Y-103278600D03*
X147750000Y-103250000D03*
X146250000Y-105750000D03*
X146250000Y-104250000D03*
X149001053Y-105249077D03*
X147998947Y-105249077D03*
X150250000Y-100000000D03*
X146750000Y-107750000D03*
X154000000Y-101500000D03*
X152000000Y-102000000D03*
D16*
X152880000Y-96620000D02*
X152750000Y-96750000D01*
X152880000Y-93500000D02*
X152880000Y-96620000D01*
X144000000Y-96750000D02*
X144000000Y-93620000D01*
X144000000Y-93620000D02*
X144120000Y-93500000D01*
X144000000Y-111590000D02*
X144000000Y-111000000D01*
X144120000Y-114500000D02*
X144120000Y-111710000D01*
X144120000Y-111710000D02*
X144000000Y-111590000D01*
X141880000Y-109380000D02*
X138500000Y-109380000D01*
X141620000Y-100620000D02*
X141750000Y-100750000D01*
X138500000Y-100620000D02*
X141620000Y-100620000D01*
M02*
