M48
;DRILL file {KiCad 4.0.4-stable} date Tue Oct 11 21:32:13 2016
;FORMAT={3:3/ absolute / metric / keep zeros}
FMAT,2
METRIC,TZ
T1C0.254
T2C0.400
T3C1.016
%
G90
G05
M71
T1
X132500Y-105500
X132500Y-107500
X134000Y-105500
X134000Y-107500
X135000Y-092500
X135000Y-095000
X135000Y-100000
X135000Y-110000
X135000Y-115000
X135500Y-105500
X135500Y-107500
X137000Y-105500
X137000Y-107500
X137500Y-092500
X137500Y-097500
X137500Y-112500
X138500Y-105500
X138500Y-107500
X139250Y-104000
X140000Y-095000
X140000Y-100000
X140000Y-105500
X140000Y-107500
X140000Y-110000
X140000Y-115000
X141000Y-102750
X141500Y-105500
X141500Y-107500
X142500Y-092500
X142500Y-097500
X142500Y-104000
X142500Y-105500
X142500Y-106500
X142500Y-107500
X142500Y-112500
X144000Y-103000
X144000Y-107500
X145000Y-092500
X145000Y-095000
X145000Y-100000
X145000Y-110000
X145000Y-115000
X145500Y-103000
X145500Y-107500
X146000Y-104000
X146000Y-107000
X147000Y-104000
X147000Y-106000
X147500Y-090500
X147500Y-091500
X147500Y-092500
X147500Y-093500
X147500Y-094500
X147500Y-095500
X147500Y-096500
X147500Y-097500
X147500Y-098500
X147500Y-099500
X147500Y-100500
X147500Y-101500
X147500Y-102500
X147500Y-103500
X147500Y-106500
X147500Y-107500
X147500Y-108500
X147500Y-109500
X147500Y-110500
X147500Y-111500
X147500Y-112500
X147500Y-113500
X147500Y-114500
X147500Y-115500
X147500Y-116500
X147500Y-117500
X147999Y-104825
X148000Y-105250
X149000Y-104854
X149000Y-105250
X149500Y-090500
X149500Y-091500
X149500Y-092500
X149500Y-093500
X149500Y-094500
X149500Y-095500
X149500Y-096500
X149500Y-097500
X149500Y-098500
X149500Y-099500
X149500Y-100500
X149500Y-101500
X149500Y-102500
X149500Y-103500
X149500Y-106500
X149500Y-107500
X149500Y-108500
X149500Y-109500
X149500Y-110500
X149500Y-111500
X149500Y-112500
X149500Y-113500
X149500Y-114500
X149500Y-115500
X149500Y-116500
X149500Y-117500
X150000Y-095000
X150000Y-100000
X150000Y-104000
X150000Y-106000
X151150Y-110000
X151150Y-115000
X151200Y-092500
X152500Y-097500
X152500Y-112500
X155000Y-095000
X155000Y-100000
X155000Y-107500
X155000Y-115000
X157500Y-092500
X157500Y-097500
X157500Y-112500
X157500Y-117500
T2
X145463Y-105195
X152000Y-102000
X154000Y-101500
T3
X157250Y-102920
X157250Y-105460
X157250Y-108000
X157250Y-110540
T0
M30
