G04 #@! TF.FileFunction,Copper,L1,Top,Signal*
%FSLAX46Y46*%
G04 Gerber Fmt 4.6, Leading zero omitted, Abs format (unit mm)*
G04 Created by KiCad (PCBNEW 4.0.2-stable) date Sat 23 Apr 2016 01:14:57 AM AKDT*
%MOMM*%
G01*
G04 APERTURE LIST*
%ADD10C,0.100000*%
%ADD11R,0.850000X0.250000*%
%ADD12R,0.650000X0.250000*%
%ADD13R,0.250000X0.650000*%
%ADD14R,0.770000X0.250000*%
%ADD15R,0.600000X0.500000*%
%ADD16R,0.500000X0.600000*%
%ADD17R,0.750000X0.800000*%
%ADD18R,0.400000X0.600000*%
%ADD19R,2.032000X1.727200*%
%ADD20O,2.032000X1.727200*%
%ADD21R,5.080000X2.290000*%
%ADD22R,2.290000X5.080000*%
%ADD23C,0.600000*%
%ADD24C,0.350000*%
%ADD25C,0.250000*%
G04 APERTURE END LIST*
D10*
D11*
X147150000Y-104503600D03*
D12*
X147050000Y-105003600D03*
X147050000Y-105503600D03*
D13*
X148000000Y-105903600D03*
X148500000Y-105903600D03*
X149000000Y-105903600D03*
D12*
X149950000Y-105503600D03*
X149950000Y-105003600D03*
X149950000Y-104503600D03*
D13*
X149000000Y-104103600D03*
X148500000Y-104103600D03*
X148000000Y-104103600D03*
D14*
X148500000Y-104853600D03*
D15*
X142950000Y-105000000D03*
X144050000Y-105000000D03*
D16*
X148500000Y-110600000D03*
X148500000Y-109500000D03*
X148500000Y-97450000D03*
X148500000Y-98550000D03*
D15*
X148450000Y-100000000D03*
X149550000Y-100000000D03*
X147450000Y-107750000D03*
X148550000Y-107750000D03*
D16*
X152000000Y-104050000D03*
X152000000Y-102950000D03*
D17*
X154000000Y-104000000D03*
X154000000Y-102500000D03*
D18*
X152900000Y-105500000D03*
X152000000Y-105500000D03*
D19*
X157250000Y-102920000D03*
D20*
X157250000Y-105460000D03*
X157250000Y-108000000D03*
X157250000Y-110540000D03*
D21*
X138500000Y-105000000D03*
X138500000Y-109380000D03*
X138500000Y-100620000D03*
D22*
X148500000Y-114500000D03*
X152880000Y-114500000D03*
X144120000Y-114500000D03*
X148500000Y-93500000D03*
X144120000Y-93500000D03*
X152880000Y-93500000D03*
D23*
X152750000Y-96750000D03*
X144000000Y-96750000D03*
X152750000Y-111000000D03*
X144000000Y-111000000D03*
X141880000Y-109380000D03*
X141750000Y-100750000D03*
X147750000Y-106750000D03*
X149457120Y-106750000D03*
X149250000Y-103278600D03*
X147750000Y-103250000D03*
X146250000Y-105750000D03*
X146250000Y-104250000D03*
X149001053Y-105249077D03*
X147998947Y-105249077D03*
X150250000Y-100000000D03*
X146750000Y-107750000D03*
X154000000Y-101500000D03*
X152000000Y-102000000D03*
D24*
X138500000Y-105000000D02*
X142950000Y-105000000D01*
D25*
X146000000Y-105000000D02*
X146003600Y-105003600D01*
X146003600Y-105003600D02*
X147050000Y-105003600D01*
D24*
X144050000Y-105000000D02*
X146000000Y-105000000D01*
X148500000Y-110600000D02*
X148500000Y-114500000D01*
X148550000Y-107750000D02*
X148550000Y-109450000D01*
X148550000Y-109450000D02*
X148500000Y-109500000D01*
X148500000Y-106500000D02*
X148550000Y-106550000D01*
X148550000Y-106550000D02*
X148550000Y-107750000D01*
D25*
X148500000Y-105903600D02*
X148500000Y-106500000D01*
D24*
X148500000Y-93500000D02*
X148500000Y-97324998D01*
X148500000Y-97324998D02*
X148500000Y-97450000D01*
X148500000Y-98550000D02*
X148500000Y-99950000D01*
X148500000Y-99950000D02*
X148450000Y-100000000D01*
X148500000Y-103500000D02*
X148450000Y-103450000D01*
X148450000Y-103450000D02*
X148450000Y-100000000D01*
D25*
X148500000Y-104103600D02*
X148500000Y-103500000D01*
X152750000Y-96750000D02*
X152750000Y-93630000D01*
X152750000Y-93630000D02*
X152880000Y-93500000D01*
X144120000Y-96380000D02*
X144000000Y-96500000D01*
X144000000Y-96500000D02*
X144000000Y-96750000D01*
X144120000Y-93500000D02*
X144120000Y-96380000D01*
X152750000Y-111000000D02*
X152750000Y-114370000D01*
X152750000Y-114370000D02*
X152880000Y-114500000D01*
X144000000Y-111000000D02*
X144000000Y-114380000D01*
X144000000Y-114380000D02*
X144120000Y-114500000D01*
X138500000Y-109380000D02*
X141880000Y-109380000D01*
X141750000Y-100750000D02*
X138630000Y-100750000D01*
X138630000Y-100750000D02*
X138500000Y-100620000D01*
X148853600Y-104853600D02*
X149001053Y-105001053D01*
X149001053Y-105001053D02*
X149001053Y-105249077D01*
X148500000Y-104853600D02*
X148853600Y-104853600D01*
X148146400Y-104853600D02*
X147998947Y-105001053D01*
X147998947Y-105001053D02*
X147998947Y-105249077D01*
X148500000Y-104853600D02*
X148146400Y-104853600D01*
X148000000Y-105903600D02*
X148000000Y-106500000D01*
X148000000Y-106500000D02*
X147750000Y-106750000D01*
X149000000Y-105903600D02*
X149000000Y-106292880D01*
X149000000Y-106292880D02*
X149457120Y-106750000D01*
X149000000Y-104103600D02*
X149000000Y-103528600D01*
X149000000Y-103528600D02*
X149250000Y-103278600D01*
X147750000Y-103457120D02*
X147750000Y-103250000D01*
X148000000Y-104103600D02*
X148000000Y-103707120D01*
X148000000Y-103707120D02*
X147750000Y-103457120D01*
X147050000Y-105503600D02*
X146496400Y-105503600D01*
X146496400Y-105503600D02*
X146250000Y-105750000D01*
X146492800Y-104250000D02*
X146250000Y-104250000D01*
X147150000Y-104503600D02*
X146746400Y-104503600D01*
X146746400Y-104503600D02*
X146492800Y-104250000D01*
X149000000Y-105250130D02*
X149001053Y-105249077D01*
X148000000Y-105250130D02*
X147998947Y-105249077D01*
D24*
X149004644Y-105245486D02*
X149001053Y-105249077D01*
X149000000Y-105250000D02*
X149000130Y-105250000D01*
X149000130Y-105250000D02*
X149001053Y-105249077D01*
X150000000Y-100000000D02*
X150250000Y-100000000D01*
X149550000Y-100000000D02*
X150000000Y-100000000D01*
X147450000Y-107750000D02*
X146750000Y-107750000D01*
D25*
X154000000Y-102500000D02*
X154000000Y-101500000D01*
X152000000Y-102950000D02*
X152000000Y-102000000D01*
X152000000Y-104050000D02*
X152000000Y-105500000D01*
X152000000Y-104050000D02*
X153950000Y-104050000D01*
X153950000Y-104050000D02*
X154000000Y-104000000D01*
X151000000Y-104500000D02*
X151450000Y-104050000D01*
X151450000Y-104050000D02*
X152000000Y-104050000D01*
X150153600Y-104500000D02*
X151000000Y-104500000D01*
X149950000Y-104503600D02*
X150150000Y-104503600D01*
X150150000Y-104503600D02*
X150153600Y-104500000D01*
X152900000Y-105500000D02*
X154500000Y-105500000D01*
X154500000Y-105500000D02*
X155500000Y-104500000D01*
X155500000Y-104500000D02*
X155500000Y-103500000D01*
X155500000Y-103500000D02*
X156080000Y-102920000D01*
X156080000Y-102920000D02*
X157500000Y-102920000D01*
X151474999Y-105474999D02*
X151003600Y-105003600D01*
X151003600Y-105003600D02*
X149950000Y-105003600D01*
X151474999Y-106060001D02*
X151474999Y-105474999D01*
X157500000Y-108000000D02*
X153414998Y-108000000D01*
X153414998Y-108000000D02*
X151474999Y-106060001D01*
X151000000Y-105636410D02*
X151000000Y-106221412D01*
X151000000Y-106221412D02*
X155318588Y-110540000D01*
X155318588Y-110540000D02*
X156234000Y-110540000D01*
X156234000Y-110540000D02*
X157500000Y-110540000D01*
X150867190Y-105503600D02*
X151000000Y-105636410D01*
X149950000Y-105503600D02*
X150867190Y-105503600D01*
M02*
