G04 #@! TF.FileFunction,Soldermask,Top*
%FSLAX46Y46*%
G04 Gerber Fmt 4.6, Leading zero omitted, Abs format (unit mm)*
G04 Created by KiCad (PCBNEW 4.0.4-stable) date Tue Oct 11 21:32:11 2016*
%MOMM*%
%LPD*%
G01*
G04 APERTURE LIST*
%ADD10C,0.100000*%
%ADD11R,5.960000X0.960000*%
%ADD12R,5.960000X3.960000*%
%ADD13R,0.810000X0.210000*%
%ADD14R,0.610000X0.210000*%
%ADD15R,0.210000X0.610000*%
%ADD16R,0.730000X0.210000*%
%ADD17R,0.460000X0.560000*%
%ADD18R,0.560000X0.460000*%
%ADD19R,0.710000X0.760000*%
%ADD20R,0.360000X0.560000*%
%ADD21R,1.992000X1.687200*%
%ADD22O,1.992000X1.687200*%
%ADD23R,0.960000X5.960000*%
%ADD24R,3.960000X5.960000*%
%ADD25R,0.560000X0.360000*%
%ADD26R,1.360000X0.720000*%
%ADD27C,0.254000*%
G04 APERTURE END LIST*
D10*
D11*
X135250000Y-106500000D03*
D12*
X135250000Y-109200000D03*
X135250000Y-103800000D03*
D13*
X147150000Y-104503600D03*
D14*
X147050000Y-105003600D03*
X147050000Y-105503600D03*
D15*
X148000000Y-105903600D03*
X148500000Y-105903600D03*
X149000000Y-105903600D03*
D14*
X149950000Y-105503600D03*
X149950000Y-105003600D03*
X149950000Y-104503600D03*
D15*
X149000000Y-104103600D03*
X148500000Y-104103600D03*
X148000000Y-104103600D03*
D16*
X148500000Y-104853600D03*
D17*
X148500000Y-110600000D03*
X148500000Y-109500000D03*
X148500000Y-97450000D03*
X148500000Y-98550000D03*
D18*
X148650000Y-100250000D03*
X149750000Y-100250000D03*
X147400000Y-107850000D03*
X148500000Y-107850000D03*
D17*
X152000000Y-104050000D03*
X152000000Y-102950000D03*
D19*
X154000000Y-104000000D03*
X154000000Y-102500000D03*
D20*
X152900000Y-105500000D03*
X152000000Y-105500000D03*
D21*
X157250000Y-102920000D03*
D22*
X157250000Y-105460000D03*
X157250000Y-108000000D03*
X157250000Y-110540000D03*
D23*
X148450000Y-115000000D03*
D24*
X151150000Y-115000000D03*
X145750000Y-115000000D03*
D23*
X148500000Y-92500000D03*
D24*
X145800000Y-92500000D03*
X151200000Y-92500000D03*
D25*
X146000000Y-105750000D03*
X146000000Y-106650000D03*
D26*
X144215000Y-104000000D03*
X144215000Y-104000000D03*
X144215000Y-105270000D03*
X144215000Y-106540000D03*
X140785000Y-106540000D03*
X140785000Y-104000000D03*
D27*
G36*
X150373000Y-113173000D02*
X146127000Y-113173000D01*
X146127000Y-107127000D01*
X150373000Y-107127000D01*
X150373000Y-113173000D01*
X150373000Y-113173000D01*
G37*
X150373000Y-113173000D02*
X146127000Y-113173000D01*
X146127000Y-107127000D01*
X150373000Y-107127000D01*
X150373000Y-113173000D01*
G36*
X150373000Y-102873000D02*
X146127000Y-102873000D01*
X146127000Y-93477000D01*
X150373000Y-93477000D01*
X150373000Y-102873000D01*
X150373000Y-102873000D01*
G37*
X150373000Y-102873000D02*
X146127000Y-102873000D01*
X146127000Y-93477000D01*
X150373000Y-93477000D01*
X150373000Y-102873000D01*
M02*
