M48
;DRILL file {KiCad 4.0.2-stable} date Thu May 19 22:00:53 2016
;FORMAT={3:3/ absolute / metric / keep zeros}
FMAT,2
METRIC,TZ
T1C0.400
T2C0.700
T3C1.016
%
G90
G05
M71
T1
X126944Y-097465
X129667Y-105156
X129794Y-098425
X129794Y-113284
X129921Y-096774
X130302Y-107442
X130810Y-099822
X130820Y-106807
X131445Y-110109
X131455Y-102870
X132080Y-100330
X132080Y-106045
X132715Y-099695
X132715Y-111125
X133350Y-099060
X133350Y-116205
X133985Y-102235
X133985Y-117475
X134580Y-105029
X134874Y-112522
X135102Y-092736
X136017Y-094996
X137160Y-106680
X137287Y-097800
X138430Y-098435
X138430Y-107188
X139700Y-102860
X139700Y-107950
X140970Y-102235
X141097Y-115570
X142240Y-093980
X142240Y-117221
X143510Y-102235
X143510Y-110109
X144780Y-102870
X144780Y-107569
X146050Y-097790
X146050Y-110871
X146050Y-110871
X147193Y-111379
X147320Y-095250
X148590Y-095885
X148590Y-107696
X149860Y-100965
X149860Y-114681
X151130Y-100330
X151130Y-112522
X152400Y-099695
X152400Y-113284
X153568Y-113894
X153670Y-099060
X154940Y-101470
X154940Y-116713
X156210Y-100330
X156337Y-112014
X157480Y-103170
X157480Y-106807
X157480Y-107696
X157480Y-113919
X158750Y-098425
X158750Y-109474
X160020Y-093345
X161036Y-096870
X161036Y-111379
X161671Y-095885
X161798Y-114681
X162306Y-099568
X162306Y-109474
X163195Y-101600
X163195Y-107950
X163830Y-100965
X163830Y-113665
X164465Y-100330
X164465Y-109220
X165100Y-093980
X165100Y-112395
X165695Y-100417
X165695Y-110871
X166370Y-092583
X166497Y-095758
X166624Y-105410
X166751Y-108331
X167132Y-096870
X172339Y-115189
T2
X135890Y-104140
X135890Y-105410
X137160Y-104140
X137160Y-105410
X138430Y-104140
X138430Y-105410
X139700Y-104140
X139700Y-105410
X140970Y-104140
X140970Y-105410
X142240Y-104140
X142240Y-105410
X143510Y-104140
X143510Y-105410
X144780Y-104140
X144780Y-105410
X146050Y-104140
X146050Y-105410
X147320Y-104140
X147320Y-105410
X148590Y-104140
X148590Y-105410
X149860Y-104140
X149860Y-105410
X151130Y-104140
X151130Y-105410
X152400Y-104140
X152400Y-105410
X153670Y-104140
X153670Y-105410
X154940Y-104140
X154940Y-105410
X156210Y-104140
X156210Y-105410
X157480Y-104140
X157480Y-105410
X158750Y-104140
X158750Y-105410
X160020Y-104140
X160020Y-105410
T3
X125641Y-093574
X125641Y-096114
X125641Y-098654
X125641Y-101194
X125641Y-103734
X125641Y-106274
X125641Y-108814
X125641Y-111354
X125641Y-113894
X125641Y-116434
X128181Y-093574
X128181Y-096114
X128181Y-098654
X128181Y-101194
X128181Y-103734
X128181Y-106274
X128181Y-108814
X128181Y-111354
X128181Y-113894
X128181Y-116434
X168821Y-093574
X168821Y-096114
X168821Y-098654
X168821Y-101194
X168821Y-103734
X168821Y-106274
X168821Y-108814
X168821Y-111354
X168821Y-113894
X168821Y-116434
X171361Y-093574
X171361Y-096114
X171361Y-098654
X171361Y-101194
X171361Y-103734
X171361Y-106274
X171361Y-108814
X171361Y-111354
X171361Y-113894
X171361Y-116434
T0
M30
