G04 #@! TF.FileFunction,Copper,L2,Bot,Signal*
%FSLAX46Y46*%
G04 Gerber Fmt 4.6, Leading zero omitted, Abs format (unit mm)*
G04 Created by KiCad (PCBNEW 4.0.2-stable) date Thu May 19 22:00:52 2016*
%MOMM*%
G01*
G04 APERTURE LIST*
%ADD10C,0.100000*%
%ADD11C,0.925000*%
%ADD12R,1.727200X1.727200*%
%ADD13O,1.727200X1.727200*%
%ADD14C,0.600000*%
%ADD15C,0.250000*%
G04 APERTURE END LIST*
D10*
D11*
X135890000Y-105410000D03*
X135890000Y-104140000D03*
X137160000Y-105410000D03*
X137160000Y-104140000D03*
X138430000Y-105410000D03*
X138430000Y-104140000D03*
X139700000Y-105410000D03*
X139700000Y-104140000D03*
X140970000Y-105410000D03*
X140970000Y-104140000D03*
X142240000Y-105410000D03*
X142240000Y-104140000D03*
X143510000Y-105410000D03*
X143510000Y-104140000D03*
X144780000Y-105410000D03*
X144780000Y-104140000D03*
X146050000Y-105410000D03*
X146050000Y-104140000D03*
X147320000Y-105410000D03*
X147320000Y-104140000D03*
X148590000Y-105410000D03*
X148590000Y-104140000D03*
X149860000Y-105410000D03*
X149860000Y-104140000D03*
X151130000Y-105410000D03*
X151130000Y-104140000D03*
X152400000Y-105410000D03*
X152400000Y-104140000D03*
X153670000Y-105410000D03*
X153670000Y-104140000D03*
X154940000Y-105410000D03*
X154940000Y-104140000D03*
X156210000Y-105410000D03*
X156210000Y-104140000D03*
X157480000Y-105410000D03*
X157480000Y-104140000D03*
X158750000Y-105410000D03*
X158750000Y-104140000D03*
X160020000Y-105410000D03*
X160020000Y-104140000D03*
D12*
X125641100Y-93573600D03*
D13*
X128181100Y-93573600D03*
X125641100Y-96113600D03*
X128181100Y-96113600D03*
X125641100Y-98653600D03*
X128181100Y-98653600D03*
X125641100Y-101193600D03*
X128181100Y-101193600D03*
X125641100Y-103733600D03*
X128181100Y-103733600D03*
X125641100Y-106273600D03*
X128181100Y-106273600D03*
X125641100Y-108813600D03*
X128181100Y-108813600D03*
X125641100Y-111353600D03*
X128181100Y-111353600D03*
X125641100Y-113893600D03*
X128181100Y-113893600D03*
X125641100Y-116433600D03*
X128181100Y-116433600D03*
X168821100Y-93573600D03*
X171361100Y-93573600D03*
X168821100Y-96113600D03*
X171361100Y-96113600D03*
X168821100Y-98653600D03*
X171361100Y-98653600D03*
X168821100Y-101193600D03*
X171361100Y-101193600D03*
X168821100Y-103733600D03*
X171361100Y-103733600D03*
X168821100Y-106273600D03*
X171361100Y-106273600D03*
X168821100Y-108813600D03*
X171361100Y-108813600D03*
X168821100Y-111353600D03*
X171361100Y-111353600D03*
X168821100Y-113893600D03*
X171361100Y-113893600D03*
X168821100Y-116433600D03*
X171361100Y-116433600D03*
D14*
X135102499Y-92735501D03*
X136017000Y-94996000D03*
X130810000Y-99822000D03*
X130819990Y-106807000D03*
X137160000Y-106680000D03*
X126944001Y-97464999D03*
X137287000Y-97799990D03*
X130302000Y-107442000D03*
X138430000Y-107188000D03*
X129667000Y-105156000D03*
X129794000Y-98425000D03*
X138430000Y-98434990D03*
X139700000Y-107950000D03*
X131445000Y-110109000D03*
X131454990Y-102870000D03*
X139700000Y-102860010D03*
X141097000Y-115570000D03*
X133985000Y-117475000D03*
X133985000Y-102235000D03*
X140970000Y-102235000D03*
X142240000Y-117221000D03*
X165100000Y-112395000D03*
X165100000Y-93980000D03*
X142240000Y-93980000D03*
X143510000Y-110109000D03*
X163195000Y-107950000D03*
X163195000Y-101600000D03*
X143510000Y-102235000D03*
X166751000Y-108331000D03*
X144780000Y-107569000D03*
X144780000Y-102870000D03*
X165695010Y-100417010D03*
X165695010Y-110871000D03*
X146050000Y-110871000D03*
X146050000Y-110871000D03*
X146050000Y-97790000D03*
X167132000Y-96869989D03*
X161036000Y-96869989D03*
X161036000Y-111379000D03*
X147193000Y-111379000D03*
X147320000Y-95250000D03*
X148590000Y-107696000D03*
X157480000Y-107696000D03*
X157480000Y-113919000D03*
X172339000Y-115189000D03*
X166370000Y-92583000D03*
X148590000Y-95885000D03*
X129921000Y-96774000D03*
X161671000Y-95885000D03*
X161798000Y-114681000D03*
X149860000Y-114681000D03*
X149860000Y-100965000D03*
X134580010Y-105029000D03*
X134874000Y-112522000D03*
X151130000Y-112522000D03*
X132080000Y-106045000D03*
X132080000Y-100330000D03*
X151130000Y-100330000D03*
X129794000Y-113284000D03*
X152400000Y-113284000D03*
X132715000Y-111125000D03*
X132715000Y-99695000D03*
X152400000Y-99695000D03*
X153568400Y-113893600D03*
X133350000Y-116205000D03*
X133350000Y-99060000D03*
X153670000Y-99060000D03*
X154940000Y-116713000D03*
X163830000Y-113665000D03*
X163830000Y-100965000D03*
X154940000Y-101469979D03*
X156337000Y-112014000D03*
X164465000Y-109220000D03*
X164465000Y-100330000D03*
X156210000Y-100330000D03*
X157480000Y-106807000D03*
X157480000Y-103170009D03*
X162306000Y-99568000D03*
X162306000Y-109474000D03*
X158750000Y-109474000D03*
X158750000Y-98425000D03*
X166497000Y-95758000D03*
X166624000Y-105410000D03*
X160020000Y-93345000D03*
D15*
X135102499Y-92735501D02*
X134751997Y-92384999D01*
X134751997Y-92384999D02*
X125716101Y-92384999D01*
X125716101Y-92384999D02*
X125641100Y-92460000D01*
X125641100Y-92460000D02*
X125641100Y-93573600D01*
X136017000Y-94996000D02*
X128822630Y-94996000D01*
X128822630Y-94996000D02*
X128751629Y-94924999D01*
X128751629Y-94924999D02*
X126829701Y-94924999D01*
X126829701Y-94924999D02*
X126504699Y-95250001D01*
X126504699Y-95250001D02*
X125641100Y-96113600D01*
X130810000Y-99822000D02*
X130385736Y-99822000D01*
X130385736Y-99822000D02*
X130365535Y-99842201D01*
X130365535Y-99842201D02*
X126829701Y-99842201D01*
X126829701Y-99842201D02*
X126504699Y-99517199D01*
X126504699Y-99517199D02*
X125641100Y-98653600D01*
X131064000Y-106680000D02*
X130937000Y-106807000D01*
X130937000Y-106807000D02*
X130819990Y-106807000D01*
X137160000Y-106680000D02*
X131064000Y-106680000D01*
X137287000Y-97799990D02*
X129086620Y-97799990D01*
X129086620Y-97799990D02*
X128751629Y-97464999D01*
X128751629Y-97464999D02*
X126944001Y-97464999D01*
X137323002Y-107442000D02*
X130302000Y-107442000D01*
X138430000Y-107188000D02*
X137577002Y-107188000D01*
X137577002Y-107188000D02*
X137323002Y-107442000D01*
X129667000Y-105156000D02*
X128822630Y-105156000D01*
X128751629Y-105084999D02*
X126829701Y-105084999D01*
X128822630Y-105156000D02*
X128751629Y-105084999D01*
X126829701Y-105084999D02*
X126504699Y-105410001D01*
X126504699Y-105410001D02*
X125641100Y-106273600D01*
X137995746Y-98425000D02*
X129794000Y-98425000D01*
X138430000Y-98434990D02*
X138005736Y-98434990D01*
X138005736Y-98434990D02*
X137995746Y-98425000D01*
X139700000Y-107950000D02*
X139400001Y-108249999D01*
X129332229Y-108249999D02*
X128737229Y-107654999D01*
X139400001Y-108249999D02*
X129332229Y-108249999D01*
X128737229Y-107654999D02*
X126799701Y-107654999D01*
X126799701Y-107654999D02*
X126504699Y-107950001D01*
X126504699Y-107950001D02*
X125641100Y-108813600D01*
X131445000Y-110109000D02*
X126885700Y-110109000D01*
X126885700Y-110109000D02*
X125641100Y-111353600D01*
X131806020Y-102870000D02*
X131454990Y-102870000D01*
X131816010Y-102860010D02*
X131806020Y-102870000D01*
X139700000Y-102860010D02*
X131816010Y-102860010D01*
X141097000Y-115570000D02*
X140579201Y-115052201D01*
X140579201Y-115052201D02*
X126799701Y-115052201D01*
X126799701Y-115052201D02*
X126504699Y-114757199D01*
X126504699Y-114757199D02*
X125641100Y-113893600D01*
X133985000Y-117475000D02*
X128898830Y-117475000D01*
X128898830Y-117475000D02*
X128751629Y-117622201D01*
X128751629Y-117622201D02*
X126829701Y-117622201D01*
X126829701Y-117622201D02*
X126504699Y-117297199D01*
X126504699Y-117297199D02*
X125641100Y-116433600D01*
X140970000Y-102235000D02*
X133985000Y-102235000D01*
X142240000Y-117221000D02*
X142611201Y-117592201D01*
X142611201Y-117592201D02*
X170202499Y-117592201D01*
X170202499Y-117592201D02*
X170497501Y-117297199D01*
X170497501Y-117297199D02*
X171361100Y-116433600D01*
X171361100Y-113893600D02*
X170172499Y-112704999D01*
X170172499Y-112704999D02*
X165409999Y-112704999D01*
X165409999Y-112704999D02*
X165399999Y-112694999D01*
X165399999Y-112694999D02*
X165100000Y-112395000D01*
X164767809Y-94312191D02*
X165100000Y-93980000D01*
X142240000Y-93980000D02*
X142572191Y-94312191D01*
X142572191Y-94312191D02*
X164767809Y-94312191D01*
X143510000Y-110109000D02*
X170116500Y-110109000D01*
X170116500Y-110109000D02*
X171361100Y-111353600D01*
X163195000Y-107950000D02*
X163520001Y-107624999D01*
X163520001Y-107624999D02*
X170172499Y-107624999D01*
X170172499Y-107624999D02*
X170497501Y-107950001D01*
X170497501Y-107950001D02*
X171361100Y-108813600D01*
X162700011Y-102094989D02*
X163195000Y-101600000D01*
X143510000Y-102235000D02*
X144778590Y-102235000D01*
X144778590Y-102235000D02*
X144918601Y-102094989D01*
X144918601Y-102094989D02*
X162700011Y-102094989D01*
X166663999Y-108545001D02*
X166751000Y-108458000D01*
X166751000Y-108458000D02*
X166751000Y-108331000D01*
X144780000Y-107569000D02*
X145756001Y-108545001D01*
X145756001Y-108545001D02*
X166663999Y-108545001D01*
X144780000Y-102870000D02*
X145105001Y-102544999D01*
X170172499Y-102544999D02*
X170497501Y-102870001D01*
X145105001Y-102544999D02*
X170172499Y-102544999D01*
X170497501Y-102870001D02*
X171361100Y-103733600D01*
X171361100Y-101193600D02*
X169979701Y-99812201D01*
X169979701Y-99812201D02*
X166299819Y-99812201D01*
X166299819Y-99812201D02*
X165995009Y-100117011D01*
X165995009Y-100117011D02*
X165695010Y-100417010D01*
X165266010Y-110529010D02*
X165608000Y-110871000D01*
X165608000Y-110871000D02*
X165695010Y-110871000D01*
X146050000Y-110871000D02*
X146391990Y-110529010D01*
X146391990Y-110529010D02*
X165266010Y-110529010D01*
X146050000Y-97790000D02*
X146375001Y-97464999D01*
X146375001Y-97464999D02*
X170172499Y-97464999D01*
X170172499Y-97464999D02*
X170497501Y-97790001D01*
X170497501Y-97790001D02*
X171361100Y-98653600D01*
X166673990Y-96569990D02*
X166973989Y-96869989D01*
X166973989Y-96869989D02*
X167132000Y-96869989D01*
X161036000Y-96869989D02*
X161335999Y-96569990D01*
X161335999Y-96569990D02*
X166673990Y-96569990D01*
X160782000Y-111379000D02*
X161036000Y-111379000D01*
X147193000Y-111379000D02*
X160782000Y-111379000D01*
X147320000Y-95250000D02*
X147807799Y-94762201D01*
X147807799Y-94762201D02*
X170172499Y-94762201D01*
X170172499Y-94762201D02*
X170497501Y-94437199D01*
X170497501Y-94437199D02*
X171361100Y-93573600D01*
X148889999Y-107995999D02*
X148590000Y-107696000D01*
X157480000Y-107696000D02*
X157180001Y-107995999D01*
X157180001Y-107995999D02*
X148889999Y-107995999D01*
X172339000Y-115189000D02*
X163186602Y-115189000D01*
X163186602Y-115189000D02*
X161916602Y-113919000D01*
X161916602Y-113919000D02*
X157480000Y-113919000D01*
X142756398Y-92583000D02*
X166370000Y-92583000D01*
X128181100Y-93573600D02*
X141765798Y-93573600D01*
X141765798Y-93573600D02*
X142756398Y-92583000D01*
X128181100Y-96113600D02*
X148361400Y-96113600D01*
X148361400Y-96113600D02*
X148590000Y-95885000D01*
X148581602Y-96774000D02*
X129921000Y-96774000D01*
X161671000Y-95885000D02*
X149470602Y-95885000D01*
X149470602Y-95885000D02*
X148581602Y-96774000D01*
X149860000Y-114681000D02*
X161798000Y-114681000D01*
X128181100Y-101193600D02*
X149631400Y-101193600D01*
X149631400Y-101193600D02*
X149860000Y-100965000D01*
X130683000Y-105029000D02*
X130683000Y-105014186D01*
X130683000Y-105014186D02*
X129402414Y-103733600D01*
X129402414Y-103733600D02*
X128181100Y-103733600D01*
X134580010Y-105029000D02*
X130683000Y-105029000D01*
X151130000Y-112522000D02*
X134874000Y-112522000D01*
X132080000Y-106045000D02*
X128409700Y-106045000D01*
X128409700Y-106045000D02*
X128181100Y-106273600D01*
X151130000Y-100330000D02*
X132080000Y-100330000D01*
X152400000Y-113284000D02*
X129794000Y-113284000D01*
X128181100Y-111353600D02*
X132486400Y-111353600D01*
X132486400Y-111353600D02*
X132715000Y-111125000D01*
X152400000Y-99695000D02*
X132715000Y-99695000D01*
X128181100Y-113893600D02*
X153568400Y-113893600D01*
X152690002Y-99060000D02*
X153670000Y-99060000D01*
X133350000Y-116205000D02*
X128409700Y-116205000D01*
X128409700Y-116205000D02*
X128181100Y-116433600D01*
X152690002Y-99060000D02*
X133350000Y-99060000D01*
X154940000Y-116713000D02*
X168541700Y-116713000D01*
X168541700Y-116713000D02*
X168821100Y-116433600D01*
X163830000Y-113665000D02*
X168592500Y-113665000D01*
X168592500Y-113665000D02*
X168821100Y-113893600D01*
X155444979Y-100965000D02*
X163830000Y-100965000D01*
X154940000Y-101469979D02*
X155444979Y-100965000D01*
X156337000Y-112014000D02*
X164592000Y-112014000D01*
X164592000Y-112014000D02*
X164806001Y-111799999D01*
X164806001Y-111799999D02*
X167153387Y-111799999D01*
X167153387Y-111799999D02*
X167599786Y-111353600D01*
X167599786Y-111353600D02*
X168821100Y-111353600D01*
X164465000Y-109220000D02*
X168414700Y-109220000D01*
X168414700Y-109220000D02*
X168821100Y-108813600D01*
X156210000Y-100330000D02*
X164465000Y-100330000D01*
X157480000Y-106807000D02*
X168287700Y-106807000D01*
X168287700Y-106807000D02*
X168821100Y-106273600D01*
X157480000Y-103170009D02*
X168257509Y-103170009D01*
X168257509Y-103170009D02*
X168821100Y-103733600D01*
X162306000Y-99568000D02*
X162472999Y-99734999D01*
X162472999Y-99734999D02*
X164750601Y-99734999D01*
X164750601Y-99734999D02*
X165100009Y-100084407D01*
X167599786Y-101193600D02*
X168821100Y-101193600D01*
X165100009Y-100084407D02*
X165100009Y-100702611D01*
X165100009Y-100702611D02*
X165590998Y-101193600D01*
X165590998Y-101193600D02*
X167599786Y-101193600D01*
X162006001Y-109174001D02*
X162306000Y-109474000D01*
X158750000Y-109474000D02*
X159049999Y-109174001D01*
X159049999Y-109174001D02*
X162006001Y-109174001D01*
X168821100Y-98653600D02*
X158978600Y-98653600D01*
X158978600Y-98653600D02*
X158750000Y-98425000D01*
X166497000Y-95758000D02*
X168465500Y-95758000D01*
X168465500Y-95758000D02*
X168821100Y-96113600D01*
X160020000Y-105410000D02*
X166624000Y-105410000D01*
X160020000Y-93345000D02*
X168592500Y-93345000D01*
X168592500Y-93345000D02*
X168821100Y-93573600D01*
M02*
