G04 #@! TF.FileFunction,Soldermask,Bot*
%FSLAX46Y46*%
G04 Gerber Fmt 4.6, Leading zero omitted, Abs format (unit mm)*
G04 Created by KiCad (PCBNEW 4.0.2-stable) date Thu May 19 22:00:52 2016*
%MOMM*%
G01*
G04 APERTURE LIST*
%ADD10C,0.100000*%
%ADD11C,1.325000*%
%ADD12R,2.127200X2.127200*%
%ADD13O,2.127200X2.127200*%
G04 APERTURE END LIST*
D10*
D11*
X135890000Y-105410000D03*
X135890000Y-104140000D03*
X137160000Y-105410000D03*
X137160000Y-104140000D03*
X138430000Y-105410000D03*
X138430000Y-104140000D03*
X139700000Y-105410000D03*
X139700000Y-104140000D03*
X140970000Y-105410000D03*
X140970000Y-104140000D03*
X142240000Y-105410000D03*
X142240000Y-104140000D03*
X143510000Y-105410000D03*
X143510000Y-104140000D03*
X144780000Y-105410000D03*
X144780000Y-104140000D03*
X146050000Y-105410000D03*
X146050000Y-104140000D03*
X147320000Y-105410000D03*
X147320000Y-104140000D03*
X148590000Y-105410000D03*
X148590000Y-104140000D03*
X149860000Y-105410000D03*
X149860000Y-104140000D03*
X151130000Y-105410000D03*
X151130000Y-104140000D03*
X152400000Y-105410000D03*
X152400000Y-104140000D03*
X153670000Y-105410000D03*
X153670000Y-104140000D03*
X154940000Y-105410000D03*
X154940000Y-104140000D03*
X156210000Y-105410000D03*
X156210000Y-104140000D03*
X157480000Y-105410000D03*
X157480000Y-104140000D03*
X158750000Y-105410000D03*
X158750000Y-104140000D03*
X160020000Y-105410000D03*
X160020000Y-104140000D03*
D12*
X125641100Y-93573600D03*
D13*
X128181100Y-93573600D03*
X125641100Y-96113600D03*
X128181100Y-96113600D03*
X125641100Y-98653600D03*
X128181100Y-98653600D03*
X125641100Y-101193600D03*
X128181100Y-101193600D03*
X125641100Y-103733600D03*
X128181100Y-103733600D03*
X125641100Y-106273600D03*
X128181100Y-106273600D03*
X125641100Y-108813600D03*
X128181100Y-108813600D03*
X125641100Y-111353600D03*
X128181100Y-111353600D03*
X125641100Y-113893600D03*
X128181100Y-113893600D03*
X125641100Y-116433600D03*
X128181100Y-116433600D03*
X168821100Y-93573600D03*
X171361100Y-93573600D03*
X168821100Y-96113600D03*
X171361100Y-96113600D03*
X168821100Y-98653600D03*
X171361100Y-98653600D03*
X168821100Y-101193600D03*
X171361100Y-101193600D03*
X168821100Y-103733600D03*
X171361100Y-103733600D03*
X168821100Y-106273600D03*
X171361100Y-106273600D03*
X168821100Y-108813600D03*
X171361100Y-108813600D03*
X168821100Y-111353600D03*
X171361100Y-111353600D03*
X168821100Y-113893600D03*
X171361100Y-113893600D03*
X168821100Y-116433600D03*
X171361100Y-116433600D03*
M02*
