G04 #@! TF.FileFunction,Copper,L1,Top,Signal*
%FSLAX46Y46*%
G04 Gerber Fmt 4.6, Leading zero omitted, Abs format (unit mm)*
G04 Created by KiCad (PCBNEW 4.0.2-stable) date Thu May 19 22:00:52 2016*
%MOMM*%
G01*
G04 APERTURE LIST*
%ADD10C,0.100000*%
%ADD11C,0.925000*%
%ADD12R,1.727200X1.727200*%
%ADD13O,1.727200X1.727200*%
%ADD14C,0.600000*%
%ADD15C,0.250000*%
G04 APERTURE END LIST*
D10*
D11*
X135890000Y-105410000D03*
X135890000Y-104140000D03*
X137160000Y-105410000D03*
X137160000Y-104140000D03*
X138430000Y-105410000D03*
X138430000Y-104140000D03*
X139700000Y-105410000D03*
X139700000Y-104140000D03*
X140970000Y-105410000D03*
X140970000Y-104140000D03*
X142240000Y-105410000D03*
X142240000Y-104140000D03*
X143510000Y-105410000D03*
X143510000Y-104140000D03*
X144780000Y-105410000D03*
X144780000Y-104140000D03*
X146050000Y-105410000D03*
X146050000Y-104140000D03*
X147320000Y-105410000D03*
X147320000Y-104140000D03*
X148590000Y-105410000D03*
X148590000Y-104140000D03*
X149860000Y-105410000D03*
X149860000Y-104140000D03*
X151130000Y-105410000D03*
X151130000Y-104140000D03*
X152400000Y-105410000D03*
X152400000Y-104140000D03*
X153670000Y-105410000D03*
X153670000Y-104140000D03*
X154940000Y-105410000D03*
X154940000Y-104140000D03*
X156210000Y-105410000D03*
X156210000Y-104140000D03*
X157480000Y-105410000D03*
X157480000Y-104140000D03*
X158750000Y-105410000D03*
X158750000Y-104140000D03*
X160020000Y-105410000D03*
X160020000Y-104140000D03*
D12*
X125641100Y-93573600D03*
D13*
X128181100Y-93573600D03*
X125641100Y-96113600D03*
X128181100Y-96113600D03*
X125641100Y-98653600D03*
X128181100Y-98653600D03*
X125641100Y-101193600D03*
X128181100Y-101193600D03*
X125641100Y-103733600D03*
X128181100Y-103733600D03*
X125641100Y-106273600D03*
X128181100Y-106273600D03*
X125641100Y-108813600D03*
X128181100Y-108813600D03*
X125641100Y-111353600D03*
X128181100Y-111353600D03*
X125641100Y-113893600D03*
X128181100Y-113893600D03*
X125641100Y-116433600D03*
X128181100Y-116433600D03*
X168821100Y-93573600D03*
X171361100Y-93573600D03*
X168821100Y-96113600D03*
X171361100Y-96113600D03*
X168821100Y-98653600D03*
X171361100Y-98653600D03*
X168821100Y-101193600D03*
X171361100Y-101193600D03*
X168821100Y-103733600D03*
X171361100Y-103733600D03*
X168821100Y-106273600D03*
X171361100Y-106273600D03*
X168821100Y-108813600D03*
X171361100Y-108813600D03*
X168821100Y-111353600D03*
X171361100Y-111353600D03*
X168821100Y-113893600D03*
X171361100Y-113893600D03*
X168821100Y-116433600D03*
X171361100Y-116433600D03*
D14*
X135102499Y-92735501D03*
X136017000Y-94996000D03*
X130810000Y-99822000D03*
X130819990Y-106807000D03*
X137160000Y-106680000D03*
X126944001Y-97464999D03*
X137287000Y-97799990D03*
X130302000Y-107442000D03*
X138430000Y-107188000D03*
X129667000Y-105156000D03*
X129794000Y-98425000D03*
X138430000Y-98434990D03*
X139700000Y-107950000D03*
X131445000Y-110109000D03*
X131454990Y-102870000D03*
X139700000Y-102860010D03*
X141097000Y-115570000D03*
X133985000Y-117475000D03*
X133985000Y-102235000D03*
X140970000Y-102235000D03*
X142240000Y-117221000D03*
X165100000Y-112395000D03*
X165100000Y-93980000D03*
X142240000Y-93980000D03*
X143510000Y-110109000D03*
X163195000Y-107950000D03*
X163195000Y-101600000D03*
X143510000Y-102235000D03*
X166751000Y-108331000D03*
X144780000Y-107569000D03*
X144780000Y-102870000D03*
X165695010Y-100417010D03*
X165695010Y-110871000D03*
X146050000Y-110871000D03*
X146050000Y-110871000D03*
X146050000Y-97790000D03*
X167132000Y-96869989D03*
X161036000Y-96869989D03*
X161036000Y-111379000D03*
X147193000Y-111379000D03*
X147320000Y-95250000D03*
X148590000Y-107696000D03*
X157480000Y-107696000D03*
X157480000Y-113919000D03*
X172339000Y-115189000D03*
X166370000Y-92583000D03*
X148590000Y-95885000D03*
X129921000Y-96774000D03*
X161671000Y-95885000D03*
X161798000Y-114681000D03*
X149860000Y-114681000D03*
X149860000Y-100965000D03*
X134580010Y-105029000D03*
X134874000Y-112522000D03*
X151130000Y-112522000D03*
X132080000Y-106045000D03*
X132080000Y-100330000D03*
X151130000Y-100330000D03*
X129794000Y-113284000D03*
X152400000Y-113284000D03*
X132715000Y-111125000D03*
X132715000Y-99695000D03*
X152400000Y-99695000D03*
X153568400Y-113893600D03*
X133350000Y-116205000D03*
X133350000Y-99060000D03*
X153670000Y-99060000D03*
X154940000Y-116713000D03*
X163830000Y-113665000D03*
X163830000Y-100965000D03*
X154940000Y-101469979D03*
X156337000Y-112014000D03*
X164465000Y-109220000D03*
X164465000Y-100330000D03*
X156210000Y-100330000D03*
X157480000Y-106807000D03*
X157480000Y-103170009D03*
X162306000Y-99568000D03*
X162306000Y-109474000D03*
X158750000Y-109474000D03*
X158750000Y-98425000D03*
X166497000Y-95758000D03*
X166624000Y-105410000D03*
X160020000Y-93345000D03*
D15*
X135890000Y-105410000D02*
X135102499Y-104622499D01*
X135102499Y-104622499D02*
X135102499Y-92735501D01*
X135890000Y-95123000D02*
X136017000Y-94996000D01*
X135890000Y-104140000D02*
X135890000Y-95123000D01*
X130810000Y-102570008D02*
X130810000Y-99822000D01*
X130819990Y-106807000D02*
X130819990Y-102579998D01*
X130819990Y-102579998D02*
X130810000Y-102570008D01*
X137160000Y-106426000D02*
X137160000Y-106680000D01*
X137160000Y-105410000D02*
X137160000Y-106426000D01*
X126944001Y-97464999D02*
X126829701Y-97579299D01*
X126829701Y-97579299D02*
X126829701Y-100004999D01*
X126829701Y-100004999D02*
X126504699Y-100330001D01*
X126504699Y-100330001D02*
X125641100Y-101193600D01*
X137287000Y-103358927D02*
X137287000Y-97799990D01*
X137160000Y-104140000D02*
X137160000Y-103485927D01*
X137160000Y-103485927D02*
X137287000Y-103358927D01*
X130002001Y-105746001D02*
X129957601Y-105746001D01*
X129373231Y-105751001D02*
X128514431Y-104892201D01*
X128514431Y-104892201D02*
X126799701Y-104892201D01*
X129957601Y-105746001D02*
X129952601Y-105751001D01*
X129952601Y-105751001D02*
X129373231Y-105751001D01*
X126799701Y-104892201D02*
X126504699Y-104597199D01*
X126504699Y-104597199D02*
X125641100Y-103733600D01*
X130302000Y-107442000D02*
X130002001Y-107142001D01*
X130002001Y-107142001D02*
X130002001Y-105746001D01*
X138430000Y-105410000D02*
X138430000Y-107188000D01*
X129794000Y-105029000D02*
X129667000Y-105156000D01*
X129794000Y-98849264D02*
X129794000Y-105029000D01*
X129794000Y-98425000D02*
X129794000Y-98849264D01*
X138430000Y-103485927D02*
X138430000Y-98434990D01*
X138430000Y-104140000D02*
X138430000Y-103485927D01*
X139700000Y-105410000D02*
X139700000Y-107950000D01*
X131445000Y-106354982D02*
X131445000Y-110109000D01*
X131454990Y-102870000D02*
X131454990Y-106344992D01*
X131454990Y-106344992D02*
X131445000Y-106354982D01*
X139700000Y-104140000D02*
X139700000Y-102860010D01*
X140970000Y-115443000D02*
X141097000Y-115570000D01*
X140970000Y-105410000D02*
X140970000Y-115443000D01*
X133985000Y-102235000D02*
X133985000Y-117475000D01*
X140970000Y-104140000D02*
X140970000Y-102235000D01*
X142240000Y-115307602D02*
X142240000Y-117221000D01*
X142240000Y-105410000D02*
X142240000Y-115307602D01*
X165100000Y-93980000D02*
X165100000Y-112395000D01*
X142240000Y-102235000D02*
X142240000Y-93980000D01*
X142240000Y-104140000D02*
X142240000Y-102235000D01*
X143510000Y-109601000D02*
X143510000Y-110109000D01*
X143510000Y-109093000D02*
X143510000Y-109601000D01*
X143510000Y-105410000D02*
X143510000Y-109093000D01*
X163195000Y-107315000D02*
X163195000Y-107950000D01*
X163195000Y-101600000D02*
X163195000Y-107315000D01*
X143510000Y-104140000D02*
X143510000Y-102235000D01*
X166751000Y-108331000D02*
X167427001Y-107654999D01*
X167427001Y-107654999D02*
X169979701Y-107654999D01*
X169979701Y-107654999D02*
X170497501Y-107137199D01*
X170497501Y-107137199D02*
X171361100Y-106273600D01*
X144780000Y-106064073D02*
X144780000Y-107569000D01*
X144780000Y-105410000D02*
X144780000Y-106064073D01*
X144780000Y-104140000D02*
X144780000Y-102870000D01*
X165695010Y-101949989D02*
X165695010Y-100417010D01*
X165695010Y-102830010D02*
X165695010Y-101949989D01*
X165695010Y-102020990D02*
X165695010Y-101949989D01*
X165695010Y-102830010D02*
X165695010Y-110871000D01*
X146050000Y-110617000D02*
X146050000Y-110871000D01*
X146050000Y-109347000D02*
X146050000Y-110617000D01*
X146050000Y-105410000D02*
X146050000Y-109347000D01*
X146050000Y-104140000D02*
X146050000Y-97790000D01*
X167132000Y-96869989D02*
X167671011Y-97409000D01*
X167671011Y-97409000D02*
X170065700Y-97409000D01*
X170497501Y-96977199D02*
X171361100Y-96113600D01*
X170065700Y-97409000D02*
X170497501Y-96977199D01*
X161036000Y-102878398D02*
X161036000Y-96869989D01*
X161036000Y-111379000D02*
X161036000Y-102878398D01*
X147320000Y-106064073D02*
X147320000Y-111252000D01*
X147320000Y-111252000D02*
X147193000Y-111379000D01*
X147320000Y-105410000D02*
X147320000Y-106064073D01*
X147320000Y-104140000D02*
X147320000Y-95250000D01*
X148590000Y-107696000D02*
X148590000Y-105410000D01*
X157480000Y-113919000D02*
X157480000Y-107696000D01*
X172519701Y-115135299D02*
X172466000Y-115189000D01*
X172466000Y-115189000D02*
X172339000Y-115189000D01*
X166370000Y-92583000D02*
X168096970Y-92583000D01*
X168096970Y-92583000D02*
X168264971Y-92414999D01*
X168264971Y-92414999D02*
X171917229Y-92414999D01*
X171917229Y-92414999D02*
X172519701Y-93017471D01*
X172519701Y-93017471D02*
X172519701Y-115135299D01*
X148590000Y-104140000D02*
X148590000Y-95885000D01*
X129921000Y-96774000D02*
X128181100Y-98513900D01*
X128181100Y-98513900D02*
X128181100Y-98653600D01*
X161671000Y-111133398D02*
X161671000Y-95885000D01*
X161798000Y-114681000D02*
X161798000Y-111260398D01*
X161798000Y-111260398D02*
X161671000Y-111133398D01*
X149860000Y-106064073D02*
X149860000Y-114681000D01*
X149860000Y-105410000D02*
X149860000Y-106064073D01*
X149860000Y-104140000D02*
X149860000Y-100965000D01*
X134874000Y-105410000D02*
X134580010Y-105116010D01*
X134580010Y-105116010D02*
X134580010Y-105029000D01*
X134874000Y-112522000D02*
X134874000Y-105410000D01*
X151130000Y-106064073D02*
X151130000Y-112522000D01*
X151130000Y-105410000D02*
X151130000Y-106064073D01*
X132080000Y-100330000D02*
X132080000Y-106045000D01*
X151130000Y-104140000D02*
X151130000Y-100330000D01*
X129413000Y-108839000D02*
X129413000Y-108824186D01*
X129413000Y-108824186D02*
X129402414Y-108813600D01*
X129402414Y-108813600D02*
X128181100Y-108813600D01*
X129794000Y-109220000D02*
X129413000Y-108839000D01*
X129794000Y-113284000D02*
X129794000Y-109220000D01*
X152400000Y-105410000D02*
X152400000Y-113284000D01*
X132715000Y-99695000D02*
X132715000Y-111125000D01*
X152400000Y-100674998D02*
X152400000Y-99695000D01*
X152400000Y-104140000D02*
X152400000Y-100674998D01*
X153670000Y-105410000D02*
X153670000Y-113792000D01*
X153670000Y-113792000D02*
X153568400Y-113893600D01*
X133350000Y-99060000D02*
X133350000Y-116205000D01*
X153670000Y-104140000D02*
X153670000Y-99060000D01*
X154940000Y-105410000D02*
X154940000Y-116713000D01*
X163830000Y-100965000D02*
X163830000Y-113665000D01*
X154940000Y-104140000D02*
X154940000Y-101469979D01*
X154940000Y-101600000D02*
X154940000Y-101469979D01*
X156337000Y-106191073D02*
X156337000Y-112014000D01*
X156210000Y-105410000D02*
X156210000Y-106064073D01*
X156210000Y-106064073D02*
X156337000Y-106191073D01*
X164465000Y-100330000D02*
X164465000Y-109220000D01*
X156210000Y-104140000D02*
X156210000Y-100330000D01*
X157480000Y-106064073D02*
X157480000Y-106807000D01*
X157480000Y-105410000D02*
X157480000Y-106064073D01*
X157480000Y-103485927D02*
X157480000Y-103170009D01*
X157480000Y-104140000D02*
X157480000Y-103485927D01*
X162306000Y-101608398D02*
X162306000Y-99568000D01*
X162306000Y-109474000D02*
X162306000Y-101608398D01*
X158750000Y-106064073D02*
X158750000Y-109474000D01*
X158750000Y-105410000D02*
X158750000Y-106064073D01*
X158750000Y-104140000D02*
X158750000Y-98425000D01*
X166497000Y-104858736D02*
X166497000Y-95758000D01*
X166624000Y-105410000D02*
X166624000Y-104985736D01*
X166624000Y-104985736D02*
X166497000Y-104858736D01*
X160020000Y-104140000D02*
X160020000Y-93345000D01*
M02*
