M48
; DRILL file {KiCad 5.99.0-unknown-3f6811f413~130~ubuntu20.10.1} date Mon Sep  6 21:05:43 2021
; FORMAT={-:-/ absolute / inch / decimal}
; #@! TF.CreationDate,2021-09-06T21:05:43-07:00
; #@! TF.GenerationSoftware,Kicad,Pcbnew,5.99.0-unknown-3f6811f413~130~ubuntu20.10.1
; #@! TF.FileFunction,Plated,1,4,PTH
FMAT,2
INCH
; #@! TA.AperFunction,Plated,PTH,ViaDrill
T1C0.0100
; #@! TA.AperFunction,Plated,PTH,ViaDrill
T2C0.0157
; #@! TA.AperFunction,Plated,PTH,ComponentDrill
T3C0.0236
; #@! TA.AperFunction,Plated,PTH,ComponentDrill
T4C0.0394
; #@! TA.AperFunction,Plated,PTH,ComponentDrill
T5C0.0433
%
G90
G05
T1
X3.3366Y-4.4094
X3.3563Y-4.7146
X3.435Y-4.4094
X3.4449Y-4.7736
X3.4531Y-4.5886
X3.4646Y-4.6752
X3.4744Y-4.6358
X3.5039Y-4.6457
X3.5039Y-4.7638
X3.5095Y-4.7976
X3.71Y-4.7434
X3.7106Y-4.4488
X3.7697Y-4.8031
X3.8189Y-4.685
X3.8189Y-4.7146
X3.8189Y-4.7441
X3.8583Y-4.5866
X3.8583Y-4.685
X3.8583Y-4.7146
X3.8583Y-4.7441
X3.9961Y-4.6654
X3.9961Y-4.7441
T2
X3.189Y-4.311
X3.2776Y-4.6063
X3.2776Y-4.7835
X3.4252Y-4.9311
X3.451Y-4.5435
X3.4547Y-4.813
X3.4843Y-4.4488
X3.5335Y-4.9016
X3.563Y-4.9409
X3.7402Y-4.9409
X3.7697Y-4.9016
X3.7795Y-4.3504
X3.8583Y-4.3307
X4.0945Y-4.7736
X4.1437Y-4.6752
X4.2323Y-4.7638
X4.252Y-4.3012
X4.3012Y-4.9016
X4.3799Y-4.9016
X4.3898Y-4.311
X4.3898Y-4.7638
T4
X3.876Y-4.9114
X3.976Y-4.9114
X4.076Y-4.9114
X4.176Y-4.9114
T5
X4.311Y-4.5358
X4.311Y-4.6358
T3
G00X3.2161Y-4.515
M15
G01X3.1925Y-4.515
M16
G05
G00X3.2161Y-4.8551
M15
G01X3.1925Y-4.8551
M16
G05
G00X3.3906Y-4.515
M15
G01X3.3472Y-4.515
M16
G05
G00X3.3906Y-4.8551
M15
G01X3.3472Y-4.8551
M16
G05
T0
M30
