%TF.GenerationSoftware,KiCad,Pcbnew,5.99.0-unknown-3f6811f413~130~ubuntu20.10.1*%
%TF.CreationDate,2021-09-06T20:59:44-07:00*%
%TF.ProjectId,usb_pd,7573625f-7064-42e6-9b69-6361645f7063,rev?*%
%TF.SameCoordinates,Original*%
%TF.FileFunction,Copper,L3,Inr*%
%TF.FilePolarity,Positive*%
%FSLAX46Y46*%
G04 Gerber Fmt 4.6, Leading zero omitted, Abs format (unit mm)*
G04 Created by KiCad (PCBNEW 5.99.0-unknown-3f6811f413~130~ubuntu20.10.1) date 2021-09-06 20:59:44*
%MOMM*%
%LPD*%
G01*
G04 APERTURE LIST*
%TA.AperFunction,ComponentPad*%
%ADD10R,1.700000X1.700000*%
%TD*%
%TA.AperFunction,ComponentPad*%
%ADD11O,1.700000X1.700000*%
%TD*%
%TA.AperFunction,ComponentPad*%
%ADD12R,2.200000X2.200000*%
%TD*%
%TA.AperFunction,ComponentPad*%
%ADD13C,2.200000*%
%TD*%
%TA.AperFunction,ComponentPad*%
%ADD14O,2.100000X1.000000*%
%TD*%
%TA.AperFunction,ComponentPad*%
%ADD15O,1.600000X1.000000*%
%TD*%
%TA.AperFunction,ViaPad*%
%ADD16C,0.508000*%
%TD*%
%TA.AperFunction,ViaPad*%
%ADD17C,0.800000*%
%TD*%
%TA.AperFunction,Conductor*%
%ADD18C,0.200000*%
%TD*%
%TA.AperFunction,Conductor*%
%ADD19C,0.500000*%
%TD*%
G04 APERTURE END LIST*
D10*
%TO.N,GND*%
%TO.C,J102*%
X98450000Y-124750000D03*
D11*
%TO.N,/PD_SDA*%
X100990000Y-124750000D03*
%TO.N,/PD_SCL*%
X103530000Y-124750000D03*
%TO.N,GND*%
X106070000Y-124750000D03*
%TD*%
D12*
%TO.N,GND*%
%TO.C,J103*%
X109500000Y-117750000D03*
D13*
%TO.N,VBUS*%
X109500000Y-115210000D03*
%TD*%
D14*
%TO.N,Net-(C101-Pad1)*%
%TO.C,J101*%
X85570000Y-123320000D03*
D15*
X81390000Y-123320000D03*
D14*
X85570000Y-114680000D03*
D15*
X81390000Y-114680000D03*
%TD*%
D16*
%TO.N,GND*%
X84750000Y-112000000D03*
X87250000Y-112000000D03*
X94250000Y-113000000D03*
X98000000Y-120500000D03*
X97000000Y-120500000D03*
X97000000Y-119750000D03*
X98000000Y-119750000D03*
X98000000Y-119000000D03*
X97000000Y-119000000D03*
X98000000Y-116500000D03*
X101500000Y-120500000D03*
X101500000Y-118500000D03*
D17*
X98000000Y-110000000D03*
X96000000Y-110500000D03*
X108000000Y-109250000D03*
X109250000Y-124500000D03*
X111250000Y-124500000D03*
X89750000Y-124500000D03*
X95750000Y-124500000D03*
X95000000Y-125500000D03*
X90500000Y-125500000D03*
D16*
%TO.N,Net-(D104-Pad1)*%
X95750000Y-122000000D03*
X88250000Y-117750000D03*
X89141384Y-121858616D03*
X94233616Y-120483616D03*
%TO.N,GND*%
X89000000Y-121000000D03*
X89000000Y-118000000D03*
%TO.N,Net-(FB101-Pad1)*%
X87710000Y-116550000D03*
X87500000Y-121250000D03*
%TO.N,Net-(D101-Pad1)*%
X88000000Y-118750000D03*
X85250000Y-119750000D03*
D17*
%TO.N,GND*%
X87654312Y-115404312D03*
X87750000Y-122250000D03*
%TD*%
D18*
%TO.N,Net-(D104-Pad1)*%
X95750000Y-122000000D02*
X94233616Y-120483616D01*
X88250000Y-118032784D02*
X88250000Y-117750000D01*
X88553511Y-118336295D02*
X88250000Y-118032784D01*
X88553511Y-119196489D02*
X88553511Y-118336295D01*
X88446489Y-119303511D02*
X88553511Y-119196489D01*
X88446489Y-121696489D02*
X88446489Y-119303511D01*
X88608616Y-121858616D02*
X88446489Y-121696489D01*
X89141384Y-121858616D02*
X88608616Y-121858616D01*
D19*
%TO.N,Net-(FB101-Pad1)*%
X87500000Y-121250000D02*
X87500000Y-120250000D01*
X87500000Y-120250000D02*
X87296489Y-120046489D01*
X87296489Y-120046489D02*
X87296489Y-116963511D01*
X87296489Y-116963511D02*
X87710000Y-116550000D01*
%TD*%
M02*
