%TF.GenerationSoftware,KiCad,Pcbnew,5.99.0-unknown-3f6811f413~130~ubuntu20.10.1*%
%TF.CreationDate,2021-09-06T20:59:44-07:00*%
%TF.ProjectId,usb_pd,7573625f-7064-42e6-9b69-6361645f7063,rev?*%
%TF.SameCoordinates,Original*%
%TF.FileFunction,Copper,L1,Top*%
%TF.FilePolarity,Positive*%
%FSLAX46Y46*%
G04 Gerber Fmt 4.6, Leading zero omitted, Abs format (unit mm)*
G04 Created by KiCad (PCBNEW 5.99.0-unknown-3f6811f413~130~ubuntu20.10.1) date 2021-09-06 20:59:44*
%MOMM*%
%LPD*%
G01*
G04 APERTURE LIST*
G04 Aperture macros list*
%AMRoundRect*
0 Rectangle with rounded corners*
0 $1 Rounding radius*
0 $2 $3 $4 $5 $6 $7 $8 $9 X,Y pos of 4 corners*
0 Add a 4 corners polygon primitive as box body*
4,1,4,$2,$3,$4,$5,$6,$7,$8,$9,$2,$3,0*
0 Add four circle primitives for the rounded corners*
1,1,$1+$1,$2,$3*
1,1,$1+$1,$4,$5*
1,1,$1+$1,$6,$7*
1,1,$1+$1,$8,$9*
0 Add four rect primitives between the rounded corners*
20,1,$1+$1,$2,$3,$4,$5,0*
20,1,$1+$1,$4,$5,$6,$7,0*
20,1,$1+$1,$6,$7,$8,$9,0*
20,1,$1+$1,$8,$9,$2,$3,0*%
G04 Aperture macros list end*
%TA.AperFunction,SMDPad,CuDef*%
%ADD10R,3.400000X1.800000*%
%TD*%
%TA.AperFunction,ComponentPad*%
%ADD11R,1.700000X1.700000*%
%TD*%
%TA.AperFunction,ComponentPad*%
%ADD12O,1.700000X1.700000*%
%TD*%
%TA.AperFunction,SMDPad,CuDef*%
%ADD13R,1.100000X1.100000*%
%TD*%
%TA.AperFunction,SMDPad,CuDef*%
%ADD14RoundRect,0.140000X-0.140000X-0.170000X0.140000X-0.170000X0.140000X0.170000X-0.140000X0.170000X0*%
%TD*%
%TA.AperFunction,SMDPad,CuDef*%
%ADD15RoundRect,0.135000X-0.135000X-0.185000X0.135000X-0.185000X0.135000X0.185000X-0.135000X0.185000X0*%
%TD*%
%TA.AperFunction,SMDPad,CuDef*%
%ADD16RoundRect,0.135000X-0.185000X0.135000X-0.185000X-0.135000X0.185000X-0.135000X0.185000X0.135000X0*%
%TD*%
%TA.AperFunction,SMDPad,CuDef*%
%ADD17RoundRect,0.140000X-0.170000X0.140000X-0.170000X-0.140000X0.170000X-0.140000X0.170000X0.140000X0*%
%TD*%
%TA.AperFunction,ComponentPad*%
%ADD18R,2.200000X2.200000*%
%TD*%
%TA.AperFunction,ComponentPad*%
%ADD19C,2.200000*%
%TD*%
%TA.AperFunction,SMDPad,CuDef*%
%ADD20RoundRect,0.135000X0.135000X0.185000X-0.135000X0.185000X-0.135000X-0.185000X0.135000X-0.185000X0*%
%TD*%
%TA.AperFunction,SMDPad,CuDef*%
%ADD21RoundRect,0.135000X0.185000X-0.135000X0.185000X0.135000X-0.185000X0.135000X-0.185000X-0.135000X0*%
%TD*%
%TA.AperFunction,SMDPad,CuDef*%
%ADD22R,1.450000X0.600000*%
%TD*%
%TA.AperFunction,SMDPad,CuDef*%
%ADD23R,1.450000X0.300000*%
%TD*%
%TA.AperFunction,ComponentPad*%
%ADD24O,2.100000X1.000000*%
%TD*%
%TA.AperFunction,ComponentPad*%
%ADD25O,1.600000X1.000000*%
%TD*%
%TA.AperFunction,SMDPad,CuDef*%
%ADD26RoundRect,0.140000X0.170000X-0.140000X0.170000X0.140000X-0.170000X0.140000X-0.170000X-0.140000X0*%
%TD*%
%TA.AperFunction,SMDPad,CuDef*%
%ADD27RoundRect,0.147500X0.172500X-0.147500X0.172500X0.147500X-0.172500X0.147500X-0.172500X-0.147500X0*%
%TD*%
%TA.AperFunction,SMDPad,CuDef*%
%ADD28RoundRect,0.218750X-0.218750X-0.256250X0.218750X-0.256250X0.218750X0.256250X-0.218750X0.256250X0*%
%TD*%
%TA.AperFunction,SMDPad,CuDef*%
%ADD29RoundRect,0.218750X-0.256250X0.218750X-0.256250X-0.218750X0.256250X-0.218750X0.256250X0.218750X0*%
%TD*%
%TA.AperFunction,SMDPad,CuDef*%
%ADD30RoundRect,0.062500X-0.362500X-0.062500X0.362500X-0.062500X0.362500X0.062500X-0.362500X0.062500X0*%
%TD*%
%TA.AperFunction,SMDPad,CuDef*%
%ADD31R,1.650000X2.380000*%
%TD*%
%TA.AperFunction,SMDPad,CuDef*%
%ADD32RoundRect,0.150000X0.150000X-0.825000X0.150000X0.825000X-0.150000X0.825000X-0.150000X-0.825000X0*%
%TD*%
%TA.AperFunction,SMDPad,CuDef*%
%ADD33RoundRect,0.147500X-0.172500X0.147500X-0.172500X-0.147500X0.172500X-0.147500X0.172500X0.147500X0*%
%TD*%
%TA.AperFunction,ViaPad*%
%ADD34C,0.508000*%
%TD*%
%TA.AperFunction,ViaPad*%
%ADD35C,0.800000*%
%TD*%
%TA.AperFunction,Conductor*%
%ADD36C,0.500000*%
%TD*%
%TA.AperFunction,Conductor*%
%ADD37C,0.200000*%
%TD*%
%TA.AperFunction,Conductor*%
%ADD38C,1.000000*%
%TD*%
G04 APERTURE END LIST*
D10*
%TO.P,TP102,1,1*%
%TO.N,GND*%
X110250000Y-124500000D03*
%TD*%
%TO.P,TP101,1,1*%
%TO.N,VBUS*%
X91250000Y-109750000D03*
%TD*%
D11*
%TO.P,J102,1,Pin_1*%
%TO.N,GND*%
X98450000Y-124750000D03*
D12*
%TO.P,J102,2,Pin_2*%
%TO.N,/PD_SDA*%
X100990000Y-124750000D03*
%TO.P,J102,3,Pin_3*%
%TO.N,/PD_SCL*%
X103530000Y-124750000D03*
%TO.P,J102,4,Pin_4*%
%TO.N,GND*%
X106070000Y-124750000D03*
%TD*%
D13*
%TO.P,D107,2,A*%
%TO.N,GND*%
X107000000Y-109350000D03*
%TO.P,D107,1,K*%
%TO.N,VBUS*%
X107000000Y-112150000D03*
%TD*%
D14*
%TO.P,C103,1*%
%TO.N,Net-(C103-Pad1)*%
X97020000Y-117000000D03*
%TO.P,C103,2*%
%TO.N,GND*%
X97980000Y-117000000D03*
%TD*%
D15*
%TO.P,R109,1*%
%TO.N,Net-(R109-Pad1)*%
X100490000Y-120000000D03*
%TO.P,R109,2*%
%TO.N,GND*%
X101510000Y-120000000D03*
%TD*%
D13*
%TO.P,D106,1,K*%
%TO.N,Net-(C102-Pad1)*%
X96000000Y-114400000D03*
%TO.P,D106,2,A*%
%TO.N,GND*%
X96000000Y-111600000D03*
%TD*%
D16*
%TO.P,R103,1*%
%TO.N,Net-(D104-Pad1)*%
X95750000Y-122740000D03*
%TO.P,R103,2*%
%TO.N,GND*%
X95750000Y-123760000D03*
%TD*%
D17*
%TO.P,C104,2*%
%TO.N,Net-(C104-Pad2)*%
X105000000Y-117730000D03*
%TO.P,C104,1*%
%TO.N,VBUS*%
X105000000Y-116770000D03*
%TD*%
D15*
%TO.P,R108,1*%
%TO.N,Net-(R108-Pad1)*%
X100490000Y-119000000D03*
%TO.P,R108,2*%
%TO.N,GND*%
X101510000Y-119000000D03*
%TD*%
D18*
%TO.P,J103,1,Pin_1*%
%TO.N,GND*%
X109500000Y-117750000D03*
D19*
%TO.P,J103,2,Pin_2*%
%TO.N,VBUS*%
X109500000Y-115210000D03*
%TD*%
D20*
%TO.P,R105,2*%
%TO.N,Net-(D101-Pad1)*%
X90740000Y-119000000D03*
%TO.P,R105,1*%
%TO.N,Net-(R105-Pad1)*%
X91760000Y-119000000D03*
%TD*%
D16*
%TO.P,R112,1*%
%TO.N,Net-(Q101-Pad4)*%
X104000000Y-116720000D03*
%TO.P,R112,2*%
%TO.N,Net-(C104-Pad2)*%
X104000000Y-117740000D03*
%TD*%
D21*
%TO.P,R101,2*%
%TO.N,GND*%
X85500000Y-111990000D03*
%TO.P,R101,1*%
%TO.N,Net-(C101-Pad1)*%
X85500000Y-113010000D03*
%TD*%
D16*
%TO.P,R107,1*%
%TO.N,Net-(C102-Pad1)*%
X96000000Y-116000000D03*
%TO.P,R107,2*%
%TO.N,Net-(C103-Pad1)*%
X96000000Y-117020000D03*
%TD*%
D22*
%TO.P,J101,A1,GND*%
%TO.N,GND*%
X86485000Y-115750000D03*
%TO.P,J101,A4,VBUS*%
%TO.N,Net-(FB101-Pad1)*%
X86485000Y-116550000D03*
D23*
%TO.P,J101,A5,CC1*%
%TO.N,Net-(D104-Pad1)*%
X86485000Y-117750000D03*
%TO.P,J101,A6,D+*%
%TO.N,Net-(D101-Pad1)*%
X86485000Y-118750000D03*
%TO.P,J101,A7,D-*%
%TO.N,Net-(D102-Pad1)*%
X86485000Y-119250000D03*
%TO.P,J101,A8,SBU1*%
%TO.N,N/C*%
X86485000Y-120250000D03*
D22*
%TO.P,J101,A9,VBUS*%
%TO.N,Net-(FB101-Pad1)*%
X86485000Y-121450000D03*
%TO.P,J101,A12,GND*%
%TO.N,GND*%
X86485000Y-122250000D03*
%TO.P,J101,B1,GND*%
X86485000Y-122250000D03*
%TO.P,J101,B4,VBUS*%
%TO.N,Net-(FB101-Pad1)*%
X86485000Y-121450000D03*
D23*
%TO.P,J101,B5,CC2*%
%TO.N,Net-(D103-Pad1)*%
X86485000Y-120750000D03*
%TO.P,J101,B6,D+*%
%TO.N,Net-(D101-Pad1)*%
X86485000Y-119750000D03*
%TO.P,J101,B7,D-*%
%TO.N,Net-(D102-Pad1)*%
X86485000Y-118250000D03*
%TO.P,J101,B8,SBU2*%
%TO.N,N/C*%
X86485000Y-117250000D03*
D22*
%TO.P,J101,B9,VBUS*%
%TO.N,Net-(FB101-Pad1)*%
X86485000Y-116550000D03*
%TO.P,J101,B12,GND*%
%TO.N,GND*%
X86485000Y-115750000D03*
D24*
%TO.P,J101,S1,SHIELD*%
%TO.N,Net-(C101-Pad1)*%
X85570000Y-123320000D03*
D25*
X81390000Y-123320000D03*
D24*
X85570000Y-114680000D03*
D25*
X81390000Y-114680000D03*
%TD*%
D26*
%TO.P,C101,1*%
%TO.N,Net-(C101-Pad1)*%
X86500000Y-112980000D03*
%TO.P,C101,2*%
%TO.N,GND*%
X86500000Y-112020000D03*
%TD*%
D15*
%TO.P,R110,1*%
%TO.N,Net-(C102-Pad1)*%
X101740000Y-116730000D03*
%TO.P,R110,2*%
%TO.N,Net-(Q101-Pad4)*%
X102760000Y-116730000D03*
%TD*%
D27*
%TO.P,D101,2,A2*%
%TO.N,GND*%
X89750000Y-118015000D03*
%TO.P,D101,1,A1*%
%TO.N,Net-(D101-Pad1)*%
X89750000Y-118985000D03*
%TD*%
D28*
%TO.P,FB101,1*%
%TO.N,Net-(FB101-Pad1)*%
X91212500Y-114500000D03*
%TO.P,FB101,2*%
%TO.N,Net-(C102-Pad1)*%
X92787500Y-114500000D03*
%TD*%
D21*
%TO.P,R106,1*%
%TO.N,Net-(D105-Pad1)*%
X98000000Y-111760000D03*
%TO.P,R106,2*%
%TO.N,GND*%
X98000000Y-110740000D03*
%TD*%
D29*
%TO.P,D105,1,K*%
%TO.N,Net-(D105-Pad1)*%
X98000000Y-112925000D03*
%TO.P,D105,2,A*%
%TO.N,Net-(C102-Pad1)*%
X98000000Y-114500000D03*
%TD*%
D30*
%TO.P,U101,1,VIN*%
%TO.N,Net-(C103-Pad1)*%
X96050000Y-118750000D03*
%TO.P,U101,2,D+*%
%TO.N,Net-(R105-Pad1)*%
X96050000Y-119250000D03*
%TO.P,U101,3,D-*%
%TO.N,Net-(R104-Pad1)*%
X96050000Y-119750000D03*
%TO.P,U101,4,CC1*%
%TO.N,Net-(D104-Pad1)*%
X96050000Y-120250000D03*
%TO.P,U101,5,CC2*%
%TO.N,Net-(D103-Pad1)*%
X96050000Y-120750000D03*
%TO.P,U101,6,SDA*%
%TO.N,/PD_SDA*%
X98950000Y-120750000D03*
%TO.P,U101,7,SCL*%
%TO.N,/PD_SCL*%
X98950000Y-120250000D03*
%TO.P,U101,8,VSET*%
%TO.N,Net-(R109-Pad1)*%
X98950000Y-119750000D03*
%TO.P,U101,9,ISET*%
%TO.N,Net-(R108-Pad1)*%
X98950000Y-119250000D03*
%TO.P,U101,10,GATE*%
%TO.N,Net-(R111-Pad2)*%
X98950000Y-118750000D03*
D31*
%TO.P,U101,11,GND*%
%TO.N,GND*%
X97500000Y-119750000D03*
%TD*%
D20*
%TO.P,R111,1*%
%TO.N,Net-(Q101-Pad4)*%
X102760000Y-117730000D03*
%TO.P,R111,2*%
%TO.N,Net-(R111-Pad2)*%
X101740000Y-117730000D03*
%TD*%
%TO.P,R104,1*%
%TO.N,Net-(R104-Pad1)*%
X91760000Y-120000000D03*
%TO.P,R104,2*%
%TO.N,Net-(D102-Pad1)*%
X90740000Y-120000000D03*
%TD*%
D13*
%TO.P,D104,1,K*%
%TO.N,Net-(D104-Pad1)*%
X94000000Y-122600000D03*
%TO.P,D104,2,A*%
%TO.N,GND*%
X94000000Y-125400000D03*
%TD*%
D26*
%TO.P,C102,1*%
%TO.N,Net-(C102-Pad1)*%
X94250000Y-114480000D03*
%TO.P,C102,2*%
%TO.N,GND*%
X94250000Y-113520000D03*
%TD*%
D32*
%TO.P,Q101,8,D*%
%TO.N,VBUS*%
X100595000Y-109775000D03*
%TO.P,Q101,7,D*%
X101865000Y-109775000D03*
%TO.P,Q101,6,D*%
X103135000Y-109775000D03*
%TO.P,Q101,5,D*%
X104405000Y-109775000D03*
%TO.P,Q101,4,G*%
%TO.N,Net-(Q101-Pad4)*%
X104405000Y-114725000D03*
%TO.P,Q101,3,S*%
%TO.N,Net-(C102-Pad1)*%
X103135000Y-114725000D03*
%TO.P,Q101,2,S*%
X101865000Y-114725000D03*
%TO.P,Q101,1,S*%
X100595000Y-114725000D03*
%TD*%
D33*
%TO.P,D102,2,A2*%
%TO.N,GND*%
X89750000Y-120985000D03*
%TO.P,D102,1,A1*%
%TO.N,Net-(D102-Pad1)*%
X89750000Y-120015000D03*
%TD*%
D16*
%TO.P,R102,1*%
%TO.N,Net-(D103-Pad1)*%
X89750000Y-122740000D03*
%TO.P,R102,2*%
%TO.N,GND*%
X89750000Y-123760000D03*
%TD*%
D13*
%TO.P,D103,1,K*%
%TO.N,Net-(D103-Pad1)*%
X91500000Y-122600000D03*
%TO.P,D103,2,A*%
%TO.N,GND*%
X91500000Y-125400000D03*
%TD*%
D34*
%TO.N,GND*%
X84750000Y-112000000D03*
X87250000Y-112000000D03*
X94250000Y-113000000D03*
X98000000Y-120500000D03*
X97000000Y-120500000D03*
X97000000Y-119750000D03*
X98000000Y-119750000D03*
X98000000Y-119000000D03*
X97000000Y-119000000D03*
X98000000Y-116500000D03*
X101500000Y-120500000D03*
X101500000Y-118500000D03*
D35*
X98000000Y-110000000D03*
X96000000Y-110500000D03*
X108000000Y-109250000D03*
X109250000Y-124500000D03*
X111250000Y-124500000D03*
X89750000Y-124500000D03*
X95750000Y-124500000D03*
X95000000Y-125500000D03*
X90500000Y-125500000D03*
D34*
%TO.N,Net-(D104-Pad1)*%
X95750000Y-122000000D03*
X88250000Y-117750000D03*
X89141384Y-121858616D03*
X94233616Y-120483616D03*
%TO.N,GND*%
X89000000Y-121000000D03*
X89000000Y-118000000D03*
%TO.N,Net-(FB101-Pad1)*%
X87710000Y-116550000D03*
X87500000Y-121250000D03*
%TO.N,Net-(D101-Pad1)*%
X88000000Y-118750000D03*
X85250000Y-119750000D03*
D35*
%TO.N,GND*%
X87654312Y-115404312D03*
X87750000Y-122250000D03*
%TD*%
D36*
%TO.N,VBUS*%
X91250000Y-109750000D02*
X91250000Y-109250000D01*
%TO.N,GND*%
X84760000Y-111990000D02*
X84750000Y-112000000D01*
X85500000Y-111990000D02*
X84760000Y-111990000D01*
X87230000Y-112020000D02*
X87250000Y-112000000D01*
X86500000Y-112020000D02*
X87230000Y-112020000D01*
%TO.N,Net-(C102-Pad1)*%
X101740000Y-116730000D02*
X101740000Y-114850000D01*
X101740000Y-114850000D02*
X101865000Y-114725000D01*
%TO.N,VBUS*%
X105000000Y-116770000D02*
X105980000Y-116770000D01*
X105980000Y-116770000D02*
X107540000Y-115210000D01*
X107540000Y-115210000D02*
X109500000Y-115210000D01*
%TO.N,GND*%
X94250000Y-113520000D02*
X94250000Y-113000000D01*
%TO.N,Net-(D105-Pad1)*%
X98000000Y-112925000D02*
X98000000Y-111760000D01*
D37*
%TO.N,Net-(C104-Pad2)*%
X104000000Y-117740000D02*
X104990000Y-117740000D01*
X104990000Y-117740000D02*
X105000000Y-117730000D01*
%TO.N,Net-(Q101-Pad4)*%
X104405000Y-114725000D02*
X104405000Y-115845000D01*
X104405000Y-115845000D02*
X104000000Y-116250000D01*
X104000000Y-116250000D02*
X104000000Y-116720000D01*
X102760000Y-116730000D02*
X103990000Y-116730000D01*
X103990000Y-116730000D02*
X104000000Y-116720000D01*
X102760000Y-117730000D02*
X102760000Y-116730000D01*
%TO.N,Net-(R111-Pad2)*%
X98950000Y-118750000D02*
X99500000Y-118750000D01*
X99500000Y-118750000D02*
X100520000Y-117730000D01*
X100520000Y-117730000D02*
X101740000Y-117730000D01*
D36*
%TO.N,Net-(C103-Pad1)*%
X97020000Y-117000000D02*
X96020000Y-117000000D01*
X96020000Y-117000000D02*
X96000000Y-117020000D01*
%TO.N,GND*%
X97980000Y-116520000D02*
X98000000Y-116500000D01*
X97980000Y-117000000D02*
X97980000Y-116520000D01*
%TO.N,Net-(C102-Pad1)*%
X96000000Y-116000000D02*
X96000000Y-114400000D01*
D37*
%TO.N,Net-(C103-Pad1)*%
X96050000Y-118750000D02*
X96050000Y-117070000D01*
X96050000Y-117070000D02*
X96000000Y-117020000D01*
X97000000Y-117020000D02*
X97020000Y-117000000D01*
%TO.N,GND*%
X101510000Y-120490000D02*
X101500000Y-120500000D01*
X101510000Y-120000000D02*
X101510000Y-120490000D01*
X101510000Y-118510000D02*
X101500000Y-118500000D01*
X101510000Y-119000000D02*
X101510000Y-118510000D01*
%TO.N,/PD_SDA*%
X98950000Y-120750000D02*
X99434994Y-120750000D01*
X99434994Y-120750000D02*
X100990000Y-122305006D01*
X100990000Y-122305006D02*
X100990000Y-124750000D01*
%TO.N,/PD_SCL*%
X98950000Y-120250000D02*
X99500000Y-120250000D01*
X99500000Y-120250000D02*
X101000000Y-121750000D01*
X101000000Y-121750000D02*
X103250000Y-121750000D01*
X103250000Y-121750000D02*
X103530000Y-122030000D01*
X103530000Y-122030000D02*
X103530000Y-124750000D01*
%TO.N,Net-(R108-Pad1)*%
X99750000Y-119250000D02*
X100000000Y-119000000D01*
X98950000Y-119250000D02*
X99750000Y-119250000D01*
X100000000Y-119000000D02*
X100490000Y-119000000D01*
%TO.N,Net-(R109-Pad1)*%
X99750000Y-119750000D02*
X100000000Y-120000000D01*
X98950000Y-119750000D02*
X99750000Y-119750000D01*
X100000000Y-120000000D02*
X100490000Y-120000000D01*
D36*
%TO.N,GND*%
X98000000Y-110740000D02*
X98000000Y-110000000D01*
X96000000Y-111600000D02*
X96000000Y-110500000D01*
X107900000Y-109350000D02*
X108000000Y-109250000D01*
X107000000Y-109350000D02*
X107900000Y-109350000D01*
X110250000Y-124500000D02*
X111250000Y-124500000D01*
X89750000Y-123760000D02*
X89750000Y-124500000D01*
X95750000Y-123760000D02*
X95750000Y-124500000D01*
X94900000Y-125400000D02*
X95000000Y-125500000D01*
X94000000Y-125400000D02*
X94900000Y-125400000D01*
X90600000Y-125400000D02*
X90500000Y-125500000D01*
X91500000Y-125400000D02*
X90600000Y-125400000D01*
D37*
%TO.N,Net-(D104-Pad1)*%
X95750000Y-122740000D02*
X95750000Y-122000000D01*
X86485000Y-117750000D02*
X88250000Y-117750000D01*
X89250000Y-121967232D02*
X89141384Y-121858616D01*
X89250000Y-122000000D02*
X89250000Y-121967232D01*
X91500000Y-121000000D02*
X90500000Y-122000000D01*
X93016384Y-120483616D02*
X92750000Y-120750000D01*
X90500000Y-122000000D02*
X89500000Y-122000000D01*
X94233616Y-120483616D02*
X93016384Y-120483616D01*
X91750000Y-120750000D02*
X91500000Y-121000000D01*
X89500000Y-122000000D02*
X89250000Y-122000000D01*
X92750000Y-120750000D02*
X91750000Y-120750000D01*
X94467232Y-120250000D02*
X94233616Y-120483616D01*
X96050000Y-120250000D02*
X94467232Y-120250000D01*
X94000000Y-122600000D02*
X95610000Y-122600000D01*
X95610000Y-122600000D02*
X95750000Y-122740000D01*
%TO.N,Net-(D103-Pad1)*%
X89750000Y-122740000D02*
X89240000Y-122740000D01*
X87217216Y-120750000D02*
X86485000Y-120750000D01*
X89240000Y-122740000D02*
X88250000Y-121750000D01*
X88250000Y-121750000D02*
X88250000Y-121217216D01*
X88250000Y-121217216D02*
X87729273Y-120696489D01*
X87729273Y-120696489D02*
X87270727Y-120696489D01*
X87270727Y-120696489D02*
X87217216Y-120750000D01*
X91500000Y-122600000D02*
X89890000Y-122600000D01*
X89890000Y-122600000D02*
X89750000Y-122740000D01*
X96050000Y-120750000D02*
X94750000Y-120750000D01*
X94750000Y-120750000D02*
X94250000Y-121250000D01*
X94250000Y-121250000D02*
X92250000Y-121250000D01*
X92250000Y-121250000D02*
X91500000Y-122000000D01*
X91500000Y-122000000D02*
X91500000Y-122600000D01*
%TO.N,Net-(R105-Pad1)*%
X96050000Y-119250000D02*
X93000000Y-119250000D01*
X93000000Y-119250000D02*
X92750000Y-119000000D01*
X92750000Y-119000000D02*
X91760000Y-119000000D01*
%TO.N,Net-(R104-Pad1)*%
X92750000Y-119750000D02*
X92500000Y-120000000D01*
X96050000Y-119750000D02*
X92750000Y-119750000D01*
X92500000Y-120000000D02*
X91760000Y-120000000D01*
%TO.N,Net-(D102-Pad1)*%
X89750000Y-120015000D02*
X90725000Y-120015000D01*
X90725000Y-120015000D02*
X90740000Y-120000000D01*
%TO.N,Net-(D101-Pad1)*%
X89750000Y-118985000D02*
X90725000Y-118985000D01*
X90725000Y-118985000D02*
X90740000Y-119000000D01*
D36*
%TO.N,GND*%
X89015000Y-120985000D02*
X89000000Y-121000000D01*
X89750000Y-120985000D02*
X89015000Y-120985000D01*
X89015000Y-118015000D02*
X89000000Y-118000000D01*
X89750000Y-118015000D02*
X89015000Y-118015000D01*
%TO.N,Net-(FB101-Pad1)*%
X87300000Y-121450000D02*
X87500000Y-121250000D01*
X86485000Y-121450000D02*
X87300000Y-121450000D01*
D37*
%TO.N,Net-(D101-Pad1)*%
X86485000Y-119750000D02*
X85250000Y-119750000D01*
%TO.N,Net-(D102-Pad1)*%
X88209022Y-120000000D02*
X88250000Y-120000000D01*
X87459022Y-119250000D02*
X88209022Y-120000000D01*
X86485000Y-119250000D02*
X87459022Y-119250000D01*
X88250000Y-120000000D02*
X88265000Y-120015000D01*
X88265000Y-120015000D02*
X89750000Y-120015000D01*
X85250000Y-118510978D02*
X85250000Y-119000000D01*
X85510978Y-118250000D02*
X85250000Y-118510978D01*
X86485000Y-118250000D02*
X85510978Y-118250000D01*
X85250000Y-119000000D02*
X85500000Y-119250000D01*
X85500000Y-119250000D02*
X86485000Y-119250000D01*
%TO.N,Net-(D101-Pad1)*%
X86485000Y-118750000D02*
X88750000Y-118750000D01*
X88750000Y-118750000D02*
X89000000Y-119000000D01*
X89000000Y-119000000D02*
X89015000Y-118985000D01*
X89015000Y-118985000D02*
X89750000Y-118985000D01*
D36*
%TO.N,GND*%
X87500000Y-115750000D02*
X87750000Y-115500000D01*
X86485000Y-115750000D02*
X87500000Y-115750000D01*
X87750000Y-115500000D02*
X87654312Y-115404312D01*
X86485000Y-122250000D02*
X87750000Y-122250000D01*
D38*
%TO.N,Net-(C101-Pad1)*%
X81390000Y-123320000D02*
X81390000Y-114680000D01*
X85570000Y-123320000D02*
X81390000Y-123320000D01*
X81390000Y-114680000D02*
X85570000Y-114680000D01*
D36*
X85500000Y-113010000D02*
X86470000Y-113010000D01*
X86470000Y-113010000D02*
X86500000Y-112980000D01*
X85500000Y-113010000D02*
X85500000Y-114610000D01*
X85500000Y-114610000D02*
X85570000Y-114680000D01*
%TO.N,Net-(C102-Pad1)*%
X92787500Y-114500000D02*
X98000000Y-114500000D01*
%TO.N,Net-(FB101-Pad1)*%
X86485000Y-116550000D02*
X87710000Y-116550000D01*
X87710000Y-116550000D02*
X89760000Y-114500000D01*
X89760000Y-114500000D02*
X91212500Y-114500000D01*
%TD*%
%TA.AperFunction,Conductor*%
%TO.N,Net-(C102-Pad1)*%
G36*
X103692121Y-113770002D02*
G01*
X103738614Y-113823658D01*
X103750000Y-113876000D01*
X103750000Y-115624000D01*
X103729998Y-115692121D01*
X103676342Y-115738614D01*
X103624000Y-115750000D01*
X100275862Y-115750000D01*
X100226228Y-115739812D01*
X98511765Y-115005042D01*
X98511764Y-115005042D01*
X98500000Y-115000000D01*
X92021687Y-115000000D01*
X91953566Y-114979998D01*
X91907073Y-114926342D01*
X91896969Y-114856068D01*
X91900967Y-114837906D01*
X91904247Y-114826940D01*
X91904500Y-114823535D01*
X91904500Y-114208836D01*
X91895195Y-114143862D01*
X91905337Y-114073594D01*
X91951860Y-114019964D01*
X92019922Y-114000000D01*
X93847897Y-114000000D01*
X93905101Y-114013733D01*
X93956548Y-114039947D01*
X93966338Y-114041498D01*
X93966339Y-114041498D01*
X93991715Y-114045517D01*
X94048431Y-114054500D01*
X94451569Y-114054500D01*
X94508285Y-114045517D01*
X94533661Y-114041498D01*
X94533662Y-114041498D01*
X94543452Y-114039947D01*
X94594899Y-114013733D01*
X94652103Y-114000000D01*
X98500000Y-114000000D01*
X100241138Y-113751266D01*
X100258957Y-113750000D01*
X103624000Y-113750000D01*
X103692121Y-113770002D01*
G37*
%TD.AperFunction*%
%TD*%
%TA.AperFunction,Conductor*%
%TO.N,VBUS*%
G36*
X105692121Y-108770002D02*
G01*
X105738614Y-108823658D01*
X105750000Y-108876000D01*
X105750000Y-110500000D01*
X111124000Y-110500000D01*
X111192121Y-110520002D01*
X111238614Y-110573658D01*
X111250000Y-110626000D01*
X111250000Y-115036317D01*
X111249006Y-115052109D01*
X111230488Y-115198696D01*
X111233813Y-115232605D01*
X111248101Y-115378323D01*
X111248066Y-115378326D01*
X111250000Y-115396725D01*
X111250000Y-116124000D01*
X111229998Y-116192121D01*
X111176342Y-116238614D01*
X111124000Y-116250000D01*
X105876000Y-116250000D01*
X105807879Y-116229998D01*
X105761386Y-116176342D01*
X105750000Y-116124000D01*
X105750000Y-112000000D01*
X104626000Y-112000000D01*
X104557879Y-111979998D01*
X104511386Y-111926342D01*
X104500000Y-111874000D01*
X104500000Y-110750000D01*
X100376000Y-110750000D01*
X100307879Y-110729998D01*
X100261386Y-110676342D01*
X100250000Y-110624000D01*
X100250000Y-109500000D01*
X98470717Y-109500000D01*
X98402596Y-109479998D01*
X98386897Y-109468075D01*
X98381947Y-109463664D01*
X98381944Y-109463662D01*
X98376275Y-109458611D01*
X98368889Y-109454700D01*
X98242988Y-109388039D01*
X98242989Y-109388039D01*
X98236274Y-109384484D01*
X98082633Y-109345892D01*
X98075034Y-109345852D01*
X98075033Y-109345852D01*
X98009181Y-109345507D01*
X97924221Y-109345062D01*
X97916841Y-109346834D01*
X97916839Y-109346834D01*
X97777563Y-109380271D01*
X97777560Y-109380272D01*
X97770184Y-109382043D01*
X97629414Y-109454700D01*
X97623697Y-109459687D01*
X97623690Y-109459692D01*
X97613079Y-109468949D01*
X97548597Y-109498657D01*
X97530250Y-109500000D01*
X89626000Y-109500000D01*
X89557879Y-109479998D01*
X89511386Y-109426342D01*
X89500000Y-109374000D01*
X89500000Y-108876000D01*
X89520002Y-108807879D01*
X89573658Y-108761386D01*
X89626000Y-108750000D01*
X105624000Y-108750000D01*
X105692121Y-108770002D01*
G37*
%TD.AperFunction*%
%TD*%
M02*
