%TF.GenerationSoftware,KiCad,Pcbnew,5.99.0-unknown-3f6811f413~130~ubuntu20.10.1*%
%TF.CreationDate,2021-09-06T21:05:41-07:00*%
%TF.ProjectId,usb_pd,7573625f-7064-42e6-9b69-6361645f7063,rev?*%
%TF.SameCoordinates,Original*%
%TF.FileFunction,Copper,L4,Bot*%
%TF.FilePolarity,Positive*%
%FSLAX46Y46*%
G04 Gerber Fmt 4.6, Leading zero omitted, Abs format (unit mm)*
G04 Created by KiCad (PCBNEW 5.99.0-unknown-3f6811f413~130~ubuntu20.10.1) date 2021-09-06 21:05:41*
%MOMM*%
%LPD*%
G01*
G04 APERTURE LIST*
%TA.AperFunction,ComponentPad*%
%ADD10R,1.700000X1.700000*%
%TD*%
%TA.AperFunction,ComponentPad*%
%ADD11O,1.700000X1.700000*%
%TD*%
%TA.AperFunction,ComponentPad*%
%ADD12R,2.200000X2.200000*%
%TD*%
%TA.AperFunction,ComponentPad*%
%ADD13C,2.200000*%
%TD*%
%TA.AperFunction,ComponentPad*%
%ADD14O,2.100000X1.000000*%
%TD*%
%TA.AperFunction,ComponentPad*%
%ADD15O,1.600000X1.000000*%
%TD*%
%TA.AperFunction,ViaPad*%
%ADD16C,0.800000*%
%TD*%
%TA.AperFunction,ViaPad*%
%ADD17C,0.508000*%
%TD*%
G04 APERTURE END LIST*
D10*
%TO.P,J102,1,Pin_1*%
%TO.N,GND*%
X98450000Y-124750000D03*
D11*
%TO.P,J102,2,Pin_2*%
%TO.N,/PD_SDA*%
X100990000Y-124750000D03*
%TO.P,J102,3,Pin_3*%
%TO.N,/PD_SCL*%
X103530000Y-124750000D03*
%TO.P,J102,4,Pin_4*%
%TO.N,GND*%
X106070000Y-124750000D03*
%TD*%
D12*
%TO.P,J103,1,Pin_1*%
%TO.N,GND*%
X109500000Y-117750000D03*
D13*
%TO.P,J103,2,Pin_2*%
%TO.N,VBUS*%
X109500000Y-115210000D03*
%TD*%
D14*
%TO.P,J101,S1,SHIELD*%
%TO.N,Net-(C101-Pad1)*%
X85570000Y-123320000D03*
D15*
X81390000Y-123320000D03*
D14*
X85570000Y-114680000D03*
D15*
X81390000Y-114680000D03*
%TD*%
D16*
%TO.N,GND*%
X105250000Y-118750000D03*
X104000000Y-121250000D03*
X81000000Y-109500000D03*
X88500000Y-113000000D03*
X111500000Y-109500000D03*
X111500000Y-121000000D03*
X107500000Y-121000000D03*
X87000000Y-125250000D03*
X83250000Y-117000000D03*
X83250000Y-121500000D03*
D17*
X89000000Y-118000000D03*
D16*
X108000000Y-109250000D03*
X95750000Y-124500000D03*
D17*
X94250000Y-113000000D03*
X98000000Y-119750000D03*
X98000000Y-119000000D03*
D16*
X111250000Y-124500000D03*
D17*
X98000000Y-120500000D03*
X97000000Y-119000000D03*
X97000000Y-119750000D03*
D16*
X109250000Y-124500000D03*
D17*
X97000000Y-120500000D03*
X89000000Y-121000000D03*
D16*
X87654312Y-115404312D03*
D17*
X101500000Y-120500000D03*
D16*
X98000000Y-110000000D03*
X96000000Y-110500000D03*
D17*
X101500000Y-118500000D03*
D16*
X89750000Y-124500000D03*
D17*
X84750000Y-112000000D03*
X87250000Y-112000000D03*
D16*
X95000000Y-125500000D03*
D17*
X98000000Y-116500000D03*
D16*
X90500000Y-125500000D03*
X87750000Y-122250000D03*
D17*
%TO.N,Net-(D101-Pad1)*%
X88000000Y-118750000D03*
X85250000Y-119750000D03*
%TO.N,Net-(D104-Pad1)*%
X88250000Y-117750000D03*
X89141384Y-121858616D03*
X95750000Y-122000000D03*
X94233616Y-120483616D03*
%TO.N,Net-(FB101-Pad1)*%
X87500000Y-121250000D03*
X87710000Y-116550000D03*
%TD*%
%TA.AperFunction,Conductor*%
%TO.N,GND*%
G36*
X111987153Y-108506421D02*
G01*
X112000000Y-108508976D01*
X112012172Y-108506555D01*
X112019754Y-108506555D01*
X112032104Y-108507162D01*
X112133188Y-108517118D01*
X112157408Y-108521935D01*
X112273617Y-108557187D01*
X112296418Y-108566631D01*
X112403517Y-108623876D01*
X112424047Y-108637594D01*
X112517909Y-108714626D01*
X112535374Y-108732091D01*
X112612406Y-108825953D01*
X112626124Y-108846483D01*
X112683369Y-108953582D01*
X112692813Y-108976383D01*
X112728065Y-109092592D01*
X112732882Y-109116812D01*
X112742838Y-109217896D01*
X112743445Y-109230246D01*
X112743445Y-109237828D01*
X112741024Y-109250000D01*
X112743445Y-109262170D01*
X112743579Y-109262844D01*
X112746000Y-109287425D01*
X112746000Y-114476845D01*
X112725998Y-114544966D01*
X112672342Y-114591459D01*
X112602068Y-114601563D01*
X112547939Y-114578038D01*
X112547293Y-114579055D01*
X112394901Y-114482344D01*
X112328858Y-114458827D01*
X112231506Y-114424161D01*
X112231501Y-114424160D01*
X112224871Y-114421799D01*
X112217885Y-114420966D01*
X112217881Y-114420965D01*
X112091337Y-114405877D01*
X112045652Y-114400429D01*
X112038649Y-114401165D01*
X112038648Y-114401165D01*
X111873160Y-114418558D01*
X111873156Y-114418559D01*
X111866152Y-114419295D01*
X111695293Y-114477460D01*
X111681212Y-114486123D01*
X111555604Y-114563398D01*
X111541566Y-114572034D01*
X111412612Y-114698315D01*
X111314840Y-114850027D01*
X111312431Y-114856647D01*
X111312429Y-114856650D01*
X111264193Y-114989177D01*
X111253109Y-115019631D01*
X111230488Y-115198696D01*
X111248101Y-115378323D01*
X111250325Y-115385008D01*
X111250325Y-115385009D01*
X111267643Y-115437070D01*
X111305072Y-115549585D01*
X111308719Y-115555607D01*
X111308720Y-115555609D01*
X111372222Y-115660463D01*
X111398569Y-115703968D01*
X111523947Y-115833801D01*
X111529840Y-115837657D01*
X111529841Y-115837658D01*
X111578696Y-115869627D01*
X111674974Y-115932629D01*
X111759558Y-115964086D01*
X111837540Y-115993088D01*
X111837542Y-115993089D01*
X111844142Y-115995543D01*
X111851120Y-115996474D01*
X111851124Y-115996475D01*
X111933593Y-116007478D01*
X112023045Y-116019413D01*
X112030056Y-116018775D01*
X112030060Y-116018775D01*
X112195770Y-116003694D01*
X112202791Y-116003055D01*
X112209493Y-116000877D01*
X112209495Y-116000877D01*
X112367747Y-115949458D01*
X112367750Y-115949457D01*
X112374446Y-115947281D01*
X112529478Y-115854863D01*
X112534576Y-115850008D01*
X112540190Y-115845747D01*
X112541290Y-115847196D01*
X112596229Y-115818915D01*
X112666900Y-115825706D01*
X112722681Y-115869627D01*
X112746000Y-115942652D01*
X112746000Y-117016845D01*
X112725998Y-117084966D01*
X112672342Y-117131459D01*
X112602068Y-117141563D01*
X112547939Y-117118038D01*
X112547293Y-117119055D01*
X112394901Y-117022344D01*
X112356612Y-117008710D01*
X112231506Y-116964161D01*
X112231501Y-116964160D01*
X112224871Y-116961799D01*
X112217885Y-116960966D01*
X112217881Y-116960965D01*
X112086192Y-116945263D01*
X112045652Y-116940429D01*
X112038649Y-116941165D01*
X112038648Y-116941165D01*
X111873160Y-116958558D01*
X111873156Y-116958559D01*
X111866152Y-116959295D01*
X111695293Y-117017460D01*
X111541566Y-117112034D01*
X111412612Y-117238315D01*
X111314840Y-117390027D01*
X111312431Y-117396647D01*
X111312429Y-117396650D01*
X111281586Y-117481390D01*
X111253109Y-117559631D01*
X111230488Y-117738696D01*
X111248101Y-117918323D01*
X111305072Y-118089585D01*
X111308719Y-118095607D01*
X111308720Y-118095609D01*
X111394290Y-118236902D01*
X111398569Y-118243968D01*
X111523947Y-118373801D01*
X111529840Y-118377657D01*
X111529841Y-118377658D01*
X111657544Y-118461223D01*
X111674974Y-118472629D01*
X111759558Y-118504086D01*
X111837540Y-118533088D01*
X111837542Y-118533089D01*
X111844142Y-118535543D01*
X111851120Y-118536474D01*
X111851124Y-118536475D01*
X111933593Y-118547478D01*
X112023045Y-118559413D01*
X112030056Y-118558775D01*
X112030060Y-118558775D01*
X112195770Y-118543694D01*
X112202791Y-118543055D01*
X112209493Y-118540877D01*
X112209495Y-118540877D01*
X112367747Y-118489458D01*
X112367750Y-118489457D01*
X112374446Y-118487281D01*
X112529478Y-118394863D01*
X112534576Y-118390008D01*
X112540190Y-118385747D01*
X112541290Y-118387196D01*
X112596229Y-118358915D01*
X112666900Y-118365706D01*
X112722681Y-118409627D01*
X112746000Y-118482652D01*
X112746000Y-125462575D01*
X112743579Y-125487153D01*
X112741024Y-125500000D01*
X112743445Y-125512172D01*
X112743445Y-125519754D01*
X112742838Y-125532104D01*
X112732882Y-125633188D01*
X112728065Y-125657408D01*
X112692813Y-125773617D01*
X112683369Y-125796418D01*
X112626124Y-125903517D01*
X112612406Y-125924047D01*
X112535374Y-126017909D01*
X112517909Y-126035374D01*
X112424047Y-126112406D01*
X112403517Y-126126124D01*
X112296418Y-126183369D01*
X112273617Y-126192813D01*
X112157408Y-126228065D01*
X112133188Y-126232882D01*
X112032104Y-126242838D01*
X112019754Y-126243445D01*
X112012172Y-126243445D01*
X112000000Y-126241024D01*
X111987153Y-126243579D01*
X111962575Y-126246000D01*
X81037425Y-126246000D01*
X81012847Y-126243579D01*
X81000000Y-126241024D01*
X80987828Y-126243445D01*
X80980246Y-126243445D01*
X80967896Y-126242838D01*
X80866812Y-126232882D01*
X80842592Y-126228065D01*
X80726383Y-126192813D01*
X80703582Y-126183369D01*
X80596483Y-126126124D01*
X80575953Y-126112406D01*
X80482091Y-126035374D01*
X80464626Y-126017909D01*
X80387594Y-125924047D01*
X80373876Y-125903517D01*
X80316631Y-125796418D01*
X80307187Y-125773617D01*
X80271935Y-125657408D01*
X80267118Y-125633188D01*
X80257162Y-125532104D01*
X80256555Y-125519754D01*
X80256555Y-125512172D01*
X80258976Y-125500000D01*
X80256421Y-125487153D01*
X80254000Y-125462575D01*
X80254000Y-124720964D01*
X99881148Y-124720964D01*
X99894424Y-124923522D01*
X99895845Y-124929118D01*
X99895846Y-124929123D01*
X99916119Y-125008945D01*
X99944392Y-125120269D01*
X99946809Y-125125512D01*
X99984010Y-125206208D01*
X100029377Y-125304616D01*
X100032710Y-125309332D01*
X100141011Y-125462575D01*
X100146533Y-125470389D01*
X100291938Y-125612035D01*
X100460720Y-125724812D01*
X100466023Y-125727090D01*
X100466026Y-125727092D01*
X100627409Y-125796427D01*
X100647228Y-125804942D01*
X100720244Y-125821464D01*
X100839579Y-125848467D01*
X100839584Y-125848468D01*
X100845216Y-125849742D01*
X100850987Y-125849969D01*
X100850989Y-125849969D01*
X100910756Y-125852317D01*
X101048053Y-125857712D01*
X101148499Y-125843148D01*
X101243231Y-125829413D01*
X101243236Y-125829412D01*
X101248945Y-125828584D01*
X101254409Y-125826729D01*
X101254414Y-125826728D01*
X101435693Y-125765192D01*
X101435698Y-125765190D01*
X101441165Y-125763334D01*
X101618276Y-125664147D01*
X101680934Y-125612035D01*
X101769913Y-125538031D01*
X101774345Y-125534345D01*
X101904147Y-125378276D01*
X102003334Y-125201165D01*
X102005190Y-125195698D01*
X102005192Y-125195693D01*
X102066728Y-125014414D01*
X102066729Y-125014409D01*
X102068584Y-125008945D01*
X102069412Y-125003236D01*
X102069413Y-125003231D01*
X102097179Y-124811727D01*
X102097712Y-124808053D01*
X102099232Y-124750000D01*
X102096564Y-124720964D01*
X102421148Y-124720964D01*
X102434424Y-124923522D01*
X102435845Y-124929118D01*
X102435846Y-124929123D01*
X102456119Y-125008945D01*
X102484392Y-125120269D01*
X102486809Y-125125512D01*
X102524010Y-125206208D01*
X102569377Y-125304616D01*
X102572710Y-125309332D01*
X102681011Y-125462575D01*
X102686533Y-125470389D01*
X102831938Y-125612035D01*
X103000720Y-125724812D01*
X103006023Y-125727090D01*
X103006026Y-125727092D01*
X103167409Y-125796427D01*
X103187228Y-125804942D01*
X103260244Y-125821464D01*
X103379579Y-125848467D01*
X103379584Y-125848468D01*
X103385216Y-125849742D01*
X103390987Y-125849969D01*
X103390989Y-125849969D01*
X103450756Y-125852317D01*
X103588053Y-125857712D01*
X103688499Y-125843148D01*
X103783231Y-125829413D01*
X103783236Y-125829412D01*
X103788945Y-125828584D01*
X103794409Y-125826729D01*
X103794414Y-125826728D01*
X103975693Y-125765192D01*
X103975698Y-125765190D01*
X103981165Y-125763334D01*
X104158276Y-125664147D01*
X104220934Y-125612035D01*
X104309913Y-125538031D01*
X104314345Y-125534345D01*
X104444147Y-125378276D01*
X104543334Y-125201165D01*
X104545190Y-125195698D01*
X104545192Y-125195693D01*
X104606728Y-125014414D01*
X104606729Y-125014409D01*
X104608584Y-125008945D01*
X104609412Y-125003236D01*
X104609413Y-125003231D01*
X104637179Y-124811727D01*
X104637712Y-124808053D01*
X104639232Y-124750000D01*
X104620658Y-124547859D01*
X104619090Y-124542299D01*
X104567125Y-124358046D01*
X104567124Y-124358044D01*
X104565557Y-124352487D01*
X104554978Y-124331033D01*
X104478331Y-124175609D01*
X104475776Y-124170428D01*
X104354320Y-124007779D01*
X104244946Y-123906674D01*
X104209503Y-123873911D01*
X104205258Y-123869987D01*
X104200375Y-123866906D01*
X104200371Y-123866903D01*
X104044612Y-123768627D01*
X104033581Y-123761667D01*
X103845039Y-123686446D01*
X103839379Y-123685320D01*
X103839375Y-123685319D01*
X103651613Y-123647971D01*
X103651610Y-123647971D01*
X103645946Y-123646844D01*
X103640171Y-123646768D01*
X103640167Y-123646768D01*
X103538793Y-123645441D01*
X103442971Y-123644187D01*
X103437274Y-123645166D01*
X103437273Y-123645166D01*
X103248607Y-123677585D01*
X103242910Y-123678564D01*
X103052463Y-123748824D01*
X102878010Y-123852612D01*
X102873670Y-123856418D01*
X102873666Y-123856421D01*
X102761035Y-123955197D01*
X102725392Y-123986455D01*
X102599720Y-124145869D01*
X102597031Y-124150980D01*
X102597029Y-124150983D01*
X102584073Y-124175609D01*
X102505203Y-124325515D01*
X102445007Y-124519378D01*
X102421148Y-124720964D01*
X102096564Y-124720964D01*
X102080658Y-124547859D01*
X102079090Y-124542299D01*
X102027125Y-124358046D01*
X102027124Y-124358044D01*
X102025557Y-124352487D01*
X102014978Y-124331033D01*
X101938331Y-124175609D01*
X101935776Y-124170428D01*
X101814320Y-124007779D01*
X101704946Y-123906674D01*
X101669503Y-123873911D01*
X101665258Y-123869987D01*
X101660375Y-123866906D01*
X101660371Y-123866903D01*
X101504612Y-123768627D01*
X101493581Y-123761667D01*
X101305039Y-123686446D01*
X101299379Y-123685320D01*
X101299375Y-123685319D01*
X101111613Y-123647971D01*
X101111610Y-123647971D01*
X101105946Y-123646844D01*
X101100171Y-123646768D01*
X101100167Y-123646768D01*
X100998793Y-123645441D01*
X100902971Y-123644187D01*
X100897274Y-123645166D01*
X100897273Y-123645166D01*
X100708607Y-123677585D01*
X100702910Y-123678564D01*
X100512463Y-123748824D01*
X100338010Y-123852612D01*
X100333670Y-123856418D01*
X100333666Y-123856421D01*
X100221035Y-123955197D01*
X100185392Y-123986455D01*
X100059720Y-124145869D01*
X100057031Y-124150980D01*
X100057029Y-124150983D01*
X100044073Y-124175609D01*
X99965203Y-124325515D01*
X99905007Y-124519378D01*
X99881148Y-124720964D01*
X80254000Y-124720964D01*
X80254000Y-123840567D01*
X80274002Y-123772446D01*
X80327658Y-123725953D01*
X80397932Y-123715849D01*
X80462512Y-123745343D01*
X80481481Y-123765884D01*
X80488159Y-123774958D01*
X80534537Y-123837978D01*
X80668596Y-123951869D01*
X80749846Y-123993358D01*
X80778089Y-124007779D01*
X80825260Y-124031866D01*
X80832365Y-124033605D01*
X80832369Y-124033606D01*
X80914026Y-124053587D01*
X80996125Y-124073676D01*
X81001727Y-124074024D01*
X81001730Y-124074024D01*
X81007468Y-124074380D01*
X81007477Y-124074380D01*
X81009407Y-124074500D01*
X81732885Y-124074500D01*
X81736519Y-124074076D01*
X81736524Y-124074076D01*
X81857450Y-124059977D01*
X81864723Y-124059129D01*
X81935038Y-124033606D01*
X82023194Y-124001607D01*
X82030073Y-123999110D01*
X82177181Y-123902662D01*
X82298155Y-123774958D01*
X82386507Y-123622850D01*
X82437497Y-123454496D01*
X82443293Y-123361073D01*
X84261611Y-123361073D01*
X84291401Y-123534438D01*
X84360274Y-123696301D01*
X84364607Y-123702189D01*
X84364610Y-123702194D01*
X84460195Y-123832079D01*
X84460199Y-123832083D01*
X84464537Y-123837978D01*
X84598596Y-123951869D01*
X84679846Y-123993358D01*
X84708089Y-124007779D01*
X84755260Y-124031866D01*
X84762365Y-124033605D01*
X84762369Y-124033606D01*
X84844026Y-124053587D01*
X84926125Y-124073676D01*
X84931727Y-124074024D01*
X84931730Y-124074024D01*
X84937468Y-124074380D01*
X84937477Y-124074380D01*
X84939407Y-124074500D01*
X86162885Y-124074500D01*
X86166519Y-124074076D01*
X86166524Y-124074076D01*
X86287450Y-124059977D01*
X86294723Y-124059129D01*
X86365038Y-124033606D01*
X86453194Y-124001607D01*
X86460073Y-123999110D01*
X86607181Y-123902662D01*
X86728155Y-123774958D01*
X86816507Y-123622850D01*
X86867497Y-123454496D01*
X86878389Y-123278927D01*
X86848599Y-123105562D01*
X86779726Y-122943699D01*
X86775393Y-122937811D01*
X86775390Y-122937806D01*
X86679805Y-122807921D01*
X86679801Y-122807917D01*
X86675463Y-122802022D01*
X86541404Y-122688131D01*
X86456747Y-122644903D01*
X86391256Y-122611461D01*
X86391254Y-122611460D01*
X86384740Y-122608134D01*
X86377635Y-122606395D01*
X86377631Y-122606394D01*
X86283533Y-122583369D01*
X86213875Y-122566324D01*
X86208273Y-122565976D01*
X86208270Y-122565976D01*
X86202532Y-122565620D01*
X86202523Y-122565620D01*
X86200593Y-122565500D01*
X85482788Y-122565500D01*
X85414667Y-122545498D01*
X85368174Y-122491842D01*
X85358070Y-122421568D01*
X85387564Y-122356988D01*
X85406084Y-122339537D01*
X85446758Y-122308327D01*
X85453304Y-122303304D01*
X85546192Y-122182250D01*
X85604584Y-122041280D01*
X85624500Y-121890000D01*
X85619542Y-121852340D01*
X88627693Y-121852340D01*
X88628857Y-121861242D01*
X88628857Y-121861245D01*
X88633688Y-121898188D01*
X88646579Y-121996768D01*
X88650193Y-122004981D01*
X88650194Y-122004985D01*
X88658072Y-122022888D01*
X88705243Y-122130090D01*
X88711018Y-122136960D01*
X88711019Y-122136962D01*
X88754594Y-122188801D01*
X88798967Y-122241589D01*
X88806444Y-122246566D01*
X88912745Y-122317326D01*
X88912747Y-122317327D01*
X88920218Y-122322300D01*
X89059248Y-122365737D01*
X89204882Y-122368406D01*
X89275146Y-122349250D01*
X89336747Y-122332455D01*
X89336748Y-122332455D01*
X89345410Y-122330093D01*
X89353743Y-122324977D01*
X89415148Y-122287274D01*
X89469538Y-122253879D01*
X89476158Y-122246566D01*
X89561257Y-122152550D01*
X89561258Y-122152549D01*
X89567285Y-122145890D01*
X89575348Y-122129249D01*
X89626879Y-122022888D01*
X89626879Y-122022887D01*
X89630794Y-122014807D01*
X89634341Y-121993724D01*
X95236309Y-121993724D01*
X95237473Y-122002626D01*
X95237473Y-122002629D01*
X95243525Y-122048909D01*
X95255195Y-122138152D01*
X95258809Y-122146365D01*
X95258810Y-122146369D01*
X95274599Y-122182250D01*
X95313859Y-122271474D01*
X95319634Y-122278344D01*
X95319635Y-122278346D01*
X95395338Y-122368406D01*
X95407583Y-122382973D01*
X95415060Y-122387950D01*
X95521361Y-122458710D01*
X95521363Y-122458711D01*
X95528834Y-122463684D01*
X95667864Y-122507121D01*
X95813498Y-122509790D01*
X95883762Y-122490633D01*
X95945363Y-122473839D01*
X95945364Y-122473839D01*
X95954026Y-122471477D01*
X95962359Y-122466361D01*
X96016090Y-122433370D01*
X96078154Y-122395263D01*
X96084774Y-122387950D01*
X96169873Y-122293934D01*
X96169874Y-122293933D01*
X96175901Y-122287274D01*
X96239410Y-122156191D01*
X96263576Y-122012552D01*
X96263729Y-122000000D01*
X96247976Y-121890000D01*
X96244354Y-121864706D01*
X96244353Y-121864703D01*
X96243080Y-121855813D01*
X96237467Y-121843468D01*
X96186508Y-121731390D01*
X96186507Y-121731388D01*
X96182792Y-121723218D01*
X96087713Y-121612873D01*
X95965485Y-121533648D01*
X95825934Y-121491914D01*
X95816958Y-121491859D01*
X95816957Y-121491859D01*
X95755644Y-121491485D01*
X95680279Y-121491024D01*
X95540229Y-121531051D01*
X95532642Y-121535838D01*
X95532640Y-121535839D01*
X95470520Y-121575034D01*
X95417042Y-121608776D01*
X95320622Y-121717951D01*
X95316808Y-121726074D01*
X95316807Y-121726076D01*
X95262533Y-121841676D01*
X95258719Y-121849800D01*
X95257339Y-121858665D01*
X95257338Y-121858667D01*
X95251185Y-121898188D01*
X95236309Y-121993724D01*
X89634341Y-121993724D01*
X89654960Y-121871168D01*
X89655113Y-121858616D01*
X89640622Y-121757428D01*
X89635738Y-121723322D01*
X89635737Y-121723319D01*
X89634464Y-121714429D01*
X89630746Y-121706251D01*
X89577892Y-121590006D01*
X89577891Y-121590004D01*
X89574176Y-121581834D01*
X89479097Y-121471489D01*
X89356869Y-121392264D01*
X89217318Y-121350530D01*
X89208342Y-121350475D01*
X89208341Y-121350475D01*
X89147028Y-121350101D01*
X89071663Y-121349640D01*
X88931613Y-121389667D01*
X88924026Y-121394454D01*
X88924024Y-121394455D01*
X88905424Y-121406191D01*
X88808426Y-121467392D01*
X88712006Y-121576567D01*
X88708192Y-121584690D01*
X88708191Y-121584692D01*
X88653917Y-121700292D01*
X88650103Y-121708416D01*
X88648723Y-121717281D01*
X88648722Y-121717283D01*
X88642104Y-121759790D01*
X88627693Y-121852340D01*
X85619542Y-121852340D01*
X85607028Y-121757285D01*
X85605662Y-121746908D01*
X85604584Y-121738720D01*
X85546192Y-121597750D01*
X85464939Y-121491859D01*
X85458327Y-121483242D01*
X85453304Y-121476696D01*
X85332250Y-121383808D01*
X85191280Y-121325416D01*
X85040000Y-121305500D01*
X84888720Y-121325416D01*
X84747750Y-121383808D01*
X84626696Y-121476696D01*
X84621673Y-121483242D01*
X84615061Y-121491859D01*
X84533808Y-121597750D01*
X84475416Y-121738720D01*
X84474338Y-121746908D01*
X84472972Y-121757285D01*
X84455500Y-121890000D01*
X84475416Y-122041280D01*
X84533808Y-122182250D01*
X84626696Y-122303304D01*
X84747750Y-122396192D01*
X84750522Y-122397340D01*
X84797835Y-122446958D01*
X84811274Y-122516671D01*
X84784889Y-122582583D01*
X84728836Y-122623137D01*
X84679927Y-122640890D01*
X84532819Y-122737338D01*
X84411845Y-122865042D01*
X84323493Y-123017150D01*
X84272503Y-123185504D01*
X84261611Y-123361073D01*
X82443293Y-123361073D01*
X82448389Y-123278927D01*
X82418599Y-123105562D01*
X82349726Y-122943699D01*
X82345393Y-122937811D01*
X82345390Y-122937806D01*
X82249805Y-122807921D01*
X82249801Y-122807917D01*
X82245463Y-122802022D01*
X82111404Y-122688131D01*
X82026747Y-122644903D01*
X81961256Y-122611461D01*
X81961254Y-122611460D01*
X81954740Y-122608134D01*
X81947635Y-122606395D01*
X81947631Y-122606394D01*
X81853533Y-122583369D01*
X81783875Y-122566324D01*
X81778273Y-122565976D01*
X81778270Y-122565976D01*
X81772532Y-122565620D01*
X81772523Y-122565620D01*
X81770593Y-122565500D01*
X81047115Y-122565500D01*
X81043481Y-122565924D01*
X81043476Y-122565924D01*
X80922550Y-122580023D01*
X80915277Y-122580871D01*
X80908395Y-122583369D01*
X80840169Y-122608134D01*
X80749927Y-122640890D01*
X80602819Y-122737338D01*
X80481845Y-122865042D01*
X80479814Y-122868539D01*
X80424068Y-122910296D01*
X80353254Y-122915381D01*
X80290931Y-122881375D01*
X80256888Y-122819073D01*
X80254000Y-122792253D01*
X80254000Y-121243724D01*
X86986309Y-121243724D01*
X86987473Y-121252626D01*
X86987473Y-121252629D01*
X86994387Y-121305500D01*
X87005195Y-121388152D01*
X87008809Y-121396365D01*
X87008810Y-121396369D01*
X87009237Y-121397339D01*
X87063859Y-121521474D01*
X87069634Y-121528344D01*
X87069635Y-121528346D01*
X87127975Y-121597750D01*
X87157583Y-121632973D01*
X87165060Y-121637950D01*
X87271361Y-121708710D01*
X87271363Y-121708711D01*
X87278834Y-121713684D01*
X87287401Y-121716361D01*
X87287402Y-121716361D01*
X87303777Y-121721477D01*
X87417864Y-121757121D01*
X87563498Y-121759790D01*
X87668763Y-121731091D01*
X87695363Y-121723839D01*
X87695364Y-121723839D01*
X87704026Y-121721477D01*
X87712266Y-121716418D01*
X87820502Y-121649961D01*
X87828154Y-121645263D01*
X87834774Y-121637950D01*
X87919873Y-121543934D01*
X87919874Y-121543933D01*
X87925901Y-121537274D01*
X87947905Y-121491859D01*
X87985495Y-121414272D01*
X87985495Y-121414271D01*
X87989410Y-121406191D01*
X88013576Y-121262552D01*
X88013729Y-121250000D01*
X87993080Y-121105813D01*
X87989362Y-121097635D01*
X87936508Y-120981390D01*
X87936507Y-120981388D01*
X87932792Y-120973218D01*
X87837713Y-120862873D01*
X87715485Y-120783648D01*
X87575934Y-120741914D01*
X87566958Y-120741859D01*
X87566957Y-120741859D01*
X87505644Y-120741485D01*
X87430279Y-120741024D01*
X87290229Y-120781051D01*
X87167042Y-120858776D01*
X87161100Y-120865504D01*
X87118832Y-120913363D01*
X87070622Y-120967951D01*
X87008719Y-121099800D01*
X86986309Y-121243724D01*
X80254000Y-121243724D01*
X80254000Y-120477340D01*
X93719925Y-120477340D01*
X93721089Y-120486242D01*
X93721089Y-120486245D01*
X93732712Y-120575130D01*
X93738811Y-120621768D01*
X93742425Y-120629981D01*
X93742426Y-120629985D01*
X93742853Y-120630955D01*
X93797475Y-120755090D01*
X93803250Y-120761960D01*
X93803251Y-120761962D01*
X93885419Y-120859713D01*
X93891199Y-120866589D01*
X93898676Y-120871566D01*
X94004977Y-120942326D01*
X94004979Y-120942327D01*
X94012450Y-120947300D01*
X94151480Y-120990737D01*
X94297114Y-120993406D01*
X94415158Y-120961223D01*
X94428979Y-120957455D01*
X94428980Y-120957455D01*
X94437642Y-120955093D01*
X94445975Y-120949977D01*
X94554118Y-120883577D01*
X94561770Y-120878879D01*
X94568390Y-120871566D01*
X94653489Y-120777550D01*
X94653490Y-120777549D01*
X94659517Y-120770890D01*
X94673583Y-120741859D01*
X94719111Y-120647888D01*
X94719111Y-120647887D01*
X94723026Y-120639807D01*
X94747192Y-120496168D01*
X94747345Y-120483616D01*
X94726696Y-120339429D01*
X94722978Y-120331251D01*
X94670124Y-120215006D01*
X94670123Y-120215004D01*
X94666408Y-120206834D01*
X94571329Y-120096489D01*
X94449101Y-120017264D01*
X94309550Y-119975530D01*
X94300574Y-119975475D01*
X94300573Y-119975475D01*
X94239260Y-119975101D01*
X94163895Y-119974640D01*
X94023845Y-120014667D01*
X94016258Y-120019454D01*
X94016256Y-120019455D01*
X94011993Y-120022145D01*
X93900658Y-120092392D01*
X93804238Y-120201567D01*
X93742335Y-120333416D01*
X93719925Y-120477340D01*
X80254000Y-120477340D01*
X80254000Y-119743724D01*
X84736309Y-119743724D01*
X84737473Y-119752626D01*
X84737473Y-119752629D01*
X84749096Y-119841514D01*
X84755195Y-119888152D01*
X84758809Y-119896365D01*
X84758810Y-119896369D01*
X84759237Y-119897339D01*
X84813859Y-120021474D01*
X84819634Y-120028344D01*
X84819635Y-120028346D01*
X84827140Y-120037274D01*
X84907583Y-120132973D01*
X84915060Y-120137950D01*
X85021361Y-120208710D01*
X85021363Y-120208711D01*
X85028834Y-120213684D01*
X85167864Y-120257121D01*
X85313498Y-120259790D01*
X85383762Y-120240634D01*
X85445363Y-120223839D01*
X85445364Y-120223839D01*
X85454026Y-120221477D01*
X85462359Y-120216361D01*
X85570502Y-120149961D01*
X85578154Y-120145263D01*
X85584774Y-120137950D01*
X85669873Y-120043934D01*
X85669874Y-120043933D01*
X85675901Y-120037274D01*
X85684535Y-120019455D01*
X85735495Y-119914272D01*
X85735495Y-119914271D01*
X85739410Y-119906191D01*
X85763576Y-119762552D01*
X85763729Y-119750000D01*
X85743080Y-119605813D01*
X85739362Y-119597635D01*
X85686508Y-119481390D01*
X85686507Y-119481388D01*
X85682792Y-119473218D01*
X85587713Y-119362873D01*
X85465485Y-119283648D01*
X85325934Y-119241914D01*
X85316958Y-119241859D01*
X85316957Y-119241859D01*
X85255644Y-119241485D01*
X85180279Y-119241024D01*
X85040229Y-119281051D01*
X84917042Y-119358776D01*
X84820622Y-119467951D01*
X84758719Y-119599800D01*
X84736309Y-119743724D01*
X80254000Y-119743724D01*
X80254000Y-118743724D01*
X87486309Y-118743724D01*
X87487473Y-118752626D01*
X87487473Y-118752629D01*
X87499096Y-118841514D01*
X87505195Y-118888152D01*
X87508809Y-118896365D01*
X87508810Y-118896369D01*
X87509237Y-118897339D01*
X87563859Y-119021474D01*
X87569634Y-119028344D01*
X87569635Y-119028346D01*
X87577140Y-119037274D01*
X87657583Y-119132973D01*
X87665060Y-119137950D01*
X87771361Y-119208710D01*
X87771363Y-119208711D01*
X87778834Y-119213684D01*
X87917864Y-119257121D01*
X88063498Y-119259790D01*
X88133762Y-119240633D01*
X88195363Y-119223839D01*
X88195364Y-119223839D01*
X88204026Y-119221477D01*
X88212359Y-119216361D01*
X88320502Y-119149961D01*
X88328154Y-119145263D01*
X88334774Y-119137950D01*
X88419873Y-119043934D01*
X88419874Y-119043933D01*
X88425901Y-119037274D01*
X88489410Y-118906191D01*
X88513576Y-118762552D01*
X88513729Y-118750000D01*
X88493080Y-118605813D01*
X88489362Y-118597635D01*
X88436508Y-118481390D01*
X88436507Y-118481388D01*
X88432792Y-118473218D01*
X88422457Y-118461223D01*
X88391535Y-118425337D01*
X88362221Y-118360674D01*
X88372520Y-118290429D01*
X88419162Y-118236902D01*
X88437686Y-118228694D01*
X88437127Y-118227403D01*
X88445364Y-118223839D01*
X88454026Y-118221477D01*
X88466719Y-118213684D01*
X88570502Y-118149961D01*
X88578154Y-118145263D01*
X88589279Y-118132973D01*
X88669873Y-118043934D01*
X88669874Y-118043933D01*
X88675901Y-118037274D01*
X88739410Y-117906191D01*
X88763576Y-117762552D01*
X88763729Y-117750000D01*
X88743080Y-117605813D01*
X88739362Y-117597635D01*
X88686508Y-117481390D01*
X88686507Y-117481388D01*
X88682792Y-117473218D01*
X88587713Y-117362873D01*
X88465485Y-117283648D01*
X88325934Y-117241914D01*
X88316958Y-117241859D01*
X88316957Y-117241859D01*
X88255644Y-117241485D01*
X88180279Y-117241024D01*
X88040229Y-117281051D01*
X87917042Y-117358776D01*
X87820622Y-117467951D01*
X87816808Y-117476074D01*
X87816807Y-117476076D01*
X87762533Y-117591676D01*
X87758719Y-117599800D01*
X87757339Y-117608665D01*
X87757338Y-117608667D01*
X87738181Y-117731702D01*
X87736309Y-117743724D01*
X87737473Y-117752626D01*
X87737473Y-117752629D01*
X87749096Y-117841514D01*
X87755195Y-117888152D01*
X87758809Y-117896365D01*
X87758810Y-117896369D01*
X87798567Y-117986722D01*
X87813859Y-118021474D01*
X87819634Y-118028344D01*
X87819635Y-118028346D01*
X87860129Y-118076519D01*
X87888650Y-118141534D01*
X87877494Y-118211649D01*
X87830202Y-118264602D01*
X87807033Y-118274874D01*
X87807053Y-118274919D01*
X87798857Y-118278585D01*
X87790229Y-118281051D01*
X87782642Y-118285838D01*
X87782640Y-118285839D01*
X87716377Y-118327648D01*
X87667042Y-118358776D01*
X87570622Y-118467951D01*
X87566808Y-118476074D01*
X87566807Y-118476076D01*
X87512533Y-118591676D01*
X87508719Y-118599800D01*
X87486309Y-118743724D01*
X80254000Y-118743724D01*
X80254000Y-115200567D01*
X80274002Y-115132446D01*
X80327658Y-115085953D01*
X80397932Y-115075849D01*
X80462512Y-115105343D01*
X80481481Y-115125884D01*
X80522741Y-115181949D01*
X80534537Y-115197978D01*
X80668596Y-115311869D01*
X80749846Y-115353358D01*
X80798738Y-115378323D01*
X80825260Y-115391866D01*
X80832365Y-115393605D01*
X80832369Y-115393606D01*
X80914026Y-115413587D01*
X80996125Y-115433676D01*
X81001727Y-115434024D01*
X81001730Y-115434024D01*
X81007468Y-115434380D01*
X81007477Y-115434380D01*
X81009407Y-115434500D01*
X81732885Y-115434500D01*
X81736519Y-115434076D01*
X81736524Y-115434076D01*
X81857450Y-115419977D01*
X81864723Y-115419129D01*
X81919748Y-115399156D01*
X82023194Y-115361607D01*
X82030073Y-115359110D01*
X82177181Y-115262662D01*
X82298155Y-115134958D01*
X82386507Y-114982850D01*
X82437497Y-114814496D01*
X82443293Y-114721073D01*
X84261611Y-114721073D01*
X84291401Y-114894438D01*
X84360274Y-115056301D01*
X84364607Y-115062189D01*
X84364610Y-115062194D01*
X84460195Y-115192079D01*
X84460199Y-115192083D01*
X84464537Y-115197978D01*
X84598596Y-115311869D01*
X84683253Y-115355097D01*
X84740760Y-115384462D01*
X84792333Y-115433256D01*
X84809339Y-115502185D01*
X84786379Y-115569367D01*
X84749378Y-115603134D01*
X84747750Y-115603808D01*
X84626696Y-115696696D01*
X84533808Y-115817750D01*
X84475416Y-115958720D01*
X84455500Y-116110000D01*
X84475416Y-116261280D01*
X84533808Y-116402250D01*
X84626696Y-116523304D01*
X84747750Y-116616192D01*
X84888720Y-116674584D01*
X85040000Y-116694500D01*
X85048188Y-116693422D01*
X85183092Y-116675662D01*
X85191280Y-116674584D01*
X85332250Y-116616192D01*
X85426692Y-116543724D01*
X87196309Y-116543724D01*
X87197473Y-116552626D01*
X87197473Y-116552629D01*
X87205128Y-116611165D01*
X87215195Y-116688152D01*
X87218809Y-116696365D01*
X87218810Y-116696369D01*
X87219237Y-116697339D01*
X87273859Y-116821474D01*
X87279634Y-116828344D01*
X87279635Y-116828346D01*
X87287140Y-116837274D01*
X87367583Y-116932973D01*
X87375060Y-116937950D01*
X87481361Y-117008710D01*
X87481363Y-117008711D01*
X87488834Y-117013684D01*
X87497401Y-117016361D01*
X87497402Y-117016361D01*
X87512743Y-117021154D01*
X87627864Y-117057121D01*
X87773498Y-117059790D01*
X87896985Y-117026123D01*
X87905363Y-117023839D01*
X87905364Y-117023839D01*
X87914026Y-117021477D01*
X87922359Y-117016361D01*
X88011222Y-116961799D01*
X88038154Y-116945263D01*
X88044774Y-116937950D01*
X88129873Y-116843934D01*
X88129874Y-116843933D01*
X88135901Y-116837274D01*
X88199410Y-116706191D01*
X88222703Y-116567743D01*
X88222770Y-116567344D01*
X88222770Y-116567341D01*
X88223576Y-116562552D01*
X88223729Y-116550000D01*
X88207363Y-116435718D01*
X88204354Y-116414706D01*
X88204353Y-116414703D01*
X88203080Y-116405813D01*
X88197991Y-116394620D01*
X88146508Y-116281390D01*
X88146507Y-116281388D01*
X88142792Y-116273218D01*
X88047713Y-116162873D01*
X87925485Y-116083648D01*
X87785934Y-116041914D01*
X87776958Y-116041859D01*
X87776957Y-116041859D01*
X87715644Y-116041485D01*
X87640279Y-116041024D01*
X87500229Y-116081051D01*
X87492642Y-116085838D01*
X87492640Y-116085839D01*
X87454347Y-116110000D01*
X87377042Y-116158776D01*
X87280622Y-116267951D01*
X87276808Y-116276074D01*
X87276807Y-116276076D01*
X87230623Y-116374445D01*
X87218719Y-116399800D01*
X87217339Y-116408665D01*
X87217338Y-116408667D01*
X87199489Y-116523304D01*
X87196309Y-116543724D01*
X85426692Y-116543724D01*
X85453304Y-116523304D01*
X85546192Y-116402250D01*
X85604584Y-116261280D01*
X85624500Y-116110000D01*
X85604584Y-115958720D01*
X85546192Y-115817750D01*
X85453304Y-115696696D01*
X85406084Y-115660463D01*
X85364217Y-115603125D01*
X85359995Y-115532254D01*
X85394759Y-115470351D01*
X85457471Y-115437070D01*
X85482788Y-115434500D01*
X86162885Y-115434500D01*
X86166519Y-115434076D01*
X86166524Y-115434076D01*
X86287450Y-115419977D01*
X86294723Y-115419129D01*
X86349748Y-115399156D01*
X86453194Y-115361607D01*
X86460073Y-115359110D01*
X86607181Y-115262662D01*
X86688525Y-115176793D01*
X108141264Y-115176793D01*
X108141561Y-115181946D01*
X108141561Y-115181949D01*
X108145909Y-115257350D01*
X108154085Y-115399156D01*
X108155222Y-115404202D01*
X108155223Y-115404208D01*
X108176185Y-115497220D01*
X108203052Y-115616439D01*
X108204994Y-115621221D01*
X108204995Y-115621225D01*
X108284905Y-115818020D01*
X108286849Y-115822807D01*
X108403226Y-116012717D01*
X108549058Y-116181070D01*
X108720428Y-116323344D01*
X108912734Y-116435718D01*
X109120811Y-116515175D01*
X109125879Y-116516206D01*
X109125882Y-116516207D01*
X109217526Y-116534852D01*
X109339072Y-116559581D01*
X109344247Y-116559771D01*
X109344249Y-116559771D01*
X109556491Y-116567554D01*
X109556495Y-116567554D01*
X109561655Y-116567743D01*
X109566775Y-116567087D01*
X109566777Y-116567087D01*
X109662220Y-116554860D01*
X109782582Y-116539441D01*
X109787531Y-116537956D01*
X109787537Y-116537955D01*
X109990969Y-116476922D01*
X109990968Y-116476922D01*
X109995919Y-116475437D01*
X110195939Y-116377448D01*
X110200144Y-116374448D01*
X110200150Y-116374445D01*
X110373065Y-116251106D01*
X110373067Y-116251104D01*
X110377269Y-116248107D01*
X110535039Y-116090887D01*
X110538667Y-116085839D01*
X110661994Y-115914210D01*
X110665012Y-115910010D01*
X110692268Y-115854863D01*
X110761404Y-115714976D01*
X110761405Y-115714974D01*
X110763698Y-115710334D01*
X110828447Y-115497220D01*
X110829122Y-115492094D01*
X110857082Y-115279716D01*
X110857082Y-115279710D01*
X110857519Y-115276394D01*
X110859142Y-115210000D01*
X110840892Y-114988017D01*
X110786631Y-114771995D01*
X110725633Y-114631709D01*
X110699877Y-114572473D01*
X110699875Y-114572470D01*
X110697817Y-114567736D01*
X110688165Y-114552816D01*
X110579645Y-114385070D01*
X110579640Y-114385064D01*
X110576834Y-114380726D01*
X110506746Y-114303699D01*
X110430411Y-114219808D01*
X110430409Y-114219806D01*
X110426933Y-114215986D01*
X110422882Y-114212787D01*
X110422878Y-114212783D01*
X110276698Y-114097338D01*
X110252138Y-114077942D01*
X110057144Y-113970299D01*
X109930634Y-113925500D01*
X109852059Y-113897675D01*
X109852056Y-113897674D01*
X109847187Y-113895950D01*
X109842098Y-113895043D01*
X109842096Y-113895043D01*
X109632996Y-113857796D01*
X109632990Y-113857795D01*
X109627907Y-113856890D01*
X109554094Y-113855988D01*
X109410361Y-113854232D01*
X109410359Y-113854232D01*
X109405191Y-113854169D01*
X109185022Y-113887859D01*
X108973311Y-113957057D01*
X108968723Y-113959445D01*
X108968719Y-113959447D01*
X108889108Y-114000890D01*
X108775745Y-114059903D01*
X108771612Y-114063006D01*
X108771609Y-114063008D01*
X108631879Y-114167921D01*
X108597630Y-114193636D01*
X108443748Y-114354664D01*
X108318233Y-114538663D01*
X108316060Y-114543345D01*
X108316058Y-114543348D01*
X108275043Y-114631709D01*
X108224455Y-114740691D01*
X108164932Y-114955322D01*
X108141264Y-115176793D01*
X86688525Y-115176793D01*
X86728155Y-115134958D01*
X86816507Y-114982850D01*
X86867497Y-114814496D01*
X86878389Y-114638927D01*
X86870233Y-114591459D01*
X86849839Y-114472778D01*
X86848599Y-114465562D01*
X86779726Y-114303699D01*
X86775393Y-114297811D01*
X86775390Y-114297806D01*
X86679805Y-114167921D01*
X86679801Y-114167917D01*
X86675463Y-114162022D01*
X86541404Y-114048131D01*
X86456747Y-114004903D01*
X86391256Y-113971461D01*
X86391254Y-113971460D01*
X86384740Y-113968134D01*
X86377635Y-113966395D01*
X86377631Y-113966394D01*
X86273324Y-113940871D01*
X86213875Y-113926324D01*
X86208273Y-113925976D01*
X86208270Y-113925976D01*
X86202532Y-113925620D01*
X86202523Y-113925620D01*
X86200593Y-113925500D01*
X84977115Y-113925500D01*
X84973481Y-113925924D01*
X84973476Y-113925924D01*
X84852550Y-113940023D01*
X84845277Y-113940871D01*
X84838395Y-113943369D01*
X84770169Y-113968134D01*
X84679927Y-114000890D01*
X84532819Y-114097338D01*
X84411845Y-114225042D01*
X84323493Y-114377150D01*
X84321372Y-114384152D01*
X84321371Y-114384155D01*
X84302631Y-114446030D01*
X84272503Y-114545504D01*
X84272050Y-114552813D01*
X84272049Y-114552816D01*
X84269652Y-114591459D01*
X84261611Y-114721073D01*
X82443293Y-114721073D01*
X82448389Y-114638927D01*
X82440233Y-114591459D01*
X82419839Y-114472778D01*
X82418599Y-114465562D01*
X82349726Y-114303699D01*
X82345393Y-114297811D01*
X82345390Y-114297806D01*
X82249805Y-114167921D01*
X82249801Y-114167917D01*
X82245463Y-114162022D01*
X82111404Y-114048131D01*
X82026747Y-114004903D01*
X81961256Y-113971461D01*
X81961254Y-113971460D01*
X81954740Y-113968134D01*
X81947635Y-113966395D01*
X81947631Y-113966394D01*
X81843324Y-113940871D01*
X81783875Y-113926324D01*
X81778273Y-113925976D01*
X81778270Y-113925976D01*
X81772532Y-113925620D01*
X81772523Y-113925620D01*
X81770593Y-113925500D01*
X81047115Y-113925500D01*
X81043481Y-113925924D01*
X81043476Y-113925924D01*
X80922550Y-113940023D01*
X80915277Y-113940871D01*
X80908395Y-113943369D01*
X80840169Y-113968134D01*
X80749927Y-114000890D01*
X80602819Y-114097338D01*
X80481845Y-114225042D01*
X80479814Y-114228539D01*
X80424068Y-114270296D01*
X80353254Y-114275381D01*
X80290931Y-114241375D01*
X80256888Y-114179073D01*
X80254000Y-114152253D01*
X80254000Y-109287425D01*
X80256421Y-109262844D01*
X80256555Y-109262170D01*
X80258976Y-109250000D01*
X80256555Y-109237828D01*
X80256555Y-109230246D01*
X80257162Y-109217896D01*
X80267118Y-109116812D01*
X80271935Y-109092592D01*
X80307187Y-108976383D01*
X80316631Y-108953582D01*
X80373876Y-108846483D01*
X80387594Y-108825953D01*
X80464626Y-108732091D01*
X80482091Y-108714626D01*
X80575953Y-108637594D01*
X80596483Y-108623876D01*
X80703582Y-108566631D01*
X80726383Y-108557187D01*
X80842592Y-108521935D01*
X80866812Y-108517118D01*
X80967896Y-108507162D01*
X80980246Y-108506555D01*
X80987828Y-108506555D01*
X81000000Y-108508976D01*
X81012847Y-108506421D01*
X81037425Y-108504000D01*
X111962575Y-108504000D01*
X111987153Y-108506421D01*
G37*
%TD.AperFunction*%
%TD*%
M02*
