%TF.GenerationSoftware,KiCad,Pcbnew,5.99.0-unknown-3f6811f413~130~ubuntu20.10.1*%
%TF.CreationDate,2021-09-06T21:05:41-07:00*%
%TF.ProjectId,usb_pd,7573625f-7064-42e6-9b69-6361645f7063,rev?*%
%TF.SameCoordinates,Original*%
%TF.FileFunction,Legend,Top*%
%TF.FilePolarity,Positive*%
%FSLAX46Y46*%
G04 Gerber Fmt 4.6, Leading zero omitted, Abs format (unit mm)*
G04 Created by KiCad (PCBNEW 5.99.0-unknown-3f6811f413~130~ubuntu20.10.1) date 2021-09-06 21:05:41*
%MOMM*%
%LPD*%
G01*
G04 APERTURE LIST*
%ADD10C,0.250000*%
%ADD11C,0.175000*%
%ADD12C,0.200000*%
%ADD13C,0.150000*%
%ADD14C,0.120000*%
%ADD15C,0.100000*%
G04 APERTURE END LIST*
D10*
X109023809Y-119952380D02*
X109119047Y-119952380D01*
X109214285Y-120000000D01*
X109261904Y-120047619D01*
X109309523Y-120142857D01*
X109357142Y-120333333D01*
X109357142Y-120571428D01*
X109309523Y-120761904D01*
X109261904Y-120857142D01*
X109214285Y-120904761D01*
X109119047Y-120952380D01*
X109023809Y-120952380D01*
X108928571Y-120904761D01*
X108880952Y-120857142D01*
X108833333Y-120761904D01*
X108785714Y-120571428D01*
X108785714Y-120333333D01*
X108833333Y-120142857D01*
X108880952Y-120047619D01*
X108928571Y-120000000D01*
X109023809Y-119952380D01*
X109642857Y-119952380D02*
X109976190Y-120952380D01*
X110309523Y-119952380D01*
D11*
X95866666Y-125166666D02*
X95933333Y-125166666D01*
X96000000Y-125200000D01*
X96033333Y-125233333D01*
X96066666Y-125300000D01*
X96100000Y-125433333D01*
X96100000Y-125600000D01*
X96066666Y-125733333D01*
X96033333Y-125800000D01*
X96000000Y-125833333D01*
X95933333Y-125866666D01*
X95866666Y-125866666D01*
X95800000Y-125833333D01*
X95766666Y-125800000D01*
X95733333Y-125733333D01*
X95700000Y-125600000D01*
X95700000Y-125433333D01*
X95733333Y-125300000D01*
X95766666Y-125233333D01*
X95800000Y-125200000D01*
X95866666Y-125166666D01*
X96300000Y-125166666D02*
X96533333Y-125866666D01*
X96766666Y-125166666D01*
D10*
X87702380Y-112333333D02*
X88702380Y-112000000D01*
X87702380Y-111666666D01*
X88178571Y-111000000D02*
X88226190Y-110857142D01*
X88273809Y-110809523D01*
X88369047Y-110761904D01*
X88511904Y-110761904D01*
X88607142Y-110809523D01*
X88654761Y-110857142D01*
X88702380Y-110952380D01*
X88702380Y-111333333D01*
X87702380Y-111333333D01*
X87702380Y-111000000D01*
X87750000Y-110904761D01*
X87797619Y-110857142D01*
X87892857Y-110809523D01*
X87988095Y-110809523D01*
X88083333Y-110857142D01*
X88130952Y-110904761D01*
X88178571Y-111000000D01*
X88178571Y-111333333D01*
X87702380Y-110333333D02*
X88511904Y-110333333D01*
X88607142Y-110285714D01*
X88654761Y-110238095D01*
X88702380Y-110142857D01*
X88702380Y-109952380D01*
X88654761Y-109857142D01*
X88607142Y-109809523D01*
X88511904Y-109761904D01*
X87702380Y-109761904D01*
X88654761Y-109333333D02*
X88702380Y-109190476D01*
X88702380Y-108952380D01*
X88654761Y-108857142D01*
X88607142Y-108809523D01*
X88511904Y-108761904D01*
X88416666Y-108761904D01*
X88321428Y-108809523D01*
X88273809Y-108857142D01*
X88226190Y-108952380D01*
X88178571Y-109142857D01*
X88130952Y-109238095D01*
X88083333Y-109285714D01*
X87988095Y-109333333D01*
X87892857Y-109333333D01*
X87797619Y-109285714D01*
X87750000Y-109238095D01*
X87702380Y-109142857D01*
X87702380Y-108904761D01*
X87750000Y-108761904D01*
X108416666Y-111952380D02*
X108750000Y-112952380D01*
X109083333Y-111952380D01*
X109750000Y-112428571D02*
X109892857Y-112476190D01*
X109940476Y-112523809D01*
X109988095Y-112619047D01*
X109988095Y-112761904D01*
X109940476Y-112857142D01*
X109892857Y-112904761D01*
X109797619Y-112952380D01*
X109416666Y-112952380D01*
X109416666Y-111952380D01*
X109750000Y-111952380D01*
X109845238Y-112000000D01*
X109892857Y-112047619D01*
X109940476Y-112142857D01*
X109940476Y-112238095D01*
X109892857Y-112333333D01*
X109845238Y-112380952D01*
X109750000Y-112428571D01*
X109416666Y-112428571D01*
X110416666Y-111952380D02*
X110416666Y-112761904D01*
X110464285Y-112857142D01*
X110511904Y-112904761D01*
X110607142Y-112952380D01*
X110797619Y-112952380D01*
X110892857Y-112904761D01*
X110940476Y-112857142D01*
X110988095Y-112761904D01*
X110988095Y-111952380D01*
X111416666Y-112904761D02*
X111559523Y-112952380D01*
X111797619Y-112952380D01*
X111892857Y-112904761D01*
X111940476Y-112857142D01*
X111988095Y-112761904D01*
X111988095Y-112666666D01*
X111940476Y-112571428D01*
X111892857Y-112523809D01*
X111797619Y-112476190D01*
X111607142Y-112428571D01*
X111511904Y-112380952D01*
X111464285Y-112333333D01*
X111416666Y-112238095D01*
X111416666Y-112142857D01*
X111464285Y-112047619D01*
X111511904Y-112000000D01*
X111607142Y-111952380D01*
X111845238Y-111952380D01*
X111988095Y-112000000D01*
D11*
X80466666Y-110683333D02*
X80500000Y-110650000D01*
X80566666Y-110616666D01*
X80733333Y-110616666D01*
X80800000Y-110650000D01*
X80833333Y-110683333D01*
X80866666Y-110750000D01*
X80866666Y-110816666D01*
X80833333Y-110916666D01*
X80433333Y-111316666D01*
X80866666Y-111316666D01*
X81300000Y-110616666D02*
X81366666Y-110616666D01*
X81433333Y-110650000D01*
X81466666Y-110683333D01*
X81500000Y-110750000D01*
X81533333Y-110883333D01*
X81533333Y-111050000D01*
X81500000Y-111183333D01*
X81466666Y-111250000D01*
X81433333Y-111283333D01*
X81366666Y-111316666D01*
X81300000Y-111316666D01*
X81233333Y-111283333D01*
X81200000Y-111250000D01*
X81166666Y-111183333D01*
X81133333Y-111050000D01*
X81133333Y-110883333D01*
X81166666Y-110750000D01*
X81200000Y-110683333D01*
X81233333Y-110650000D01*
X81300000Y-110616666D01*
X81800000Y-110683333D02*
X81833333Y-110650000D01*
X81900000Y-110616666D01*
X82066666Y-110616666D01*
X82133333Y-110650000D01*
X82166666Y-110683333D01*
X82200000Y-110750000D01*
X82200000Y-110816666D01*
X82166666Y-110916666D01*
X81766666Y-111316666D01*
X82200000Y-111316666D01*
X82866666Y-111316666D02*
X82466666Y-111316666D01*
X82666666Y-111316666D02*
X82666666Y-110616666D01*
X82600000Y-110716666D01*
X82533333Y-110783333D01*
X82466666Y-110816666D01*
X83166666Y-111250000D02*
X83200000Y-111283333D01*
X83166666Y-111316666D01*
X83133333Y-111283333D01*
X83166666Y-111250000D01*
X83166666Y-111316666D01*
X83633333Y-110616666D02*
X83700000Y-110616666D01*
X83766666Y-110650000D01*
X83800000Y-110683333D01*
X83833333Y-110750000D01*
X83866666Y-110883333D01*
X83866666Y-111050000D01*
X83833333Y-111183333D01*
X83800000Y-111250000D01*
X83766666Y-111283333D01*
X83700000Y-111316666D01*
X83633333Y-111316666D01*
X83566666Y-111283333D01*
X83533333Y-111250000D01*
X83500000Y-111183333D01*
X83466666Y-111050000D01*
X83466666Y-110883333D01*
X83500000Y-110750000D01*
X83533333Y-110683333D01*
X83566666Y-110650000D01*
X83633333Y-110616666D01*
X84200000Y-111316666D02*
X84333333Y-111316666D01*
X84400000Y-111283333D01*
X84433333Y-111250000D01*
X84500000Y-111150000D01*
X84533333Y-111016666D01*
X84533333Y-110750000D01*
X84500000Y-110683333D01*
X84466666Y-110650000D01*
X84400000Y-110616666D01*
X84266666Y-110616666D01*
X84200000Y-110650000D01*
X84166666Y-110683333D01*
X84133333Y-110750000D01*
X84133333Y-110916666D01*
X84166666Y-110983333D01*
X84200000Y-111016666D01*
X84266666Y-111050000D01*
X84400000Y-111050000D01*
X84466666Y-111016666D01*
X84500000Y-110983333D01*
X84533333Y-110916666D01*
D12*
X99869047Y-123073809D02*
X99983333Y-123111904D01*
X100173809Y-123111904D01*
X100250000Y-123073809D01*
X100288095Y-123035714D01*
X100326190Y-122959523D01*
X100326190Y-122883333D01*
X100288095Y-122807142D01*
X100250000Y-122769047D01*
X100173809Y-122730952D01*
X100021428Y-122692857D01*
X99945238Y-122654761D01*
X99907142Y-122616666D01*
X99869047Y-122540476D01*
X99869047Y-122464285D01*
X99907142Y-122388095D01*
X99945238Y-122350000D01*
X100021428Y-122311904D01*
X100211904Y-122311904D01*
X100326190Y-122350000D01*
X100669047Y-123111904D02*
X100669047Y-122311904D01*
X100859523Y-122311904D01*
X100973809Y-122350000D01*
X101050000Y-122426190D01*
X101088095Y-122502380D01*
X101126190Y-122654761D01*
X101126190Y-122769047D01*
X101088095Y-122921428D01*
X101050000Y-122997619D01*
X100973809Y-123073809D01*
X100859523Y-123111904D01*
X100669047Y-123111904D01*
X101430952Y-122883333D02*
X101811904Y-122883333D01*
X101354761Y-123111904D02*
X101621428Y-122311904D01*
X101888095Y-123111904D01*
X102726190Y-123073809D02*
X102840476Y-123111904D01*
X103030952Y-123111904D01*
X103107142Y-123073809D01*
X103145238Y-123035714D01*
X103183333Y-122959523D01*
X103183333Y-122883333D01*
X103145238Y-122807142D01*
X103107142Y-122769047D01*
X103030952Y-122730952D01*
X102878571Y-122692857D01*
X102802380Y-122654761D01*
X102764285Y-122616666D01*
X102726190Y-122540476D01*
X102726190Y-122464285D01*
X102764285Y-122388095D01*
X102802380Y-122350000D01*
X102878571Y-122311904D01*
X103069047Y-122311904D01*
X103183333Y-122350000D01*
X103983333Y-123035714D02*
X103945238Y-123073809D01*
X103830952Y-123111904D01*
X103754761Y-123111904D01*
X103640476Y-123073809D01*
X103564285Y-122997619D01*
X103526190Y-122921428D01*
X103488095Y-122769047D01*
X103488095Y-122654761D01*
X103526190Y-122502380D01*
X103564285Y-122426190D01*
X103640476Y-122350000D01*
X103754761Y-122311904D01*
X103830952Y-122311904D01*
X103945238Y-122350000D01*
X103983333Y-122388095D01*
X104707142Y-123111904D02*
X104326190Y-123111904D01*
X104326190Y-122311904D01*
D10*
X80857142Y-124702380D02*
X80857142Y-125511904D01*
X80904761Y-125607142D01*
X80952380Y-125654761D01*
X81047619Y-125702380D01*
X81238095Y-125702380D01*
X81333333Y-125654761D01*
X81380952Y-125607142D01*
X81428571Y-125511904D01*
X81428571Y-124702380D01*
X81857142Y-125654761D02*
X82000000Y-125702380D01*
X82238095Y-125702380D01*
X82333333Y-125654761D01*
X82380952Y-125607142D01*
X82428571Y-125511904D01*
X82428571Y-125416666D01*
X82380952Y-125321428D01*
X82333333Y-125273809D01*
X82238095Y-125226190D01*
X82047619Y-125178571D01*
X81952380Y-125130952D01*
X81904761Y-125083333D01*
X81857142Y-124988095D01*
X81857142Y-124892857D01*
X81904761Y-124797619D01*
X81952380Y-124750000D01*
X82047619Y-124702380D01*
X82285714Y-124702380D01*
X82428571Y-124750000D01*
X83190476Y-125178571D02*
X83333333Y-125226190D01*
X83380952Y-125273809D01*
X83428571Y-125369047D01*
X83428571Y-125511904D01*
X83380952Y-125607142D01*
X83333333Y-125654761D01*
X83238095Y-125702380D01*
X82857142Y-125702380D01*
X82857142Y-124702380D01*
X83190476Y-124702380D01*
X83285714Y-124750000D01*
X83333333Y-124797619D01*
X83380952Y-124892857D01*
X83380952Y-124988095D01*
X83333333Y-125083333D01*
X83285714Y-125130952D01*
X83190476Y-125178571D01*
X82857142Y-125178571D01*
X84619047Y-125702380D02*
X84619047Y-124702380D01*
X85000000Y-124702380D01*
X85095238Y-124750000D01*
X85142857Y-124797619D01*
X85190476Y-124892857D01*
X85190476Y-125035714D01*
X85142857Y-125130952D01*
X85095238Y-125178571D01*
X85000000Y-125226190D01*
X84619047Y-125226190D01*
X85619047Y-125702380D02*
X85619047Y-124702380D01*
X85857142Y-124702380D01*
X86000000Y-124750000D01*
X86095238Y-124845238D01*
X86142857Y-124940476D01*
X86190476Y-125130952D01*
X86190476Y-125273809D01*
X86142857Y-125464285D01*
X86095238Y-125559523D01*
X86000000Y-125654761D01*
X85857142Y-125702380D01*
X85619047Y-125702380D01*
D13*
%TO.C,D107*%
X109066666Y-111183333D02*
X108366666Y-111183333D01*
X108366666Y-111016666D01*
X108400000Y-110916666D01*
X108466666Y-110850000D01*
X108533333Y-110816666D01*
X108666666Y-110783333D01*
X108766666Y-110783333D01*
X108900000Y-110816666D01*
X108966666Y-110850000D01*
X109033333Y-110916666D01*
X109066666Y-111016666D01*
X109066666Y-111183333D01*
X109066666Y-110116666D02*
X109066666Y-110516666D01*
X109066666Y-110316666D02*
X108366666Y-110316666D01*
X108466666Y-110383333D01*
X108533333Y-110450000D01*
X108566666Y-110516666D01*
X108366666Y-109683333D02*
X108366666Y-109616666D01*
X108400000Y-109550000D01*
X108433333Y-109516666D01*
X108500000Y-109483333D01*
X108633333Y-109450000D01*
X108800000Y-109450000D01*
X108933333Y-109483333D01*
X109000000Y-109516666D01*
X109033333Y-109550000D01*
X109066666Y-109616666D01*
X109066666Y-109683333D01*
X109033333Y-109750000D01*
X109000000Y-109783333D01*
X108933333Y-109816666D01*
X108800000Y-109850000D01*
X108633333Y-109850000D01*
X108500000Y-109816666D01*
X108433333Y-109783333D01*
X108400000Y-109750000D01*
X108366666Y-109683333D01*
X108366666Y-109216666D02*
X108366666Y-108750000D01*
X109066666Y-109050000D01*
%TO.C,C103*%
X93216666Y-117500000D02*
X93183333Y-117533333D01*
X93083333Y-117566666D01*
X93016666Y-117566666D01*
X92916666Y-117533333D01*
X92850000Y-117466666D01*
X92816666Y-117400000D01*
X92783333Y-117266666D01*
X92783333Y-117166666D01*
X92816666Y-117033333D01*
X92850000Y-116966666D01*
X92916666Y-116900000D01*
X93016666Y-116866666D01*
X93083333Y-116866666D01*
X93183333Y-116900000D01*
X93216666Y-116933333D01*
X93883333Y-117566666D02*
X93483333Y-117566666D01*
X93683333Y-117566666D02*
X93683333Y-116866666D01*
X93616666Y-116966666D01*
X93550000Y-117033333D01*
X93483333Y-117066666D01*
X94316666Y-116866666D02*
X94383333Y-116866666D01*
X94450000Y-116900000D01*
X94483333Y-116933333D01*
X94516666Y-117000000D01*
X94550000Y-117133333D01*
X94550000Y-117300000D01*
X94516666Y-117433333D01*
X94483333Y-117500000D01*
X94450000Y-117533333D01*
X94383333Y-117566666D01*
X94316666Y-117566666D01*
X94250000Y-117533333D01*
X94216666Y-117500000D01*
X94183333Y-117433333D01*
X94150000Y-117300000D01*
X94150000Y-117133333D01*
X94183333Y-117000000D01*
X94216666Y-116933333D01*
X94250000Y-116900000D01*
X94316666Y-116866666D01*
X94783333Y-116866666D02*
X95216666Y-116866666D01*
X94983333Y-117133333D01*
X95083333Y-117133333D01*
X95150000Y-117166666D01*
X95183333Y-117200000D01*
X95216666Y-117266666D01*
X95216666Y-117433333D01*
X95183333Y-117500000D01*
X95150000Y-117533333D01*
X95083333Y-117566666D01*
X94883333Y-117566666D01*
X94816666Y-117533333D01*
X94783333Y-117500000D01*
%TO.C,R109*%
X102466666Y-120316666D02*
X102233333Y-119983333D01*
X102066666Y-120316666D02*
X102066666Y-119616666D01*
X102333333Y-119616666D01*
X102400000Y-119650000D01*
X102433333Y-119683333D01*
X102466666Y-119750000D01*
X102466666Y-119850000D01*
X102433333Y-119916666D01*
X102400000Y-119950000D01*
X102333333Y-119983333D01*
X102066666Y-119983333D01*
X103133333Y-120316666D02*
X102733333Y-120316666D01*
X102933333Y-120316666D02*
X102933333Y-119616666D01*
X102866666Y-119716666D01*
X102800000Y-119783333D01*
X102733333Y-119816666D01*
X103566666Y-119616666D02*
X103633333Y-119616666D01*
X103700000Y-119650000D01*
X103733333Y-119683333D01*
X103766666Y-119750000D01*
X103800000Y-119883333D01*
X103800000Y-120050000D01*
X103766666Y-120183333D01*
X103733333Y-120250000D01*
X103700000Y-120283333D01*
X103633333Y-120316666D01*
X103566666Y-120316666D01*
X103500000Y-120283333D01*
X103466666Y-120250000D01*
X103433333Y-120183333D01*
X103400000Y-120050000D01*
X103400000Y-119883333D01*
X103433333Y-119750000D01*
X103466666Y-119683333D01*
X103500000Y-119650000D01*
X103566666Y-119616666D01*
X104133333Y-120316666D02*
X104266666Y-120316666D01*
X104333333Y-120283333D01*
X104366666Y-120250000D01*
X104433333Y-120150000D01*
X104466666Y-120016666D01*
X104466666Y-119750000D01*
X104433333Y-119683333D01*
X104400000Y-119650000D01*
X104333333Y-119616666D01*
X104200000Y-119616666D01*
X104133333Y-119650000D01*
X104100000Y-119683333D01*
X104066666Y-119750000D01*
X104066666Y-119916666D01*
X104100000Y-119983333D01*
X104133333Y-120016666D01*
X104200000Y-120050000D01*
X104333333Y-120050000D01*
X104400000Y-120016666D01*
X104433333Y-119983333D01*
X104466666Y-119916666D01*
%TO.C,D106*%
X94566666Y-112433333D02*
X93866666Y-112433333D01*
X93866666Y-112266666D01*
X93900000Y-112166666D01*
X93966666Y-112100000D01*
X94033333Y-112066666D01*
X94166666Y-112033333D01*
X94266666Y-112033333D01*
X94400000Y-112066666D01*
X94466666Y-112100000D01*
X94533333Y-112166666D01*
X94566666Y-112266666D01*
X94566666Y-112433333D01*
X94566666Y-111366666D02*
X94566666Y-111766666D01*
X94566666Y-111566666D02*
X93866666Y-111566666D01*
X93966666Y-111633333D01*
X94033333Y-111700000D01*
X94066666Y-111766666D01*
X93866666Y-110933333D02*
X93866666Y-110866666D01*
X93900000Y-110800000D01*
X93933333Y-110766666D01*
X94000000Y-110733333D01*
X94133333Y-110700000D01*
X94300000Y-110700000D01*
X94433333Y-110733333D01*
X94500000Y-110766666D01*
X94533333Y-110800000D01*
X94566666Y-110866666D01*
X94566666Y-110933333D01*
X94533333Y-111000000D01*
X94500000Y-111033333D01*
X94433333Y-111066666D01*
X94300000Y-111100000D01*
X94133333Y-111100000D01*
X94000000Y-111066666D01*
X93933333Y-111033333D01*
X93900000Y-111000000D01*
X93866666Y-110933333D01*
X93866666Y-110100000D02*
X93866666Y-110233333D01*
X93900000Y-110300000D01*
X93933333Y-110333333D01*
X94033333Y-110400000D01*
X94166666Y-110433333D01*
X94433333Y-110433333D01*
X94500000Y-110400000D01*
X94533333Y-110366666D01*
X94566666Y-110300000D01*
X94566666Y-110166666D01*
X94533333Y-110100000D01*
X94500000Y-110066666D01*
X94433333Y-110033333D01*
X94266666Y-110033333D01*
X94200000Y-110066666D01*
X94166666Y-110100000D01*
X94133333Y-110166666D01*
X94133333Y-110300000D01*
X94166666Y-110366666D01*
X94200000Y-110400000D01*
X94266666Y-110433333D01*
%TO.C,R103*%
X96966666Y-122816666D02*
X96733333Y-122483333D01*
X96566666Y-122816666D02*
X96566666Y-122116666D01*
X96833333Y-122116666D01*
X96900000Y-122150000D01*
X96933333Y-122183333D01*
X96966666Y-122250000D01*
X96966666Y-122350000D01*
X96933333Y-122416666D01*
X96900000Y-122450000D01*
X96833333Y-122483333D01*
X96566666Y-122483333D01*
X97633333Y-122816666D02*
X97233333Y-122816666D01*
X97433333Y-122816666D02*
X97433333Y-122116666D01*
X97366666Y-122216666D01*
X97300000Y-122283333D01*
X97233333Y-122316666D01*
X98066666Y-122116666D02*
X98133333Y-122116666D01*
X98200000Y-122150000D01*
X98233333Y-122183333D01*
X98266666Y-122250000D01*
X98300000Y-122383333D01*
X98300000Y-122550000D01*
X98266666Y-122683333D01*
X98233333Y-122750000D01*
X98200000Y-122783333D01*
X98133333Y-122816666D01*
X98066666Y-122816666D01*
X98000000Y-122783333D01*
X97966666Y-122750000D01*
X97933333Y-122683333D01*
X97900000Y-122550000D01*
X97900000Y-122383333D01*
X97933333Y-122250000D01*
X97966666Y-122183333D01*
X98000000Y-122150000D01*
X98066666Y-122116666D01*
X98533333Y-122116666D02*
X98966666Y-122116666D01*
X98733333Y-122383333D01*
X98833333Y-122383333D01*
X98900000Y-122416666D01*
X98933333Y-122450000D01*
X98966666Y-122516666D01*
X98966666Y-122683333D01*
X98933333Y-122750000D01*
X98900000Y-122783333D01*
X98833333Y-122816666D01*
X98633333Y-122816666D01*
X98566666Y-122783333D01*
X98533333Y-122750000D01*
%TO.C,C104*%
X106500000Y-121533333D02*
X106533333Y-121566666D01*
X106566666Y-121666666D01*
X106566666Y-121733333D01*
X106533333Y-121833333D01*
X106466666Y-121900000D01*
X106400000Y-121933333D01*
X106266666Y-121966666D01*
X106166666Y-121966666D01*
X106033333Y-121933333D01*
X105966666Y-121900000D01*
X105900000Y-121833333D01*
X105866666Y-121733333D01*
X105866666Y-121666666D01*
X105900000Y-121566666D01*
X105933333Y-121533333D01*
X106566666Y-120866666D02*
X106566666Y-121266666D01*
X106566666Y-121066666D02*
X105866666Y-121066666D01*
X105966666Y-121133333D01*
X106033333Y-121200000D01*
X106066666Y-121266666D01*
X105866666Y-120433333D02*
X105866666Y-120366666D01*
X105900000Y-120300000D01*
X105933333Y-120266666D01*
X106000000Y-120233333D01*
X106133333Y-120200000D01*
X106300000Y-120200000D01*
X106433333Y-120233333D01*
X106500000Y-120266666D01*
X106533333Y-120300000D01*
X106566666Y-120366666D01*
X106566666Y-120433333D01*
X106533333Y-120500000D01*
X106500000Y-120533333D01*
X106433333Y-120566666D01*
X106300000Y-120600000D01*
X106133333Y-120600000D01*
X106000000Y-120566666D01*
X105933333Y-120533333D01*
X105900000Y-120500000D01*
X105866666Y-120433333D01*
X106100000Y-119600000D02*
X106566666Y-119600000D01*
X105833333Y-119766666D02*
X106333333Y-119933333D01*
X106333333Y-119500000D01*
%TO.C,TP101*%
X89450000Y-111366666D02*
X89850000Y-111366666D01*
X89650000Y-112066666D02*
X89650000Y-111366666D01*
X90083333Y-112066666D02*
X90083333Y-111366666D01*
X90350000Y-111366666D01*
X90416666Y-111400000D01*
X90450000Y-111433333D01*
X90483333Y-111500000D01*
X90483333Y-111600000D01*
X90450000Y-111666666D01*
X90416666Y-111700000D01*
X90350000Y-111733333D01*
X90083333Y-111733333D01*
X91150000Y-112066666D02*
X90750000Y-112066666D01*
X90950000Y-112066666D02*
X90950000Y-111366666D01*
X90883333Y-111466666D01*
X90816666Y-111533333D01*
X90750000Y-111566666D01*
X91583333Y-111366666D02*
X91650000Y-111366666D01*
X91716666Y-111400000D01*
X91750000Y-111433333D01*
X91783333Y-111500000D01*
X91816666Y-111633333D01*
X91816666Y-111800000D01*
X91783333Y-111933333D01*
X91750000Y-112000000D01*
X91716666Y-112033333D01*
X91650000Y-112066666D01*
X91583333Y-112066666D01*
X91516666Y-112033333D01*
X91483333Y-112000000D01*
X91450000Y-111933333D01*
X91416666Y-111800000D01*
X91416666Y-111633333D01*
X91450000Y-111500000D01*
X91483333Y-111433333D01*
X91516666Y-111400000D01*
X91583333Y-111366666D01*
X92483333Y-112066666D02*
X92083333Y-112066666D01*
X92283333Y-112066666D02*
X92283333Y-111366666D01*
X92216666Y-111466666D01*
X92150000Y-111533333D01*
X92083333Y-111566666D01*
%TO.C,TP102*%
X108700000Y-121866666D02*
X109100000Y-121866666D01*
X108900000Y-122566666D02*
X108900000Y-121866666D01*
X109333333Y-122566666D02*
X109333333Y-121866666D01*
X109600000Y-121866666D01*
X109666666Y-121900000D01*
X109700000Y-121933333D01*
X109733333Y-122000000D01*
X109733333Y-122100000D01*
X109700000Y-122166666D01*
X109666666Y-122200000D01*
X109600000Y-122233333D01*
X109333333Y-122233333D01*
X110400000Y-122566666D02*
X110000000Y-122566666D01*
X110200000Y-122566666D02*
X110200000Y-121866666D01*
X110133333Y-121966666D01*
X110066666Y-122033333D01*
X110000000Y-122066666D01*
X110833333Y-121866666D02*
X110900000Y-121866666D01*
X110966666Y-121900000D01*
X111000000Y-121933333D01*
X111033333Y-122000000D01*
X111066666Y-122133333D01*
X111066666Y-122300000D01*
X111033333Y-122433333D01*
X111000000Y-122500000D01*
X110966666Y-122533333D01*
X110900000Y-122566666D01*
X110833333Y-122566666D01*
X110766666Y-122533333D01*
X110733333Y-122500000D01*
X110700000Y-122433333D01*
X110666666Y-122300000D01*
X110666666Y-122133333D01*
X110700000Y-122000000D01*
X110733333Y-121933333D01*
X110766666Y-121900000D01*
X110833333Y-121866666D01*
X111333333Y-121933333D02*
X111366666Y-121900000D01*
X111433333Y-121866666D01*
X111600000Y-121866666D01*
X111666666Y-121900000D01*
X111700000Y-121933333D01*
X111733333Y-122000000D01*
X111733333Y-122066666D01*
X111700000Y-122166666D01*
X111300000Y-122566666D01*
X111733333Y-122566666D01*
%TO.C,J102*%
X105350000Y-122366666D02*
X105350000Y-122866666D01*
X105316666Y-122966666D01*
X105250000Y-123033333D01*
X105150000Y-123066666D01*
X105083333Y-123066666D01*
X106050000Y-123066666D02*
X105650000Y-123066666D01*
X105850000Y-123066666D02*
X105850000Y-122366666D01*
X105783333Y-122466666D01*
X105716666Y-122533333D01*
X105650000Y-122566666D01*
X106483333Y-122366666D02*
X106550000Y-122366666D01*
X106616666Y-122400000D01*
X106650000Y-122433333D01*
X106683333Y-122500000D01*
X106716666Y-122633333D01*
X106716666Y-122800000D01*
X106683333Y-122933333D01*
X106650000Y-123000000D01*
X106616666Y-123033333D01*
X106550000Y-123066666D01*
X106483333Y-123066666D01*
X106416666Y-123033333D01*
X106383333Y-123000000D01*
X106350000Y-122933333D01*
X106316666Y-122800000D01*
X106316666Y-122633333D01*
X106350000Y-122500000D01*
X106383333Y-122433333D01*
X106416666Y-122400000D01*
X106483333Y-122366666D01*
X106983333Y-122433333D02*
X107016666Y-122400000D01*
X107083333Y-122366666D01*
X107250000Y-122366666D01*
X107316666Y-122400000D01*
X107350000Y-122433333D01*
X107383333Y-122500000D01*
X107383333Y-122566666D01*
X107350000Y-122666666D01*
X106950000Y-123066666D01*
X107383333Y-123066666D01*
%TO.C,R108*%
X102466666Y-119316666D02*
X102233333Y-118983333D01*
X102066666Y-119316666D02*
X102066666Y-118616666D01*
X102333333Y-118616666D01*
X102400000Y-118650000D01*
X102433333Y-118683333D01*
X102466666Y-118750000D01*
X102466666Y-118850000D01*
X102433333Y-118916666D01*
X102400000Y-118950000D01*
X102333333Y-118983333D01*
X102066666Y-118983333D01*
X103133333Y-119316666D02*
X102733333Y-119316666D01*
X102933333Y-119316666D02*
X102933333Y-118616666D01*
X102866666Y-118716666D01*
X102800000Y-118783333D01*
X102733333Y-118816666D01*
X103566666Y-118616666D02*
X103633333Y-118616666D01*
X103700000Y-118650000D01*
X103733333Y-118683333D01*
X103766666Y-118750000D01*
X103800000Y-118883333D01*
X103800000Y-119050000D01*
X103766666Y-119183333D01*
X103733333Y-119250000D01*
X103700000Y-119283333D01*
X103633333Y-119316666D01*
X103566666Y-119316666D01*
X103500000Y-119283333D01*
X103466666Y-119250000D01*
X103433333Y-119183333D01*
X103400000Y-119050000D01*
X103400000Y-118883333D01*
X103433333Y-118750000D01*
X103466666Y-118683333D01*
X103500000Y-118650000D01*
X103566666Y-118616666D01*
X104200000Y-118916666D02*
X104133333Y-118883333D01*
X104100000Y-118850000D01*
X104066666Y-118783333D01*
X104066666Y-118750000D01*
X104100000Y-118683333D01*
X104133333Y-118650000D01*
X104200000Y-118616666D01*
X104333333Y-118616666D01*
X104400000Y-118650000D01*
X104433333Y-118683333D01*
X104466666Y-118750000D01*
X104466666Y-118783333D01*
X104433333Y-118850000D01*
X104400000Y-118883333D01*
X104333333Y-118916666D01*
X104200000Y-118916666D01*
X104133333Y-118950000D01*
X104100000Y-118983333D01*
X104066666Y-119050000D01*
X104066666Y-119183333D01*
X104100000Y-119250000D01*
X104133333Y-119283333D01*
X104200000Y-119316666D01*
X104333333Y-119316666D01*
X104400000Y-119283333D01*
X104433333Y-119250000D01*
X104466666Y-119183333D01*
X104466666Y-119050000D01*
X104433333Y-118983333D01*
X104400000Y-118950000D01*
X104333333Y-118916666D01*
%TO.C,J103*%
X105366666Y-115650000D02*
X105866666Y-115650000D01*
X105966666Y-115683333D01*
X106033333Y-115750000D01*
X106066666Y-115850000D01*
X106066666Y-115916666D01*
X106066666Y-114950000D02*
X106066666Y-115350000D01*
X106066666Y-115150000D02*
X105366666Y-115150000D01*
X105466666Y-115216666D01*
X105533333Y-115283333D01*
X105566666Y-115350000D01*
X105366666Y-114516666D02*
X105366666Y-114450000D01*
X105400000Y-114383333D01*
X105433333Y-114350000D01*
X105500000Y-114316666D01*
X105633333Y-114283333D01*
X105800000Y-114283333D01*
X105933333Y-114316666D01*
X106000000Y-114350000D01*
X106033333Y-114383333D01*
X106066666Y-114450000D01*
X106066666Y-114516666D01*
X106033333Y-114583333D01*
X106000000Y-114616666D01*
X105933333Y-114650000D01*
X105800000Y-114683333D01*
X105633333Y-114683333D01*
X105500000Y-114650000D01*
X105433333Y-114616666D01*
X105400000Y-114583333D01*
X105366666Y-114516666D01*
X105366666Y-114050000D02*
X105366666Y-113616666D01*
X105633333Y-113850000D01*
X105633333Y-113750000D01*
X105666666Y-113683333D01*
X105700000Y-113650000D01*
X105766666Y-113616666D01*
X105933333Y-113616666D01*
X106000000Y-113650000D01*
X106033333Y-113683333D01*
X106066666Y-113750000D01*
X106066666Y-113950000D01*
X106033333Y-114016666D01*
X106000000Y-114050000D01*
%TO.C,R105*%
X92966666Y-119066666D02*
X92733333Y-118733333D01*
X92566666Y-119066666D02*
X92566666Y-118366666D01*
X92833333Y-118366666D01*
X92900000Y-118400000D01*
X92933333Y-118433333D01*
X92966666Y-118500000D01*
X92966666Y-118600000D01*
X92933333Y-118666666D01*
X92900000Y-118700000D01*
X92833333Y-118733333D01*
X92566666Y-118733333D01*
X93633333Y-119066666D02*
X93233333Y-119066666D01*
X93433333Y-119066666D02*
X93433333Y-118366666D01*
X93366666Y-118466666D01*
X93300000Y-118533333D01*
X93233333Y-118566666D01*
X94066666Y-118366666D02*
X94133333Y-118366666D01*
X94200000Y-118400000D01*
X94233333Y-118433333D01*
X94266666Y-118500000D01*
X94300000Y-118633333D01*
X94300000Y-118800000D01*
X94266666Y-118933333D01*
X94233333Y-119000000D01*
X94200000Y-119033333D01*
X94133333Y-119066666D01*
X94066666Y-119066666D01*
X94000000Y-119033333D01*
X93966666Y-119000000D01*
X93933333Y-118933333D01*
X93900000Y-118800000D01*
X93900000Y-118633333D01*
X93933333Y-118500000D01*
X93966666Y-118433333D01*
X94000000Y-118400000D01*
X94066666Y-118366666D01*
X94933333Y-118366666D02*
X94600000Y-118366666D01*
X94566666Y-118700000D01*
X94600000Y-118666666D01*
X94666666Y-118633333D01*
X94833333Y-118633333D01*
X94900000Y-118666666D01*
X94933333Y-118700000D01*
X94966666Y-118766666D01*
X94966666Y-118933333D01*
X94933333Y-119000000D01*
X94900000Y-119033333D01*
X94833333Y-119066666D01*
X94666666Y-119066666D01*
X94600000Y-119033333D01*
X94566666Y-119000000D01*
%TO.C,R112*%
X105566666Y-121533333D02*
X105233333Y-121766666D01*
X105566666Y-121933333D02*
X104866666Y-121933333D01*
X104866666Y-121666666D01*
X104900000Y-121600000D01*
X104933333Y-121566666D01*
X105000000Y-121533333D01*
X105100000Y-121533333D01*
X105166666Y-121566666D01*
X105200000Y-121600000D01*
X105233333Y-121666666D01*
X105233333Y-121933333D01*
X105566666Y-120866666D02*
X105566666Y-121266666D01*
X105566666Y-121066666D02*
X104866666Y-121066666D01*
X104966666Y-121133333D01*
X105033333Y-121200000D01*
X105066666Y-121266666D01*
X105566666Y-120200000D02*
X105566666Y-120600000D01*
X105566666Y-120400000D02*
X104866666Y-120400000D01*
X104966666Y-120466666D01*
X105033333Y-120533333D01*
X105066666Y-120600000D01*
X104933333Y-119933333D02*
X104900000Y-119900000D01*
X104866666Y-119833333D01*
X104866666Y-119666666D01*
X104900000Y-119600000D01*
X104933333Y-119566666D01*
X105000000Y-119533333D01*
X105066666Y-119533333D01*
X105166666Y-119566666D01*
X105566666Y-119966666D01*
X105566666Y-119533333D01*
%TO.C,R101*%
X85816666Y-110783333D02*
X85483333Y-111016666D01*
X85816666Y-111183333D02*
X85116666Y-111183333D01*
X85116666Y-110916666D01*
X85150000Y-110850000D01*
X85183333Y-110816666D01*
X85250000Y-110783333D01*
X85350000Y-110783333D01*
X85416666Y-110816666D01*
X85450000Y-110850000D01*
X85483333Y-110916666D01*
X85483333Y-111183333D01*
X85816666Y-110116666D02*
X85816666Y-110516666D01*
X85816666Y-110316666D02*
X85116666Y-110316666D01*
X85216666Y-110383333D01*
X85283333Y-110450000D01*
X85316666Y-110516666D01*
X85116666Y-109683333D02*
X85116666Y-109616666D01*
X85150000Y-109550000D01*
X85183333Y-109516666D01*
X85250000Y-109483333D01*
X85383333Y-109450000D01*
X85550000Y-109450000D01*
X85683333Y-109483333D01*
X85750000Y-109516666D01*
X85783333Y-109550000D01*
X85816666Y-109616666D01*
X85816666Y-109683333D01*
X85783333Y-109750000D01*
X85750000Y-109783333D01*
X85683333Y-109816666D01*
X85550000Y-109850000D01*
X85383333Y-109850000D01*
X85250000Y-109816666D01*
X85183333Y-109783333D01*
X85150000Y-109750000D01*
X85116666Y-109683333D01*
X85816666Y-108783333D02*
X85816666Y-109183333D01*
X85816666Y-108983333D02*
X85116666Y-108983333D01*
X85216666Y-109050000D01*
X85283333Y-109116666D01*
X85316666Y-109183333D01*
%TO.C,R107*%
X92316666Y-117283333D02*
X91983333Y-117516666D01*
X92316666Y-117683333D02*
X91616666Y-117683333D01*
X91616666Y-117416666D01*
X91650000Y-117350000D01*
X91683333Y-117316666D01*
X91750000Y-117283333D01*
X91850000Y-117283333D01*
X91916666Y-117316666D01*
X91950000Y-117350000D01*
X91983333Y-117416666D01*
X91983333Y-117683333D01*
X92316666Y-116616666D02*
X92316666Y-117016666D01*
X92316666Y-116816666D02*
X91616666Y-116816666D01*
X91716666Y-116883333D01*
X91783333Y-116950000D01*
X91816666Y-117016666D01*
X91616666Y-116183333D02*
X91616666Y-116116666D01*
X91650000Y-116050000D01*
X91683333Y-116016666D01*
X91750000Y-115983333D01*
X91883333Y-115950000D01*
X92050000Y-115950000D01*
X92183333Y-115983333D01*
X92250000Y-116016666D01*
X92283333Y-116050000D01*
X92316666Y-116116666D01*
X92316666Y-116183333D01*
X92283333Y-116250000D01*
X92250000Y-116283333D01*
X92183333Y-116316666D01*
X92050000Y-116350000D01*
X91883333Y-116350000D01*
X91750000Y-116316666D01*
X91683333Y-116283333D01*
X91650000Y-116250000D01*
X91616666Y-116183333D01*
X91616666Y-115716666D02*
X91616666Y-115250000D01*
X92316666Y-115550000D01*
%TO.C,J101*%
X80850000Y-112616666D02*
X80850000Y-113116666D01*
X80816666Y-113216666D01*
X80750000Y-113283333D01*
X80650000Y-113316666D01*
X80583333Y-113316666D01*
X81550000Y-113316666D02*
X81150000Y-113316666D01*
X81350000Y-113316666D02*
X81350000Y-112616666D01*
X81283333Y-112716666D01*
X81216666Y-112783333D01*
X81150000Y-112816666D01*
X81983333Y-112616666D02*
X82050000Y-112616666D01*
X82116666Y-112650000D01*
X82150000Y-112683333D01*
X82183333Y-112750000D01*
X82216666Y-112883333D01*
X82216666Y-113050000D01*
X82183333Y-113183333D01*
X82150000Y-113250000D01*
X82116666Y-113283333D01*
X82050000Y-113316666D01*
X81983333Y-113316666D01*
X81916666Y-113283333D01*
X81883333Y-113250000D01*
X81850000Y-113183333D01*
X81816666Y-113050000D01*
X81816666Y-112883333D01*
X81850000Y-112750000D01*
X81883333Y-112683333D01*
X81916666Y-112650000D01*
X81983333Y-112616666D01*
X82883333Y-113316666D02*
X82483333Y-113316666D01*
X82683333Y-113316666D02*
X82683333Y-112616666D01*
X82616666Y-112716666D01*
X82550000Y-112783333D01*
X82483333Y-112816666D01*
%TO.C,C101*%
X86750000Y-110783333D02*
X86783333Y-110816666D01*
X86816666Y-110916666D01*
X86816666Y-110983333D01*
X86783333Y-111083333D01*
X86716666Y-111150000D01*
X86650000Y-111183333D01*
X86516666Y-111216666D01*
X86416666Y-111216666D01*
X86283333Y-111183333D01*
X86216666Y-111150000D01*
X86150000Y-111083333D01*
X86116666Y-110983333D01*
X86116666Y-110916666D01*
X86150000Y-110816666D01*
X86183333Y-110783333D01*
X86816666Y-110116666D02*
X86816666Y-110516666D01*
X86816666Y-110316666D02*
X86116666Y-110316666D01*
X86216666Y-110383333D01*
X86283333Y-110450000D01*
X86316666Y-110516666D01*
X86116666Y-109683333D02*
X86116666Y-109616666D01*
X86150000Y-109550000D01*
X86183333Y-109516666D01*
X86250000Y-109483333D01*
X86383333Y-109450000D01*
X86550000Y-109450000D01*
X86683333Y-109483333D01*
X86750000Y-109516666D01*
X86783333Y-109550000D01*
X86816666Y-109616666D01*
X86816666Y-109683333D01*
X86783333Y-109750000D01*
X86750000Y-109783333D01*
X86683333Y-109816666D01*
X86550000Y-109850000D01*
X86383333Y-109850000D01*
X86250000Y-109816666D01*
X86183333Y-109783333D01*
X86150000Y-109750000D01*
X86116666Y-109683333D01*
X86816666Y-108783333D02*
X86816666Y-109183333D01*
X86816666Y-108983333D02*
X86116666Y-108983333D01*
X86216666Y-109050000D01*
X86283333Y-109116666D01*
X86316666Y-109183333D01*
%TO.C,R110*%
X99216666Y-116816666D02*
X98983333Y-116483333D01*
X98816666Y-116816666D02*
X98816666Y-116116666D01*
X99083333Y-116116666D01*
X99150000Y-116150000D01*
X99183333Y-116183333D01*
X99216666Y-116250000D01*
X99216666Y-116350000D01*
X99183333Y-116416666D01*
X99150000Y-116450000D01*
X99083333Y-116483333D01*
X98816666Y-116483333D01*
X99883333Y-116816666D02*
X99483333Y-116816666D01*
X99683333Y-116816666D02*
X99683333Y-116116666D01*
X99616666Y-116216666D01*
X99550000Y-116283333D01*
X99483333Y-116316666D01*
X100550000Y-116816666D02*
X100150000Y-116816666D01*
X100350000Y-116816666D02*
X100350000Y-116116666D01*
X100283333Y-116216666D01*
X100216666Y-116283333D01*
X100150000Y-116316666D01*
X100983333Y-116116666D02*
X101050000Y-116116666D01*
X101116666Y-116150000D01*
X101150000Y-116183333D01*
X101183333Y-116250000D01*
X101216666Y-116383333D01*
X101216666Y-116550000D01*
X101183333Y-116683333D01*
X101150000Y-116750000D01*
X101116666Y-116783333D01*
X101050000Y-116816666D01*
X100983333Y-116816666D01*
X100916666Y-116783333D01*
X100883333Y-116750000D01*
X100850000Y-116683333D01*
X100816666Y-116550000D01*
X100816666Y-116383333D01*
X100850000Y-116250000D01*
X100883333Y-116183333D01*
X100916666Y-116150000D01*
X100983333Y-116116666D01*
%TO.C,D101*%
X90066666Y-117183333D02*
X89366666Y-117183333D01*
X89366666Y-117016666D01*
X89400000Y-116916666D01*
X89466666Y-116850000D01*
X89533333Y-116816666D01*
X89666666Y-116783333D01*
X89766666Y-116783333D01*
X89900000Y-116816666D01*
X89966666Y-116850000D01*
X90033333Y-116916666D01*
X90066666Y-117016666D01*
X90066666Y-117183333D01*
X90066666Y-116116666D02*
X90066666Y-116516666D01*
X90066666Y-116316666D02*
X89366666Y-116316666D01*
X89466666Y-116383333D01*
X89533333Y-116450000D01*
X89566666Y-116516666D01*
X89366666Y-115683333D02*
X89366666Y-115616666D01*
X89400000Y-115550000D01*
X89433333Y-115516666D01*
X89500000Y-115483333D01*
X89633333Y-115450000D01*
X89800000Y-115450000D01*
X89933333Y-115483333D01*
X90000000Y-115516666D01*
X90033333Y-115550000D01*
X90066666Y-115616666D01*
X90066666Y-115683333D01*
X90033333Y-115750000D01*
X90000000Y-115783333D01*
X89933333Y-115816666D01*
X89800000Y-115850000D01*
X89633333Y-115850000D01*
X89500000Y-115816666D01*
X89433333Y-115783333D01*
X89400000Y-115750000D01*
X89366666Y-115683333D01*
X90066666Y-114783333D02*
X90066666Y-115183333D01*
X90066666Y-114983333D02*
X89366666Y-114983333D01*
X89466666Y-115050000D01*
X89533333Y-115116666D01*
X89566666Y-115183333D01*
%TO.C,FB101*%
X89750000Y-113020000D02*
X89516666Y-113020000D01*
X89516666Y-113386666D02*
X89516666Y-112686666D01*
X89850000Y-112686666D01*
X90350000Y-113020000D02*
X90450000Y-113053333D01*
X90483333Y-113086666D01*
X90516666Y-113153333D01*
X90516666Y-113253333D01*
X90483333Y-113320000D01*
X90450000Y-113353333D01*
X90383333Y-113386666D01*
X90116666Y-113386666D01*
X90116666Y-112686666D01*
X90350000Y-112686666D01*
X90416666Y-112720000D01*
X90450000Y-112753333D01*
X90483333Y-112820000D01*
X90483333Y-112886666D01*
X90450000Y-112953333D01*
X90416666Y-112986666D01*
X90350000Y-113020000D01*
X90116666Y-113020000D01*
X91183333Y-113386666D02*
X90783333Y-113386666D01*
X90983333Y-113386666D02*
X90983333Y-112686666D01*
X90916666Y-112786666D01*
X90850000Y-112853333D01*
X90783333Y-112886666D01*
X91616666Y-112686666D02*
X91683333Y-112686666D01*
X91750000Y-112720000D01*
X91783333Y-112753333D01*
X91816666Y-112820000D01*
X91850000Y-112953333D01*
X91850000Y-113120000D01*
X91816666Y-113253333D01*
X91783333Y-113320000D01*
X91750000Y-113353333D01*
X91683333Y-113386666D01*
X91616666Y-113386666D01*
X91550000Y-113353333D01*
X91516666Y-113320000D01*
X91483333Y-113253333D01*
X91450000Y-113120000D01*
X91450000Y-112953333D01*
X91483333Y-112820000D01*
X91516666Y-112753333D01*
X91550000Y-112720000D01*
X91616666Y-112686666D01*
X92516666Y-113386666D02*
X92116666Y-113386666D01*
X92316666Y-113386666D02*
X92316666Y-112686666D01*
X92250000Y-112786666D01*
X92183333Y-112853333D01*
X92116666Y-112886666D01*
%TO.C,R106*%
X97216666Y-109316666D02*
X96983333Y-108983333D01*
X96816666Y-109316666D02*
X96816666Y-108616666D01*
X97083333Y-108616666D01*
X97150000Y-108650000D01*
X97183333Y-108683333D01*
X97216666Y-108750000D01*
X97216666Y-108850000D01*
X97183333Y-108916666D01*
X97150000Y-108950000D01*
X97083333Y-108983333D01*
X96816666Y-108983333D01*
X97883333Y-109316666D02*
X97483333Y-109316666D01*
X97683333Y-109316666D02*
X97683333Y-108616666D01*
X97616666Y-108716666D01*
X97550000Y-108783333D01*
X97483333Y-108816666D01*
X98316666Y-108616666D02*
X98383333Y-108616666D01*
X98450000Y-108650000D01*
X98483333Y-108683333D01*
X98516666Y-108750000D01*
X98550000Y-108883333D01*
X98550000Y-109050000D01*
X98516666Y-109183333D01*
X98483333Y-109250000D01*
X98450000Y-109283333D01*
X98383333Y-109316666D01*
X98316666Y-109316666D01*
X98250000Y-109283333D01*
X98216666Y-109250000D01*
X98183333Y-109183333D01*
X98150000Y-109050000D01*
X98150000Y-108883333D01*
X98183333Y-108750000D01*
X98216666Y-108683333D01*
X98250000Y-108650000D01*
X98316666Y-108616666D01*
X99150000Y-108616666D02*
X99016666Y-108616666D01*
X98950000Y-108650000D01*
X98916666Y-108683333D01*
X98850000Y-108783333D01*
X98816666Y-108916666D01*
X98816666Y-109183333D01*
X98850000Y-109250000D01*
X98883333Y-109283333D01*
X98950000Y-109316666D01*
X99083333Y-109316666D01*
X99150000Y-109283333D01*
X99183333Y-109250000D01*
X99216666Y-109183333D01*
X99216666Y-109016666D01*
X99183333Y-108950000D01*
X99150000Y-108916666D01*
X99083333Y-108883333D01*
X98950000Y-108883333D01*
X98883333Y-108916666D01*
X98850000Y-108950000D01*
X98816666Y-109016666D01*
%TO.C,D105*%
X99746666Y-115683333D02*
X99046666Y-115683333D01*
X99046666Y-115516666D01*
X99080000Y-115416666D01*
X99146666Y-115350000D01*
X99213333Y-115316666D01*
X99346666Y-115283333D01*
X99446666Y-115283333D01*
X99580000Y-115316666D01*
X99646666Y-115350000D01*
X99713333Y-115416666D01*
X99746666Y-115516666D01*
X99746666Y-115683333D01*
X99746666Y-114616666D02*
X99746666Y-115016666D01*
X99746666Y-114816666D02*
X99046666Y-114816666D01*
X99146666Y-114883333D01*
X99213333Y-114950000D01*
X99246666Y-115016666D01*
X99046666Y-114183333D02*
X99046666Y-114116666D01*
X99080000Y-114050000D01*
X99113333Y-114016666D01*
X99180000Y-113983333D01*
X99313333Y-113950000D01*
X99480000Y-113950000D01*
X99613333Y-113983333D01*
X99680000Y-114016666D01*
X99713333Y-114050000D01*
X99746666Y-114116666D01*
X99746666Y-114183333D01*
X99713333Y-114250000D01*
X99680000Y-114283333D01*
X99613333Y-114316666D01*
X99480000Y-114350000D01*
X99313333Y-114350000D01*
X99180000Y-114316666D01*
X99113333Y-114283333D01*
X99080000Y-114250000D01*
X99046666Y-114183333D01*
X99046666Y-113316666D02*
X99046666Y-113650000D01*
X99380000Y-113683333D01*
X99346666Y-113650000D01*
X99313333Y-113583333D01*
X99313333Y-113416666D01*
X99346666Y-113350000D01*
X99380000Y-113316666D01*
X99446666Y-113283333D01*
X99613333Y-113283333D01*
X99680000Y-113316666D01*
X99713333Y-113350000D01*
X99746666Y-113416666D01*
X99746666Y-113583333D01*
X99713333Y-113650000D01*
X99680000Y-113683333D01*
%TO.C,U101*%
X99800000Y-121116666D02*
X99800000Y-121683333D01*
X99833333Y-121750000D01*
X99866666Y-121783333D01*
X99933333Y-121816666D01*
X100066666Y-121816666D01*
X100133333Y-121783333D01*
X100166666Y-121750000D01*
X100200000Y-121683333D01*
X100200000Y-121116666D01*
X100900000Y-121816666D02*
X100500000Y-121816666D01*
X100700000Y-121816666D02*
X100700000Y-121116666D01*
X100633333Y-121216666D01*
X100566666Y-121283333D01*
X100500000Y-121316666D01*
X101333333Y-121116666D02*
X101400000Y-121116666D01*
X101466666Y-121150000D01*
X101500000Y-121183333D01*
X101533333Y-121250000D01*
X101566666Y-121383333D01*
X101566666Y-121550000D01*
X101533333Y-121683333D01*
X101500000Y-121750000D01*
X101466666Y-121783333D01*
X101400000Y-121816666D01*
X101333333Y-121816666D01*
X101266666Y-121783333D01*
X101233333Y-121750000D01*
X101200000Y-121683333D01*
X101166666Y-121550000D01*
X101166666Y-121383333D01*
X101200000Y-121250000D01*
X101233333Y-121183333D01*
X101266666Y-121150000D01*
X101333333Y-121116666D01*
X102233333Y-121816666D02*
X101833333Y-121816666D01*
X102033333Y-121816666D02*
X102033333Y-121116666D01*
X101966666Y-121216666D01*
X101900000Y-121283333D01*
X101833333Y-121316666D01*
%TO.C,R111*%
X99216666Y-117816666D02*
X98983333Y-117483333D01*
X98816666Y-117816666D02*
X98816666Y-117116666D01*
X99083333Y-117116666D01*
X99150000Y-117150000D01*
X99183333Y-117183333D01*
X99216666Y-117250000D01*
X99216666Y-117350000D01*
X99183333Y-117416666D01*
X99150000Y-117450000D01*
X99083333Y-117483333D01*
X98816666Y-117483333D01*
X99883333Y-117816666D02*
X99483333Y-117816666D01*
X99683333Y-117816666D02*
X99683333Y-117116666D01*
X99616666Y-117216666D01*
X99550000Y-117283333D01*
X99483333Y-117316666D01*
X100550000Y-117816666D02*
X100150000Y-117816666D01*
X100350000Y-117816666D02*
X100350000Y-117116666D01*
X100283333Y-117216666D01*
X100216666Y-117283333D01*
X100150000Y-117316666D01*
X101216666Y-117816666D02*
X100816666Y-117816666D01*
X101016666Y-117816666D02*
X101016666Y-117116666D01*
X100950000Y-117216666D01*
X100883333Y-117283333D01*
X100816666Y-117316666D01*
%TO.C,R104*%
X92966666Y-120316666D02*
X92733333Y-119983333D01*
X92566666Y-120316666D02*
X92566666Y-119616666D01*
X92833333Y-119616666D01*
X92900000Y-119650000D01*
X92933333Y-119683333D01*
X92966666Y-119750000D01*
X92966666Y-119850000D01*
X92933333Y-119916666D01*
X92900000Y-119950000D01*
X92833333Y-119983333D01*
X92566666Y-119983333D01*
X93633333Y-120316666D02*
X93233333Y-120316666D01*
X93433333Y-120316666D02*
X93433333Y-119616666D01*
X93366666Y-119716666D01*
X93300000Y-119783333D01*
X93233333Y-119816666D01*
X94066666Y-119616666D02*
X94133333Y-119616666D01*
X94200000Y-119650000D01*
X94233333Y-119683333D01*
X94266666Y-119750000D01*
X94300000Y-119883333D01*
X94300000Y-120050000D01*
X94266666Y-120183333D01*
X94233333Y-120250000D01*
X94200000Y-120283333D01*
X94133333Y-120316666D01*
X94066666Y-120316666D01*
X94000000Y-120283333D01*
X93966666Y-120250000D01*
X93933333Y-120183333D01*
X93900000Y-120050000D01*
X93900000Y-119883333D01*
X93933333Y-119750000D01*
X93966666Y-119683333D01*
X94000000Y-119650000D01*
X94066666Y-119616666D01*
X94900000Y-119850000D02*
X94900000Y-120316666D01*
X94733333Y-119583333D02*
X94566666Y-120083333D01*
X95000000Y-120083333D01*
%TO.C,D104*%
X93066666Y-121566666D02*
X93066666Y-120866666D01*
X93233333Y-120866666D01*
X93333333Y-120900000D01*
X93400000Y-120966666D01*
X93433333Y-121033333D01*
X93466666Y-121166666D01*
X93466666Y-121266666D01*
X93433333Y-121400000D01*
X93400000Y-121466666D01*
X93333333Y-121533333D01*
X93233333Y-121566666D01*
X93066666Y-121566666D01*
X94133333Y-121566666D02*
X93733333Y-121566666D01*
X93933333Y-121566666D02*
X93933333Y-120866666D01*
X93866666Y-120966666D01*
X93800000Y-121033333D01*
X93733333Y-121066666D01*
X94566666Y-120866666D02*
X94633333Y-120866666D01*
X94700000Y-120900000D01*
X94733333Y-120933333D01*
X94766666Y-121000000D01*
X94800000Y-121133333D01*
X94800000Y-121300000D01*
X94766666Y-121433333D01*
X94733333Y-121500000D01*
X94700000Y-121533333D01*
X94633333Y-121566666D01*
X94566666Y-121566666D01*
X94500000Y-121533333D01*
X94466666Y-121500000D01*
X94433333Y-121433333D01*
X94400000Y-121300000D01*
X94400000Y-121133333D01*
X94433333Y-121000000D01*
X94466666Y-120933333D01*
X94500000Y-120900000D01*
X94566666Y-120866666D01*
X95400000Y-121100000D02*
X95400000Y-121566666D01*
X95233333Y-120833333D02*
X95066666Y-121333333D01*
X95500000Y-121333333D01*
%TO.C,C102*%
X92966666Y-116000000D02*
X92933333Y-116033333D01*
X92833333Y-116066666D01*
X92766666Y-116066666D01*
X92666666Y-116033333D01*
X92600000Y-115966666D01*
X92566666Y-115900000D01*
X92533333Y-115766666D01*
X92533333Y-115666666D01*
X92566666Y-115533333D01*
X92600000Y-115466666D01*
X92666666Y-115400000D01*
X92766666Y-115366666D01*
X92833333Y-115366666D01*
X92933333Y-115400000D01*
X92966666Y-115433333D01*
X93633333Y-116066666D02*
X93233333Y-116066666D01*
X93433333Y-116066666D02*
X93433333Y-115366666D01*
X93366666Y-115466666D01*
X93300000Y-115533333D01*
X93233333Y-115566666D01*
X94066666Y-115366666D02*
X94133333Y-115366666D01*
X94200000Y-115400000D01*
X94233333Y-115433333D01*
X94266666Y-115500000D01*
X94300000Y-115633333D01*
X94300000Y-115800000D01*
X94266666Y-115933333D01*
X94233333Y-116000000D01*
X94200000Y-116033333D01*
X94133333Y-116066666D01*
X94066666Y-116066666D01*
X94000000Y-116033333D01*
X93966666Y-116000000D01*
X93933333Y-115933333D01*
X93900000Y-115800000D01*
X93900000Y-115633333D01*
X93933333Y-115500000D01*
X93966666Y-115433333D01*
X94000000Y-115400000D01*
X94066666Y-115366666D01*
X94566666Y-115433333D02*
X94600000Y-115400000D01*
X94666666Y-115366666D01*
X94833333Y-115366666D01*
X94900000Y-115400000D01*
X94933333Y-115433333D01*
X94966666Y-115500000D01*
X94966666Y-115566666D01*
X94933333Y-115666666D01*
X94533333Y-116066666D01*
X94966666Y-116066666D01*
%TO.C,Q101*%
X99633333Y-111733333D02*
X99600000Y-111800000D01*
X99533333Y-111866666D01*
X99433333Y-111966666D01*
X99400000Y-112033333D01*
X99400000Y-112100000D01*
X99566666Y-112066666D02*
X99533333Y-112133333D01*
X99466666Y-112200000D01*
X99333333Y-112233333D01*
X99100000Y-112233333D01*
X98966666Y-112200000D01*
X98900000Y-112133333D01*
X98866666Y-112066666D01*
X98866666Y-111933333D01*
X98900000Y-111866666D01*
X98966666Y-111800000D01*
X99100000Y-111766666D01*
X99333333Y-111766666D01*
X99466666Y-111800000D01*
X99533333Y-111866666D01*
X99566666Y-111933333D01*
X99566666Y-112066666D01*
X99566666Y-111100000D02*
X99566666Y-111500000D01*
X99566666Y-111300000D02*
X98866666Y-111300000D01*
X98966666Y-111366666D01*
X99033333Y-111433333D01*
X99066666Y-111500000D01*
X98866666Y-110666666D02*
X98866666Y-110600000D01*
X98900000Y-110533333D01*
X98933333Y-110500000D01*
X99000000Y-110466666D01*
X99133333Y-110433333D01*
X99300000Y-110433333D01*
X99433333Y-110466666D01*
X99500000Y-110500000D01*
X99533333Y-110533333D01*
X99566666Y-110600000D01*
X99566666Y-110666666D01*
X99533333Y-110733333D01*
X99500000Y-110766666D01*
X99433333Y-110800000D01*
X99300000Y-110833333D01*
X99133333Y-110833333D01*
X99000000Y-110800000D01*
X98933333Y-110766666D01*
X98900000Y-110733333D01*
X98866666Y-110666666D01*
X99566666Y-109766666D02*
X99566666Y-110166666D01*
X99566666Y-109966666D02*
X98866666Y-109966666D01*
X98966666Y-110033333D01*
X99033333Y-110100000D01*
X99066666Y-110166666D01*
%TO.C,D102*%
X88566666Y-121683333D02*
X87866666Y-121683333D01*
X87866666Y-121516666D01*
X87900000Y-121416666D01*
X87966666Y-121350000D01*
X88033333Y-121316666D01*
X88166666Y-121283333D01*
X88266666Y-121283333D01*
X88400000Y-121316666D01*
X88466666Y-121350000D01*
X88533333Y-121416666D01*
X88566666Y-121516666D01*
X88566666Y-121683333D01*
X88566666Y-120616666D02*
X88566666Y-121016666D01*
X88566666Y-120816666D02*
X87866666Y-120816666D01*
X87966666Y-120883333D01*
X88033333Y-120950000D01*
X88066666Y-121016666D01*
X87866666Y-120183333D02*
X87866666Y-120116666D01*
X87900000Y-120050000D01*
X87933333Y-120016666D01*
X88000000Y-119983333D01*
X88133333Y-119950000D01*
X88300000Y-119950000D01*
X88433333Y-119983333D01*
X88500000Y-120016666D01*
X88533333Y-120050000D01*
X88566666Y-120116666D01*
X88566666Y-120183333D01*
X88533333Y-120250000D01*
X88500000Y-120283333D01*
X88433333Y-120316666D01*
X88300000Y-120350000D01*
X88133333Y-120350000D01*
X88000000Y-120316666D01*
X87933333Y-120283333D01*
X87900000Y-120250000D01*
X87866666Y-120183333D01*
X87933333Y-119683333D02*
X87900000Y-119650000D01*
X87866666Y-119583333D01*
X87866666Y-119416666D01*
X87900000Y-119350000D01*
X87933333Y-119316666D01*
X88000000Y-119283333D01*
X88066666Y-119283333D01*
X88166666Y-119316666D01*
X88566666Y-119716666D01*
X88566666Y-119283333D01*
%TO.C,R102*%
X88816666Y-125533333D02*
X88483333Y-125766666D01*
X88816666Y-125933333D02*
X88116666Y-125933333D01*
X88116666Y-125666666D01*
X88150000Y-125600000D01*
X88183333Y-125566666D01*
X88250000Y-125533333D01*
X88350000Y-125533333D01*
X88416666Y-125566666D01*
X88450000Y-125600000D01*
X88483333Y-125666666D01*
X88483333Y-125933333D01*
X88816666Y-124866666D02*
X88816666Y-125266666D01*
X88816666Y-125066666D02*
X88116666Y-125066666D01*
X88216666Y-125133333D01*
X88283333Y-125200000D01*
X88316666Y-125266666D01*
X88116666Y-124433333D02*
X88116666Y-124366666D01*
X88150000Y-124300000D01*
X88183333Y-124266666D01*
X88250000Y-124233333D01*
X88383333Y-124200000D01*
X88550000Y-124200000D01*
X88683333Y-124233333D01*
X88750000Y-124266666D01*
X88783333Y-124300000D01*
X88816666Y-124366666D01*
X88816666Y-124433333D01*
X88783333Y-124500000D01*
X88750000Y-124533333D01*
X88683333Y-124566666D01*
X88550000Y-124600000D01*
X88383333Y-124600000D01*
X88250000Y-124566666D01*
X88183333Y-124533333D01*
X88150000Y-124500000D01*
X88116666Y-124433333D01*
X88183333Y-123933333D02*
X88150000Y-123900000D01*
X88116666Y-123833333D01*
X88116666Y-123666666D01*
X88150000Y-123600000D01*
X88183333Y-123566666D01*
X88250000Y-123533333D01*
X88316666Y-123533333D01*
X88416666Y-123566666D01*
X88816666Y-123966666D01*
X88816666Y-123533333D01*
%TO.C,D103*%
X90316666Y-121566666D02*
X90316666Y-120866666D01*
X90483333Y-120866666D01*
X90583333Y-120900000D01*
X90650000Y-120966666D01*
X90683333Y-121033333D01*
X90716666Y-121166666D01*
X90716666Y-121266666D01*
X90683333Y-121400000D01*
X90650000Y-121466666D01*
X90583333Y-121533333D01*
X90483333Y-121566666D01*
X90316666Y-121566666D01*
X91383333Y-121566666D02*
X90983333Y-121566666D01*
X91183333Y-121566666D02*
X91183333Y-120866666D01*
X91116666Y-120966666D01*
X91050000Y-121033333D01*
X90983333Y-121066666D01*
X91816666Y-120866666D02*
X91883333Y-120866666D01*
X91950000Y-120900000D01*
X91983333Y-120933333D01*
X92016666Y-121000000D01*
X92050000Y-121133333D01*
X92050000Y-121300000D01*
X92016666Y-121433333D01*
X91983333Y-121500000D01*
X91950000Y-121533333D01*
X91883333Y-121566666D01*
X91816666Y-121566666D01*
X91750000Y-121533333D01*
X91716666Y-121500000D01*
X91683333Y-121433333D01*
X91650000Y-121300000D01*
X91650000Y-121133333D01*
X91683333Y-121000000D01*
X91716666Y-120933333D01*
X91750000Y-120900000D01*
X91816666Y-120866666D01*
X92283333Y-120866666D02*
X92716666Y-120866666D01*
X92483333Y-121133333D01*
X92583333Y-121133333D01*
X92650000Y-121166666D01*
X92683333Y-121200000D01*
X92716666Y-121266666D01*
X92716666Y-121433333D01*
X92683333Y-121500000D01*
X92650000Y-121533333D01*
X92583333Y-121566666D01*
X92383333Y-121566666D01*
X92316666Y-121533333D01*
X92283333Y-121500000D01*
D14*
%TO.C,D107*%
X108000000Y-112950000D02*
X108000000Y-109100000D01*
X106000000Y-112950000D02*
X106000000Y-109100000D01*
X106000000Y-112950000D02*
X108000000Y-112950000D01*
%TO.C,C103*%
X97392164Y-117360000D02*
X97607836Y-117360000D01*
X97392164Y-116640000D02*
X97607836Y-116640000D01*
%TO.C,R109*%
X100846359Y-120380000D02*
X101153641Y-120380000D01*
X100846359Y-119620000D02*
X101153641Y-119620000D01*
%TO.C,D106*%
X95000000Y-115200000D02*
X97000000Y-115200000D01*
X97000000Y-115200000D02*
X97000000Y-111350000D01*
X95000000Y-115200000D02*
X95000000Y-111350000D01*
%TO.C,R103*%
X96130000Y-123096359D02*
X96130000Y-123403641D01*
X95370000Y-123096359D02*
X95370000Y-123403641D01*
%TO.C,C104*%
X105360000Y-117142164D02*
X105360000Y-117357836D01*
X104640000Y-117142164D02*
X104640000Y-117357836D01*
D13*
%TO.C,TP101*%
X89350000Y-110850000D02*
X89350000Y-108650000D01*
X89350000Y-108650000D02*
X93150000Y-108650000D01*
X93150000Y-108650000D02*
X93150000Y-110850000D01*
X93150000Y-110850000D02*
X89350000Y-110850000D01*
%TO.C,TP102*%
X108350000Y-123400000D02*
X112150000Y-123400000D01*
X112150000Y-123400000D02*
X112150000Y-125600000D01*
X112150000Y-125600000D02*
X108350000Y-125600000D01*
X108350000Y-125600000D02*
X108350000Y-123400000D01*
D14*
%TO.C,J102*%
X99720000Y-126080000D02*
X99720000Y-123420000D01*
X98450000Y-126080000D02*
X97120000Y-126080000D01*
X107400000Y-126080000D02*
X107400000Y-123420000D01*
X99720000Y-123420000D02*
X107400000Y-123420000D01*
X99720000Y-126080000D02*
X107400000Y-126080000D01*
X97120000Y-126080000D02*
X97120000Y-124750000D01*
%TO.C,R108*%
X100846359Y-119380000D02*
X101153641Y-119380000D01*
X100846359Y-118620000D02*
X101153641Y-118620000D01*
%TO.C,J103*%
X112660000Y-114420000D02*
X112660000Y-113650000D01*
X112160000Y-119550000D02*
X112900000Y-119550000D01*
X112900000Y-119550000D02*
X112900000Y-119050000D01*
X112100000Y-116960000D02*
X112100000Y-116000000D01*
X112100000Y-119310000D02*
X112100000Y-118540000D01*
X112660000Y-119310000D02*
X112660000Y-118540000D01*
X106340000Y-119310000D02*
X106340000Y-113650000D01*
X106340000Y-119310000D02*
X112660000Y-119310000D01*
X106340000Y-113650000D02*
X112660000Y-113650000D01*
X106800000Y-119310000D02*
X106800000Y-113650000D01*
X112100000Y-114420000D02*
X112100000Y-113650000D01*
X112660000Y-116960000D02*
X112660000Y-116000000D01*
%TO.C,R105*%
X91403641Y-119380000D02*
X91096359Y-119380000D01*
X91403641Y-118620000D02*
X91096359Y-118620000D01*
%TO.C,R112*%
X104380000Y-117076359D02*
X104380000Y-117383641D01*
X103620000Y-117076359D02*
X103620000Y-117383641D01*
%TO.C,R101*%
X85120000Y-112653641D02*
X85120000Y-112346359D01*
X85880000Y-112653641D02*
X85880000Y-112346359D01*
%TO.C,R107*%
X95620000Y-116356359D02*
X95620000Y-116663641D01*
X96380000Y-116356359D02*
X96380000Y-116663641D01*
%TO.C,J101*%
X84340000Y-123700000D02*
X82340000Y-123700000D01*
X80440000Y-114300000D02*
X78540000Y-114300000D01*
X78540000Y-114300000D02*
X78540000Y-123700000D01*
X80440000Y-123700000D02*
X78540000Y-123700000D01*
X84340000Y-114300000D02*
X82340000Y-114300000D01*
%TO.C,C101*%
X86860000Y-112607836D02*
X86860000Y-112392164D01*
X86140000Y-112607836D02*
X86140000Y-112392164D01*
%TO.C,R110*%
X102096359Y-117110000D02*
X102403641Y-117110000D01*
X102096359Y-116350000D02*
X102403641Y-116350000D01*
D15*
%TO.C,D101*%
X89800000Y-119590000D02*
G75*
G03*
X89800000Y-119590000I-50000J0D01*
G01*
D14*
%TO.C,FB101*%
X91837221Y-113990000D02*
X92162779Y-113990000D01*
X91837221Y-115010000D02*
X92162779Y-115010000D01*
%TO.C,R106*%
X97620000Y-111403641D02*
X97620000Y-111096359D01*
X98380000Y-111403641D02*
X98380000Y-111096359D01*
%TO.C,D105*%
X97265000Y-112227500D02*
X97265000Y-114512500D01*
X98735000Y-114512500D02*
X98735000Y-112227500D01*
X98735000Y-112227500D02*
X97265000Y-112227500D01*
%TO.C,U101*%
X96000000Y-121360000D02*
X99000000Y-121360000D01*
X97500000Y-118140000D02*
X99000000Y-118140000D01*
%TO.C,R111*%
X102403641Y-118110000D02*
X102096359Y-118110000D01*
X102403641Y-117350000D02*
X102096359Y-117350000D01*
%TO.C,R104*%
X91403641Y-119620000D02*
X91096359Y-119620000D01*
X91403641Y-120380000D02*
X91096359Y-120380000D01*
%TO.C,D104*%
X95000000Y-121800000D02*
X93000000Y-121800000D01*
X95000000Y-121800000D02*
X95000000Y-125650000D01*
X93000000Y-121800000D02*
X93000000Y-125650000D01*
%TO.C,C102*%
X94610000Y-114107836D02*
X94610000Y-113892164D01*
X93890000Y-114107836D02*
X93890000Y-113892164D01*
%TO.C,Q101*%
X105060000Y-112250000D02*
X105060000Y-114200000D01*
X99940000Y-112250000D02*
X99940000Y-110300000D01*
X99940000Y-112250000D02*
X99940000Y-115700000D01*
X105060000Y-112250000D02*
X105060000Y-110300000D01*
D15*
%TO.C,D102*%
X89800000Y-119410000D02*
G75*
G03*
X89800000Y-119410000I-50000J0D01*
G01*
D14*
%TO.C,R102*%
X90130000Y-123096359D02*
X90130000Y-123403641D01*
X89370000Y-123096359D02*
X89370000Y-123403641D01*
%TO.C,D103*%
X92500000Y-121800000D02*
X90500000Y-121800000D01*
X92500000Y-121800000D02*
X92500000Y-125650000D01*
X90500000Y-121800000D02*
X90500000Y-125650000D01*
%TD*%
M02*
