%TF.GenerationSoftware,KiCad,Pcbnew,5.99.0-unknown-3f6811f413~130~ubuntu20.10.1*%
%TF.CreationDate,2021-09-06T20:59:45-07:00*%
%TF.ProjectId,usb_pd,7573625f-7064-42e6-9b69-6361645f7063,rev?*%
%TF.SameCoordinates,Original*%
%TF.FileFunction,Legend,Bot*%
%TF.FilePolarity,Positive*%
%FSLAX46Y46*%
G04 Gerber Fmt 4.6, Leading zero omitted, Abs format (unit mm)*
G04 Created by KiCad (PCBNEW 5.99.0-unknown-3f6811f413~130~ubuntu20.10.1) date 2021-09-06 20:59:45*
%MOMM*%
%LPD*%
G01*
G04 APERTURE LIST*
%ADD10C,0.010000*%
G04 APERTURE END LIST*
D10*
%TO.C,G\u002A\u002A\u002A*%
X81004802Y-129154094D02*
X80977005Y-129306291D01*
X80977005Y-129306291D02*
X80955517Y-129520016D01*
X80955517Y-129520016D02*
X80955190Y-129524726D01*
X80955190Y-129524726D02*
X80941410Y-129782949D01*
X80941410Y-129782949D02*
X80941983Y-129936360D01*
X80941983Y-129936360D02*
X80956119Y-129978471D01*
X80956119Y-129978471D02*
X80983026Y-129902793D01*
X80983026Y-129902793D02*
X80994810Y-129849718D01*
X80994810Y-129849718D02*
X81029254Y-129640375D01*
X81029254Y-129640375D02*
X81050933Y-129425136D01*
X81050933Y-129425136D02*
X81058023Y-129240000D01*
X81058023Y-129240000D02*
X81048703Y-129120969D01*
X81048703Y-129120969D02*
X81032979Y-129096101D01*
X81032979Y-129096101D02*
X81004802Y-129154094D01*
X81004802Y-129154094D02*
X81004802Y-129154094D01*
G36*
X81048703Y-129120969D02*
G01*
X81058023Y-129240000D01*
X81050933Y-129425136D01*
X81029254Y-129640375D01*
X80994810Y-129849718D01*
X80983026Y-129902793D01*
X80956119Y-129978471D01*
X80941983Y-129936360D01*
X80941410Y-129782949D01*
X80955190Y-129524726D01*
X80955517Y-129520016D01*
X80977005Y-129306291D01*
X81004802Y-129154094D01*
X81032979Y-129096101D01*
X81048703Y-129120969D01*
G37*
X81048703Y-129120969D02*
X81058023Y-129240000D01*
X81050933Y-129425136D01*
X81029254Y-129640375D01*
X80994810Y-129849718D01*
X80983026Y-129902793D01*
X80956119Y-129978471D01*
X80941983Y-129936360D01*
X80941410Y-129782949D01*
X80955190Y-129524726D01*
X80955517Y-129520016D01*
X80977005Y-129306291D01*
X81004802Y-129154094D01*
X81032979Y-129096101D01*
X81048703Y-129120969D01*
X79899483Y-129253535D02*
X79898504Y-129318351D01*
X79898504Y-129318351D02*
X79910690Y-129462387D01*
X79910690Y-129462387D02*
X79941826Y-129656984D01*
X79941826Y-129656984D02*
X79950239Y-129699351D01*
X79950239Y-129699351D02*
X80002777Y-129953351D01*
X80002777Y-129953351D02*
X80005616Y-129699351D01*
X80005616Y-129699351D02*
X79993976Y-129501106D01*
X79993976Y-129501106D02*
X79961648Y-129339094D01*
X79961648Y-129339094D02*
X79953881Y-129318351D01*
X79953881Y-129318351D02*
X79911567Y-129227601D01*
X79911567Y-129227601D02*
X79899483Y-129253535D01*
X79899483Y-129253535D02*
X79899483Y-129253535D01*
G36*
X79953881Y-129318351D02*
G01*
X79961648Y-129339094D01*
X79993976Y-129501106D01*
X80005616Y-129699351D01*
X80002777Y-129953351D01*
X79950239Y-129699351D01*
X79941826Y-129656984D01*
X79910690Y-129462387D01*
X79898504Y-129318351D01*
X79899483Y-129253535D01*
X79911567Y-129227601D01*
X79953881Y-129318351D01*
G37*
X79953881Y-129318351D02*
X79961648Y-129339094D01*
X79993976Y-129501106D01*
X80005616Y-129699351D01*
X80002777Y-129953351D01*
X79950239Y-129699351D01*
X79941826Y-129656984D01*
X79910690Y-129462387D01*
X79898504Y-129318351D01*
X79899483Y-129253535D01*
X79911567Y-129227601D01*
X79953881Y-129318351D01*
X80471006Y-129279480D02*
X80462537Y-129440077D01*
X80462537Y-129440077D02*
X80461881Y-129530017D01*
X80461881Y-129530017D02*
X80473807Y-129722927D01*
X80473807Y-129722927D02*
X80505253Y-129838722D01*
X80505253Y-129838722D02*
X80529272Y-129858101D01*
X80529272Y-129858101D02*
X80566565Y-129798941D01*
X80566565Y-129798941D02*
X80561760Y-129624735D01*
X80561760Y-129624735D02*
X80552886Y-129556476D01*
X80552886Y-129556476D02*
X80516430Y-129337752D01*
X80516430Y-129337752D02*
X80489054Y-129245395D01*
X80489054Y-129245395D02*
X80471006Y-129279480D01*
X80471006Y-129279480D02*
X80471006Y-129279480D01*
G36*
X80516430Y-129337752D02*
G01*
X80552886Y-129556476D01*
X80561760Y-129624735D01*
X80566565Y-129798941D01*
X80529272Y-129858101D01*
X80505253Y-129838722D01*
X80473807Y-129722927D01*
X80461881Y-129530017D01*
X80462537Y-129440077D01*
X80471006Y-129279480D01*
X80489054Y-129245395D01*
X80516430Y-129337752D01*
G37*
X80516430Y-129337752D02*
X80552886Y-129556476D01*
X80561760Y-129624735D01*
X80566565Y-129798941D01*
X80529272Y-129858101D01*
X80505253Y-129838722D01*
X80473807Y-129722927D01*
X80461881Y-129530017D01*
X80462537Y-129440077D01*
X80471006Y-129279480D01*
X80489054Y-129245395D01*
X80516430Y-129337752D01*
X97441449Y-128735180D02*
X97390994Y-128840156D01*
X97390994Y-128840156D02*
X97325274Y-129026180D01*
X97325274Y-129026180D02*
X97297498Y-129116178D01*
X97297498Y-129116178D02*
X97223317Y-129385897D01*
X97223317Y-129385897D02*
X97186973Y-129560868D01*
X97186973Y-129560868D02*
X97186167Y-129634941D01*
X97186167Y-129634941D02*
X97218601Y-129601969D01*
X97218601Y-129601969D02*
X97281979Y-129455801D01*
X97281979Y-129455801D02*
X97351202Y-129259899D01*
X97351202Y-129259899D02*
X97418338Y-129033296D01*
X97418338Y-129033296D02*
X97460081Y-128842781D01*
X97460081Y-128842781D02*
X97467475Y-128731967D01*
X97467475Y-128731967D02*
X97441449Y-128735180D01*
X97441449Y-128735180D02*
X97441449Y-128735180D01*
G36*
X97460081Y-128842781D02*
G01*
X97418338Y-129033296D01*
X97351202Y-129259899D01*
X97281979Y-129455801D01*
X97218601Y-129601969D01*
X97186167Y-129634941D01*
X97186973Y-129560868D01*
X97223317Y-129385897D01*
X97297498Y-129116178D01*
X97325274Y-129026180D01*
X97390994Y-128840156D01*
X97441449Y-128735180D01*
X97467475Y-128731967D01*
X97460081Y-128842781D01*
G37*
X97460081Y-128842781D02*
X97418338Y-129033296D01*
X97351202Y-129259899D01*
X97281979Y-129455801D01*
X97218601Y-129601969D01*
X97186167Y-129634941D01*
X97186973Y-129560868D01*
X97223317Y-129385897D01*
X97297498Y-129116178D01*
X97325274Y-129026180D01*
X97390994Y-128840156D01*
X97441449Y-128735180D01*
X97467475Y-128731967D01*
X97460081Y-128842781D01*
X96825632Y-128581849D02*
X96794822Y-128728979D01*
X96794822Y-128728979D02*
X96765458Y-128929068D01*
X96765458Y-128929068D02*
X96741785Y-129145194D01*
X96741785Y-129145194D02*
X96728050Y-129340435D01*
X96728050Y-129340435D02*
X96728501Y-129477867D01*
X96728501Y-129477867D02*
X96739203Y-129519588D01*
X96739203Y-129519588D02*
X96763195Y-129477348D01*
X96763195Y-129477348D02*
X96798968Y-129339701D01*
X96798968Y-129339701D02*
X96837760Y-129141986D01*
X96837760Y-129141986D02*
X96884904Y-128849463D01*
X96884904Y-128849463D02*
X96904316Y-128661803D01*
X96904316Y-128661803D02*
X96896484Y-128560045D01*
X96896484Y-128560045D02*
X96861897Y-128525227D01*
X96861897Y-128525227D02*
X96853640Y-128524601D01*
X96853640Y-128524601D02*
X96825632Y-128581849D01*
X96825632Y-128581849D02*
X96825632Y-128581849D01*
G36*
X96861897Y-128525227D02*
G01*
X96896484Y-128560045D01*
X96904316Y-128661803D01*
X96884904Y-128849463D01*
X96837760Y-129141986D01*
X96798968Y-129339701D01*
X96763195Y-129477348D01*
X96739203Y-129519588D01*
X96728501Y-129477867D01*
X96728050Y-129340435D01*
X96741785Y-129145194D01*
X96765458Y-128929068D01*
X96794822Y-128728979D01*
X96825632Y-128581849D01*
X96853640Y-128524601D01*
X96861897Y-128525227D01*
G37*
X96861897Y-128525227D02*
X96896484Y-128560045D01*
X96904316Y-128661803D01*
X96884904Y-128849463D01*
X96837760Y-129141986D01*
X96798968Y-129339701D01*
X96763195Y-129477348D01*
X96739203Y-129519588D01*
X96728501Y-129477867D01*
X96728050Y-129340435D01*
X96741785Y-129145194D01*
X96765458Y-128929068D01*
X96794822Y-128728979D01*
X96825632Y-128581849D01*
X96853640Y-128524601D01*
X96861897Y-128525227D01*
X96349793Y-128492851D02*
X96315573Y-128584040D01*
X96315573Y-128584040D02*
X96283102Y-128764531D01*
X96283102Y-128764531D02*
X96258997Y-128996720D01*
X96258997Y-128996720D02*
X96257606Y-129016726D01*
X96257606Y-129016726D02*
X96243981Y-129279811D01*
X96243981Y-129279811D02*
X96244885Y-129433608D01*
X96244885Y-129433608D02*
X96259630Y-129473019D01*
X96259630Y-129473019D02*
X96287525Y-129392944D01*
X96287525Y-129392944D02*
X96300582Y-129334226D01*
X96300582Y-129334226D02*
X96338172Y-129115974D01*
X96338172Y-129115974D02*
X96364646Y-128891973D01*
X96364646Y-128891973D02*
X96378232Y-128692519D01*
X96378232Y-128692519D02*
X96377158Y-128547912D01*
X96377158Y-128547912D02*
X96359651Y-128488448D01*
X96359651Y-128488448D02*
X96349793Y-128492851D01*
X96349793Y-128492851D02*
X96349793Y-128492851D01*
G36*
X96377158Y-128547912D02*
G01*
X96378232Y-128692519D01*
X96364646Y-128891973D01*
X96338172Y-129115974D01*
X96300582Y-129334226D01*
X96287525Y-129392944D01*
X96259630Y-129473019D01*
X96244885Y-129433608D01*
X96243981Y-129279811D01*
X96257606Y-129016726D01*
X96258997Y-128996720D01*
X96283102Y-128764531D01*
X96315573Y-128584040D01*
X96349793Y-128492851D01*
X96359651Y-128488448D01*
X96377158Y-128547912D01*
G37*
X96377158Y-128547912D02*
X96378232Y-128692519D01*
X96364646Y-128891973D01*
X96338172Y-129115974D01*
X96300582Y-129334226D01*
X96287525Y-129392944D01*
X96259630Y-129473019D01*
X96244885Y-129433608D01*
X96243981Y-129279811D01*
X96257606Y-129016726D01*
X96258997Y-128996720D01*
X96283102Y-128764531D01*
X96315573Y-128584040D01*
X96349793Y-128492851D01*
X96359651Y-128488448D01*
X96377158Y-128547912D01*
X82630929Y-108624097D02*
X82272447Y-108743908D01*
X82272447Y-108743908D02*
X82000821Y-108951516D01*
X82000821Y-108951516D02*
X81808174Y-109253402D01*
X81808174Y-109253402D02*
X81686627Y-109656050D01*
X81686627Y-109656050D02*
X81670184Y-109749068D01*
X81670184Y-109749068D02*
X81639256Y-109994196D01*
X81639256Y-109994196D02*
X81642129Y-110192203D01*
X81642129Y-110192203D02*
X81683775Y-110404104D01*
X81683775Y-110404104D02*
X81739072Y-110594717D01*
X81739072Y-110594717D02*
X82025128Y-111318525D01*
X82025128Y-111318525D02*
X82412298Y-111974228D01*
X82412298Y-111974228D02*
X82892519Y-112552299D01*
X82892519Y-112552299D02*
X83457730Y-113043210D01*
X83457730Y-113043210D02*
X84099868Y-113437432D01*
X84099868Y-113437432D02*
X84176631Y-113475342D01*
X84176631Y-113475342D02*
X84658080Y-113674318D01*
X84658080Y-113674318D02*
X85134621Y-113795780D01*
X85134621Y-113795780D02*
X85655442Y-113850440D01*
X85655442Y-113850440D02*
X85925333Y-113856101D01*
X85925333Y-113856101D02*
X86412459Y-113856101D01*
X86412459Y-113856101D02*
X86731235Y-114193159D01*
X86731235Y-114193159D02*
X86907582Y-114392330D01*
X86907582Y-114392330D02*
X87060283Y-114587061D01*
X87060283Y-114587061D02*
X87154038Y-114731384D01*
X87154038Y-114731384D02*
X87208594Y-114870814D01*
X87208594Y-114870814D02*
X87283033Y-115107768D01*
X87283033Y-115107768D02*
X87370942Y-115416665D01*
X87370942Y-115416665D02*
X87465907Y-115771925D01*
X87465907Y-115771925D02*
X87561515Y-116147967D01*
X87561515Y-116147967D02*
X87651353Y-116519209D01*
X87651353Y-116519209D02*
X87729007Y-116860071D01*
X87729007Y-116860071D02*
X87788064Y-117144971D01*
X87788064Y-117144971D02*
X87822111Y-117348329D01*
X87822111Y-117348329D02*
X87827871Y-117419091D01*
X87827871Y-117419091D02*
X87815804Y-117586646D01*
X87815804Y-117586646D02*
X87783979Y-117829466D01*
X87783979Y-117829466D02*
X87738939Y-118098569D01*
X87738939Y-118098569D02*
X87732621Y-118132061D01*
X87732621Y-118132061D02*
X87633720Y-118965951D01*
X87633720Y-118965951D02*
X87657545Y-119778328D01*
X87657545Y-119778328D02*
X87801526Y-120561261D01*
X87801526Y-120561261D02*
X88063095Y-121306816D01*
X88063095Y-121306816D02*
X88439680Y-122007062D01*
X88439680Y-122007062D02*
X88928713Y-122654066D01*
X88928713Y-122654066D02*
X89330770Y-123065684D01*
X89330770Y-123065684D02*
X89839931Y-123458240D01*
X89839931Y-123458240D02*
X90446191Y-123790788D01*
X90446191Y-123790788D02*
X91132463Y-124058917D01*
X91132463Y-124058917D02*
X91881661Y-124258213D01*
X91881661Y-124258213D02*
X92676699Y-124384266D01*
X92676699Y-124384266D02*
X93500491Y-124432662D01*
X93500491Y-124432662D02*
X94335950Y-124398990D01*
X94335950Y-124398990D02*
X94450443Y-124387733D01*
X94450443Y-124387733D02*
X94978711Y-124310515D01*
X94978711Y-124310515D02*
X95542663Y-124191036D01*
X95542663Y-124191036D02*
X96101488Y-124040288D01*
X96101488Y-124040288D02*
X96614377Y-123869263D01*
X96614377Y-123869263D02*
X97035381Y-123691471D01*
X97035381Y-123691471D02*
X97312029Y-123545807D01*
X97312029Y-123545807D02*
X97546435Y-123393277D01*
X97546435Y-123393277D02*
X97776073Y-123205613D01*
X97776073Y-123205613D02*
X98038419Y-122954544D01*
X98038419Y-122954544D02*
X98114881Y-122877156D01*
X98114881Y-122877156D02*
X98653566Y-122239686D01*
X98653566Y-122239686D02*
X99082773Y-121540615D01*
X99082773Y-121540615D02*
X99399959Y-120786858D01*
X99399959Y-120786858D02*
X99602579Y-119985330D01*
X99602579Y-119985330D02*
X99688088Y-119142946D01*
X99688088Y-119142946D02*
X99687022Y-119050985D01*
X99687022Y-119050985D02*
X99379959Y-119050985D01*
X99379959Y-119050985D02*
X99360341Y-119483776D01*
X99360341Y-119483776D02*
X99320787Y-119871377D01*
X99320787Y-119871377D02*
X99295411Y-120025890D01*
X99295411Y-120025890D02*
X99122670Y-120691542D01*
X99122670Y-120691542D02*
X98871050Y-121329142D01*
X98871050Y-121329142D02*
X98552616Y-121919505D01*
X98552616Y-121919505D02*
X98179435Y-122443444D01*
X98179435Y-122443444D02*
X97763572Y-122881775D01*
X97763572Y-122881775D02*
X97317092Y-123215310D01*
X97317092Y-123215310D02*
X97273565Y-123240824D01*
X97273565Y-123240824D02*
X96442664Y-123644074D01*
X96442664Y-123644074D02*
X95557731Y-123936475D01*
X95557731Y-123936475D02*
X95237730Y-124011489D01*
X95237730Y-124011489D02*
X94816568Y-124077035D01*
X94816568Y-124077035D02*
X94310175Y-124119887D01*
X94310175Y-124119887D02*
X93758361Y-124139565D01*
X93758361Y-124139565D02*
X93200937Y-124135587D01*
X93200937Y-124135587D02*
X92677715Y-124107471D01*
X92677715Y-124107471D02*
X92228504Y-124054736D01*
X92228504Y-124054736D02*
X92190622Y-124048340D01*
X92190622Y-124048340D02*
X91381789Y-123849602D01*
X91381789Y-123849602D02*
X90633839Y-123549224D01*
X90633839Y-123549224D02*
X89955570Y-123153424D01*
X89955570Y-123153424D02*
X89355782Y-122668422D01*
X89355782Y-122668422D02*
X88843272Y-122100434D01*
X88843272Y-122100434D02*
X88426839Y-121455679D01*
X88426839Y-121455679D02*
X88371372Y-121349101D01*
X88371372Y-121349101D02*
X88146493Y-120851644D01*
X88146493Y-120851644D02*
X87998261Y-120388687D01*
X87998261Y-120388687D02*
X87910809Y-119907720D01*
X87910809Y-119907720D02*
X87896468Y-119777322D01*
X87896468Y-119777322D02*
X87882151Y-119106338D01*
X87882151Y-119106338D02*
X87960639Y-118412596D01*
X87960639Y-118412596D02*
X88123923Y-117730067D01*
X88123923Y-117730067D02*
X88363994Y-117092723D01*
X88363994Y-117092723D02*
X88654394Y-116562318D01*
X88654394Y-116562318D02*
X89095861Y-115993209D01*
X89095861Y-115993209D02*
X89623124Y-115503613D01*
X89623124Y-115503613D02*
X90244645Y-115087016D01*
X90244645Y-115087016D02*
X90968891Y-114736903D01*
X90968891Y-114736903D02*
X91088318Y-114689169D01*
X91088318Y-114689169D02*
X91909850Y-114405420D01*
X91909850Y-114405420D02*
X91949603Y-114395851D01*
X91949603Y-114395851D02*
X90869364Y-114395851D01*
X90869364Y-114395851D02*
X90370377Y-114632708D01*
X90370377Y-114632708D02*
X89938522Y-114872478D01*
X89938522Y-114872478D02*
X89508752Y-115173976D01*
X89508752Y-115173976D02*
X89102668Y-115516687D01*
X89102668Y-115516687D02*
X88741870Y-115880099D01*
X88741870Y-115880099D02*
X88447959Y-116243700D01*
X88447959Y-116243700D02*
X88242537Y-116586976D01*
X88242537Y-116586976D02*
X88195836Y-116697726D01*
X88195836Y-116697726D02*
X88122002Y-116856524D01*
X88122002Y-116856524D02*
X88061623Y-116889613D01*
X88061623Y-116889613D02*
X88011771Y-116796553D01*
X88011771Y-116796553D02*
X87983240Y-116665976D01*
X87983240Y-116665976D02*
X87915882Y-116332683D01*
X87915882Y-116332683D02*
X87818607Y-115928330D01*
X87818607Y-115928330D02*
X87703582Y-115501680D01*
X87703582Y-115501680D02*
X87632321Y-115259257D01*
X87632321Y-115259257D02*
X87569948Y-115025957D01*
X87569948Y-115025957D02*
X87556924Y-114849952D01*
X87556924Y-114849952D02*
X87604747Y-114697266D01*
X87604747Y-114697266D02*
X87724914Y-114533924D01*
X87724914Y-114533924D02*
X87928923Y-114325948D01*
X87928923Y-114325948D02*
X87957490Y-114298393D01*
X87957490Y-114298393D02*
X88256497Y-114066555D01*
X88256497Y-114066555D02*
X88648008Y-113844576D01*
X88648008Y-113844576D02*
X89097593Y-113646373D01*
X89097593Y-113646373D02*
X89570819Y-113485863D01*
X89570819Y-113485863D02*
X90033258Y-113376964D01*
X90033258Y-113376964D02*
X90331094Y-113338969D01*
X90331094Y-113338969D02*
X90643557Y-113316351D01*
X90643557Y-113316351D02*
X90717327Y-113602101D01*
X90717327Y-113602101D02*
X90773993Y-113845736D01*
X90773993Y-113845736D02*
X90821990Y-114091510D01*
X90821990Y-114091510D02*
X90830231Y-114141851D01*
X90830231Y-114141851D02*
X90869364Y-114395851D01*
X90869364Y-114395851D02*
X91949603Y-114395851D01*
X91949603Y-114395851D02*
X92678615Y-114220373D01*
X92678615Y-114220373D02*
X93419452Y-114132200D01*
X93419452Y-114132200D02*
X94157200Y-114139072D01*
X94157200Y-114139072D02*
X94916698Y-114239162D01*
X94916698Y-114239162D02*
X95482401Y-114365717D01*
X95482401Y-114365717D02*
X96239073Y-114601230D01*
X96239073Y-114601230D02*
X96898651Y-114896324D01*
X96898651Y-114896324D02*
X97480731Y-115260455D01*
X97480731Y-115260455D02*
X97715350Y-115443324D01*
X97715350Y-115443324D02*
X98165305Y-115870813D01*
X98165305Y-115870813D02*
X98568089Y-116358884D01*
X98568089Y-116358884D02*
X98906028Y-116880316D01*
X98906028Y-116880316D02*
X99161445Y-117407887D01*
X99161445Y-117407887D02*
X99315224Y-117907351D01*
X99315224Y-117907351D02*
X99357799Y-118220184D01*
X99357799Y-118220184D02*
X99379245Y-118615592D01*
X99379245Y-118615592D02*
X99379959Y-119050985D01*
X99379959Y-119050985D02*
X99687022Y-119050985D01*
X99687022Y-119050985D02*
X99682007Y-118618601D01*
X99682007Y-118618601D02*
X99599643Y-117912617D01*
X99599643Y-117912617D02*
X99425497Y-117276214D01*
X99425497Y-117276214D02*
X99150627Y-116689969D01*
X99150627Y-116689969D02*
X98766092Y-116134457D01*
X98766092Y-116134457D02*
X98308050Y-115634101D01*
X98308050Y-115634101D02*
X97639636Y-115066543D01*
X97639636Y-115066543D02*
X96898799Y-114600192D01*
X96898799Y-114600192D02*
X96096974Y-114240870D01*
X96096974Y-114240870D02*
X95245592Y-113994406D01*
X95245592Y-113994406D02*
X94993622Y-113945319D01*
X94993622Y-113945319D02*
X94408738Y-113877357D01*
X94408738Y-113877357D02*
X93761550Y-113860222D01*
X93761550Y-113860222D02*
X93087754Y-113890884D01*
X93087754Y-113890884D02*
X92423045Y-113966315D01*
X92423045Y-113966315D02*
X91803117Y-114083487D01*
X91803117Y-114083487D02*
X91263665Y-114239370D01*
X91263665Y-114239370D02*
X91185288Y-114268439D01*
X91185288Y-114268439D02*
X91118717Y-114269313D01*
X91118717Y-114269313D02*
X91074798Y-114192520D01*
X91074798Y-114192520D02*
X91040244Y-114013994D01*
X91040244Y-114013994D02*
X91038640Y-114002783D01*
X91038640Y-114002783D02*
X90900484Y-113343097D01*
X90900484Y-113343097D02*
X90819132Y-113101168D01*
X90819132Y-113101168D02*
X90556530Y-113101168D01*
X90556530Y-113101168D02*
X90498739Y-113121905D01*
X90498739Y-113121905D02*
X90342638Y-113144422D01*
X90342638Y-113144422D02*
X90116801Y-113165036D01*
X90116801Y-113165036D02*
X90002756Y-113172551D01*
X90002756Y-113172551D02*
X89568425Y-113219806D01*
X89568425Y-113219806D02*
X89198565Y-113312646D01*
X89198565Y-113312646D02*
X89035406Y-113373445D01*
X89035406Y-113373445D02*
X88607585Y-113569294D01*
X88607585Y-113569294D02*
X88218526Y-113787270D01*
X88218526Y-113787270D02*
X87893682Y-114011105D01*
X87893682Y-114011105D02*
X87658508Y-114224530D01*
X87658508Y-114224530D02*
X87607988Y-114285770D01*
X87607988Y-114285770D02*
X87419845Y-114537025D01*
X87419845Y-114537025D02*
X87150127Y-114244188D01*
X87150127Y-114244188D02*
X86997784Y-114053528D01*
X86997784Y-114053528D02*
X86883096Y-113863685D01*
X86883096Y-113863685D02*
X86839920Y-113749465D01*
X86839920Y-113749465D02*
X86831122Y-113496437D01*
X86831122Y-113496437D02*
X86880761Y-113186186D01*
X86880761Y-113186186D02*
X86977697Y-112867734D01*
X86977697Y-112867734D02*
X87098811Y-112610109D01*
X87098811Y-112610109D02*
X87371307Y-112262701D01*
X87371307Y-112262701D02*
X87743081Y-111962874D01*
X87743081Y-111962874D02*
X88191865Y-111721394D01*
X88191865Y-111721394D02*
X88695391Y-111549024D01*
X88695391Y-111549024D02*
X89231390Y-111456531D01*
X89231390Y-111456531D02*
X89511849Y-111443580D01*
X89511849Y-111443580D02*
X89648058Y-111449276D01*
X89648058Y-111449276D02*
X89743382Y-111483140D01*
X89743382Y-111483140D02*
X89827055Y-111569401D01*
X89827055Y-111569401D02*
X89928309Y-111732287D01*
X89928309Y-111732287D02*
X89988099Y-111838293D01*
X89988099Y-111838293D02*
X90096504Y-112043705D01*
X90096504Y-112043705D02*
X90217503Y-112290884D01*
X90217503Y-112290884D02*
X90337507Y-112549643D01*
X90337507Y-112549643D02*
X90442928Y-112789792D01*
X90442928Y-112789792D02*
X90520178Y-112981142D01*
X90520178Y-112981142D02*
X90555669Y-113093506D01*
X90555669Y-113093506D02*
X90556530Y-113101168D01*
X90556530Y-113101168D02*
X90819132Y-113101168D01*
X90819132Y-113101168D02*
X90679622Y-112686289D01*
X90679622Y-112686289D02*
X90387892Y-112050934D01*
X90387892Y-112050934D02*
X90037135Y-111455606D01*
X90037135Y-111455606D02*
X89857785Y-111213706D01*
X89857785Y-111213706D02*
X89478881Y-111213706D01*
X89478881Y-111213706D02*
X89420549Y-111227436D01*
X89420549Y-111227436D02*
X89265776Y-111245329D01*
X89265776Y-111245329D02*
X89044902Y-111264036D01*
X89044902Y-111264036D02*
X88982849Y-111268452D01*
X88982849Y-111268452D02*
X88659601Y-111304153D01*
X88659601Y-111304153D02*
X88391724Y-111372844D01*
X88391724Y-111372844D02*
X88108316Y-111493929D01*
X88108316Y-111493929D02*
X88046224Y-111524781D01*
X88046224Y-111524781D02*
X87526032Y-111839512D01*
X87526032Y-111839512D02*
X87124604Y-112198902D01*
X87124604Y-112198902D02*
X86841700Y-112603258D01*
X86841700Y-112603258D02*
X86677078Y-113052885D01*
X86677078Y-113052885D02*
X86636623Y-113322615D01*
X86636623Y-113322615D02*
X86615466Y-113541046D01*
X86615466Y-113541046D02*
X86588767Y-113658764D01*
X86588767Y-113658764D02*
X86544857Y-113701911D01*
X86544857Y-113701911D02*
X86472067Y-113696626D01*
X86472067Y-113696626D02*
X86469889Y-113696125D01*
X86469889Y-113696125D02*
X86318290Y-113663174D01*
X86318290Y-113663174D02*
X86120836Y-113622714D01*
X86120836Y-113622714D02*
X86089579Y-113616512D01*
X86089579Y-113616512D02*
X85938768Y-113574756D01*
X85938768Y-113574756D02*
X85841762Y-113500586D01*
X85841762Y-113500586D02*
X85762198Y-113358289D01*
X85762198Y-113358289D02*
X85718080Y-113251659D01*
X85718080Y-113251659D02*
X85625630Y-112855740D01*
X85625630Y-112855740D02*
X85635208Y-112424159D01*
X85635208Y-112424159D02*
X85737303Y-111981987D01*
X85737303Y-111981987D02*
X85922406Y-111554295D01*
X85922406Y-111554295D02*
X86181007Y-111166154D01*
X86181007Y-111166154D02*
X86503597Y-110842633D01*
X86503597Y-110842633D02*
X86679574Y-110716905D01*
X86679574Y-110716905D02*
X87040078Y-110531884D01*
X87040078Y-110531884D02*
X87462671Y-110378744D01*
X87462671Y-110378744D02*
X87882784Y-110280048D01*
X87882784Y-110280048D02*
X87962384Y-110268633D01*
X87962384Y-110268633D02*
X88247108Y-110260804D01*
X88247108Y-110260804D02*
X88501191Y-110322839D01*
X88501191Y-110322839D02*
X88750830Y-110467275D01*
X88750830Y-110467275D02*
X89022224Y-110706654D01*
X89022224Y-110706654D02*
X89145866Y-110835155D01*
X89145866Y-110835155D02*
X89303712Y-111007246D01*
X89303712Y-111007246D02*
X89421104Y-111139985D01*
X89421104Y-111139985D02*
X89476948Y-111209393D01*
X89476948Y-111209393D02*
X89478881Y-111213706D01*
X89478881Y-111213706D02*
X89857785Y-111213706D01*
X89857785Y-111213706D02*
X89639191Y-110918877D01*
X89639191Y-110918877D02*
X89205899Y-110459321D01*
X89205899Y-110459321D02*
X88749099Y-110095512D01*
X88749099Y-110095512D02*
X88635563Y-110030096D01*
X88635563Y-110030096D02*
X87677630Y-110030096D01*
X87677630Y-110030096D02*
X87673680Y-110038741D01*
X87673680Y-110038741D02*
X87579756Y-110098609D01*
X87579756Y-110098609D02*
X87507919Y-110109601D01*
X87507919Y-110109601D02*
X87314539Y-110145619D01*
X87314539Y-110145619D02*
X87053663Y-110244008D01*
X87053663Y-110244008D02*
X86758885Y-110390264D01*
X86758885Y-110390264D02*
X86505035Y-110542515D01*
X86505035Y-110542515D02*
X86110100Y-110873098D01*
X86110100Y-110873098D02*
X85795855Y-111284069D01*
X85795855Y-111284069D02*
X85570707Y-111752495D01*
X85570707Y-111752495D02*
X85443062Y-112255440D01*
X85443062Y-112255440D02*
X85421327Y-112769972D01*
X85421327Y-112769972D02*
X85509444Y-113258633D01*
X85509444Y-113258633D02*
X85563185Y-113438202D01*
X85563185Y-113438202D02*
X85597767Y-113558381D01*
X85597767Y-113558381D02*
X85604694Y-113586226D01*
X85604694Y-113586226D02*
X85558342Y-113600878D01*
X85558342Y-113600878D02*
X85410757Y-113584898D01*
X85410757Y-113584898D02*
X85152988Y-113537115D01*
X85152988Y-113537115D02*
X85024739Y-113510473D01*
X85024739Y-113510473D02*
X84756138Y-113440921D01*
X84756138Y-113440921D02*
X84493376Y-113352533D01*
X84493376Y-113352533D02*
X84333385Y-113283582D01*
X84333385Y-113283582D02*
X84063925Y-113146114D01*
X84063925Y-113146114D02*
X84099726Y-112719078D01*
X84099726Y-112719078D02*
X84197971Y-112147589D01*
X84197971Y-112147589D02*
X84387507Y-111636280D01*
X84387507Y-111636280D02*
X84660600Y-111199907D01*
X84660600Y-111199907D02*
X85009519Y-110853226D01*
X85009519Y-110853226D02*
X85118439Y-110775108D01*
X85118439Y-110775108D02*
X85476689Y-110567835D01*
X85476689Y-110567835D02*
X85896667Y-110373159D01*
X85896667Y-110373159D02*
X86129162Y-110285041D01*
X86129162Y-110285041D02*
X85502840Y-110285041D01*
X85502840Y-110285041D02*
X85245090Y-110416536D01*
X85245090Y-110416536D02*
X84877920Y-110647355D01*
X84877920Y-110647355D02*
X84568579Y-110945401D01*
X84568579Y-110945401D02*
X84322370Y-111280434D01*
X84322370Y-111280434D02*
X84059709Y-111781655D01*
X84059709Y-111781655D02*
X83916090Y-112296404D01*
X83916090Y-112296404D02*
X83882621Y-112664314D01*
X83882621Y-112664314D02*
X83874238Y-113027949D01*
X83874238Y-113027949D02*
X83699796Y-112924904D01*
X83699796Y-112924904D02*
X83561625Y-112829267D01*
X83561625Y-112829267D02*
X83372876Y-112681182D01*
X83372876Y-112681182D02*
X83191500Y-112527513D01*
X83191500Y-112527513D02*
X82857646Y-112233168D01*
X82857646Y-112233168D02*
X82866665Y-111822259D01*
X82866665Y-111822259D02*
X82922114Y-111322114D01*
X82922114Y-111322114D02*
X83058564Y-110864081D01*
X83058564Y-110864081D02*
X83265151Y-110463675D01*
X83265151Y-110463675D02*
X83531011Y-110136407D01*
X83531011Y-110136407D02*
X83845281Y-109897790D01*
X83845281Y-109897790D02*
X84197095Y-109763337D01*
X84197095Y-109763337D02*
X84321979Y-109744238D01*
X84321979Y-109744238D02*
X84618809Y-109751246D01*
X84618809Y-109751246D02*
X84896775Y-109841732D01*
X84896775Y-109841732D02*
X85189739Y-110028350D01*
X85189739Y-110028350D02*
X85284236Y-110103829D01*
X85284236Y-110103829D02*
X85502840Y-110285041D01*
X85502840Y-110285041D02*
X86129162Y-110285041D01*
X86129162Y-110285041D02*
X86340110Y-110205090D01*
X86340110Y-110205090D02*
X86768754Y-110077634D01*
X86768754Y-110077634D02*
X87144336Y-110004799D01*
X87144336Y-110004799D02*
X87248802Y-109995214D01*
X87248802Y-109995214D02*
X87502499Y-109986477D01*
X87502499Y-109986477D02*
X87641732Y-109997724D01*
X87641732Y-109997724D02*
X87677630Y-110030096D01*
X87677630Y-110030096D02*
X88635563Y-110030096D01*
X88635563Y-110030096D02*
X88431131Y-109912310D01*
X88431131Y-109912310D02*
X88221391Y-109814651D01*
X88221391Y-109814651D02*
X88051369Y-109752004D01*
X88051369Y-109752004D02*
X87881154Y-109716646D01*
X87881154Y-109716646D02*
X87670840Y-109700853D01*
X87670840Y-109700853D02*
X87380516Y-109696901D01*
X87380516Y-109696901D02*
X87317881Y-109696851D01*
X87317881Y-109696851D02*
X87007398Y-109699729D01*
X87007398Y-109699729D02*
X86785390Y-109713089D01*
X86785390Y-109713089D02*
X86613375Y-109744013D01*
X86613375Y-109744013D02*
X86452873Y-109799584D01*
X86452873Y-109799584D02*
X86265403Y-109886888D01*
X86265403Y-109886888D02*
X86253444Y-109892801D01*
X86253444Y-109892801D02*
X86107218Y-109967082D01*
X86107218Y-109967082D02*
X85993807Y-110017964D01*
X85993807Y-110017964D02*
X85894402Y-110038434D01*
X85894402Y-110038434D02*
X85790195Y-110021482D01*
X85790195Y-110021482D02*
X85662378Y-109960095D01*
X85662378Y-109960095D02*
X85492144Y-109847261D01*
X85492144Y-109847261D02*
X85260683Y-109675969D01*
X85260683Y-109675969D02*
X84973053Y-109457344D01*
X84973053Y-109457344D02*
X84416164Y-109457344D01*
X84416164Y-109457344D02*
X84069373Y-109566424D01*
X84069373Y-109566424D02*
X83670554Y-109755850D01*
X83670554Y-109755850D02*
X83322124Y-110047063D01*
X83322124Y-110047063D02*
X83037091Y-110420472D01*
X83037091Y-110420472D02*
X82828466Y-110856487D01*
X82828466Y-110856487D02*
X82709259Y-111335520D01*
X82709259Y-111335520D02*
X82685934Y-111649476D01*
X82685934Y-111649476D02*
X82672621Y-111802617D01*
X82672621Y-111802617D02*
X82641561Y-111883719D01*
X82641561Y-111883719D02*
X82632145Y-111887601D01*
X82632145Y-111887601D02*
X82581622Y-111834693D01*
X82581622Y-111834693D02*
X82493503Y-111694077D01*
X82493503Y-111694077D02*
X82384363Y-111492910D01*
X82384363Y-111492910D02*
X82351198Y-111427226D01*
X82351198Y-111427226D02*
X82151477Y-110997907D01*
X82151477Y-110997907D02*
X82020006Y-110643123D01*
X82020006Y-110643123D02*
X81949309Y-110335457D01*
X81949309Y-110335457D02*
X81931911Y-110047487D01*
X81931911Y-110047487D02*
X81939473Y-109917083D01*
X81939473Y-109917083D02*
X82018779Y-109519361D01*
X82018779Y-109519361D02*
X82177398Y-109220235D01*
X82177398Y-109220235D02*
X82418242Y-109016853D01*
X82418242Y-109016853D02*
X82744225Y-108906362D01*
X82744225Y-108906362D02*
X82995065Y-108883153D01*
X82995065Y-108883153D02*
X83481553Y-108924418D01*
X83481553Y-108924418D02*
X83898683Y-109068539D01*
X83898683Y-109068539D02*
X84169398Y-109248553D01*
X84169398Y-109248553D02*
X84416164Y-109457344D01*
X84416164Y-109457344D02*
X84973053Y-109457344D01*
X84973053Y-109457344D02*
X84949189Y-109439206D01*
X84949189Y-109439206D02*
X84864607Y-109375025D01*
X84864607Y-109375025D02*
X84492039Y-109098726D01*
X84492039Y-109098726D02*
X84192219Y-108894512D01*
X84192219Y-108894512D02*
X83941427Y-108751868D01*
X83941427Y-108751868D02*
X83715944Y-108660278D01*
X83715944Y-108660278D02*
X83492052Y-108609224D01*
X83492052Y-108609224D02*
X83246031Y-108588189D01*
X83246031Y-108588189D02*
X83084145Y-108585601D01*
X83084145Y-108585601D02*
X82630929Y-108624097D01*
X82630929Y-108624097D02*
X82630929Y-108624097D01*
G36*
X89205899Y-110459321D02*
G01*
X89639191Y-110918877D01*
X89857785Y-111213706D01*
X90037135Y-111455606D01*
X90387892Y-112050934D01*
X90679622Y-112686289D01*
X90819132Y-113101168D01*
X90900484Y-113343097D01*
X91038640Y-114002783D01*
X91040244Y-114013994D01*
X91074798Y-114192520D01*
X91118717Y-114269313D01*
X91185288Y-114268439D01*
X91263665Y-114239370D01*
X91803117Y-114083487D01*
X92423045Y-113966315D01*
X93087754Y-113890884D01*
X93761550Y-113860222D01*
X94408738Y-113877357D01*
X94993622Y-113945319D01*
X95245592Y-113994406D01*
X96096974Y-114240870D01*
X96898799Y-114600192D01*
X97639636Y-115066543D01*
X98308050Y-115634101D01*
X98766092Y-116134457D01*
X99150627Y-116689969D01*
X99425497Y-117276214D01*
X99599643Y-117912617D01*
X99682007Y-118618601D01*
X99687022Y-119050985D01*
X99688088Y-119142946D01*
X99602579Y-119985330D01*
X99399959Y-120786858D01*
X99082773Y-121540615D01*
X98653566Y-122239686D01*
X98114881Y-122877156D01*
X98038419Y-122954544D01*
X97776073Y-123205613D01*
X97546435Y-123393277D01*
X97312029Y-123545807D01*
X97035381Y-123691471D01*
X96614377Y-123869263D01*
X96101488Y-124040288D01*
X95542663Y-124191036D01*
X94978711Y-124310515D01*
X94450443Y-124387733D01*
X94335950Y-124398990D01*
X93500491Y-124432662D01*
X92676699Y-124384266D01*
X91881661Y-124258213D01*
X91132463Y-124058917D01*
X90446191Y-123790788D01*
X89839931Y-123458240D01*
X89330770Y-123065684D01*
X88928713Y-122654066D01*
X88439680Y-122007062D01*
X88063095Y-121306816D01*
X87801526Y-120561261D01*
X87657545Y-119778328D01*
X87637837Y-119106338D01*
X87882151Y-119106338D01*
X87896468Y-119777322D01*
X87910809Y-119907720D01*
X87998261Y-120388687D01*
X88146493Y-120851644D01*
X88371372Y-121349101D01*
X88426839Y-121455679D01*
X88843272Y-122100434D01*
X89355782Y-122668422D01*
X89955570Y-123153424D01*
X90633839Y-123549224D01*
X91381789Y-123849602D01*
X92190622Y-124048340D01*
X92228504Y-124054736D01*
X92677715Y-124107471D01*
X93200937Y-124135587D01*
X93758361Y-124139565D01*
X94310175Y-124119887D01*
X94816568Y-124077035D01*
X95237730Y-124011489D01*
X95557731Y-123936475D01*
X96442664Y-123644074D01*
X97273565Y-123240824D01*
X97317092Y-123215310D01*
X97763572Y-122881775D01*
X98179435Y-122443444D01*
X98552616Y-121919505D01*
X98871050Y-121329142D01*
X99122670Y-120691542D01*
X99295411Y-120025890D01*
X99320787Y-119871377D01*
X99360341Y-119483776D01*
X99379959Y-119050985D01*
X99379245Y-118615592D01*
X99357799Y-118220184D01*
X99315224Y-117907351D01*
X99161445Y-117407887D01*
X98906028Y-116880316D01*
X98568089Y-116358884D01*
X98165305Y-115870813D01*
X97715350Y-115443324D01*
X97480731Y-115260455D01*
X96898651Y-114896324D01*
X96239073Y-114601230D01*
X95482401Y-114365717D01*
X94916698Y-114239162D01*
X94157200Y-114139072D01*
X93419452Y-114132200D01*
X92678615Y-114220373D01*
X91949603Y-114395851D01*
X91909850Y-114405420D01*
X91088318Y-114689169D01*
X90968891Y-114736903D01*
X90244645Y-115087016D01*
X89623124Y-115503613D01*
X89095861Y-115993209D01*
X88654394Y-116562318D01*
X88363994Y-117092723D01*
X88123923Y-117730067D01*
X87960639Y-118412596D01*
X87882151Y-119106338D01*
X87637837Y-119106338D01*
X87633720Y-118965951D01*
X87732621Y-118132061D01*
X87738939Y-118098569D01*
X87783979Y-117829466D01*
X87815804Y-117586646D01*
X87827871Y-117419091D01*
X87822111Y-117348329D01*
X87788064Y-117144971D01*
X87729007Y-116860071D01*
X87651353Y-116519209D01*
X87561515Y-116147967D01*
X87465907Y-115771925D01*
X87370942Y-115416665D01*
X87283033Y-115107768D01*
X87208594Y-114870814D01*
X87200431Y-114849952D01*
X87556924Y-114849952D01*
X87569948Y-115025957D01*
X87632321Y-115259257D01*
X87703582Y-115501680D01*
X87818607Y-115928330D01*
X87915882Y-116332683D01*
X87983240Y-116665976D01*
X88011771Y-116796553D01*
X88061623Y-116889613D01*
X88122002Y-116856524D01*
X88195836Y-116697726D01*
X88242537Y-116586976D01*
X88447959Y-116243700D01*
X88741870Y-115880099D01*
X89102668Y-115516687D01*
X89508752Y-115173976D01*
X89938522Y-114872478D01*
X90370377Y-114632708D01*
X90869364Y-114395851D01*
X90830231Y-114141851D01*
X90821990Y-114091510D01*
X90773993Y-113845736D01*
X90717327Y-113602101D01*
X90643557Y-113316351D01*
X90331094Y-113338969D01*
X90033258Y-113376964D01*
X89570819Y-113485863D01*
X89097593Y-113646373D01*
X88648008Y-113844576D01*
X88256497Y-114066555D01*
X87957490Y-114298393D01*
X87928923Y-114325948D01*
X87724914Y-114533924D01*
X87604747Y-114697266D01*
X87556924Y-114849952D01*
X87200431Y-114849952D01*
X87154038Y-114731384D01*
X87060283Y-114587061D01*
X86907582Y-114392330D01*
X86731235Y-114193159D01*
X86412459Y-113856101D01*
X85925333Y-113856101D01*
X85655442Y-113850440D01*
X85134621Y-113795780D01*
X84658080Y-113674318D01*
X84176631Y-113475342D01*
X84099868Y-113437432D01*
X83625348Y-113146114D01*
X84063925Y-113146114D01*
X84333385Y-113283582D01*
X84493376Y-113352533D01*
X84756138Y-113440921D01*
X85024739Y-113510473D01*
X85152988Y-113537115D01*
X85410757Y-113584898D01*
X85558342Y-113600878D01*
X85604694Y-113586226D01*
X85597767Y-113558381D01*
X85563185Y-113438202D01*
X85509444Y-113258633D01*
X85436793Y-112855740D01*
X85625630Y-112855740D01*
X85718080Y-113251659D01*
X85762198Y-113358289D01*
X85841762Y-113500586D01*
X85938768Y-113574756D01*
X86089579Y-113616512D01*
X86120836Y-113622714D01*
X86318290Y-113663174D01*
X86469889Y-113696125D01*
X86472067Y-113696626D01*
X86544857Y-113701911D01*
X86588767Y-113658764D01*
X86615466Y-113541046D01*
X86619787Y-113496437D01*
X86831122Y-113496437D01*
X86839920Y-113749465D01*
X86883096Y-113863685D01*
X86997784Y-114053528D01*
X87150127Y-114244188D01*
X87419845Y-114537025D01*
X87607988Y-114285770D01*
X87658508Y-114224530D01*
X87893682Y-114011105D01*
X88218526Y-113787270D01*
X88607585Y-113569294D01*
X89035406Y-113373445D01*
X89198565Y-113312646D01*
X89568425Y-113219806D01*
X90002756Y-113172551D01*
X90116801Y-113165036D01*
X90342638Y-113144422D01*
X90498739Y-113121905D01*
X90556530Y-113101168D01*
X90555669Y-113093506D01*
X90520178Y-112981142D01*
X90442928Y-112789792D01*
X90337507Y-112549643D01*
X90217503Y-112290884D01*
X90096504Y-112043705D01*
X89988099Y-111838293D01*
X89928309Y-111732287D01*
X89827055Y-111569401D01*
X89743382Y-111483140D01*
X89648058Y-111449276D01*
X89511849Y-111443580D01*
X89231390Y-111456531D01*
X88695391Y-111549024D01*
X88191865Y-111721394D01*
X87743081Y-111962874D01*
X87371307Y-112262701D01*
X87098811Y-112610109D01*
X86977697Y-112867734D01*
X86880761Y-113186186D01*
X86831122Y-113496437D01*
X86619787Y-113496437D01*
X86636623Y-113322615D01*
X86677078Y-113052885D01*
X86841700Y-112603258D01*
X87124604Y-112198902D01*
X87526032Y-111839512D01*
X88046224Y-111524781D01*
X88108316Y-111493929D01*
X88391724Y-111372844D01*
X88659601Y-111304153D01*
X88982849Y-111268452D01*
X89044902Y-111264036D01*
X89265776Y-111245329D01*
X89420549Y-111227436D01*
X89478881Y-111213706D01*
X89476948Y-111209393D01*
X89421104Y-111139985D01*
X89303712Y-111007246D01*
X89145866Y-110835155D01*
X89022224Y-110706654D01*
X88750830Y-110467275D01*
X88501191Y-110322839D01*
X88247108Y-110260804D01*
X87962384Y-110268633D01*
X87882784Y-110280048D01*
X87462671Y-110378744D01*
X87040078Y-110531884D01*
X86679574Y-110716905D01*
X86503597Y-110842633D01*
X86181007Y-111166154D01*
X85922406Y-111554295D01*
X85737303Y-111981987D01*
X85635208Y-112424159D01*
X85625630Y-112855740D01*
X85436793Y-112855740D01*
X85421327Y-112769972D01*
X85443062Y-112255440D01*
X85570707Y-111752495D01*
X85795855Y-111284069D01*
X86110100Y-110873098D01*
X86505035Y-110542515D01*
X86758885Y-110390264D01*
X87053663Y-110244008D01*
X87314539Y-110145619D01*
X87507919Y-110109601D01*
X87579756Y-110098609D01*
X87673680Y-110038741D01*
X87677630Y-110030096D01*
X87641732Y-109997724D01*
X87502499Y-109986477D01*
X87248802Y-109995214D01*
X87144336Y-110004799D01*
X86768754Y-110077634D01*
X86340110Y-110205090D01*
X86129162Y-110285041D01*
X85896667Y-110373159D01*
X85476689Y-110567835D01*
X85118439Y-110775108D01*
X85009519Y-110853226D01*
X84660600Y-111199907D01*
X84387507Y-111636280D01*
X84197971Y-112147589D01*
X84099726Y-112719078D01*
X84063925Y-113146114D01*
X83625348Y-113146114D01*
X83457730Y-113043210D01*
X82892519Y-112552299D01*
X82627407Y-112233168D01*
X82857646Y-112233168D01*
X83191500Y-112527513D01*
X83372876Y-112681182D01*
X83561625Y-112829267D01*
X83699796Y-112924904D01*
X83874238Y-113027949D01*
X83882621Y-112664314D01*
X83916090Y-112296404D01*
X84059709Y-111781655D01*
X84322370Y-111280434D01*
X84568579Y-110945401D01*
X84877920Y-110647355D01*
X85245090Y-110416536D01*
X85502840Y-110285041D01*
X85284236Y-110103829D01*
X85189739Y-110028350D01*
X84896775Y-109841732D01*
X84618809Y-109751246D01*
X84321979Y-109744238D01*
X84197095Y-109763337D01*
X83845281Y-109897790D01*
X83531011Y-110136407D01*
X83265151Y-110463675D01*
X83058564Y-110864081D01*
X82922114Y-111322114D01*
X82866665Y-111822259D01*
X82857646Y-112233168D01*
X82627407Y-112233168D01*
X82412298Y-111974228D01*
X82025128Y-111318525D01*
X81739072Y-110594717D01*
X81683775Y-110404104D01*
X81642129Y-110192203D01*
X81640029Y-110047487D01*
X81931911Y-110047487D01*
X81949309Y-110335457D01*
X82020006Y-110643123D01*
X82151477Y-110997907D01*
X82351198Y-111427226D01*
X82384363Y-111492910D01*
X82493503Y-111694077D01*
X82581622Y-111834693D01*
X82632145Y-111887601D01*
X82641561Y-111883719D01*
X82672621Y-111802617D01*
X82685934Y-111649476D01*
X82709259Y-111335520D01*
X82828466Y-110856487D01*
X83037091Y-110420472D01*
X83322124Y-110047063D01*
X83670554Y-109755850D01*
X84069373Y-109566424D01*
X84416164Y-109457344D01*
X84169398Y-109248553D01*
X83898683Y-109068539D01*
X83481553Y-108924418D01*
X82995065Y-108883153D01*
X82744225Y-108906362D01*
X82418242Y-109016853D01*
X82177398Y-109220235D01*
X82018779Y-109519361D01*
X81939473Y-109917083D01*
X81931911Y-110047487D01*
X81640029Y-110047487D01*
X81639256Y-109994196D01*
X81670184Y-109749068D01*
X81686627Y-109656050D01*
X81808174Y-109253402D01*
X82000821Y-108951516D01*
X82272447Y-108743908D01*
X82630929Y-108624097D01*
X83084145Y-108585601D01*
X83246031Y-108588189D01*
X83492052Y-108609224D01*
X83715944Y-108660278D01*
X83941427Y-108751868D01*
X84192219Y-108894512D01*
X84492039Y-109098726D01*
X84864607Y-109375025D01*
X84949189Y-109439206D01*
X84973053Y-109457344D01*
X85260683Y-109675969D01*
X85492144Y-109847261D01*
X85662378Y-109960095D01*
X85790195Y-110021482D01*
X85894402Y-110038434D01*
X85993807Y-110017964D01*
X86107218Y-109967082D01*
X86253444Y-109892801D01*
X86265403Y-109886888D01*
X86452873Y-109799584D01*
X86613375Y-109744013D01*
X86785390Y-109713089D01*
X87007398Y-109699729D01*
X87317881Y-109696851D01*
X87380516Y-109696901D01*
X87670840Y-109700853D01*
X87881154Y-109716646D01*
X88051369Y-109752004D01*
X88221391Y-109814651D01*
X88431131Y-109912310D01*
X88635563Y-110030096D01*
X88749099Y-110095512D01*
X89205899Y-110459321D01*
G37*
X89205899Y-110459321D02*
X89639191Y-110918877D01*
X89857785Y-111213706D01*
X90037135Y-111455606D01*
X90387892Y-112050934D01*
X90679622Y-112686289D01*
X90819132Y-113101168D01*
X90900484Y-113343097D01*
X91038640Y-114002783D01*
X91040244Y-114013994D01*
X91074798Y-114192520D01*
X91118717Y-114269313D01*
X91185288Y-114268439D01*
X91263665Y-114239370D01*
X91803117Y-114083487D01*
X92423045Y-113966315D01*
X93087754Y-113890884D01*
X93761550Y-113860222D01*
X94408738Y-113877357D01*
X94993622Y-113945319D01*
X95245592Y-113994406D01*
X96096974Y-114240870D01*
X96898799Y-114600192D01*
X97639636Y-115066543D01*
X98308050Y-115634101D01*
X98766092Y-116134457D01*
X99150627Y-116689969D01*
X99425497Y-117276214D01*
X99599643Y-117912617D01*
X99682007Y-118618601D01*
X99687022Y-119050985D01*
X99688088Y-119142946D01*
X99602579Y-119985330D01*
X99399959Y-120786858D01*
X99082773Y-121540615D01*
X98653566Y-122239686D01*
X98114881Y-122877156D01*
X98038419Y-122954544D01*
X97776073Y-123205613D01*
X97546435Y-123393277D01*
X97312029Y-123545807D01*
X97035381Y-123691471D01*
X96614377Y-123869263D01*
X96101488Y-124040288D01*
X95542663Y-124191036D01*
X94978711Y-124310515D01*
X94450443Y-124387733D01*
X94335950Y-124398990D01*
X93500491Y-124432662D01*
X92676699Y-124384266D01*
X91881661Y-124258213D01*
X91132463Y-124058917D01*
X90446191Y-123790788D01*
X89839931Y-123458240D01*
X89330770Y-123065684D01*
X88928713Y-122654066D01*
X88439680Y-122007062D01*
X88063095Y-121306816D01*
X87801526Y-120561261D01*
X87657545Y-119778328D01*
X87637837Y-119106338D01*
X87882151Y-119106338D01*
X87896468Y-119777322D01*
X87910809Y-119907720D01*
X87998261Y-120388687D01*
X88146493Y-120851644D01*
X88371372Y-121349101D01*
X88426839Y-121455679D01*
X88843272Y-122100434D01*
X89355782Y-122668422D01*
X89955570Y-123153424D01*
X90633839Y-123549224D01*
X91381789Y-123849602D01*
X92190622Y-124048340D01*
X92228504Y-124054736D01*
X92677715Y-124107471D01*
X93200937Y-124135587D01*
X93758361Y-124139565D01*
X94310175Y-124119887D01*
X94816568Y-124077035D01*
X95237730Y-124011489D01*
X95557731Y-123936475D01*
X96442664Y-123644074D01*
X97273565Y-123240824D01*
X97317092Y-123215310D01*
X97763572Y-122881775D01*
X98179435Y-122443444D01*
X98552616Y-121919505D01*
X98871050Y-121329142D01*
X99122670Y-120691542D01*
X99295411Y-120025890D01*
X99320787Y-119871377D01*
X99360341Y-119483776D01*
X99379959Y-119050985D01*
X99379245Y-118615592D01*
X99357799Y-118220184D01*
X99315224Y-117907351D01*
X99161445Y-117407887D01*
X98906028Y-116880316D01*
X98568089Y-116358884D01*
X98165305Y-115870813D01*
X97715350Y-115443324D01*
X97480731Y-115260455D01*
X96898651Y-114896324D01*
X96239073Y-114601230D01*
X95482401Y-114365717D01*
X94916698Y-114239162D01*
X94157200Y-114139072D01*
X93419452Y-114132200D01*
X92678615Y-114220373D01*
X91949603Y-114395851D01*
X91909850Y-114405420D01*
X91088318Y-114689169D01*
X90968891Y-114736903D01*
X90244645Y-115087016D01*
X89623124Y-115503613D01*
X89095861Y-115993209D01*
X88654394Y-116562318D01*
X88363994Y-117092723D01*
X88123923Y-117730067D01*
X87960639Y-118412596D01*
X87882151Y-119106338D01*
X87637837Y-119106338D01*
X87633720Y-118965951D01*
X87732621Y-118132061D01*
X87738939Y-118098569D01*
X87783979Y-117829466D01*
X87815804Y-117586646D01*
X87827871Y-117419091D01*
X87822111Y-117348329D01*
X87788064Y-117144971D01*
X87729007Y-116860071D01*
X87651353Y-116519209D01*
X87561515Y-116147967D01*
X87465907Y-115771925D01*
X87370942Y-115416665D01*
X87283033Y-115107768D01*
X87208594Y-114870814D01*
X87200431Y-114849952D01*
X87556924Y-114849952D01*
X87569948Y-115025957D01*
X87632321Y-115259257D01*
X87703582Y-115501680D01*
X87818607Y-115928330D01*
X87915882Y-116332683D01*
X87983240Y-116665976D01*
X88011771Y-116796553D01*
X88061623Y-116889613D01*
X88122002Y-116856524D01*
X88195836Y-116697726D01*
X88242537Y-116586976D01*
X88447959Y-116243700D01*
X88741870Y-115880099D01*
X89102668Y-115516687D01*
X89508752Y-115173976D01*
X89938522Y-114872478D01*
X90370377Y-114632708D01*
X90869364Y-114395851D01*
X90830231Y-114141851D01*
X90821990Y-114091510D01*
X90773993Y-113845736D01*
X90717327Y-113602101D01*
X90643557Y-113316351D01*
X90331094Y-113338969D01*
X90033258Y-113376964D01*
X89570819Y-113485863D01*
X89097593Y-113646373D01*
X88648008Y-113844576D01*
X88256497Y-114066555D01*
X87957490Y-114298393D01*
X87928923Y-114325948D01*
X87724914Y-114533924D01*
X87604747Y-114697266D01*
X87556924Y-114849952D01*
X87200431Y-114849952D01*
X87154038Y-114731384D01*
X87060283Y-114587061D01*
X86907582Y-114392330D01*
X86731235Y-114193159D01*
X86412459Y-113856101D01*
X85925333Y-113856101D01*
X85655442Y-113850440D01*
X85134621Y-113795780D01*
X84658080Y-113674318D01*
X84176631Y-113475342D01*
X84099868Y-113437432D01*
X83625348Y-113146114D01*
X84063925Y-113146114D01*
X84333385Y-113283582D01*
X84493376Y-113352533D01*
X84756138Y-113440921D01*
X85024739Y-113510473D01*
X85152988Y-113537115D01*
X85410757Y-113584898D01*
X85558342Y-113600878D01*
X85604694Y-113586226D01*
X85597767Y-113558381D01*
X85563185Y-113438202D01*
X85509444Y-113258633D01*
X85436793Y-112855740D01*
X85625630Y-112855740D01*
X85718080Y-113251659D01*
X85762198Y-113358289D01*
X85841762Y-113500586D01*
X85938768Y-113574756D01*
X86089579Y-113616512D01*
X86120836Y-113622714D01*
X86318290Y-113663174D01*
X86469889Y-113696125D01*
X86472067Y-113696626D01*
X86544857Y-113701911D01*
X86588767Y-113658764D01*
X86615466Y-113541046D01*
X86619787Y-113496437D01*
X86831122Y-113496437D01*
X86839920Y-113749465D01*
X86883096Y-113863685D01*
X86997784Y-114053528D01*
X87150127Y-114244188D01*
X87419845Y-114537025D01*
X87607988Y-114285770D01*
X87658508Y-114224530D01*
X87893682Y-114011105D01*
X88218526Y-113787270D01*
X88607585Y-113569294D01*
X89035406Y-113373445D01*
X89198565Y-113312646D01*
X89568425Y-113219806D01*
X90002756Y-113172551D01*
X90116801Y-113165036D01*
X90342638Y-113144422D01*
X90498739Y-113121905D01*
X90556530Y-113101168D01*
X90555669Y-113093506D01*
X90520178Y-112981142D01*
X90442928Y-112789792D01*
X90337507Y-112549643D01*
X90217503Y-112290884D01*
X90096504Y-112043705D01*
X89988099Y-111838293D01*
X89928309Y-111732287D01*
X89827055Y-111569401D01*
X89743382Y-111483140D01*
X89648058Y-111449276D01*
X89511849Y-111443580D01*
X89231390Y-111456531D01*
X88695391Y-111549024D01*
X88191865Y-111721394D01*
X87743081Y-111962874D01*
X87371307Y-112262701D01*
X87098811Y-112610109D01*
X86977697Y-112867734D01*
X86880761Y-113186186D01*
X86831122Y-113496437D01*
X86619787Y-113496437D01*
X86636623Y-113322615D01*
X86677078Y-113052885D01*
X86841700Y-112603258D01*
X87124604Y-112198902D01*
X87526032Y-111839512D01*
X88046224Y-111524781D01*
X88108316Y-111493929D01*
X88391724Y-111372844D01*
X88659601Y-111304153D01*
X88982849Y-111268452D01*
X89044902Y-111264036D01*
X89265776Y-111245329D01*
X89420549Y-111227436D01*
X89478881Y-111213706D01*
X89476948Y-111209393D01*
X89421104Y-111139985D01*
X89303712Y-111007246D01*
X89145866Y-110835155D01*
X89022224Y-110706654D01*
X88750830Y-110467275D01*
X88501191Y-110322839D01*
X88247108Y-110260804D01*
X87962384Y-110268633D01*
X87882784Y-110280048D01*
X87462671Y-110378744D01*
X87040078Y-110531884D01*
X86679574Y-110716905D01*
X86503597Y-110842633D01*
X86181007Y-111166154D01*
X85922406Y-111554295D01*
X85737303Y-111981987D01*
X85635208Y-112424159D01*
X85625630Y-112855740D01*
X85436793Y-112855740D01*
X85421327Y-112769972D01*
X85443062Y-112255440D01*
X85570707Y-111752495D01*
X85795855Y-111284069D01*
X86110100Y-110873098D01*
X86505035Y-110542515D01*
X86758885Y-110390264D01*
X87053663Y-110244008D01*
X87314539Y-110145619D01*
X87507919Y-110109601D01*
X87579756Y-110098609D01*
X87673680Y-110038741D01*
X87677630Y-110030096D01*
X87641732Y-109997724D01*
X87502499Y-109986477D01*
X87248802Y-109995214D01*
X87144336Y-110004799D01*
X86768754Y-110077634D01*
X86340110Y-110205090D01*
X86129162Y-110285041D01*
X85896667Y-110373159D01*
X85476689Y-110567835D01*
X85118439Y-110775108D01*
X85009519Y-110853226D01*
X84660600Y-111199907D01*
X84387507Y-111636280D01*
X84197971Y-112147589D01*
X84099726Y-112719078D01*
X84063925Y-113146114D01*
X83625348Y-113146114D01*
X83457730Y-113043210D01*
X82892519Y-112552299D01*
X82627407Y-112233168D01*
X82857646Y-112233168D01*
X83191500Y-112527513D01*
X83372876Y-112681182D01*
X83561625Y-112829267D01*
X83699796Y-112924904D01*
X83874238Y-113027949D01*
X83882621Y-112664314D01*
X83916090Y-112296404D01*
X84059709Y-111781655D01*
X84322370Y-111280434D01*
X84568579Y-110945401D01*
X84877920Y-110647355D01*
X85245090Y-110416536D01*
X85502840Y-110285041D01*
X85284236Y-110103829D01*
X85189739Y-110028350D01*
X84896775Y-109841732D01*
X84618809Y-109751246D01*
X84321979Y-109744238D01*
X84197095Y-109763337D01*
X83845281Y-109897790D01*
X83531011Y-110136407D01*
X83265151Y-110463675D01*
X83058564Y-110864081D01*
X82922114Y-111322114D01*
X82866665Y-111822259D01*
X82857646Y-112233168D01*
X82627407Y-112233168D01*
X82412298Y-111974228D01*
X82025128Y-111318525D01*
X81739072Y-110594717D01*
X81683775Y-110404104D01*
X81642129Y-110192203D01*
X81640029Y-110047487D01*
X81931911Y-110047487D01*
X81949309Y-110335457D01*
X82020006Y-110643123D01*
X82151477Y-110997907D01*
X82351198Y-111427226D01*
X82384363Y-111492910D01*
X82493503Y-111694077D01*
X82581622Y-111834693D01*
X82632145Y-111887601D01*
X82641561Y-111883719D01*
X82672621Y-111802617D01*
X82685934Y-111649476D01*
X82709259Y-111335520D01*
X82828466Y-110856487D01*
X83037091Y-110420472D01*
X83322124Y-110047063D01*
X83670554Y-109755850D01*
X84069373Y-109566424D01*
X84416164Y-109457344D01*
X84169398Y-109248553D01*
X83898683Y-109068539D01*
X83481553Y-108924418D01*
X82995065Y-108883153D01*
X82744225Y-108906362D01*
X82418242Y-109016853D01*
X82177398Y-109220235D01*
X82018779Y-109519361D01*
X81939473Y-109917083D01*
X81931911Y-110047487D01*
X81640029Y-110047487D01*
X81639256Y-109994196D01*
X81670184Y-109749068D01*
X81686627Y-109656050D01*
X81808174Y-109253402D01*
X82000821Y-108951516D01*
X82272447Y-108743908D01*
X82630929Y-108624097D01*
X83084145Y-108585601D01*
X83246031Y-108588189D01*
X83492052Y-108609224D01*
X83715944Y-108660278D01*
X83941427Y-108751868D01*
X84192219Y-108894512D01*
X84492039Y-109098726D01*
X84864607Y-109375025D01*
X84949189Y-109439206D01*
X84973053Y-109457344D01*
X85260683Y-109675969D01*
X85492144Y-109847261D01*
X85662378Y-109960095D01*
X85790195Y-110021482D01*
X85894402Y-110038434D01*
X85993807Y-110017964D01*
X86107218Y-109967082D01*
X86253444Y-109892801D01*
X86265403Y-109886888D01*
X86452873Y-109799584D01*
X86613375Y-109744013D01*
X86785390Y-109713089D01*
X87007398Y-109699729D01*
X87317881Y-109696851D01*
X87380516Y-109696901D01*
X87670840Y-109700853D01*
X87881154Y-109716646D01*
X88051369Y-109752004D01*
X88221391Y-109814651D01*
X88431131Y-109912310D01*
X88635563Y-110030096D01*
X88749099Y-110095512D01*
X89205899Y-110459321D01*
X85871066Y-120701307D02*
X85871358Y-120777601D01*
X85871358Y-120777601D02*
X85889942Y-120960200D01*
X85889942Y-120960200D02*
X85922881Y-121126851D01*
X85922881Y-121126851D02*
X85971356Y-121317351D01*
X85971356Y-121317351D02*
X85974405Y-121095101D01*
X85974405Y-121095101D02*
X85960995Y-120904020D01*
X85960995Y-120904020D02*
X85924386Y-120749437D01*
X85924386Y-120749437D02*
X85922881Y-120745851D01*
X85922881Y-120745851D02*
X85883336Y-120666485D01*
X85883336Y-120666485D02*
X85871066Y-120701307D01*
X85871066Y-120701307D02*
X85871066Y-120701307D01*
G36*
X85922881Y-120745851D02*
G01*
X85924386Y-120749437D01*
X85960995Y-120904020D01*
X85974405Y-121095101D01*
X85971356Y-121317351D01*
X85922881Y-121126851D01*
X85889942Y-120960200D01*
X85871358Y-120777601D01*
X85871066Y-120701307D01*
X85883336Y-120666485D01*
X85922881Y-120745851D01*
G37*
X85922881Y-120745851D02*
X85924386Y-120749437D01*
X85960995Y-120904020D01*
X85974405Y-121095101D01*
X85971356Y-121317351D01*
X85922881Y-121126851D01*
X85889942Y-120960200D01*
X85871358Y-120777601D01*
X85871066Y-120701307D01*
X85883336Y-120666485D01*
X85922881Y-120745851D01*
X86902658Y-120644211D02*
X86879667Y-120790232D01*
X86879667Y-120790232D02*
X86875381Y-120904601D01*
X86875381Y-120904601D02*
X86886804Y-121085716D01*
X86886804Y-121085716D02*
X86916008Y-121200674D01*
X86916008Y-121200674D02*
X86938881Y-121222101D01*
X86938881Y-121222101D02*
X86975105Y-121164990D01*
X86975105Y-121164990D02*
X86998096Y-121018969D01*
X86998096Y-121018969D02*
X87002381Y-120904601D01*
X87002381Y-120904601D02*
X86990959Y-120723485D01*
X86990959Y-120723485D02*
X86961755Y-120608527D01*
X86961755Y-120608527D02*
X86938881Y-120587101D01*
X86938881Y-120587101D02*
X86902658Y-120644211D01*
X86902658Y-120644211D02*
X86902658Y-120644211D01*
G36*
X86961755Y-120608527D02*
G01*
X86990959Y-120723485D01*
X87002381Y-120904601D01*
X86998096Y-121018969D01*
X86975105Y-121164990D01*
X86938881Y-121222101D01*
X86916008Y-121200674D01*
X86886804Y-121085716D01*
X86875381Y-120904601D01*
X86879667Y-120790232D01*
X86902658Y-120644211D01*
X86938881Y-120587101D01*
X86961755Y-120608527D01*
G37*
X86961755Y-120608527D02*
X86990959Y-120723485D01*
X87002381Y-120904601D01*
X86998096Y-121018969D01*
X86975105Y-121164990D01*
X86938881Y-121222101D01*
X86916008Y-121200674D01*
X86886804Y-121085716D01*
X86875381Y-120904601D01*
X86879667Y-120790232D01*
X86902658Y-120644211D01*
X86938881Y-120587101D01*
X86961755Y-120608527D01*
X86375857Y-120557170D02*
X86372130Y-120667284D01*
X86372130Y-120667284D02*
X86383364Y-120822533D01*
X86383364Y-120822533D02*
X86406859Y-120982807D01*
X86406859Y-120982807D02*
X86435163Y-121095101D01*
X86435163Y-121095101D02*
X86463425Y-121149562D01*
X86463425Y-121149562D02*
X86470924Y-121086647D01*
X86470924Y-121086647D02*
X86458701Y-120908010D01*
X86458701Y-120908010D02*
X86436161Y-120711336D01*
X86436161Y-120711336D02*
X86411727Y-120572783D01*
X86411727Y-120572783D02*
X86397249Y-120532302D01*
X86397249Y-120532302D02*
X86375857Y-120557170D01*
X86375857Y-120557170D02*
X86375857Y-120557170D01*
G36*
X86411727Y-120572783D02*
G01*
X86436161Y-120711336D01*
X86458701Y-120908010D01*
X86470924Y-121086647D01*
X86463425Y-121149562D01*
X86435163Y-121095101D01*
X86406859Y-120982807D01*
X86383364Y-120822533D01*
X86372130Y-120667284D01*
X86375857Y-120557170D01*
X86397249Y-120532302D01*
X86411727Y-120572783D01*
G37*
X86411727Y-120572783D02*
X86436161Y-120711336D01*
X86458701Y-120908010D01*
X86470924Y-121086647D01*
X86463425Y-121149562D01*
X86435163Y-121095101D01*
X86406859Y-120982807D01*
X86383364Y-120822533D01*
X86372130Y-120667284D01*
X86375857Y-120557170D01*
X86397249Y-120532302D01*
X86411727Y-120572783D01*
X103557355Y-118930420D02*
X103518802Y-119051535D01*
X103518802Y-119051535D02*
X103473290Y-119239849D01*
X103473290Y-119239849D02*
X103426605Y-119466142D01*
X103426605Y-119466142D02*
X103384537Y-119701193D01*
X103384537Y-119701193D02*
X103352871Y-119915781D01*
X103352871Y-119915781D02*
X103337395Y-120080687D01*
X103337395Y-120080687D02*
X103338176Y-120142601D01*
X103338176Y-120142601D02*
X103355763Y-120150380D01*
X103355763Y-120150380D02*
X103390646Y-120051239D01*
X103390646Y-120051239D02*
X103437589Y-119863238D01*
X103437589Y-119863238D02*
X103485503Y-119634601D01*
X103485503Y-119634601D02*
X103536100Y-119355477D01*
X103536100Y-119355477D02*
X103571122Y-119121375D01*
X103571122Y-119121375D02*
X103586733Y-118960940D01*
X103586733Y-118960940D02*
X103583160Y-118905725D01*
X103583160Y-118905725D02*
X103557355Y-118930420D01*
X103557355Y-118930420D02*
X103557355Y-118930420D01*
G36*
X103586733Y-118960940D02*
G01*
X103571122Y-119121375D01*
X103536100Y-119355477D01*
X103485503Y-119634601D01*
X103437589Y-119863238D01*
X103390646Y-120051239D01*
X103355763Y-120150380D01*
X103338176Y-120142601D01*
X103337395Y-120080687D01*
X103352871Y-119915781D01*
X103384537Y-119701193D01*
X103426605Y-119466142D01*
X103473290Y-119239849D01*
X103518802Y-119051535D01*
X103557355Y-118930420D01*
X103583160Y-118905725D01*
X103586733Y-118960940D01*
G37*
X103586733Y-118960940D02*
X103571122Y-119121375D01*
X103536100Y-119355477D01*
X103485503Y-119634601D01*
X103437589Y-119863238D01*
X103390646Y-120051239D01*
X103355763Y-120150380D01*
X103338176Y-120142601D01*
X103337395Y-120080687D01*
X103352871Y-119915781D01*
X103384537Y-119701193D01*
X103426605Y-119466142D01*
X103473290Y-119239849D01*
X103518802Y-119051535D01*
X103557355Y-118930420D01*
X103583160Y-118905725D01*
X103586733Y-118960940D01*
X103030607Y-119185800D02*
X103006490Y-119287328D01*
X103006490Y-119287328D02*
X102982770Y-119452087D01*
X102982770Y-119452087D02*
X102962872Y-119648272D01*
X102962872Y-119648272D02*
X102950222Y-119844080D01*
X102950222Y-119844080D02*
X102948245Y-120007709D01*
X102948245Y-120007709D02*
X102954422Y-120082457D01*
X102954422Y-120082457D02*
X102971869Y-120099174D01*
X102971869Y-120099174D02*
X102995949Y-120008121D01*
X102995949Y-120008121D02*
X103022333Y-119828055D01*
X103022333Y-119828055D02*
X103030963Y-119750804D01*
X103030963Y-119750804D02*
X103051666Y-119506559D01*
X103051666Y-119506559D02*
X103059836Y-119306494D01*
X103059836Y-119306494D02*
X103054105Y-119188387D01*
X103054105Y-119188387D02*
X103051695Y-119179304D01*
X103051695Y-119179304D02*
X103030607Y-119185800D01*
X103030607Y-119185800D02*
X103030607Y-119185800D01*
G36*
X103054105Y-119188387D02*
G01*
X103059836Y-119306494D01*
X103051666Y-119506559D01*
X103030963Y-119750804D01*
X103022333Y-119828055D01*
X102995949Y-120008121D01*
X102971869Y-120099174D01*
X102954422Y-120082457D01*
X102948245Y-120007709D01*
X102950222Y-119844080D01*
X102962872Y-119648272D01*
X102982770Y-119452087D01*
X103006490Y-119287328D01*
X103030607Y-119185800D01*
X103051695Y-119179304D01*
X103054105Y-119188387D01*
G37*
X103054105Y-119188387D02*
X103059836Y-119306494D01*
X103051666Y-119506559D01*
X103030963Y-119750804D01*
X103022333Y-119828055D01*
X102995949Y-120008121D01*
X102971869Y-120099174D01*
X102954422Y-120082457D01*
X102948245Y-120007709D01*
X102950222Y-119844080D01*
X102962872Y-119648272D01*
X102982770Y-119452087D01*
X103006490Y-119287328D01*
X103030607Y-119185800D01*
X103051695Y-119179304D01*
X103054105Y-119188387D01*
X102528259Y-118949084D02*
X102500472Y-119029172D01*
X102500472Y-119029172D02*
X102468046Y-119202956D01*
X102468046Y-119202956D02*
X102436765Y-119437563D01*
X102436765Y-119437563D02*
X102428131Y-119518234D01*
X102428131Y-119518234D02*
X102403001Y-119804354D01*
X102403001Y-119804354D02*
X102394696Y-119990004D01*
X102394696Y-119990004D02*
X102402818Y-120068222D01*
X102402818Y-120068222D02*
X102426968Y-120032044D01*
X102426968Y-120032044D02*
X102452192Y-119939183D01*
X102452192Y-119939183D02*
X102482723Y-119773846D01*
X102482723Y-119773846D02*
X102509731Y-119565045D01*
X102509731Y-119565045D02*
X102530711Y-119345380D01*
X102530711Y-119345380D02*
X102543157Y-119147452D01*
X102543157Y-119147452D02*
X102544566Y-119003861D01*
X102544566Y-119003861D02*
X102532432Y-118947208D01*
X102532432Y-118947208D02*
X102528259Y-118949084D01*
X102528259Y-118949084D02*
X102528259Y-118949084D01*
G36*
X102544566Y-119003861D02*
G01*
X102543157Y-119147452D01*
X102530711Y-119345380D01*
X102509731Y-119565045D01*
X102482723Y-119773846D01*
X102452192Y-119939183D01*
X102426968Y-120032044D01*
X102402818Y-120068222D01*
X102394696Y-119990004D01*
X102403001Y-119804354D01*
X102428131Y-119518234D01*
X102436765Y-119437563D01*
X102468046Y-119202956D01*
X102500472Y-119029172D01*
X102528259Y-118949084D01*
X102532432Y-118947208D01*
X102544566Y-119003861D01*
G37*
X102544566Y-119003861D02*
X102543157Y-119147452D01*
X102530711Y-119345380D01*
X102509731Y-119565045D01*
X102482723Y-119773846D01*
X102452192Y-119939183D01*
X102426968Y-120032044D01*
X102402818Y-120068222D01*
X102394696Y-119990004D01*
X102403001Y-119804354D01*
X102428131Y-119518234D01*
X102436765Y-119437563D01*
X102468046Y-119202956D01*
X102500472Y-119029172D01*
X102528259Y-118949084D01*
X102532432Y-118947208D01*
X102544566Y-119003861D01*
X77802393Y-116419103D02*
X77810986Y-116433372D01*
X77810986Y-116433372D02*
X77815433Y-116510181D01*
X77815433Y-116510181D02*
X77786475Y-116666723D01*
X77786475Y-116666723D02*
X77753749Y-116788885D01*
X77753749Y-116788885D02*
X77698759Y-117002725D01*
X77698759Y-117002725D02*
X77686203Y-117114594D01*
X77686203Y-117114594D02*
X77710631Y-117118224D01*
X77710631Y-117118224D02*
X77766592Y-117007347D01*
X77766592Y-117007347D02*
X77819490Y-116864480D01*
X77819490Y-116864480D02*
X77894710Y-116619798D01*
X77894710Y-116619798D02*
X77917136Y-116472603D01*
X77917136Y-116472603D02*
X77887826Y-116405368D01*
X77887826Y-116405368D02*
X77847798Y-116396101D01*
X77847798Y-116396101D02*
X77802393Y-116419103D01*
X77802393Y-116419103D02*
X77802393Y-116419103D01*
G36*
X77887826Y-116405368D02*
G01*
X77917136Y-116472603D01*
X77894710Y-116619798D01*
X77819490Y-116864480D01*
X77766592Y-117007347D01*
X77710631Y-117118224D01*
X77686203Y-117114594D01*
X77698759Y-117002725D01*
X77753749Y-116788885D01*
X77786475Y-116666723D01*
X77815433Y-116510181D01*
X77810986Y-116433372D01*
X77802393Y-116419103D01*
X77847798Y-116396101D01*
X77887826Y-116405368D01*
G37*
X77887826Y-116405368D02*
X77917136Y-116472603D01*
X77894710Y-116619798D01*
X77819490Y-116864480D01*
X77766592Y-117007347D01*
X77710631Y-117118224D01*
X77686203Y-117114594D01*
X77698759Y-117002725D01*
X77753749Y-116788885D01*
X77786475Y-116666723D01*
X77815433Y-116510181D01*
X77810986Y-116433372D01*
X77802393Y-116419103D01*
X77847798Y-116396101D01*
X77887826Y-116405368D01*
X76913266Y-116543149D02*
X76914367Y-116586601D01*
X76914367Y-116586601D02*
X76935581Y-116769344D01*
X76935581Y-116769344D02*
X76969381Y-116935851D01*
X76969381Y-116935851D02*
X77000337Y-117048392D01*
X77000337Y-117048392D02*
X77015465Y-117054812D01*
X77015465Y-117054812D02*
X77022345Y-116946360D01*
X77022345Y-116946360D02*
X77024396Y-116872351D01*
X77024396Y-116872351D02*
X77013857Y-116684826D01*
X77013857Y-116684826D02*
X76979509Y-116542436D01*
X76979509Y-116542436D02*
X76969381Y-116523101D01*
X76969381Y-116523101D02*
X76925478Y-116477566D01*
X76925478Y-116477566D02*
X76913266Y-116543149D01*
X76913266Y-116543149D02*
X76913266Y-116543149D01*
G36*
X76969381Y-116523101D02*
G01*
X76979509Y-116542436D01*
X77013857Y-116684826D01*
X77024396Y-116872351D01*
X77022345Y-116946360D01*
X77015465Y-117054812D01*
X77000337Y-117048392D01*
X76969381Y-116935851D01*
X76935581Y-116769344D01*
X76914367Y-116586601D01*
X76913266Y-116543149D01*
X76925478Y-116477566D01*
X76969381Y-116523101D01*
G37*
X76969381Y-116523101D02*
X76979509Y-116542436D01*
X77013857Y-116684826D01*
X77024396Y-116872351D01*
X77022345Y-116946360D01*
X77015465Y-117054812D01*
X77000337Y-117048392D01*
X76969381Y-116935851D01*
X76935581Y-116769344D01*
X76914367Y-116586601D01*
X76913266Y-116543149D01*
X76925478Y-116477566D01*
X76969381Y-116523101D01*
X77410254Y-116650101D02*
X77377526Y-116847974D01*
X77377526Y-116847974D02*
X77370806Y-116983218D01*
X77370806Y-116983218D02*
X77389285Y-117033845D01*
X77389285Y-117033845D02*
X77422983Y-116996223D01*
X77422983Y-116996223D02*
X77444153Y-116900019D01*
X77444153Y-116900019D02*
X77459329Y-116728990D01*
X77459329Y-116728990D02*
X77462419Y-116650101D01*
X77462419Y-116650101D02*
X77469503Y-116364351D01*
X77469503Y-116364351D02*
X77410254Y-116650101D01*
X77410254Y-116650101D02*
X77410254Y-116650101D01*
G36*
X77462419Y-116650101D02*
G01*
X77459329Y-116728990D01*
X77444153Y-116900019D01*
X77422983Y-116996223D01*
X77389285Y-117033845D01*
X77370806Y-116983218D01*
X77377526Y-116847974D01*
X77410254Y-116650101D01*
X77469503Y-116364351D01*
X77462419Y-116650101D01*
G37*
X77462419Y-116650101D02*
X77459329Y-116728990D01*
X77444153Y-116900019D01*
X77422983Y-116996223D01*
X77389285Y-117033845D01*
X77370806Y-116983218D01*
X77377526Y-116847974D01*
X77410254Y-116650101D01*
X77469503Y-116364351D01*
X77462419Y-116650101D01*
X77674843Y-108056897D02*
X77695028Y-108176811D01*
X77695028Y-108176811D02*
X77749894Y-108398090D01*
X77749894Y-108398090D02*
X77765841Y-108458601D01*
X77765841Y-108458601D02*
X77858419Y-108807851D01*
X77858419Y-108807851D02*
X77828338Y-108463463D01*
X77828338Y-108463463D02*
X77800151Y-108258903D01*
X77800151Y-108258903D02*
X77760220Y-108104934D01*
X77760220Y-108104934D02*
X77733069Y-108053888D01*
X77733069Y-108053888D02*
X77687977Y-108021529D01*
X77687977Y-108021529D02*
X77674843Y-108056897D01*
X77674843Y-108056897D02*
X77674843Y-108056897D01*
G36*
X77733069Y-108053888D02*
G01*
X77760220Y-108104934D01*
X77800151Y-108258903D01*
X77828338Y-108463463D01*
X77858419Y-108807851D01*
X77765841Y-108458601D01*
X77749894Y-108398090D01*
X77695028Y-108176811D01*
X77674843Y-108056897D01*
X77687977Y-108021529D01*
X77733069Y-108053888D01*
G37*
X77733069Y-108053888D02*
X77760220Y-108104934D01*
X77800151Y-108258903D01*
X77828338Y-108463463D01*
X77858419Y-108807851D01*
X77765841Y-108458601D01*
X77749894Y-108398090D01*
X77695028Y-108176811D01*
X77674843Y-108056897D01*
X77687977Y-108021529D01*
X77733069Y-108053888D01*
X77312463Y-108319322D02*
X77325028Y-108426851D01*
X77325028Y-108426851D02*
X77365661Y-108604151D01*
X77365661Y-108604151D02*
X77415756Y-108727812D01*
X77415756Y-108727812D02*
X77428273Y-108744351D01*
X77428273Y-108744351D02*
X77462324Y-108742056D01*
X77462324Y-108742056D02*
X77452341Y-108623155D01*
X77452341Y-108623155D02*
X77445034Y-108585601D01*
X77445034Y-108585601D02*
X77398629Y-108402498D01*
X77398629Y-108402498D02*
X77353975Y-108287704D01*
X77353975Y-108287704D02*
X77321708Y-108255290D01*
X77321708Y-108255290D02*
X77312463Y-108319322D01*
X77312463Y-108319322D02*
X77312463Y-108319322D01*
G36*
X77353975Y-108287704D02*
G01*
X77398629Y-108402498D01*
X77445034Y-108585601D01*
X77452341Y-108623155D01*
X77462324Y-108742056D01*
X77428273Y-108744351D01*
X77415756Y-108727812D01*
X77365661Y-108604151D01*
X77325028Y-108426851D01*
X77312463Y-108319322D01*
X77321708Y-108255290D01*
X77353975Y-108287704D01*
G37*
X77353975Y-108287704D02*
X77398629Y-108402498D01*
X77445034Y-108585601D01*
X77452341Y-108623155D01*
X77462324Y-108742056D01*
X77428273Y-108744351D01*
X77415756Y-108727812D01*
X77365661Y-108604151D01*
X77325028Y-108426851D01*
X77312463Y-108319322D01*
X77321708Y-108255290D01*
X77353975Y-108287704D01*
X78170029Y-108221844D02*
X78129266Y-108363806D01*
X78129266Y-108363806D02*
X78124335Y-108539344D01*
X78124335Y-108539344D02*
X78143238Y-108664180D01*
X78143238Y-108664180D02*
X78169462Y-108672944D01*
X78169462Y-108672944D02*
X78191756Y-108628032D01*
X78191756Y-108628032D02*
X78225671Y-108480794D01*
X78225671Y-108480794D02*
X78237451Y-108310532D01*
X78237451Y-108310532D02*
X78230128Y-108184298D01*
X78230128Y-108184298D02*
X78204688Y-108170893D01*
X78204688Y-108170893D02*
X78170029Y-108221844D01*
X78170029Y-108221844D02*
X78170029Y-108221844D01*
G36*
X78230128Y-108184298D02*
G01*
X78237451Y-108310532D01*
X78225671Y-108480794D01*
X78191756Y-108628032D01*
X78169462Y-108672944D01*
X78143238Y-108664180D01*
X78124335Y-108539344D01*
X78129266Y-108363806D01*
X78170029Y-108221844D01*
X78204688Y-108170893D01*
X78230128Y-108184298D01*
G37*
X78230128Y-108184298D02*
X78237451Y-108310532D01*
X78225671Y-108480794D01*
X78191756Y-108628032D01*
X78169462Y-108672944D01*
X78143238Y-108664180D01*
X78124335Y-108539344D01*
X78129266Y-108363806D01*
X78170029Y-108221844D01*
X78204688Y-108170893D01*
X78230128Y-108184298D01*
X97077353Y-120699899D02*
X96867414Y-120799365D01*
X96867414Y-120799365D02*
X96566054Y-120865550D01*
X96566054Y-120865550D02*
X96204769Y-120897119D01*
X96204769Y-120897119D02*
X95815056Y-120892734D01*
X95815056Y-120892734D02*
X95428409Y-120851061D01*
X95428409Y-120851061D02*
X95117582Y-120783020D01*
X95117582Y-120783020D02*
X94884276Y-120721264D01*
X94884276Y-120721264D02*
X94741126Y-120699439D01*
X94741126Y-120699439D02*
X94658462Y-120715392D01*
X94658462Y-120715392D02*
X94621410Y-120747022D01*
X94621410Y-120747022D02*
X94608840Y-120840301D01*
X94608840Y-120840301D02*
X94709543Y-120936903D01*
X94709543Y-120936903D02*
X94910376Y-121027972D01*
X94910376Y-121027972D02*
X95130381Y-121089995D01*
X95130381Y-121089995D02*
X95349332Y-121122281D01*
X95349332Y-121122281D02*
X95643941Y-121142082D01*
X95643941Y-121142082D02*
X95975044Y-121149390D01*
X95975044Y-121149390D02*
X96303479Y-121144199D01*
X96303479Y-121144199D02*
X96590081Y-121126500D01*
X96590081Y-121126500D02*
X96795686Y-121096285D01*
X96795686Y-121096285D02*
X96818296Y-121090333D01*
X96818296Y-121090333D02*
X96994821Y-121010391D01*
X96994821Y-121010391D02*
X97132630Y-120898121D01*
X97132630Y-120898121D02*
X97202430Y-120782729D01*
X97202430Y-120782729D02*
X97194699Y-120715018D01*
X97194699Y-120715018D02*
X97115720Y-120680920D01*
X97115720Y-120680920D02*
X97077353Y-120699899D01*
X97077353Y-120699899D02*
X97077353Y-120699899D01*
G36*
X97194699Y-120715018D02*
G01*
X97202430Y-120782729D01*
X97132630Y-120898121D01*
X96994821Y-121010391D01*
X96818296Y-121090333D01*
X96795686Y-121096285D01*
X96590081Y-121126500D01*
X96303479Y-121144199D01*
X95975044Y-121149390D01*
X95643941Y-121142082D01*
X95349332Y-121122281D01*
X95130381Y-121089995D01*
X94910376Y-121027972D01*
X94709543Y-120936903D01*
X94608840Y-120840301D01*
X94621410Y-120747022D01*
X94658462Y-120715392D01*
X94741126Y-120699439D01*
X94884276Y-120721264D01*
X95117582Y-120783020D01*
X95428409Y-120851061D01*
X95815056Y-120892734D01*
X96204769Y-120897119D01*
X96566054Y-120865550D01*
X96867414Y-120799365D01*
X97077353Y-120699899D01*
X97115720Y-120680920D01*
X97194699Y-120715018D01*
G37*
X97194699Y-120715018D02*
X97202430Y-120782729D01*
X97132630Y-120898121D01*
X96994821Y-121010391D01*
X96818296Y-121090333D01*
X96795686Y-121096285D01*
X96590081Y-121126500D01*
X96303479Y-121144199D01*
X95975044Y-121149390D01*
X95643941Y-121142082D01*
X95349332Y-121122281D01*
X95130381Y-121089995D01*
X94910376Y-121027972D01*
X94709543Y-120936903D01*
X94608840Y-120840301D01*
X94621410Y-120747022D01*
X94658462Y-120715392D01*
X94741126Y-120699439D01*
X94884276Y-120721264D01*
X95117582Y-120783020D01*
X95428409Y-120851061D01*
X95815056Y-120892734D01*
X96204769Y-120897119D01*
X96566054Y-120865550D01*
X96867414Y-120799365D01*
X97077353Y-120699899D01*
X97115720Y-120680920D01*
X97194699Y-120715018D01*
X92676156Y-119999090D02*
X92616307Y-120110184D01*
X92616307Y-120110184D02*
X92656277Y-120240576D01*
X92656277Y-120240576D02*
X92660561Y-120245899D01*
X92660561Y-120245899D02*
X92750342Y-120323011D01*
X92750342Y-120323011D02*
X92847263Y-120306860D01*
X92847263Y-120306860D02*
X92930951Y-120252050D01*
X92930951Y-120252050D02*
X93005904Y-120140697D01*
X93005904Y-120140697D02*
X92979514Y-120028124D01*
X92979514Y-120028124D02*
X92869127Y-119958303D01*
X92869127Y-119958303D02*
X92812631Y-119952101D01*
X92812631Y-119952101D02*
X92676156Y-119999090D01*
X92676156Y-119999090D02*
X92676156Y-119999090D01*
G36*
X92869127Y-119958303D02*
G01*
X92979514Y-120028124D01*
X93005904Y-120140697D01*
X92930951Y-120252050D01*
X92847263Y-120306860D01*
X92750342Y-120323011D01*
X92660561Y-120245899D01*
X92656277Y-120240576D01*
X92616307Y-120110184D01*
X92676156Y-119999090D01*
X92812631Y-119952101D01*
X92869127Y-119958303D01*
G37*
X92869127Y-119958303D02*
X92979514Y-120028124D01*
X93005904Y-120140697D01*
X92930951Y-120252050D01*
X92847263Y-120306860D01*
X92750342Y-120323011D01*
X92660561Y-120245899D01*
X92656277Y-120240576D01*
X92616307Y-120110184D01*
X92676156Y-119999090D01*
X92812631Y-119952101D01*
X92869127Y-119958303D01*
X98193065Y-119674348D02*
X98101352Y-119786273D01*
X98101352Y-119786273D02*
X98083131Y-119863771D01*
X98083131Y-119863771D02*
X98133398Y-119962213D01*
X98133398Y-119962213D02*
X98248448Y-120007765D01*
X98248448Y-120007765D02*
X98374663Y-119993461D01*
X98374663Y-119993461D02*
X98458353Y-119912512D01*
X98458353Y-119912512D02*
X98457854Y-119778815D01*
X98457854Y-119778815D02*
X98376889Y-119679436D01*
X98376889Y-119679436D02*
X98255971Y-119650743D01*
X98255971Y-119650743D02*
X98193065Y-119674348D01*
X98193065Y-119674348D02*
X98193065Y-119674348D01*
G36*
X98376889Y-119679436D02*
G01*
X98457854Y-119778815D01*
X98458353Y-119912512D01*
X98374663Y-119993461D01*
X98248448Y-120007765D01*
X98133398Y-119962213D01*
X98083131Y-119863771D01*
X98101352Y-119786273D01*
X98193065Y-119674348D01*
X98255971Y-119650743D01*
X98376889Y-119679436D01*
G37*
X98376889Y-119679436D02*
X98457854Y-119778815D01*
X98458353Y-119912512D01*
X98374663Y-119993461D01*
X98248448Y-120007765D01*
X98133398Y-119962213D01*
X98083131Y-119863771D01*
X98101352Y-119786273D01*
X98193065Y-119674348D01*
X98255971Y-119650743D01*
X98376889Y-119679436D01*
%TD*%
M02*
