G04 #@! TF.FileFunction,Legend,Top*
%FSLAX46Y46*%
G04 Gerber Fmt 4.6, Leading zero omitted, Abs format (unit mm)*
G04 Created by KiCad (PCBNEW 4.0.2-stable) date Tue Apr 26 20:10:33 2016*
%MOMM*%
G01*
G04 APERTURE LIST*
%ADD10C,0.100000*%
%ADD11C,0.250000*%
%ADD12C,0.150000*%
G04 APERTURE END LIST*
D10*
D11*
X155261905Y-99654762D02*
X155166667Y-99702381D01*
X154976190Y-99702381D01*
X154880952Y-99654762D01*
X154833333Y-99559524D01*
X154833333Y-99178571D01*
X154880952Y-99083333D01*
X154976190Y-99035714D01*
X155166667Y-99035714D01*
X155261905Y-99083333D01*
X155309524Y-99178571D01*
X155309524Y-99273810D01*
X154833333Y-99369048D01*
X155738095Y-99702381D02*
X155738095Y-99035714D01*
X155738095Y-99226190D02*
X155785714Y-99130952D01*
X155833333Y-99083333D01*
X155928571Y-99035714D01*
X156023810Y-99035714D01*
X157119048Y-99178571D02*
X157880953Y-99178571D01*
X157880953Y-99464286D02*
X157119048Y-99464286D01*
X159023810Y-98702381D02*
X159642858Y-98702381D01*
X159309524Y-99083333D01*
X159452382Y-99083333D01*
X159547620Y-99130952D01*
X159595239Y-99178571D01*
X159642858Y-99273810D01*
X159642858Y-99511905D01*
X159595239Y-99607143D01*
X159547620Y-99654762D01*
X159452382Y-99702381D01*
X159166667Y-99702381D01*
X159071429Y-99654762D01*
X159023810Y-99607143D01*
X160071429Y-99607143D02*
X160119048Y-99654762D01*
X160071429Y-99702381D01*
X160023810Y-99654762D01*
X160071429Y-99607143D01*
X160071429Y-99702381D01*
X160976191Y-98702381D02*
X160785714Y-98702381D01*
X160690476Y-98750000D01*
X160642857Y-98797619D01*
X160547619Y-98940476D01*
X160500000Y-99130952D01*
X160500000Y-99511905D01*
X160547619Y-99607143D01*
X160595238Y-99654762D01*
X160690476Y-99702381D01*
X160880953Y-99702381D01*
X160976191Y-99654762D01*
X161023810Y-99607143D01*
X161071429Y-99511905D01*
X161071429Y-99273810D01*
X161023810Y-99178571D01*
X160976191Y-99130952D01*
X160880953Y-99083333D01*
X160690476Y-99083333D01*
X160595238Y-99130952D01*
X160547619Y-99178571D01*
X160500000Y-99273810D01*
X161928572Y-98702381D02*
X161738095Y-98702381D01*
X161642857Y-98750000D01*
X161595238Y-98797619D01*
X161500000Y-98940476D01*
X161452381Y-99130952D01*
X161452381Y-99511905D01*
X161500000Y-99607143D01*
X161547619Y-99654762D01*
X161642857Y-99702381D01*
X161833334Y-99702381D01*
X161928572Y-99654762D01*
X161976191Y-99607143D01*
X162023810Y-99511905D01*
X162023810Y-99273810D01*
X161976191Y-99178571D01*
X161928572Y-99130952D01*
X161833334Y-99083333D01*
X161642857Y-99083333D01*
X161547619Y-99130952D01*
X161500000Y-99178571D01*
X161452381Y-99273810D01*
X162500000Y-99654762D02*
X162500000Y-99702381D01*
X162452381Y-99797619D01*
X162404762Y-99845238D01*
X164119048Y-98702381D02*
X163928571Y-98702381D01*
X163833333Y-98750000D01*
X163785714Y-98797619D01*
X163690476Y-98940476D01*
X163642857Y-99130952D01*
X163642857Y-99511905D01*
X163690476Y-99607143D01*
X163738095Y-99654762D01*
X163833333Y-99702381D01*
X164023810Y-99702381D01*
X164119048Y-99654762D01*
X164166667Y-99607143D01*
X164214286Y-99511905D01*
X164214286Y-99273810D01*
X164166667Y-99178571D01*
X164119048Y-99130952D01*
X164023810Y-99083333D01*
X163833333Y-99083333D01*
X163738095Y-99130952D01*
X163690476Y-99178571D01*
X163642857Y-99273810D01*
X164642857Y-99607143D02*
X164690476Y-99654762D01*
X164642857Y-99702381D01*
X164595238Y-99654762D01*
X164642857Y-99607143D01*
X164642857Y-99702381D01*
X165023809Y-98702381D02*
X165690476Y-98702381D01*
X165261904Y-99702381D01*
X166833333Y-99702381D02*
X166833333Y-99035714D01*
X166833333Y-99130952D02*
X166880952Y-99083333D01*
X166976190Y-99035714D01*
X167119048Y-99035714D01*
X167214286Y-99083333D01*
X167261905Y-99178571D01*
X167261905Y-99702381D01*
X167261905Y-99178571D02*
X167309524Y-99083333D01*
X167404762Y-99035714D01*
X167547619Y-99035714D01*
X167642857Y-99083333D01*
X167690476Y-99178571D01*
X167690476Y-99702381D01*
X168166666Y-99702381D02*
X168166666Y-99035714D01*
X168166666Y-98702381D02*
X168119047Y-98750000D01*
X168166666Y-98797619D01*
X168214285Y-98750000D01*
X168166666Y-98702381D01*
X168166666Y-98797619D01*
X168785713Y-99702381D02*
X168690475Y-99654762D01*
X168642856Y-99559524D01*
X168642856Y-98702381D01*
X169928571Y-99035714D02*
X169928571Y-100035714D01*
X169928571Y-99083333D02*
X170023809Y-99035714D01*
X170214286Y-99035714D01*
X170309524Y-99083333D01*
X170357143Y-99130952D01*
X170404762Y-99226190D01*
X170404762Y-99511905D01*
X170357143Y-99607143D01*
X170309524Y-99654762D01*
X170214286Y-99702381D01*
X170023809Y-99702381D01*
X169928571Y-99654762D01*
X170833333Y-99702381D02*
X170833333Y-99035714D01*
X170833333Y-99226190D02*
X170880952Y-99130952D01*
X170928571Y-99083333D01*
X171023809Y-99035714D01*
X171119048Y-99035714D01*
X171833334Y-99654762D02*
X171738096Y-99702381D01*
X171547619Y-99702381D01*
X171452381Y-99654762D01*
X171404762Y-99559524D01*
X171404762Y-99178571D01*
X171452381Y-99083333D01*
X171547619Y-99035714D01*
X171738096Y-99035714D01*
X171833334Y-99083333D01*
X171880953Y-99178571D01*
X171880953Y-99273810D01*
X171404762Y-99369048D01*
X172309524Y-99035714D02*
X172309524Y-100035714D01*
X172309524Y-99083333D02*
X172404762Y-99035714D01*
X172595239Y-99035714D01*
X172690477Y-99083333D01*
X172738096Y-99130952D01*
X172785715Y-99226190D01*
X172785715Y-99511905D01*
X172738096Y-99607143D01*
X172690477Y-99654762D01*
X172595239Y-99702381D01*
X172404762Y-99702381D01*
X172309524Y-99654762D01*
X173214286Y-99702381D02*
X173214286Y-99035714D01*
X173214286Y-99226190D02*
X173261905Y-99130952D01*
X173309524Y-99083333D01*
X173404762Y-99035714D01*
X173500001Y-99035714D01*
X174214287Y-99654762D02*
X174119049Y-99702381D01*
X173928572Y-99702381D01*
X173833334Y-99654762D01*
X173785715Y-99559524D01*
X173785715Y-99178571D01*
X173833334Y-99083333D01*
X173928572Y-99035714D01*
X174119049Y-99035714D01*
X174214287Y-99083333D01*
X174261906Y-99178571D01*
X174261906Y-99273810D01*
X173785715Y-99369048D01*
X175119049Y-99035714D02*
X175119049Y-99845238D01*
X175071430Y-99940476D01*
X175023811Y-99988095D01*
X174928572Y-100035714D01*
X174785715Y-100035714D01*
X174690477Y-99988095D01*
X175119049Y-99654762D02*
X175023811Y-99702381D01*
X174833334Y-99702381D01*
X174738096Y-99654762D01*
X174690477Y-99607143D01*
X174642858Y-99511905D01*
X174642858Y-99226190D01*
X174690477Y-99130952D01*
X174738096Y-99083333D01*
X174833334Y-99035714D01*
X175023811Y-99035714D01*
X175119049Y-99083333D01*
X155238096Y-97428571D02*
X154904762Y-97428571D01*
X154904762Y-97952381D02*
X154904762Y-96952381D01*
X155380953Y-96952381D01*
X156333334Y-97952381D02*
X156000000Y-97476190D01*
X155761905Y-97952381D02*
X155761905Y-96952381D01*
X156142858Y-96952381D01*
X156238096Y-97000000D01*
X156285715Y-97047619D01*
X156333334Y-97142857D01*
X156333334Y-97285714D01*
X156285715Y-97380952D01*
X156238096Y-97428571D01*
X156142858Y-97476190D01*
X155761905Y-97476190D01*
X157190477Y-97285714D02*
X157190477Y-97952381D01*
X156952381Y-96904762D02*
X156714286Y-97619048D01*
X157333334Y-97619048D01*
X157904762Y-96952381D02*
X158000001Y-96952381D01*
X158095239Y-97000000D01*
X158142858Y-97047619D01*
X158190477Y-97142857D01*
X158238096Y-97333333D01*
X158238096Y-97571429D01*
X158190477Y-97761905D01*
X158142858Y-97857143D01*
X158095239Y-97904762D01*
X158000001Y-97952381D01*
X157904762Y-97952381D01*
X157809524Y-97904762D01*
X157761905Y-97857143D01*
X157714286Y-97761905D01*
X157666667Y-97571429D01*
X157666667Y-97333333D01*
X157714286Y-97142857D01*
X157761905Y-97047619D01*
X157809524Y-97000000D01*
X157904762Y-96952381D01*
X158809524Y-97380952D02*
X158714286Y-97333333D01*
X158666667Y-97285714D01*
X158619048Y-97190476D01*
X158619048Y-97142857D01*
X158666667Y-97047619D01*
X158714286Y-97000000D01*
X158809524Y-96952381D01*
X159000001Y-96952381D01*
X159095239Y-97000000D01*
X159142858Y-97047619D01*
X159190477Y-97142857D01*
X159190477Y-97190476D01*
X159142858Y-97285714D01*
X159095239Y-97333333D01*
X159000001Y-97380952D01*
X158809524Y-97380952D01*
X158714286Y-97428571D01*
X158666667Y-97476190D01*
X158619048Y-97571429D01*
X158619048Y-97761905D01*
X158666667Y-97857143D01*
X158714286Y-97904762D01*
X158809524Y-97952381D01*
X159000001Y-97952381D01*
X159095239Y-97904762D01*
X159142858Y-97857143D01*
X159190477Y-97761905D01*
X159190477Y-97571429D01*
X159142858Y-97476190D01*
X159095239Y-97428571D01*
X159000001Y-97380952D01*
X160238096Y-96952381D02*
X160809525Y-96952381D01*
X160523810Y-97952381D02*
X160523810Y-96952381D01*
X161714287Y-97952381D02*
X161380953Y-97476190D01*
X161142858Y-97952381D02*
X161142858Y-96952381D01*
X161523811Y-96952381D01*
X161619049Y-97000000D01*
X161666668Y-97047619D01*
X161714287Y-97142857D01*
X161714287Y-97285714D01*
X161666668Y-97380952D01*
X161619049Y-97428571D01*
X161523811Y-97476190D01*
X161142858Y-97476190D01*
X162619049Y-97952381D02*
X162142858Y-97952381D01*
X162142858Y-96952381D01*
X163000001Y-97904762D02*
X163000001Y-97952381D01*
X162952382Y-98047619D01*
X162904763Y-98095238D01*
X164666668Y-97952381D02*
X164190477Y-97952381D01*
X164190477Y-96952381D01*
X165761906Y-97571429D02*
X166523811Y-97571429D01*
X166142859Y-97952381D02*
X166142859Y-97190476D01*
X167714287Y-97047619D02*
X167761906Y-97000000D01*
X167857144Y-96952381D01*
X168095240Y-96952381D01*
X168190478Y-97000000D01*
X168238097Y-97047619D01*
X168285716Y-97142857D01*
X168285716Y-97238095D01*
X168238097Y-97380952D01*
X167666668Y-97952381D01*
X168285716Y-97952381D01*
X168619049Y-97952381D02*
X169142859Y-97285714D01*
X168619049Y-97285714D02*
X169142859Y-97952381D01*
X169428573Y-96952381D02*
X170095240Y-96952381D01*
X169666668Y-97952381D01*
X170476192Y-97857143D02*
X170523811Y-97904762D01*
X170476192Y-97952381D01*
X170428573Y-97904762D01*
X170476192Y-97857143D01*
X170476192Y-97952381D01*
X171428573Y-96952381D02*
X170952382Y-96952381D01*
X170904763Y-97428571D01*
X170952382Y-97380952D01*
X171047620Y-97333333D01*
X171285716Y-97333333D01*
X171380954Y-97380952D01*
X171428573Y-97428571D01*
X171476192Y-97523810D01*
X171476192Y-97761905D01*
X171428573Y-97857143D01*
X171380954Y-97904762D01*
X171285716Y-97952381D01*
X171047620Y-97952381D01*
X170952382Y-97904762D01*
X170904763Y-97857143D01*
X171904763Y-97952381D02*
X171904763Y-97285714D01*
X171904763Y-97380952D02*
X171952382Y-97333333D01*
X172047620Y-97285714D01*
X172190478Y-97285714D01*
X172285716Y-97333333D01*
X172333335Y-97428571D01*
X172333335Y-97952381D01*
X172333335Y-97428571D02*
X172380954Y-97333333D01*
X172476192Y-97285714D01*
X172619049Y-97285714D01*
X172714287Y-97333333D01*
X172761906Y-97428571D01*
X172761906Y-97952381D01*
X173238096Y-97952381D02*
X173238096Y-97285714D01*
X173238096Y-97380952D02*
X173285715Y-97333333D01*
X173380953Y-97285714D01*
X173523811Y-97285714D01*
X173619049Y-97333333D01*
X173666668Y-97428571D01*
X173666668Y-97952381D01*
X173666668Y-97428571D02*
X173714287Y-97333333D01*
X173809525Y-97285714D01*
X173952382Y-97285714D01*
X174047620Y-97333333D01*
X174095239Y-97428571D01*
X174095239Y-97952381D01*
X154690476Y-107952381D02*
X154119047Y-107952381D01*
X154404761Y-107952381D02*
X154404761Y-106952381D01*
X154309523Y-107095238D01*
X154214285Y-107190476D01*
X154119047Y-107238095D01*
X156404762Y-107000000D02*
X156309524Y-106952381D01*
X156166667Y-106952381D01*
X156023809Y-107000000D01*
X155928571Y-107095238D01*
X155880952Y-107190476D01*
X155833333Y-107380952D01*
X155833333Y-107523810D01*
X155880952Y-107714286D01*
X155928571Y-107809524D01*
X156023809Y-107904762D01*
X156166667Y-107952381D01*
X156261905Y-107952381D01*
X156404762Y-107904762D01*
X156452381Y-107857143D01*
X156452381Y-107523810D01*
X156261905Y-107523810D01*
X156880952Y-107952381D02*
X156880952Y-106952381D01*
X156880952Y-107428571D02*
X157452381Y-107428571D01*
X157452381Y-107952381D02*
X157452381Y-106952381D01*
X157833333Y-107285714D02*
X158357143Y-107285714D01*
X157833333Y-107952381D01*
X158357143Y-107952381D01*
X159357143Y-107285714D02*
X159738095Y-107285714D01*
X159500000Y-106952381D02*
X159500000Y-107809524D01*
X159547619Y-107904762D01*
X159642857Y-107952381D01*
X159738095Y-107952381D01*
X160214286Y-107952381D02*
X160119048Y-107904762D01*
X160071429Y-107857143D01*
X160023810Y-107761905D01*
X160023810Y-107476190D01*
X160071429Y-107380952D01*
X160119048Y-107333333D01*
X160214286Y-107285714D01*
X160357144Y-107285714D01*
X160452382Y-107333333D01*
X160500001Y-107380952D01*
X160547620Y-107476190D01*
X160547620Y-107761905D01*
X160500001Y-107857143D01*
X160452382Y-107904762D01*
X160357144Y-107952381D01*
X160214286Y-107952381D01*
X162214287Y-106952381D02*
X161738096Y-106952381D01*
X161690477Y-107428571D01*
X161738096Y-107380952D01*
X161833334Y-107333333D01*
X162071430Y-107333333D01*
X162166668Y-107380952D01*
X162214287Y-107428571D01*
X162261906Y-107523810D01*
X162261906Y-107761905D01*
X162214287Y-107857143D01*
X162166668Y-107904762D01*
X162071430Y-107952381D01*
X161833334Y-107952381D01*
X161738096Y-107904762D01*
X161690477Y-107857143D01*
X163976192Y-107000000D02*
X163880954Y-106952381D01*
X163738097Y-106952381D01*
X163595239Y-107000000D01*
X163500001Y-107095238D01*
X163452382Y-107190476D01*
X163404763Y-107380952D01*
X163404763Y-107523810D01*
X163452382Y-107714286D01*
X163500001Y-107809524D01*
X163595239Y-107904762D01*
X163738097Y-107952381D01*
X163833335Y-107952381D01*
X163976192Y-107904762D01*
X164023811Y-107857143D01*
X164023811Y-107523810D01*
X163833335Y-107523810D01*
X164452382Y-107952381D02*
X164452382Y-106952381D01*
X164452382Y-107428571D02*
X165023811Y-107428571D01*
X165023811Y-107952381D02*
X165023811Y-106952381D01*
X165404763Y-107285714D02*
X165928573Y-107285714D01*
X165404763Y-107952381D01*
X165928573Y-107952381D01*
X158095239Y-102952381D02*
X157523810Y-102952381D01*
X157809524Y-102952381D02*
X157809524Y-101952381D01*
X157714286Y-102095238D01*
X157619048Y-102190476D01*
X157523810Y-102238095D01*
X159000001Y-101952381D02*
X158523810Y-101952381D01*
X158476191Y-102428571D01*
X158523810Y-102380952D01*
X158619048Y-102333333D01*
X158857144Y-102333333D01*
X158952382Y-102380952D01*
X159000001Y-102428571D01*
X159047620Y-102523810D01*
X159047620Y-102761905D01*
X159000001Y-102857143D01*
X158952382Y-102904762D01*
X158857144Y-102952381D01*
X158619048Y-102952381D01*
X158523810Y-102904762D01*
X158476191Y-102857143D01*
X160238096Y-102952381D02*
X160238096Y-102285714D01*
X160238096Y-102380952D02*
X160285715Y-102333333D01*
X160380953Y-102285714D01*
X160523811Y-102285714D01*
X160619049Y-102333333D01*
X160666668Y-102428571D01*
X160666668Y-102952381D01*
X160666668Y-102428571D02*
X160714287Y-102333333D01*
X160809525Y-102285714D01*
X160952382Y-102285714D01*
X161047620Y-102333333D01*
X161095239Y-102428571D01*
X161095239Y-102952381D01*
X161571429Y-102952381D02*
X161571429Y-102285714D01*
X161571429Y-102380952D02*
X161619048Y-102333333D01*
X161714286Y-102285714D01*
X161857144Y-102285714D01*
X161952382Y-102333333D01*
X162000001Y-102428571D01*
X162000001Y-102952381D01*
X162000001Y-102428571D02*
X162047620Y-102333333D01*
X162142858Y-102285714D01*
X162285715Y-102285714D01*
X162380953Y-102333333D01*
X162428572Y-102428571D01*
X162428572Y-102952381D01*
X158523810Y-86952381D02*
X158047619Y-86952381D01*
X158000000Y-87428571D01*
X158047619Y-87380952D01*
X158142857Y-87333333D01*
X158380953Y-87333333D01*
X158476191Y-87380952D01*
X158523810Y-87428571D01*
X158571429Y-87523810D01*
X158571429Y-87761905D01*
X158523810Y-87857143D01*
X158476191Y-87904762D01*
X158380953Y-87952381D01*
X158142857Y-87952381D01*
X158047619Y-87904762D01*
X158000000Y-87857143D01*
X159761905Y-87952381D02*
X159761905Y-87285714D01*
X159761905Y-87380952D02*
X159809524Y-87333333D01*
X159904762Y-87285714D01*
X160047620Y-87285714D01*
X160142858Y-87333333D01*
X160190477Y-87428571D01*
X160190477Y-87952381D01*
X160190477Y-87428571D02*
X160238096Y-87333333D01*
X160333334Y-87285714D01*
X160476191Y-87285714D01*
X160571429Y-87333333D01*
X160619048Y-87428571D01*
X160619048Y-87952381D01*
X161095238Y-87952381D02*
X161095238Y-87285714D01*
X161095238Y-87380952D02*
X161142857Y-87333333D01*
X161238095Y-87285714D01*
X161380953Y-87285714D01*
X161476191Y-87333333D01*
X161523810Y-87428571D01*
X161523810Y-87952381D01*
X161523810Y-87428571D02*
X161571429Y-87333333D01*
X161666667Y-87285714D01*
X161809524Y-87285714D01*
X161904762Y-87333333D01*
X161952381Y-87428571D01*
X161952381Y-87952381D01*
X154166666Y-91952381D02*
X153690475Y-91952381D01*
X153642856Y-92428571D01*
X153690475Y-92380952D01*
X153785713Y-92333333D01*
X154023809Y-92333333D01*
X154119047Y-92380952D01*
X154166666Y-92428571D01*
X154214285Y-92523810D01*
X154214285Y-92761905D01*
X154166666Y-92857143D01*
X154119047Y-92904762D01*
X154023809Y-92952381D01*
X153785713Y-92952381D01*
X153690475Y-92904762D01*
X153642856Y-92857143D01*
X155928571Y-92000000D02*
X155833333Y-91952381D01*
X155690476Y-91952381D01*
X155547618Y-92000000D01*
X155452380Y-92095238D01*
X155404761Y-92190476D01*
X155357142Y-92380952D01*
X155357142Y-92523810D01*
X155404761Y-92714286D01*
X155452380Y-92809524D01*
X155547618Y-92904762D01*
X155690476Y-92952381D01*
X155785714Y-92952381D01*
X155928571Y-92904762D01*
X155976190Y-92857143D01*
X155976190Y-92523810D01*
X155785714Y-92523810D01*
X156404761Y-92952381D02*
X156404761Y-91952381D01*
X156404761Y-92428571D02*
X156976190Y-92428571D01*
X156976190Y-92952381D02*
X156976190Y-91952381D01*
X157357142Y-92285714D02*
X157880952Y-92285714D01*
X157357142Y-92952381D01*
X157880952Y-92952381D01*
X158880952Y-92285714D02*
X159261904Y-92285714D01*
X159023809Y-91952381D02*
X159023809Y-92809524D01*
X159071428Y-92904762D01*
X159166666Y-92952381D01*
X159261904Y-92952381D01*
X159738095Y-92952381D02*
X159642857Y-92904762D01*
X159595238Y-92857143D01*
X159547619Y-92761905D01*
X159547619Y-92476190D01*
X159595238Y-92380952D01*
X159642857Y-92333333D01*
X159738095Y-92285714D01*
X159880953Y-92285714D01*
X159976191Y-92333333D01*
X160023810Y-92380952D01*
X160071429Y-92476190D01*
X160071429Y-92761905D01*
X160023810Y-92857143D01*
X159976191Y-92904762D01*
X159880953Y-92952381D01*
X159738095Y-92952381D01*
X161785715Y-92952381D02*
X161214286Y-92952381D01*
X161500000Y-92952381D02*
X161500000Y-91952381D01*
X161404762Y-92095238D01*
X161309524Y-92190476D01*
X161214286Y-92238095D01*
X162690477Y-91952381D02*
X162214286Y-91952381D01*
X162166667Y-92428571D01*
X162214286Y-92380952D01*
X162309524Y-92333333D01*
X162547620Y-92333333D01*
X162642858Y-92380952D01*
X162690477Y-92428571D01*
X162738096Y-92523810D01*
X162738096Y-92761905D01*
X162690477Y-92857143D01*
X162642858Y-92904762D01*
X162547620Y-92952381D01*
X162309524Y-92952381D01*
X162214286Y-92904762D01*
X162166667Y-92857143D01*
X164452382Y-92000000D02*
X164357144Y-91952381D01*
X164214287Y-91952381D01*
X164071429Y-92000000D01*
X163976191Y-92095238D01*
X163928572Y-92190476D01*
X163880953Y-92380952D01*
X163880953Y-92523810D01*
X163928572Y-92714286D01*
X163976191Y-92809524D01*
X164071429Y-92904762D01*
X164214287Y-92952381D01*
X164309525Y-92952381D01*
X164452382Y-92904762D01*
X164500001Y-92857143D01*
X164500001Y-92523810D01*
X164309525Y-92523810D01*
X164928572Y-92952381D02*
X164928572Y-91952381D01*
X164928572Y-92428571D02*
X165500001Y-92428571D01*
X165500001Y-92952381D02*
X165500001Y-91952381D01*
X165880953Y-92285714D02*
X166404763Y-92285714D01*
X165880953Y-92952381D01*
X166404763Y-92952381D01*
D12*
X177500000Y-84000000D02*
X171250000Y-84000000D01*
X177500000Y-96000000D02*
X171250000Y-96000000D01*
X147500000Y-96000000D02*
X153750000Y-96000000D01*
X147500000Y-84000000D02*
X153750000Y-84000000D01*
X147500000Y-111000000D02*
X153750000Y-111000000D01*
X147500000Y-99000000D02*
X153750000Y-99000000D01*
X190000000Y-99000000D02*
X183750000Y-99000000D01*
X190000000Y-111000000D02*
X183750000Y-111000000D01*
X168738095Y-94452381D02*
X168738095Y-95261905D01*
X168785714Y-95357143D01*
X168833333Y-95404762D01*
X168928571Y-95452381D01*
X169119048Y-95452381D01*
X169214286Y-95404762D01*
X169261905Y-95357143D01*
X169309524Y-95261905D01*
X169309524Y-94452381D01*
X170261905Y-94452381D02*
X169785714Y-94452381D01*
X169738095Y-94928571D01*
X169785714Y-94880952D01*
X169880952Y-94833333D01*
X170119048Y-94833333D01*
X170214286Y-94880952D01*
X170261905Y-94928571D01*
X170309524Y-95023810D01*
X170309524Y-95261905D01*
X170261905Y-95357143D01*
X170214286Y-95404762D01*
X170119048Y-95452381D01*
X169880952Y-95452381D01*
X169785714Y-95404762D01*
X169738095Y-95357143D01*
X155238095Y-94952381D02*
X155238095Y-95761905D01*
X155285714Y-95857143D01*
X155333333Y-95904762D01*
X155428571Y-95952381D01*
X155619048Y-95952381D01*
X155714286Y-95904762D01*
X155761905Y-95857143D01*
X155809524Y-95761905D01*
X155809524Y-94952381D01*
X156238095Y-95047619D02*
X156285714Y-95000000D01*
X156380952Y-94952381D01*
X156619048Y-94952381D01*
X156714286Y-95000000D01*
X156761905Y-95047619D01*
X156809524Y-95142857D01*
X156809524Y-95238095D01*
X156761905Y-95380952D01*
X156190476Y-95952381D01*
X156809524Y-95952381D01*
X155238095Y-109952381D02*
X155238095Y-110761905D01*
X155285714Y-110857143D01*
X155333333Y-110904762D01*
X155428571Y-110952381D01*
X155619048Y-110952381D01*
X155714286Y-110904762D01*
X155761905Y-110857143D01*
X155809524Y-110761905D01*
X155809524Y-109952381D01*
X156190476Y-109952381D02*
X156809524Y-109952381D01*
X156476190Y-110333333D01*
X156619048Y-110333333D01*
X156714286Y-110380952D01*
X156761905Y-110428571D01*
X156809524Y-110523810D01*
X156809524Y-110761905D01*
X156761905Y-110857143D01*
X156714286Y-110904762D01*
X156619048Y-110952381D01*
X156333333Y-110952381D01*
X156238095Y-110904762D01*
X156190476Y-110857143D01*
X181238095Y-109452381D02*
X181238095Y-110261905D01*
X181285714Y-110357143D01*
X181333333Y-110404762D01*
X181428571Y-110452381D01*
X181619048Y-110452381D01*
X181714286Y-110404762D01*
X181761905Y-110357143D01*
X181809524Y-110261905D01*
X181809524Y-109452381D01*
X182714286Y-109452381D02*
X182523809Y-109452381D01*
X182428571Y-109500000D01*
X182380952Y-109547619D01*
X182285714Y-109690476D01*
X182238095Y-109880952D01*
X182238095Y-110261905D01*
X182285714Y-110357143D01*
X182333333Y-110404762D01*
X182428571Y-110452381D01*
X182619048Y-110452381D01*
X182714286Y-110404762D01*
X182761905Y-110357143D01*
X182809524Y-110261905D01*
X182809524Y-110023810D01*
X182761905Y-109928571D01*
X182714286Y-109880952D01*
X182619048Y-109833333D01*
X182428571Y-109833333D01*
X182333333Y-109880952D01*
X182285714Y-109928571D01*
X182238095Y-110023810D01*
M02*
